<?xml version="1.0" encoding="utf-8"?><svg xmlns="http://www.w3.org/2000/svg" xmlns:xlink="http://www.w3.org/1999/xlink"><symbol viewBox="0 0 32 33" id="alarm" xmlns="http://www.w3.org/2000/svg"><path d="M14.992 4.087V3.043c0-.276.102-.542.284-.737A.935.935 0 0 1 15.96 2c.257 0 .503.11.685.306.182.195.284.46.284.737v1.044c0 .276-.102.542-.284.737a.935.935 0 0 1-.685.306.935.935 0 0 1-.685-.306 1.086 1.086 0 0 1-.284-.737ZM24.68 8.26a.91.91 0 0 0 .37-.08.968.968 0 0 0 .315-.226l.969-1.043c.182-.196.284-.461.284-.738 0-.277-.102-.542-.284-.738a.935.935 0 0 0-.686-.306.936.936 0 0 0-.685.306l-.969 1.043a1.071 1.071 0 0 0-.265.535c-.038.202-.018.412.055.603.073.19.198.353.357.468a.92.92 0 0 0 .539.176ZM6.557 7.954a.936.936 0 0 0 .685.306c.257 0 .504-.11.686-.306.181-.195.283-.46.283-.738 0-.277-.102-.542-.283-.738l-.97-1.043a.936.936 0 0 0-.685-.306.936.936 0 0 0-.685.306 1.086 1.086 0 0 0-.284.738c0 .277.102.542.284.738l.969 1.043Zm21.998 16.998v3.13a2.17 2.17 0 0 1-.568 1.475 1.87 1.87 0 0 1-1.37.611H5.305a1.87 1.87 0 0 1-1.37-.61 2.17 2.17 0 0 1-.568-1.476v-3.13c0-.554.204-1.084.568-1.476a1.87 1.87 0 0 1 1.37-.61v-4.174c0-1.514.278-3.014.819-4.412a11.565 11.565 0 0 1 2.33-3.733 10.63 10.63 0 0 1 3.485-2.482 9.993 9.993 0 0 1 4.103-.849c5.83.047 10.575 5.254 10.575 11.607v4.042c.514 0 1.007.22 1.37.612.364.39.568.921.568 1.475ZM16.77 13.462c2.3.416 4.035 2.664 4.035 5.23 0 .277.102.542.283.738a.935.935 0 0 0 .685.306c.257 0 .504-.11.685-.306.182-.196.284-.461.284-.738 0-3.573-2.43-6.707-5.652-7.288a.9.9 0 0 0-.38.009.935.935 0 0 0-.348.166c-.105.08-.193.18-.261.297a1.12 1.12 0 0 0 .034 1.165c.075.112.17.207.278.279.11.072.23.12.357.142Zm9.847 14.62v-3.13H5.305v3.13h21.312Z"/><path d="M14.992 4.087V3.043c0-.276.102-.542.284-.737A.935.935 0 0 1 15.96 2c.257 0 .503.11.685.306.182.195.284.46.284.737v1.044c0 .276-.102.542-.284.737a.935.935 0 0 1-.685.306.935.935 0 0 1-.685-.306 1.086 1.086 0 0 1-.284-.737ZM24.68 8.26a.91.91 0 0 0 .37-.08.968.968 0 0 0 .315-.226l.969-1.043c.182-.196.284-.461.284-.738 0-.277-.102-.542-.284-.738a.935.935 0 0 0-.686-.306.936.936 0 0 0-.685.306l-.969 1.043a1.071 1.071 0 0 0-.265.535c-.038.202-.018.412.055.603.073.19.198.353.357.468a.92.92 0 0 0 .539.176ZM6.557 7.954a.936.936 0 0 0 .685.306c.257 0 .504-.11.686-.306.181-.195.283-.46.283-.738 0-.277-.102-.542-.283-.738l-.97-1.043a.936.936 0 0 0-.685-.306.936.936 0 0 0-.685.306 1.086 1.086 0 0 0-.284.738c0 .277.102.542.284.738l.969 1.043Zm21.998 16.998v3.13a2.17 2.17 0 0 1-.568 1.475 1.87 1.87 0 0 1-1.37.611H5.305a1.87 1.87 0 0 1-1.37-.61 2.17 2.17 0 0 1-.568-1.476v-3.13c0-.554.204-1.084.568-1.476a1.87 1.87 0 0 1 1.37-.61v-4.174c0-1.514.278-3.014.819-4.412a11.565 11.565 0 0 1 2.33-3.733 10.63 10.63 0 0 1 3.485-2.482 9.993 9.993 0 0 1 4.103-.849c5.83.047 10.575 5.254 10.575 11.607v4.042c.514 0 1.007.22 1.37.612.364.39.568.921.568 1.475ZM16.77 13.462c2.3.416 4.035 2.664 4.035 5.23 0 .277.102.542.283.738a.935.935 0 0 0 .685.306c.257 0 .504-.11.685-.306.182-.196.284-.461.284-.738 0-3.573-2.43-6.707-5.652-7.288a.9.9 0 0 0-.38.009.935.935 0 0 0-.348.166c-.105.08-.193.18-.261.297a1.12 1.12 0 0 0 .034 1.165c.075.112.17.207.278.279.11.072.23.12.357.142Zm9.847 14.62v-3.13H5.305v3.13h21.312Z"/></symbol><symbol viewBox="0 0 12 10" id="arr-down" xmlns="http://www.w3.org/2000/svg"><path d="m1 2 5 5 5-5"/></symbol><symbol viewBox="0 0 12 13" id="arrow-angle-right" xmlns="http://www.w3.org/2000/svg"><path d="M1 11 11 1m0 0H1m10 0v10"/></symbol><symbol viewBox="0 0 9 5" id="arrow-part" xmlns="http://www.w3.org/2000/svg"><path d="m1 1 3.5 3.5L8 1"/></symbol><symbol viewBox="0 0 22 24" id="basket" xmlns="http://www.w3.org/2000/svg"><g clip-path="url(#aea)"><path d="M10.363 18.443a2.046 2.046 0 0 0-2.045 2.042 2.046 2.046 0 0 0 4.09 0 2.046 2.046 0 0 0-2.045-2.042Zm6.134 0a2.046 2.046 0 0 0-2.045 2.042 2.046 2.046 0 0 0 4.089 0 2.046 2.046 0 0 0-2.044-2.042Zm3.978-8.199L7.413 6.891a.614.614 0 0 0-.75.73L8.67 16.4h-.786L5.482 5.895a.613.613 0 0 0-.474-.464l-4.27-.882A.614.614 0 0 0 .489 5.75l3.885.802L6.797 17.15a.613.613 0 0 0 .598.477h12.07a.615.615 0 0 0 .607-.53l.858-6.175a.613.613 0 0 0-.455-.678Zm-8.14 3.91a.613.613 0 0 1-1.227 0v-2.696a.613.613 0 0 1 1.227 0v2.696Zm2.625 0a.613.613 0 0 1-1.227 0v-1.88a.613.613 0 0 1 1.227 0v1.88Zm2.625 0a.613.613 0 0 1-1.227 0v-1.226a.613.613 0 0 1 1.227 0v1.226Z"/></g><path fill-rule="evenodd" clip-rule="evenodd" d="M16.268 4.568a2.996 2.996 0 0 0-1.693-.523c-.627 0-1.21.193-1.693.523-.28-.843-.492-1.752-.492-2.383C12.39.98 13.37 0 14.575 0s2.185.98 2.185 2.185c0 .631-.212 1.54-.492 2.383Zm-4.722 2.274.024.006v-.011l-.024.005Zm4.972 1.217c-1.333-.33-2.766-.681-4.129-1.013a2.185 2.185 0 1 1 4.129 1.013Zm4.436 1.103c-.866-.217-2.155-.538-3.618-.9a2.995 2.995 0 0 0 .243-1.425c.87.18 1.762.45 2.308.765.596.344.969.928 1.067 1.56ZM9.869 6.439c-.36-.086-.706-.167-1.03-.243a2.19 2.19 0 0 1-.376-2.667 2.188 2.188 0 0 1 3.147-.7c.098.738.338 1.599.61 2.353a3.01 3.01 0 0 0-.449.774c-.628.113-1.305.278-1.902.483Zm10.124.075a3.43 3.43 0 0 1-.217.114c-.696-.295-1.587-.526-2.397-.672a3.01 3.01 0 0 0-.449-.774c.262-.727.494-1.553.599-2.273.095-.067.189-.128.278-.18a2.188 2.188 0 0 1 2.986.8 2.188 2.188 0 0 1-.8 2.985Z"/><defs><clipPath id="aea"><path transform="translate(0 3.064)" d="M0 0h20.936v20.936H0z"/></clipPath></defs></symbol><symbol viewBox="0 0 11 12" id="calendar" xmlns="http://www.w3.org/2000/svg"><path d="M2.4 5.4h1.2v1.2H2.4V5.4Zm8.4-3v8.4c0 .66-.54 1.2-1.2 1.2H1.2A1.2 1.2 0 0 1 0 10.8l.006-8.4c0-.66.528-1.2 1.194-1.2h.6V0H3v1.2h4.8V0H9v1.2h.6c.66 0 1.2.54 1.2 1.2ZM1.2 3.6h8.4V2.4H1.2v1.2Zm8.4 7.2v-6H1.2v6h8.4ZM7.2 6.6h1.2V5.4H7.2v1.2Zm-2.4 0H6V5.4H4.8v1.2Z"/></symbol><symbol viewBox="0 0 344.96 344.96" id="check" xmlns="http://www.w3.org/2000/svg"><g data-name="Слой 2"><path class="agcls-1" d="m321.85 86.24-40-23.11-23.1-40H212.5L172.48 0l-40 23.11H86.24l-23.11 40-40 23.1v46.21L0 172.48l23.11 40v46.21l40 23.11 23.11 40h46.21l40 23.1 40-23.11h46.21l23.11-40 40-23.11V212.5l23.11-40-23.11-40V86.24ZM156.91 243.07a16.79 16.79 0 0 1-23.34 0l-50.45-50.44a16.19 16.19 0 0 1 0-22.89l13.35-13.35a16.19 16.19 0 0 1 22.89 0l25.87 25.87 80.34-80.35a16.19 16.19 0 0 1 22.89 0l13.35 13.35a16.19 16.19 0 0 1 0 22.89Z" data-name="Capa 1"/></g></symbol><symbol viewBox="0 0 12 6" id="chevron-down" xmlns="http://www.w3.org/2000/svg"><path d="m1 .5 5 5 5-5"/></symbol><symbol viewBox="0 0 24 27" id="chevron-left" xmlns="http://www.w3.org/2000/svg"><path d="M18.01 1 6 13.472l12.01 12.472"/></symbol><symbol viewBox="0 0 24 27" id="chevron-right" xmlns="http://www.w3.org/2000/svg"><path d="m5.999 25.944 12.015-12.467L6.01 1"/></symbol><symbol viewBox="0 0 18 18" id="clock" xmlns="http://www.w3.org/2000/svg"><path d="M8.594.146a8.594 8.594 0 1 0 0 17.188 8.594 8.594 0 0 0 0-17.188Zm3.966 9.915H8.594a.661.661 0 0 1-.661-.66V3.45a.661.661 0 1 1 1.322 0v5.288h3.305a.66.66 0 1 1 0 1.322Z"/></symbol><symbol viewBox="0 0 31 30" id="fb" xmlns="http://www.w3.org/2000/svg"><g clip-path="url(#ala)"><path d="M26.105 0H4.895A4.4 4.4 0 0 0 .5 4.395v21.21A4.4 4.4 0 0 0 4.895 30h8.847V19.395h-3.515V14.12h3.515v-3.574a5.28 5.28 0 0 1 5.274-5.274h5.332v5.274h-5.332v3.574h5.332l-.88 5.274h-4.452V30h7.09a4.4 4.4 0 0 0 4.394-4.395V4.395A4.4 4.4 0 0 0 26.105 0Z"/></g><defs><clipPath id="ala"><path transform="translate(.5)" d="M0 0h30v30H0z"/></clipPath></defs></symbol><symbol viewBox="0 0 24 24" id="instagram" xmlns="http://www.w3.org/2000/svg"><path d="M11.999 7.377a4.624 4.624 0 1 0 0 9.248 4.624 4.624 0 0 0 0-9.248Zm0 7.627a3.004 3.004 0 1 1 0-6.008 3.004 3.004 0 0 1 0 6.008Zm4.807-6.719a1.078 1.078 0 1 0 0-2.156 1.078 1.078 0 0 0 0 2.156Z"/><path d="M20.533 6.11A4.605 4.605 0 0 0 17.9 3.48a6.607 6.607 0 0 0-2.186-.42c-.963-.042-1.268-.054-3.71-.054s-2.755 0-3.71.054a6.554 6.554 0 0 0-2.184.42 4.6 4.6 0 0 0-2.633 2.63 6.585 6.585 0 0 0-.419 2.186c-.043.962-.056 1.267-.056 3.71 0 2.442 0 2.753.056 3.71.015.748.156 1.486.419 2.187a4.61 4.61 0 0 0 2.634 2.632 6.583 6.583 0 0 0 2.185.45c.963.042 1.268.055 3.71.055s2.755 0 3.71-.055a6.616 6.616 0 0 0 2.186-.42 4.613 4.613 0 0 0 2.633-2.632c.263-.7.404-1.438.419-2.186.043-.962.056-1.267.056-3.71s0-2.753-.056-3.71a6.583 6.583 0 0 0-.421-2.217Zm-1.218 9.533a5.046 5.046 0 0 1-.311 1.688 2.987 2.987 0 0 1-1.712 1.71c-.535.2-1.1.305-1.67.312-.95.044-1.218.055-3.654.055-2.438 0-2.687 0-3.655-.055a4.961 4.961 0 0 1-1.67-.311 2.984 2.984 0 0 1-1.718-1.711 5.08 5.08 0 0 1-.311-1.67c-.043-.95-.053-1.217-.053-3.653 0-2.437 0-2.686.053-3.655a5.038 5.038 0 0 1 .311-1.687c.305-.79.93-1.41 1.719-1.712a5.01 5.01 0 0 1 1.669-.311c.95-.043 1.218-.055 3.655-.055s2.687 0 3.654.055a4.96 4.96 0 0 1 1.67.31 2.99 2.99 0 0 1 1.712 1.713 5.06 5.06 0 0 1 .311 1.669c.043.95.054 1.218.054 3.655 0 2.436 0 2.698-.043 3.654h-.011v-.001Z"/></symbol><symbol viewBox="0 0 35 33" id="mail" xmlns="http://www.w3.org/2000/svg"><path d="m29.25 11.568-11.333 6.697-11.334-6.697v-2.68l11.334 6.698L29.25 8.89m0-2.68H6.583c-1.572 0-2.833 1.193-2.833 2.68v16.074c0 .71.299 1.392.83 1.894a2.918 2.918 0 0 0 2.003.785H29.25c.751 0 1.472-.282 2.003-.785.532-.502.83-1.184.83-1.894V8.889c0-.71-.298-1.392-.83-1.895a2.919 2.919 0 0 0-2.003-.784Z"/><path d="m29.25 11.568-11.333 6.697-11.334-6.697v-2.68l11.334 6.698L29.25 8.89m0-2.68H6.583c-1.572 0-2.833 1.193-2.833 2.68v16.074c0 .71.299 1.392.83 1.894a2.918 2.918 0 0 0 2.003.785H29.25c.751 0 1.472-.282 2.003-.785.532-.502.83-1.184.83-1.894V8.889c0-.71-.298-1.392-.83-1.895a2.919 2.919 0 0 0-2.003-.784Z"/></symbol><symbol viewBox="0 0 31 31" id="message" xmlns="http://www.w3.org/2000/svg"><path d="M15.5 1C7.491 1 1 5.865 1 11.875c0 4.248 3.257 7.918 7.992 9.708L5.832 30l9.09-7.273c.193.006.38.023.578.023 8.009 0 14.5-4.865 14.5-10.875S23.509 1 15.5 1Z"/></symbol><symbol viewBox="0 0 32 33" id="push" xmlns="http://www.w3.org/2000/svg"><path d="M4.59 26.087c-.361-.037-1.082-.351-1.082-1.33 0-.988.85-1.421 1.273-1.44 2.086 0 2.54-1.479 2.589-2.3V13.76c0-4.707 4.209-6.905 6.237-7.413 0-1.818 1.527-2.363 2.395-2.42h.117c.868.057 2.395.602 2.395 2.42 2.028.508 6.237 2.706 6.237 7.413v7.259c.05.831.503 2.298 2.59 2.298.359.05.687.225.922.49.234.266.359.604.35.952 0 .978-.723 1.292-1.081 1.329H4.589Zm11.468 4.617c-2.402 0-4.344-1.663-4.344-3.695h8.693c0 2.032-1.942 3.695-4.349 3.695Z"/><path d="M4.59 26.087c-.361-.037-1.082-.351-1.082-1.33 0-.988.85-1.421 1.273-1.44 2.086 0 2.54-1.479 2.589-2.3V13.76c0-4.707 4.209-6.905 6.237-7.413 0-1.818 1.527-2.363 2.395-2.42h.117c.868.057 2.395.602 2.395 2.42 2.028.508 6.237 2.706 6.237 7.413v7.259c.05.831.503 2.298 2.59 2.298.359.05.687.225.922.49.234.266.359.604.35.952 0 .978-.723 1.292-1.081 1.329H4.589Zm11.468 4.617c-2.402 0-4.344-1.663-4.344-3.695h8.693c0 2.032-1.942 3.695-4.349 3.695Z"/><path d="M4.59 26.087h22.94c.358-.037 1.081-.351 1.081-1.33a1.37 1.37 0 0 0-.346-.954 1.493 1.493 0 0 0-.927-.487c-2.086 0-2.539-1.478-2.588-2.298v-7.259c0-4.707-4.21-6.905-6.237-7.413 0-1.818-1.528-2.363-2.396-2.42H16c-.87.057-2.395.602-2.395 2.42-2.028.508-6.237 2.706-6.237 7.413v7.259a2.653 2.653 0 0 1-.934 1.785 2.895 2.895 0 0 1-1.963.68c-.426.019-.967.286-.967 1.275 0 .978.725 1.292 1.081 1.329m4.89-21.7a.221.221 0 0 1-.015.183.233.233 0 0 1-.15.115C5.352 5.82 4.696 9.024 4.86 10.48a.223.223 0 0 1-.053.171.241.241 0 0 1-.164.085.254.254 0 0 1-.179-.052.236.236 0 0 1-.088-.156 5.844 5.844 0 0 1 1.197-3.983 6.33 6.33 0 0 1 3.602-2.304.247.247 0 0 1 .258.076c.02.024.034.052.042.081v-.01Z"/><path d="M4.59 26.087h22.94c.358-.037 1.081-.351 1.081-1.33a1.37 1.37 0 0 0-.346-.954 1.493 1.493 0 0 0-.927-.487c-2.086 0-2.539-1.478-2.588-2.298v-7.259c0-4.707-4.21-6.905-6.237-7.413 0-1.818-1.528-2.363-2.396-2.42H16c-.87.057-2.395.602-2.395 2.42-2.028.508-6.237 2.706-6.237 7.413v7.259a2.653 2.653 0 0 1-.934 1.785 2.895 2.895 0 0 1-1.963.68c-.426.019-.967.286-.967 1.275 0 .978.725 1.292 1.081 1.329m4.89-21.7a.221.221 0 0 1-.015.183.233.233 0 0 1-.15.115C5.352 5.82 4.696 9.024 4.86 10.48a.223.223 0 0 1-.053.171.241.241 0 0 1-.164.085.254.254 0 0 1-.179-.052.236.236 0 0 1-.088-.156 5.844 5.844 0 0 1 1.197-3.983 6.33 6.33 0 0 1 3.602-2.304.247.247 0 0 1 .258.076c.02.024.034.052.042.081v-.01Z"/><path d="M9.254 2.016a.222.222 0 0 1-.024.17.24.24 0 0 1-.14.107C3.496 3.91 2.58 8.433 2.811 10.48a.223.223 0 0 1-.044.183.251.251 0 0 1-.417-.042.224.224 0 0 1-.021-.093c-.242-2.187.743-6.98 6.624-8.67a.258.258 0 0 1 .183.022.24.24 0 0 1 .117.136Zm13.393 2.372a.228.228 0 0 0 .079.253c.025.02.054.035.085.044 3.96 1.135 4.615 4.339 4.45 5.795a.223.223 0 0 0 .054.171.241.241 0 0 0 .164.085.253.253 0 0 0 .178-.052.234.234 0 0 0 .089-.156 5.844 5.844 0 0 0-1.198-3.983 6.33 6.33 0 0 0-3.601-2.304.252.252 0 0 0-.257.077.228.228 0 0 0-.043.08v-.01Z"/><path d="M9.254 2.016a.222.222 0 0 1-.024.17.24.24 0 0 1-.14.107C3.496 3.91 2.58 8.433 2.811 10.48a.223.223 0 0 1-.044.183.251.251 0 0 1-.417-.042.224.224 0 0 1-.021-.093c-.242-2.187.743-6.98 6.624-8.67a.258.258 0 0 1 .183.022.24.24 0 0 1 .117.136Zm13.393 2.372a.228.228 0 0 0 .079.253c.025.02.054.035.085.044 3.96 1.135 4.615 4.339 4.45 5.795a.223.223 0 0 0 .054.171.241.241 0 0 0 .164.085.253.253 0 0 0 .178-.052.234.234 0 0 0 .089-.156 5.844 5.844 0 0 0-1.198-3.983 6.33 6.33 0 0 0-3.601-2.304.252.252 0 0 0-.257.077.228.228 0 0 0-.043.08v-.01Z"/><path d="M22.87 2.016a.207.207 0 0 0 .08.24.23.23 0 0 0 .085.037c5.593 1.616 6.51 6.14 6.278 8.187a.225.225 0 0 0 .053.17.25.25 0 0 0 .341.034.229.229 0 0 0 .088-.156c.241-2.187-.744-6.98-6.625-8.67a.252.252 0 0 0-.256.077.226.226 0 0 0-.043.08Z"/><path d="M22.87 2.016a.207.207 0 0 0 .08.24.23.23 0 0 0 .085.037c5.593 1.616 6.51 6.14 6.278 8.187a.225.225 0 0 0 .053.17.25.25 0 0 0 .341.034.229.229 0 0 0 .088-.156c.241-2.187-.744-6.98-6.625-8.67a.252.252 0 0 0-.256.077.226.226 0 0 0-.043.08Z"/></symbol><symbol viewBox="0 0 16 16" id="quest" xmlns="http://www.w3.org/2000/svg"><path d="M8 0C3.584 0 0 3.584 0 8s3.584 8 8 8 8-3.584 8-8-3.584-8-8-8Zm.8 13.6H7.2V12h1.6v1.6Zm1.656-6.2-.72.736C9.16 8.72 8.8 9.2 8.8 10.4H7.2V10c0-.88.36-1.68.936-2.264l.992-1.008C9.424 6.44 9.6 6.04 9.6 5.6 9.6 4.72 8.88 4 8 4c-.88 0-1.6.72-1.6 1.6H4.8a3.2 3.2 0 1 1 6.4 0c0 .704-.288 1.344-.744 1.8Z"/></symbol><symbol viewBox="0 0 16 16" id="questGr" xmlns="http://www.w3.org/2000/svg"><path d="M8 0C3.584 0 0 3.584 0 8s3.584 8 8 8 8-3.584 8-8-3.584-8-8-8Zm.8 13.6H7.2V12h1.6v1.6Zm1.656-6.2-.72.736C9.16 8.72 8.8 9.2 8.8 10.4H7.2V10c0-.88.36-1.68.936-2.264l.992-1.008C9.424 6.44 9.6 6.04 9.6 5.6 9.6 4.72 8.88 4 8 4c-.88 0-1.6.72-1.6 1.6H4.8a3.2 3.2 0 1 1 6.4 0c0 .704-.288 1.344-.744 1.8Z"/></symbol><symbol viewBox="0 0 33 34" id="report" xmlns="http://www.w3.org/2000/svg"><path d="M11.583 7.083H8.917a2.59 2.59 0 0 0-1.886.83 2.926 2.926 0 0 0-.781 2.004v17c0 .751.28 1.472.781 2.003.5.531 1.178.83 1.886.83h7.596m8.404-9.917V25.5h5.333m-5.333-9.917V9.917c0-.752-.281-1.473-.781-2.004a2.59 2.59 0 0 0-1.886-.83h-2.667"/><path d="M11.583 7.083H8.917a2.59 2.59 0 0 0-1.886.83 2.926 2.926 0 0 0-.781 2.004v17c0 .751.28 1.472.781 2.003.5.531 1.178.83 1.886.83h7.596m8.404-9.917V25.5h5.333m-5.333-9.917V9.917c0-.752-.281-1.473-.781-2.004a2.59 2.59 0 0 0-1.886-.83h-2.667"/><path d="M11.582 15.583h5.333m-5.333 5.667h4m-4-14.167c0-.751.281-1.472.781-2.003a2.59 2.59 0 0 1 1.886-.83h2.666a2.59 2.59 0 0 1 1.886.83c.5.531.781 1.252.781 2.003 0 .752-.28 1.472-.781 2.004a2.59 2.59 0 0 1-1.886.83H14.25a2.59 2.59 0 0 1-1.886-.83 2.926 2.926 0 0 1-.781-2.004Zm8 18.417c0 1.503.562 2.944 1.562 4.007 1 1.063 2.357 1.66 3.771 1.66 1.415 0 2.771-.597 3.772-1.66 1-1.063 1.562-2.504 1.562-4.007 0-1.503-.562-2.944-1.562-4.007-1-1.063-2.357-1.66-3.772-1.66-1.414 0-2.77.597-3.77 1.66-1.001 1.063-1.563 2.504-1.563 4.007Z"/><path d="M11.582 15.583h5.333m-5.333 5.667h4m-4-14.167c0-.751.281-1.472.781-2.003a2.59 2.59 0 0 1 1.886-.83h2.666a2.59 2.59 0 0 1 1.886.83c.5.531.781 1.252.781 2.003 0 .752-.28 1.472-.781 2.004a2.59 2.59 0 0 1-1.886.83H14.25a2.59 2.59 0 0 1-1.886-.83 2.926 2.926 0 0 1-.781-2.004Zm8 18.417c0 1.503.562 2.944 1.562 4.007 1 1.063 2.357 1.66 3.771 1.66 1.415 0 2.771-.597 3.772-1.66 1-1.063 1.562-2.504 1.562-4.007 0-1.503-.562-2.944-1.562-4.007-1-1.063-2.357-1.66-3.772-1.66-1.414 0-2.77.597-3.77 1.66-1.001 1.063-1.563 2.504-1.563 4.007Z"/></symbol><symbol viewBox="0 0 17 17" id="search" xmlns="http://www.w3.org/2000/svg"><g clip-path="url(#ata)"><path fill-rule="evenodd" clip-rule="evenodd" d="M7.437 1.417a6.02 6.02 0 1 0 3.728 10.75l2.586 2.586a.708.708 0 0 0 1.002-1.002l-2.587-2.586a6.02 6.02 0 0 0-4.729-9.748Zm-4.604 6.02a4.604 4.604 0 1 1 9.208 0 4.604 4.604 0 0 1-9.208 0Z"/></g><defs><clipPath id="ata"><path d="M0 0h17v17H0z"/></clipPath></defs></symbol><symbol viewBox="0 0 20 20" id="telegram" xmlns="http://www.w3.org/2000/svg"><path d="M3.937 8.892A635.663 635.663 0 0 1 11.26 5.72c3.488-1.458 4.212-1.71 4.685-1.72.104-.002.335.024.487.147a.55.55 0 0 1 .178.342c.016.098.037.322.02.497-.189 1.997-1.007 6.841-1.423 9.078-.174.946-.522 1.263-.857 1.294-.73.067-1.283-.485-1.99-.95-1.104-.728-1.728-1.182-2.801-1.893-1.24-.821-.436-1.273.27-2.01.185-.194 3.399-3.132 3.46-3.399.007-.033.015-.157-.06-.223-.072-.066-.18-.043-.258-.025-.112.025-1.876 1.198-5.298 3.52-.5.346-.954.514-1.362.506-.447-.01-1.31-.255-1.952-.465-.785-.257-1.41-.393-1.356-.83.028-.227.34-.46.934-.697Z"/></symbol><symbol viewBox="0 0 18 18" id="update" xmlns="http://www.w3.org/2000/svg"><path d="M9 0a8.98 8.98 0 0 1 2.39.316 8.81 8.81 0 0 1 2.154.905 9.038 9.038 0 0 1 1.82 1.406 9.061 9.061 0 0 1 2.32 8.763 8.863 8.863 0 0 1-.906 2.153 9.039 9.039 0 0 1-1.406 1.82A9.065 9.065 0 0 1 9 18a8.76 8.76 0 0 1-2.9-.484 9.203 9.203 0 0 1-2.54-1.354 8.88 8.88 0 0 1-1.987-2.091 8.969 8.969 0 0 1-1.239-2.672l1.081-.3c.234.85.595 1.627 1.081 2.33a8.06 8.06 0 0 0 1.74 1.828 7.741 7.741 0 0 0 2.224 1.187 8.163 8.163 0 0 0 2.54.43c.72 0 1.415-.093 2.083-.281a8.092 8.092 0 0 0 1.88-.791 7.601 7.601 0 0 0 1.6-1.24 7.939 7.939 0 0 0 2.03-3.472A7.345 7.345 0 0 0 16.875 9c0-.721-.094-1.416-.281-2.084a8.092 8.092 0 0 0-.791-1.88 7.599 7.599 0 0 0-1.24-1.6 7.941 7.941 0 0 0-3.472-2.03A7.384 7.384 0 0 0 9 1.123c-.756 0-1.491.106-2.206.317a7.73 7.73 0 0 0-1.995.905A8.373 8.373 0 0 0 3.12 3.76a7.147 7.147 0 0 0-1.23 1.863H4.5V6.75H0v-4.5h1.125v2.408a8.73 8.73 0 0 1 1.433-1.942 8.902 8.902 0 0 1 1.862-1.46A9.431 9.431 0 0 1 6.609.324 8.437 8.437 0 0 1 9 0Z"/></symbol><symbol viewBox="0 0 16 16" id="user" xmlns="http://www.w3.org/2000/svg"><path d="M13.667 13v-1.333A2.667 2.667 0 0 0 11 9H5.667A2.667 2.667 0 0 0 3 11.667V13m5.333-4.667a2.667 2.667 0 1 0 0-5.333 2.667 2.667 0 0 0 0 5.333Z"/></symbol><symbol viewBox="0 0 16 16" id="viber" xmlns="http://www.w3.org/2000/svg"><path d="M8 1.335c-1.071.013-3.374.19-4.662 1.37-.958.948-1.292 2.35-1.331 4.084-.033 1.728-.072 4.973 3.058 5.856v1.346s-.02.538.337.648c.438.14.688-.275 1.105-.72l.778-.879c2.142.178 3.782-.232 3.97-.293.435-.139 2.883-.451 3.283-3.696.41-3.351-.2-5.463-1.301-6.418h-.007c-.332-.306-1.668-1.279-4.652-1.29 0 0-.222-.014-.578-.008Zm.037.942a7.02 7.02 0 0 1 .488.011c2.527.007 3.732.767 4.017 1.023.927.794 1.405 2.697 1.055 5.495-.332 2.713-2.317 2.885-2.685 3.002-.156.05-1.6.406-3.42.289 0 0-1.356 1.634-1.78 2.055-.067.074-.146.095-.196.085-.071-.018-.093-.107-.089-.229l.013-2.233c-2.655-.733-2.498-3.5-2.47-4.946.033-1.446.304-2.628 1.113-3.43 1.088-.982 3.043-1.115 3.953-1.122Zm.2 1.446a.166.166 0 1 0 0 .332 3.136 3.136 0 0 1 2.242.883c.606.588.9 1.378.912 2.411 0 .092.074.167.167.167V7.51a.167.167 0 0 0 .168-.165 3.588 3.588 0 0 0-1.009-2.646c-.66-.645-1.496-.977-2.48-.977Zm-2.198.382a.523.523 0 0 0-.342.067H5.69a2.61 2.61 0 0 0-.637.523 1.003 1.003 0 0 0-.256.525.71.71 0 0 0 .026.302l.01.006c.172.504.396.988.67 1.444a8.48 8.48 0 0 0 1.29 1.762l.015.022.024.017.015.018.017.015c.532.505 1.127.94 1.769 1.295.734.4 1.18.588 1.447.667v.004c.078.024.15.034.221.034.228-.016.444-.109.613-.262a2.53 2.53 0 0 0 .517-.638v-.004c.128-.241.085-.469-.1-.623-.37-.323-.77-.61-1.195-.857-.285-.155-.574-.061-.69.095l-.25.315c-.129.156-.361.134-.361.134l-.007.004C7.093 8.527 6.63 6.772 6.63 6.772s-.022-.239.139-.36l.312-.252c.15-.122.254-.41.094-.695a7.498 7.498 0 0 0-.856-1.194.475.475 0 0 0-.28-.167Zm2.486.495c-.221 0-.221.334.003.334A2.098 2.098 0 0 1 10 5.572 1.94 1.94 0 0 1 10.5 7a.168.168 0 0 0 .167.165l.007.009a.169.169 0 0 0 .167-.167c.015-.662-.191-1.218-.595-1.663C9.84 4.9 9.273 4.65 8.549 4.6h-.024Zm.274.898c-.228-.006-.236.335-.01.341.55.029.816.306.851.877a.166.166 0 0 0 .165.163h.007a.168.168 0 0 0 .16-.178c-.039-.744-.445-1.164-1.166-1.202H8.8Z"/></symbol><symbol viewBox="0 0 24 24" id="vk" xmlns="http://www.w3.org/2000/svg"><path d="M21.579 6.855c.14-.465 0-.806-.662-.806h-2.193c-.558 0-.813.295-.953.619 0 0-1.115 2.719-2.695 4.482-.51.513-.743.675-1.021.675-.139 0-.341-.162-.341-.627V6.855c0-.558-.161-.806-.626-.806H9.642c-.348 0-.558.258-.558.504 0 .528.79.65.871 2.138v3.228c0 .707-.127.836-.407.836-.743 0-2.551-2.73-3.624-5.853-.209-.607-.42-.852-.98-.852H2.752c-.627 0-.752.295-.752.619 0 .582.743 3.462 3.461 7.27 1.812 2.602 4.363 4.012 6.687 4.012 1.393 0 1.565-.313 1.565-.853v-1.966c0-.626.133-.752.574-.752.324 0 .882.164 2.183 1.417 1.486 1.486 1.732 2.153 2.567 2.153h2.192c.626 0 .939-.313.759-.931-.197-.615-.907-1.51-1.849-2.57-.512-.603-1.277-1.253-1.51-1.578-.325-.42-.231-.604 0-.976.001 0 2.672-3.761 2.95-5.04Z"/></symbol><symbol viewBox="0 0 16 16" id="whatsapp" xmlns="http://www.w3.org/2000/svg"><path fill-rule="evenodd" clip-rule="evenodd" d="M12.269 3.755A5.947 5.947 0 0 0 8.035 2 5.994 5.994 0 0 0 2.05 7.985a5.98 5.98 0 0 0 .799 2.992L2 14.077l3.173-.832c.877.477 1.86.728 2.86.728h.002a5.993 5.993 0 0 0 5.533-8.276 5.953 5.953 0 0 0-1.3-1.942Zm-4.234 9.208h-.002c-.89 0-1.765-.24-2.532-.694l-.181-.108-1.883.494.502-1.835-.118-.188a4.965 4.965 0 0 1-.76-2.647 4.982 4.982 0 0 1 6.88-4.597c.604.25 1.152.618 1.613 1.081a4.946 4.946 0 0 1 1.455 3.52 4.982 4.982 0 0 1-4.974 4.974Zm2.729-3.726c-.15-.075-.885-.436-1.022-.486-.137-.05-.236-.075-.336.074-.1.15-.387.486-.474.586-.087.1-.175.112-.324.038-.15-.075-.631-.233-1.203-.742a4.505 4.505 0 0 1-.832-1.036c-.087-.15-.009-.231.066-.306.068-.066.15-.174.224-.262.075-.087.1-.149.15-.249.05-.1.025-.187-.013-.262-.037-.075-.337-.811-.461-1.11-.121-.29-.244-.252-.336-.256a6.418 6.418 0 0 0-.286-.005.55.55 0 0 0-.4.186c-.137.15-.523.512-.523 1.248s.536 1.447.61 1.547c.075.1 1.055 1.61 2.555 2.258.358.154.636.246.853.315.358.114.684.098.942.06.287-.043.885-.362 1.01-.711.124-.35.124-.649.087-.711-.038-.063-.138-.101-.287-.176Z"/></symbol><symbol viewBox="0 0 31 30" id="x" xmlns="http://www.w3.org/2000/svg"><g clip-path="url(#baa)"><path d="m16.503 14.488 6.751 9.656h-2.77l-5.51-7.88-.808-1.157L7.73 5.902h2.771l5.194 7.429.808 1.157Z"/><path d="M27.258 0H3.742A3.242 3.242 0 0 0 .5 3.242v23.516A3.242 3.242 0 0 0 3.742 30h23.516a3.242 3.242 0 0 0 3.242-3.242V3.242A3.242 3.242 0 0 0 27.258 0Zm-7.623 25.44-5.575-8.113-6.98 8.114H5.277l7.982-9.28L5.277 4.545h6.088l5.279 7.683 6.61-7.683h1.803l-7.612 8.848 8.279 12.049h-6.089Z"/></g><defs><clipPath id="baa"><path transform="translate(.5)" d="M0 0h30v30H0z"/></clipPath></defs></symbol><symbol viewBox="0 0 20 20" id="youtube" xmlns="http://www.w3.org/2000/svg"><g clip-path="url(#bba)"><path d="M10 3.333c.712 0 1.443.019 2.152.049l.836.04.801.047.75.05.685.054a3.168 3.168 0 0 1 2.912 2.853l.033.354.063.758c.058.786.101 1.643.101 2.462 0 .82-.043 1.676-.101 2.462l-.063.758c-.01.122-.022.24-.033.354a3.168 3.168 0 0 1-2.913 2.853l-.683.052-.75.052-.802.047-.836.04a51.46 51.46 0 0 1-2.152.049 51.46 51.46 0 0 1-2.152-.049l-.837-.04-.8-.047-.75-.052-.685-.052a3.168 3.168 0 0 1-2.912-2.853l-.033-.354-.063-.758c-.064-.82-.097-1.64-.101-2.462 0-.82.043-1.676.101-2.462l.063-.758c.01-.122.021-.24.033-.354a3.168 3.168 0 0 1 2.91-2.853l.685-.053.75-.05.802-.048.836-.04A51.396 51.396 0 0 1 10 3.333ZM10 5c-.688 0-1.395.018-2.083.047l-.816.039-.782.046-.735.05-.673.052a1.502 1.502 0 0 0-1.389 1.353C3.425 7.594 3.333 8.848 3.333 10c0 1.152.092 2.406.19 3.413.07.727.647 1.292 1.388 1.353l.673.051.735.05.782.047.816.04A51.2 51.2 0 0 0 10 15c.687 0 1.395-.018 2.083-.047l.815-.039.783-.046.735-.05.673-.052a1.502 1.502 0 0 0 1.388-1.353c.098-1.007.19-2.261.19-3.413 0-1.152-.092-2.406-.19-3.413a1.501 1.501 0 0 0-1.388-1.353l-.673-.052-.735-.05-.783-.046-.815-.04A50.573 50.573 0 0 0 10 5ZM8.333 7.98a.5.5 0 0 1 .683-.467l.067.034 3.5 2.02a.5.5 0 0 1 .071.816l-.07.05-3.5 2.021a.5.5 0 0 1-.746-.358l-.005-.075V7.979Z"/><path d="M10 3.333c.712 0 1.443.019 2.152.049l.836.04.801.047.75.05.685.054a3.168 3.168 0 0 1 2.912 2.853l.033.354.063.758c.058.786.101 1.643.101 2.462 0 .82-.043 1.676-.101 2.462l-.063.758c-.01.122-.022.24-.033.354a3.168 3.168 0 0 1-2.913 2.853l-.683.052-.75.052-.802.047-.836.04a51.46 51.46 0 0 1-2.152.049 51.46 51.46 0 0 1-2.152-.049l-.837-.04-.8-.047-.75-.052-.685-.052a3.168 3.168 0 0 1-2.912-2.853l-.033-.354-.063-.758c-.064-.82-.097-1.64-.101-2.462 0-.82.043-1.676.101-2.462l.063-.758c.01-.122.021-.24.033-.354a3.168 3.168 0 0 1 2.91-2.853l.685-.053.75-.05.802-.048.836-.04A51.396 51.396 0 0 1 10 3.333ZM10 5c-.688 0-1.395.018-2.083.047l-.816.039-.782.046-.735.05-.673.052a1.502 1.502 0 0 0-1.389 1.353C3.425 7.594 3.333 8.848 3.333 10c0 1.152.092 2.406.19 3.413.07.727.647 1.292 1.388 1.353l.673.051.735.05.782.047.816.04A51.2 51.2 0 0 0 10 15c.687 0 1.395-.018 2.083-.047l.815-.039.783-.046.735-.05.673-.052a1.502 1.502 0 0 0 1.388-1.353c.098-1.007.19-2.261.19-3.413 0-1.152-.092-2.406-.19-3.413a1.501 1.501 0 0 0-1.388-1.353l-.673-.052-.735-.05-.783-.046-.815-.04A50.573 50.573 0 0 0 10 5ZM8.333 7.98a.5.5 0 0 1 .683-.467l.067.034 3.5 2.02a.5.5 0 0 1 .071.816l-.07.05-3.5 2.021a.5.5 0 0 1-.746-.358l-.005-.075V7.979Z"/></g><defs><clipPath id="bba"><path d="M0 0h20v20H0z"/></clipPath></defs></symbol></svg>