<svg width="32" height="33" viewBox="0 0 32 33" fill="none" xmlns="http://www.w3.org/2000/svg">
<path d="M14.9922 4.08654V3.04327C14.9922 2.76658 15.0943 2.50122 15.2759 2.30557C15.4576 2.10992 15.704 2 15.9609 2C16.2179 2 16.4643 2.10992 16.6459 2.30557C16.8276 2.50122 16.9297 2.76658 16.9297 3.04327V4.08654C16.9297 4.36323 16.8276 4.62859 16.6459 4.82424C16.4643 5.01989 16.2179 5.12981 15.9609 5.12981C15.704 5.12981 15.4576 5.01989 15.2759 4.82424C15.0943 4.62859 14.9922 4.36323 14.9922 4.08654ZM24.6797 8.25962C24.8069 8.25972 24.933 8.23283 25.0506 8.18047C25.1682 8.12811 25.275 8.05131 25.3651 7.95446L26.3338 6.91119C26.5156 6.71543 26.6177 6.44992 26.6177 6.17308C26.6177 5.89623 26.5156 5.63072 26.3338 5.43496C26.1521 5.2392 25.9055 5.12923 25.6484 5.12923C25.3914 5.12923 25.1448 5.2392 24.963 5.43496L23.9943 6.47823C23.8587 6.62414 23.7663 6.81011 23.7288 7.01259C23.6914 7.21507 23.7106 7.42497 23.784 7.6157C23.8573 7.80643 23.9816 7.96943 24.1411 8.08405C24.3005 8.19868 24.488 8.25978 24.6797 8.25962ZM6.5568 7.95446C6.73857 8.15022 6.98512 8.2602 7.24219 8.2602C7.49926 8.2602 7.7458 8.15022 7.92758 7.95446C8.10936 7.7587 8.21148 7.49319 8.21148 7.21635C8.21148 6.9395 8.10936 6.67399 7.92758 6.47823L6.95883 5.43496C6.77705 5.2392 6.53051 5.12923 6.27344 5.12923C6.01637 5.12923 5.76982 5.2392 5.58805 5.43496C5.40627 5.63072 5.30415 5.89623 5.30415 6.17308C5.30415 6.44992 5.40627 6.71543 5.58805 6.91119L6.5568 7.95446ZM28.5547 24.9519V28.0817C28.5547 28.6351 28.3506 29.1658 27.9872 29.5571C27.6239 29.9484 27.131 30.1683 26.6172 30.1683H5.30469C4.79083 30.1683 4.29802 29.9484 3.93467 29.5571C3.57132 29.1658 3.36719 28.6351 3.36719 28.0817V24.9519C3.36719 24.3985 3.57132 23.8678 3.93467 23.4765C4.29802 23.0852 4.79083 22.8654 5.30469 22.8654V18.6923C5.30465 17.1779 5.58294 15.6784 6.12354 14.2804C6.66413 12.8823 7.45633 11.6133 8.45446 10.5465C9.4526 9.47974 10.6369 8.63625 11.9392 8.0647C13.2414 7.49314 14.6359 7.20482 16.0421 7.21635C21.8727 7.26329 26.6172 12.4705 26.6172 18.8227V22.8654C27.131 22.8654 27.6239 23.0852 27.9872 23.4765C28.3506 23.8678 28.5547 24.3985 28.5547 24.9519ZM16.7698 13.4616C19.0694 13.8776 20.8047 16.1259 20.8047 18.6923C20.8047 18.969 20.9068 19.2344 21.0884 19.43C21.2701 19.6257 21.5165 19.7356 21.7734 19.7356C22.0304 19.7356 22.2768 19.6257 22.4584 19.43C22.6401 19.2344 22.7422 18.969 22.7422 18.6923C22.7422 15.1191 20.3118 11.9854 17.0895 11.4038C16.9635 11.3798 16.8343 11.3829 16.7094 11.413C16.5845 11.443 16.4664 11.4995 16.3619 11.579C16.2574 11.6585 16.1685 11.7595 16.1005 11.8762C16.0324 11.9929 15.9865 12.123 15.9654 12.259C15.9442 12.3949 15.9483 12.534 15.9774 12.6682C16.0065 12.8024 16.06 12.9291 16.1348 13.0409C16.2096 13.1527 16.3042 13.2475 16.4132 13.3197C16.5222 13.3919 16.6434 13.4401 16.7698 13.4616ZM26.6172 28.0817V24.9519H5.30469V28.0817H26.6172Z" fill="black"/>
<path d="M14.9922 4.08654V3.04327C14.9922 2.76658 15.0943 2.50122 15.2759 2.30557C15.4576 2.10992 15.704 2 15.9609 2C16.2179 2 16.4643 2.10992 16.6459 2.30557C16.8276 2.50122 16.9297 2.76658 16.9297 3.04327V4.08654C16.9297 4.36323 16.8276 4.62859 16.6459 4.82424C16.4643 5.01989 16.2179 5.12981 15.9609 5.12981C15.704 5.12981 15.4576 5.01989 15.2759 4.82424C15.0943 4.62859 14.9922 4.36323 14.9922 4.08654ZM24.6797 8.25962C24.8069 8.25972 24.933 8.23283 25.0506 8.18047C25.1682 8.12811 25.275 8.05131 25.3651 7.95446L26.3338 6.91119C26.5156 6.71543 26.6177 6.44992 26.6177 6.17308C26.6177 5.89623 26.5156 5.63072 26.3338 5.43496C26.1521 5.2392 25.9055 5.12923 25.6484 5.12923C25.3914 5.12923 25.1448 5.2392 24.963 5.43496L23.9943 6.47823C23.8587 6.62414 23.7663 6.81011 23.7288 7.01259C23.6914 7.21507 23.7106 7.42497 23.784 7.6157C23.8573 7.80643 23.9816 7.96943 24.1411 8.08405C24.3005 8.19868 24.488 8.25978 24.6797 8.25962ZM6.5568 7.95446C6.73857 8.15022 6.98512 8.2602 7.24219 8.2602C7.49926 8.2602 7.7458 8.15022 7.92758 7.95446C8.10936 7.7587 8.21148 7.49319 8.21148 7.21635C8.21148 6.9395 8.10936 6.67399 7.92758 6.47823L6.95883 5.43496C6.77705 5.2392 6.53051 5.12923 6.27344 5.12923C6.01637 5.12923 5.76982 5.2392 5.58805 5.43496C5.40627 5.63072 5.30415 5.89623 5.30415 6.17308C5.30415 6.44992 5.40627 6.71543 5.58805 6.91119L6.5568 7.95446ZM28.5547 24.9519V28.0817C28.5547 28.6351 28.3506 29.1658 27.9872 29.5571C27.6239 29.9484 27.131 30.1683 26.6172 30.1683H5.30469C4.79083 30.1683 4.29802 29.9484 3.93467 29.5571C3.57132 29.1658 3.36719 28.6351 3.36719 28.0817V24.9519C3.36719 24.3985 3.57132 23.8678 3.93467 23.4765C4.29802 23.0852 4.79083 22.8654 5.30469 22.8654V18.6923C5.30465 17.1779 5.58294 15.6784 6.12354 14.2804C6.66413 12.8823 7.45633 11.6133 8.45446 10.5465C9.4526 9.47974 10.6369 8.63625 11.9392 8.0647C13.2414 7.49314 14.6359 7.20482 16.0421 7.21635C21.8727 7.26329 26.6172 12.4705 26.6172 18.8227V22.8654C27.131 22.8654 27.6239 23.0852 27.9872 23.4765C28.3506 23.8678 28.5547 24.3985 28.5547 24.9519ZM16.7698 13.4616C19.0694 13.8776 20.8047 16.1259 20.8047 18.6923C20.8047 18.969 20.9068 19.2344 21.0884 19.43C21.2701 19.6257 21.5165 19.7356 21.7734 19.7356C22.0304 19.7356 22.2768 19.6257 22.4584 19.43C22.6401 19.2344 22.7422 18.969 22.7422 18.6923C22.7422 15.1191 20.3118 11.9854 17.0895 11.4038C16.9635 11.3798 16.8343 11.3829 16.7094 11.413C16.5845 11.443 16.4664 11.4995 16.3619 11.579C16.2574 11.6585 16.1685 11.7595 16.1005 11.8762C16.0324 11.9929 15.9865 12.123 15.9654 12.259C15.9442 12.3949 15.9483 12.534 15.9774 12.6682C16.0065 12.8024 16.06 12.9291 16.1348 13.0409C16.2096 13.1527 16.3042 13.2475 16.4132 13.3197C16.5222 13.3919 16.6434 13.4401 16.7698 13.4616ZM26.6172 28.0817V24.9519H5.30469V28.0817H26.6172Z" fill="#3793AE"/>
</svg>
