<svg width="18" height="18" viewBox="0 0 18 18" fill="none" xmlns="http://www.w3.org/2000/svg">
<path d="M8.59375 0.145508C3.84777 0.145508 0 3.99328 0 8.73926C0 13.4852 3.84777 17.333 8.59375 17.333C13.3397 17.333 17.1875 13.4852 17.1875 8.73926C17.1875 3.99328 13.3397 0.145508 8.59375 0.145508ZM12.5601 10.0614H8.59375C8.41843 10.0614 8.25028 9.99173 8.12631 9.86775C8.00234 9.74378 7.93269 9.57564 7.93269 9.40032V3.4508C7.93269 3.27547 8.00234 3.10733 8.12631 2.98336C8.25028 2.85939 8.41843 2.78974 8.59375 2.78974C8.76907 2.78974 8.93722 2.85939 9.06119 2.98336C9.18516 3.10733 9.25481 3.27547 9.25481 3.4508V8.73926H12.5601C12.7354 8.73926 12.9036 8.8089 13.0275 8.93288C13.1515 9.05685 13.2212 9.22499 13.2212 9.40032C13.2212 9.57564 13.1515 9.74378 13.0275 9.86775C12.9036 9.99173 12.7354 10.0614 12.5601 10.0614Z" fill="#BD8383"/>
</svg>
