<svg width="35" height="33" viewBox="0 0 35 33" fill="none" xmlns="http://www.w3.org/2000/svg">
<path d="M29.25 11.5677L17.9167 18.2653L6.58333 11.5677V8.88873L17.9167 15.5863L29.25 8.88873M29.25 6.20972H6.58333C5.01083 6.20972 3.75 7.40188 3.75 8.88873V24.9628C3.75 25.6733 4.04851 26.3547 4.57986 26.8572C5.11122 27.3596 5.83189 27.6418 6.58333 27.6418H29.25C30.0014 27.6418 30.7221 27.3596 31.2535 26.8572C31.7848 26.3547 32.0833 25.6733 32.0833 24.9628V8.88873C32.0833 8.17821 31.7848 7.49679 31.2535 6.99438C30.7221 6.49197 30.0014 6.20972 29.25 6.20972Z" fill="black"/>
<path d="M29.25 11.5677L17.9167 18.2653L6.58333 11.5677V8.88873L17.9167 15.5863L29.25 8.88873M29.25 6.20972H6.58333C5.01083 6.20972 3.75 7.40188 3.75 8.88873V24.9628C3.75 25.6733 4.04851 26.3547 4.57986 26.8572C5.11122 27.3596 5.83189 27.6418 6.58333 27.6418H29.25C30.0014 27.6418 30.7221 27.3596 31.2535 26.8572C31.7848 26.3547 32.0833 25.6733 32.0833 24.9628V8.88873C32.0833 8.17821 31.7848 7.49679 31.2535 6.99438C30.7221 6.49197 30.0014 6.20972 29.25 6.20972Z" fill="#3793AE"/>
</svg>
