<svg width="32" height="33" viewBox="0 0 32 33" fill="none" xmlns="http://www.w3.org/2000/svg">
<path d="M4.58936 26.087C4.22884 26.0503 3.50781 25.7358 3.50781 24.7577C3.50781 23.7688 4.35728 23.3358 4.78088 23.3164C6.86736 23.3164 7.32026 21.8384 7.36983 21.0176V13.7593C7.36983 9.0519 11.5788 6.85438 13.6067 6.34594C13.6067 4.5276 15.1344 3.98253 16.0019 3.92651H16.1191C16.9866 3.98253 18.5143 4.5276 18.5143 6.34594C20.5422 6.85438 24.7512 9.0519 24.7512 13.7593V21.0176C24.8007 21.8492 25.2536 23.3164 27.3401 23.3164C27.6999 23.3663 28.0281 23.5405 28.2626 23.8061C28.4972 24.0716 28.6219 24.4102 28.6132 24.7577C28.6132 25.7358 27.8899 26.0503 27.5316 26.087H4.58936ZM16.0582 30.7039C13.6563 30.7039 11.714 29.0407 11.714 27.0091H20.407C20.407 29.0407 18.4647 30.7039 16.0582 30.7039Z" fill="black"/>
<path d="M4.58936 26.087C4.22884 26.0503 3.50781 25.7358 3.50781 24.7577C3.50781 23.7688 4.35728 23.3358 4.78088 23.3164C6.86736 23.3164 7.32026 21.8384 7.36983 21.0176V13.7593C7.36983 9.0519 11.5788 6.85438 13.6067 6.34594C13.6067 4.5276 15.1344 3.98253 16.0019 3.92651H16.1191C16.9866 3.98253 18.5143 4.5276 18.5143 6.34594C20.5422 6.85438 24.7512 9.0519 24.7512 13.7593V21.0176C24.8007 21.8492 25.2536 23.3164 27.3401 23.3164C27.6999 23.3663 28.0281 23.5405 28.2626 23.8061C28.4972 24.0716 28.6219 24.4102 28.6132 24.7577C28.6132 25.7358 27.8899 26.0503 27.5316 26.087H4.58936ZM16.0582 30.7039C13.6563 30.7039 11.714 29.0407 11.714 27.0091H20.407C20.407 29.0407 18.4647 30.7039 16.0582 30.7039Z" fill="#3793AE"/>
<path d="M4.58996 26.087H27.53C27.8883 26.0503 28.6115 25.7358 28.6115 24.7577C28.6233 24.4095 28.4996 24.0694 28.2645 23.8032C28.0294 23.5371 27.6995 23.3636 27.3385 23.3164C25.252 23.3164 24.7991 21.8384 24.7495 21.0176V13.7593C24.7495 9.0519 20.5405 6.85438 18.5126 6.34594C18.5126 4.5276 16.9849 3.98253 16.1174 3.92651H16.0003C15.1305 3.98253 13.6051 4.5276 13.6051 6.34594C11.5772 6.85438 7.36818 9.0519 7.36818 13.7593V21.0176C7.30736 21.7051 6.97286 22.3441 6.43368 22.8027C5.89451 23.2614 5.1918 23.5046 4.47054 23.4823C4.04468 23.5016 3.50391 23.7688 3.50391 24.7577C3.50391 25.7358 4.22944 26.0503 4.58545 26.087M9.47494 4.38756C9.48566 4.41737 9.48986 4.44897 9.4873 4.4804C9.48474 4.51183 9.47547 4.54242 9.46005 4.57028C9.44464 4.59815 9.42341 4.62269 9.39768 4.6424C9.37194 4.66211 9.34226 4.67657 9.31045 4.68487C5.35155 5.82026 4.69586 9.02389 4.86034 10.4803C4.8636 10.5107 4.86056 10.5414 4.85139 10.5707C4.84223 10.6 4.82712 10.6273 4.80693 10.651C4.78673 10.6747 4.76186 10.6944 4.73372 10.7089C4.70557 10.7234 4.67472 10.7325 4.64291 10.7356C4.6111 10.7387 4.57896 10.7358 4.54833 10.727C4.5177 10.7183 4.48917 10.7038 4.46437 10.6845C4.43958 10.6652 4.41901 10.6414 4.40383 10.6145C4.38865 10.5876 4.37916 10.5581 4.3759 10.5277C4.27074 9.10667 4.69494 7.69591 5.57336 6.54528C6.45178 5.39465 7.72774 4.57839 9.17526 4.24106C9.20573 4.23188 9.23782 4.22869 9.26961 4.23169C9.3014 4.23468 9.33223 4.24381 9.36023 4.2585C9.38823 4.2732 9.41283 4.29316 9.43255 4.3172C9.45226 4.34123 9.46668 4.36883 9.47494 4.39833V4.38756Z" fill="#3793AE"/>
<path d="M4.58996 26.087H27.53C27.8883 26.0503 28.6115 25.7358 28.6115 24.7577C28.6233 24.4095 28.4996 24.0694 28.2645 23.8032C28.0294 23.5371 27.6995 23.3636 27.3385 23.3164C25.252 23.3164 24.7991 21.8384 24.7495 21.0176V13.7593C24.7495 9.0519 20.5405 6.85438 18.5126 6.34594C18.5126 4.5276 16.9849 3.98253 16.1174 3.92651H16.0003C15.1305 3.98253 13.6051 4.5276 13.6051 6.34594C11.5772 6.85438 7.36818 9.0519 7.36818 13.7593V21.0176C7.30736 21.7051 6.97286 22.3441 6.43368 22.8027C5.89451 23.2614 5.1918 23.5046 4.47054 23.4823C4.04468 23.5016 3.50391 23.7688 3.50391 24.7577C3.50391 25.7358 4.22944 26.0503 4.58545 26.087M9.47494 4.38756C9.48566 4.41737 9.48986 4.44897 9.4873 4.4804C9.48474 4.51183 9.47547 4.54242 9.46005 4.57028C9.44464 4.59815 9.42341 4.62269 9.39768 4.6424C9.37194 4.66211 9.34226 4.67657 9.31045 4.68487C5.35155 5.82026 4.69586 9.02389 4.86034 10.4803C4.8636 10.5107 4.86056 10.5414 4.85139 10.5707C4.84223 10.6 4.82712 10.6273 4.80693 10.651C4.78673 10.6747 4.76186 10.6944 4.73372 10.7089C4.70557 10.7234 4.67472 10.7325 4.64291 10.7356C4.6111 10.7387 4.57896 10.7358 4.54833 10.727C4.5177 10.7183 4.48917 10.7038 4.46437 10.6845C4.43958 10.6652 4.41901 10.6414 4.40383 10.6145C4.38865 10.5876 4.37916 10.5581 4.3759 10.5277C4.27074 9.10667 4.69494 7.69591 5.57336 6.54528C6.45178 5.39465 7.72774 4.57839 9.17526 4.24106C9.20573 4.23188 9.23782 4.22869 9.26961 4.23169C9.3014 4.23468 9.33223 4.24381 9.36023 4.2585C9.38823 4.2732 9.41283 4.29316 9.43255 4.3172C9.45226 4.34123 9.46668 4.36883 9.47494 4.39833V4.38756Z" fill="#3793AE"/>
<path d="M9.25369 2.01552C9.2691 2.07319 9.26059 2.13432 9.22993 2.18612C9.19927 2.23792 9.14885 2.27638 9.08921 2.29344C3.49672 3.90926 2.57966 8.43356 2.81174 10.4803C2.8182 10.512 2.81768 10.5446 2.81021 10.5762C2.80274 10.6077 2.78849 10.6374 2.76836 10.6633C2.74823 10.6893 2.72266 10.711 2.69329 10.7269C2.66392 10.7429 2.63139 10.7529 2.59776 10.7562C2.56414 10.7595 2.53017 10.7561 2.49801 10.7461C2.46585 10.7362 2.43621 10.72 2.41098 10.6985C2.38575 10.677 2.36547 10.6507 2.35145 10.6213C2.33743 10.5919 2.32997 10.56 2.32955 10.5277C2.08846 8.34092 3.07311 3.54732 8.95401 1.85825C9.01553 1.84266 9.08096 1.8503 9.13675 1.87958C9.19254 1.90886 9.23441 1.95753 9.25369 2.01552ZM22.6468 4.38754C22.6371 4.41739 22.6336 4.44878 22.6366 4.47991C22.6396 4.51105 22.6491 4.5413 22.6643 4.56894C22.6796 4.59657 22.7005 4.62104 22.7257 4.64094C22.7509 4.66083 22.78 4.67576 22.8113 4.68486C26.7702 5.82024 27.4259 9.02387 27.2614 10.4803C27.2582 10.5107 27.2612 10.5414 27.2704 10.5707C27.2795 10.6 27.2946 10.6273 27.3148 10.651C27.335 10.6747 27.3599 10.6944 27.3881 10.7089C27.4162 10.7234 27.447 10.7325 27.4789 10.7356C27.5107 10.7387 27.5428 10.7358 27.5734 10.727C27.6041 10.7182 27.6326 10.7038 27.6574 10.6845C27.6822 10.6652 27.7028 10.6414 27.7179 10.6145C27.7331 10.5876 27.7426 10.5581 27.7459 10.5277C27.851 9.10665 27.4268 7.6959 26.5484 6.54526C25.67 5.39463 24.394 4.57837 22.9465 4.24104C22.916 4.23247 22.8841 4.22975 22.8525 4.23302C22.8209 4.23629 22.7903 4.2455 22.7625 4.26012C22.7346 4.27473 22.7101 4.29446 22.6902 4.31818C22.6704 4.3419 22.6556 4.36913 22.6468 4.39832V4.38754Z" fill="black"/>
<path d="M9.25369 2.01552C9.2691 2.07319 9.26059 2.13432 9.22993 2.18612C9.19927 2.23792 9.14885 2.27638 9.08921 2.29344C3.49672 3.90926 2.57966 8.43356 2.81174 10.4803C2.8182 10.512 2.81768 10.5446 2.81021 10.5762C2.80274 10.6077 2.78849 10.6374 2.76836 10.6633C2.74823 10.6893 2.72266 10.711 2.69329 10.7269C2.66392 10.7429 2.63139 10.7529 2.59776 10.7562C2.56414 10.7595 2.53017 10.7561 2.49801 10.7461C2.46585 10.7362 2.43621 10.72 2.41098 10.6985C2.38575 10.677 2.36547 10.6507 2.35145 10.6213C2.33743 10.5919 2.32997 10.56 2.32955 10.5277C2.08846 8.34092 3.07311 3.54732 8.95401 1.85825C9.01553 1.84266 9.08096 1.8503 9.13675 1.87958C9.19254 1.90886 9.23441 1.95753 9.25369 2.01552ZM22.6468 4.38754C22.6371 4.41739 22.6336 4.44878 22.6366 4.47991C22.6396 4.51105 22.6491 4.5413 22.6643 4.56894C22.6796 4.59657 22.7005 4.62104 22.7257 4.64094C22.7509 4.66083 22.78 4.67576 22.8113 4.68486C26.7702 5.82024 27.4259 9.02387 27.2614 10.4803C27.2582 10.5107 27.2612 10.5414 27.2704 10.5707C27.2795 10.6 27.2946 10.6273 27.3148 10.651C27.335 10.6747 27.3599 10.6944 27.3881 10.7089C27.4162 10.7234 27.447 10.7325 27.4789 10.7356C27.5107 10.7387 27.5428 10.7358 27.5734 10.727C27.6041 10.7182 27.6326 10.7038 27.6574 10.6845C27.6822 10.6652 27.7028 10.6414 27.7179 10.6145C27.7331 10.5876 27.7426 10.5581 27.7459 10.5277C27.851 9.10665 27.4268 7.6959 26.5484 6.54526C25.67 5.39463 24.394 4.57837 22.9465 4.24104C22.916 4.23247 22.8841 4.22975 22.8525 4.23302C22.8209 4.23629 22.7903 4.2455 22.7625 4.26012C22.7346 4.27473 22.7101 4.29446 22.6902 4.31818C22.6704 4.3419 22.6556 4.36913 22.6468 4.39832V4.38754Z" fill="#3793AE"/>
<path d="M22.8708 2.01552C22.8609 2.04407 22.8574 2.07429 22.8604 2.10423C22.8635 2.13417 22.8731 2.16317 22.8886 2.18935C22.9041 2.21553 22.9251 2.23831 22.9504 2.25624C22.9757 2.27417 23.0046 2.28684 23.0353 2.29344C28.6278 3.90926 29.5448 8.43356 29.3127 10.4803C29.3062 10.5414 29.3253 10.6025 29.3658 10.6502C29.4064 10.6979 29.4651 10.7282 29.5291 10.7345C29.593 10.7408 29.6569 10.7225 29.7068 10.6837C29.7567 10.6449 29.7884 10.5888 29.7949 10.5277C30.036 8.34092 29.0514 3.54731 23.1705 1.85824C23.14 1.84967 23.1081 1.84695 23.0765 1.85022C23.0449 1.85349 23.0143 1.8627 22.9864 1.87732C22.9586 1.89193 22.934 1.91166 22.9142 1.93538C22.8943 1.9591 22.8796 1.98633 22.8708 2.01552Z" fill="black"/>
<path d="M22.8708 2.01552C22.8609 2.04407 22.8574 2.07429 22.8604 2.10423C22.8635 2.13417 22.8731 2.16317 22.8886 2.18935C22.9041 2.21553 22.9251 2.23831 22.9504 2.25624C22.9757 2.27417 23.0046 2.28684 23.0353 2.29344C28.6278 3.90926 29.5448 8.43356 29.3127 10.4803C29.3062 10.5414 29.3253 10.6025 29.3658 10.6502C29.4064 10.6979 29.4651 10.7282 29.5291 10.7345C29.593 10.7408 29.6569 10.7225 29.7068 10.6837C29.7567 10.6449 29.7884 10.5888 29.7949 10.5277C30.036 8.34092 29.0514 3.54731 23.1705 1.85824C23.14 1.84967 23.1081 1.84695 23.0765 1.85022C23.0449 1.85349 23.0143 1.8627 22.9864 1.87732C22.9586 1.89193 22.934 1.91166 22.9142 1.93538C22.8943 1.9591 22.8796 1.98633 22.8708 2.01552Z" fill="#3793AE"/>
</svg>
