<svg width="33" height="34" viewBox="0 0 33 34" fill="none" xmlns="http://www.w3.org/2000/svg">
<path d="M11.5833 7.08325H8.91667C8.20942 7.08325 7.53115 7.38176 7.03105 7.91312C6.53095 8.44447 6.25 9.16514 6.25 9.91659V26.9166C6.25 27.668 6.53095 28.3887 7.03105 28.9201C7.53115 29.4514 8.20942 29.7499 8.91667 29.7499H16.5127M24.9167 19.8333V25.4999H30.25M24.9167 15.5833V9.91659C24.9167 9.16514 24.6357 8.44447 24.1356 7.91312C23.6355 7.38176 22.9572 7.08325 22.25 7.08325H19.5833" stroke="black" stroke-width="2" stroke-linecap="round" stroke-linejoin="round"/>
<path d="M11.5833 7.08325H8.91667C8.20942 7.08325 7.53115 7.38176 7.03105 7.91312C6.53095 8.44447 6.25 9.16514 6.25 9.91659V26.9166C6.25 27.668 6.53095 28.3887 7.03105 28.9201C7.53115 29.4514 8.20942 29.7499 8.91667 29.7499H16.5127M24.9167 19.8333V25.4999H30.25M24.9167 15.5833V9.91659C24.9167 9.16514 24.6357 8.44447 24.1356 7.91312C23.6355 7.38176 22.9572 7.08325 22.25 7.08325H19.5833" stroke="#3793AE" stroke-width="2" stroke-linecap="round" stroke-linejoin="round"/>
<path d="M11.582 15.5833H16.9154M11.582 21.25H15.582M11.582 7.08333C11.582 6.33189 11.863 5.61122 12.3631 5.07986C12.8632 4.54851 13.5415 4.25 14.2487 4.25H16.9154C17.6226 4.25 18.3009 4.54851 18.801 5.07986C19.3011 5.61122 19.582 6.33189 19.582 7.08333C19.582 7.83478 19.3011 8.55545 18.801 9.0868C18.3009 9.61816 17.6226 9.91667 16.9154 9.91667H14.2487C13.5415 9.91667 12.8632 9.61816 12.3631 9.0868C11.863 8.55545 11.582 7.83478 11.582 7.08333ZM19.582 25.5C19.582 27.0029 20.1439 28.4442 21.1441 29.5069C22.1443 30.5696 23.5009 31.1667 24.9154 31.1667C26.3299 31.1667 27.6864 30.5696 28.6866 29.5069C29.6868 28.4442 30.2487 27.0029 30.2487 25.5C30.2487 23.9971 29.6868 22.5558 28.6866 21.4931C27.6864 20.4304 26.3299 19.8333 24.9154 19.8333C23.5009 19.8333 22.1443 20.4304 21.1441 21.4931C20.1439 22.5558 19.582 23.9971 19.582 25.5Z" stroke="black" stroke-width="2" stroke-linecap="round" stroke-linejoin="round"/>
<path d="M11.582 15.5833H16.9154M11.582 21.25H15.582M11.582 7.08333C11.582 6.33189 11.863 5.61122 12.3631 5.07986C12.8632 4.54851 13.5415 4.25 14.2487 4.25H16.9154C17.6226 4.25 18.3009 4.54851 18.801 5.07986C19.3011 5.61122 19.582 6.33189 19.582 7.08333C19.582 7.83478 19.3011 8.55545 18.801 9.0868C18.3009 9.61816 17.6226 9.91667 16.9154 9.91667H14.2487C13.5415 9.91667 12.8632 9.61816 12.3631 9.0868C11.863 8.55545 11.582 7.83478 11.582 7.08333ZM19.582 25.5C19.582 27.0029 20.1439 28.4442 21.1441 29.5069C22.1443 30.5696 23.5009 31.1667 24.9154 31.1667C26.3299 31.1667 27.6864 30.5696 28.6866 29.5069C29.6868 28.4442 30.2487 27.0029 30.2487 25.5C30.2487 23.9971 29.6868 22.5558 28.6866 21.4931C27.6864 20.4304 26.3299 19.8333 24.9154 19.8333C23.5009 19.8333 22.1443 20.4304 21.1441 21.4931C20.1439 22.5558 19.582 23.9971 19.582 25.5Z" stroke="#3793AE" stroke-width="2" stroke-linecap="round" stroke-linejoin="round"/>
</svg>
