<svg width="20" height="20" viewBox="0 0 20 20" fill="none" xmlns="http://www.w3.org/2000/svg">
<path d="M3.93729 8.89203C7.59847 7.2885 10.0392 6.23126 11.2596 5.72049C14.7482 4.26197 15.4721 4.00866 15.945 4.00007C16.049 3.9984 16.2805 4.02424 16.4316 4.14705C16.5572 4.25063 16.5925 4.3907 16.6101 4.48904C16.6258 4.58729 16.6474 4.81121 16.6298 4.986C16.4414 6.98251 15.6232 11.8274 15.2073 14.0636C15.0326 15.0098 14.6854 15.327 14.3499 15.358C13.62 15.4255 13.0667 14.8735 12.3603 14.4081C11.2557 13.6795 10.6318 13.2262 9.55855 12.5153C8.31854 11.6939 9.12297 11.2423 9.82931 10.5044C10.0137 10.3113 13.2276 7.37274 13.2884 7.10621C13.2962 7.07287 13.3041 6.94858 13.2295 6.88308C13.1569 6.81739 13.049 6.83988 12.9705 6.85763C12.8587 6.88289 11.0948 8.05633 7.67302 10.3778C7.1727 10.7238 6.71947 10.8925 6.31137 10.8836C5.86402 10.8739 5.00072 10.6287 4.35913 10.4192C3.57431 10.1621 2.94842 10.0262 3.00336 9.58962C3.03083 9.36235 3.34279 9.12975 3.93729 8.89203Z" fill="#0E344A"/>
</svg>
