<svg width="31" height="30" viewBox="0 0 31 30" fill="none" xmlns="http://www.w3.org/2000/svg">
<g clip-path="url(#clip0_915_2710)">
<path d="M16.5033 14.4877L23.2544 24.1442H20.4838L14.9747 16.2644V16.264L14.1659 15.1072L7.73047 5.90186H10.5011L15.6945 13.331L16.5033 14.4877Z" fill="white"/>
<path d="M27.2584 0H3.74156C1.95134 0 0.5 1.45134 0.5 3.24156V26.7584C0.5 28.5487 1.95134 30 3.74156 30H27.2584C29.0487 30 30.5 28.5487 30.5 26.7584V3.24156C30.5 1.45134 29.0487 0 27.2584 0ZM19.635 25.4406L14.0601 17.3271L7.08044 25.4406H5.27653L13.2592 16.1619L5.27653 4.54401H11.365L16.644 12.2269L23.2533 4.54401H25.0572L17.4452 13.3924H17.4447L25.7235 25.4406H19.635Z" fill="white"/>
</g>
<defs>
<clipPath id="clip0_915_2710">
<rect width="30" height="30" fill="white" transform="translate(0.5)"/>
</clipPath>
</defs>
</svg>
