<svg width="20" height="20" viewBox="0 0 20 20" fill="none" xmlns="http://www.w3.org/2000/svg">
<g clip-path="url(#clip0_1401_2276)">
<path d="M9.96922 2C10.8221 2 11.6969 2.022 12.5448 2.058L13.5463 2.106L14.5049 2.163L15.4026 2.224L16.2226 2.288C17.1124 2.35628 17.9497 2.73695 18.5872 3.36304C19.2247 3.98913 19.6215 4.82054 19.7079 5.711L19.7478 6.136L19.8226 7.046C19.8924 7.989 19.9443 9.017 19.9443 10C19.9443 10.983 19.8924 12.011 19.8226 12.954L19.7478 13.864C19.7348 14.01 19.7219 14.151 19.7079 14.289C19.6215 15.1796 19.2245 16.0112 18.5868 16.6373C17.9491 17.2634 17.1116 17.6439 16.2216 17.712L15.4036 17.775L14.5059 17.837L13.5463 17.894L12.5448 17.942C11.6868 17.9794 10.828 17.9987 9.96922 18C9.11039 17.9987 8.25168 17.9794 7.39365 17.942L6.39215 17.894L5.43355 17.837L4.53579 17.775L3.71584 17.712C2.82602 17.6437 1.98871 17.2631 1.35122 16.637C0.713736 16.0109 0.316908 15.1795 0.23055 14.289L0.19065 13.864L0.115837 12.954C0.0395647 11.9711 -0.00102743 10.9858 -0.00585938 10C-0.00585938 9.017 0.046011 7.989 0.115837 7.046L0.19065 6.136C0.203617 5.99 0.216585 5.849 0.23055 5.711C0.316875 4.8207 0.71356 3.98942 1.35084 3.36334C1.98813 2.73727 2.8252 2.3565 3.71484 2.288L4.5338 2.224L5.43156 2.163L6.39116 2.106L7.39265 2.058C8.25101 2.02063 9.11005 2.0013 9.96922 2ZM9.96922 4C9.14627 4 8.29939 4.022 7.47545 4.056L6.49989 4.103L5.56323 4.158L4.68342 4.218L3.87744 4.281C3.45383 4.31113 3.05454 4.49065 2.75035 4.78773C2.44616 5.08481 2.25671 5.48026 2.21559 5.904C2.09888 7.113 1.98916 8.618 1.98916 10C1.98916 11.382 2.09888 12.887 2.21559 14.096C2.30038 14.968 2.99065 15.646 3.87744 15.719L4.68342 15.781L5.56323 15.841L6.49989 15.897L7.47545 15.944C8.29939 15.978 9.14627 16 9.96922 16C10.7922 16 11.639 15.978 12.463 15.944L13.4385 15.897L14.3752 15.842L15.255 15.782L16.061 15.719C16.4846 15.6889 16.8839 15.5094 17.1881 15.2123C17.4923 14.9152 17.6817 14.5197 17.7228 14.096C17.8396 12.887 17.9493 11.382 17.9493 10C17.9493 8.618 17.8396 7.113 17.7228 5.904C17.6817 5.48026 17.4923 5.08481 17.1881 4.78773C16.8839 4.49065 16.4846 4.31113 16.061 4.281L15.255 4.219L14.3752 4.159L13.4385 4.103L12.463 4.056C11.6322 4.02017 10.8008 4.0015 9.96922 4ZM7.9742 7.575C7.97414 7.47726 7.99789 7.38099 8.0434 7.29455C8.0889 7.20812 8.15478 7.13413 8.2353 7.07903C8.31583 7.02394 8.40856 6.98939 8.50543 6.97841C8.60231 6.96742 8.70039 6.98033 8.79116 7.016L8.87196 7.056L13.0615 9.48C13.1449 9.52826 13.2155 9.59599 13.2672 9.67744C13.319 9.75889 13.3503 9.85165 13.3586 9.94785C13.367 10.044 13.352 10.1408 13.315 10.23C13.2781 10.3192 13.2202 10.3981 13.1463 10.46L13.0615 10.52L8.87196 12.945C8.78753 12.994 8.69243 13.0216 8.59495 13.0253C8.49746 13.0291 8.40053 13.0089 8.31261 12.9665C8.22469 12.9241 8.14845 12.8608 8.09051 12.7821C8.03257 12.7034 7.9947 12.6117 7.98019 12.515L7.9742 12.425V7.575Z" fill="#606060"/>
<path d="M9.96922 2C10.8221 2 11.6969 2.022 12.5448 2.058L13.5463 2.106L14.5049 2.163L15.4026 2.224L16.2226 2.288C17.1124 2.35628 17.9497 2.73695 18.5872 3.36304C19.2247 3.98913 19.6215 4.82054 19.7079 5.711L19.7478 6.136L19.8226 7.046C19.8924 7.989 19.9443 9.017 19.9443 10C19.9443 10.983 19.8924 12.011 19.8226 12.954L19.7478 13.864C19.7348 14.01 19.7219 14.151 19.7079 14.289C19.6215 15.1796 19.2245 16.0112 18.5868 16.6373C17.9491 17.2634 17.1116 17.6439 16.2216 17.712L15.4036 17.775L14.5059 17.837L13.5463 17.894L12.5448 17.942C11.6868 17.9794 10.828 17.9987 9.96922 18C9.11039 17.9987 8.25168 17.9794 7.39365 17.942L6.39215 17.894L5.43355 17.837L4.53579 17.775L3.71584 17.712C2.82602 17.6437 1.98871 17.2631 1.35122 16.637C0.713736 16.0109 0.316908 15.1795 0.23055 14.289L0.19065 13.864L0.115837 12.954C0.0395647 11.9711 -0.00102743 10.9858 -0.00585938 10C-0.00585938 9.017 0.046011 7.989 0.115837 7.046L0.19065 6.136C0.203617 5.99 0.216585 5.849 0.23055 5.711C0.316875 4.8207 0.71356 3.98942 1.35084 3.36334C1.98813 2.73727 2.8252 2.3565 3.71484 2.288L4.5338 2.224L5.43156 2.163L6.39116 2.106L7.39265 2.058C8.25101 2.02063 9.11005 2.0013 9.96922 2ZM9.96922 4C9.14627 4 8.29939 4.022 7.47545 4.056L6.49989 4.103L5.56323 4.158L4.68342 4.218L3.87744 4.281C3.45383 4.31113 3.05454 4.49065 2.75035 4.78773C2.44616 5.08481 2.25671 5.48026 2.21559 5.904C2.09888 7.113 1.98916 8.618 1.98916 10C1.98916 11.382 2.09888 12.887 2.21559 14.096C2.30038 14.968 2.99065 15.646 3.87744 15.719L4.68342 15.781L5.56323 15.841L6.49989 15.897L7.47545 15.944C8.29939 15.978 9.14627 16 9.96922 16C10.7922 16 11.639 15.978 12.463 15.944L13.4385 15.897L14.3752 15.842L15.255 15.782L16.061 15.719C16.4846 15.6889 16.8839 15.5094 17.1881 15.2123C17.4923 14.9152 17.6817 14.5197 17.7228 14.096C17.8396 12.887 17.9493 11.382 17.9493 10C17.9493 8.618 17.8396 7.113 17.7228 5.904C17.6817 5.48026 17.4923 5.08481 17.1881 4.78773C16.8839 4.49065 16.4846 4.31113 16.061 4.281L15.255 4.219L14.3752 4.159L13.4385 4.103L12.463 4.056C11.6322 4.02017 10.8008 4.0015 9.96922 4ZM7.9742 7.575C7.97414 7.47726 7.99789 7.38099 8.0434 7.29455C8.0889 7.20812 8.15478 7.13413 8.2353 7.07903C8.31583 7.02394 8.40856 6.98939 8.50543 6.97841C8.60231 6.96742 8.70039 6.98033 8.79116 7.016L8.87196 7.056L13.0615 9.48C13.1449 9.52826 13.2155 9.59599 13.2672 9.67744C13.319 9.75889 13.3503 9.85165 13.3586 9.94785C13.367 10.044 13.352 10.1408 13.315 10.23C13.2781 10.3192 13.2202 10.3981 13.1463 10.46L13.0615 10.52L8.87196 12.945C8.78753 12.994 8.69243 13.0216 8.59495 13.0253C8.49746 13.0291 8.40053 13.0089 8.31261 12.9665C8.22469 12.9241 8.14845 12.8608 8.09051 12.7821C8.03257 12.7034 7.9947 12.6117 7.98019 12.515L7.9742 12.425V7.575Z" fill="url(#paint0_linear_1401_2276)"/>
</g>
<defs>
<linearGradient id="paint0_linear_1401_2276" x1="13.1026" y1="4.63959" x2="20.9652" y2="5.16845" gradientUnits="userSpaceOnUse">
<stop stop-color="#3793AE"/>
<stop offset="1" stop-color="#074287"/>
</linearGradient>
<clipPath id="clip0_1401_2276">
<rect width="20" height="20" fill="white"/>
</clipPath>
</defs>
</svg>
