<svg width="20" height="20" viewBox="0 0 20 20" fill="none" xmlns="http://www.w3.org/2000/svg">
<g clip-path="url(#clip0_3014_2097)">
<path d="M9.99984 3.33325C10.7123 3.33325 11.4432 3.35159 12.1515 3.38159L12.9882 3.42159L13.789 3.46909L14.539 3.51992L15.224 3.57325C15.9674 3.63015 16.6669 3.94737 17.1994 4.46912C17.732 4.99086 18.0635 5.6837 18.1357 6.42575L18.169 6.77992L18.2315 7.53825C18.2898 8.32409 18.3332 9.18075 18.3332 9.99992C18.3332 10.8191 18.2898 11.6758 18.2315 12.4616L18.169 13.2199C18.1582 13.3416 18.1473 13.4591 18.1357 13.5741C18.0635 14.3163 17.7319 15.0092 17.1991 15.531C16.6664 16.0527 15.9667 16.3699 15.2232 16.4266L14.5398 16.4791L13.7898 16.5308L12.9882 16.5783L12.1515 16.6183C11.4347 16.6494 10.7173 16.6655 9.99984 16.6666C9.28236 16.6655 8.56498 16.6494 7.84817 16.6183L7.0115 16.5783L6.21067 16.5308L5.46067 16.4791L4.77567 16.4266C4.0323 16.3697 3.3328 16.0525 2.80023 15.5307C2.26767 15.009 1.93615 14.3161 1.864 13.5741L1.83067 13.2199L1.76817 12.4616C1.70445 11.6425 1.67054 10.8214 1.6665 9.99992C1.6665 9.18075 1.70984 8.32409 1.76817 7.53825L1.83067 6.77992C1.8415 6.65825 1.85234 6.54075 1.864 6.42575C1.93612 5.68383 2.26752 4.9911 2.79991 4.46937C3.33231 3.94764 4.03161 3.63034 4.77484 3.57325L5.459 3.51992L6.209 3.46909L7.01067 3.42159L7.84734 3.38159C8.56442 3.35045 9.28208 3.33433 9.99984 3.33325ZM9.99984 4.99992C9.31234 4.99992 8.60484 5.01825 7.9165 5.04659L7.1015 5.08575L6.319 5.13159L5.584 5.18159L4.91067 5.23409C4.55678 5.25919 4.22321 5.40879 3.96908 5.65636C3.71496 5.90392 3.55669 6.23347 3.52234 6.58659C3.42484 7.59409 3.33317 8.84825 3.33317 9.99992C3.33317 11.1516 3.42484 12.4058 3.52234 13.4133C3.59317 14.1399 4.16984 14.7049 4.91067 14.7658L5.584 14.8174L6.319 14.8674L7.1015 14.9141L7.9165 14.9533C8.60484 14.9816 9.31234 14.9999 9.99984 14.9999C10.6873 14.9999 11.3948 14.9816 12.0832 14.9533L12.8982 14.9141L13.6807 14.8683L14.4157 14.8183L15.089 14.7658C15.4429 14.7406 15.7765 14.591 16.0306 14.3435C16.2847 14.0959 16.443 13.7664 16.4773 13.4133C16.5748 12.4058 16.6665 11.1516 16.6665 9.99992C16.6665 8.84825 16.5748 7.59409 16.4773 6.58659C16.443 6.23347 16.2847 5.90392 16.0306 5.65636C15.7765 5.40879 15.4429 5.25919 15.089 5.23409L14.4157 5.18242L13.6807 5.13242L12.8982 5.08575L12.0832 5.04659C11.3891 5.01672 10.6945 5.00117 9.99984 4.99992ZM8.33317 7.97909C8.33312 7.89764 8.35296 7.81741 8.39098 7.74538C8.42899 7.67335 8.48403 7.6117 8.5513 7.56578C8.61857 7.51987 8.69604 7.49108 8.77697 7.48192C8.8579 7.47277 8.93984 7.48352 9.01567 7.51325L9.08317 7.54659L12.5832 9.56659C12.6529 9.6068 12.7118 9.66324 12.755 9.73112C12.7983 9.79899 12.8245 9.87629 12.8314 9.95646C12.8384 10.0366 12.8259 10.1173 12.795 10.1916C12.7641 10.2659 12.7157 10.3316 12.654 10.3833L12.5832 10.4333L9.08317 12.4541C9.01264 12.4949 8.93319 12.5179 8.85175 12.521C8.77031 12.5242 8.68933 12.5073 8.61588 12.472C8.54244 12.4367 8.47874 12.3839 8.43033 12.3183C8.38193 12.2528 8.35029 12.1764 8.33817 12.0958L8.33317 12.0208V7.97909Z" fill="#606060"/>
<path d="M9.99984 3.33325C10.7123 3.33325 11.4432 3.35159 12.1515 3.38159L12.9882 3.42159L13.789 3.46909L14.539 3.51992L15.224 3.57325C15.9674 3.63015 16.6669 3.94737 17.1994 4.46912C17.732 4.99086 18.0635 5.6837 18.1357 6.42575L18.169 6.77992L18.2315 7.53825C18.2898 8.32409 18.3332 9.18075 18.3332 9.99992C18.3332 10.8191 18.2898 11.6758 18.2315 12.4616L18.169 13.2199C18.1582 13.3416 18.1473 13.4591 18.1357 13.5741C18.0635 14.3163 17.7319 15.0092 17.1991 15.531C16.6664 16.0527 15.9667 16.3699 15.2232 16.4266L14.5398 16.4791L13.7898 16.5308L12.9882 16.5783L12.1515 16.6183C11.4347 16.6494 10.7173 16.6655 9.99984 16.6666C9.28236 16.6655 8.56498 16.6494 7.84817 16.6183L7.0115 16.5783L6.21067 16.5308L5.46067 16.4791L4.77567 16.4266C4.0323 16.3697 3.3328 16.0525 2.80023 15.5307C2.26767 15.009 1.93615 14.3161 1.864 13.5741L1.83067 13.2199L1.76817 12.4616C1.70445 11.6425 1.67054 10.8214 1.6665 9.99992C1.6665 9.18075 1.70984 8.32409 1.76817 7.53825L1.83067 6.77992C1.8415 6.65825 1.85234 6.54075 1.864 6.42575C1.93612 5.68383 2.26752 4.9911 2.79991 4.46937C3.33231 3.94764 4.03161 3.63034 4.77484 3.57325L5.459 3.51992L6.209 3.46909L7.01067 3.42159L7.84734 3.38159C8.56442 3.35045 9.28208 3.33433 9.99984 3.33325ZM9.99984 4.99992C9.31234 4.99992 8.60484 5.01825 7.9165 5.04659L7.1015 5.08575L6.319 5.13159L5.584 5.18159L4.91067 5.23409C4.55678 5.25919 4.22321 5.40879 3.96908 5.65636C3.71496 5.90392 3.55669 6.23347 3.52234 6.58659C3.42484 7.59409 3.33317 8.84825 3.33317 9.99992C3.33317 11.1516 3.42484 12.4058 3.52234 13.4133C3.59317 14.1399 4.16984 14.7049 4.91067 14.7658L5.584 14.8174L6.319 14.8674L7.1015 14.9141L7.9165 14.9533C8.60484 14.9816 9.31234 14.9999 9.99984 14.9999C10.6873 14.9999 11.3948 14.9816 12.0832 14.9533L12.8982 14.9141L13.6807 14.8683L14.4157 14.8183L15.089 14.7658C15.4429 14.7406 15.7765 14.591 16.0306 14.3435C16.2847 14.0959 16.443 13.7664 16.4773 13.4133C16.5748 12.4058 16.6665 11.1516 16.6665 9.99992C16.6665 8.84825 16.5748 7.59409 16.4773 6.58659C16.443 6.23347 16.2847 5.90392 16.0306 5.65636C15.7765 5.40879 15.4429 5.25919 15.089 5.23409L14.4157 5.18242L13.6807 5.13242L12.8982 5.08575L12.0832 5.04659C11.3891 5.01672 10.6945 5.00117 9.99984 4.99992ZM8.33317 7.97909C8.33312 7.89764 8.35296 7.81741 8.39098 7.74538C8.42899 7.67335 8.48403 7.6117 8.5513 7.56578C8.61857 7.51987 8.69604 7.49108 8.77697 7.48192C8.8579 7.47277 8.93984 7.48352 9.01567 7.51325L9.08317 7.54659L12.5832 9.56659C12.6529 9.6068 12.7118 9.66324 12.755 9.73112C12.7983 9.79899 12.8245 9.87629 12.8314 9.95646C12.8384 10.0366 12.8259 10.1173 12.795 10.1916C12.7641 10.2659 12.7157 10.3316 12.654 10.3833L12.5832 10.4333L9.08317 12.4541C9.01264 12.4949 8.93319 12.5179 8.85175 12.521C8.77031 12.5242 8.68933 12.5073 8.61588 12.472C8.54244 12.4367 8.47874 12.3839 8.43033 12.3183C8.38193 12.2528 8.35029 12.1764 8.33817 12.0958L8.33317 12.0208V7.97909Z" fill="#0E344A"/>
</g>
<defs>
<clipPath id="clip0_3014_2097">
<rect width="20" height="20" fill="white"/>
</clipPath>
</defs>
</svg>
