<svg width="87" height="23" viewBox="0 0 87 23" fill="none" xmlns="http://www.w3.org/2000/svg">
<path d="M11.9934 0.15798C11.2962 0.399587 10.5377 1.04699 10.0962 1.76859C9.47633 2.79499 9.17008 3.81154 9.14738 4.90905L9.13681 5.47668L9.42159 5.49778C9.4216 5.49778 9.42162 5.49778 9.42163 5.49778C9.77497 5.52327 10.1396 5.38525 10.4904 5.11809C10.8411 4.851 11.1748 4.45707 11.4641 3.97806C12.0428 3.0199 12.4395 1.72897 12.4423 0.455041L12.4423 0.440495C12.4423 0.313445 12.4423 0.221929 12.4353 0.156392C12.4277 0.0851064 12.4133 0.0642657 12.4025 0.0571356C12.3905 0.0492058 12.3626 0.0440865 12.2892 0.0620456C12.2244 0.0779338 12.1383 0.107772 12.0209 0.148458C12.0119 0.151569 12.0028 0.154744 11.9934 0.15798Z" fill="white" stroke="white" stroke-width="0.1"/>
<path d="M11.4771 5.67384L11.477 5.67382C11.7339 5.61254 12.1289 5.59142 12.5421 5.60534C12.9544 5.61923 13.3796 5.66783 13.6956 5.74357C14.5412 5.95795 15.2876 6.37257 15.8931 6.96653C16.0458 7.11631 16.1841 7.25718 16.284 7.36387C16.334 7.41729 16.374 7.46171 16.4013 7.49419C16.4114 7.50621 16.4194 7.5162 16.4254 7.52415C16.421 7.52926 16.4155 7.53539 16.4086 7.54254C16.3852 7.56686 16.3504 7.59914 16.3063 7.63764C16.2184 7.71439 16.0965 7.81316 15.9618 7.91753C14.768 8.82757 14.2055 9.95936 14.2126 11.4553M11.4771 5.67384L16.6256 15.463M11.4771 5.67384L11.4756 5.67414C11.2441 5.72232 10.7201 5.88194 10.3073 6.02157C10.2256 6.05001 10.1479 6.07714 10.0739 6.10296C9.74442 6.21796 9.48875 6.30721 9.27868 6.37164C9.02118 6.45061 8.82839 6.49354 8.64802 6.50078C8.32899 6.51359 8.05417 6.41363 7.53479 6.22473C7.46761 6.2003 7.39633 6.17437 7.32034 6.14701L7.32024 6.14697C6.57051 5.8751 6.01611 5.71957 5.52369 5.66264C5.03248 5.60585 4.60084 5.64694 4.09656 5.77148M11.4771 5.67384L4.08458 5.72294M14.2126 11.4553C14.2126 12.1339 14.3094 12.7064 14.5306 13.2298C14.7518 13.7532 15.0962 14.2246 15.5872 14.7028L15.5874 14.7031C15.7594 14.8682 15.9563 15.0403 16.1381 15.1852C16.3188 15.3294 16.4875 15.449 16.6027 15.5074M14.2126 11.4553C14.2126 11.4553 14.2126 11.4554 14.2126 11.4555L14.2626 11.4552H14.2126C14.2126 11.4552 14.2126 11.4553 14.2126 11.4553ZM16.6027 15.5074C16.6028 15.5075 16.603 15.5075 16.6031 15.5076L16.6256 15.463M16.6027 15.5074C16.6027 15.5074 16.6026 15.5073 16.6025 15.5073L16.6256 15.463M16.6027 15.5074C16.6398 15.5268 16.6759 15.5457 16.7105 15.5638C16.7754 15.5979 16.8346 15.6289 16.8828 15.6539C16.9198 15.6732 16.9505 15.689 16.9725 15.7001C16.9733 15.7005 16.9741 15.7009 16.9748 15.7012M16.6256 15.463C16.6629 15.4824 16.6992 15.5015 16.7339 15.5197C16.8983 15.6058 17.0255 15.6724 17.0313 15.6724M16.9748 15.7012C16.9782 15.6891 16.9803 15.6804 16.9814 15.675C16.9818 15.673 16.9819 15.6721 16.9819 15.6721L16.9819 15.6725C16.9819 15.6726 16.9819 15.6728 16.9819 15.6732C16.9818 15.6742 16.9818 15.6764 16.9821 15.6793L16.9821 15.6794C16.9822 15.6808 16.9836 15.6956 16.9963 15.7081L17.0313 15.6724M16.9748 15.7012C16.9848 15.7062 16.9931 15.7103 16.9994 15.7133L17.0089 15.7175L17.0144 15.7196L17.0192 15.721C17.0196 15.7211 17.0203 15.7212 17.0211 15.7214C17.0266 15.702 17.0301 15.6878 17.0313 15.6798M16.9748 15.7012C16.9748 15.7015 16.9747 15.7018 16.9746 15.7022C16.9677 15.7272 16.9566 15.7632 16.942 15.8079C16.9129 15.897 16.8704 16.0185 16.8208 16.1506L16.8207 16.1509C16.4845 17.0673 15.9123 18.0809 15.2881 18.9377C14.6627 19.796 13.9904 20.4897 13.4564 20.774M17.0313 15.6724V15.6798M17.0313 15.6724V15.6798M17.0313 15.6798L16.8676 16.1681C16.1915 18.0114 14.5687 20.2387 13.4797 20.8182M13.4564 20.774C13.4564 20.774 13.4565 20.7739 13.4565 20.7739L13.4797 20.8182M13.4564 20.774C13.4563 20.774 13.4563 20.774 13.4562 20.7741L13.4797 20.8182M13.4564 20.774C13.2423 20.886 13.1273 20.9419 12.9832 20.9708C12.8372 21.0001 12.6597 21.0021 12.3201 20.9986L12.3195 20.9986C11.9994 20.9986 11.8094 20.9916 11.6239 20.9576C11.4383 20.9235 11.2552 20.8622 10.9491 20.7504M13.4797 20.8182C13.0526 21.0416 12.9957 21.0556 12.3195 21.0486C11.679 21.0486 11.5437 21.0207 10.9316 20.7973M10.9491 20.7504C10.9492 20.7505 10.9493 20.7505 10.9494 20.7505L10.9316 20.7973M10.9491 20.7504C10.0942 20.4255 9.51744 20.2619 8.90707 20.2681C8.29752 20.2743 7.65894 20.4498 6.6802 20.792L6.68012 20.792C5.93082 21.0555 5.33926 21.1169 4.79377 20.9536C4.24738 20.79 3.73896 20.3985 3.16137 19.738M10.9491 20.7504C10.949 20.7504 10.9489 20.7503 10.9488 20.7503L10.9316 20.7973M10.9316 20.7973C9.22342 20.1479 8.65402 20.1549 6.6967 20.8392L3.16137 19.738M3.16137 19.738L3.12371 19.7709L3.16135 19.738C3.16136 19.738 3.16137 19.738 3.16137 19.738ZM3.16137 19.738C1.7224 18.09 0.672781 15.9405 0.226051 13.7493L0.226039 13.7493C0.109481 13.181 0.0508972 12.4427 0.0500102 11.7336C0.0491225 11.0239 0.106032 10.3479 0.218415 9.9035M3.16137 19.738L0.169941 9.89125M0.218415 9.9035C0.218408 9.90353 0.2184 9.90356 0.218392 9.90359L0.169941 9.89125M0.218415 9.9035L0.169941 9.89125M0.218415 9.9035C0.769702 7.74042 2.16674 6.25518 4.09656 5.77148M0.169941 9.89125C0.725107 7.71283 2.13438 6.21168 4.08458 5.72294M4.09656 5.77148L4.08458 5.72294M4.09656 5.77148C4.09662 5.77147 4.09667 5.77145 4.09673 5.77144L4.08458 5.72294" fill="white" stroke="white" stroke-width="0.1"/>
<path d="M57.3567 6.39636L57.3569 6.39631C57.7651 6.27813 58.5301 6.27263 59.2249 6.34201C59.5711 6.37659 59.8968 6.42947 60.1484 6.495C60.2744 6.52779 60.3803 6.56338 60.4605 6.60073C60.5379 6.63676 60.5842 6.67126 60.6052 6.70063C60.6052 6.70118 60.6052 6.70178 60.6052 6.70245C60.6055 6.70938 60.605 6.71976 60.6037 6.73389C60.601 6.76195 60.5952 6.80015 60.5866 6.84597C60.5694 6.93733 60.5422 7.05519 60.5109 7.17492C60.4796 7.29464 60.4446 7.41533 60.4119 7.51238C60.3955 7.56096 60.38 7.60301 60.366 7.63579C60.3595 7.65097 60.3538 7.66321 60.3489 7.67276C60.3482 7.67256 60.3476 7.67235 60.347 7.67214C60.3238 7.66459 60.2906 7.65238 60.2493 7.63626C60.1671 7.60412 60.0555 7.55739 59.9346 7.50385C59.9346 7.50382 59.9345 7.5038 59.9345 7.50378L59.9142 7.54949L57.3567 6.39636ZM57.3567 6.39636C56.399 6.67045 55.7474 7.24301 55.4389 8.07778L55.4388 8.0782M57.3567 6.39636L55.4388 8.0782M55.4388 8.0782C55.3278 8.37043 55.271 8.61807 55.2633 8.86652C55.2557 9.11505 55.2971 9.36725 55.386 9.66878C55.6399 10.5242 56.358 11.1259 57.8829 11.7341L57.8831 11.7342M55.4388 8.0782L57.8831 11.7342M57.8831 11.7342C58.3844 11.9368 58.7885 12.1493 59.093 12.3722C59.3971 12.5948 59.6048 12.8299 59.7085 13.0787C59.9039 13.5244 59.8656 14.1134 59.6354 14.5815L59.6355 14.5815M57.8831 11.7342L59.6355 14.5815M59.6355 14.5815L59.6348 14.5829M59.6355 14.5815L59.6348 14.5829M59.6348 14.5829C59.5481 14.7465 59.4685 14.8665 59.3535 14.9717C59.2391 15.0764 59.0924 15.164 58.8755 15.2677C57.9929 15.7166 56.8967 15.6205 55.4359 15.0181L55.4359 15.0181M59.6348 14.5829L55.4359 15.0181M55.4359 15.0181L55.4341 15.0173M55.4359 15.0181L55.4341 15.0173M55.4341 15.0173C55.4097 15.006 55.3971 15.0059 55.3899 15.0078C55.3829 15.0097 55.3704 15.0163 55.3525 15.0425C55.315 15.0976 55.2742 15.2082 55.2152 15.4074L55.2152 15.4076M55.4341 15.0173L55.2152 15.4076M55.2152 15.4076C55.1749 15.5415 55.139 15.6687 55.1133 15.7657C55.1005 15.8141 55.0902 15.8548 55.0832 15.8848C55.0798 15.8995 55.0772 15.9113 55.0755 15.9201C55.0789 15.9229 55.0834 15.9264 55.0895 15.9305C55.1108 15.9452 55.1436 15.9636 55.1868 15.9849C55.2727 16.0272 55.3936 16.0778 55.5311 16.1296C55.8061 16.2333 56.143 16.34 56.3914 16.3931L56.381 16.442L56.3913 16.393C56.6821 16.4545 57.2797 16.4905 57.8621 16.4637L57.8628 16.4637M55.2152 15.4076L57.8628 16.4637M57.8628 16.4637C58.2809 16.4503 58.5426 16.4324 58.7575 16.3917C58.9711 16.3513 59.14 16.2881 59.3719 16.1814L59.3722 16.1812M57.8628 16.4637L59.3722 16.1812M59.3722 16.1812C60.0184 15.89 60.5665 15.3604 60.8397 14.7628M59.3722 16.1812L60.8397 14.7628M60.8397 14.7628C61.0372 14.3296 61.0909 13.7816 61.0177 13.2576M60.8397 14.7628L61.0177 13.2576M61.0177 13.2576C60.9445 12.7334 60.7452 12.2397 60.4439 11.9132L61.0177 13.2576ZM57.343 6.34829C56.372 6.62618 55.7067 7.20885 55.392 8.06045L57.343 6.34829ZM60.4439 11.9131C60.1281 11.572 59.3997 11.1451 58.4745 10.76L60.4439 11.9131Z" fill="white" stroke="white" stroke-width="0.1"/>
<path d="M31.0395 12.0952C31.0439 12.1067 31.0464 12.1202 31.0444 12.1348C31.0424 12.1504 31.0357 12.1638 31.0267 12.1747C31.0102 12.1948 30.9853 12.207 30.961 12.2154C30.911 12.2329 30.832 12.2449 30.7212 12.2539C30.4974 12.272 30.1246 12.2787 29.545 12.2787C29.1353 12.2787 28.7614 12.2698 28.4895 12.2563C28.3537 12.2495 28.2427 12.2416 28.1652 12.233C28.1268 12.2288 28.0951 12.2242 28.0724 12.2192C28.0615 12.2168 28.0501 12.2138 28.0404 12.2096C28.0358 12.2076 28.0287 12.2041 28.0219 12.1983C28.0157 12.1929 28.0026 12.1791 28.0026 12.157C28.0026 12.1508 28.0037 12.145 28.0041 12.1424C28.0048 12.1387 28.0057 12.1346 28.0068 12.1303C28.0088 12.1218 28.0118 12.1107 28.0155 12.0976C28.0228 12.0713 28.0336 12.035 28.0473 11.9901C28.0748 11.9003 28.1145 11.7748 28.1635 11.6229C28.2613 11.319 28.3962 10.9087 28.5446 10.4649C28.8411 9.57799 29.1461 8.61184 29.2269 8.31676C29.2763 8.11539 29.3158 7.96057 29.3488 7.84747C29.3653 7.79086 29.3805 7.74397 29.3946 7.70654C29.4085 7.6698 29.4225 7.63937 29.4375 7.61752C29.4502 7.59896 29.4753 7.56944 29.5147 7.57209C29.5522 7.57461 29.574 7.60484 29.5848 7.62268C29.6095 7.6634 29.6319 7.73516 29.6561 7.82298L29.6563 7.82352C29.7007 7.99194 30.0237 9.00301 30.3746 10.0616L30.3747 10.062C30.7142 11.1129 31.0181 12.031 31.0395 12.0952ZM31.0395 12.0952C31.0393 12.0947 31.0391 12.0941 31.0389 12.0936L30.9925 12.1122L31.0399 12.0963C31.0398 12.096 31.0396 12.0956 31.0395 12.0952ZM27.1511 14.8303L27.1512 14.8302L27.6906 13.2435L27.7021 13.2096H27.7379H29.527H31.3161H31.3517L31.3634 13.2433L31.9118 14.8299L31.9118 14.83L32.4486 16.3919H33.0692C33.3078 16.3919 33.4655 16.3851 33.5629 16.368C33.6121 16.3594 33.6404 16.349 33.6553 16.3394C33.6667 16.3321 33.6666 16.3281 33.6666 16.3258C33.6666 16.3256 33.6665 16.3255 33.6665 16.3254C33.6665 16.3146 33.6616 16.2854 33.6492 16.2356C33.6374 16.1881 33.6202 16.127 33.599 16.0562C33.5565 15.9147 33.4983 15.7361 33.4355 15.5527L33.4354 15.5526C33.3075 15.1748 32.573 13.0355 31.8681 10.9819C31.3352 9.4294 30.819 7.92597 30.5945 7.26979L30.5945 7.26974C30.5184 7.04647 30.4401 6.83914 30.3754 6.68463C30.3431 6.60728 30.3144 6.54385 30.2913 6.4985C30.2797 6.47574 30.27 6.45842 30.2623 6.44647C30.259 6.4414 30.2565 6.43784 30.2546 6.43548C30.2521 6.4347 30.2477 6.43338 30.2404 6.43172C30.2276 6.4288 30.2102 6.42569 30.1882 6.42249C30.1444 6.41611 30.0853 6.40977 30.0149 6.40364C29.8745 6.39141 29.6912 6.38026 29.4986 6.37132L28.8252 6.36282L28.6123 6.97407C28.6123 6.9741 28.6123 6.97413 28.6123 6.97415C28.2572 8.00496 27.4549 10.3601 26.7413 12.4611C26.3845 13.5115 26.0499 14.4984 25.8045 15.2244C25.6818 15.5873 25.5814 15.885 25.5117 16.0928C25.4768 16.1967 25.4496 16.2781 25.4312 16.3338L25.4193 16.3703C25.4508 16.374 25.4958 16.3776 25.5516 16.3808C25.6696 16.3874 25.8327 16.3919 26.0118 16.3919H26.6232L27.1511 14.8303Z" fill="white" stroke="white" stroke-width="0.1"/>
<path d="M64.2523 7.22062L64.2524 7.22085L64.2476 7.22181C64.2054 7.23022 63.9302 7.30981 63.6494 7.39113L63.6487 7.3913L63.164 7.52462V8.32915V9.18075V9.23075H63.114H62.5746H62.0852V9.67378V10.1168H62.5746H63.114H63.164V10.1668V12.3003C63.164 13.3624 63.1842 14.1044 63.2346 14.6386C63.285 15.1734 63.3652 15.4951 63.482 15.7194L63.4821 15.7197C63.6622 16.0701 64.1322 16.3856 64.6242 16.4732L64.6242 16.4732L64.6248 16.4733C64.8521 16.5169 65.202 16.5195 65.5124 16.4928C65.6672 16.4794 65.8102 16.459 65.9216 16.4334C65.9773 16.4205 66.0239 16.4066 66.0596 16.3922C66.095 16.3779 66.1144 16.3652 66.1229 16.3564C66.1235 16.3553 66.1251 16.3523 66.1273 16.3463C66.1301 16.3383 66.1331 16.3274 66.1359 16.3134C66.1417 16.2854 66.1462 16.2484 66.1489 16.2045C66.1544 16.1168 66.1522 16.0054 66.1391 15.8917L66.139 15.8917L66.1389 15.8902L66.107 15.5161L65.5792 15.5325C65.5791 15.5325 65.5791 15.5325 65.5791 15.5325C65.3287 15.5415 65.1705 15.5399 65.0497 15.5073C64.9245 15.4736 64.8427 15.4079 64.7418 15.3027C64.563 15.1288 64.4581 14.8542 64.3994 14.3601C64.3406 13.8645 64.3272 13.1376 64.3406 12.0487L64.3406 12.0486L64.3676 10.2109L64.3683 10.163L64.4162 10.1617L65.3872 10.1348H65.3872L66.2996 10.1093L66.2916 9.67515L66.2754 9.23075H65.3526H64.3817H64.3293L64.3317 9.17845L64.3767 8.20136L64.3767 8.20125C64.3992 7.73285 64.4031 7.4661 64.3774 7.32398C64.3644 7.25188 64.346 7.22654 64.3329 7.21771C64.3217 7.21014 64.3008 7.20591 64.2523 7.22062Z" fill="white" stroke="white" stroke-width="0.1"/>
<path d="M36.3448 10.2443L36.3448 10.2443L36.346 10.2481C36.3607 10.2964 36.3733 10.3377 36.3863 10.3658C36.3928 10.3801 36.4018 10.3964 36.4152 10.4089C36.4309 10.4235 36.453 10.4327 36.4785 10.4278C36.4995 10.4238 36.516 10.4113 36.5277 10.4006C36.5402 10.3892 36.553 10.3743 36.5661 10.3575C36.5921 10.3241 36.6248 10.276 36.6666 10.2147L36.6675 10.2133C36.9397 9.81935 37.4161 9.46701 37.9013 9.29988C38.2408 9.18561 38.6573 9.13234 39.0606 9.14121C39.4644 9.15008 39.8502 9.22113 40.1294 9.35162C41.0312 9.77477 41.6335 10.5413 41.8911 11.6217C42.3727 13.6763 41.5048 15.7162 39.9176 16.3053C39.6315 16.4106 39.2548 16.475 38.8841 16.4916C38.513 16.5083 38.1534 16.4769 37.9007 16.3944C37.6905 16.3245 37.4362 16.1903 37.2094 16.0384C36.9816 15.8858 36.7876 15.7196 36.6941 15.5881L36.694 15.588C36.6772 15.5646 36.6595 15.5415 36.6417 15.5256C36.6271 15.5127 36.5912 15.4861 36.5503 15.5081C36.5333 15.5173 36.5228 15.5318 36.5162 15.5442C36.5093 15.557 36.5043 15.5718 36.5002 15.5876C36.492 15.6192 36.4859 15.6625 36.4811 15.7181C36.4617 15.9405 36.4595 16.4029 36.4595 17.2664L36.4595 17.2663L36.5095 17.2666H36.4595L36.3448 10.2443ZM36.3448 10.2443L36.3441 10.2418C36.3158 10.1287 36.2887 9.84612 36.2797 9.60403L36.2797 9.60324L36.2718 9.23086H35.7184H35.1774L35.2289 10.3165C35.2289 10.3166 35.2289 10.3166 35.2289 10.3167C35.2649 10.9552 35.2919 13.1885 35.2919 15.2944V19.0811H35.8712H36.4508L36.3448 10.2443ZM36.5185 12.6769L36.4685 12.6753C36.4955 11.8422 36.5402 11.5623 36.6991 11.2639L36.6992 11.2638C37.2581 10.2224 38.3995 9.76824 39.3981 10.22L39.3982 10.22C39.6663 10.3424 39.8651 10.464 40.0336 10.6262C40.2019 10.7882 40.3375 10.9884 40.4826 11.2642L40.4828 11.2645C40.6446 11.578 40.7398 12.0296 40.767 12.506C40.7942 12.9831 40.7535 13.4905 40.6395 13.9179L40.6394 13.9181C40.1808 15.6009 38.2842 16.1663 37.0856 14.9624C36.8078 14.6898 36.6396 14.4538 36.5489 14.114C36.4591 13.7776 36.4461 13.3427 36.4685 12.6752L36.5185 12.6769ZM36.5185 12.6769C36.5455 11.8432 36.5904 11.5743 36.7433 11.2874L40.5912 13.905C40.1416 15.5544 38.2896 16.1012 37.1209 14.9269C36.5725 14.3891 36.4736 14.0126 36.5185 12.6769Z" fill="white" stroke="white" stroke-width="0.1"/>
<path d="M48.1147 10.2838L48.1147 10.2838C47.9053 10.1771 47.6246 10.1064 47.3418 10.078C47.0591 10.0496 46.7691 10.0629 46.5409 10.1279L46.5407 10.1279C46.3151 10.1935 46.0548 10.3577 45.8216 10.5619C45.5881 10.7663 45.3769 11.0151 45.2519 11.255C45.0839 11.5622 45.0392 11.8335 45.0123 12.6753C45.0123 12.6753 45.0123 12.6753 45.0123 12.6754L45.0622 12.677C45.0173 13.923 45.1162 14.3533 45.5657 14.8463L48.1147 10.2838ZM48.1147 10.2838C48.9311 10.7001 49.3651 11.7469 49.3017 13.029L49.3017 13.029C49.2609 13.8517 49.0407 14.4939 48.6531 14.931C48.2644 15.3694 47.7125 15.5955 47.0221 15.5955C46.4664 15.5955 45.9411 15.3368 45.5287 14.8799L48.1147 10.2838ZM46.4743 9.26324L46.4732 9.26366C46.022 9.43124 45.5095 9.79339 45.2734 10.1069C45.2179 10.1852 45.1576 10.2547 45.1046 10.3052C45.0781 10.3304 45.0525 10.3518 45.0296 10.3672C45.0181 10.3749 45.0064 10.3817 44.9949 10.3868C44.984 10.3915 44.9698 10.3963 44.9543 10.3963C44.9257 10.3963 44.9063 10.3788 44.8958 10.3656C44.885 10.3519 44.877 10.3349 44.8707 10.3181C44.8579 10.2838 44.8478 10.2372 44.8397 10.1833C44.8235 10.0747 44.8144 9.92642 44.8144 9.7636V9.23093H44.2891H43.773L43.8086 14.1288L43.8442 19.0384L44.426 19.0633L44.4261 19.0633L44.9942 19.0879V17.3025V15.4648V15.3444L45.0796 15.4294L45.4661 15.8149C45.9401 16.2874 46.5554 16.5083 47.3722 16.4995L47.3723 16.4995C48.4254 16.4907 49.2961 15.9949 49.8593 15.1929C50.4229 14.3903 50.6796 13.2786 50.4969 12.0388L50.4969 12.0387C50.3188 10.8137 49.7595 9.93286 48.8772 9.44894C48.6722 9.33784 48.5263 9.27308 48.3474 9.23308C48.1672 9.19279 47.9512 9.17712 47.6052 9.16816L47.6049 9.16815C47.0647 9.1502 46.6881 9.17795 46.4743 9.26324Z" fill="white" stroke="white" stroke-width="0.1"/>
<path d="M72.7018 11.3384L72.7018 11.3384C72.5911 11.0947 72.401 10.828 72.1927 10.6055C71.9853 10.3841 71.7541 10.2002 71.5587 10.1288C70.8874 9.88132 70.0881 9.98182 69.5171 10.3767L69.5169 10.3769C69.2648 10.5538 69.0444 10.8396 68.827 11.2552L68.8267 11.2557C68.6787 11.5465 68.5969 11.7179 68.5537 11.926C68.5109 12.1326 68.5066 12.3734 68.5066 12.8023C68.5066 13.2224 68.5109 13.4651 68.5514 13.6724C68.5921 13.8814 68.6692 14.0526 68.8086 14.3306C69.1372 14.9949 69.5425 15.3644 70.1514 15.5484L72.7018 11.3384ZM72.7018 11.3384L72.7022 11.3393M72.7018 11.3384L72.7022 11.3393M72.7022 11.3393C72.8402 11.6604 72.9263 12.1195 72.9523 12.5832M72.7022 11.3393L72.9523 12.5832M72.9523 12.5832C72.9783 13.0469 72.9447 13.5215 72.8391 13.8742M72.9523 12.5832L72.8391 13.8742M72.8391 13.8742C72.4643 15.168 71.3072 15.8987 70.1514 15.5484L72.8391 13.8742ZM69.5177 9.32638L69.5171 9.32656C68.8609 9.55647 68.2323 10.0341 67.9155 10.5254C66.8654 12.1938 67.0468 14.3895 68.3302 15.5986L68.3303 15.5987C68.7063 15.9557 68.9857 16.1629 69.3208 16.2826C69.657 16.4028 70.0541 16.4366 70.6694 16.4366C71.1376 16.4366 71.4056 16.4297 71.6134 16.3968C71.8189 16.3643 71.9667 16.3061 72.1945 16.1993L72.1948 16.1991C73.514 15.59 74.2155 14.3905 74.2155 12.7664C74.2155 11.1952 73.576 10.0674 72.3826 9.4767C72.1135 9.34701 71.9451 9.2754 71.7446 9.23304C71.543 9.19044 71.307 9.17697 70.902 9.168L70.9019 9.168C70.1854 9.15014 69.9048 9.18599 69.5177 9.32638Z" fill="white" stroke="white" stroke-width="0.1"/>
<path d="M77.0423 10.6618L77.0153 9.9178L77.0153 9.91778L76.9901 9.23091H76.4449H75.9054L75.9553 9.91162C75.9553 9.91174 75.9553 9.91185 75.9553 9.91197C75.9915 10.3275 76.0184 11.9611 76.0184 13.5465V16.3919H76.5888H77.1687L77.1951 14.1286L77.1951 14.1285C77.2086 13.0759 77.2198 12.489 77.2492 12.1194C77.2788 11.7471 77.3271 11.591 77.4155 11.4009C77.7554 10.6682 78.5647 10.1505 79.2731 10.2248L79.2732 10.2248C79.3391 10.2319 79.3783 10.2356 79.406 10.2312C79.4181 10.2292 79.4251 10.226 79.43 10.2225C79.4348 10.2189 79.4405 10.2128 79.4464 10.2003C79.4596 10.1729 79.4696 10.1248 79.4773 10.0393C79.4849 9.95547 79.4899 9.84256 79.4967 9.68965L79.4967 9.68962L79.5213 9.14126H79.0979C78.8144 9.15019 78.5088 9.21217 78.3294 9.30573C77.9249 9.52503 77.5634 9.88525 77.3251 10.325C77.3251 10.3251 77.325 10.3252 77.325 10.3252L77.1365 10.6833L77.0491 10.8493L77.0423 10.6618Z" fill="white" stroke="white" stroke-width="0.1"/>
<path d="M84.1044 15.5419C83.6332 15.5464 83.3487 15.542 83.1423 15.5145C82.9328 15.4867 82.8034 15.435 82.642 15.3476C81.926 14.9632 81.5119 14.339 81.4292 13.525C81.4292 13.525 81.4292 13.5249 81.4292 13.5248L81.3753 13.0412L81.3691 12.9857H81.425H84.0053H86.5265V12.5158C86.5265 12.2291 86.4777 11.8563 86.4018 11.5032C86.3257 11.1495 86.2234 10.8208 86.1187 10.6206L86.1185 10.6202C86.014 10.4162 85.8068 10.1583 85.5735 9.92338C85.3401 9.6885 85.0857 9.48181 84.8898 9.37763C84.7913 9.3254 84.6286 9.2794 84.4272 9.24319C84.2272 9.2072 83.9936 9.18162 83.7563 9.16826C83.2793 9.1414 82.7975 9.16452 82.5464 9.24655L82.5461 9.24664C82.3141 9.32083 82.0174 9.47938 81.7452 9.66291C81.4725 9.84675 81.2306 10.0516 81.1051 10.2155L81.1048 10.2158C80.9823 10.3729 80.7414 10.7903 80.5802 11.1298C80.4361 11.4349 80.365 11.5949 80.3281 11.818C80.2907 12.0438 80.2883 12.3347 80.2883 12.9012C80.2883 13.4402 80.2929 13.7365 80.3249 13.9574C80.3564 14.1753 80.4146 14.3201 80.5262 14.5561L80.5263 14.5564C80.882 15.3188 81.3735 15.8494 82.0244 16.164C82.6763 16.4791 83.4931 16.58 84.5034 16.473C84.9145 16.4285 85.3164 16.3505 85.6146 16.2673C85.764 16.2256 85.8856 16.1831 85.969 16.1435C86.011 16.1236 86.0409 16.1056 86.0596 16.0902C86.0722 16.0797 86.076 16.0737 86.077 16.072C86.0766 16.0621 86.0744 16.0431 86.0698 16.0145C86.0649 15.9843 86.0577 15.9464 86.0488 15.9031C86.031 15.8166 86.0065 15.7098 85.9796 15.6028C85.9796 15.6027 85.9796 15.6027 85.9796 15.6026L85.8948 15.2721L85.5787 15.395L85.5787 15.3951L85.5778 15.3954C85.2988 15.4974 84.8681 15.5419 84.1044 15.5419ZM84.1044 15.5419C84.1045 15.5419 84.1046 15.5419 84.1046 15.5419L84.1042 15.4919V15.5419C84.1042 15.5419 84.1043 15.5419 84.1044 15.5419ZM84.518 10.2328L84.518 10.2328L84.5191 10.2335C84.9377 10.5211 85.249 11.0729 85.3314 11.7111L85.3943 12.1319L85.4029 12.1893H85.3448H83.3849H81.434H81.3739L81.3848 12.1302L81.4478 11.7895L81.4478 11.7894C81.5214 11.3994 81.7119 11.0111 81.9623 10.6952C82.2124 10.3798 82.5257 10.1325 82.8482 10.0299C83.0912 9.95075 83.4092 9.93771 83.7136 9.97522C84.0178 10.0127 84.316 10.1017 84.518 10.2328Z" fill="white" stroke="white" stroke-width="0.1"/>
</svg>
