<svg width="109" height="23" viewBox="0 0 109 23" fill="none" xmlns="http://www.w3.org/2000/svg">
<path d="M36.0123 13.0058L34.0728 7.67814L32.1426 13.0058H36.0105H36.0123ZM29.2539 16.9588L33.2734 6.24816H34.8834L38.9029 16.9588H37.4183L36.4579 14.2092H31.7158L30.7554 16.9588H29.2539ZM41.6325 15.7554V20.0149H40.3351V8.92534H41.6325V10.1383C41.9059 9.66032 42.2503 9.30806 42.6659 9.07957C43.0872 8.84346 43.5833 8.7273 44.1599 8.7273C45.1203 8.7273 45.8991 9.11574 46.4982 9.89452C47.1029 10.6657 47.4043 11.6863 47.4043 12.9525C47.4043 14.2188 47.1029 15.2298 46.4982 16.0105C45.8991 16.7817 45.1203 17.1682 44.1599 17.1682C43.5852 17.1682 43.089 17.0559 42.6659 16.8255C42.2503 16.5894 41.9077 16.2314 41.6325 15.7573V15.7554ZM46.0508 12.9506C46.0508 11.9795 45.8523 11.2179 45.4554 10.6638C45.0698 10.1097 44.5343 9.83168 43.8454 9.83168C43.1564 9.83168 42.6135 10.1097 42.2166 10.6638C41.8254 11.2179 41.6288 11.9795 41.6288 12.9506C41.6288 13.9217 41.8254 14.6834 42.2166 15.2374C42.6135 15.7858 43.1564 16.0619 43.8454 16.0619C44.5343 16.0619 45.0698 15.7858 45.4554 15.2374C45.8523 14.6834 46.0508 13.9217 46.0508 12.9506ZM50.8098 15.7554V20.0149H49.503V8.92534H50.8098V10.1383C51.0831 9.66032 51.4238 9.30806 51.8338 9.07957C52.2551 8.84346 52.7549 8.7273 53.3353 8.7273C54.2901 8.7273 55.067 9.11574 55.6661 9.89452C56.2708 10.6657 56.5722 11.6863 56.5722 12.9525C56.5722 14.2188 56.2708 15.2298 55.6661 16.0105C55.067 16.7817 54.2901 17.1682 53.3353 17.1682C52.7549 17.1682 52.2551 17.0559 51.8338 16.8255C51.4238 16.5894 51.0812 16.2314 50.8098 15.7573V15.7554ZM55.2205 12.9506C55.2205 11.9795 55.0221 11.2179 54.6252 10.6638C54.2395 10.1097 53.7041 9.83168 53.0152 9.83168C52.3262 9.83168 51.7833 10.1097 51.3864 10.6638C51.0007 11.2179 50.8079 11.9795 50.8079 12.9506C50.8079 13.9217 51.0007 14.6834 51.3864 15.2374C51.7833 15.7858 52.3262 16.0619 53.0152 16.0619C53.7041 16.0619 54.2395 15.7858 54.6252 15.2374C55.0221 14.6834 55.2205 13.9217 55.2205 12.9506ZM65.9105 15.4298V12.5546H63.589V11.3607H67.324V15.9648C66.7735 16.3628 66.1651 16.6636 65.5005 16.8674C64.8415 17.0673 64.1376 17.1644 63.385 17.1644C61.7356 17.1644 60.4476 16.675 59.5171 15.6982C58.5923 14.7214 58.1299 13.36 58.1299 11.6101C58.1299 9.86025 58.5941 8.49881 59.5171 7.522C60.4476 6.53948 61.7393 6.04631 63.385 6.04631C64.072 6.04631 64.7217 6.13581 65.332 6.30908C65.9554 6.47664 66.5264 6.7318 67.0487 7.06883V8.61497C66.5227 8.15608 65.9629 7.81333 65.3694 7.58293C64.776 7.35253 64.1525 7.24019 63.5029 7.24019C62.2167 7.24019 61.2488 7.60388 60.5955 8.33315C59.9552 9.06814 59.6351 10.1611 59.6351 11.6063C59.6351 13.0515 59.9533 14.1407 60.5955 14.87C61.2488 15.5992 62.2186 15.9629 63.5029 15.9629C64.0065 15.9629 64.4577 15.9191 64.8546 15.8372C65.2459 15.7516 65.5978 15.6145 65.9105 15.4279V15.4298ZM74.7058 12.9125H73.4178C72.3675 12.9125 71.6411 13.0344 71.2386 13.2838C70.8361 13.5257 70.6339 13.9427 70.6339 14.5329C70.6339 15.0051 70.7837 15.3784 71.0888 15.6545C71.3903 15.9267 71.8021 16.0619 72.3263 16.0619C73.049 16.0619 73.6275 15.8011 74.0599 15.2851C74.4943 14.7671 74.7096 14.0759 74.7096 13.2115V12.9144H74.7058V12.9125ZM76.0032 12.3699V16.9569H74.7058V15.7344C74.41 16.2238 74.0412 16.5856 73.6031 16.8217C73.1576 17.0521 72.6165 17.1644 71.9744 17.1644C71.1675 17.1644 70.5234 16.934 70.0442 16.4751C69.5687 16.0105 69.3346 15.3879 69.3346 14.611C69.3346 13.7142 69.6304 13.0306 70.222 12.566C70.8211 12.1071 71.7085 11.8767 72.8898 11.8767H74.7058V11.751C74.7058 11.1417 74.5092 10.6695 74.118 10.3401C73.7267 10.0088 73.1763 9.84501 72.4649 9.84501C72.0137 9.84501 71.5775 9.90024 71.1487 10.0069C70.7219 10.1135 70.3082 10.283 69.9113 10.5019V9.2795C70.3868 9.09289 70.8473 8.9558 71.2985 8.8625C71.7441 8.76539 72.1747 8.71778 72.5959 8.71778C73.7398 8.71778 74.5954 9.01863 75.157 9.62033C75.7205 10.2296 75.9995 11.1417 75.9995 12.3661L76.0032 12.3699ZM78.6785 16.9569V5.79688H79.9759V16.9569H78.6785ZM82.6905 16.9569V5.79688H83.9879V16.9569H82.6905ZM93.4216 12.606V13.2572H87.4551C87.5094 14.1597 87.7734 14.8547 88.2564 15.3365C88.7413 15.8087 89.4153 16.041 90.2764 16.041C90.7726 16.041 91.2556 15.9801 91.718 15.8601C92.1935 15.7344 92.6578 15.5478 93.1146 15.3003V16.5494C92.6503 16.7493 92.1748 16.9016 91.6824 17.0121C91.1975 17.113 90.7014 17.1644 90.1978 17.1644C88.9397 17.1644 87.9437 16.7912 87.1986 16.0429C86.4648 15.3022 86.0959 14.2949 86.0959 13.0211C86.0959 11.7472 86.446 10.6581 87.1462 9.89261C87.8445 9.11574 88.79 8.7254 89.9732 8.7254C91.0365 8.7254 91.8734 9.07385 92.4893 9.77647C93.109 10.4677 93.4198 11.4121 93.4198 12.606H93.4216ZM87.4907 12.2271H92.1242C92.113 11.5054 91.9108 10.9265 91.5195 10.4905C91.1339 10.0621 90.6228 9.84692 89.9806 9.84692C89.258 9.84692 88.6776 10.0545 88.2377 10.4715C87.8033 10.8885 87.5581 11.473 87.4907 12.2251V12.2271ZM100.073 8.79775L100.083 10.1535C99.9348 10.0678 99.7757 10.0069 99.6016 9.96307C99.4275 9.91927 99.244 9.89833 99.0418 9.89833C98.3079 9.89833 97.7407 10.144 97.3438 10.6295C96.9525 11.1131 96.7559 11.8082 96.7559 12.7183V16.9531H95.4585V8.92152H96.7559V10.1706C97.0293 9.68126 97.385 9.31948 97.8249 9.08337C98.2649 8.84155 98.7947 8.7216 99.4181 8.7216C99.508 8.7216 99.6072 8.73111 99.7195 8.74824C99.8244 8.75396 99.9461 8.7692 100.075 8.79395L100.073 8.79775ZM108.202 8.92343L104.735 17.6976C104.368 18.6553 104.009 19.2837 103.66 19.5769C103.31 19.8682 102.844 20.0111 102.264 20.0111H101.223V18.9086H101.987C102.342 18.9086 102.621 18.8191 102.824 18.6458C103.02 18.4782 103.235 18.0708 103.473 17.4234L103.715 16.8255L100.511 8.91962H101.889L104.361 15.1956L106.822 8.91962H108.2L108.202 8.92343Z" fill="white"/>
<path d="M16.7342 0.562988H6.93036C2.30542 0.562988 0.613281 2.23155 0.613281 6.81071V16.5215C0.613281 21.1025 2.30542 22.7786 6.93036 22.7786H16.7342C21.3496 22.7786 23.0418 21.1025 23.0418 16.5215V6.81071C23.0418 2.22967 21.3572 0.562988 16.7342 0.562988Z" fill="white"/>
<path fill-rule="evenodd" clip-rule="evenodd" d="M9.31971 14.1068L9.05438 14.7226H8.46436L9.72419 11.7329H10.2344L11.4942 14.7226H10.8857L10.6296 14.1068H9.32342H9.31971ZM9.52937 13.5647H10.4088L9.96725 12.4958L9.52937 13.5647ZM18.8732 11.7348H19.4558V14.7245H18.8732V11.7348ZM16.5911 14.1824H18.1867V14.7245H16.0177V11.7348H18.1236V12.2867H16.5911V12.8947H17.6505V13.4465H16.5911V14.1843V14.1824ZM14.9416 11.7348H15.5502L14.5538 14.7323H14.0621L13.409 12.7649L12.7559 14.7323H12.2791L11.2735 11.7348H11.9006L12.5351 13.7951L13.179 11.7348H13.6558L14.3089 13.7951L14.9416 11.7348ZM7.5849 11.7348H8.1675V13.4291C8.1675 14.285 7.71663 14.7807 6.92252 14.7807C6.1284 14.7807 5.69609 14.2927 5.69609 13.4485V11.7387H6.27869V13.433C6.27869 13.9364 6.50876 14.2056 6.93179 14.2056C7.35483 14.2056 7.5849 13.9384 7.5849 13.4523V11.7367V11.7348ZM4.30639 11.7348H4.88898V14.7323H4.30639V13.5085H2.99276V14.7323H2.41016V11.7348H2.99276V12.9392H4.30639V11.7348ZM10.9321 7.926C8.91152 7.926 7.28247 6.21619 7.28247 4.11719H7.7927C7.7927 5.91993 9.20467 7.38381 10.9321 7.38381C12.6594 7.38381 14.0714 5.91993 14.0714 4.11719H14.5816C14.5816 6.21232 12.9433 7.926 10.9321 7.926Z" fill="#6B9BBB"/>
</svg>
