<svg width="189" height="39" viewBox="0 0 189 39" fill="none" xmlns="http://www.w3.org/2000/svg">
<path d="M60.4882 21.5923L57.2272 12.6347L53.9819 21.5923H60.485H60.4882ZM49.125 28.2385L55.8831 10.2304H58.5901L65.3482 28.2385H62.8521L61.2373 23.6156H53.2642L51.6494 28.2385H49.125ZM69.9375 26.2152V33.3768H67.7562V14.7317H69.9375V16.771C70.3971 15.9674 70.9763 15.3751 71.6751 14.991C72.3833 14.594 73.2174 14.3987 74.1869 14.3987C75.8017 14.3987 77.1111 15.0518 78.1184 16.3612C79.1351 17.6578 79.6419 19.3737 79.6419 21.5027C79.6419 23.6316 79.1351 25.3316 78.1184 26.6442C77.1111 27.9408 75.8017 28.5907 74.1869 28.5907C73.2206 28.5907 72.3865 28.4018 71.6751 28.0144C70.9763 27.6174 70.4003 27.0156 69.9375 26.2184V26.2152ZM77.3661 21.4995C77.3661 19.8667 77.0324 18.5862 76.3651 17.6546C75.7167 16.7229 74.8165 16.2555 73.6581 16.2555C72.4998 16.2555 71.5869 16.7229 70.9196 17.6546C70.2618 18.5862 69.9312 19.8667 69.9312 21.4995C69.9312 23.1322 70.2618 24.4128 70.9196 25.3444C71.5869 26.2664 72.4998 26.7306 73.6581 26.7306C74.8165 26.7306 75.7167 26.2664 76.3651 25.3444C77.0324 24.4128 77.3661 23.1322 77.3661 21.4995ZM85.3675 26.2152V33.3768H83.1704V14.7317H85.3675V16.771C85.8271 15.9674 86.4 15.3751 87.0893 14.991C87.7976 14.594 88.638 14.3987 89.6138 14.3987C91.2191 14.3987 92.5254 15.0518 93.5327 16.3612C94.5494 17.6578 95.0561 19.3737 95.0561 21.5027C95.0561 23.6316 94.5494 25.3316 93.5327 26.6442C92.5254 27.9408 91.2191 28.5907 89.6138 28.5907C88.638 28.5907 87.7976 28.4018 87.0893 28.0144C86.4 27.6174 85.824 27.0156 85.3675 26.2184V26.2152ZM92.7835 21.4995C92.7835 19.8667 92.4499 18.5862 91.7825 17.6546C91.1341 16.7229 90.2339 16.2555 89.0755 16.2555C87.9172 16.2555 87.0043 16.7229 86.337 17.6546C85.6886 18.5862 85.3644 19.8667 85.3644 21.4995C85.3644 23.1322 85.6886 24.4128 86.337 25.3444C87.0043 26.2664 87.9172 26.7306 89.0755 26.7306C90.2339 26.7306 91.1341 26.2664 91.7825 25.3444C92.4499 24.4128 92.7835 23.1322 92.7835 21.4995ZM110.757 25.6678V20.8336H106.854V18.8263H113.133V26.5674C112.208 27.2365 111.185 27.7423 110.067 28.0848C108.96 28.421 107.776 28.5843 106.511 28.5843C103.737 28.5843 101.572 27.7615 100.007 26.1192C98.4525 24.4768 97.675 22.1878 97.675 19.2457C97.675 16.3036 98.4557 14.0145 100.007 12.3722C101.572 10.7202 103.744 9.89107 106.511 9.89107C107.666 9.89107 108.758 10.0415 109.784 10.3329C110.832 10.6146 111.792 11.0436 112.671 11.6103V14.2098C111.786 13.4383 110.845 12.862 109.847 12.4746C108.849 12.0873 107.801 11.8984 106.709 11.8984C104.546 11.8984 102.919 12.5098 101.821 13.736C100.744 14.9718 100.206 16.8094 100.206 19.2393C100.206 21.6692 100.741 23.5004 101.821 24.7265C102.919 25.9527 104.55 26.5642 106.709 26.5642C107.556 26.5642 108.314 26.4905 108.982 26.3529C109.639 26.2088 110.231 25.9783 110.757 25.6646V25.6678ZM125.545 21.4355H123.379C121.613 21.4355 120.392 21.6403 119.715 22.0597C119.038 22.4663 118.698 23.1674 118.698 24.1599C118.698 24.9538 118.95 25.5813 119.463 26.0455C119.97 26.5033 120.663 26.7306 121.544 26.7306C122.759 26.7306 123.732 26.292 124.459 25.4244C125.189 24.5537 125.551 23.3915 125.551 21.9381V21.4387H125.545V21.4355ZM127.726 20.523V28.2353H125.545V26.18C125.047 27.0027 124.427 27.611 123.691 28.008C122.942 28.3954 122.032 28.5843 120.952 28.5843C119.596 28.5843 118.513 28.1969 117.707 27.4253C116.907 26.6442 116.514 25.5973 116.514 24.2911C116.514 22.7833 117.011 21.634 118.006 20.8528C119.013 20.0813 120.505 19.6939 122.491 19.6939H125.545V19.4826C125.545 18.4581 125.214 17.6642 124.556 17.1103C123.898 16.5533 122.973 16.2779 121.777 16.2779C121.018 16.2779 120.285 16.3708 119.564 16.5501C118.846 16.7294 118.151 17.0143 117.483 17.3824V15.3271C118.283 15.0134 119.057 14.7829 119.816 14.626C120.565 14.4627 121.289 14.3827 121.997 14.3827C123.92 14.3827 125.359 14.8885 126.303 15.9002C127.251 16.9246 127.72 18.4581 127.72 20.5166L127.726 20.523ZM132.224 28.2353V9.47168H134.405V28.2353H132.224ZM138.97 28.2353V9.47168H141.151V28.2353H138.97ZM157.012 20.92V22.0149H146.98C147.072 23.5324 147.516 24.7009 148.328 25.5109C149.143 26.3048 150.276 26.6954 151.724 26.6954C152.558 26.6954 153.37 26.593 154.148 26.3913C154.947 26.18 155.728 25.8662 156.496 25.4501V27.5502C155.715 27.8864 154.916 28.1425 154.088 28.3282C153.273 28.4978 152.439 28.5843 151.592 28.5843C149.477 28.5843 147.802 27.9568 146.549 26.6986C145.315 25.4533 144.695 23.7597 144.695 21.6179C144.695 19.4762 145.284 17.645 146.461 16.358C147.635 15.0518 149.225 14.3955 151.214 14.3955C153.002 14.3955 154.409 14.9814 155.445 16.1627C156.487 17.3248 157.009 18.9127 157.009 20.92H157.012ZM147.04 20.2829H154.831C154.812 19.0696 154.472 18.0964 153.814 17.3632C153.166 16.6429 152.306 16.2811 151.227 16.2811C150.012 16.2811 149.036 16.6301 148.296 17.3312C147.566 18.0323 147.154 19.0152 147.04 20.2797V20.2829ZM168.196 14.5171L168.212 16.7966C167.963 16.6525 167.695 16.5501 167.403 16.4764C167.11 16.4028 166.802 16.3676 166.462 16.3676C165.228 16.3676 164.274 16.7806 163.607 17.5969C162.949 18.4101 162.618 19.5786 162.618 21.1089V28.2289H160.437V14.7252H162.618V16.8254C163.078 16.0026 163.676 15.3943 164.416 14.9974C165.155 14.5908 166.046 14.3891 167.094 14.3891C167.245 14.3891 167.412 14.4051 167.601 14.4339C167.777 14.4435 167.982 14.4691 168.199 14.5108L168.196 14.5171ZM181.863 14.7285L176.034 29.4807C175.417 31.091 174.812 32.1475 174.227 32.6405C173.638 33.1303 172.855 33.3704 171.879 33.3704H170.129V31.5168H171.413C172.011 31.5168 172.48 31.3663 172.82 31.075C173.15 30.7933 173.512 30.1081 173.912 29.0197L174.318 28.0144L168.933 14.722H171.249L175.404 25.274L179.543 14.722H181.86L181.863 14.7285Z" fill="white"/>
<path d="M28.0772 0.671631H11.5938C3.81771 0.671631 0.972656 3.47703 0.972656 11.1761V27.5031C0.972656 35.2054 3.81771 38.0234 11.5938 38.0234H28.0772C35.8373 38.0234 38.6824 35.2054 38.6824 27.5031V11.1761C38.6824 3.47387 35.8501 0.671631 28.0772 0.671631Z" fill="white"/>
<path fill-rule="evenodd" clip-rule="evenodd" d="M15.6094 23.4434L15.1633 24.4787H14.1713L16.2895 19.4519H17.1474L19.2656 24.4787H18.2423L17.8118 23.4434H15.6157H15.6094ZM15.9619 22.5318H17.4406L16.6982 20.7347L15.9619 22.5318ZM31.672 19.4552H32.6516V24.4819H31.672V19.4552ZM27.835 23.5703H30.5178V24.4819H26.871V19.4552H30.4117V20.383H27.835V21.4053H29.6162V22.3332H27.835V23.5736V23.5703ZM25.0617 19.4552H26.0849L24.4097 24.4949H23.583L22.4849 21.1872L21.3869 24.4949H20.5851L18.8943 19.4552H19.9487L21.0156 22.9192L22.0981 19.4552H22.8998L23.9979 22.9192L25.0617 19.4552ZM12.6926 19.4552H13.6722V22.3039C13.6722 23.7429 12.9141 24.5763 11.579 24.5763C10.2438 24.5763 9.51693 23.7559 9.51693 22.3364V19.4617H10.4965V22.3104C10.4965 23.1569 10.8833 23.6094 11.5946 23.6094C12.3058 23.6094 12.6926 23.1601 12.6926 22.3429V19.4584V19.4552ZM7.18038 19.4552H8.15992V24.4949H7.18038V22.4374H4.97173V24.4949H3.99219V19.4552H4.97173V21.4802H7.18038V19.4552ZM18.3203 13.0513C14.9231 13.0513 12.1842 10.1766 12.1842 6.64746H13.042C13.042 9.67847 15.416 12.1397 18.3203 12.1397C21.2246 12.1397 23.5986 9.67847 23.5986 6.64746H24.4565C24.4565 10.1701 21.7019 13.0513 18.3203 13.0513Z" fill="#6B9BBB"/>
</svg>
