<svg width="17" height="20" viewBox="0 0 17 20" fill="none" xmlns="http://www.w3.org/2000/svg">
<path fill-rule="evenodd" clip-rule="evenodd" d="M9.07694 5.4415L10.4752 6.922L9.07694 8.4025V5.4415ZM9.07694 14.5585L10.4752 13.078L9.07694 11.5975V14.5585ZM7.57881 10.0101L4.54219 6.77462L5.42088 5.84425L7.83806 8.4025V2.269L12.2336 6.922L9.33619 10.0113L12.2528 13.0994L7.85825 17.7535V11.5975L5.42088 14.1558L4.54219 13.2254L7.57881 10.0101ZM8.39694 19C12.1136 19 14.6699 17.1381 14.6699 9.98875C14.6699 2.86187 12.1136 1 8.398 1C4.68244 1 2.125 2.86188 2.125 10.0113C2.125 17.137 4.68138 19 8.39694 19Z" fill="black"/>
<path fill-rule="evenodd" clip-rule="evenodd" d="M9.07694 5.4415L10.4752 6.922L9.07694 8.4025V5.4415ZM9.07694 14.5585L10.4752 13.078L9.07694 11.5975V14.5585ZM7.57881 10.0101L4.54219 6.77462L5.42088 5.84425L7.83806 8.4025V2.269L12.2336 6.922L9.33619 10.0113L12.2528 13.0994L7.85825 17.7535V11.5975L5.42088 14.1558L4.54219 13.2254L7.57881 10.0101ZM8.39694 19C12.1136 19 14.6699 17.1381 14.6699 9.98875C14.6699 2.86187 12.1136 1 8.398 1C4.68244 1 2.125 2.86188 2.125 10.0113C2.125 17.137 4.68138 19 8.39694 19Z" fill="white"/>
<path fill-rule="evenodd" clip-rule="evenodd" d="M9.07694 5.4415L10.4752 6.922L9.07694 8.4025V5.4415ZM9.07694 14.5585L10.4752 13.078L9.07694 11.5975V14.5585ZM7.57881 10.0101L4.54219 6.77462L5.42088 5.84425L7.83806 8.4025V2.269L12.2336 6.922L9.33619 10.0113L12.2528 13.0994L7.85825 17.7535V11.5975L5.42088 14.1558L4.54219 13.2254L7.57881 10.0101ZM8.39694 19C12.1136 19 14.6699 17.1381 14.6699 9.98875C14.6699 2.86187 12.1136 1 8.398 1C4.68244 1 2.125 2.86188 2.125 10.0113C2.125 17.137 4.68138 19 8.39694 19Z" fill="url(#paint0_linear_3074_3103)" fill-opacity="0.3"/>
<defs>
<linearGradient id="paint0_linear_3074_3103" x1="2.21314" y1="10" x2="14.6699" y2="10" gradientUnits="userSpaceOnUse">
<stop stop-color="#F5FDFF"/>
<stop offset="1" stop-color="#074287"/>
</linearGradient>
</defs>
</svg>
