<svg width="57" height="49" viewBox="0 0 57 49" fill="none" xmlns="http://www.w3.org/2000/svg">
<path fill-rule="evenodd" clip-rule="evenodd" d="M19.0996 1.4182C12.9896 2.63758 5.36583 8.43285 2.79663 13.8116C2.15101 15.1628 1.17015 18.1786 0.61758 20.5129C-0.590435 25.6133 -0.0500074 30.1005 2.44868 35.7207C4.40751 40.1269 9.44187 45.1432 14.13 47.3609C17.1558 48.792 18.0991 48.9414 24.1184 48.9414C30.1862 48.9414 31.0677 48.799 34.2334 47.309C41.4537 43.9093 47.2926 35.8007 48.1169 28.0276C49.8538 11.6593 35.1853 -1.79128 19.0996 1.4182ZM23.426 7.07987C23.4023 7.64113 23.6884 8.86577 24.0612 9.80043C24.934 11.9883 26.0836 11.0221 26.0836 8.10088C26.0836 6.23272 26.2275 6.05885 27.7725 6.05885C29.266 6.05885 29.3718 6.16854 28.6828 7.00635C28.2546 7.52736 27.2471 9.5268 26.4448 11.4492C25.642 13.3716 24.7253 14.9796 24.4074 15.0234C24.0895 15.0665 23.2786 14.0018 22.6058 12.6563C21.933 11.3115 20.8359 9.2765 20.1689 8.13472L18.9551 6.05885H21.2122C22.9919 6.05885 23.4595 6.27473 23.426 7.07987ZM56.6655 10.4346C56.6683 12.36 56.7764 13.077 56.9053 12.0286C57.0336 10.9801 57.0313 9.40486 56.8995 8.52796C56.7672 7.65105 56.662 8.50929 56.6655 10.4346ZM14.3288 11.5268C14.3491 11.2474 14.5918 11.5834 14.8675 12.2742C15.5548 13.993 14.9907 15.8092 13.6613 16.1605C12.2608 16.5298 10.1667 15.9965 10.5516 15.3676C10.7117 15.1056 10.5661 14.7182 10.228 14.507C9.79966 14.2398 9.81873 13.8722 10.2892 13.2999C10.6614 12.8471 10.7389 12.4726 10.4615 12.4679C10.1846 12.4632 10.6077 12.112 11.4024 11.6878C12.3515 11.1814 13.0954 11.1085 13.5699 11.4761C13.9676 11.7841 14.3092 11.8069 14.3288 11.5268ZM37.6644 12.4171C37.5314 12.5513 37.6753 12.9691 37.9851 13.3454C38.7342 14.2567 36.4506 16.7608 35.283 16.3087C34.8125 16.1266 34.2195 15.9773 33.9646 15.9773C33.3357 15.9773 32.7936 13.7252 33.1785 12.7124C33.3502 12.2619 33.8525 11.8932 34.2952 11.8932C34.738 11.8932 35.1004 11.6552 35.1004 11.3646C35.1004 11.0741 35.7315 11.1371 36.5032 11.5046C37.2748 11.8722 37.7973 12.2824 37.6644 12.4171ZM9.66845 22.2836C9.66845 23.185 10.0534 24.4318 10.5245 25.0549C11.2678 26.038 11.4602 26.0719 11.9862 25.3122C12.3191 24.8309 12.4954 23.6909 12.3781 22.7784C12.1567 21.0543 13.0359 20.2568 14.5231 20.8332C15.1779 21.0864 15.0808 21.6471 14.0173 23.7685C13.2942 25.2101 12.4232 27.1979 12.0822 28.1851C11.7417 29.1723 11.1238 29.9786 10.71 29.9774C10.0632 29.9751 5.62246 22.1809 5.62246 21.0479C5.62246 20.8262 6.53281 20.6448 7.64546 20.6448C9.47713 20.6448 9.66845 20.7994 9.66845 22.2836ZM26.1165 21.1879C26.2998 21.4867 26.1847 21.8956 25.8616 22.0975C25.0952 22.5759 25.1027 27.3992 25.8726 28.8514C26.4188 29.8817 26.2651 29.9797 24.1045 29.9797C22.522 29.9797 21.8694 29.7656 22.1336 29.3339C22.4977 28.7393 22.6757 23.4517 22.3769 22.1033C22.3058 21.7825 22.2781 21.3233 22.3162 21.0823C22.4145 20.4511 25.7218 20.5427 26.1165 21.1879ZM41.6988 22.0934C42.149 23.8315 41.2237 24.3286 40.0255 22.9925C37.9042 20.6261 35.6784 22.0858 35.6784 25.8438C35.6784 27.0935 36.1061 27.9021 37.1233 28.5748C38.4655 29.4622 38.6747 29.4599 40.0636 28.5416C42.0415 27.2335 42.7097 27.989 40.8717 29.4546C39.8492 30.2709 38.8706 30.5177 37.4742 30.3135C33.056 29.6658 31.3064 25.2171 34.2871 22.2084C35.5367 20.9464 36.2523 20.7154 38.5926 20.8157C40.848 20.9126 41.4578 21.1634 41.6988 22.0934ZM14.2722 34.6472C15.03 34.6472 15.408 36.9985 14.8675 38.3503C14.5918 39.0411 14.3491 39.3771 14.3288 39.0977C14.3092 38.8176 13.9676 38.8404 13.5699 39.1484C13.0954 39.516 12.3515 39.4431 11.4024 38.9366C10.6077 38.5125 10.1846 38.1613 10.4615 38.1566C10.7389 38.1519 10.6424 37.754 10.2464 37.2727C9.68117 36.5854 9.67943 36.3975 10.2378 36.3975C10.6285 36.3975 10.8048 36.0201 10.6291 35.5591C10.2956 34.6816 11.6776 34.0317 13.0393 34.4249C13.4624 34.5469 14.0173 34.6472 14.2722 34.6472ZM36.498 34.4179C37.0008 34.6128 37.4123 35.1157 37.4123 35.5364C37.4123 35.9565 37.6944 36.3952 38.0395 36.5113C38.3845 36.6274 37.9366 37.4594 37.0447 38.3602C36.1523 39.2605 35.3281 39.7126 35.2131 39.3643C35.098 39.016 34.6634 38.7313 34.2472 38.7313C32.53 38.7313 32.6994 34.9203 34.4374 34.4547C34.9611 34.3141 35.4333 34.1688 35.4865 34.1315C35.5402 34.0941 35.9951 34.2231 36.498 34.4179ZM28.1644 37.2727C28.1644 39.0358 27.9274 39.0755 26.4304 37.5644C25.7946 36.9226 25.0328 36.3975 24.7374 36.3975C23.5017 36.3975 22.3844 38.362 22.3844 40.5358C22.3844 42.4174 22.6451 42.96 23.8057 43.4939C24.9351 44.0137 25.5148 43.9571 26.6292 43.2202C28.354 42.0796 29.0903 42.6269 27.787 44.0808C27.1604 44.7798 26.0235 45.1491 24.4993 45.1491C21.3469 45.1491 19.4944 43.3923 19.4944 40.4028C19.4944 37.1922 21.1758 35.8141 25.0946 35.8141C27.9835 35.8141 28.1644 35.8999 28.1644 37.2727Z" fill="url(#paint0_linear_3025_4015)"/>
<path fill-rule="evenodd" clip-rule="evenodd" d="M19.0996 1.4182C12.9896 2.63758 5.36583 8.43285 2.79663 13.8116C2.15101 15.1628 1.17015 18.1786 0.61758 20.5129C-0.590435 25.6133 -0.0500074 30.1005 2.44868 35.7207C4.40751 40.1269 9.44187 45.1432 14.13 47.3609C17.1558 48.792 18.0991 48.9414 24.1184 48.9414C30.1862 48.9414 31.0677 48.799 34.2334 47.309C41.4537 43.9093 47.2926 35.8007 48.1169 28.0276C49.8538 11.6593 35.1853 -1.79128 19.0996 1.4182ZM23.426 7.07987C23.4023 7.64113 23.6884 8.86577 24.0612 9.80043C24.934 11.9883 26.0836 11.0221 26.0836 8.10088C26.0836 6.23272 26.2275 6.05885 27.7725 6.05885C29.266 6.05885 29.3718 6.16854 28.6828 7.00635C28.2546 7.52736 27.2471 9.5268 26.4448 11.4492C25.642 13.3716 24.7253 14.9796 24.4074 15.0234C24.0895 15.0665 23.2786 14.0018 22.6058 12.6563C21.933 11.3115 20.8359 9.2765 20.1689 8.13472L18.9551 6.05885H21.2122C22.9919 6.05885 23.4595 6.27473 23.426 7.07987ZM56.6655 10.4346C56.6683 12.36 56.7764 13.077 56.9053 12.0286C57.0336 10.9801 57.0313 9.40486 56.8995 8.52796C56.7672 7.65105 56.662 8.50929 56.6655 10.4346ZM14.3288 11.5268C14.3491 11.2474 14.5918 11.5834 14.8675 12.2742C15.5548 13.993 14.9907 15.8092 13.6613 16.1605C12.2608 16.5298 10.1667 15.9965 10.5516 15.3676C10.7117 15.1056 10.5661 14.7182 10.228 14.507C9.79966 14.2398 9.81873 13.8722 10.2892 13.2999C10.6614 12.8471 10.7389 12.4726 10.4615 12.4679C10.1846 12.4632 10.6077 12.112 11.4024 11.6878C12.3515 11.1814 13.0954 11.1085 13.5699 11.4761C13.9676 11.7841 14.3092 11.8069 14.3288 11.5268ZM37.6644 12.4171C37.5314 12.5513 37.6753 12.9691 37.9851 13.3454C38.7342 14.2567 36.4506 16.7608 35.283 16.3087C34.8125 16.1266 34.2195 15.9773 33.9646 15.9773C33.3357 15.9773 32.7936 13.7252 33.1785 12.7124C33.3502 12.2619 33.8525 11.8932 34.2952 11.8932C34.738 11.8932 35.1004 11.6552 35.1004 11.3646C35.1004 11.0741 35.7315 11.1371 36.5032 11.5046C37.2748 11.8722 37.7973 12.2824 37.6644 12.4171ZM9.66845 22.2836C9.66845 23.185 10.0534 24.4318 10.5245 25.0549C11.2678 26.038 11.4602 26.0719 11.9862 25.3122C12.3191 24.8309 12.4954 23.6909 12.3781 22.7784C12.1567 21.0543 13.0359 20.2568 14.5231 20.8332C15.1779 21.0864 15.0808 21.6471 14.0173 23.7685C13.2942 25.2101 12.4232 27.1979 12.0822 28.1851C11.7417 29.1723 11.1238 29.9786 10.71 29.9774C10.0632 29.9751 5.62246 22.1809 5.62246 21.0479C5.62246 20.8262 6.53281 20.6448 7.64546 20.6448C9.47713 20.6448 9.66845 20.7994 9.66845 22.2836ZM26.1165 21.1879C26.2998 21.4867 26.1847 21.8956 25.8616 22.0975C25.0952 22.5759 25.1027 27.3992 25.8726 28.8514C26.4188 29.8817 26.2651 29.9797 24.1045 29.9797C22.522 29.9797 21.8694 29.7656 22.1336 29.3339C22.4977 28.7393 22.6757 23.4517 22.3769 22.1033C22.3058 21.7825 22.2781 21.3233 22.3162 21.0823C22.4145 20.4511 25.7218 20.5427 26.1165 21.1879ZM41.6988 22.0934C42.149 23.8315 41.2237 24.3286 40.0255 22.9925C37.9042 20.6261 35.6784 22.0858 35.6784 25.8438C35.6784 27.0935 36.1061 27.9021 37.1233 28.5748C38.4655 29.4622 38.6747 29.4599 40.0636 28.5416C42.0415 27.2335 42.7097 27.989 40.8717 29.4546C39.8492 30.2709 38.8706 30.5177 37.4742 30.3135C33.056 29.6658 31.3064 25.2171 34.2871 22.2084C35.5367 20.9464 36.2523 20.7154 38.5926 20.8157C40.848 20.9126 41.4578 21.1634 41.6988 22.0934ZM14.2722 34.6472C15.03 34.6472 15.408 36.9985 14.8675 38.3503C14.5918 39.0411 14.3491 39.3771 14.3288 39.0977C14.3092 38.8176 13.9676 38.8404 13.5699 39.1484C13.0954 39.516 12.3515 39.4431 11.4024 38.9366C10.6077 38.5125 10.1846 38.1613 10.4615 38.1566C10.7389 38.1519 10.6424 37.754 10.2464 37.2727C9.68117 36.5854 9.67943 36.3975 10.2378 36.3975C10.6285 36.3975 10.8048 36.0201 10.6291 35.5591C10.2956 34.6816 11.6776 34.0317 13.0393 34.4249C13.4624 34.5469 14.0173 34.6472 14.2722 34.6472ZM36.498 34.4179C37.0008 34.6128 37.4123 35.1157 37.4123 35.5364C37.4123 35.9565 37.6944 36.3952 38.0395 36.5113C38.3845 36.6274 37.9366 37.4594 37.0447 38.3602C36.1523 39.2605 35.3281 39.7126 35.2131 39.3643C35.098 39.016 34.6634 38.7313 34.2472 38.7313C32.53 38.7313 32.6994 34.9203 34.4374 34.4547C34.9611 34.3141 35.4333 34.1688 35.4865 34.1315C35.5402 34.0941 35.9951 34.2231 36.498 34.4179ZM28.1644 37.2727C28.1644 39.0358 27.9274 39.0755 26.4304 37.5644C25.7946 36.9226 25.0328 36.3975 24.7374 36.3975C23.5017 36.3975 22.3844 38.362 22.3844 40.5358C22.3844 42.4174 22.6451 42.96 23.8057 43.4939C24.9351 44.0137 25.5148 43.9571 26.6292 43.2202C28.354 42.0796 29.0903 42.6269 27.787 44.0808C27.1604 44.7798 26.0235 45.1491 24.4993 45.1491C21.3469 45.1491 19.4944 43.3923 19.4944 40.4028C19.4944 37.1922 21.1758 35.8141 25.0946 35.8141C27.9835 35.8141 28.1644 35.8999 28.1644 37.2727Z" fill="#E6EEF1" fill-opacity="0.45"/>
<defs>
<linearGradient id="paint0_linear_3025_4015" x1="0.400468" y1="24.9414" x2="57" y2="24.9414" gradientUnits="userSpaceOnUse">
<stop stop-color="#3793AE"/>
<stop offset="1" stop-color="#074287"/>
</linearGradient>
</defs>
</svg>
