<svg width="1105" height="720" viewBox="0 0 1105 720" fill="none" xmlns="http://www.w3.org/2000/svg">
<path d="M756.479 499.741C685.366 508.861 623.095 691.964 598.286 705.099C545.483 733.054 107.332 742.948 448.807 534.838C367.195 607.871 216.236 616.935 151.105 614.567C87.4708 612.254 154.468 684.552 99.7985 614.3C37.0784 533.702 -3.40795 411.059 0.228983 311.025C7.03601 123.799 91.023 24.7348 220.139 42.0925C332.398 57.184 401.968 109.944 524.965 114.416C586.817 116.665 644.506 111.739 767.022 27.2336C857.774 -35.363 1005.51 23.6106 1044.17 70.0844C1082.31 115.951 1102.11 179.879 1104.14 245.502C1105.76 297.35 1097.43 369.334 1082.48 415.611C1067.52 461.888 1014.34 525.504 932.603 522.532C870.571 520.277 783.5 496.276 756.479 499.741Z" fill="#0C1E5C"/>
<path d="M449.14 535.211L448.547 534.412C427.917 546.984 410.126 558.765 394.92 569.797C363.421 585.271 328.173 595.661 293.679 602.488C237.642 613.578 183.659 615.251 151.123 614.068C135.142 613.487 127.176 617.584 123.513 623.154C119.872 628.689 120.616 635.493 121.601 640.017C121.849 641.155 122.114 642.157 122.334 642.967L122.42 643.286C122.447 643.385 122.473 643.481 122.498 643.572C122.443 643.501 122.387 643.427 122.327 643.35C121.704 642.536 120.825 641.337 119.621 639.695C116.232 635.074 110.27 626.941 100.193 613.993C37.5429 533.485 -2.90388 410.956 0.728653 311.044C4.13001 217.49 26.8131 146.041 64.7036 100.158C102.573 54.3009 155.673 33.9306 220.072 42.588C269.398 49.2192 310.47 63.1288 351.51 77.028C357.123 78.9287 362.734 80.8293 368.367 82.7109C415.179 98.3508 463.375 112.677 524.947 114.916C555.899 116.041 585.847 115.373 623.391 103.836C660.926 92.3017 706.024 69.9143 767.306 27.6452C812.516 -3.5387 871.971 -4.46816 925.015 8.24383C951.528 14.5978 976.415 24.3549 997.081 35.421C1017.76 46.491 1034.17 58.8542 1043.78 70.4041C1081.84 116.164 1101.61 179.976 1103.65 245.518C1105.25 297.321 1096.93 369.245 1082 415.457C1067.09 461.595 1014.06 524.993 932.621 522.032C901.647 520.906 864.408 514.35 831.499 508.499L830.036 508.239C814.142 505.413 799.302 502.774 786.743 501.028C773.815 499.231 763.245 498.37 756.415 499.245C738.447 501.55 721.117 514.824 704.872 533.501C688.613 552.193 673.367 576.381 659.583 600.668C650.86 616.039 642.709 631.473 635.257 645.584C630.939 653.761 626.855 661.494 623.031 668.514C617.813 678.089 613.077 686.338 608.874 692.599C606.773 695.73 604.812 698.354 602.996 700.396C601.176 702.443 599.526 703.877 598.052 704.657C591.533 708.108 578.987 711.311 562.62 713.851C546.276 716.387 526.183 718.252 504.615 719.055C461.471 720.661 412.48 718.014 375.824 708.01C357.49 703.007 342.297 696.178 332.456 687.166C322.642 678.18 318.15 667.03 321.166 653.276C324.193 639.471 334.798 622.98 355.368 603.413C365.98 593.319 379.232 582.418 395.438 570.656C415.162 560.96 433.43 549.27 449.14 535.211ZM443.887 538.443C430.899 549.356 416.319 558.766 400.72 566.867C413.376 557.889 427.721 548.422 443.887 538.443Z" stroke="white" stroke-opacity="0.05"/>
</svg>
