<svg width="1898" height="950" viewBox="0 0 1898 950" fill="none" xmlns="http://www.w3.org/2000/svg">
<g clip-path="url(#clip0_1862_3333)">
<path d="M1409.49 652.143C1247.17 659.941 1112.14 871.971 1055.92 886.354C936.247 916.966 -65.765 910.758 707.016 680.77C523.27 763.034 178.27 767.522 29.1645 762.101C-116.513 756.804 39.7015 844.245 -88.2263 759.703C-234.994 662.71 -332.602 517.352 -328.346 400.28C-320.38 181.165 -132.257 68.4937 163.842 94.0793C421.285 116.325 582.593 180.976 864.172 191.213C1005.77 196.361 1137.55 192.933 1414.41 98.8872C1619.5 29.2237 1959.89 104.331 2050.21 160.36C2139.35 215.656 2187.23 291.371 2194.56 368.352C2200.35 429.172 2184.23 513.184 2151.9 566.804C2119.57 620.425 2000.47 692.808 1813.36 686.005C1671.35 680.842 1471.17 649.181 1409.49 652.143Z" fill="#0C1E5C"/>
<path d="M707.22 681.226L706.873 680.291C660.175 694.188 619.952 707.271 585.62 719.579C514.084 736.46 433.762 747.215 355.058 753.819C227.226 764.544 103.72 764.311 29.1826 761.601C10.9529 760.938 -2.57718 761.725 -12.5434 763.452C-22.504 765.178 -28.9428 767.849 -32.9538 770.987C-36.9843 774.139 -38.5477 777.751 -38.7653 781.275C-38.9814 784.773 -37.8694 788.138 -36.642 790.827C-36.0267 792.174 -35.3774 793.363 -34.8429 794.32C-34.7697 794.451 -34.6991 794.577 -34.6315 794.698C-34.343 795.213 -34.1077 795.633 -33.942 795.961C-34.412 795.704 -35.1152 795.259 -36.1217 794.584C-37.5898 793.598 -39.6569 792.152 -42.4865 790.173C-50.429 784.619 -64.3787 774.863 -87.9507 759.285C-161.283 710.823 -222.328 650.281 -264.505 587.243C-306.685 524.199 -329.969 458.694 -327.846 400.298C-323.869 290.901 -274.93 208.11 -190.039 155.843C-105.124 103.56 15.8111 81.79 163.799 94.5774C277.009 104.36 371.621 122.344 466.075 140.298C478.992 142.753 491.906 145.208 504.864 147.641C612.576 167.865 723.327 186.593 864.153 191.713C1005.81 196.863 1137.65 193.427 1414.57 99.3606C1517.01 64.5662 1653.28 65.9156 1775.28 82.9842C1836.27 91.5174 1893.67 103.977 1941.46 117.802C1989.27 131.63 2027.43 146.814 2049.95 160.785C2138.98 216.015 2186.75 291.603 2194.06 368.399C2199.84 429.126 2183.74 513.029 2151.47 566.546C2135.38 593.232 2097.63 624.677 2040.48 648.602C1983.34 672.521 1906.86 688.905 1813.38 685.506C1742.39 682.925 1656.86 673.721 1581.35 665.53L1577.93 665.159C1503.9 657.127 1439.89 650.183 1409.47 651.644C1328.11 655.552 1253.66 710.627 1192.58 766.41C1173.25 784.067 1155.23 801.818 1138.76 818.049C1129.21 827.456 1120.18 836.353 1111.71 844.425C1100.16 855.433 1089.66 864.911 1080.29 872.083C1070.91 879.263 1062.72 884.098 1055.79 885.869C1040.89 889.683 1012.18 892.932 974.839 895.243C937.509 897.553 891.58 898.923 842.242 898.988C743.561 899.117 631.269 894.024 546.875 880.793C504.669 874.176 469.485 865.53 446.472 854.508C434.962 848.995 426.55 842.912 421.811 836.239C417.094 829.598 416 822.356 419.151 814.408C422.318 806.42 429.788 797.685 442.299 788.167C454.803 778.655 472.297 768.394 495.442 757.342C519.346 745.928 549.261 733.677 585.905 720.539C630.604 709.988 671.887 697.045 707.22 681.226ZM699.275 683.606C668.225 696.844 632.902 707.986 594.916 717.338C625.206 706.677 659.869 695.441 699.275 683.606Z" stroke="white" stroke-opacity="0.05"/>
</g>
<defs>
<clipPath id="clip0_1862_3333">
<rect width="1898" height="950" fill="white"/>
</clipPath>
</defs>
</svg>
