<svg width="41" height="41" viewBox="0 0 41 41" fill="none" xmlns="http://www.w3.org/2000/svg">
<path d="M27.2727 25.8408V14.9175L23.1946 20.0891L22.7596 20.5966L21.4485 22.2702H28.6563M12.3438 18.5606C12.3438 17.5992 12.7257 16.6772 13.4055 15.9973C14.0853 15.3175 15.0073 14.9356 15.9688 14.9356C16.9302 14.9356 17.8522 15.3175 18.532 15.9973C19.2118 16.6772 19.5938 17.5992 19.5938 18.5606C19.6166 19.0364 19.5336 19.5113 19.3508 19.9511C19.168 20.391 18.8898 20.7848 18.5365 21.1041C17.0744 22.4091 12.3438 25.8348 12.3438 25.8348H19.5515" stroke="black" stroke-linecap="round" stroke-linejoin="round"/>
<path d="M27.2727 25.8408V14.9175L23.1946 20.0891L22.7596 20.5966L21.4485 22.2702H28.6563M12.3438 18.5606C12.3438 17.5992 12.7257 16.6772 13.4055 15.9973C14.0853 15.3175 15.0073 14.9356 15.9688 14.9356C16.9302 14.9356 17.8522 15.3175 18.532 15.9973C19.2118 16.6772 19.5938 17.5992 19.5938 18.5606C19.6166 19.0364 19.5336 19.5113 19.3508 19.9511C19.168 20.391 18.8898 20.7848 18.5365 21.1041C17.0744 22.4091 12.3438 25.8348 12.3438 25.8348H19.5515" stroke="url(#paint0_linear_3063_3041)" stroke-linecap="round" stroke-linejoin="round"/>
<path d="M20.5013 33.4894C27.6752 33.4894 33.4909 27.6738 33.4909 20.4998C33.4909 13.3259 27.6752 7.51025 20.5013 7.51025C13.3274 7.51025 7.51172 13.3259 7.51172 20.4998C7.51172 27.6738 13.3274 33.4894 20.5013 33.4894Z" stroke="black" stroke-linecap="round" stroke-linejoin="round"/>
<path d="M20.5013 33.4894C27.6752 33.4894 33.4909 27.6738 33.4909 20.4998C33.4909 13.3259 27.6752 7.51025 20.5013 7.51025C13.3274 7.51025 7.51172 13.3259 7.51172 20.4998C7.51172 27.6738 13.3274 33.4894 20.5013 33.4894Z" stroke="url(#paint1_linear_3063_3041)" stroke-linecap="round" stroke-linejoin="round"/>
<defs>
<linearGradient id="paint0_linear_3063_3041" x1="12.4584" y1="20.3791" x2="28.6563" y2="20.3791" gradientUnits="userSpaceOnUse">
<stop stop-color="#3793AE"/>
<stop offset="1" stop-color="#074287"/>
</linearGradient>
<linearGradient id="paint1_linear_3063_3041" x1="7.69424" y1="20.4998" x2="33.4909" y2="20.4998" gradientUnits="userSpaceOnUse">
<stop stop-color="#3793AE"/>
<stop offset="1" stop-color="#074287"/>
</linearGradient>
</defs>
</svg>
