<svg width="42" height="42" viewBox="0 0 42 42" fill="none" xmlns="http://www.w3.org/2000/svg">
<path d="M16.9257 17.9809L10.4742 11.569L10.4952 15.2035C10.5019 15.5065 10.2616 15.7702 9.95816 15.7634L9.57341 15.763C9.27003 15.7559 9.01916 15.5755 9.01278 15.2725L8.99703 9.85829C8.99703 9.85307 9.01766 9.84894 9.01766 9.84369L8.98803 9.56919C8.98503 9.41694 9.02063 9.28119 9.11891 9.18409C9.21601 9.08621 9.35213 9.02659 9.50328 9.03071L9.77741 9.03709C9.78263 9.03709 9.78676 9.03896 9.79241 9.03974L15.171 9.01611C15.474 9.02286 15.7249 9.27336 15.7316 9.57674L15.7324 9.96151C15.6863 10.3189 15.4054 10.5278 15.1024 10.521L11.5575 10.5304L17.9861 16.92C18.279 17.2129 18.279 17.6876 17.9861 17.9809C17.6933 18.2734 17.2185 18.2734 16.9257 17.9809ZM25.0542 24.019L31.5056 30.4109L31.485 26.7963C31.4779 26.4929 31.7187 26.2293 32.0217 26.236L32.43 26.2368C32.7338 26.2443 32.9843 26.4243 32.9907 26.7277L33.0064 32.1419C33.0064 32.1472 32.9858 32.1505 32.9858 32.1565L33.0154 32.4303C33.0188 32.5825 32.9832 32.719 32.8845 32.8154C32.7878 32.9137 32.6513 32.9729 32.5005 32.9692L32.226 32.9624C32.2208 32.9624 32.2171 32.9602 32.211 32.9602L26.8088 32.9838C26.5058 32.9763 26.2553 32.7258 26.2482 32.4228L26.2474 32.0377C26.2935 31.681 26.5744 31.4714 26.8774 31.4782L30.4223 31.4688L23.994 25.0799C23.7012 24.787 23.7012 24.3123 23.994 24.0194C24.2869 23.7265 24.7613 23.7262 25.0542 24.019H25.0542ZM8.99661 32.1415L9.01236 26.7272C9.01911 26.4239 9.26999 26.2439 9.57299 26.2364L9.95774 26.2356C10.2611 26.2288 10.5011 26.4928 10.4947 26.7958L10.4737 30.4303L16.9256 24.019C17.2185 23.7261 17.6932 23.7261 17.9861 24.019C18.279 24.3118 18.279 24.7866 17.9861 25.0795L11.5579 31.4683L15.1024 31.4777C15.4054 31.471 15.6862 31.6806 15.7324 32.0372L15.7316 32.4223C15.7245 32.7257 15.4736 32.9762 15.171 32.9833L9.79199 32.9597C9.78636 32.9597 9.78224 32.962 9.77699 32.962L9.50286 32.9687C9.35174 32.9725 9.21524 32.9132 9.11849 32.815C9.02021 32.7182 8.98499 32.5821 8.98761 32.4298L9.01721 32.1561C9.01721 32.1501 8.99659 32.1467 8.99659 32.1415L8.99661 32.1415ZM30.4223 10.531L26.877 10.5217C26.574 10.5284 26.2931 10.3192 26.247 9.96214L26.2478 9.57704C26.2553 9.27369 26.5058 9.02279 26.8084 9.01642L32.211 9.03967C32.217 9.03892 32.2208 9.03704 32.226 9.03704L32.5005 9.03064C32.6513 9.02654 32.7881 9.08617 32.8845 9.18402C32.9832 9.28114 33.0188 9.41689 33.0154 9.56914L32.9858 9.84364C32.9858 9.84887 33.0064 9.85264 33.0064 9.85827L32.9907 15.2725C32.9839 15.5755 32.7334 15.7559 32.43 15.763L32.0216 15.7634C31.7186 15.7701 31.4783 15.5065 31.485 15.2035L31.5057 11.5889L25.0542 17.9807C24.7617 18.2736 24.2865 18.2736 23.9936 17.9807C23.7007 17.6878 23.7007 17.2127 23.9936 16.9199L30.4223 10.531Z" fill="url(#paint0_linear_3025_2738)"/>
<defs>
<linearGradient id="paint0_linear_3025_2738" x1="32.8468" y1="20.9999" x2="8.98748" y2="20.9999" gradientUnits="userSpaceOnUse">
<stop stop-color="#3793AE"/>
<stop offset="1" stop-color="#074287"/>
</linearGradient>
</defs>
</svg>
