<svg width="42" height="42" viewBox="0 0 42 42" fill="none" xmlns="http://www.w3.org/2000/svg">
<path d="M20.9938 10.2643C21.5009 10.2645 22.0067 10.3213 22.5038 10.4341C24.0748 10.7747 25.5195 11.6407 26.6514 12.9202C27.7833 14.1996 28.5505 15.8339 28.8538 17.6119L29.1138 19.1403L30.4638 19.412C31.8274 19.6775 33.0524 20.515 33.8948 21.7576C34.7371 23.0002 35.1349 24.5566 35.0087 26.1165C34.8825 27.6763 34.2417 29.125 33.214 30.1738C32.1863 31.2225 30.8473 31.7942 29.4638 31.7749H12.4938C11.1104 31.7942 9.77135 31.2225 8.74367 30.1738C7.71599 29.125 7.07518 27.6763 6.94901 26.1165C6.82284 24.5566 7.22057 23.0002 8.06291 21.7576C8.90525 20.515 10.1303 19.6775 11.4938 19.412L12.8338 19.1403L13.0938 17.6119C13.4463 15.5359 14.429 13.6648 15.8718 12.3229C17.3146 10.981 19.1266 10.2527 20.9938 10.2643ZM20.9938 8C18.6665 7.99781 16.4113 8.91476 14.6169 10.5928C12.8226 12.2709 11.6014 14.605 11.1638 17.193C9.32218 17.5705 7.67173 18.7139 6.53667 20.3987C5.40161 22.0835 4.86397 24.1878 5.02935 26.2985C5.19473 28.4091 6.05118 30.3735 7.43048 31.8057C8.80978 33.238 10.6122 34.0346 12.4838 34.0392H29.4838C31.3555 34.0346 33.1579 33.238 34.5372 31.8057C35.9165 30.3735 36.773 28.4091 36.9383 26.2985C37.1037 24.1878 36.5661 22.0835 35.431 20.3987C34.296 18.7139 32.6455 17.5705 30.8038 17.193C30.4272 14.967 29.4691 12.9202 28.0535 11.3176C26.6379 9.71493 24.83 8.63021 22.8638 8.20379C22.2473 8.07151 21.6214 8.0033 20.9938 8Z" fill="url(#paint0_linear_3063_3040)"/>
<path d="M23.8592 20.4303C23.0365 19.5021 21.8395 18.915 20.5 18.915C18.0145 18.915 16 20.9295 16 23.415H17.125C17.125 21.55 18.635 20.04 20.5 20.04C21.5283 20.04 22.4406 20.5059 23.0576 21.2318L21.9994 22.29H25V19.2895L23.8592 20.4303ZM20.5 26.79C19.4717 26.79 18.5594 26.3242 17.9424 25.5982L19.0006 24.54H16V27.5406L17.1408 26.3998C17.9635 27.3279 19.1623 27.915 20.5 27.915C22.9855 27.915 25 25.9006 25 23.415H23.875C23.875 25.2801 22.365 26.79 20.5 26.79Z" fill="url(#paint1_linear_3063_3040)"/>
<defs>
<linearGradient id="paint0_linear_3063_3040" x1="5.2246" y1="21.0196" x2="36.9677" y2="21.0196" gradientUnits="userSpaceOnUse">
<stop stop-color="#3793AE"/>
<stop offset="1" stop-color="#074287"/>
</linearGradient>
<linearGradient id="paint1_linear_3063_3040" x1="16.0632" y1="23.415" x2="25" y2="23.415" gradientUnits="userSpaceOnUse">
<stop stop-color="#3793AE"/>
<stop offset="1" stop-color="#074287"/>
</linearGradient>
</defs>
</svg>
