<svg width="43" height="47" viewBox="0 0 43 47" fill="none" xmlns="http://www.w3.org/2000/svg">
<path d="M26.7829 19.5795L35.1161 11.2975L35.0889 15.9921C35.0802 16.3835 35.3907 16.724 35.7826 16.7153L36.2795 16.7148C36.6714 16.7056 36.9954 16.4726 37.0037 16.0812L37.024 9.08782C37.024 9.08106 36.9974 9.07574 36.9974 9.06896L37.0356 8.71439C37.0395 8.51774 36.9935 8.34239 36.8666 8.21697C36.7412 8.09055 36.5653 8.01353 36.3701 8.01886L36.016 8.02709C36.0093 8.02709 36.004 8.02952 35.9967 8.03052L29.0493 8C28.658 8.00872 28.3339 8.33228 28.3252 8.72414L28.3242 9.22114C28.3838 9.68275 28.7466 9.95255 29.138 9.94383L33.7168 9.95594L25.4131 18.2092C25.0348 18.5875 25.0348 19.2007 25.4131 19.5795C25.7914 19.9573 26.4046 19.9573 26.7829 19.5795ZM16.2836 27.3788L7.9504 35.635L7.97705 30.9661C7.98625 30.5742 7.67525 30.2337 7.28387 30.2424L6.75642 30.2434C6.36408 30.2531 6.04048 30.4856 6.03225 30.8774L6.01191 37.8708C6.01191 37.8776 6.03855 37.8819 6.03855 37.8897L6.00028 38.2433C5.99592 38.4399 6.04194 38.6163 6.16933 38.7408C6.2943 38.8677 6.47061 38.9442 6.66533 38.9394L7.01989 38.9306C7.02664 38.9306 7.03148 38.9277 7.03926 38.9277L14.0171 38.9583C14.4085 38.9486 14.7321 38.625 14.7413 38.2336L14.7422 37.7362C14.6827 37.2755 14.3199 37.0048 13.9285 37.0135L9.34973 37.0014L17.6529 28.7491C18.0312 28.3708 18.0312 27.7576 17.6529 27.3793C17.2746 27.001 16.6618 27.0005 16.2835 27.3788H16.2836ZM37.0246 37.8703L37.0042 30.8769C36.9955 30.485 36.6714 30.2525 36.2801 30.2428L35.7831 30.2419C35.3912 30.2331 35.0812 30.5741 35.0895 30.9655L35.1166 35.6601L26.7829 27.3787C26.4046 27.0004 25.7914 27.0004 25.4131 27.3787C25.0348 27.757 25.0348 28.3702 25.4131 28.7485L33.7163 37.0008L29.138 37.0129C28.7466 37.0042 28.3838 37.275 28.3242 37.7356L28.3252 38.2331C28.3344 38.6249 28.6584 38.9485 29.0493 38.9577L35.9972 38.9272C36.0045 38.9272 36.0098 38.9301 36.0166 38.9301L36.3707 38.9388C36.5659 38.9436 36.7422 38.8671 36.8671 38.7402C36.9941 38.6152 37.0396 38.4394 37.0362 38.2427L36.9979 37.8891C36.9979 37.8814 37.0246 37.8771 37.0246 37.8703L37.0246 37.8703ZM9.34976 9.95669L13.929 9.94467C14.3204 9.95339 14.6832 9.68311 14.7428 9.22196L14.7418 8.72453C14.7321 8.33271 14.4085 8.00863 14.0177 8.00039L7.03926 8.03042C7.03151 8.02946 7.02667 8.02703 7.01989 8.02703L6.66533 8.01877C6.47064 8.01347 6.29384 8.09049 6.16933 8.21688C6.04194 8.34233 5.99595 8.51768 6.00028 8.71433L6.03855 9.06889C6.03855 9.07565 6.01191 9.08052 6.01191 9.08779L6.03225 16.0812C6.04097 16.4726 6.36456 16.7056 6.75642 16.7148L7.2839 16.7152C7.67528 16.7239 7.98573 16.3834 7.97701 15.992L7.95037 11.3231L16.2836 19.5793C16.6614 19.9576 17.2751 19.9576 17.6534 19.5793C18.0318 19.201 18.0317 18.5873 17.6534 18.209L9.34976 9.95669Z" fill="url(#paint0_linear_3040_5701)"/>
<path d="M26.7829 19.5795L35.1161 11.2975L35.0889 15.9921C35.0802 16.3835 35.3907 16.724 35.7826 16.7153L36.2795 16.7148C36.6714 16.7056 36.9954 16.4726 37.0037 16.0812L37.024 9.08782C37.024 9.08106 36.9974 9.07574 36.9974 9.06896L37.0356 8.71439C37.0395 8.51774 36.9935 8.34239 36.8666 8.21697C36.7412 8.09055 36.5653 8.01353 36.3701 8.01886L36.016 8.02709C36.0093 8.02709 36.004 8.02952 35.9967 8.03052L29.0493 8C28.658 8.00872 28.3339 8.33228 28.3252 8.72414L28.3242 9.22114C28.3838 9.68275 28.7466 9.95255 29.138 9.94383L33.7168 9.95594L25.4131 18.2092C25.0348 18.5875 25.0348 19.2007 25.4131 19.5795C25.7914 19.9573 26.4046 19.9573 26.7829 19.5795ZM16.2836 27.3788L7.9504 35.635L7.97705 30.9661C7.98625 30.5742 7.67525 30.2337 7.28387 30.2424L6.75642 30.2434C6.36408 30.2531 6.04048 30.4856 6.03225 30.8774L6.01191 37.8708C6.01191 37.8776 6.03855 37.8819 6.03855 37.8897L6.00028 38.2433C5.99592 38.4399 6.04194 38.6163 6.16933 38.7408C6.2943 38.8677 6.47061 38.9442 6.66533 38.9394L7.01989 38.9306C7.02664 38.9306 7.03148 38.9277 7.03926 38.9277L14.0171 38.9583C14.4085 38.9486 14.7321 38.625 14.7413 38.2336L14.7422 37.7362C14.6827 37.2755 14.3199 37.0048 13.9285 37.0135L9.34973 37.0014L17.6529 28.7491C18.0312 28.3708 18.0312 27.7576 17.6529 27.3793C17.2746 27.001 16.6618 27.0005 16.2835 27.3788H16.2836ZM37.0246 37.8703L37.0042 30.8769C36.9955 30.485 36.6714 30.2525 36.2801 30.2428L35.7831 30.2419C35.3912 30.2331 35.0812 30.5741 35.0895 30.9655L35.1166 35.6601L26.7829 27.3787C26.4046 27.0004 25.7914 27.0004 25.4131 27.3787C25.0348 27.757 25.0348 28.3702 25.4131 28.7485L33.7163 37.0008L29.138 37.0129C28.7466 37.0042 28.3838 37.275 28.3242 37.7356L28.3252 38.2331C28.3344 38.6249 28.6584 38.9485 29.0493 38.9577L35.9972 38.9272C36.0045 38.9272 36.0098 38.9301 36.0166 38.9301L36.3707 38.9388C36.5659 38.9436 36.7422 38.8671 36.8671 38.7402C36.9941 38.6152 37.0396 38.4394 37.0362 38.2427L36.9979 37.8891C36.9979 37.8814 37.0246 37.8771 37.0246 37.8703L37.0246 37.8703ZM9.34976 9.95669L13.929 9.94467C14.3204 9.95339 14.6832 9.68311 14.7428 9.22196L14.7418 8.72453C14.7321 8.33271 14.4085 8.00863 14.0177 8.00039L7.03926 8.03042C7.03151 8.02946 7.02667 8.02703 7.01989 8.02703L6.66533 8.01877C6.47064 8.01347 6.29384 8.09049 6.16933 8.21688C6.04194 8.34233 5.99595 8.51768 6.00028 8.71433L6.03855 9.06889C6.03855 9.07565 6.01191 9.08052 6.01191 9.08779L6.03225 16.0812C6.04097 16.4726 6.36456 16.7056 6.75642 16.7148L7.2839 16.7152C7.67528 16.7239 7.98573 16.3834 7.97701 15.992L7.95037 11.3231L16.2836 19.5793C16.6614 19.9576 17.2751 19.9576 17.6534 19.5793C18.0318 19.201 18.0317 18.5873 17.6534 18.209L9.34976 9.95669Z" fill="white" fill-opacity="0.49"/>
<defs>
<linearGradient id="paint0_linear_3040_5701" x1="6.21805" y1="23.4791" x2="37.0364" y2="23.4791" gradientUnits="userSpaceOnUse">
<stop stop-color="#3793AE"/>
<stop offset="1" stop-color="#074287"/>
</linearGradient>
</defs>
</svg>
