<svg width="47" height="47" viewBox="0 0 47 47" fill="none" xmlns="http://www.w3.org/2000/svg">
<path d="M23.4534 36.2004C24.8976 34.714 25.7536 32.7397 25.8721 30.6579H26.612C26.4925 32.9576 25.5522 35.1359 23.9656 36.7689C22.3834 38.3974 20.2795 39.3596 18.0625 39.4858V38.6951C20.092 38.5697 22.0115 37.6845 23.4534 36.2004ZM26.6125 29.6579H25.8726C25.816 28.6472 25.5846 27.6533 25.1878 26.7233C24.79 25.791 24.2332 24.9401 23.5446 24.2105L23.8186 23.9043L23.8181 23.9039L24.0545 23.6394C24.8105 24.438 25.4227 25.3715 25.86 26.3966C26.3005 27.4289 26.555 28.534 26.6125 29.6579ZM17.0625 39.4858C14.8455 39.3596 12.7416 38.3974 11.1594 36.7689C9.57278 35.1359 8.63245 32.9576 8.51298 30.6579H9.25287C9.37144 32.7397 10.2274 34.714 11.6716 36.2004C13.1135 37.6845 15.033 38.5697 17.0625 38.6951V39.4858ZM9.25264 29.6579H8.51252C8.56996 28.534 8.82452 27.4289 9.26495 26.3966C9.70229 25.3715 10.3145 24.438 11.0705 23.6394L11.581 24.2107C10.2349 25.6396 9.37115 27.5478 9.25264 29.6579ZM12.2648 23.4751L11.7471 22.8958C11.772 22.854 11.795 22.811 11.8161 22.7669C11.8412 22.7146 11.8635 22.6611 11.8828 22.6066L12.6593 22.6058C12.5866 22.9238 12.4479 23.2176 12.2648 23.4751ZM12.7405 11.7632H11.9983C12.1121 10.4139 12.6838 9.14459 13.6182 8.18286C14.5478 7.22606 15.7686 6.64311 17.0625 6.52313V7.31599C15.9568 7.43361 14.92 7.93862 14.1304 8.75136C13.3389 9.56602 12.8518 10.6316 12.7405 11.7632ZM18.0625 7.31599V6.52313C19.3564 6.64311 20.5772 7.22606 21.5068 8.18286C22.4412 9.14459 23.0129 10.4139 23.1267 11.7632H22.3845C22.2732 10.6316 21.7861 9.56602 20.9946 8.75136C20.205 7.93862 19.1682 7.43361 18.0625 7.31599ZM22.4091 12.7632H23.1477V21.6053H22.4091V12.7632ZM11.9773 12.7632H12.7159V21.6053H11.9773V12.7632ZM24.3242 37.1173C26.0027 35.3898 26.9927 33.0861 27.1127 30.6579L18.0625 39.9865C20.4165 39.8598 22.6491 38.8414 24.3242 37.1173ZM22.4658 22.6071H23.2419C23.2612 22.6615 23.2834 22.7149 23.3084 22.7671C23.3296 22.8112 23.3526 22.8543 23.3775 22.8962L22.8602 23.4751C22.6771 23.2178 22.5385 22.9243 22.4658 22.6071Z" fill="url(#paint0_linear_3043_5704)"/>
<path d="M23.4534 36.2004C24.8976 34.714 25.7536 32.7397 25.8721 30.6579H26.612C26.4925 32.9576 25.5522 35.1359 23.9656 36.7689C22.3834 38.3974 20.2795 39.3596 18.0625 39.4858V38.6951C20.092 38.5697 22.0115 37.6845 23.4534 36.2004ZM26.6125 29.6579H25.8726C25.816 28.6472 25.5846 27.6533 25.1878 26.7233C24.79 25.791 24.2332 24.9401 23.5446 24.2105L23.8186 23.9043L23.8181 23.9039L24.0545 23.6394C24.8105 24.438 25.4227 25.3715 25.86 26.3966C26.3005 27.4289 26.555 28.534 26.6125 29.6579ZM17.0625 39.4858C14.8455 39.3596 12.7416 38.3974 11.1594 36.7689C9.57278 35.1359 8.63245 32.9576 8.51298 30.6579H9.25287C9.37144 32.7397 10.2274 34.714 11.6716 36.2004C13.1135 37.6845 15.033 38.5697 17.0625 38.6951V39.4858ZM9.25264 29.6579H8.51252C8.56996 28.534 8.82452 27.4289 9.26495 26.3966C9.70229 25.3715 10.3145 24.438 11.0705 23.6394L11.581 24.2107C10.2349 25.6396 9.37115 27.5478 9.25264 29.6579ZM12.2648 23.4751L11.7471 22.8958C11.772 22.854 11.795 22.811 11.8161 22.7669C11.8412 22.7146 11.8635 22.6611 11.8828 22.6066L12.6593 22.6058C12.5866 22.9238 12.4479 23.2176 12.2648 23.4751ZM12.7405 11.7632H11.9983C12.1121 10.4139 12.6838 9.14459 13.6182 8.18286C14.5478 7.22606 15.7686 6.64311 17.0625 6.52313V7.31599C15.9568 7.43361 14.92 7.93862 14.1304 8.75136C13.3389 9.56602 12.8518 10.6316 12.7405 11.7632ZM18.0625 7.31599V6.52313C19.3564 6.64311 20.5772 7.22606 21.5068 8.18286C22.4412 9.14459 23.0129 10.4139 23.1267 11.7632H22.3845C22.2732 10.6316 21.7861 9.56602 20.9946 8.75136C20.205 7.93862 19.1682 7.43361 18.0625 7.31599ZM22.4091 12.7632H23.1477V21.6053H22.4091V12.7632ZM11.9773 12.7632H12.7159V21.6053H11.9773V12.7632ZM24.3242 37.1173C26.0027 35.3898 26.9927 33.0861 27.1127 30.6579L18.0625 39.9865C20.4165 39.8598 22.6491 38.8414 24.3242 37.1173ZM22.4658 22.6071H23.2419C23.2612 22.6615 23.2834 22.7149 23.3084 22.7671C23.3296 22.8112 23.3526 22.8543 23.3775 22.8962L22.8602 23.4751C22.6771 23.2178 22.5385 22.9243 22.4658 22.6071Z" stroke="url(#paint1_linear_3043_5704)"/>
<path d="M23.4534 36.2004C24.8976 34.714 25.7536 32.7397 25.8721 30.6579H26.612C26.4925 32.9576 25.5522 35.1359 23.9656 36.7689C22.3834 38.3974 20.2795 39.3596 18.0625 39.4858V38.6951C20.092 38.5697 22.0115 37.6845 23.4534 36.2004ZM26.6125 29.6579H25.8726C25.816 28.6472 25.5846 27.6533 25.1878 26.7233C24.79 25.791 24.2332 24.9401 23.5446 24.2105L23.8186 23.9043L23.8181 23.9039L24.0545 23.6394C24.8105 24.438 25.4227 25.3715 25.86 26.3966C26.3005 27.4289 26.555 28.534 26.6125 29.6579ZM17.0625 39.4858C14.8455 39.3596 12.7416 38.3974 11.1594 36.7689C9.57278 35.1359 8.63245 32.9576 8.51298 30.6579H9.25287C9.37144 32.7397 10.2274 34.714 11.6716 36.2004C13.1135 37.6845 15.033 38.5697 17.0625 38.6951V39.4858ZM9.25264 29.6579H8.51252C8.56996 28.534 8.82452 27.4289 9.26495 26.3966C9.70229 25.3715 10.3145 24.438 11.0705 23.6394L11.581 24.2107C10.2349 25.6396 9.37115 27.5478 9.25264 29.6579ZM12.2648 23.4751L11.7471 22.8958C11.772 22.854 11.795 22.811 11.8161 22.7669C11.8412 22.7146 11.8635 22.6611 11.8828 22.6066L12.6593 22.6058C12.5866 22.9238 12.4479 23.2176 12.2648 23.4751ZM12.7405 11.7632H11.9983C12.1121 10.4139 12.6838 9.14459 13.6182 8.18286C14.5478 7.22606 15.7686 6.64311 17.0625 6.52313V7.31599C15.9568 7.43361 14.92 7.93862 14.1304 8.75136C13.3389 9.56602 12.8518 10.6316 12.7405 11.7632ZM18.0625 7.31599V6.52313C19.3564 6.64311 20.5772 7.22606 21.5068 8.18286C22.4412 9.14459 23.0129 10.4139 23.1267 11.7632H22.3845C22.2732 10.6316 21.7861 9.56602 20.9946 8.75136C20.205 7.93862 19.1682 7.43361 18.0625 7.31599ZM22.4091 12.7632H23.1477V21.6053H22.4091V12.7632ZM11.9773 12.7632H12.7159V21.6053H11.9773V12.7632ZM24.3242 37.1173C26.0027 35.3898 26.9927 33.0861 27.1127 30.6579L18.0625 39.9865C20.4165 39.8598 22.6491 38.8414 24.3242 37.1173ZM22.4658 22.6071H23.2419C23.2612 22.6615 23.2834 22.7149 23.3084 22.7671C23.3296 22.8112 23.3526 22.8543 23.3775 22.8962L22.8602 23.4751C22.6771 23.2178 22.5385 22.9243 22.4658 22.6071Z" stroke="white" stroke-opacity="0.48"/>
<path d="M17.5575 34.6329C19.9581 34.6329 21.9041 32.63 21.9041 30.1592C21.9041 27.6885 19.9581 25.6855 17.5575 25.6855C15.157 25.6855 13.2109 27.6885 13.2109 30.1592C13.2109 32.63 15.157 34.6329 17.5575 34.6329Z" stroke="url(#paint2_linear_3043_5704)"/>
<path d="M17.5575 34.6329C19.9581 34.6329 21.9041 32.63 21.9041 30.1592C21.9041 27.6885 19.9581 25.6855 17.5575 25.6855C15.157 25.6855 13.2109 27.6885 13.2109 30.1592C13.2109 32.63 15.157 34.6329 17.5575 34.6329Z" stroke="white" stroke-opacity="0.48"/>
<path d="M33.5 39.0831C31.8025 39.0831 30.3573 38.5259 29.1644 37.4115C27.9715 36.297 27.375 34.9404 27.375 33.3415C27.375 32.5787 27.5369 31.8487 27.8606 31.1515C28.1844 30.4542 28.6181 29.832 29.1617 29.2848L33.5 25.2373L37.8383 29.2848C38.3819 29.832 38.8156 30.4542 39.1394 31.1515C39.4631 31.8487 39.625 32.5801 39.625 33.3456C39.625 34.9467 39.0285 36.3034 37.8356 37.4156C36.6427 38.5279 35.1975 39.0837 33.5 39.0831Z" fill="url(#paint3_linear_3043_5704)"/>
<path d="M33.5 39.0831C31.8025 39.0831 30.3573 38.5259 29.1644 37.4115C27.9715 36.297 27.375 34.9404 27.375 33.3415C27.375 32.5787 27.5369 31.8487 27.8606 31.1515C28.1844 30.4542 28.6181 29.832 29.1617 29.2848L33.5 25.2373L37.8383 29.2848C38.3819 29.832 38.8156 30.4542 39.1394 31.1515C39.4631 31.8487 39.625 32.5801 39.625 33.3456C39.625 34.9467 39.0285 36.3034 37.8356 37.4156C36.6427 38.5279 35.1975 39.0837 33.5 39.0831Z" fill="white" fill-opacity="0.48"/>
<defs>
<linearGradient id="paint0_linear_3043_5704" x1="8.13437" y1="23" x2="27.125" y2="23" gradientUnits="userSpaceOnUse">
<stop stop-color="#3793AE"/>
<stop offset="1" stop-color="#074287"/>
</linearGradient>
<linearGradient id="paint1_linear_3043_5704" x1="8.13437" y1="23" x2="27.125" y2="23" gradientUnits="userSpaceOnUse">
<stop stop-color="#3793AE"/>
<stop offset="1" stop-color="#074287"/>
</linearGradient>
<linearGradient id="paint2_linear_3043_5704" x1="13.272" y1="30.1592" x2="21.9041" y2="30.1592" gradientUnits="userSpaceOnUse">
<stop stop-color="#3793AE"/>
<stop offset="1" stop-color="#074287"/>
</linearGradient>
<linearGradient id="paint3_linear_3043_5704" x1="27.4611" y1="32.1602" x2="39.625" y2="32.1602" gradientUnits="userSpaceOnUse">
<stop stop-color="#3793AE"/>
<stop offset="1" stop-color="#074287"/>
</linearGradient>
</defs>
</svg>
