<svg width="212" height="47" viewBox="0 0 212 47" fill="none" xmlns="http://www.w3.org/2000/svg">
<path d="M32.4986 22C32.4986 14.0277 26.5761 7.5625 19.2591 7.5625C11.942 7.5625 6.01953 14.0277 6.01953 22C6.01953 29.9723 11.942 36.4375 19.2591 36.4375C26.5761 36.4157 32.4986 29.9723 32.4986 22Z" fill="url(#paint0_linear_3040_5699)"/>
<path d="M32.4986 22C32.4986 14.0277 26.5761 7.5625 19.2591 7.5625C11.942 7.5625 6.01953 14.0277 6.01953 22C6.01953 29.9723 11.942 36.4375 19.2591 36.4375C26.5761 36.4157 32.4986 29.9723 32.4986 22Z" fill="white" fill-opacity="0.86"/>
<path d="M20.4608 6.25C20.4608 9.13954 18.3148 11.5 15.6464 11.5C12.9966 11.5 10.832 9.15989 10.832 6.25C10.832 3.36047 12.978 1 15.6464 1C18.2962 1 20.4608 3.36047 20.4608 6.25Z" fill="url(#paint1_linear_3040_5699)"/>
<path d="M20.4608 6.25C20.4608 9.13954 18.3148 11.5 15.6464 11.5C12.9966 11.5 10.832 9.15989 10.832 6.25C10.832 3.36047 12.978 1 15.6464 1C18.2962 1 20.4608 3.36047 20.4608 6.25Z" fill="white" fill-opacity="0.84"/>
<path d="M33.6991 10.8438C33.6991 14.0945 31.5531 16.75 28.8847 16.75C26.2349 16.75 24.0703 14.1174 24.0703 10.8438C24.0703 7.59302 26.2163 4.9375 28.8847 4.9375C31.5531 4.9375 33.6991 7.59302 33.6991 10.8438Z" fill="url(#paint2_linear_3040_5699)"/>
<path d="M33.6991 10.8438C33.6991 14.0945 31.5531 16.75 28.8847 16.75C26.2349 16.75 24.0703 14.1174 24.0703 10.8438C24.0703 7.59302 26.2163 4.9375 28.8847 4.9375C31.5531 4.9375 33.6991 7.59302 33.6991 10.8438Z" fill="white" fill-opacity="0.84"/>
<path d="M38.5155 25.9375C38.5155 28.827 36.3695 31.1875 33.7011 31.1875C31.0513 31.1875 28.8867 28.8474 28.8867 25.9375C28.8867 23.048 31.0327 20.6875 33.7011 20.6875C36.3695 20.7078 38.5155 23.048 38.5155 25.9375Z" fill="url(#paint3_linear_3040_5699)"/>
<path d="M38.5155 25.9375C38.5155 28.827 36.3695 31.1875 33.7011 31.1875C31.0513 31.1875 28.8867 28.8474 28.8867 25.9375C28.8867 23.048 31.0327 20.6875 33.7011 20.6875C36.3695 20.7078 38.5155 23.048 38.5155 25.9375Z" fill="white" fill-opacity="0.84"/>
<path d="M28.887 37.0937C28.887 40.3445 26.4728 43 23.4709 43C20.4899 43 18.0547 40.3674 18.0547 37.0937C18.0547 33.843 20.4689 31.1875 23.4709 31.1875C26.4518 31.1875 28.887 33.8201 28.887 37.0937Z" fill="url(#paint4_linear_3040_5699)"/>
<path d="M28.887 37.0937C28.887 40.3445 26.4728 43 23.4709 43C20.4899 43 18.0547 40.3674 18.0547 37.0937C18.0547 33.843 20.4689 31.1875 23.4709 31.1875C26.4518 31.1875 28.887 33.8201 28.887 37.0937Z" fill="white" fill-opacity="0.84"/>
<path d="M14.4412 33.1562C14.4412 36.407 12.2953 39.0625 9.62687 39.0625C6.9771 39.0625 4.8125 36.4299 4.8125 33.1562C4.8125 29.9055 6.95844 27.25 9.62687 27.25C12.2766 27.25 14.4412 29.9055 14.4412 33.1562Z" fill="url(#paint5_linear_3040_5699)"/>
<path d="M14.4412 33.1562C14.4412 36.407 12.2953 39.0625 9.62687 39.0625C6.9771 39.0625 4.8125 36.4299 4.8125 33.1562C4.8125 29.9055 6.95844 27.25 9.62687 27.25C12.2766 27.25 14.4412 29.9055 14.4412 33.1562Z" fill="white" fill-opacity="0.84"/>
<path d="M9.62874 17.4063C9.62874 20.657 7.4828 23.3125 4.81437 23.3125C2.1646 23.3125 0 20.6799 0 17.4063C0 14.1555 2.14594 11.5 4.81437 11.5C7.46414 11.5 9.62874 14.1555 9.62874 17.4063Z" fill="url(#paint6_linear_3040_5699)"/>
<path d="M9.62874 17.4063C9.62874 20.657 7.4828 23.3125 4.81437 23.3125C2.1646 23.3125 0 20.6799 0 17.4063C0 14.1555 2.14594 11.5 4.81437 11.5C7.46414 11.5 9.62874 14.1555 9.62874 17.4063Z" fill="white" fill-opacity="0.84"/>
<path d="M20.4594 18.5L20.0832 17.0562L19.2914 18.7188L16.4606 7.9125L17.8859 8.83125L17.5296 7.45312L15.55 6.25L14.4414 8.4375L14.8175 9.81562L15.5698 8.19687L18.4204 19.0031L16.9555 18.0625L17.3316 19.5063L19.331 20.6875L20.4594 18.5Z" fill="#3793AE" fill-opacity="0.65"/>
<path d="M22.5394 22L23.3559 21.0171L21.8713 20.8733L28.1067 13.4178V15.2877L28.8861 14.3527L28.849 11.7397L26.8448 11.5L26.0653 12.4589L27.5128 12.5788L21.2775 20.0582L21.296 18.1164L20.4609 19.1233L20.5166 21.7363L22.5394 22Z" fill="#3793AE" fill-opacity="0.65"/>
<path d="M11.7535 32.5L12.5777 31.5953L11.0758 31.5551L17.2482 24.8806L17.2665 26.4889L18.0541 25.6446L17.9991 23.413L15.9661 23.3125L15.1968 24.1569L16.6438 24.1971L10.4714 30.8917L10.4531 29.2432L9.62891 30.1277L9.72048 32.3593L11.7535 32.5Z" fill="#3793AE" fill-opacity="0.65"/>
<path d="M17.0866 19.9673L15.8942 19.5412L16.6581 21.1179L7.6591 17.9645L9.0192 17.1548L7.88268 16.75L6.01953 17.9006L7.007 20.0526L8.14352 20.4574L7.41689 18.9233L16.3973 22.0767L14.9999 22.8864L16.1923 23.3125L18.0555 22.1406L17.0866 19.9673Z" fill="#3793AE" fill-opacity="0.67"/>
<path d="M24.0727 34.3091L23.6793 33.0011L22.932 34.5973L20.041 24.7979L21.457 25.5296L21.0833 24.288L19.097 23.3125L18.0547 25.4187L18.4284 26.6603L19.156 25.1305L22.0667 34.9299L20.6113 34.1539L21.0047 35.462L22.991 36.4375L24.0727 34.3091Z" fill="#3793AE" fill-opacity="0.65"/>
<path d="M31.5541 23.6622L30.3505 23.2535L31.0927 24.9111L22.1058 21.9591L23.4699 21.0508L22.3466 20.6875L20.4609 21.9818L21.4439 24.2072L22.5672 24.5932L21.8451 22.981L30.8319 25.9103L29.4277 26.8413L30.6313 27.25L32.4969 25.9103L31.5541 23.6622Z" fill="#3793AE" fill-opacity="0.65"/>
<path d="M20.4609 29.875L23.1868 14.125H29.4063L32.2089 23.5928L38.2941 14.125H44.5328L41.7686 29.875H37.9293L39.8106 18.7364L32.6888 29.875H29.675L26.2773 18.7587L24.3961 29.875H20.4609Z" fill="url(#paint7_linear_3040_5699)"/>
<path d="M20.4609 29.875L23.1868 14.125H29.4063L32.2089 23.5928L38.2941 14.125H44.5328L41.7686 29.875H37.9293L39.8106 18.7364L32.6888 29.875H29.675L26.2773 18.7587L24.3961 29.875H20.4609Z" fill="white" fill-opacity="0.48"/>
<path d="M56.9393 18.9782C56.3953 18.3372 54.4914 18.0625 52.2766 18.0625C48.8185 18.0625 47.1089 18.7264 46.0792 19.9397C45.0495 21.153 44.5444 25.7315 44.5444 26.2351C44.5444 26.7158 44.389 28.0207 45.1467 28.9135C45.9043 29.8063 47.7306 29.875 50.5476 29.875C53.3646 29.875 54.9188 29.3027 55.9679 28.4557C57.017 27.6315 57.6387 23.2591 57.7552 21.9084C57.8524 20.5349 57.4833 19.5963 56.9393 18.9782ZM54.1805 24.0832C53.8891 25.2965 53.7726 25.8001 53.4229 26.0977C53.0732 26.3953 51.2858 26.6014 50.8973 26.6014C50.5087 26.6014 48.6048 26.5556 48.2162 26.0977C47.8277 25.6399 48.4105 22.2289 48.9739 21.8626C49.5373 21.4964 50.703 21.3819 51.5384 21.4048C52.8206 21.4277 53.792 21.4735 54.064 21.794C54.336 22.1603 54.472 22.8699 54.1805 24.0832Z" fill="url(#paint8_linear_3040_5699)"/>
<path d="M56.9393 18.9782C56.3953 18.3372 54.4914 18.0625 52.2766 18.0625C48.8185 18.0625 47.1089 18.7264 46.0792 19.9397C45.0495 21.153 44.5444 25.7315 44.5444 26.2351C44.5444 26.7158 44.389 28.0207 45.1467 28.9135C45.9043 29.8063 47.7306 29.875 50.5476 29.875C53.3646 29.875 54.9188 29.3027 55.9679 28.4557C57.017 27.6315 57.6387 23.2591 57.7552 21.9084C57.8524 20.5349 57.4833 19.5963 56.9393 18.9782ZM54.1805 24.0832C53.8891 25.2965 53.7726 25.8001 53.4229 26.0977C53.0732 26.3953 51.2858 26.6014 50.8973 26.6014C50.5087 26.6014 48.6048 26.5556 48.2162 26.0977C47.8277 25.6399 48.4105 22.2289 48.9739 21.8626C49.5373 21.4964 50.703 21.3819 51.5384 21.4048C52.8206 21.4277 53.792 21.4735 54.064 21.794C54.336 22.1603 54.472 22.8699 54.1805 24.0832Z" fill="white" fill-opacity="0.48"/>
<path d="M70.0131 14.125L68.9605 20.3062C68.4629 18.9424 67.5251 18.5244 65.5156 18.5244C62.109 18.5244 61.5158 19.1624 60.5014 20.3282C59.4871 21.4941 58.9895 25.8935 58.9895 26.3774C58.9895 26.8394 58.8364 28.0932 59.5828 28.9511C60.3292 29.809 60.9225 29.875 63.621 29.875C66.2237 29.875 67.1615 28.8631 67.6208 28.1812L67.372 29.677H70.7786L73.4197 14.125H70.0131ZM67.5251 26.2675C67.1806 26.5534 65.4199 26.7514 65.018 26.7514C64.6161 26.7514 62.7597 26.7074 62.377 26.2675C61.9942 25.8275 62.5684 22.5499 63.1234 22.198C63.6784 21.846 64.8267 21.736 65.6496 21.758C66.9127 21.78 67.8696 21.824 68.1567 22.132C68.3289 22.33 68.4438 22.7039 68.4246 23.2538L68.195 24.5517C67.9653 25.5636 67.8505 26.0035 67.5251 26.2675Z" fill="url(#paint9_linear_3040_5699)"/>
<path d="M70.0131 14.125L68.9605 20.3062C68.4629 18.9424 67.5251 18.5244 65.5156 18.5244C62.109 18.5244 61.5158 19.1624 60.5014 20.3282C59.4871 21.4941 58.9895 25.8935 58.9895 26.3774C58.9895 26.8394 58.8364 28.0932 59.5828 28.9511C60.3292 29.809 60.9225 29.875 63.621 29.875C66.2237 29.875 67.1615 28.8631 67.6208 28.1812L67.372 29.677H70.7786L73.4197 14.125H70.0131ZM67.5251 26.2675C67.1806 26.5534 65.4199 26.7514 65.018 26.7514C64.6161 26.7514 62.7597 26.7074 62.377 26.2675C61.9942 25.8275 62.5684 22.5499 63.1234 22.198C63.6784 21.846 64.8267 21.736 65.6496 21.758C66.9127 21.78 67.8696 21.824 68.1567 22.132C68.3289 22.33 68.4438 22.7039 68.4246 23.2538L68.195 24.5517C67.9653 25.5636 67.8505 26.0035 67.5251 26.2675Z" fill="white" fill-opacity="0.48"/>
<path d="M85.8912 19.1694C85.4835 18.7509 84.4456 18.5086 82.481 18.5086C80.016 18.5086 78.9966 19.1033 78.2182 20.3589L79.2376 14.125H76.0127L73.418 29.6768H76.6985L76.9579 28.0907C77.3471 29.1701 77.9402 29.875 80.6647 29.875C83.3521 29.875 84.0749 29.7208 84.9275 28.6855C85.8356 27.6061 86.5399 23.5309 86.6326 22.2093C86.7252 20.9096 86.577 19.8523 85.8912 19.1694ZM83.315 24.3019C83.037 25.4694 82.9258 25.954 82.5922 26.2404C82.2586 26.5267 80.5535 26.725 80.1828 26.725C79.8121 26.725 77.9958 26.6809 77.6251 26.2404C77.2545 25.7998 77.8105 22.5177 78.348 22.1652C78.8854 21.8128 79.9975 21.7026 80.7944 21.7247C82.0176 21.7467 82.9443 21.7907 83.2038 22.0991C83.4818 22.4516 83.593 23.1344 83.315 24.3019Z" fill="url(#paint10_linear_3040_5699)"/>
<path d="M85.8912 19.1694C85.4835 18.7509 84.4456 18.5086 82.481 18.5086C80.016 18.5086 78.9966 19.1033 78.2182 20.3589L79.2376 14.125H76.0127L73.418 29.6768H76.6985L76.9579 28.0907C77.3471 29.1701 77.9402 29.875 80.6647 29.875C83.3521 29.875 84.0749 29.7208 84.9275 28.6855C85.8356 27.6061 86.5399 23.5309 86.6326 22.2093C86.7252 20.9096 86.577 19.8523 85.8912 19.1694ZM83.315 24.3019C83.037 25.4694 82.9258 25.954 82.5922 26.2404C82.2586 26.5267 80.5535 26.725 80.1828 26.725C79.8121 26.725 77.9958 26.6809 77.6251 26.2404C77.2545 25.7998 77.8105 22.5177 78.348 22.1652C78.8854 21.8128 79.9975 21.7026 80.7944 21.7247C82.0176 21.7467 82.9443 21.7907 83.2038 22.0991C83.4818 22.4516 83.593 23.1344 83.315 24.3019Z" fill="white" fill-opacity="0.48"/>
<path d="M97.9696 18.0625H97.8359C97.8359 18.0625 96.938 24.4195 96.1165 25.4135C95.295 26.4075 94.0914 26.4769 93.6711 26.4769C93.2699 26.4769 92.1045 26.2688 91.6842 25.7603C91.1684 25.113 92.2956 19.1259 92.5057 18.0625H89.2006C89.2006 18.0625 87.8633 25.3904 87.8633 26.5231C87.8633 27.4247 87.9397 29.089 90.003 29.667C90.4806 29.8057 91.0538 29.875 91.7606 29.875C92.3147 29.875 92.8305 29.8057 93.289 29.667C94.8938 29.2046 95.9063 28.095 96.4604 27.2628L96.0783 29.667H99.2305L101.103 18.0856H97.9696V18.0625Z" fill="url(#paint11_linear_3040_5699)"/>
<path d="M97.9696 18.0625H97.8359C97.8359 18.0625 96.938 24.4195 96.1165 25.4135C95.295 26.4075 94.0914 26.4769 93.6711 26.4769C93.2699 26.4769 92.1045 26.2688 91.6842 25.7603C91.1684 25.113 92.2956 19.1259 92.5057 18.0625H89.2006C89.2006 18.0625 87.8633 25.3904 87.8633 26.5231C87.8633 27.4247 87.9397 29.089 90.003 29.667C90.4806 29.8057 91.0538 29.875 91.7606 29.875C92.3147 29.875 92.8305 29.8057 93.289 29.667C94.8938 29.2046 95.9063 28.095 96.4604 27.2628L96.0783 29.667H99.2305L101.103 18.0856H97.9696V18.0625Z" fill="white" fill-opacity="0.48"/>
<path d="M111.303 21.749H114.284C114.284 21.749 114.339 20.8563 114.339 20.4901C114.339 20.1009 114.395 19.5974 113.765 18.8191C113.136 18.0408 109.729 18.0637 109.155 18.0637C108.581 18.0637 105.489 17.9951 104.619 18.8878C103.878 19.6202 103.267 20.5816 103.267 22.4586C103.267 24.3585 104.286 25.091 106.304 25.091H109.914C110.414 25.091 111.044 25.2741 111.044 25.8463C111.044 26.4186 110.692 27.1969 109.433 27.1969H107.044C106.471 27.1969 105.434 27.0824 105.434 26.2813V25.915H102.453C102.453 25.915 102.305 26.5559 102.305 27.1053C102.305 27.6547 102.379 28.3643 102.879 28.9823C103.379 29.6003 105.471 29.875 107.618 29.875C109.766 29.875 112.081 29.7606 112.858 28.7763C113.654 27.792 114.006 25.9608 114.006 24.9994C114.006 24.038 113.747 23.5802 113.488 23.2598C113.247 22.9622 112.506 22.4128 109.229 22.4128C106.304 22.4128 106.211 22.0695 106.211 21.7261C106.211 21.4515 106.248 20.7648 108.563 20.7648C110.877 20.7419 111.303 20.8792 111.303 21.749Z" fill="url(#paint12_linear_3040_5699)"/>
<path d="M111.303 21.749H114.284C114.284 21.749 114.339 20.8563 114.339 20.4901C114.339 20.1009 114.395 19.5974 113.765 18.8191C113.136 18.0408 109.729 18.0637 109.155 18.0637C108.581 18.0637 105.489 17.9951 104.619 18.8878C103.878 19.6202 103.267 20.5816 103.267 22.4586C103.267 24.3585 104.286 25.091 106.304 25.091H109.914C110.414 25.091 111.044 25.2741 111.044 25.8463C111.044 26.4186 110.692 27.1969 109.433 27.1969H107.044C106.471 27.1969 105.434 27.0824 105.434 26.2813V25.915H102.453C102.453 25.915 102.305 26.5559 102.305 27.1053C102.305 27.6547 102.379 28.3643 102.879 28.9823C103.379 29.6003 105.471 29.875 107.618 29.875C109.766 29.875 112.081 29.7606 112.858 28.7763C113.654 27.792 114.006 25.9608 114.006 24.9994C114.006 24.038 113.747 23.5802 113.488 23.2598C113.247 22.9622 112.506 22.4128 109.229 22.4128C106.304 22.4128 106.211 22.0695 106.211 21.7261C106.211 21.4515 106.248 20.7648 108.563 20.7648C110.877 20.7419 111.303 20.8792 111.303 21.749Z" fill="white" fill-opacity="0.48"/>
<path d="M131.078 28.5625V17.5H133.875V28.5625H131.078ZM126.945 24.4297V21.6328H138.008V24.4297H126.945ZM155.095 15V31H151.712V18.2109H151.618L147.954 20.5078V17.5078L151.915 15H155.095ZM165.305 21.6797V24.3203H158.008V21.6797H165.305ZM170.254 31L165.676 15H169.371L172.02 26.1172H172.152L175.074 15H178.238L181.152 26.1406H181.293L183.941 15H187.637L183.059 31H179.762L176.715 20.5391H176.59L173.551 31H170.254ZM188.285 31V19H191.613V31H188.285ZM189.957 17.4531C189.462 17.4531 189.037 17.2891 188.683 16.9609C188.334 16.6276 188.16 16.2292 188.16 15.7656C188.16 15.3073 188.334 14.9141 188.683 14.5859C189.037 14.2526 189.462 14.0859 189.957 14.0859C190.451 14.0859 190.873 14.2526 191.222 14.5859C191.576 14.9141 191.754 15.3073 191.754 15.7656C191.754 16.2292 191.576 16.6276 191.222 16.9609C190.873 17.2891 190.451 17.4531 189.957 17.4531ZM193.179 31V19H196.405V21.0937H196.53C196.749 20.349 197.116 19.7865 197.632 19.4063C198.148 19.0208 198.741 18.8281 199.413 18.8281C199.58 18.8281 199.76 18.8385 199.952 18.8594C200.145 18.8802 200.314 18.9089 200.46 18.9453V21.8984C200.304 21.8516 200.088 21.8099 199.812 21.7734C199.536 21.737 199.283 21.7188 199.054 21.7188C198.564 21.7188 198.127 21.8255 197.741 22.0391C197.361 22.2474 197.059 22.5391 196.835 22.9141C196.616 23.2891 196.507 23.7214 196.507 24.2109V31H193.179ZM205.991 31.2344C204.757 31.2344 203.694 30.9844 202.804 30.4844C201.918 29.9792 201.236 29.2656 200.757 28.3437C200.277 27.4167 200.038 26.3203 200.038 25.0547C200.038 23.8203 200.277 22.737 200.757 21.8047C201.236 20.8724 201.91 20.1458 202.78 19.625C203.655 19.1042 204.681 18.8438 205.858 18.8438C206.65 18.8438 207.387 18.9714 208.069 19.2266C208.757 19.4766 209.356 19.8542 209.866 20.3594C210.382 20.8646 210.783 21.5 211.069 22.2656C211.356 23.026 211.499 23.9167 211.499 24.9375V25.8516H201.366V23.7891H208.366C208.366 23.3099 208.262 22.8854 208.054 22.5156C207.845 22.1458 207.556 21.8568 207.186 21.6484C206.822 21.4349 206.397 21.3281 205.913 21.3281C205.408 21.3281 204.96 21.4453 204.569 21.6797C204.184 21.9089 203.882 22.2187 203.663 22.6094C203.444 22.9948 203.332 23.4245 203.327 23.8984V25.8594C203.327 26.4531 203.436 26.9661 203.655 27.3984C203.879 27.8307 204.194 28.1641 204.6 28.3984C205.007 28.6328 205.488 28.75 206.046 28.75C206.415 28.75 206.754 28.6979 207.061 28.5938C207.369 28.4896 207.632 28.3333 207.85 28.125C208.069 27.9167 208.236 27.6615 208.35 27.3594L211.429 27.5625C211.272 28.3021 210.952 28.9479 210.468 29.5C209.988 30.0469 209.369 30.474 208.608 30.7813C207.853 31.0833 206.981 31.2344 205.991 31.2344Z" fill="url(#paint13_linear_3040_5699)"/>
<path d="M131.078 28.5625V17.5H133.875V28.5625H131.078ZM126.945 24.4297V21.6328H138.008V24.4297H126.945ZM155.095 15V31H151.712V18.2109H151.618L147.954 20.5078V17.5078L151.915 15H155.095ZM165.305 21.6797V24.3203H158.008V21.6797H165.305ZM170.254 31L165.676 15H169.371L172.02 26.1172H172.152L175.074 15H178.238L181.152 26.1406H181.293L183.941 15H187.637L183.059 31H179.762L176.715 20.5391H176.59L173.551 31H170.254ZM188.285 31V19H191.613V31H188.285ZM189.957 17.4531C189.462 17.4531 189.037 17.2891 188.683 16.9609C188.334 16.6276 188.16 16.2292 188.16 15.7656C188.16 15.3073 188.334 14.9141 188.683 14.5859C189.037 14.2526 189.462 14.0859 189.957 14.0859C190.451 14.0859 190.873 14.2526 191.222 14.5859C191.576 14.9141 191.754 15.3073 191.754 15.7656C191.754 16.2292 191.576 16.6276 191.222 16.9609C190.873 17.2891 190.451 17.4531 189.957 17.4531ZM193.179 31V19H196.405V21.0937H196.53C196.749 20.349 197.116 19.7865 197.632 19.4063C198.148 19.0208 198.741 18.8281 199.413 18.8281C199.58 18.8281 199.76 18.8385 199.952 18.8594C200.145 18.8802 200.314 18.9089 200.46 18.9453V21.8984C200.304 21.8516 200.088 21.8099 199.812 21.7734C199.536 21.737 199.283 21.7188 199.054 21.7188C198.564 21.7188 198.127 21.8255 197.741 22.0391C197.361 22.2474 197.059 22.5391 196.835 22.9141C196.616 23.2891 196.507 23.7214 196.507 24.2109V31H193.179ZM205.991 31.2344C204.757 31.2344 203.694 30.9844 202.804 30.4844C201.918 29.9792 201.236 29.2656 200.757 28.3437C200.277 27.4167 200.038 26.3203 200.038 25.0547C200.038 23.8203 200.277 22.737 200.757 21.8047C201.236 20.8724 201.91 20.1458 202.78 19.625C203.655 19.1042 204.681 18.8438 205.858 18.8438C206.65 18.8438 207.387 18.9714 208.069 19.2266C208.757 19.4766 209.356 19.8542 209.866 20.3594C210.382 20.8646 210.783 21.5 211.069 22.2656C211.356 23.026 211.499 23.9167 211.499 24.9375V25.8516H201.366V23.7891H208.366C208.366 23.3099 208.262 22.8854 208.054 22.5156C207.845 22.1458 207.556 21.8568 207.186 21.6484C206.822 21.4349 206.397 21.3281 205.913 21.3281C205.408 21.3281 204.96 21.4453 204.569 21.6797C204.184 21.9089 203.882 22.2187 203.663 22.6094C203.444 22.9948 203.332 23.4245 203.327 23.8984V25.8594C203.327 26.4531 203.436 26.9661 203.655 27.3984C203.879 27.8307 204.194 28.1641 204.6 28.3984C205.007 28.6328 205.488 28.75 206.046 28.75C206.415 28.75 206.754 28.6979 207.061 28.5938C207.369 28.4896 207.632 28.3333 207.85 28.125C208.069 27.9167 208.236 27.6615 208.35 27.3594L211.429 27.5625C211.272 28.3021 210.952 28.9479 210.468 29.5C209.988 30.0469 209.369 30.474 208.608 30.7813C207.853 31.0833 206.981 31.2344 205.991 31.2344Z" fill="white" fill-opacity="0.47"/>
<defs>
<linearGradient id="paint0_linear_3040_5699" x1="6.20557" y1="22" x2="32.4986" y2="22" gradientUnits="userSpaceOnUse">
<stop stop-color="#3793AE"/>
<stop offset="1" stop-color="#074287"/>
</linearGradient>
<linearGradient id="paint1_linear_3040_5699" x1="10.8997" y1="6.25" x2="20.4608" y2="6.25" gradientUnits="userSpaceOnUse">
<stop stop-color="#3793AE"/>
<stop offset="1" stop-color="#074287"/>
</linearGradient>
<linearGradient id="paint2_linear_3040_5699" x1="24.138" y1="10.8437" x2="33.6991" y2="10.8437" gradientUnits="userSpaceOnUse">
<stop stop-color="#3793AE"/>
<stop offset="1" stop-color="#074287"/>
</linearGradient>
<linearGradient id="paint3_linear_3040_5699" x1="28.9544" y1="25.9375" x2="38.5155" y2="25.9375" gradientUnits="userSpaceOnUse">
<stop stop-color="#3793AE"/>
<stop offset="1" stop-color="#074287"/>
</linearGradient>
<linearGradient id="paint4_linear_3040_5699" x1="18.1308" y1="37.0937" x2="28.887" y2="37.0937" gradientUnits="userSpaceOnUse">
<stop stop-color="#3793AE"/>
<stop offset="1" stop-color="#074287"/>
</linearGradient>
<linearGradient id="paint5_linear_3040_5699" x1="4.88015" y1="33.1562" x2="14.4412" y2="33.1562" gradientUnits="userSpaceOnUse">
<stop stop-color="#3793AE"/>
<stop offset="1" stop-color="#074287"/>
</linearGradient>
<linearGradient id="paint6_linear_3040_5699" x1="0.0676492" y1="17.4062" x2="9.62874" y2="17.4062" gradientUnits="userSpaceOnUse">
<stop stop-color="#3793AE"/>
<stop offset="1" stop-color="#074287"/>
</linearGradient>
<linearGradient id="paint7_linear_3040_5699" x1="20.6301" y1="22" x2="44.5328" y2="22" gradientUnits="userSpaceOnUse">
<stop stop-color="#3793AE"/>
<stop offset="1" stop-color="#074287"/>
</linearGradient>
<linearGradient id="paint8_linear_3040_5699" x1="44.6243" y1="23.9687" x2="57.7708" y2="23.9687" gradientUnits="userSpaceOnUse">
<stop stop-color="#3793AE"/>
<stop offset="1" stop-color="#074287"/>
</linearGradient>
<linearGradient id="paint9_linear_3040_5699" x1="59.078" y1="22" x2="73.4197" y2="22" gradientUnits="userSpaceOnUse">
<stop stop-color="#3793AE"/>
<stop offset="1" stop-color="#074287"/>
</linearGradient>
<linearGradient id="paint10_linear_3040_5699" x1="73.511" y1="22" x2="86.6575" y2="22" gradientUnits="userSpaceOnUse">
<stop stop-color="#3793AE"/>
<stop offset="1" stop-color="#074287"/>
</linearGradient>
<linearGradient id="paint11_linear_3040_5699" x1="87.9563" y1="23.9687" x2="101.103" y2="23.9687" gradientUnits="userSpaceOnUse">
<stop stop-color="#3793AE"/>
<stop offset="1" stop-color="#074287"/>
</linearGradient>
<linearGradient id="paint12_linear_3040_5699" x1="102.389" y1="23.9687" x2="114.341" y2="23.9687" gradientUnits="userSpaceOnUse">
<stop stop-color="#3793AE"/>
<stop offset="1" stop-color="#074287"/>
</linearGradient>
<linearGradient id="paint13_linear_3040_5699" x1="125.731" y1="32" x2="229" y2="32" gradientUnits="userSpaceOnUse">
<stop stop-color="#3793AE"/>
<stop offset="1" stop-color="#074287"/>
</linearGradient>
</defs>
</svg>
