<svg width="61" height="20" viewBox="0 0 61 20" fill="none" xmlns="http://www.w3.org/2000/svg">
<path d="M0 13.3778V4.30664H2.23026V11.4719H5.71801V13.3778H0Z" fill="url(#paint0_linear_3025_5217)"/>
<path d="M0 13.3778V4.30664H2.23026V11.4719H5.71801V13.3778H0Z" fill="white" fill-opacity="0.55"/>
<path d="M17.0584 5.98336V8.43209H19.0988C19.8937 8.43209 20.297 8.02196 20.297 7.21376C20.297 6.39349 19.9055 5.99542 19.0988 5.99542H17.0584V5.98336ZM14.8281 13.3778V4.30664H19.2886C21.4477 4.30664 22.5273 5.29578 22.5273 7.28613C22.5273 7.87721 22.3612 8.38384 22.029 8.8181C21.6969 9.25236 21.2461 9.56599 20.6885 9.73487L22.7289 13.3778H20.2377L18.482 10.1088H17.0584V13.3778H14.8281Z" fill="url(#paint1_linear_3025_5217)"/>
<path d="M17.0584 5.98336V8.43209H19.0988C19.8937 8.43209 20.297 8.02196 20.297 7.21376C20.297 6.39349 19.9055 5.99542 19.0988 5.99542H17.0584V5.98336ZM14.8281 13.3778V4.30664H19.2886C21.4477 4.30664 22.5273 5.29578 22.5273 7.28613C22.5273 7.87721 22.3612 8.38384 22.029 8.8181C21.6969 9.25236 21.2461 9.56599 20.6885 9.73487L22.7289 13.3778H20.2377L18.482 10.1088H17.0584V13.3778H14.8281Z" fill="white" fill-opacity="0.55"/>
<path d="M27.5698 10.5551V10.0847L26.253 10.4707C25.6242 10.6516 25.3158 10.9411 25.3158 11.3513C25.3158 11.8579 25.6242 12.1112 26.2292 12.1112C26.6326 12.1112 26.9529 11.9785 27.202 11.7132C27.4393 11.4357 27.5698 11.0497 27.5698 10.5551ZM29.4441 8.38385V11.9665C29.4441 12.6058 29.5034 13.0762 29.6221 13.3778H27.8189C27.7477 13.1607 27.7121 12.9315 27.7003 12.6782H27.6765C27.5223 12.9315 27.2257 13.1486 26.8105 13.3175C26.4309 13.4743 26.0513 13.5588 25.6717 13.5588C25.0073 13.5588 24.4854 13.3899 24.082 13.0401C23.6549 12.6782 23.4414 12.1715 23.4414 11.5443C23.4414 10.7723 23.7498 10.1812 24.3549 9.78312C24.8768 9.44537 25.7073 9.19205 26.858 9.03524L27.5698 8.93873V8.37179C27.5698 7.88928 27.2613 7.64802 26.6444 7.64802C26.3241 7.64802 26.0869 7.7204 25.9327 7.85309C25.7784 7.98578 25.6717 8.22703 25.6242 8.55273H23.7261C23.7617 7.12933 24.687 6.42969 26.4784 6.42969C27.4511 6.42969 28.1748 6.56238 28.6493 6.83982C29.1831 7.14139 29.4441 7.66009 29.4441 8.38385Z" fill="url(#paint2_linear_3025_5217)"/>
<path d="M27.5698 10.5551V10.0847L26.253 10.4707C25.6242 10.6516 25.3158 10.9411 25.3158 11.3513C25.3158 11.8579 25.6242 12.1112 26.2292 12.1112C26.6326 12.1112 26.9529 11.9785 27.202 11.7132C27.4393 11.4357 27.5698 11.0497 27.5698 10.5551ZM29.4441 8.38385V11.9665C29.4441 12.6058 29.5034 13.0762 29.6221 13.3778H27.8189C27.7477 13.1607 27.7121 12.9315 27.7003 12.6782H27.6765C27.5223 12.9315 27.2257 13.1486 26.8105 13.3175C26.4309 13.4743 26.0513 13.5588 25.6717 13.5588C25.0073 13.5588 24.4854 13.3899 24.082 13.0401C23.6549 12.6782 23.4414 12.1715 23.4414 11.5443C23.4414 10.7723 23.7498 10.1812 24.3549 9.78312C24.8768 9.44537 25.7073 9.19205 26.858 9.03524L27.5698 8.93873V8.37179C27.5698 7.88928 27.2613 7.64802 26.6444 7.64802C26.3241 7.64802 26.0869 7.7204 25.9327 7.85309C25.7784 7.98578 25.6717 8.22703 25.6242 8.55273H23.7261C23.7617 7.12933 24.687 6.42969 26.4784 6.42969C27.4511 6.42969 28.1748 6.56238 28.6493 6.83982C29.1831 7.14139 29.4441 7.66009 29.4441 8.38385Z" fill="white" fill-opacity="0.55"/>
<path d="M9.96503 7.9369C9.43119 7.9369 9.02785 8.1299 8.755 8.52797C8.50587 8.88985 8.37538 9.37236 8.37538 9.98756C8.37538 10.6028 8.50587 11.0853 8.755 11.4471C9.02785 11.8452 9.43119 12.0382 9.96503 12.0382C11.0327 12.0382 11.5547 11.3265 11.5547 9.90312C11.5547 9.32411 11.4242 8.85366 11.1751 8.50384C10.9022 8.1299 10.4989 7.9369 9.96503 7.9369ZM9.96503 6.41699C11.0327 6.41699 11.8869 6.73062 12.5393 7.35788C13.1918 7.98515 13.5121 8.86573 13.5121 9.98756C13.5121 11.1094 13.1918 11.99 12.5393 12.6172C11.8869 13.2445 11.0327 13.5581 9.96503 13.5581C8.89735 13.5581 8.04321 13.2445 7.39074 12.6172C6.73827 11.99 6.41797 11.1094 6.41797 9.98756C6.41797 8.86573 6.73827 7.98515 7.39074 7.35788C8.05507 6.73062 8.90922 6.41699 9.96503 6.41699Z" fill="url(#paint3_linear_3025_5217)"/>
<path d="M9.96503 7.9369C9.43119 7.9369 9.02785 8.1299 8.755 8.52797C8.50587 8.88985 8.37538 9.37236 8.37538 9.98756C8.37538 10.6028 8.50587 11.0853 8.755 11.4471C9.02785 11.8452 9.43119 12.0382 9.96503 12.0382C11.0327 12.0382 11.5547 11.3265 11.5547 9.90312C11.5547 9.32411 11.4242 8.85366 11.1751 8.50384C10.9022 8.1299 10.4989 7.9369 9.96503 7.9369ZM9.96503 6.41699C11.0327 6.41699 11.8869 6.73062 12.5393 7.35788C13.1918 7.98515 13.5121 8.86573 13.5121 9.98756C13.5121 11.1094 13.1918 11.99 12.5393 12.6172C11.8869 13.2445 11.0327 13.5581 9.96503 13.5581C8.89735 13.5581 8.04321 13.2445 7.39074 12.6172C6.73827 11.99 6.41797 11.1094 6.41797 9.98756C6.41797 8.86573 6.73827 7.98515 7.39074 7.35788C8.05507 6.73062 8.90922 6.41699 9.96503 6.41699Z" fill="white" fill-opacity="0.55"/>
<path d="M9.9066 5.06614C10.8794 5.06614 11.7928 5.35564 12.5521 5.86228L12.9317 5.30739C12.0538 4.72838 11.0217 4.39062 9.9066 4.39062C8.83892 4.39062 7.84242 4.70426 6.98828 5.23502L7.3679 5.7899C8.11527 5.31945 8.98128 5.06614 9.9066 5.06614Z" fill="url(#paint4_linear_3025_5217)"/>
<path d="M9.9066 5.06614C10.8794 5.06614 11.7928 5.35564 12.5521 5.86228L12.9317 5.30739C12.0538 4.72838 11.0217 4.39062 9.9066 4.39062C8.83892 4.39062 7.84242 4.70426 6.98828 5.23502L7.3679 5.7899C8.11527 5.31945 8.98128 5.06614 9.9066 5.06614Z" fill="white" fill-opacity="0.38"/>
<path d="M5.80078 3.49798L6.31089 4.2338C7.35485 3.55829 8.58861 3.17228 9.90541 3.17228C11.2815 3.17228 12.5509 3.59448 13.6186 4.30618L14.1287 3.57035C12.9186 2.75009 11.4595 2.26758 9.90541 2.26758C8.3988 2.26758 6.98709 2.72596 5.80078 3.49798Z" fill="url(#paint5_linear_3025_5217)"/>
<path d="M5.80078 3.49798L6.31089 4.2338C7.35485 3.55829 8.58861 3.17228 9.90541 3.17228C11.2815 3.17228 12.5509 3.59448 13.6186 4.30618L14.1287 3.57035C12.9186 2.75009 11.4595 2.26758 9.90541 2.26758C8.3988 2.26758 6.98709 2.72596 5.80078 3.49798Z" fill="white" fill-opacity="0.38"/>
<path d="M9.90465 1.24229C11.6841 1.24229 13.3331 1.78512 14.7211 2.72601L15.3617 1.79718C13.8076 0.723598 11.9214 0.108398 9.90465 0.108398C7.94724 0.108398 6.10846 0.699472 4.57812 1.71274L5.21873 2.64157C6.57112 1.76099 8.17264 1.24229 9.90465 1.24229Z" fill="url(#paint6_linear_3025_5217)"/>
<path d="M9.90465 1.24229C11.6841 1.24229 13.3331 1.78512 14.7211 2.72601L15.3617 1.79718C13.8076 0.723598 11.9214 0.108398 9.90465 0.108398C7.94724 0.108398 6.10846 0.699472 4.57812 1.71274L5.21873 2.64157C6.57112 1.76099 8.17264 1.24229 9.90465 1.24229Z" fill="white" fill-opacity="0.38"/>
<path d="M10.0368 14.9338C9.06403 14.9338 8.15058 14.6443 7.39134 14.1377L7.01172 14.6926C7.88959 15.2716 8.92168 15.6093 10.0487 15.6093C11.1163 15.6093 12.1128 15.2957 12.967 14.765L12.5874 14.2101C11.8281 14.6805 10.9621 14.9338 10.0368 14.9338Z" fill="url(#paint7_linear_3025_5217)"/>
<path d="M10.0368 14.9338C9.06403 14.9338 8.15058 14.6443 7.39134 14.1377L7.01172 14.6926C7.88959 15.2716 8.92168 15.6093 10.0487 15.6093C11.1163 15.6093 12.1128 15.2957 12.967 14.765L12.5874 14.2101C11.8281 14.6805 10.9621 14.9338 10.0368 14.9338Z" fill="white" fill-opacity="0.38"/>
<path d="M14.1404 16.5016L13.6303 15.7657C12.5863 16.4412 11.3526 16.8273 10.0358 16.8273C8.65964 16.8273 7.39029 16.4051 6.32261 15.6934L5.8125 16.4292C7.02253 17.2494 8.46983 17.732 10.0358 17.732C11.5424 17.732 12.9541 17.2736 14.1404 16.5016Z" fill="url(#paint8_linear_3025_5217)"/>
<path d="M14.1404 16.5016L13.6303 15.7657C12.5863 16.4412 11.3526 16.8273 10.0358 16.8273C8.65964 16.8273 7.39029 16.4051 6.32261 15.6934L5.8125 16.4292C7.02253 17.2494 8.46983 17.732 10.0358 17.732C11.5424 17.732 12.9541 17.2736 14.1404 16.5016Z" fill="white" fill-opacity="0.38"/>
<path d="M10.0351 18.7572C8.25568 18.7572 6.60671 18.2143 5.21873 17.2734L4.57812 18.2023C6.13219 19.2638 8.01842 19.891 10.0351 19.891C11.9926 19.891 13.8313 19.3 15.3617 18.2867L14.7211 17.3579C13.3687 18.2385 11.7553 18.7572 10.0351 18.7572Z" fill="url(#paint9_linear_3025_5217)"/>
<path d="M10.0351 18.7572C8.25568 18.7572 6.60671 18.2143 5.21873 17.2734L4.57812 18.2023C6.13219 19.2638 8.01842 19.891 10.0351 19.891C11.9926 19.891 13.8313 19.3 15.3617 18.2867L14.7211 17.3579C13.3687 18.2385 11.7553 18.7572 10.0351 18.7572Z" fill="white" fill-opacity="0.38"/>
<path fill-rule="evenodd" clip-rule="evenodd" d="M30.8086 4.25781H32.9795V9.36035L36.4436 4.25781C36.4436 4.25781 37.5943 4.25781 38.1756 4.25781C38.1756 5.94659 38.1756 9.36035 38.1756 9.36035L41.6396 4.25781H44.2376L38.1756 13.3169H36.0046V8.91402L32.9795 13.3169H30.8205V4.25781H30.8086Z" fill="url(#paint10_linear_3025_5217)"/>
<path fill-rule="evenodd" clip-rule="evenodd" d="M30.8086 4.25781H32.9795V9.36035L36.4436 4.25781C36.4436 4.25781 37.5943 4.25781 38.1756 4.25781C38.1756 5.94659 38.1756 9.36035 38.1756 9.36035L41.6396 4.25781H44.2376L38.1756 13.3169H36.0046V8.91402L32.9795 13.3169H30.8205V4.25781H30.8086Z" fill="white" fill-opacity="0.39"/>
<path fill-rule="evenodd" clip-rule="evenodd" d="M57.3929 4.25781V13.3169H55.0796L51.9596 8.56421V13.3169H49.8242V4.25781H52.0426L55.2338 9.23972V4.25781H57.3929Z" fill="url(#paint11_linear_3025_5217)"/>
<path fill-rule="evenodd" clip-rule="evenodd" d="M57.3929 4.25781V13.3169H55.0796L51.9596 8.56421V13.3169H49.8242V4.25781H52.0426L55.2338 9.23972V4.25781H57.3929Z" fill="white" fill-opacity="0.39"/>
<path fill-rule="evenodd" clip-rule="evenodd" d="M48.2469 4.25781V13.3169H46.1352V12.0141H43.2051L42.3153 13.329H39.8359L46.0522 4.26988H48.2469V4.25781ZM44.4625 10.1444H46.1352V7.64744L44.4625 10.1444Z" fill="url(#paint12_linear_3025_5217)"/>
<path fill-rule="evenodd" clip-rule="evenodd" d="M48.2469 4.25781V13.3169H46.1352V12.0141H43.2051L42.3153 13.329H39.8359L46.0522 4.26988H48.2469V4.25781ZM44.4625 10.1444H46.1352V7.64744L44.4625 10.1444Z" fill="white" fill-opacity="0.39"/>
<defs>
<linearGradient id="paint0_linear_3025_5217" x1="0.0401734" y1="8.84222" x2="5.71801" y2="8.84222" gradientUnits="userSpaceOnUse">
<stop stop-color="#3793AE"/>
<stop offset="1" stop-color="#074287"/>
</linearGradient>
<linearGradient id="paint1_linear_3025_5217" x1="14.8836" y1="8.84222" x2="22.7289" y2="8.84222" gradientUnits="userSpaceOnUse">
<stop stop-color="#3793AE"/>
<stop offset="1" stop-color="#074287"/>
</linearGradient>
<linearGradient id="paint2_linear_3025_5217" x1="23.4848" y1="9.99422" x2="29.6221" y2="9.99422" gradientUnits="userSpaceOnUse">
<stop stop-color="#3793AE"/>
<stop offset="1" stop-color="#074287"/>
</linearGradient>
<linearGradient id="paint3_linear_3025_5217" x1="6.46781" y1="9.98756" x2="13.5121" y2="9.98756" gradientUnits="userSpaceOnUse">
<stop stop-color="#3793AE"/>
<stop offset="1" stop-color="#074287"/>
</linearGradient>
<linearGradient id="paint4_linear_3025_5217" x1="7.03004" y1="5.12645" x2="12.9317" y2="5.12645" gradientUnits="userSpaceOnUse">
<stop stop-color="#3793AE"/>
<stop offset="1" stop-color="#074287"/>
</linearGradient>
<linearGradient id="paint5_linear_3025_5217" x1="5.85929" y1="3.28688" x2="14.1287" y2="3.28688" gradientUnits="userSpaceOnUse">
<stop stop-color="#3793AE"/>
<stop offset="1" stop-color="#074287"/>
</linearGradient>
<linearGradient id="paint6_linear_3025_5217" x1="4.65389" y1="1.4172" x2="15.3617" y2="1.4172" gradientUnits="userSpaceOnUse">
<stop stop-color="#3793AE"/>
<stop offset="1" stop-color="#074287"/>
</linearGradient>
<linearGradient id="paint7_linear_3025_5217" x1="7.05356" y1="14.8735" x2="12.967" y2="14.8735" gradientUnits="userSpaceOnUse">
<stop stop-color="#3793AE"/>
<stop offset="1" stop-color="#074287"/>
</linearGradient>
<linearGradient id="paint8_linear_3025_5217" x1="5.87101" y1="16.7127" x2="14.1404" y2="16.7127" gradientUnits="userSpaceOnUse">
<stop stop-color="#3793AE"/>
<stop offset="1" stop-color="#074287"/>
</linearGradient>
<linearGradient id="paint9_linear_3025_5217" x1="4.65389" y1="18.5822" x2="15.3617" y2="18.5822" gradientUnits="userSpaceOnUse">
<stop stop-color="#3793AE"/>
<stop offset="1" stop-color="#074287"/>
</linearGradient>
<linearGradient id="paint10_linear_3025_5217" x1="30.9029" y1="8.78737" x2="44.2376" y2="8.78737" gradientUnits="userSpaceOnUse">
<stop stop-color="#3793AE"/>
<stop offset="1" stop-color="#074287"/>
</linearGradient>
<linearGradient id="paint11_linear_3025_5217" x1="49.8774" y1="8.78737" x2="57.3929" y2="8.78737" gradientUnits="userSpaceOnUse">
<stop stop-color="#3793AE"/>
<stop offset="1" stop-color="#074287"/>
</linearGradient>
<linearGradient id="paint12_linear_3025_5217" x1="39.895" y1="8.7934" x2="48.2469" y2="8.7934" gradientUnits="userSpaceOnUse">
<stop stop-color="#3793AE"/>
<stop offset="1" stop-color="#074287"/>
</linearGradient>
</defs>
</svg>
