<svg width="39" height="47" viewBox="0 0 39 47" fill="none" xmlns="http://www.w3.org/2000/svg">
<path d="M31.6376 43H8.19394C6.25443 43 5 41.5847 5 39.7776V7.58692C5 5.67588 6.35221 4 8.19394 4H23.7775C24.0424 4 24.2961 4.11325 24.4718 4.31252L34.9578 15.9948C35.1088 16.1649 35.3242 16.384 35.3242 16.6111V39.7776C35.3242 41.615 33.5883 43 31.6376 43ZM8.19394 5.85658C7.37086 5.85658 6.85658 6.69761 6.85658 7.58692V39.7776C6.85658 40.6737 7.39809 41.1428 8.19394 41.1428H31.6376C32.4162 41.1428 33.4676 40.6737 33.4676 39.7776V16.9633L23.3597 5.85658H8.19394Z" fill="url(#paint0_linear_3040_5700)"/>
<path d="M31.6376 43H8.19394C6.25443 43 5 41.5847 5 39.7776V7.58692C5 5.67588 6.35221 4 8.19394 4H23.7775C24.0424 4 24.2961 4.11325 24.4718 4.31252L34.9578 15.9948C35.1088 16.1649 35.3242 16.384 35.3242 16.6111V39.7776C35.3242 41.615 33.5883 43 31.6376 43ZM8.19394 5.85658C7.37086 5.85658 6.85658 6.69761 6.85658 7.58692V39.7776C6.85658 40.6737 7.39809 41.1428 8.19394 41.1428H31.6376C32.4162 41.1428 33.4676 40.6737 33.4676 39.7776V16.9633L23.3597 5.85658H8.19394Z" fill="white" fill-opacity="0.48"/>
<path d="M21.4009 21.0235C20.8885 21.0235 20.4727 20.6076 20.4727 20.0946V9.57087C20.4727 9.05845 20.8885 8.64258 21.4009 8.64258C21.9134 8.64258 22.3292 9.05845 22.3292 9.57087V20.0946C22.3292 20.6076 21.9134 21.0235 21.4009 21.0235Z" fill="url(#paint1_linear_3040_5700)"/>
<path d="M21.4009 21.0235C20.8885 21.0235 20.4727 20.6076 20.4727 20.0946V9.57087C20.4727 9.05845 20.8885 8.64258 21.4009 8.64258C21.9134 8.64258 22.3292 9.05845 22.3292 9.57087V20.0946C22.3292 20.6076 21.9134 21.0235 21.4009 21.0235Z" fill="white" fill-opacity="0.48"/>
<path d="M16.4478 21.0235C15.9354 21.0235 15.5195 20.6076 15.5195 20.0946V9.57087C15.5195 9.05845 15.9354 8.64258 16.4478 8.64258C16.9602 8.64258 17.3761 9.05845 17.3761 9.57087V20.0946C17.3761 20.6076 16.9602 21.0235 16.4478 21.0235Z" fill="url(#paint2_linear_3040_5700)"/>
<path d="M16.4478 21.0235C15.9354 21.0235 15.5195 20.6076 15.5195 20.0946V9.57087C15.5195 9.05845 15.9354 8.64258 16.4478 8.64258C16.9602 8.64258 17.3761 9.05845 17.3761 9.57087V20.0946C17.3761 20.6076 16.9602 21.0235 16.4478 21.0235Z" fill="white" fill-opacity="0.48"/>
<path d="M11.4986 21.0235C10.9862 21.0235 10.5703 20.6076 10.5703 20.0946V9.57087C10.5703 9.05845 10.9862 8.64258 11.4986 8.64258C12.011 8.64258 12.4269 9.05845 12.4269 9.57087V20.0946C12.4269 20.6076 12.011 21.0235 11.4986 21.0235Z" fill="url(#paint3_linear_3040_5700)"/>
<path d="M11.4986 21.0235C10.9862 21.0235 10.5703 20.6076 10.5703 20.0946V9.57087C10.5703 9.05845 10.9862 8.64258 11.4986 8.64258C12.011 8.64258 12.4269 9.05845 12.4269 9.57087V20.0946C12.4269 20.6076 12.011 21.0235 11.4986 21.0235Z" fill="white" fill-opacity="0.48"/>
<defs>
<linearGradient id="paint0_linear_3040_5700" x1="5.21305" y1="23.5" x2="35.3242" y2="23.5" gradientUnits="userSpaceOnUse">
<stop stop-color="#3793AE"/>
<stop offset="1" stop-color="#074287"/>
</linearGradient>
<linearGradient id="paint1_linear_3040_5700" x1="20.4857" y1="14.833" x2="22.3292" y2="14.833" gradientUnits="userSpaceOnUse">
<stop stop-color="#3793AE"/>
<stop offset="1" stop-color="#074287"/>
</linearGradient>
<linearGradient id="paint2_linear_3040_5700" x1="15.5326" y1="14.833" x2="17.3761" y2="14.833" gradientUnits="userSpaceOnUse">
<stop stop-color="#3793AE"/>
<stop offset="1" stop-color="#074287"/>
</linearGradient>
<linearGradient id="paint3_linear_3040_5700" x1="10.5834" y1="14.833" x2="12.4269" y2="14.833" gradientUnits="userSpaceOnUse">
<stop stop-color="#3793AE"/>
<stop offset="1" stop-color="#074287"/>
</linearGradient>
</defs>
</svg>
