<svg width="58" height="47" viewBox="0 0 58 47" fill="none" xmlns="http://www.w3.org/2000/svg">
<path d="M17.75 40.4167H5.45833C4.80634 40.4167 4.18106 40.1577 3.72003 39.6966C3.259 39.2356 3 38.6103 3 37.9583V8.45833C3 7.80634 3.259 7.18106 3.72003 6.72003C4.18106 6.259 4.80634 6 5.45833 6H21.7448L18.8759 10.9167H7.91667V35.5H17.75V40.4167ZM28.5052 40.4167L31.3741 35.5H42.3333V10.9167H32.5V6H44.7917C45.4437 6 46.0689 6.259 46.53 6.72003C46.991 7.18106 47.25 7.80634 47.25 8.45833V37.9583C47.25 38.6103 46.991 39.2356 46.53 39.6966C46.0689 40.1577 45.4437 40.4167 44.7917 40.4167H28.5052ZM49.7083 15.8333H54.625V30.5833H49.7083V15.8333ZM27.5833 20.75H34.9583L22.6667 40.4167V25.6667H15.2917L27.5833 6V20.75Z" fill="url(#paint0_linear_3043_5703)"/>
<path d="M17.75 40.4167H5.45833C4.80634 40.4167 4.18106 40.1577 3.72003 39.6966C3.259 39.2356 3 38.6103 3 37.9583V8.45833C3 7.80634 3.259 7.18106 3.72003 6.72003C4.18106 6.259 4.80634 6 5.45833 6H21.7448L18.8759 10.9167H7.91667V35.5H17.75V40.4167ZM28.5052 40.4167L31.3741 35.5H42.3333V10.9167H32.5V6H44.7917C45.4437 6 46.0689 6.259 46.53 6.72003C46.991 7.18106 47.25 7.80634 47.25 8.45833V37.9583C47.25 38.6103 46.991 39.2356 46.53 39.6966C46.0689 40.1577 45.4437 40.4167 44.7917 40.4167H28.5052ZM49.7083 15.8333H54.625V30.5833H49.7083V15.8333ZM27.5833 20.75H34.9583L22.6667 40.4167V25.6667H15.2917L27.5833 6V20.75Z" fill="white" fill-opacity="0.48"/>
<defs>
<linearGradient id="paint0_linear_3043_5703" x1="3.3627" y1="23.2083" x2="54.625" y2="23.2083" gradientUnits="userSpaceOnUse">
<stop stop-color="#3793AE"/>
<stop offset="1" stop-color="#074287"/>
</linearGradient>
</defs>
</svg>
