<svg width="58" height="24" viewBox="0 0 58 24" fill="none" xmlns="http://www.w3.org/2000/svg">
<g clip-path="url(#clip0_1376_2209)">
<path d="M11.9617 0.75C7.08672 0.75 2.92422 3.9 1.38672 8.25H22.6117C21.0367 3.9 16.8742 0.75 11.9617 0.75Z" fill="#F9F9F9"/>
<path d="M11.9617 23.25C16.8742 23.25 21.0367 20.1 22.5742 15.75H1.38672C2.92422 20.1375 7.08672 23.25 11.9617 23.25Z" fill="#ED4C5C"/>
<path d="M1.3875 8.25C0.975 9.4125 0.75 10.6875 0.75 12C0.75 13.3125 0.975 14.5875 1.3875 15.75H22.6125C23.025 14.5875 23.25 13.3125 23.25 12C23.25 10.6875 23.025 9.4125 22.6125 8.25H1.3875Z" fill="#428BC1"/>
</g>
<g clip-path="url(#clip1_1376_2209)">
<path d="M18.2016 9.975V10.35H18.4266V10.725H18.6516V10.35H18.8766V9.975H19.1016V9.6H19.3266V9.225H19.5516V8.85H19.7766V8.475H19.4766V8.1H19.2891V7.725H18.6141V8.1H19.0641V8.475H18.8391V8.85H18.6141V9.225H18.3891V8.85H18.2016C18.1266 9.15 18.0516 9.4875 17.9766 9.7875V9.9375H18.2016V9.975ZM20.7891 4.3125L20.6766 4.425H20.7891V4.3125Z" fill="white" fill-opacity="0.37"/>
<path d="M22.55 2.9626H22.325V3.3376H22.1V3.7126H21.875V4.0876H21.65V4.4626H21.425V4.0876H21.2V3.9001L20.975 4.1251V4.4626H21.2V4.8376H21.425V5.2126H21.2V5.5876H20.975V5.9626H20.75V5.5876H20.5625V5.2126H20.375V4.8376C20.3 4.9126 20.225 5.0251 20.15 5.1001V5.2126H20.075C20 5.2501 19.9625 5.2876 19.925 5.3626V5.5501H19.775C19.7375 5.5876 19.7375 5.6251 19.7 5.6626V5.8876H19.55C19.475 6.0001 19.4 6.1501 19.325 6.2626H19.5125V6.6376H19.7375V7.0126H19.9625V7.3876H20.1875V7.7626H20.375V7.3876H20.6V7.0126H20.825V6.6376H21.05V6.2626H21.275V5.8876H21.5V5.5126H21.725V5.8876H21.875V6.2626H22.1V6.6376H22.325V7.0126H22.55V7.3876H22.775V6.6376H22.55V6.2626H22.775V5.1751H22.55V5.5501H22.325V5.9251H22.1V5.5501H21.875V5.1751H21.65V4.8001H21.875V4.4251H22.1V4.0501H22.325V4.4251H22.55V4.8001H22.775V3.6751H22.55V3.3001H22.775V2.6626C22.7 2.7001 22.625 2.7751 22.55 2.8126V2.9626ZM20.375 6.6376H20.15V5.8876H20.375V6.6376ZM17.975 13.2751V12.9001H18.2V12.5251H18.425V12.1501H18.65V11.7751H18.3875V11.4001H18.2V11.0251H17.975V10.6501H17.825C17.7875 11.1376 17.75 11.5501 17.75 12.0001C17.75 12.4501 17.7875 12.8626 17.825 13.2751H17.975ZM22.55 11.0626H22.325V11.4376H22.1V11.8126H21.875V12.1876H22.1V12.5626H22.325V12.9376H22.55V13.2751H22.7375V10.7251H22.55V11.0626Z" fill="white" fill-opacity="0.37"/>
<path d="M20.5609 4.5376C20.4859 4.6126 20.4109 4.7251 20.3359 4.8001H20.5609V4.5376ZM20.6734 19.5751L20.7859 19.6876V19.5751H20.6734ZM20.3734 19.2001C20.4484 19.2751 20.5234 19.3876 20.5984 19.4626V19.2001H20.3734Z" fill="white" fill-opacity="0.37"/>
<path d="M22.5516 20.6627V20.2877H22.7766V19.1627H22.5516V19.5377H22.3266V19.9127H22.1016V19.5377H21.8766V19.1627H21.6516V18.7877H21.8766V18.4127H22.1016V18.0377H22.3266V18.4127H22.5516V18.7877H22.7766V17.6627H22.5516V17.2877H22.7766V16.5377H22.5516V16.9127H22.3266V17.2877H22.1016V17.6627H21.8766V18.0377H21.6516V18.4127H21.4266V18.0377H21.2016V17.6627H20.9766V17.2877H20.7516V16.9127H20.5641V16.5377H20.3766V16.1627H20.1516V16.5377H19.9266V16.9127H19.7016V17.2877H19.4766V17.6627H19.3266C19.4016 17.7752 19.4766 17.9252 19.5516 18.0377H19.7016V18.2627C19.7391 18.3002 19.7391 18.3377 19.7766 18.3752H19.9266V18.5627C19.9641 18.7127 20.0016 18.7502 20.0766 18.8252H20.1516V18.9377C20.2266 19.0127 20.3016 19.1252 20.3766 19.2002V18.8252H20.6016V18.4502H20.8266V18.0752H21.0516V18.4502H21.2766V18.8252H21.5016V19.2002H21.2766V19.5752H21.0516V19.9127L21.2766 20.1377V19.9502H21.5016V19.5752H21.7266V19.9502H21.8766V20.3252H22.1016V20.7002H22.3266V21.0752H22.5516V21.2252C22.6266 21.2627 22.7016 21.3377 22.7766 21.3752V20.7002L22.5516 20.6627ZM20.3766 18.0752H20.1516V17.3252H20.3766V18.0752ZM22.5516 14.0252H22.3266V13.6502H22.1016V13.2752H21.8766V13.6502H21.6516V14.0252H21.4641V14.4002H21.2391V14.7752H21.0141V15.1502H20.7891V15.4877H21.0141V15.8627H21.2391V16.2377H21.8766V15.8627H21.4641V15.4877H21.6516V15.1502H21.8766V14.7752H22.1016V15.1502H22.3266V15.4877H22.5516V15.8627H22.7391V15.1502H22.5516V14.7752H22.7391V14.4002H22.5516V14.0252ZM22.5516 8.5127H22.3266V8.8502H22.1016V9.2252H21.8766V8.8502H21.6516V8.5127H21.4641V8.1377H21.8766V7.7627H21.2391V8.1377H21.0141V8.5127H20.7891V8.8502H21.0141V9.2252H21.2391V9.6002H21.4641V9.9752H21.6516V10.3502H21.8766V10.7252H22.1016V10.3502H22.3266V9.9752H22.5516V9.6002H22.7391V9.2252H22.5516V8.8502H22.7391V8.1377H22.5516V8.5127ZM18.3891 14.7752H18.6141V15.1502H18.8391V15.5252H19.0641V15.9002H18.6141V16.2752H19.2516V15.9002H19.4766V15.5252H19.7016V15.1502H19.4766V14.7752H19.2891V14.4002H19.0641V14.0252H18.8391V13.6502H18.6141V13.2752H18.3891V13.6502H18.2016V14.0252H17.9766V14.1752C18.0516 14.5127 18.1266 14.8127 18.2016 15.1127H18.3891V14.7752ZM20.7891 9.9752H20.5641V9.6002H20.3766V9.2252H20.1516V9.6002H19.9266V9.9752H19.7016V10.3502H19.4766V10.7252H19.2891V11.1002H19.0641V12.9752H19.2891V13.3502H19.5141V13.7252H19.7391V14.1002H19.9641V14.4752H20.1891V14.8502H20.3766V14.4752H20.6016V14.1002H20.8266V13.7252H21.0516V13.3502H21.2766V12.9752H21.5016V11.1002H21.2766V10.7252H21.0516V10.3502H20.8266L20.7891 9.9752ZM19.4766 11.9627V12.1877H19.2891V11.8127H19.5141V11.9627H19.4766ZM21.0141 12.0377V11.8127H21.2391V12.1877H21.0141V12.0377ZM20.1516 9.9752H20.3766V10.3502H20.1516V9.9752ZM20.3766 14.0252H20.1516V13.6502H20.3766V14.0252ZM20.7891 11.4377H20.5641V11.8127H20.3766V12.1877H20.6016V12.5627H20.8266V13.3127H20.5641V12.9377H20.3766V12.5627H20.1516V12.9377H19.9266V13.3127H19.7016V12.5627H19.9266V12.1877H20.1516V11.8127H19.9266V11.4377H19.7016V10.6877H19.9266V11.0627H20.1516V11.4377H20.3766V11.0627H20.6016V10.6877H20.8266L20.7891 11.4377Z" fill="white" fill-opacity="0.37"/>
<path d="M19.6977 5.6625C19.6602 5.7375 19.5852 5.8125 19.5477 5.8875H19.6977V5.6625ZM19.9227 5.55V5.3625C19.8852 5.4375 19.8477 5.475 19.7727 5.55H19.9227ZM20.1477 5.175V5.0625C20.1102 5.1 20.1102 5.1375 20.0727 5.175H20.1477ZM19.2852 11.9625V12.1875H19.4727V11.8125H19.2852V11.9625ZM22.5477 6.3H22.7727V6.675H22.5477V6.3ZM20.5602 5.175V5.55H20.7852V5.925H21.0102V5.55H21.2352V5.175H21.4602V4.8H21.2352V4.425H21.0102V4.0875L20.7852 4.3125V4.425H20.6727L20.5602 4.5375V4.8H20.3727V5.175H20.5602ZM22.5477 3.3375H22.7727V3.7125H22.5477V3.3375ZM22.5477 4.425H22.3227V4.0875H22.0977V4.425H21.8727V4.8H21.6477V5.175H21.8727V5.55H22.0977V5.925H22.3227V5.55H22.5477V5.175H22.7352V4.8H22.5477V4.425ZM21.4602 4.0875V4.4625H21.6852V4.0875H21.8727V3.7125H22.0977V3.3375H22.3227V2.9625H22.5477V2.8125C22.1352 3.1125 21.7227 3.4125 21.3852 3.75C21.3477 3.7875 21.3102 3.825 21.2352 3.8625V4.05H21.4602V4.0875ZM20.2227 5.925H20.1477V6.6375H20.3727V5.925H20.2602H20.2227ZM20.5602 11.0625H20.3727V11.4375H20.1477V11.0625H19.9227V10.725H19.6977V11.4375H19.9227V11.8125H20.1477V12.1875H19.9227V12.5625H19.6977V13.275H19.9227V12.9375H20.1477V12.5625H20.3727V12.9375H20.5602V13.275H20.7852V12.5625H20.5602V12.1875H20.3727V11.8125H20.5602V11.4375H20.7852V10.725H20.5602V11.0625ZM22.5477 8.85H22.7727V9.225H22.5477V8.85Z" fill="#C8313E"/>
<path d="M22.5492 7.01245H22.3242V6.63745H22.0992V6.26245H21.8742V5.88745H21.6492V5.51245H21.4242V5.88745H21.1992V6.26245H20.9742V6.63745H20.7492V7.01245H20.5617V7.38745H20.3742V7.76245H20.1492V7.38745H19.9242V7.01245H19.6992V6.63745H19.4742V6.26245H19.3242C19.0992 6.63745 18.8742 7.04995 18.6867 7.46245C18.4992 7.91245 18.3492 8.36245 18.1992 8.81245H18.3867V9.18745H18.6117V8.81245H18.8367V8.43745H19.0617V8.06245H18.6117V7.68745H19.2492V8.06245H19.4742V8.43745H19.6992V8.81245H19.4742V9.18745H19.2867V9.56245H19.0617V9.93745H18.8367V10.3125H18.6117V10.6875H18.3867V10.3125H18.1992V9.93745H17.9742V9.78745C17.8992 10.0875 17.8617 10.3875 17.8242 10.6875H17.9742V11.0625H18.1992V11.4375H18.4242V11.8125H18.6492V12.1875H18.3867V12.5625H18.1992V12.9375H17.9742V13.3125H17.8242C17.8617 13.6125 17.8992 13.9125 17.9742 14.2125V14.0625H18.1992V13.6875H18.4242V13.3125H18.6492V13.6875H18.8742V14.0625H19.0992V14.4375H19.3242V14.8125H19.5492V15.1875H19.7742V15.5625H19.4742V15.9375H19.2867V16.3125H18.6117V15.9375H19.0617V15.5625H18.8367V15.1875H18.6117V14.8125H18.3867V15.1875H18.1992C18.3492 15.6 18.4992 16.05 18.6867 16.5C18.8742 16.9125 19.0992 17.325 19.3242 17.7H19.5117V17.325H19.7367V16.95H19.9617V16.575H20.1867V16.2H20.3742V16.575H20.5992V16.95H20.8242V17.325H21.0492V17.7H21.2742V18.075H21.4992V18.45H21.7242V18.075H21.8742V17.7H22.0992V17.325H22.3242V16.95H22.5492V16.575H22.7742V15.825H22.5492V15.45H22.3242V15.075H22.0992V14.7H21.8742V15.075H21.6492V15.45H21.4242V15.825H21.8742V16.2H21.2367V15.825H21.0117V15.45H20.7867V15.075H21.0117V14.7H21.2367V14.325H21.4617V13.95H21.6867V13.575H21.8742V13.2H22.0992V13.575H22.3242V13.95H22.5492V14.325H22.7742V13.2H22.5492V12.825H22.3242V12.45H22.0992V12.075H21.8742V11.7H22.0992V11.325H22.3242V10.95H22.5492V10.575H22.7742V9.44995H22.5492V9.82495H22.3242V10.2H22.0992V10.575H21.8742V10.2H21.6492V9.82495H21.4242V9.44995H21.1992V9.07495H20.9742V8.69995H20.7492V8.32495H20.9742V7.94995H21.1992V7.57495H21.8742V7.94995H21.4242V8.32495H21.6492V8.69995H21.8742V9.07495H22.0992V8.69995H22.3242V8.32495H22.5492V7.94995H22.7742V7.19995H22.5492V7.01245ZM21.0117 10.35V10.725H21.2367V11.1H21.4617V12.975H21.2367V13.35H21.0117V13.725H20.7867V14.1H20.5617V14.475H20.3742V14.85H20.1492V14.475H19.9242V14.1H19.6992V13.725H19.4742V13.35H19.2867V12.975H19.0617V11.1H19.2867V10.725H19.5117V10.35H19.7367V9.97495H19.9617V9.59995H20.1867V9.22495H20.3742V9.59995H20.5992V9.97495H20.8242V10.35H21.0117Z" fill="#C8313E"/>
<path d="M20.2633 10.3501H20.3758V9.9751H20.1508V10.3501H20.2258H20.2633ZM19.7008 18.0751H19.5508C19.5883 18.1501 19.6633 18.2251 19.7008 18.3001V18.0751ZM19.9258 18.4501H19.7758C19.8133 18.5251 19.8508 18.5626 19.9258 18.6376V18.4501ZM20.1508 18.8251H20.0758C20.1133 18.8626 20.1133 18.9001 20.1508 18.9376V18.8251ZM22.5508 17.3626H22.7758V17.7376H22.5508V17.3626ZM22.5508 18.4501H22.3258V18.0751H22.1008V18.4501H21.8758V18.8251H21.6508V19.2001H21.8758V19.5751H22.1008V19.9126H22.3258V19.5751H22.5508V19.2001H22.7383V18.8251H22.5508V18.4501ZM20.5633 19.2001V19.4626L20.6758 19.5751H20.7883V19.6876L21.0133 19.9126V19.5751H21.2383V19.2001H21.4633V18.8251H21.2383V18.4501H21.0133V18.0751H20.7883V18.4501H20.5633V18.8251H20.3758V19.2001H20.5633ZM22.5508 20.2876H22.7758V20.6626H22.5508V20.2876ZM21.3508 20.2501C21.7258 20.5876 22.1008 20.9251 22.5133 21.1876V21.0376H22.2883V20.6626H22.0633V20.2876H21.8758V19.9126H21.6508V19.5376H21.4258V19.9126H21.2008V20.1001L21.3508 20.2501ZM20.2258 17.3626H20.1508V18.0751H20.3758V17.3626H20.2633H20.2258ZM22.5508 14.7751H22.7758V15.1501H22.5508V14.7751ZM21.2383 12.0376V11.8126H21.0133V12.1876H21.2383V12.0376ZM20.2258 13.6501H20.1508V14.0251H20.3758V13.6501H20.2633H20.2258Z" fill="#C8313E"/>
<path d="M22.7383 16.5V21.3375C24.5383 22.5375 26.6758 23.25 29.0008 23.25C31.9633 23.25 34.6258 22.125 36.6508 20.25C37.7758 19.2 38.7133 17.925 39.3133 16.5H22.7383Z" fill="#83BF4F"/>
<path d="M39.3133 16.5C39.9133 15.1125 40.2508 13.6125 40.2508 12C40.2508 10.3875 39.9133 8.8875 39.3133 7.5C38.6758 6.075 37.7758 4.8 36.6508 3.75C34.6258 1.875 31.9633 0.75 29.0008 0.75C26.6758 0.75 24.5383 1.4625 22.7383 2.6625V16.5H39.3133Z" fill="#C94747"/>
</g>
<g clip-path="url(#clip2_1376_2209)">
<path d="M46 23.25C52.2132 23.25 57.25 18.2132 57.25 12C57.25 5.7868 52.2132 0.75 46 0.75C39.7868 0.75 34.75 5.7868 34.75 12C34.75 18.2132 39.7868 23.25 46 23.25Z" fill="#00AFCA"/>
<path d="M55.2611 12.4127C54.9986 12.2627 54.6986 12.4502 54.6986 12.7127C54.5861 14.5502 51.3611 15.0377 49.8236 15.0377C48.2861 15.0752 44.9861 14.5127 44.8736 12.7127C44.8736 12.4502 44.5736 12.3002 44.3111 12.4127C43.5236 12.8252 43.2611 13.6127 43.4486 14.4002C43.7861 15.8252 45.5486 16.8377 47.0486 17.2877C46.9361 17.5502 46.8986 17.8127 46.8611 18.0752C46.8236 18.3752 47.2736 18.4877 47.4986 18.3002C48.3611 17.6627 49.7111 17.4002 50.8361 17.4002C51.3236 17.4002 51.3236 16.7252 50.8361 16.7252C49.8236 16.7252 48.7361 16.9127 47.8361 17.3252C48.1736 16.5377 48.9611 15.7502 49.8236 15.7127H49.8611C51.6611 15.7502 54.5486 15.1127 55.2986 13.4252C55.4111 13.7252 55.4111 14.0627 55.2986 14.3627C54.9236 15.5627 53.6111 16.0502 52.3736 16.3877C51.9236 16.5002 52.1111 17.1752 52.5611 17.0252C54.1361 16.6127 55.3736 15.9752 56.0111 14.5502C56.3111 13.8002 56.0111 12.9002 55.2611 12.4127ZM47.3486 16.6502C46.1111 16.3127 45.1736 15.7127 44.4236 14.7377C44.1236 14.3252 44.0111 13.7627 44.2736 13.3502C44.8361 14.6627 46.6736 15.3377 48.3236 15.5627C47.9486 15.8627 47.6111 16.2377 47.3486 16.6502Z" fill="#FFE62E"/>
<path d="M49.7469 13.0125C51.3416 13.0125 52.6344 11.7198 52.6344 10.125C52.6344 8.53033 51.3416 7.23755 49.7469 7.23755C48.1522 7.23755 46.8594 8.53033 46.8594 10.125C46.8594 11.7198 48.1522 13.0125 49.7469 13.0125Z" fill="#FFE62E"/>
<path d="M49.7484 6.8626C49.9359 6.8626 49.9734 6.7501 49.9734 6.6376C49.9734 6.4501 49.7484 5.6626 49.7484 5.6626C49.7484 5.6626 49.5234 6.4876 49.5234 6.6376C49.5234 6.7501 49.5609 6.8626 49.7484 6.8626Z" fill="#FFE62E"/>
<path d="M50.9867 7.08755C51.1367 7.16255 51.2492 7.08755 51.2867 6.97505C51.3617 6.82505 51.4367 5.96255 51.4367 5.96255C51.4367 5.96255 50.9117 6.63755 50.8367 6.78755C50.8367 6.90005 50.8367 7.05005 50.9867 7.08755ZM52.7867 11.3625C52.7117 11.5125 52.7867 11.625 52.8992 11.6625C53.0492 11.7375 53.9117 11.8125 53.9117 11.8125C53.9117 11.8125 53.2367 11.2875 53.0867 11.2125C52.9742 11.2125 52.8242 11.2125 52.7867 11.3625ZM48.5117 13.1625C48.3617 13.0875 48.2492 13.1626 48.2117 13.2751C48.1367 13.4251 48.0617 14.2875 48.0617 14.2875C48.0617 14.2875 48.5867 13.6126 48.6617 13.4626C48.6617 13.3501 48.6617 13.2 48.5117 13.1625ZM46.7117 8.88755C46.7867 8.73755 46.7117 8.62505 46.5992 8.58755C46.4492 8.51255 45.5867 8.43755 45.5867 8.43755C45.5867 8.43755 46.2617 8.96255 46.4117 9.03755C46.5242 9.03755 46.6742 9.03755 46.7117 8.88755ZM52.0742 7.80005C52.1867 7.91255 52.3367 7.87505 52.4117 7.80005C52.5242 7.68755 52.9367 6.93755 52.9367 6.93755C52.9367 6.93755 52.1867 7.35005 52.0742 7.46255C51.9617 7.57505 51.9617 7.68755 52.0742 7.80005ZM52.0742 12.4501C51.9617 12.5626 51.9992 12.675 52.0742 12.7875C52.1867 12.9 52.9367 13.3125 52.9367 13.3125C52.9367 13.3125 52.5242 12.5626 52.4117 12.4501C52.2992 12.3376 52.1867 12.3376 52.0742 12.4501ZM47.4242 12.4501C47.3117 12.3376 47.1617 12.3751 47.0867 12.4501C46.9742 12.5626 46.5617 13.3125 46.5617 13.3125C46.5617 13.3125 47.3117 12.9 47.4242 12.7875C47.5367 12.675 47.5367 12.5626 47.4242 12.4501ZM47.4242 7.80005C47.5367 7.68755 47.4992 7.53755 47.4242 7.46255C47.3117 7.35005 46.5617 6.93755 46.5617 6.93755C46.5617 6.93755 46.9742 7.68755 47.0867 7.80005C47.1992 7.91255 47.3117 7.91255 47.4242 7.80005ZM52.7867 8.88755C52.8617 9.03755 52.9742 9.07505 53.0867 9.00005C53.2367 8.92505 53.9117 8.40005 53.9117 8.40005C53.9117 8.40005 53.0492 8.51255 52.8992 8.55005C52.7867 8.62505 52.7117 8.70005 52.7867 8.88755ZM50.9867 13.1625C50.8367 13.2375 50.7992 13.3501 50.8742 13.4626C50.9492 13.6126 51.4742 14.2875 51.4742 14.2875C51.4742 14.2875 51.3617 13.4251 51.3242 13.2751C51.2492 13.1626 51.1742 13.0875 50.9867 13.1625ZM46.7117 11.3625C46.6367 11.2125 46.5242 11.175 46.4117 11.25C46.2617 11.325 45.5867 11.85 45.5867 11.85C45.5867 11.85 46.4492 11.7375 46.5992 11.7001C46.7117 11.6251 46.7867 11.55 46.7117 11.3625ZM48.5117 7.08755C48.6617 7.01255 48.6992 6.90005 48.6242 6.78755C48.5492 6.63755 48.0242 5.96255 48.0242 5.96255C48.0242 5.96255 48.1367 6.78755 48.1742 6.97505C48.2492 7.08755 48.3242 7.16255 48.5117 7.08755ZM50.3867 6.90005C50.5367 6.93755 50.6492 6.82505 50.6492 6.71255C50.6867 6.56255 50.6117 5.70005 50.6117 5.70005C50.6117 5.70005 50.2367 6.45005 50.1992 6.63755C50.1617 6.75005 50.2367 6.86255 50.3867 6.90005ZM52.9742 10.7626C52.9367 10.9125 53.0492 11.025 53.1617 11.025C53.3117 11.0625 54.1742 10.9875 54.1742 10.9875C54.1742 10.9875 53.4242 10.6125 53.2367 10.5751C53.1242 10.5375 53.0117 10.6125 52.9742 10.7626ZM49.1117 13.35C48.9617 13.3125 48.8492 13.425 48.8492 13.5375C48.8117 13.6875 48.8867 14.55 48.8867 14.55C48.8867 14.55 49.2617 13.8 49.2992 13.6125C49.3367 13.5 49.2617 13.3875 49.1117 13.35ZM46.5242 9.48755C46.5617 9.30005 46.4492 9.22505 46.3367 9.22505C46.1867 9.18755 45.3242 9.26255 45.3242 9.26255C45.3242 9.26255 46.0742 9.63755 46.2617 9.67505C46.3742 9.71255 46.4867 9.63755 46.5242 9.48755ZM51.5867 7.38755C51.7367 7.46255 51.8492 7.42505 51.9242 7.31255C52.0367 7.16255 52.2617 6.37505 52.2617 6.37505C52.2617 6.37505 51.6242 6.93755 51.5117 7.05005C51.4367 7.16255 51.4367 7.31255 51.5867 7.38755ZM52.4867 11.9625C52.4117 12.1125 52.4492 12.225 52.5617 12.3C52.7117 12.4125 53.4992 12.6376 53.4992 12.6376C53.4992 12.6376 52.9367 12.0001 52.8242 11.8876C52.7117 11.8126 52.5617 11.8125 52.4867 11.9625ZM47.9117 12.8625C47.7617 12.7875 47.6492 12.8251 47.5742 12.9375C47.4992 13.05 47.2367 13.875 47.2367 13.875C47.2367 13.875 47.8742 13.3126 47.9867 13.2001C48.0617 13.0876 48.0617 12.9375 47.9117 12.8625ZM47.0117 8.28755C47.0867 8.13755 47.0492 8.02505 46.9367 7.95005C46.8242 7.87505 45.9992 7.61255 45.9992 7.61255C45.9992 7.61255 46.5617 8.25005 46.6742 8.36255C46.7867 8.43755 46.9367 8.43755 47.0117 8.28755ZM52.4867 8.28755C52.5992 8.43755 52.7117 8.43755 52.8242 8.36255C52.9742 8.25005 53.4992 7.61255 53.4992 7.61255C53.4992 7.61255 52.6742 7.87505 52.5617 7.95005C52.4492 8.06255 52.3742 8.17505 52.4867 8.28755ZM51.5867 12.8625C51.4367 12.975 51.4367 13.0876 51.5117 13.2001C51.6242 13.35 52.2617 13.875 52.2617 13.875C52.2617 13.875 51.9992 13.05 51.9242 12.9375C51.8117 12.8251 51.6992 12.75 51.5867 12.8625ZM47.0117 11.9625C46.8992 11.8125 46.7867 11.8126 46.6742 11.8876C46.5242 12.0001 45.9992 12.6376 45.9992 12.6376C45.9992 12.6376 46.8242 12.375 46.9367 12.3C47.0492 12.1875 47.1242 12.075 47.0117 11.9625ZM47.9117 7.38755C48.0617 7.27505 48.0617 7.16255 47.9867 7.05005C47.8742 6.90005 47.2367 6.37505 47.2367 6.37505C47.2367 6.37505 47.4992 7.20005 47.5742 7.31255C47.6867 7.42505 47.7992 7.50005 47.9117 7.38755ZM52.9742 9.48755C53.0117 9.63755 53.1242 9.71255 53.2367 9.67505C53.3867 9.63755 54.1742 9.26255 54.1742 9.26255C54.1742 9.26255 53.3117 9.18755 53.1617 9.22505C53.0117 9.22505 52.9367 9.30005 52.9742 9.48755ZM50.3867 13.35C50.2367 13.3875 50.1617 13.5 50.1992 13.6125C50.2367 13.7625 50.6117 14.55 50.6117 14.55C50.6117 14.55 50.6867 13.6875 50.6492 13.5375C50.6492 13.3875 50.5742 13.3125 50.3867 13.35ZM46.5242 10.7626C46.4867 10.6125 46.3742 10.5375 46.2617 10.5751C46.1117 10.6125 45.3242 10.9875 45.3242 10.9875C45.3242 10.9875 46.1867 11.0625 46.3367 11.025C46.4867 11.025 46.5617 10.9501 46.5242 10.7626ZM49.1117 6.90005C49.2617 6.86255 49.3367 6.75005 49.2992 6.63755C49.2617 6.48755 48.8867 5.70005 48.8867 5.70005C48.8867 5.70005 48.8117 6.56255 48.8492 6.71255C48.8492 6.86255 48.9242 6.93755 49.1117 6.90005ZM40.1867 19.35H39.7742V20.7376H38.9492C39.3617 21.0751 39.7742 21.3376 40.2242 21.6376V19.35H40.1867ZM39.7742 3.26255V4.65005H40.1867V2.36255C39.7367 2.62505 39.3242 2.92505 38.9117 3.26255H39.7742ZM38.8367 3.30005C38.7242 3.37505 38.6117 3.48755 38.4992 3.60005L39.6242 6.03755H38.6867V4.65005H38.2742V6.03755H37.3367L38.4242 3.67505C38.1242 3.93755 37.8242 4.23755 37.5617 4.57505L36.6992 6.41255L38.1617 9.56255H37.2242V8.17505H36.8117V11.85H37.2242V10.3125H38.1992L37.6367 12L38.1992 13.6501H37.2242V12.1125H36.8117V15.7875H37.2242V14.4001H38.1617L36.6992 17.55L37.5617 19.3876C37.8242 19.6876 38.1242 19.9876 38.4242 20.2875L37.3367 17.925H38.2742V19.3125H38.6867V17.925H39.6242L38.4992 20.3626C38.6117 20.475 38.7242 20.5501 38.8367 20.6625L40.2617 17.55L38.7992 14.4001H39.7367V15.7875H40.1492V12.1125H39.7367V13.6501H38.7617L39.3242 12L38.7617 10.35H39.7367V11.8876H40.1492V8.21255H39.7367V9.60005H38.7992L40.2617 6.45005L38.8367 3.30005ZM39.6617 17.2126H38.7242V15.8251H38.3117V17.2126H37.3367L38.4992 14.7375L39.6617 17.2126ZM38.4992 13.2001L38.1992 12.3376H38.7992L38.4992 13.2001ZM38.7992 11.6625H38.1992L38.4992 10.8L38.7992 11.6625ZM38.4992 9.30005L37.3367 6.82505H38.2742V8.21255H38.6867V6.82505H39.6242L38.4992 9.30005Z" fill="#FFE62E"/>
</g>
<defs>
<clipPath id="clip0_1376_2209">
<rect width="24" height="24" fill="white"/>
</clipPath>
<clipPath id="clip1_1376_2209">
<rect width="24" height="24" fill="white" transform="translate(17)"/>
</clipPath>
<clipPath id="clip2_1376_2209">
<rect width="24" height="24" fill="white" transform="translate(34)"/>
</clipPath>
</defs>
</svg>
