<svg width="104" height="19" viewBox="0 0 104 19" fill="none" xmlns="http://www.w3.org/2000/svg">
<path d="M29.7373 2.45541C28.9695 2.63606 28.3314 2.91178 27.6634 3.34914C26.8956 3.86256 26.766 3.97666 26.2077 4.63269C23.5854 7.70371 25.2604 12.4291 29.3883 13.589C30.1261 13.7887 32.0604 13.8172 32.7285 13.6366C34.1842 13.2277 35.5801 12.1629 36.1085 11.0504C36.5672 10.0711 36.7865 8.92071 36.6669 8.0555L36.5971 7.53257L33.895 7.56109L31.183 7.58962L31.1531 8.32171L31.1232 9.06332H33.0874H35.0516L34.9819 9.46265C34.593 11.8111 31.5719 13.0281 29.0892 11.8396C27.4141 11.0504 26.447 9.21545 26.7461 7.42798C27.0651 5.47889 28.6904 4.00518 30.6645 3.86256C31.9009 3.77699 32.5191 3.94813 33.895 4.78482C34.1044 4.90842 34.1443 4.8894 34.6428 4.41401L35.1713 3.9101L34.7625 3.55831C33.5461 2.53147 31.4223 2.06559 29.7373 2.45541Z" fill="white"/>
<path d="M62.457 8.25764V13.7568H63.3609H64.2647V8.25764V2.75845H63.3609H62.457V8.25764Z" fill="white"/>
<path d="M76.4892 8.66899L76.52 13.6997L77.3092 13.7283L78.1086 13.7568L78.1291 11.7751L78.1598 9.79327L79.6972 9.74564C81.0808 9.70752 81.2961 9.66941 81.7983 9.45027C82.5055 9.13586 83.1921 8.52608 83.4689 7.95441C83.7763 7.31605 83.7763 6.15366 83.4689 5.53435C83.1511 4.87693 82.3722 4.20046 81.6343 3.92415C81.0706 3.71454 80.8656 3.69549 78.744 3.6669L76.4688 3.63832L76.4892 8.66899ZM81.2346 5.29616C81.829 5.61057 82.1057 6.03932 82.1057 6.66816C82.1057 7.23983 82.0135 7.46849 81.6035 7.86866C81.1628 8.31647 80.7734 8.41174 79.3795 8.41174H78.1086V6.74438V5.07702H79.4717C80.6811 5.07702 80.8656 5.1056 81.2346 5.29616Z" fill="white"/>
<path d="M85.0721 3.84833C85.0369 4.01061 85.0604 13.1936 85.0955 13.6805C85.1072 13.7282 85.505 13.7568 85.9848 13.7568H86.8624V8.69758V3.63832H85.9965C85.2008 3.63832 85.1306 3.65741 85.0721 3.84833Z" fill="white"/>
<path d="M90.6772 6.33141C89.772 6.52011 88.5333 7.21831 88.5333 7.5391C88.5333 7.60515 88.7239 7.82216 88.9621 8.02029L89.4004 8.36939L89.6577 8.12408C90.8773 6.96356 93.1069 7.5108 93.1069 8.9638C93.1069 9.43556 93.0973 9.43556 92.3732 9.22799C91.6205 9.01098 90.277 9.07703 89.6291 9.36951C88.6667 9.79409 88.2094 10.4734 88.2189 11.4547C88.2189 12.1906 88.4476 12.6907 88.9716 13.153C89.5147 13.6247 89.9054 13.7474 90.8201 13.7568C91.5347 13.7568 91.6967 13.7285 92.0588 13.5115C92.297 13.3794 92.6209 13.1341 92.7734 12.9643L93.0592 12.6624L93.1069 13.1247L93.1545 13.5776L93.8501 13.6059L94.5456 13.6342L94.517 10.9169C94.4885 8.28448 94.4789 8.19013 94.2693 7.77498C93.8691 7.02961 93.2212 6.57672 92.2684 6.36915C91.7729 6.26537 91.0488 6.2465 90.6772 6.33141ZM92.7162 10.3696C93.1259 10.5395 93.1259 10.5395 93.0783 10.9546C92.9544 12.0302 91.7158 12.8794 90.6581 12.5963C90.115 12.4548 89.7911 12.1623 89.7148 11.7849C89.5814 11.0584 89.934 10.4262 90.5724 10.2281C91.0107 10.096 92.2398 10.1809 92.7162 10.3696Z" fill="white"/>
<path d="M40.3536 6.76924C38.7172 7.03962 37.4675 8.28531 37.1997 9.93658C36.8922 11.7713 38.1121 13.5771 39.9966 14.0696C41.8215 14.5427 43.7357 13.664 44.5192 12.0031C44.8565 11.2885 44.9358 10.1297 44.6978 9.36685C44.1523 7.58039 42.2778 6.46023 40.3536 6.76924ZM42.1091 8.45913C43.7159 9.36685 43.5473 11.9162 41.8414 12.6018C41.3256 12.8142 40.552 12.7949 40.0859 12.5632C39.2131 12.1286 38.7072 11.1919 38.8163 10.178C38.9949 8.54604 40.7008 7.64798 42.1091 8.45913Z" fill="white"/>
<path d="M49.1783 6.73622C48.4342 6.81356 47.591 7.18092 47.0155 7.69329C45.7854 8.77603 45.4183 10.2938 46.0135 11.8406C46.6584 13.5227 48.6128 14.5184 50.4581 14.1027C51.5395 13.8611 52.5613 13.107 53.0375 12.1983C53.5435 11.2315 53.5435 9.7911 53.0375 8.74703C52.4026 7.43227 50.7656 6.58154 49.1783 6.73622ZM50.2002 8.22499C50.6764 8.35067 51.3113 8.90171 51.5792 9.41408C51.8371 9.89744 51.857 10.8932 51.6188 11.4249C51.2121 12.353 50.4184 12.817 49.3767 12.7396C48.593 12.6816 48.0572 12.3239 47.6604 11.5989C47.4025 11.1155 47.3826 10.9995 47.4124 10.3421C47.4719 9.30774 47.8687 8.7277 48.7815 8.32167C49.2874 8.09932 49.6545 8.07032 50.2002 8.22499Z" fill="white"/>
<path d="M56.9601 6.7624C55.9222 6.92285 54.757 7.76286 54.2674 8.69724C53.3275 10.4999 54.1206 12.7746 56.0005 13.6618C56.5684 13.9355 56.7349 13.9732 57.479 13.9732C58.37 13.9732 58.7421 13.8505 59.2512 13.3881C59.5939 13.086 59.6723 13.2087 59.5939 13.9638C59.4764 15.153 59.0456 15.6627 57.9588 15.8986C57.1069 16.0874 56.2747 15.7193 55.697 14.8887L55.5501 14.6811L54.8549 14.9359L54.1695 15.1908L54.3653 15.5589C54.6493 16.0968 55.3053 16.6914 55.9711 17.0029C56.4999 17.2483 56.6369 17.2766 57.5769 17.2766C58.4875 17.2766 58.6736 17.2483 59.1631 17.0218C60.1031 16.5971 60.7493 15.8042 60.9941 14.766C61.0529 14.5206 61.1018 12.7934 61.1018 10.6415V6.94173H60.3675H59.6331V7.22488C59.6331 7.55522 59.5352 7.58353 59.3002 7.3287C59.0848 7.09274 58.3211 6.79072 57.8217 6.73409C57.6063 6.70577 57.2146 6.71521 56.9601 6.7624ZM58.5658 8.31971C58.9477 8.50848 59.1729 8.735 59.4569 9.2541C59.78 9.8204 59.7702 10.9813 59.4373 11.5665C58.5658 13.0766 56.3628 12.9256 55.6676 11.3116C55.4522 10.8208 55.4816 9.8204 55.7166 9.34848C55.9711 8.84826 56.4803 8.37634 56.9503 8.20646C57.4105 8.04601 58.1252 8.0932 58.5658 8.31971Z" fill="white"/>
<path d="M68.0561 6.76309C66.9488 6.93749 66.042 7.61572 65.4979 8.70089C65.1543 9.36943 65.0684 10.7743 65.307 11.6076C65.9752 13.962 68.8675 14.96 70.8911 13.5454C71.1775 13.3419 71.5116 13.0512 71.6357 12.8768L71.8648 12.5765L71.2634 12.1792L70.6716 11.782L70.3279 12.1211C70.1466 12.3052 69.8316 12.5183 69.6407 12.6055C69.1634 12.7993 68.3616 12.7896 67.8843 12.5668C67.5216 12.4021 66.987 11.8304 66.987 11.627C66.987 11.5785 67.9225 11.1522 69.0679 10.6774C70.2038 10.2124 71.3207 9.73761 71.5402 9.64072L71.9507 9.46632L71.7598 9.02062C71.0439 7.32505 69.6979 6.51117 68.0561 6.76309ZM69.4593 8.28426C69.8602 8.49742 70.0798 8.72026 70.0225 8.87529C70.0034 8.93342 69.5834 9.15627 69.087 9.36943C68.5907 9.58258 67.8652 9.89263 67.4834 10.0573C67.1016 10.2221 66.7675 10.3286 66.7388 10.2996C66.5956 10.1542 66.8247 9.33067 67.1111 8.94311C67.6934 8.16799 68.6861 7.88701 69.4593 8.28426Z" fill="white"/>
<path d="M95.4492 6.79395C95.4492 6.87826 97.0619 10.3539 98.1937 12.7334C98.5143 13.4079 98.5143 13.5297 98.1937 14.1293C98.0435 14.4009 97.6929 15.1129 97.4024 15.7219L96.8716 16.8367L97.6829 16.8086L98.4942 16.7805L99.1353 15.4221C99.4859 14.6726 99.9266 13.7264 100.107 13.3142C100.287 12.902 101.048 11.2532 101.79 9.66062L103.132 6.75647L102.331 6.72837C101.89 6.70963 101.519 6.719 101.489 6.73774C101.469 6.76584 101.189 7.38414 100.868 8.12423C100.548 8.86432 100.257 9.53883 100.227 9.61378C100.187 9.68872 99.9967 10.1478 99.7864 10.6349C99.576 11.1221 99.3657 11.5155 99.3056 11.5155C99.2154 11.5062 98.4341 9.83861 97.4124 7.50593L97.0819 6.75647L96.2706 6.72837C95.7597 6.70963 95.4492 6.73774 95.4492 6.79395Z" fill="white"/>
<path d="M11.275 8.30939C10.5087 9.0647 9.87891 9.69179 9.87891 9.70344C9.87891 9.73608 10.1495 9.99717 10.1854 9.99717C10.1998 9.99717 10.2142 10.0088 10.2142 10.0251C10.2142 10.0531 12.5921 12.3843 12.6615 12.4216C12.6927 12.4403 12.7382 12.4263 12.8411 12.3727C12.9178 12.333 13.1046 12.2328 13.2554 12.1535C13.4063 12.0743 13.5859 11.9787 13.6505 11.946C13.7176 11.9111 13.8134 11.8598 13.8661 11.8295C13.9188 11.8015 14.0481 11.7316 14.1534 11.6756C14.2588 11.6197 14.4767 11.5031 14.6372 11.4145C14.8 11.3283 14.9365 11.256 14.9413 11.256C14.9461 11.256 15.0562 11.1977 15.1855 11.1255C15.3173 11.0532 15.5088 10.9506 15.6142 10.8947C15.7196 10.8411 15.8489 10.7735 15.9016 10.7432C15.9542 10.7152 16.0883 10.6429 16.2009 10.5846C16.8044 10.2723 17.0007 10.1231 17.1133 9.89227C17.2067 9.69878 17.1612 9.47732 16.9888 9.28616C16.8858 9.17193 16.7229 9.07868 15.4825 8.42362C14.8838 8.10658 14.3833 7.83849 14.369 7.82917C14.357 7.81984 14.2636 7.77089 14.1654 7.7196C13.7775 7.51679 13.3297 7.28134 13.1357 7.17643C13.0231 7.11582 12.8723 7.03656 12.8004 7.0016L12.6711 6.93632L11.275 8.30939Z" fill="url(#paint0_linear_3025_4959)" fill-opacity="0.6"/>
<path d="M11.275 8.30939C10.5087 9.0647 9.87891 9.69179 9.87891 9.70344C9.87891 9.73608 10.1495 9.99717 10.1854 9.99717C10.1998 9.99717 10.2142 10.0088 10.2142 10.0251C10.2142 10.0531 12.5921 12.3843 12.6615 12.4216C12.6927 12.4403 12.7382 12.4263 12.8411 12.3727C12.9178 12.333 13.1046 12.2328 13.2554 12.1535C13.4063 12.0743 13.5859 11.9787 13.6505 11.946C13.7176 11.9111 13.8134 11.8598 13.8661 11.8295C13.9188 11.8015 14.0481 11.7316 14.1534 11.6756C14.2588 11.6197 14.4767 11.5031 14.6372 11.4145C14.8 11.3283 14.9365 11.256 14.9413 11.256C14.9461 11.256 15.0562 11.1977 15.1855 11.1255C15.3173 11.0532 15.5088 10.9506 15.6142 10.8947C15.7196 10.8411 15.8489 10.7735 15.9016 10.7432C15.9542 10.7152 16.0883 10.6429 16.2009 10.5846C16.8044 10.2723 17.0007 10.1231 17.1133 9.89227C17.2067 9.69878 17.1612 9.47732 16.9888 9.28616C16.8858 9.17193 16.7229 9.07868 15.4825 8.42362C14.8838 8.10658 14.3833 7.83849 14.369 7.82917C14.357 7.81984 14.2636 7.77089 14.1654 7.7196C13.7775 7.51679 13.3297 7.28134 13.1357 7.17643C13.0231 7.11582 12.8723 7.03656 12.8004 7.0016L12.6711 6.93632L11.275 8.30939Z" fill="#878787" fill-opacity="0.24"/>
<path d="M9.73408 9.86854C9.69337 9.91284 9.64787 9.97578 9.6335 10.0084C9.61674 10.0411 9.57363 10.0807 9.53532 10.0923C9.48982 10.1087 9.45629 10.1413 9.43953 10.1856C9.42277 10.2322 9.38924 10.2672 9.34135 10.2835C9.30303 10.2975 9.26951 10.3208 9.26951 10.3348C9.26951 10.3744 9.14019 10.4863 9.09469 10.4863C9.07314 10.4863 9.05638 10.4933 9.05877 10.505C9.07075 10.5353 8.97017 10.6425 8.89593 10.6798C8.85522 10.7008 8.80733 10.7497 8.79057 10.7894C8.7738 10.8267 8.74746 10.8593 8.73309 10.8593C8.70196 10.8593 8.5511 11.0015 8.5511 11.0295C8.5511 11.0388 8.56786 11.0458 8.58702 11.0458C8.60857 11.0458 8.62294 11.0668 8.62294 11.1041C8.62294 11.1507 8.61096 11.1624 8.56307 11.1624C8.52955 11.1624 8.5032 11.1507 8.5032 11.139C8.5032 11.1251 8.49123 11.1157 8.47686 11.1157C8.42897 11.1157 7.2843 12.2627 7.29867 12.2976C7.30586 12.314 7.30346 12.3279 7.29149 12.3256C7.27952 12.3233 7.25796 12.3233 7.24359 12.3256C7.21246 12.3279 6.58745 12.9364 6.58745 12.962C6.58745 12.9714 6.57787 12.9807 6.5659 12.9807C6.52758 12.9807 6.08217 13.4329 6.07019 13.4865C6.06062 13.5169 6.03667 13.5402 6.01512 13.5402C5.96962 13.5402 5.30389 14.1859 5.32545 14.2092C5.33502 14.2162 5.35658 14.2092 5.37813 14.1929C5.40926 14.1673 5.41405 14.1719 5.41405 14.2255C5.41405 14.2815 5.40686 14.2861 5.31108 14.2861C5.23445 14.2861 5.19374 14.3001 5.16021 14.3351C5.12669 14.3724 5.12429 14.3887 5.14584 14.3957C5.16021 14.4027 5.17458 14.433 5.17458 14.4633C5.17458 14.5076 5.16261 14.5193 5.11471 14.5193C5.08119 14.5193 5.05484 14.5286 5.05484 14.5426C5.05484 14.5542 5.0285 14.5659 4.99498 14.5659C4.91595 14.5659 4.73156 14.7267 4.76748 14.7617C4.77945 14.7734 4.79143 14.8083 4.79143 14.8386C4.79143 14.8806 4.77706 14.8923 4.73396 14.8923C4.70043 14.8923 4.6669 14.8806 4.65733 14.8666C4.63817 14.8363 4.55435 14.9296 4.55196 14.9808C4.55196 15.0275 4.4873 15.0834 4.46814 15.0554C4.4442 15.0181 4.38433 15.0741 4.38433 15.1347C4.38433 15.1627 4.40588 15.1976 4.43222 15.214C4.4897 15.2489 4.49449 15.3072 4.4418 15.3282C4.41786 15.3375 4.38194 15.3189 4.34602 15.2792C4.27417 15.207 4.24783 15.2023 4.22868 15.2652C4.22149 15.2909 4.20233 15.3119 4.19036 15.3119C4.14247 15.3119 4.1736 15.3841 4.23107 15.4051C4.30291 15.4331 4.30052 15.51 4.22868 15.51C4.19754 15.51 4.17839 15.4914 4.1736 15.4587C4.16162 15.3748 4.09457 15.3935 3.96047 15.5193C3.86708 15.6079 3.84552 15.6406 3.86708 15.6639C3.88623 15.6849 3.88623 15.6872 3.86229 15.6732C3.82637 15.6546 3.66592 15.7898 3.66592 15.841C3.66592 15.8574 3.65155 15.869 3.63719 15.8644C3.62042 15.862 3.60366 15.883 3.59887 15.911C3.59408 15.9459 3.57492 15.9646 3.54379 15.9646C3.51745 15.9646 3.49111 15.9832 3.48153 16.0042C3.45279 16.0812 3.37616 16.1744 3.34024 16.1744C3.29474 16.1744 3.23488 16.2304 3.23488 16.2723C3.23488 16.3189 3.18459 16.3609 3.13191 16.3609C3.10796 16.3609 3.09599 16.3726 3.10317 16.3842C3.11035 16.3982 3.10077 16.4145 3.08162 16.4215C3.06007 16.4285 3.0433 16.4495 3.0433 16.4681C3.0433 16.4868 3.00738 16.5148 2.96428 16.5334C2.89244 16.5614 2.77749 16.6849 2.8206 16.6873C2.83257 16.6896 2.80623 16.7036 2.76312 16.7222C2.70805 16.7455 2.67931 16.7759 2.66494 16.8318C2.65057 16.8901 2.63141 16.9111 2.58352 16.9157C2.52844 16.9227 2.49252 16.9647 2.46139 17.0649C2.45421 17.0859 2.42308 17.1069 2.39195 17.1115C2.35842 17.1162 2.3225 17.1465 2.30095 17.1931C2.28179 17.2351 2.24347 17.2771 2.21713 17.2841C2.15487 17.305 2.06387 17.3703 2.06148 17.3936C2.06148 17.4029 2.02316 17.4496 1.97766 17.4962C1.93216 17.5428 1.89385 17.5941 1.89385 17.6127C1.89385 17.6291 1.86751 17.6547 1.83638 17.6664C1.80525 17.678 1.70467 17.7596 1.61367 17.8459C1.52267 17.9345 1.43167 18.0137 1.40773 18.023C1.38617 18.03 1.36702 18.0533 1.36702 18.072C1.36702 18.0883 1.35025 18.1116 1.3287 18.1186C1.30954 18.1256 1.29997 18.1419 1.30715 18.1559C1.31673 18.1699 1.3311 18.1746 1.34307 18.1676C1.38138 18.1443 1.39096 18.1979 1.35504 18.2259C1.33589 18.2422 1.31912 18.2678 1.31912 18.2818C1.31912 18.3098 1.26644 18.3564 1.18502 18.403C1.16107 18.4193 1.13952 18.452 1.14192 18.48C1.14192 18.5196 1.12994 18.5289 1.07486 18.5289C1.03894 18.5289 1.00781 18.5406 1.00781 18.5545C1.00781 18.5709 1.02936 18.5755 1.07247 18.5615C1.11078 18.5522 1.16347 18.5452 1.1946 18.5452C1.23291 18.5476 1.24728 18.5382 1.2377 18.5126C1.22812 18.4939 1.23291 18.4869 1.24968 18.4963C1.26404 18.5056 1.2832 18.5033 1.29278 18.4916C1.31673 18.4566 1.41252 18.4123 1.46041 18.4123C1.48436 18.4123 1.53225 18.3914 1.56578 18.3657C1.5993 18.3401 1.63283 18.3191 1.64241 18.3191C1.66635 18.3191 1.72622 18.2538 1.72622 18.2282C1.72622 18.1979 1.76693 18.1932 1.7789 18.2235C1.78369 18.2328 1.80764 18.2235 1.83159 18.2002C1.87709 18.1559 1.87709 18.1559 1.8268 18.1559C1.75975 18.1559 1.75735 18.1093 1.82201 18.093C1.84835 18.086 1.8699 18.065 1.8699 18.0487C1.8699 18.03 1.89145 18.016 1.9178 18.016C1.97048 18.016 1.98724 18.0976 1.93695 18.1163C1.92019 18.1233 1.92977 18.1256 1.9609 18.1256C1.98964 18.1233 2.01358 18.114 2.01358 18.1046C2.01358 18.0953 2.04232 18.086 2.07824 18.086C2.13571 18.086 2.13811 18.0836 2.10219 18.058C2.06627 18.03 2.06866 18.0277 2.12613 18.0254C2.16445 18.023 2.2339 17.9951 2.28418 17.9624C2.33447 17.9298 2.40631 17.8972 2.44463 17.8878C2.48534 17.8785 2.51647 17.8645 2.51647 17.8552C2.51647 17.8435 2.56197 17.8179 2.61944 17.7923C2.67452 17.7689 2.74875 17.72 2.78468 17.6827C2.82299 17.6407 2.88046 17.6104 2.92596 17.6058C2.96907 17.6011 3.02893 17.5801 3.05767 17.5615C3.0888 17.5428 3.12951 17.5265 3.15106 17.5265C3.17262 17.5265 3.18219 17.5148 3.17501 17.5032C3.16783 17.4892 3.17262 17.4799 3.18938 17.4799C3.20375 17.4799 3.23488 17.4612 3.25643 17.4356C3.27798 17.4123 3.32588 17.3913 3.36419 17.3913C3.40251 17.3913 3.44322 17.375 3.45519 17.354C3.47674 17.319 3.66113 17.2234 3.71142 17.2234C3.72579 17.2234 3.73776 17.2141 3.73776 17.2025C3.73776 17.1908 3.77129 17.1698 3.8096 17.1558C3.85031 17.1442 3.88144 17.1209 3.88144 17.1092C3.88144 17.0952 3.88863 17.0859 3.9006 17.0882C3.92694 17.0929 4.00118 17.0579 4.00118 17.0369C4.00118 17.0276 3.97484 17.0253 3.94131 17.0323C3.90539 17.0369 3.88144 17.0323 3.88144 17.016C3.88144 16.9996 3.92215 16.9903 3.98442 16.9927C4.12091 16.995 4.24065 16.967 4.24065 16.932C4.24065 16.9181 4.26939 16.8901 4.3077 16.8738C4.37236 16.8411 4.39151 16.8341 4.44899 16.8295C4.46575 16.8295 4.47293 16.8132 4.46814 16.7968C4.45378 16.7619 4.56872 16.7059 4.59027 16.7386C4.59985 16.7525 4.61183 16.7549 4.62141 16.7386C4.62859 16.7269 4.67409 16.6989 4.71959 16.6756C4.76509 16.6523 4.83693 16.6127 4.87524 16.5847C4.91595 16.5591 4.95187 16.5357 4.95906 16.5334C4.96624 16.5334 5.00935 16.5148 5.05484 16.4938C5.10034 16.4705 5.1195 16.4588 5.09795 16.4658C5.07161 16.4705 5.05484 16.4635 5.05484 16.4425C5.05484 16.4192 5.07161 16.4145 5.12669 16.4308C5.16979 16.4425 5.19853 16.4425 5.19853 16.4285C5.19853 16.4168 5.21529 16.4075 5.23684 16.4075C5.256 16.4075 5.26558 16.3959 5.25839 16.3842C5.24403 16.3632 5.28234 16.3516 5.35897 16.3539C5.37573 16.3562 5.38292 16.3469 5.37573 16.3353C5.36855 16.3236 5.39489 16.3026 5.4356 16.2886C5.47631 16.2746 5.50984 16.2537 5.50984 16.242C5.50984 16.2304 5.53139 16.221 5.55773 16.221C5.58647 16.221 5.60562 16.2047 5.60562 16.1837C5.60562 16.1581 5.61999 16.1488 5.65352 16.1581C5.67986 16.1651 5.70141 16.1604 5.70141 16.1488C5.70141 16.1371 5.71578 16.1278 5.73254 16.1278C5.7517 16.1278 5.79002 16.1068 5.82115 16.0812C5.85228 16.0555 5.89299 16.0345 5.91454 16.0345C5.93609 16.0345 5.99356 15.9972 6.04385 15.9529C6.13006 15.876 6.2019 15.8434 6.16838 15.8947C6.16119 15.9087 6.17077 15.911 6.18993 15.904C6.21148 15.897 6.22824 15.8807 6.22824 15.8714C6.22824 15.8527 6.31924 15.8177 6.35516 15.8224C6.36474 15.8247 6.37911 15.8084 6.38629 15.7898C6.39348 15.7711 6.44137 15.7455 6.48927 15.7315C6.54913 15.7175 6.58984 15.6872 6.60661 15.6499C6.62576 15.6079 6.65211 15.5916 6.70239 15.5916C6.73831 15.5916 6.79339 15.5706 6.81973 15.5473C6.84847 15.5217 6.87481 15.5077 6.882 15.5147C6.89157 15.5217 6.91313 15.51 6.93468 15.489C6.95623 15.4681 6.98976 15.4517 7.00891 15.4517C7.02807 15.4517 7.04244 15.4401 7.04244 15.4284C7.04244 15.4144 7.04962 15.4074 7.0616 15.4098C7.07118 15.4144 7.1047 15.3981 7.13823 15.3748C7.16936 15.3538 7.18133 15.3352 7.16457 15.3352C7.14541 15.3352 7.13823 15.3282 7.14541 15.3212C7.15499 15.3119 7.17654 15.3189 7.1957 15.3328C7.21965 15.3515 7.23402 15.3538 7.24599 15.3352C7.25317 15.3212 7.26994 15.3165 7.28191 15.3235C7.29149 15.3305 7.30825 15.3189 7.31544 15.2979C7.32262 15.2792 7.33938 15.2676 7.34896 15.2746C7.36093 15.2816 7.39925 15.2606 7.43517 15.2303C7.47349 15.1976 7.60759 15.123 7.73451 15.0624C7.86143 14.9995 7.96919 14.9435 7.97158 14.9319C7.97637 14.9226 7.99074 14.9202 8.00271 14.9296C8.01469 14.9365 8.02426 14.9296 8.02426 14.9179C8.02426 14.9039 8.04103 14.8923 8.06019 14.8923C8.07934 14.8923 8.08892 14.8783 8.08174 14.8619C8.07695 14.8456 8.08653 14.813 8.10568 14.7873C8.13203 14.7524 8.14639 14.7477 8.17034 14.7687C8.20866 14.799 8.32839 14.7594 8.38107 14.6988C8.39784 14.6755 8.43136 14.6591 8.45531 14.6591C8.47686 14.6591 8.52476 14.6382 8.56068 14.6102C8.5942 14.5845 8.63252 14.5682 8.6421 14.5752C8.65407 14.5822 8.69717 14.5496 8.73788 14.5053C8.79296 14.447 8.82649 14.426 8.86001 14.4377C8.88875 14.4447 8.9103 14.4377 8.91988 14.4144C8.92706 14.3934 8.94622 14.3794 8.96299 14.3817C9.01806 14.3934 9.1809 14.3095 9.24556 14.2395C9.28148 14.1999 9.32458 14.1696 9.34374 14.1696C9.3629 14.1696 9.44192 14.1393 9.52095 14.0996C9.59997 14.0624 9.679 14.0297 9.69576 14.0297C9.71013 14.0297 9.7245 14.0204 9.7245 14.0087C9.7245 13.9971 9.74844 13.9831 9.77958 13.9784C9.80831 13.9738 9.82986 13.9574 9.82507 13.9411C9.82268 13.9225 9.82747 13.9155 9.83944 13.9225C9.86818 13.9388 10.0621 13.8432 10.1196 13.7826C10.146 13.7546 10.2154 13.7103 10.2753 13.687C10.3351 13.6614 10.4309 13.6218 10.4908 13.5961C10.5507 13.5728 10.6129 13.5402 10.6297 13.5238C10.6465 13.5075 10.6872 13.4865 10.7207 13.4796C10.7518 13.4726 10.7782 13.4562 10.7782 13.4446C10.7782 13.4329 10.7925 13.4236 10.8117 13.4236C10.8308 13.4236 10.85 13.4096 10.8572 13.391C10.874 13.3513 11.0152 13.2791 11.044 13.2977C11.0559 13.3047 11.0655 13.2977 11.0655 13.2837C11.0655 13.2697 11.0751 13.2628 11.0871 13.2721C11.0991 13.2791 11.1158 13.2744 11.1254 13.2604C11.1326 13.2488 11.1613 13.2371 11.1877 13.2371C11.214 13.2371 11.2284 13.2255 11.2212 13.2138C11.214 13.1998 11.2284 13.1905 11.2523 13.1905C11.2787 13.1905 11.305 13.1765 11.3122 13.1578C11.3194 13.1392 11.3577 13.1182 11.3984 13.1089C11.4391 13.0996 11.4678 13.0833 11.4583 13.0716C11.4511 13.0599 11.475 13.0506 11.5109 13.0506C11.5469 13.0506 11.5708 13.0436 11.5612 13.0366C11.554 13.0296 11.657 12.969 11.7911 12.9037C11.9252 12.8385 12.0402 12.7755 12.0426 12.7662C12.0473 12.7569 12.0641 12.7476 12.0809 12.7476C12.1216 12.7476 12.2293 12.6543 12.2198 12.6263C12.2174 12.6147 12.2246 12.6124 12.2389 12.6193C12.2772 12.6427 12.5023 12.5331 12.5023 12.4958C12.5023 12.4748 12.5167 12.4678 12.5383 12.4771C12.5574 12.4841 12.5742 12.4841 12.5742 12.4748C12.5742 12.4678 12.2772 12.1741 11.9156 11.8221C11.5061 11.4234 11.2475 11.188 11.2308 11.1997C11.214 11.209 11.2092 11.2066 11.2188 11.1903C11.2403 11.1577 10.8859 10.8033 10.8524 10.8243C10.8356 10.8337 10.8285 10.8267 10.8308 10.808C10.8356 10.7917 10.8237 10.78 10.8069 10.7847C10.7877 10.787 10.7806 10.78 10.7877 10.7684C10.7997 10.7521 9.84663 9.78695 9.81789 9.78695C9.8131 9.78695 9.77479 9.82425 9.73408 9.86854ZM9.88734 9.87554C9.9017 9.9175 9.85142 9.90817 9.83465 9.86621C9.82507 9.8429 9.83226 9.83358 9.84902 9.83824C9.86339 9.8429 9.88255 9.86155 9.88734 9.87554ZM7.49743 15.1487C7.49743 15.179 7.40164 15.179 7.35375 15.1487C7.32741 15.1324 7.34178 15.1254 7.40883 15.1254C7.45672 15.1254 7.49743 15.1347 7.49743 15.1487ZM3.88144 15.8364C3.88144 15.855 3.86468 15.8714 3.84552 15.8714C3.80721 15.8714 3.79763 15.8434 3.82637 15.8177C3.85271 15.7898 3.88144 15.7991 3.88144 15.8364ZM3.25882 17.3866C3.25882 17.4169 3.18698 17.4169 3.13909 17.3866C3.11275 17.3703 3.12233 17.3633 3.18219 17.3633C3.2229 17.3633 3.25882 17.3726 3.25882 17.3866ZM2.09261 17.4939C2.06627 17.5335 2.04711 17.5451 2.04232 17.5265C2.03514 17.5102 2.0495 17.4822 2.07585 17.4636C2.13811 17.4193 2.1405 17.4239 2.09261 17.4939ZM1.70946 17.8668C1.68312 17.9065 1.66396 17.9181 1.65917 17.8995C1.65199 17.8832 1.66635 17.8552 1.69269 17.8365C1.75496 17.7923 1.75735 17.7969 1.70946 17.8668ZM1.57057 17.9904C1.57775 18.0044 1.56099 18.0254 1.53465 18.0394C1.48675 18.065 1.48436 18.0627 1.5107 18.0184C1.53943 17.9648 1.54901 17.9601 1.57057 17.9904Z" fill="url(#paint1_linear_3025_4959)"/>
<path d="M9.73408 9.86854C9.69337 9.91284 9.64787 9.97578 9.6335 10.0084C9.61674 10.0411 9.57363 10.0807 9.53532 10.0923C9.48982 10.1087 9.45629 10.1413 9.43953 10.1856C9.42277 10.2322 9.38924 10.2672 9.34135 10.2835C9.30303 10.2975 9.26951 10.3208 9.26951 10.3348C9.26951 10.3744 9.14019 10.4863 9.09469 10.4863C9.07314 10.4863 9.05638 10.4933 9.05877 10.505C9.07075 10.5353 8.97017 10.6425 8.89593 10.6798C8.85522 10.7008 8.80733 10.7497 8.79057 10.7894C8.7738 10.8267 8.74746 10.8593 8.73309 10.8593C8.70196 10.8593 8.5511 11.0015 8.5511 11.0295C8.5511 11.0388 8.56786 11.0458 8.58702 11.0458C8.60857 11.0458 8.62294 11.0668 8.62294 11.1041C8.62294 11.1507 8.61096 11.1624 8.56307 11.1624C8.52955 11.1624 8.5032 11.1507 8.5032 11.139C8.5032 11.1251 8.49123 11.1157 8.47686 11.1157C8.42897 11.1157 7.2843 12.2627 7.29867 12.2976C7.30586 12.314 7.30346 12.3279 7.29149 12.3256C7.27952 12.3233 7.25796 12.3233 7.24359 12.3256C7.21246 12.3279 6.58745 12.9364 6.58745 12.962C6.58745 12.9714 6.57787 12.9807 6.5659 12.9807C6.52758 12.9807 6.08217 13.4329 6.07019 13.4865C6.06062 13.5169 6.03667 13.5402 6.01512 13.5402C5.96962 13.5402 5.30389 14.1859 5.32545 14.2092C5.33502 14.2162 5.35658 14.2092 5.37813 14.1929C5.40926 14.1673 5.41405 14.1719 5.41405 14.2255C5.41405 14.2815 5.40686 14.2861 5.31108 14.2861C5.23445 14.2861 5.19374 14.3001 5.16021 14.3351C5.12669 14.3724 5.12429 14.3887 5.14584 14.3957C5.16021 14.4027 5.17458 14.433 5.17458 14.4633C5.17458 14.5076 5.16261 14.5193 5.11471 14.5193C5.08119 14.5193 5.05484 14.5286 5.05484 14.5426C5.05484 14.5542 5.0285 14.5659 4.99498 14.5659C4.91595 14.5659 4.73156 14.7267 4.76748 14.7617C4.77945 14.7734 4.79143 14.8083 4.79143 14.8386C4.79143 14.8806 4.77706 14.8923 4.73396 14.8923C4.70043 14.8923 4.6669 14.8806 4.65733 14.8666C4.63817 14.8363 4.55435 14.9296 4.55196 14.9808C4.55196 15.0275 4.4873 15.0834 4.46814 15.0554C4.4442 15.0181 4.38433 15.0741 4.38433 15.1347C4.38433 15.1627 4.40588 15.1976 4.43222 15.214C4.4897 15.2489 4.49449 15.3072 4.4418 15.3282C4.41786 15.3375 4.38194 15.3189 4.34602 15.2792C4.27417 15.207 4.24783 15.2023 4.22868 15.2652C4.22149 15.2909 4.20233 15.3119 4.19036 15.3119C4.14247 15.3119 4.1736 15.3841 4.23107 15.4051C4.30291 15.4331 4.30052 15.51 4.22868 15.51C4.19754 15.51 4.17839 15.4914 4.1736 15.4587C4.16162 15.3748 4.09457 15.3935 3.96047 15.5193C3.86708 15.6079 3.84552 15.6406 3.86708 15.6639C3.88623 15.6849 3.88623 15.6872 3.86229 15.6732C3.82637 15.6546 3.66592 15.7898 3.66592 15.841C3.66592 15.8574 3.65155 15.869 3.63719 15.8644C3.62042 15.862 3.60366 15.883 3.59887 15.911C3.59408 15.9459 3.57492 15.9646 3.54379 15.9646C3.51745 15.9646 3.49111 15.9832 3.48153 16.0042C3.45279 16.0812 3.37616 16.1744 3.34024 16.1744C3.29474 16.1744 3.23488 16.2304 3.23488 16.2723C3.23488 16.3189 3.18459 16.3609 3.13191 16.3609C3.10796 16.3609 3.09599 16.3726 3.10317 16.3842C3.11035 16.3982 3.10077 16.4145 3.08162 16.4215C3.06007 16.4285 3.0433 16.4495 3.0433 16.4681C3.0433 16.4868 3.00738 16.5148 2.96428 16.5334C2.89244 16.5614 2.77749 16.6849 2.8206 16.6873C2.83257 16.6896 2.80623 16.7036 2.76312 16.7222C2.70805 16.7455 2.67931 16.7759 2.66494 16.8318C2.65057 16.8901 2.63141 16.9111 2.58352 16.9157C2.52844 16.9227 2.49252 16.9647 2.46139 17.0649C2.45421 17.0859 2.42308 17.1069 2.39195 17.1115C2.35842 17.1162 2.3225 17.1465 2.30095 17.1931C2.28179 17.2351 2.24347 17.2771 2.21713 17.2841C2.15487 17.305 2.06387 17.3703 2.06148 17.3936C2.06148 17.4029 2.02316 17.4496 1.97766 17.4962C1.93216 17.5428 1.89385 17.5941 1.89385 17.6127C1.89385 17.6291 1.86751 17.6547 1.83638 17.6664C1.80525 17.678 1.70467 17.7596 1.61367 17.8459C1.52267 17.9345 1.43167 18.0137 1.40773 18.023C1.38617 18.03 1.36702 18.0533 1.36702 18.072C1.36702 18.0883 1.35025 18.1116 1.3287 18.1186C1.30954 18.1256 1.29997 18.1419 1.30715 18.1559C1.31673 18.1699 1.3311 18.1746 1.34307 18.1676C1.38138 18.1443 1.39096 18.1979 1.35504 18.2259C1.33589 18.2422 1.31912 18.2678 1.31912 18.2818C1.31912 18.3098 1.26644 18.3564 1.18502 18.403C1.16107 18.4193 1.13952 18.452 1.14192 18.48C1.14192 18.5196 1.12994 18.5289 1.07486 18.5289C1.03894 18.5289 1.00781 18.5406 1.00781 18.5545C1.00781 18.5709 1.02936 18.5755 1.07247 18.5615C1.11078 18.5522 1.16347 18.5452 1.1946 18.5452C1.23291 18.5476 1.24728 18.5382 1.2377 18.5126C1.22812 18.4939 1.23291 18.4869 1.24968 18.4963C1.26404 18.5056 1.2832 18.5033 1.29278 18.4916C1.31673 18.4566 1.41252 18.4123 1.46041 18.4123C1.48436 18.4123 1.53225 18.3914 1.56578 18.3657C1.5993 18.3401 1.63283 18.3191 1.64241 18.3191C1.66635 18.3191 1.72622 18.2538 1.72622 18.2282C1.72622 18.1979 1.76693 18.1932 1.7789 18.2235C1.78369 18.2328 1.80764 18.2235 1.83159 18.2002C1.87709 18.1559 1.87709 18.1559 1.8268 18.1559C1.75975 18.1559 1.75735 18.1093 1.82201 18.093C1.84835 18.086 1.8699 18.065 1.8699 18.0487C1.8699 18.03 1.89145 18.016 1.9178 18.016C1.97048 18.016 1.98724 18.0976 1.93695 18.1163C1.92019 18.1233 1.92977 18.1256 1.9609 18.1256C1.98964 18.1233 2.01358 18.114 2.01358 18.1046C2.01358 18.0953 2.04232 18.086 2.07824 18.086C2.13571 18.086 2.13811 18.0836 2.10219 18.058C2.06627 18.03 2.06866 18.0277 2.12613 18.0254C2.16445 18.023 2.2339 17.9951 2.28418 17.9624C2.33447 17.9298 2.40631 17.8972 2.44463 17.8878C2.48534 17.8785 2.51647 17.8645 2.51647 17.8552C2.51647 17.8435 2.56197 17.8179 2.61944 17.7923C2.67452 17.7689 2.74875 17.72 2.78468 17.6827C2.82299 17.6407 2.88046 17.6104 2.92596 17.6058C2.96907 17.6011 3.02893 17.5801 3.05767 17.5615C3.0888 17.5428 3.12951 17.5265 3.15106 17.5265C3.17262 17.5265 3.18219 17.5148 3.17501 17.5032C3.16783 17.4892 3.17262 17.4799 3.18938 17.4799C3.20375 17.4799 3.23488 17.4612 3.25643 17.4356C3.27798 17.4123 3.32588 17.3913 3.36419 17.3913C3.40251 17.3913 3.44322 17.375 3.45519 17.354C3.47674 17.319 3.66113 17.2234 3.71142 17.2234C3.72579 17.2234 3.73776 17.2141 3.73776 17.2025C3.73776 17.1908 3.77129 17.1698 3.8096 17.1558C3.85031 17.1442 3.88144 17.1209 3.88144 17.1092C3.88144 17.0952 3.88863 17.0859 3.9006 17.0882C3.92694 17.0929 4.00118 17.0579 4.00118 17.0369C4.00118 17.0276 3.97484 17.0253 3.94131 17.0323C3.90539 17.0369 3.88144 17.0323 3.88144 17.016C3.88144 16.9996 3.92215 16.9903 3.98442 16.9927C4.12091 16.995 4.24065 16.967 4.24065 16.932C4.24065 16.9181 4.26939 16.8901 4.3077 16.8738C4.37236 16.8411 4.39151 16.8341 4.44899 16.8295C4.46575 16.8295 4.47293 16.8132 4.46814 16.7968C4.45378 16.7619 4.56872 16.7059 4.59027 16.7386C4.59985 16.7525 4.61183 16.7549 4.62141 16.7386C4.62859 16.7269 4.67409 16.6989 4.71959 16.6756C4.76509 16.6523 4.83693 16.6127 4.87524 16.5847C4.91595 16.5591 4.95187 16.5357 4.95906 16.5334C4.96624 16.5334 5.00935 16.5148 5.05484 16.4938C5.10034 16.4705 5.1195 16.4588 5.09795 16.4658C5.07161 16.4705 5.05484 16.4635 5.05484 16.4425C5.05484 16.4192 5.07161 16.4145 5.12669 16.4308C5.16979 16.4425 5.19853 16.4425 5.19853 16.4285C5.19853 16.4168 5.21529 16.4075 5.23684 16.4075C5.256 16.4075 5.26558 16.3959 5.25839 16.3842C5.24403 16.3632 5.28234 16.3516 5.35897 16.3539C5.37573 16.3562 5.38292 16.3469 5.37573 16.3353C5.36855 16.3236 5.39489 16.3026 5.4356 16.2886C5.47631 16.2746 5.50984 16.2537 5.50984 16.242C5.50984 16.2304 5.53139 16.221 5.55773 16.221C5.58647 16.221 5.60562 16.2047 5.60562 16.1837C5.60562 16.1581 5.61999 16.1488 5.65352 16.1581C5.67986 16.1651 5.70141 16.1604 5.70141 16.1488C5.70141 16.1371 5.71578 16.1278 5.73254 16.1278C5.7517 16.1278 5.79002 16.1068 5.82115 16.0812C5.85228 16.0555 5.89299 16.0345 5.91454 16.0345C5.93609 16.0345 5.99356 15.9972 6.04385 15.9529C6.13006 15.876 6.2019 15.8434 6.16838 15.8947C6.16119 15.9087 6.17077 15.911 6.18993 15.904C6.21148 15.897 6.22824 15.8807 6.22824 15.8714C6.22824 15.8527 6.31924 15.8177 6.35516 15.8224C6.36474 15.8247 6.37911 15.8084 6.38629 15.7898C6.39348 15.7711 6.44137 15.7455 6.48927 15.7315C6.54913 15.7175 6.58984 15.6872 6.60661 15.6499C6.62576 15.6079 6.65211 15.5916 6.70239 15.5916C6.73831 15.5916 6.79339 15.5706 6.81973 15.5473C6.84847 15.5217 6.87481 15.5077 6.882 15.5147C6.89157 15.5217 6.91313 15.51 6.93468 15.489C6.95623 15.4681 6.98976 15.4517 7.00891 15.4517C7.02807 15.4517 7.04244 15.4401 7.04244 15.4284C7.04244 15.4144 7.04962 15.4074 7.0616 15.4098C7.07118 15.4144 7.1047 15.3981 7.13823 15.3748C7.16936 15.3538 7.18133 15.3352 7.16457 15.3352C7.14541 15.3352 7.13823 15.3282 7.14541 15.3212C7.15499 15.3119 7.17654 15.3189 7.1957 15.3328C7.21965 15.3515 7.23402 15.3538 7.24599 15.3352C7.25317 15.3212 7.26994 15.3165 7.28191 15.3235C7.29149 15.3305 7.30825 15.3189 7.31544 15.2979C7.32262 15.2792 7.33938 15.2676 7.34896 15.2746C7.36093 15.2816 7.39925 15.2606 7.43517 15.2303C7.47349 15.1976 7.60759 15.123 7.73451 15.0624C7.86143 14.9995 7.96919 14.9435 7.97158 14.9319C7.97637 14.9226 7.99074 14.9202 8.00271 14.9296C8.01469 14.9365 8.02426 14.9296 8.02426 14.9179C8.02426 14.9039 8.04103 14.8923 8.06019 14.8923C8.07934 14.8923 8.08892 14.8783 8.08174 14.8619C8.07695 14.8456 8.08653 14.813 8.10568 14.7873C8.13203 14.7524 8.14639 14.7477 8.17034 14.7687C8.20866 14.799 8.32839 14.7594 8.38107 14.6988C8.39784 14.6755 8.43136 14.6591 8.45531 14.6591C8.47686 14.6591 8.52476 14.6382 8.56068 14.6102C8.5942 14.5845 8.63252 14.5682 8.6421 14.5752C8.65407 14.5822 8.69717 14.5496 8.73788 14.5053C8.79296 14.447 8.82649 14.426 8.86001 14.4377C8.88875 14.4447 8.9103 14.4377 8.91988 14.4144C8.92706 14.3934 8.94622 14.3794 8.96299 14.3817C9.01806 14.3934 9.1809 14.3095 9.24556 14.2395C9.28148 14.1999 9.32458 14.1696 9.34374 14.1696C9.3629 14.1696 9.44192 14.1393 9.52095 14.0996C9.59997 14.0624 9.679 14.0297 9.69576 14.0297C9.71013 14.0297 9.7245 14.0204 9.7245 14.0087C9.7245 13.9971 9.74844 13.9831 9.77958 13.9784C9.80831 13.9738 9.82986 13.9574 9.82507 13.9411C9.82268 13.9225 9.82747 13.9155 9.83944 13.9225C9.86818 13.9388 10.0621 13.8432 10.1196 13.7826C10.146 13.7546 10.2154 13.7103 10.2753 13.687C10.3351 13.6614 10.4309 13.6218 10.4908 13.5961C10.5507 13.5728 10.6129 13.5402 10.6297 13.5238C10.6465 13.5075 10.6872 13.4865 10.7207 13.4796C10.7518 13.4726 10.7782 13.4562 10.7782 13.4446C10.7782 13.4329 10.7925 13.4236 10.8117 13.4236C10.8308 13.4236 10.85 13.4096 10.8572 13.391C10.874 13.3513 11.0152 13.2791 11.044 13.2977C11.0559 13.3047 11.0655 13.2977 11.0655 13.2837C11.0655 13.2697 11.0751 13.2628 11.0871 13.2721C11.0991 13.2791 11.1158 13.2744 11.1254 13.2604C11.1326 13.2488 11.1613 13.2371 11.1877 13.2371C11.214 13.2371 11.2284 13.2255 11.2212 13.2138C11.214 13.1998 11.2284 13.1905 11.2523 13.1905C11.2787 13.1905 11.305 13.1765 11.3122 13.1578C11.3194 13.1392 11.3577 13.1182 11.3984 13.1089C11.4391 13.0996 11.4678 13.0833 11.4583 13.0716C11.4511 13.0599 11.475 13.0506 11.5109 13.0506C11.5469 13.0506 11.5708 13.0436 11.5612 13.0366C11.554 13.0296 11.657 12.969 11.7911 12.9037C11.9252 12.8385 12.0402 12.7755 12.0426 12.7662C12.0473 12.7569 12.0641 12.7476 12.0809 12.7476C12.1216 12.7476 12.2293 12.6543 12.2198 12.6263C12.2174 12.6147 12.2246 12.6124 12.2389 12.6193C12.2772 12.6427 12.5023 12.5331 12.5023 12.4958C12.5023 12.4748 12.5167 12.4678 12.5383 12.4771C12.5574 12.4841 12.5742 12.4841 12.5742 12.4748C12.5742 12.4678 12.2772 12.1741 11.9156 11.8221C11.5061 11.4234 11.2475 11.188 11.2308 11.1997C11.214 11.209 11.2092 11.2066 11.2188 11.1903C11.2403 11.1577 10.8859 10.8033 10.8524 10.8243C10.8356 10.8337 10.8285 10.8267 10.8308 10.808C10.8356 10.7917 10.8237 10.78 10.8069 10.7847C10.7877 10.787 10.7806 10.78 10.7877 10.7684C10.7997 10.7521 9.84663 9.78695 9.81789 9.78695C9.8131 9.78695 9.77479 9.82425 9.73408 9.86854ZM9.88734 9.87554C9.9017 9.9175 9.85142 9.90817 9.83465 9.86621C9.82507 9.8429 9.83226 9.83358 9.84902 9.83824C9.86339 9.8429 9.88255 9.86155 9.88734 9.87554ZM7.49743 15.1487C7.49743 15.179 7.40164 15.179 7.35375 15.1487C7.32741 15.1324 7.34178 15.1254 7.40883 15.1254C7.45672 15.1254 7.49743 15.1347 7.49743 15.1487ZM3.88144 15.8364C3.88144 15.855 3.86468 15.8714 3.84552 15.8714C3.80721 15.8714 3.79763 15.8434 3.82637 15.8177C3.85271 15.7898 3.88144 15.7991 3.88144 15.8364ZM3.25882 17.3866C3.25882 17.4169 3.18698 17.4169 3.13909 17.3866C3.11275 17.3703 3.12233 17.3633 3.18219 17.3633C3.2229 17.3633 3.25882 17.3726 3.25882 17.3866ZM2.09261 17.4939C2.06627 17.5335 2.04711 17.5451 2.04232 17.5265C2.03514 17.5102 2.0495 17.4822 2.07585 17.4636C2.13811 17.4193 2.1405 17.4239 2.09261 17.4939ZM1.70946 17.8668C1.68312 17.9065 1.66396 17.9181 1.65917 17.8995C1.65199 17.8832 1.66635 17.8552 1.69269 17.8365C1.75496 17.7923 1.75735 17.7969 1.70946 17.8668ZM1.57057 17.9904C1.57775 18.0044 1.56099 18.0254 1.53465 18.0394C1.48675 18.065 1.48436 18.0627 1.5107 18.0184C1.53943 17.9648 1.54901 17.9601 1.57057 17.9904Z" fill="white" fill-opacity="0.26"/>
<path d="M1.20928 18.2452C1.20207 18.2733 1.18042 18.2944 1.16358 18.2944C1.14434 18.2944 1.11789 18.3202 1.10105 18.3531C1.08662 18.3836 1.06497 18.4047 1.05535 18.3977C1.04573 18.393 1.02408 18.407 1.00965 18.4328C0.968764 18.5126 1.02889 18.5149 1.077 18.4375C1.10105 18.3953 1.14434 18.3601 1.18042 18.3531C1.22371 18.3437 1.24777 18.3202 1.25739 18.2804C1.26941 18.21 1.22853 18.1772 1.20928 18.2452Z" fill="white"/>
<path d="M0.910113 18.5334C0.907719 18.5498 0.907719 18.5709 0.910113 18.5802C0.910113 18.5919 0.89335 18.599 0.871798 18.6013C0.840667 18.6013 0.845456 18.6083 0.886166 18.6247C0.953218 18.6505 0.986745 18.62 0.967587 18.5498C0.953218 18.5006 0.914903 18.4889 0.910113 18.5334Z" fill="white"/>
<path d="M0.730469 0.809437C0.730469 0.825755 2.77314 2.82825 5.26841 5.25734C8.42462 8.33218 9.80636 9.66096 9.80636 9.62832C9.80636 9.60268 9.81594 9.5747 9.82791 9.56771C9.83988 9.56072 9.84467 9.53041 9.83749 9.5001C9.82791 9.45348 9.83031 9.45115 9.86144 9.48845C9.90454 9.54207 9.91651 9.54207 9.93328 9.48379C9.94046 9.45814 9.96201 9.43716 9.98357 9.43716C10.0339 9.43716 10.0315 9.39986 9.98117 9.37888C9.94046 9.3649 9.94046 9.36256 9.98117 9.34158C10.0027 9.3276 10.0219 9.30195 10.0219 9.28564C10.0219 9.23202 10.065 9.24601 10.0746 9.30195C10.0817 9.34625 10.1009 9.33226 10.2446 9.19472C10.3883 9.05485 10.405 9.0292 10.405 8.94761C10.405 8.89633 10.417 8.85437 10.429 8.85437C10.4433 8.85437 10.4529 8.88234 10.4529 8.91498V8.97326L10.5224 8.90798L10.5894 8.84271L10.5343 8.83572C10.4338 8.82173 10.4721 8.77977 10.5727 8.78909C10.6565 8.79609 10.6708 8.79142 10.6828 8.74713C10.69 8.71916 10.7163 8.69118 10.7427 8.68419C10.7762 8.67486 10.7882 8.65155 10.7906 8.58162C10.7906 8.50469 10.7954 8.50003 10.8121 8.54432C10.8241 8.57462 10.8385 8.59794 10.8433 8.59794C10.848 8.59794 10.8816 8.56763 10.9199 8.528L10.9869 8.4604L10.9295 8.43708C10.872 8.41377 10.872 8.41377 10.9271 8.41377C10.9558 8.41144 10.9798 8.40212 10.9798 8.39046C10.9798 8.3788 11.0013 8.37414 11.0253 8.38113C11.0588 8.38813 11.0708 8.38113 11.0684 8.3485C11.066 8.32286 11.0779 8.30654 11.1043 8.30887C11.1546 8.31353 11.4467 8.02679 11.4467 7.97318C11.4467 7.94986 11.4635 7.93588 11.4874 7.93588C11.5377 7.94054 11.8299 7.6538 11.8299 7.60019C11.8299 7.57921 11.849 7.56056 11.8706 7.56056C11.8945 7.56056 11.9305 7.54191 11.9544 7.5186C11.976 7.49761 11.9831 7.47897 11.9688 7.47897C11.9544 7.47897 11.9376 7.45332 11.9328 7.42069C11.9185 7.35308 11.9592 7.34142 11.9783 7.4067C11.9903 7.45099 11.9951 7.45099 12.0813 7.39504C12.1939 7.32044 12.2442 7.23885 12.2034 7.1899C12.1867 7.16892 12.1771 7.14094 12.1843 7.12462C12.1915 7.10364 12.2034 7.11064 12.2154 7.14094C12.2274 7.16659 12.2489 7.1899 12.2633 7.19223C12.2777 7.19456 12.3543 7.12462 12.4333 7.03837L12.5794 6.88218L12.4525 6.80758C12.383 6.76562 12.3208 6.73298 12.316 6.73298C12.3088 6.73298 12.2202 6.68636 12.1172 6.62808C12.0143 6.57213 11.9209 6.53017 11.9089 6.53717C11.8993 6.54416 11.8897 6.5395 11.8897 6.52551C11.8897 6.51385 11.7796 6.44625 11.6455 6.37631C11.2168 6.15485 11.0708 6.07792 10.8193 5.93805C10.6828 5.86112 10.5679 5.80051 10.5631 5.80051C10.5583 5.80051 10.4697 5.75389 10.3667 5.70027C10.2613 5.64432 10.0913 5.5534 9.98596 5.49746C9.88059 5.44384 9.76086 5.37856 9.72015 5.35525C9.67944 5.33194 9.63873 5.31795 9.63155 5.32728C9.62197 5.33427 9.61478 5.32961 9.61478 5.31795C9.61478 5.30397 9.56449 5.269 9.50223 5.23869C9.43758 5.20839 9.32502 5.15011 9.24839 5.10815C9.17416 5.06385 9.09992 5.03588 9.08316 5.04521C9.06879 5.05453 9.064 5.0522 9.07119 5.03821C9.07837 5.02656 9.04006 4.99392 8.98498 4.96594C8.9299 4.93797 8.8413 4.88902 8.78861 4.86104C8.73593 4.83074 8.60183 4.75847 8.48928 4.70019C8.37673 4.64191 8.1181 4.50437 7.91455 4.39713C7.17938 4.0055 7.06204 3.94255 6.82496 3.819C6.69326 3.7514 6.54239 3.6698 6.48971 3.6395C6.43702 3.60919 6.32926 3.55325 6.25024 3.51361C6.17121 3.47398 6.03711 3.40172 5.9509 3.35276C5.56296 3.13829 5.41928 3.07069 5.36899 3.08468C5.33068 3.09633 5.32589 3.094 5.34983 3.07768C5.37617 3.05903 5.37139 3.04738 5.32589 3.02173C5.16065 2.92149 5.08163 2.88653 5.06007 2.90051C5.04571 2.90984 5.04092 2.90751 5.0481 2.89352C5.05529 2.88186 5.02176 2.85156 4.97387 2.82591C4.73679 2.70469 4.20756 2.42728 3.68073 2.14754C3.45324 2.02865 3.25448 1.9354 3.24011 1.94473C3.22574 1.95405 3.22095 1.95172 3.23053 1.9354C3.2449 1.91442 3.18264 1.87712 2.70609 1.62768C2.30857 1.41788 2.20799 1.36426 1.96374 1.23371C1.82005 1.15445 1.57101 1.02857 1.41296 0.951639C1.15193 0.823424 1.10644 0.809437 0.929228 0.79545C0.780757 0.786125 0.730469 0.788456 0.730469 0.809437ZM0.840625 0.837411C0.847809 0.851398 0.876545 0.858392 0.900492 0.851398C0.953175 0.837411 0.962754 0.877042 0.912465 0.895691C0.893308 0.902684 0.852598 0.886366 0.823862 0.860723C0.792731 0.832748 0.780757 0.811769 0.79752 0.811769C0.811888 0.811769 0.831046 0.823424 0.840625 0.837411ZM2.2511 1.55309C2.22955 1.57407 2.16728 1.53444 2.16728 1.49714C2.16728 1.45984 2.17207 1.45984 2.21518 1.49947C2.24152 1.52278 2.25828 1.54609 2.2511 1.55309ZM3.67594 2.22214C3.67594 2.24312 3.65439 2.2571 3.61607 2.2571C3.55381 2.2571 3.53466 2.22214 3.58734 2.20349C3.64242 2.18018 3.67594 2.18717 3.67594 2.22214ZM6.18558 3.54625C6.19037 3.57423 6.1784 3.58588 6.14487 3.58588C6.11613 3.58588 6.09458 3.57189 6.09458 3.55558C6.09458 3.48331 6.17121 3.47632 6.18558 3.54625ZM6.44421 3.67214C6.48731 3.73042 6.48492 3.74906 6.43223 3.74906C6.38913 3.74906 6.34842 3.67214 6.37716 3.64649C6.39871 3.62551 6.41068 3.63017 6.44421 3.67214ZM11.6096 7.70509C11.5832 7.77736 11.5736 7.78435 11.5401 7.75638C11.4946 7.72141 11.497 7.69343 11.5497 7.68178C11.6215 7.66313 11.6263 7.66546 11.6096 7.70509ZM11.339 8.06176C11.339 8.07342 11.3222 8.08507 11.303 8.08507C11.2839 8.08507 11.2671 8.07342 11.2671 8.06176C11.2671 8.04777 11.2839 8.03845 11.303 8.03845C11.3222 8.03845 11.339 8.04777 11.339 8.06176ZM11.2192 8.16433C11.2192 8.18298 11.2096 8.2063 11.1953 8.21329C11.1833 8.22028 11.1713 8.2063 11.1713 8.18065C11.1713 8.15268 11.1833 8.1317 11.1953 8.1317C11.2096 8.1317 11.2192 8.14568 11.2192 8.16433ZM10.2015 9.18073C10.1943 9.19239 10.1704 9.20404 10.1512 9.20404C10.132 9.20404 10.1177 9.19239 10.1177 9.18073C10.1177 9.16674 10.1392 9.15742 10.168 9.15742C10.1943 9.15742 10.2087 9.16674 10.2015 9.18073Z" fill="#D3EFFF"/>
<path d="M0.590611 0.828674C0.55948 0.833336 0.535533 0.847322 0.535533 0.858978C0.535533 0.870634 0.511586 0.88229 0.48285 0.886953C0.451719 0.891615 0.430166 0.907934 0.434956 0.924252C0.437351 0.942902 0.430166 0.949896 0.415798 0.940571C0.391851 0.926582 0.221828 1.05247 0.224223 1.08044C0.224223 1.08743 0.197881 1.1294 0.164355 1.17136C0.123646 1.22264 0.109278 1.2646 0.121251 1.29025C0.13083 1.31822 0.128435 1.32755 0.109278 1.31589C0.0757518 1.29724 0.0565943 1.36251 0.0494102 1.51637C0.0470155 1.57465 0.035042 1.62128 0.0206739 1.62128C-0.0104572 1.61662 -0.0128518 17.8906 0.0182792 17.9582C0.0302526 17.9839 0.0374367 18.0212 0.035042 18.0445C0.0326473 18.0655 0.0422261 18.0888 0.0565943 18.0981C0.0685677 18.1051 0.0805412 18.1331 0.0805412 18.1564C0.0805412 18.182 0.104488 18.224 0.135619 18.252C0.164355 18.2799 0.173934 18.2939 0.154777 18.2846C0.135619 18.273 0.154777 18.3149 0.200276 18.3732C0.24338 18.4338 0.293669 18.4828 0.310432 18.4828C0.3248 18.4828 0.343957 18.4967 0.351142 18.5131C0.355931 18.5294 0.411009 18.5667 0.470876 18.597C0.552296 18.6366 0.588216 18.6436 0.621742 18.6273C0.664846 18.604 1.50299 17.7974 1.80712 17.4897C1.88135 17.4127 2.03222 17.2659 2.14237 17.161C2.65005 16.6808 3.1218 16.2052 3.1218 16.1749C3.1218 16.1586 3.12659 16.1492 3.13378 16.1562C3.15293 16.1726 3.31338 16.0257 3.31338 15.9931C3.31338 15.9767 3.32056 15.9651 3.33253 15.9651C3.35169 15.9651 3.68455 15.648 3.74442 15.5734C3.76358 15.5501 3.80429 15.5175 3.83542 15.5012C3.86416 15.4872 3.8881 15.4592 3.8881 15.4429C3.8881 15.4266 3.92402 15.3869 3.96713 15.3566C4.01023 15.3263 4.1156 15.2261 4.19941 15.1375C4.28323 15.0466 4.37662 14.958 4.40775 14.9394C4.43888 14.9207 4.46283 14.8974 4.46283 14.8904C4.46283 14.8764 5.63623 13.7201 6.72821 12.6548C6.89344 12.4939 7.04191 12.3494 7.05628 12.3354C7.07305 12.3191 7.15926 12.2352 7.24786 12.1489C7.33886 12.0603 7.45141 11.9484 7.4993 11.8995C7.54959 11.8505 8.07642 11.333 8.6727 10.7502C9.75271 9.69418 9.7575 9.68952 9.71439 9.64056C9.69045 9.61259 7.65256 7.62642 5.18603 5.22529C2.71949 2.82417 0.707951 0.858978 0.719924 0.858978C0.729503 0.858978 0.722319 0.847322 0.703161 0.835667C0.684004 0.824011 0.662452 0.814686 0.655268 0.817017C0.648084 0.817017 0.619347 0.824011 0.590611 0.828674Z" fill="white" fill-opacity="0.29"/>
<defs>
<linearGradient id="paint0_linear_3025_4959" x1="9.93007" y1="9.68288" x2="17.1608" y2="9.68288" gradientUnits="userSpaceOnUse">
<stop stop-color="#3793AE"/>
<stop offset="1" stop-color="#074287"/>
</linearGradient>
<linearGradient id="paint1_linear_3025_4959" x1="1.08908" y1="14.1784" x2="12.5742" y2="14.1784" gradientUnits="userSpaceOnUse">
<stop stop-color="#3793AE"/>
<stop offset="1" stop-color="#074287"/>
</linearGradient>
</defs>
</svg>
