<svg width="191" height="37" viewBox="0 0 191 37" fill="none" xmlns="http://www.w3.org/2000/svg">
<path d="M58.0073 7.49613C56.7165 7.80677 55.6436 8.28092 54.5204 9.033C53.2296 9.91588 53.0117 10.1121 52.0729 11.2402C47.664 16.5212 50.4803 24.647 57.4206 26.6416C58.6611 26.985 61.9134 27.034 63.0365 26.7234C65.4841 26.0203 67.831 24.1892 68.7195 22.2762C69.4907 20.5922 69.8595 18.6139 69.6583 17.1261L69.541 16.2269L64.9979 16.2759L60.4381 16.325L60.3878 17.5839L60.3375 18.8592H63.64H66.9426L66.8252 19.5458C66.1714 23.5842 61.0919 25.677 56.9177 23.6333C54.1013 22.2762 52.4752 19.1208 52.9781 16.047C53.5146 12.6953 56.2471 10.1611 59.5664 9.91588C61.6451 9.76874 62.6845 10.063 64.9979 11.5018C65.35 11.7144 65.417 11.6817 66.2552 10.8642L67.1437 9.99763L66.4564 9.39269C64.4112 7.62693 60.8405 6.82579 58.0073 7.49613Z" fill="white"/>
<path d="M113.02 17.4737V26.9302H114.539H116.059V17.4737V8.01724H114.539H113.02V17.4737Z" fill="white"/>
<path d="M136.613 18.1811L136.664 26.8319L137.991 26.881L139.335 26.9302L139.37 23.5223L139.421 20.1144L142.006 20.0325C144.333 19.9669 144.694 19.9014 145.539 19.5246C146.728 18.9839 147.882 17.9353 148.348 16.9523C148.865 15.8545 148.865 13.8557 148.348 12.7907C147.813 11.6602 146.504 10.4969 145.263 10.0218C144.315 9.66135 143.971 9.62858 140.404 9.57943L136.578 9.53028L136.613 18.1811ZM144.591 12.3811C145.591 12.9218 146.056 13.6591 146.056 14.7404C146.056 15.7235 145.901 16.1167 145.211 16.8048C144.47 17.5749 143.816 17.7387 141.472 17.7387H139.335V14.8715V12.0043H141.627C143.661 12.0043 143.971 12.0534 144.591 12.3811Z" fill="white"/>
<path d="M151.045 9.89141C150.986 10.1705 151.025 25.9617 151.084 26.7989C151.104 26.8809 151.773 26.9302 152.579 26.9302H154.055V18.2302V9.53028H152.599C151.261 9.53028 151.143 9.56311 151.045 9.89141Z" fill="white"/>
<path d="M160.465 14.1613C158.944 14.4858 156.861 15.6865 156.861 16.2381C156.861 16.3517 157.181 16.7248 157.582 17.0656L158.319 17.6659L158.751 17.244C160.802 15.2484 164.551 16.1894 164.551 18.688C164.551 19.4993 164.535 19.4993 163.317 19.1423C162.051 18.7692 159.793 18.8827 158.703 19.3857C157.085 20.1158 156.316 21.284 156.332 22.9714C156.332 24.2369 156.717 25.0968 157.598 25.8918C158.511 26.703 159.168 26.914 160.706 26.9302C161.907 26.9302 162.18 26.8815 162.788 26.5083C163.189 26.2812 163.734 25.8593 163.99 25.5673L164.47 25.0481L164.551 25.8431L164.631 26.6219L165.8 26.6706L166.97 26.7193L166.922 22.0465C166.873 17.5199 166.857 17.3576 166.505 16.6437C165.832 15.362 164.743 14.5832 163.141 14.2262C162.308 14.0478 161.09 14.0153 160.465 14.1613ZM163.894 21.1055C164.583 21.3976 164.583 21.3976 164.503 22.1114C164.294 23.9611 162.212 25.4213 160.433 24.9345C159.52 24.6912 158.976 24.1882 158.847 23.5392C158.623 22.2899 159.216 21.2029 160.289 20.8621C161.026 20.635 163.093 20.781 163.894 21.1055Z" fill="white"/>
<path d="M75.8551 14.9139C73.1036 15.3788 71.0025 17.5209 70.5522 20.3605C70.0353 23.5155 72.0864 26.6207 75.2548 27.4676C78.3231 28.2813 81.5415 26.7702 82.8589 23.914C83.4258 22.6852 83.5592 20.6926 83.159 19.3807C82.2419 16.3087 79.0902 14.3825 75.8551 14.9139ZM78.8067 17.8198C81.5081 19.3807 81.2246 23.7646 78.3564 24.9436C77.4893 25.3089 76.1886 25.2757 75.4049 24.8772C73.9374 24.1299 73.0869 22.5192 73.2704 20.7756C73.5705 17.9693 76.4387 16.425 78.8067 17.8198Z" fill="white"/>
<path d="M90.6927 14.8571C89.4417 14.9901 88.0239 15.6218 87.0564 16.5029C84.9881 18.3648 84.3709 20.9748 85.3717 23.6346C86.4559 26.5272 89.7419 28.2395 92.8445 27.5246C94.6626 27.109 96.3807 25.8124 97.1814 24.2497C98.0321 22.5873 98.0321 20.1103 97.1814 18.3149C96.1138 16.054 93.3616 14.5911 90.6927 14.8571ZM92.4108 17.4172C93.2115 17.6333 94.279 18.5809 94.7294 19.462C95.1631 20.2932 95.1964 22.0055 94.7961 22.9198C94.1122 24.5157 92.7778 25.3136 91.0263 25.1806C89.7086 25.0809 88.8078 24.4658 88.1406 23.219C87.7069 22.3878 87.6736 22.1883 87.7236 21.0579C87.8237 19.2791 88.4909 18.2817 90.0255 17.5834C90.8762 17.2011 91.4934 17.1512 92.4108 17.4172Z" fill="white"/>
<path d="M103.78 14.9023C102.034 15.1782 100.075 16.6227 99.2523 18.2295C97.6719 21.3295 99.0054 25.2409 102.166 26.7665C103.121 27.2372 103.401 27.3021 104.652 27.3021C106.15 27.3021 106.776 27.0911 107.632 26.2959C108.208 25.7765 108.34 25.9875 108.208 27.2859C108.01 29.3309 107.286 30.2073 105.459 30.6131C104.026 30.9377 102.627 30.3047 101.656 28.8764L101.409 28.5194L100.24 28.9576L99.0877 29.3958L99.4169 30.0288C99.8944 30.9539 100.997 31.9764 102.117 32.512C103.006 32.934 103.236 32.9827 104.817 32.9827C106.348 32.9827 106.66 32.934 107.484 32.5445C109.064 31.8141 110.151 30.4508 110.562 28.6655C110.661 28.2435 110.743 25.2734 110.743 21.5729V15.2107H109.508H108.274V15.6976C108.274 16.2657 108.109 16.3143 107.714 15.8761C107.352 15.4704 106.068 14.951 105.228 14.8536C104.866 14.8049 104.208 14.8212 103.78 14.9023ZM106.479 17.5803C107.121 17.9049 107.5 18.2944 107.977 19.1871C108.521 20.1609 108.504 22.1572 107.945 23.1635C106.479 25.7603 102.775 25.5006 101.606 22.7252C101.244 21.8813 101.294 20.1609 101.689 19.3494C102.117 18.4892 102.973 17.6777 103.763 17.3855C104.537 17.1096 105.739 17.1908 106.479 17.5803Z" fill="white"/>
<path d="M122.435 14.9033C120.574 15.2032 119.049 16.3695 118.134 18.2356C117.556 19.3852 117.412 21.8011 117.813 23.2339C118.937 27.2826 123.799 28.9987 127.202 26.5662C127.683 26.2163 128.245 25.7165 128.454 25.4166L128.839 24.9001L127.828 24.217L126.833 23.5338L126.255 24.117C125.95 24.4336 125.42 24.8001 125.099 24.9501C124.297 25.2833 122.949 25.2666 122.146 24.8834C121.537 24.6002 120.638 23.6172 120.638 23.2673C120.638 23.184 122.211 22.4509 124.136 21.6345C126.046 20.8347 127.924 20.0183 128.293 19.8517L128.983 19.5518L128.662 18.7854C127.459 15.8697 125.196 14.4701 122.435 14.9033ZM124.795 17.5191C125.469 17.8857 125.838 18.2689 125.741 18.5355C125.709 18.6354 125.003 19.0186 124.169 19.3852C123.334 19.7517 122.114 20.2849 121.472 20.5681C120.83 20.8514 120.269 21.0347 120.221 20.9847C119.98 20.7347 120.365 19.3185 120.846 18.6521C121.825 17.3192 123.495 16.836 124.795 17.5191Z" fill="white"/>
<path d="M168.488 14.9565C168.488 15.1015 171.2 21.0782 173.103 25.17C173.642 26.3299 173.642 26.5394 173.103 27.5704C172.85 28.0376 172.261 29.2619 171.772 30.309L170.88 32.2261L172.244 32.1777L173.608 32.1294L174.686 29.7935C175.275 28.5047 176.016 26.8777 176.319 26.1688C176.622 25.46 177.902 22.6247 179.149 19.8861L181.405 14.8921L180.058 14.8437C179.317 14.8115 178.694 14.8276 178.643 14.8598C178.61 14.9082 178.138 15.9714 177.599 17.2441C177.06 18.5167 176.572 19.6766 176.521 19.8055C176.454 19.9344 176.134 20.7238 175.78 21.5615C175.427 22.3992 175.073 23.0758 174.972 23.0758C174.821 23.0597 173.507 20.1922 171.789 16.1808L171.233 14.8921L169.869 14.8437C169.01 14.8115 168.488 14.8598 168.488 14.9565Z" fill="white"/>
<path d="M28.652 16.5186C27.3636 17.8175 26.3047 18.8958 26.3047 18.9159C26.3047 18.972 26.7597 19.421 26.8201 19.421C26.8442 19.421 26.8684 19.441 26.8684 19.4691C26.8684 19.5172 30.8665 23.5259 30.9832 23.59C31.0356 23.6221 31.1121 23.5981 31.2852 23.5059C31.414 23.4377 31.7281 23.2653 31.9817 23.129C32.2354 22.9927 32.5374 22.8284 32.6461 22.7723C32.7588 22.7121 32.9199 22.6239 33.0084 22.5718C33.097 22.5237 33.3144 22.4035 33.4916 22.3072C33.6687 22.211 34.0351 22.0106 34.3049 21.8583C34.5787 21.7099 34.8082 21.5857 34.8162 21.5857C34.8243 21.5857 35.0095 21.4855 35.2269 21.3612C35.4484 21.2369 35.7705 21.0605 35.9476 20.9643C36.1248 20.8721 36.3422 20.7559 36.4308 20.7038C36.5193 20.6556 36.7448 20.5314 36.934 20.4312C37.9487 19.894 38.2788 19.6374 38.4681 19.2406C38.6251 18.9078 38.5486 18.527 38.2587 18.1983C38.0856 18.0019 37.8118 17.8415 35.7262 16.7151C34.7196 16.1699 33.8781 15.7089 33.8539 15.6928C33.8338 15.6768 33.6768 15.5926 33.5117 15.5044C32.8595 15.1557 32.1065 14.7508 31.7804 14.5704C31.5912 14.4662 31.3375 14.3299 31.2167 14.2697L30.9993 14.1575L28.652 16.5186Z" fill="url(#paint0_linear_3097_1806)" fill-opacity="0.6"/>
<path d="M28.652 16.5186C27.3636 17.8175 26.3047 18.8958 26.3047 18.9159C26.3047 18.972 26.7597 19.421 26.8201 19.421C26.8442 19.421 26.8684 19.441 26.8684 19.4691C26.8684 19.5172 30.8665 23.5259 30.9832 23.59C31.0356 23.6221 31.1121 23.5981 31.2852 23.5059C31.414 23.4377 31.7281 23.2653 31.9817 23.129C32.2354 22.9927 32.5374 22.8284 32.6461 22.7723C32.7588 22.7121 32.9199 22.6239 33.0084 22.5718C33.097 22.5237 33.3144 22.4035 33.4916 22.3072C33.6687 22.211 34.0351 22.0106 34.3049 21.8583C34.5787 21.7099 34.8082 21.5857 34.8162 21.5857C34.8243 21.5857 35.0095 21.4855 35.2269 21.3612C35.4484 21.2369 35.7705 21.0605 35.9476 20.9643C36.1248 20.8721 36.3422 20.7559 36.4308 20.7038C36.5193 20.6556 36.7448 20.5314 36.934 20.4312C37.9487 19.894 38.2788 19.6374 38.4681 19.2406C38.6251 18.9078 38.5486 18.527 38.2587 18.1983C38.0856 18.0019 37.8118 17.8415 35.7262 16.7151C34.7196 16.1699 33.8781 15.7089 33.8539 15.6928C33.8338 15.6768 33.6768 15.5926 33.5117 15.5044C32.8595 15.1557 32.1065 14.7508 31.7804 14.5704C31.5912 14.4662 31.3375 14.3299 31.2167 14.2697L30.9993 14.1575L28.652 16.5186Z" fill="#878787" fill-opacity="0.24"/>
<path d="M26.0545 19.2005C25.9861 19.2767 25.9096 19.3849 25.8854 19.441C25.8573 19.4972 25.7848 19.5653 25.7204 19.5854C25.6439 19.6134 25.5875 19.6695 25.5593 19.7457C25.5311 19.8259 25.4748 19.886 25.3942 19.9141C25.3298 19.9381 25.2735 19.9782 25.2735 20.0023C25.2735 20.0704 25.056 20.2628 24.9795 20.2628C24.9433 20.2628 24.9151 20.2749 24.9191 20.2949C24.9393 20.347 24.7702 20.5314 24.6454 20.5956C24.5769 20.6316 24.4964 20.7158 24.4682 20.784C24.44 20.8481 24.3957 20.9042 24.3716 20.9042C24.3192 20.9042 24.0656 21.1488 24.0656 21.1969C24.0656 21.2129 24.0938 21.2249 24.126 21.2249C24.1622 21.2249 24.1864 21.261 24.1864 21.3252C24.1864 21.4053 24.1662 21.4254 24.0857 21.4254C24.0293 21.4254 23.985 21.4053 23.985 21.3853C23.985 21.3612 23.9649 21.3452 23.9408 21.3452C23.8602 21.3452 21.9357 23.3175 21.9598 23.3776C21.9719 23.4057 21.9679 23.4297 21.9478 23.4257C21.9276 23.4217 21.8914 23.4217 21.8672 23.4257C21.8149 23.4297 20.764 24.476 20.764 24.5201C20.764 24.5361 20.7479 24.5522 20.7278 24.5522C20.6634 24.5522 19.9145 25.3299 19.8944 25.4221C19.8782 25.4742 19.838 25.5143 19.8017 25.5143C19.7252 25.5143 18.6059 26.6247 18.6422 26.6648C18.6583 26.6768 18.6945 26.6648 18.7308 26.6367C18.7831 26.5926 18.7912 26.6006 18.7912 26.6928C18.7912 26.7891 18.7791 26.7971 18.618 26.7971C18.4892 26.7971 18.4207 26.8211 18.3644 26.8813C18.308 26.9454 18.304 26.9735 18.3402 26.9855C18.3644 26.9975 18.3885 27.0496 18.3885 27.1017C18.3885 27.1779 18.3684 27.1979 18.2879 27.1979C18.2315 27.1979 18.1872 27.214 18.1872 27.238C18.1872 27.2581 18.1429 27.2781 18.0866 27.2781C17.9537 27.2781 17.6437 27.5547 17.7041 27.6149C17.7242 27.6349 17.7443 27.695 17.7443 27.7471C17.7443 27.8193 17.7202 27.8393 17.6477 27.8393C17.5913 27.8393 17.535 27.8193 17.5189 27.7952C17.4866 27.7431 17.3457 27.9035 17.3417 27.9917C17.3417 28.0718 17.233 28.1681 17.2008 28.12C17.1605 28.0558 17.0599 28.152 17.0599 28.2563C17.0599 28.3044 17.0961 28.3645 17.1404 28.3925C17.237 28.4527 17.2451 28.5529 17.1565 28.589C17.1162 28.605 17.0558 28.5729 16.9954 28.5048C16.8746 28.3805 16.8304 28.3725 16.7981 28.4807C16.7861 28.5248 16.7539 28.5609 16.7337 28.5609C16.6532 28.5609 16.7055 28.6852 16.8022 28.7213C16.923 28.7694 16.9189 28.9017 16.7981 28.9017C16.7458 28.9017 16.7136 28.8696 16.7055 28.8135C16.6854 28.6691 16.5727 28.7012 16.3472 28.9177C16.1902 29.07 16.1539 29.1261 16.1902 29.1662C16.2224 29.2023 16.2224 29.2063 16.1821 29.1823C16.1217 29.1502 15.852 29.3827 15.852 29.4709C15.852 29.499 15.8278 29.519 15.8037 29.511C15.7755 29.507 15.7473 29.5431 15.7392 29.5912C15.7312 29.6513 15.699 29.6834 15.6466 29.6834C15.6023 29.6834 15.5581 29.7154 15.542 29.7515C15.4936 29.8838 15.3648 30.0441 15.3044 30.0441C15.2279 30.0441 15.1272 30.1404 15.1272 30.2125C15.1272 30.2927 15.0427 30.3648 14.9541 30.3648C14.9139 30.3648 14.8937 30.3849 14.9058 30.4049C14.9179 30.429 14.9018 30.457 14.8696 30.4691C14.8333 30.4811 14.8051 30.5172 14.8051 30.5492C14.8051 30.5813 14.7447 30.6294 14.6723 30.6615C14.5515 30.7096 14.3582 30.9221 14.4307 30.9261C14.4508 30.9301 14.4065 30.9541 14.3341 30.9862C14.2415 31.0263 14.1932 31.0784 14.169 31.1746C14.1448 31.2748 14.1126 31.3109 14.0321 31.3189C13.9395 31.3309 13.8791 31.4031 13.8268 31.5755C13.8147 31.6116 13.7623 31.6476 13.71 31.6557C13.6536 31.6637 13.5932 31.7158 13.557 31.796C13.5248 31.8681 13.4604 31.9403 13.4161 31.9523C13.3114 31.9884 13.1584 32.1006 13.1544 32.1407C13.1544 32.1567 13.09 32.2369 13.0135 32.3171C12.937 32.3973 12.8725 32.4855 12.8725 32.5175C12.8725 32.5456 12.8282 32.5897 12.7759 32.6097C12.7236 32.6298 12.5545 32.7701 12.4015 32.9184C12.2485 33.0707 12.0955 33.207 12.0552 33.2231C12.019 33.2351 11.9868 33.2752 11.9868 33.3073C11.9868 33.3353 11.9586 33.3754 11.9223 33.3874C11.8901 33.3995 11.874 33.4275 11.8861 33.4516C11.9022 33.4756 11.9264 33.4836 11.9465 33.4716C12.0109 33.4315 12.027 33.5237 11.9666 33.5718C11.9344 33.5999 11.9062 33.644 11.9062 33.668C11.9062 33.7161 11.8176 33.7963 11.6808 33.8765C11.6405 33.9046 11.6043 33.9607 11.6083 34.0088C11.6083 34.0769 11.5882 34.093 11.4955 34.093C11.4352 34.093 11.3828 34.113 11.3828 34.1371C11.3828 34.1651 11.419 34.1731 11.4915 34.1491C11.5559 34.1331 11.6445 34.121 11.6969 34.121C11.7613 34.125 11.7854 34.109 11.7693 34.0649C11.7532 34.0328 11.7613 34.0208 11.7895 34.0368C11.8136 34.0529 11.8458 34.0489 11.8619 34.0288C11.9022 33.9687 12.0633 33.8925 12.1438 33.8925C12.184 33.8925 12.2646 33.8565 12.3209 33.8124C12.3773 33.7683 12.4337 33.7322 12.4498 33.7322C12.49 33.7322 12.5907 33.6199 12.5907 33.5758C12.5907 33.5237 12.6591 33.5157 12.6793 33.5678C12.6873 33.5839 12.7276 33.5678 12.7679 33.5277C12.8443 33.4516 12.8443 33.4516 12.7598 33.4516C12.6471 33.4516 12.643 33.3714 12.7517 33.3433C12.796 33.3313 12.8323 33.2952 12.8323 33.2672C12.8323 33.2351 12.8685 33.211 12.9128 33.211C13.0014 33.211 13.0296 33.3514 12.945 33.3834C12.9168 33.3954 12.9329 33.3995 12.9853 33.3995C13.0336 33.3954 13.0738 33.3794 13.0738 33.3634C13.0738 33.3473 13.1222 33.3313 13.1826 33.3313C13.2792 33.3313 13.2832 33.3273 13.2228 33.2832C13.1624 33.2351 13.1665 33.2311 13.2631 33.2271C13.3275 33.2231 13.4443 33.175 13.5288 33.1188C13.6134 33.0627 13.7342 33.0066 13.7986 32.9906C13.867 32.9745 13.9194 32.9505 13.9194 32.9344C13.9194 32.9144 13.9959 32.8703 14.0925 32.8262C14.1851 32.7861 14.3099 32.7019 14.3703 32.6378C14.4347 32.5656 14.5314 32.5135 14.6079 32.5055C14.6803 32.4975 14.781 32.4614 14.8293 32.4293C14.8816 32.3973 14.9501 32.3692 14.9863 32.3692C15.0226 32.3692 15.0387 32.3492 15.0266 32.3291C15.0145 32.3051 15.0226 32.289 15.0507 32.289C15.0749 32.289 15.1272 32.257 15.1635 32.2129C15.1997 32.1728 15.2802 32.1367 15.3447 32.1367C15.4091 32.1367 15.4775 32.1086 15.4977 32.0726C15.5339 32.0124 15.8439 31.8481 15.9285 31.8481C15.9526 31.8481 15.9728 31.832 15.9728 31.812C15.9728 31.792 16.0291 31.7559 16.0936 31.7318C16.162 31.7118 16.2143 31.6717 16.2143 31.6516C16.2143 31.6276 16.2264 31.6116 16.2465 31.6156C16.2908 31.6236 16.4157 31.5635 16.4157 31.5274C16.4157 31.5113 16.3714 31.5073 16.315 31.5194C16.2546 31.5274 16.2143 31.5194 16.2143 31.4913C16.2143 31.4632 16.2828 31.4472 16.3875 31.4512C16.617 31.4552 16.8183 31.4071 16.8183 31.347C16.8183 31.3229 16.8666 31.2748 16.931 31.2468C17.0397 31.1906 17.0719 31.1786 17.1686 31.1706C17.1967 31.1706 17.2088 31.1425 17.2008 31.1145C17.1766 31.0543 17.3699 30.9581 17.4061 31.0143C17.4222 31.0383 17.4424 31.0423 17.4585 31.0143C17.4705 30.9942 17.547 30.9461 17.6235 30.906C17.7 30.8659 17.8208 30.7978 17.8852 30.7497C17.9537 30.7056 18.0141 30.6655 18.0262 30.6615C18.0382 30.6615 18.1107 30.6294 18.1872 30.5933C18.2637 30.5533 18.2959 30.5332 18.2597 30.5452C18.2154 30.5533 18.1872 30.5412 18.1872 30.5051C18.1872 30.4651 18.2154 30.457 18.308 30.4851C18.3805 30.5051 18.4288 30.5051 18.4288 30.4811C18.4288 30.4611 18.457 30.445 18.4932 30.445C18.5254 30.445 18.5415 30.425 18.5294 30.4049C18.5053 30.3689 18.5697 30.3488 18.6985 30.3528C18.7267 30.3568 18.7388 30.3408 18.7267 30.3207C18.7147 30.3007 18.7589 30.2646 18.8274 30.2406C18.8958 30.2165 18.9522 30.1804 18.9522 30.1604C18.9522 30.1404 18.9884 30.1243 19.0327 30.1243C19.081 30.1243 19.1133 30.0963 19.1133 30.0602C19.1133 30.0161 19.1374 30 19.1938 30.0161C19.2381 30.0281 19.2743 30.0201 19.2743 30C19.2743 29.98 19.2985 29.964 19.3266 29.964C19.3589 29.964 19.4233 29.9279 19.4756 29.8838C19.528 29.8397 19.5964 29.8036 19.6326 29.8036C19.6689 29.8036 19.7655 29.7395 19.8501 29.6633C19.995 29.531 20.1158 29.4749 20.0594 29.5631C20.0474 29.5871 20.0635 29.5912 20.0957 29.5791C20.1319 29.5671 20.1601 29.539 20.1601 29.523C20.1601 29.4909 20.3131 29.4308 20.3735 29.4388C20.3896 29.4428 20.4137 29.4148 20.4258 29.3827C20.4379 29.3506 20.5184 29.3065 20.5989 29.2825C20.6996 29.2584 20.7681 29.2063 20.7962 29.1422C20.8284 29.07 20.8727 29.042 20.9573 29.042C21.0177 29.042 21.1103 29.0059 21.1546 28.9658C21.2029 28.9217 21.2472 28.8976 21.2593 28.9097C21.2754 28.9217 21.3116 28.9017 21.3478 28.8656C21.3841 28.8295 21.4404 28.8014 21.4727 28.8014C21.5049 28.8014 21.529 28.7814 21.529 28.7614C21.529 28.7373 21.5411 28.7253 21.5612 28.7293C21.5773 28.7373 21.6337 28.7092 21.6901 28.6691C21.7424 28.6331 21.7625 28.601 21.7344 28.601C21.7021 28.601 21.6901 28.589 21.7021 28.5769C21.7183 28.5609 21.7545 28.5729 21.7867 28.597C21.827 28.6291 21.8511 28.6331 21.8713 28.601C21.8833 28.5769 21.9115 28.5689 21.9316 28.581C21.9478 28.593 21.9759 28.5729 21.988 28.5369C22.0001 28.5048 22.0283 28.4847 22.0444 28.4968C22.0645 28.5088 22.1289 28.4727 22.1893 28.4206C22.2537 28.3645 22.4792 28.2362 22.6926 28.132C22.906 28.0237 23.0872 27.9275 23.0912 27.9075C23.0993 27.8915 23.1234 27.8874 23.1436 27.9035C23.1637 27.9155 23.1798 27.9035 23.1798 27.8834C23.1798 27.8594 23.208 27.8393 23.2402 27.8393C23.2724 27.8393 23.2885 27.8153 23.2764 27.7872C23.2684 27.7592 23.2845 27.703 23.3167 27.6589C23.361 27.5988 23.3851 27.5908 23.4254 27.6269C23.4898 27.679 23.6911 27.6108 23.7797 27.5066C23.8079 27.4665 23.8643 27.4385 23.9045 27.4385C23.9408 27.4385 24.0213 27.4024 24.0817 27.3543C24.138 27.3102 24.2025 27.2821 24.2186 27.2942C24.2387 27.3062 24.3112 27.2501 24.3796 27.1739C24.4722 27.0737 24.5286 27.0376 24.585 27.0576C24.6333 27.0697 24.6695 27.0576 24.6856 27.0176C24.6977 26.9815 24.7299 26.9574 24.7581 26.9614C24.8507 26.9815 25.1245 26.8372 25.2332 26.7169C25.2936 26.6487 25.3661 26.5966 25.3983 26.5966C25.4305 26.5966 25.5633 26.5445 25.6962 26.4764C25.8291 26.4122 25.9619 26.3561 25.9901 26.3561C26.0143 26.3561 26.0384 26.3401 26.0384 26.32C26.0384 26.3 26.0787 26.2759 26.131 26.2679C26.1794 26.2599 26.2156 26.2318 26.2075 26.2038C26.2035 26.1717 26.2116 26.1597 26.2317 26.1717C26.28 26.1998 26.6061 26.0354 26.7028 25.9312C26.7471 25.8831 26.8638 25.8069 26.9645 25.7668C27.0651 25.7227 27.2262 25.6546 27.3269 25.6105C27.4275 25.5704 27.5322 25.5143 27.5604 25.4862C27.5886 25.4582 27.657 25.4221 27.7134 25.41C27.7657 25.398 27.81 25.37 27.81 25.3499C27.81 25.3299 27.8342 25.3138 27.8664 25.3138C27.8986 25.3138 27.9308 25.2898 27.9429 25.2577C27.9711 25.1896 28.2086 25.0653 28.2569 25.0974C28.2771 25.1094 28.2932 25.0974 28.2932 25.0733C28.2932 25.0493 28.3093 25.0372 28.3294 25.0533C28.3495 25.0653 28.3777 25.0573 28.3938 25.0332C28.4059 25.0132 28.4542 24.9931 28.4985 24.9931C28.5428 24.9931 28.5669 24.9731 28.5549 24.9531C28.5428 24.929 28.5669 24.913 28.6072 24.913C28.6515 24.913 28.6958 24.8889 28.7079 24.8568C28.7199 24.8248 28.7844 24.7887 28.8528 24.7727C28.9213 24.7566 28.9696 24.7286 28.9535 24.7085C28.9414 24.6885 28.9816 24.6724 29.042 24.6724C29.1024 24.6724 29.1427 24.6604 29.1266 24.6484C29.1145 24.6364 29.2876 24.5321 29.5131 24.4199C29.7386 24.3076 29.9318 24.1994 29.9359 24.1834C29.9439 24.1673 29.9721 24.1513 30.0003 24.1513C30.0687 24.1513 30.2499 23.991 30.2338 23.9429C30.2298 23.9228 30.2419 23.9188 30.266 23.9308C30.3305 23.9709 30.7089 23.7825 30.7089 23.7184C30.7089 23.6823 30.7331 23.6703 30.7693 23.6863C30.8015 23.6983 30.8297 23.6983 30.8297 23.6823C30.8297 23.6703 30.3305 23.1652 29.7225 22.5598C29.034 21.8743 28.5992 21.4695 28.571 21.4895C28.5428 21.5055 28.5347 21.5015 28.5508 21.4735C28.5871 21.4174 27.9912 20.808 27.9348 20.8441C27.9066 20.8601 27.8946 20.8481 27.8986 20.816C27.9066 20.788 27.8865 20.7679 27.8583 20.776C27.8261 20.78 27.814 20.7679 27.8261 20.7479C27.8462 20.7198 26.2438 19.0602 26.1955 19.0602C26.1874 19.0602 26.123 19.1244 26.0545 19.2005ZM26.3122 19.2125C26.3364 19.2847 26.2518 19.2687 26.2237 19.1965C26.2075 19.1564 26.2196 19.1404 26.2478 19.1484C26.272 19.1564 26.3042 19.1885 26.3122 19.2125ZM22.294 28.2803C22.294 28.3324 22.133 28.3324 22.0524 28.2803C22.0081 28.2522 22.0323 28.2402 22.145 28.2402C22.2256 28.2402 22.294 28.2563 22.294 28.2803ZM16.2143 29.4629C16.2143 29.4949 16.1862 29.523 16.1539 29.523C16.0895 29.523 16.0734 29.4749 16.1217 29.4308C16.166 29.3827 16.2143 29.3987 16.2143 29.4629ZM15.1675 32.1287C15.1675 32.1808 15.0467 32.1808 14.9662 32.1287C14.9219 32.1006 14.938 32.0886 15.0387 32.0886C15.1071 32.0886 15.1675 32.1046 15.1675 32.1287ZM13.2067 32.3131C13.1624 32.3812 13.1302 32.4013 13.1222 32.3692C13.1101 32.3411 13.1342 32.293 13.1785 32.261C13.2832 32.1848 13.2872 32.1928 13.2067 32.3131ZM12.5625 32.9545C12.5182 33.0226 12.486 33.0427 12.478 33.0106C12.4659 32.9825 12.49 32.9344 12.5343 32.9024C12.639 32.8262 12.643 32.8342 12.5625 32.9545ZM12.329 33.1669C12.3411 33.191 12.3129 33.2271 12.2686 33.2511C12.1881 33.2952 12.184 33.2912 12.2283 33.2151C12.2766 33.1229 12.2928 33.1148 12.329 33.1669Z" fill="url(#paint1_linear_3097_1806)"/>
<path d="M26.0545 19.2005C25.9861 19.2767 25.9096 19.3849 25.8854 19.441C25.8573 19.4972 25.7848 19.5653 25.7204 19.5854C25.6439 19.6134 25.5875 19.6695 25.5593 19.7457C25.5311 19.8259 25.4748 19.886 25.3942 19.9141C25.3298 19.9381 25.2735 19.9782 25.2735 20.0023C25.2735 20.0704 25.056 20.2628 24.9795 20.2628C24.9433 20.2628 24.9151 20.2749 24.9191 20.2949C24.9393 20.347 24.7702 20.5314 24.6454 20.5956C24.5769 20.6316 24.4964 20.7158 24.4682 20.784C24.44 20.8481 24.3957 20.9042 24.3716 20.9042C24.3192 20.9042 24.0656 21.1488 24.0656 21.1969C24.0656 21.2129 24.0938 21.2249 24.126 21.2249C24.1622 21.2249 24.1864 21.261 24.1864 21.3252C24.1864 21.4053 24.1662 21.4254 24.0857 21.4254C24.0293 21.4254 23.985 21.4053 23.985 21.3853C23.985 21.3612 23.9649 21.3452 23.9408 21.3452C23.8602 21.3452 21.9357 23.3175 21.9598 23.3776C21.9719 23.4057 21.9679 23.4297 21.9478 23.4257C21.9276 23.4217 21.8914 23.4217 21.8672 23.4257C21.8149 23.4297 20.764 24.476 20.764 24.5201C20.764 24.5361 20.7479 24.5522 20.7278 24.5522C20.6634 24.5522 19.9145 25.3299 19.8944 25.4221C19.8782 25.4742 19.838 25.5143 19.8017 25.5143C19.7252 25.5143 18.6059 26.6247 18.6422 26.6648C18.6583 26.6768 18.6945 26.6648 18.7308 26.6367C18.7831 26.5926 18.7912 26.6006 18.7912 26.6928C18.7912 26.7891 18.7791 26.7971 18.618 26.7971C18.4892 26.7971 18.4207 26.8211 18.3644 26.8813C18.308 26.9454 18.304 26.9735 18.3402 26.9855C18.3644 26.9975 18.3885 27.0496 18.3885 27.1017C18.3885 27.1779 18.3684 27.1979 18.2879 27.1979C18.2315 27.1979 18.1872 27.214 18.1872 27.238C18.1872 27.2581 18.1429 27.2781 18.0866 27.2781C17.9537 27.2781 17.6437 27.5547 17.7041 27.6149C17.7242 27.6349 17.7443 27.695 17.7443 27.7471C17.7443 27.8193 17.7202 27.8393 17.6477 27.8393C17.5913 27.8393 17.535 27.8193 17.5189 27.7952C17.4866 27.7431 17.3457 27.9035 17.3417 27.9917C17.3417 28.0718 17.233 28.1681 17.2008 28.12C17.1605 28.0558 17.0599 28.152 17.0599 28.2563C17.0599 28.3044 17.0961 28.3645 17.1404 28.3925C17.237 28.4527 17.2451 28.5529 17.1565 28.589C17.1162 28.605 17.0558 28.5729 16.9954 28.5048C16.8746 28.3805 16.8304 28.3725 16.7981 28.4807C16.7861 28.5248 16.7539 28.5609 16.7337 28.5609C16.6532 28.5609 16.7055 28.6852 16.8022 28.7213C16.923 28.7694 16.9189 28.9017 16.7981 28.9017C16.7458 28.9017 16.7136 28.8696 16.7055 28.8135C16.6854 28.6691 16.5727 28.7012 16.3472 28.9177C16.1902 29.07 16.1539 29.1261 16.1902 29.1662C16.2224 29.2023 16.2224 29.2063 16.1821 29.1823C16.1217 29.1502 15.852 29.3827 15.852 29.4709C15.852 29.499 15.8278 29.519 15.8037 29.511C15.7755 29.507 15.7473 29.5431 15.7392 29.5912C15.7312 29.6513 15.699 29.6834 15.6466 29.6834C15.6023 29.6834 15.5581 29.7154 15.542 29.7515C15.4936 29.8838 15.3648 30.0441 15.3044 30.0441C15.2279 30.0441 15.1272 30.1404 15.1272 30.2125C15.1272 30.2927 15.0427 30.3648 14.9541 30.3648C14.9139 30.3648 14.8937 30.3849 14.9058 30.4049C14.9179 30.429 14.9018 30.457 14.8696 30.4691C14.8333 30.4811 14.8051 30.5172 14.8051 30.5492C14.8051 30.5813 14.7447 30.6294 14.6723 30.6615C14.5515 30.7096 14.3582 30.9221 14.4307 30.9261C14.4508 30.9301 14.4065 30.9541 14.3341 30.9862C14.2415 31.0263 14.1932 31.0784 14.169 31.1746C14.1448 31.2748 14.1126 31.3109 14.0321 31.3189C13.9395 31.3309 13.8791 31.4031 13.8268 31.5755C13.8147 31.6116 13.7623 31.6476 13.71 31.6557C13.6536 31.6637 13.5932 31.7158 13.557 31.796C13.5248 31.8681 13.4604 31.9403 13.4161 31.9523C13.3114 31.9884 13.1584 32.1006 13.1544 32.1407C13.1544 32.1567 13.09 32.2369 13.0135 32.3171C12.937 32.3973 12.8725 32.4855 12.8725 32.5175C12.8725 32.5456 12.8282 32.5897 12.7759 32.6097C12.7236 32.6298 12.5545 32.7701 12.4015 32.9184C12.2485 33.0707 12.0955 33.207 12.0552 33.2231C12.019 33.2351 11.9868 33.2752 11.9868 33.3073C11.9868 33.3353 11.9586 33.3754 11.9223 33.3874C11.8901 33.3995 11.874 33.4275 11.8861 33.4516C11.9022 33.4756 11.9264 33.4836 11.9465 33.4716C12.0109 33.4315 12.027 33.5237 11.9666 33.5718C11.9344 33.5999 11.9062 33.644 11.9062 33.668C11.9062 33.7161 11.8176 33.7963 11.6808 33.8765C11.6405 33.9046 11.6043 33.9607 11.6083 34.0088C11.6083 34.0769 11.5882 34.093 11.4955 34.093C11.4352 34.093 11.3828 34.113 11.3828 34.1371C11.3828 34.1651 11.419 34.1731 11.4915 34.1491C11.5559 34.1331 11.6445 34.121 11.6969 34.121C11.7613 34.125 11.7854 34.109 11.7693 34.0649C11.7532 34.0328 11.7613 34.0208 11.7895 34.0368C11.8136 34.0529 11.8458 34.0489 11.8619 34.0288C11.9022 33.9687 12.0633 33.8925 12.1438 33.8925C12.184 33.8925 12.2646 33.8565 12.3209 33.8124C12.3773 33.7683 12.4337 33.7322 12.4498 33.7322C12.49 33.7322 12.5907 33.6199 12.5907 33.5758C12.5907 33.5237 12.6591 33.5157 12.6793 33.5678C12.6873 33.5839 12.7276 33.5678 12.7679 33.5277C12.8443 33.4516 12.8443 33.4516 12.7598 33.4516C12.6471 33.4516 12.643 33.3714 12.7517 33.3433C12.796 33.3313 12.8323 33.2952 12.8323 33.2672C12.8323 33.2351 12.8685 33.211 12.9128 33.211C13.0014 33.211 13.0296 33.3514 12.945 33.3834C12.9168 33.3954 12.9329 33.3995 12.9853 33.3995C13.0336 33.3954 13.0738 33.3794 13.0738 33.3634C13.0738 33.3473 13.1222 33.3313 13.1826 33.3313C13.2792 33.3313 13.2832 33.3273 13.2228 33.2832C13.1624 33.2351 13.1665 33.2311 13.2631 33.2271C13.3275 33.2231 13.4443 33.175 13.5288 33.1188C13.6134 33.0627 13.7342 33.0066 13.7986 32.9906C13.867 32.9745 13.9194 32.9505 13.9194 32.9344C13.9194 32.9144 13.9959 32.8703 14.0925 32.8262C14.1851 32.7861 14.3099 32.7019 14.3703 32.6378C14.4347 32.5656 14.5314 32.5135 14.6079 32.5055C14.6803 32.4975 14.781 32.4614 14.8293 32.4293C14.8816 32.3973 14.9501 32.3692 14.9863 32.3692C15.0226 32.3692 15.0387 32.3492 15.0266 32.3291C15.0145 32.3051 15.0226 32.289 15.0507 32.289C15.0749 32.289 15.1272 32.257 15.1635 32.2129C15.1997 32.1728 15.2802 32.1367 15.3447 32.1367C15.4091 32.1367 15.4775 32.1086 15.4977 32.0726C15.5339 32.0124 15.8439 31.8481 15.9285 31.8481C15.9526 31.8481 15.9728 31.832 15.9728 31.812C15.9728 31.792 16.0291 31.7559 16.0936 31.7318C16.162 31.7118 16.2143 31.6717 16.2143 31.6516C16.2143 31.6276 16.2264 31.6116 16.2465 31.6156C16.2908 31.6236 16.4157 31.5635 16.4157 31.5274C16.4157 31.5113 16.3714 31.5073 16.315 31.5194C16.2546 31.5274 16.2143 31.5194 16.2143 31.4913C16.2143 31.4632 16.2828 31.4472 16.3875 31.4512C16.617 31.4552 16.8183 31.4071 16.8183 31.347C16.8183 31.3229 16.8666 31.2748 16.931 31.2468C17.0397 31.1906 17.0719 31.1786 17.1686 31.1706C17.1967 31.1706 17.2088 31.1425 17.2008 31.1145C17.1766 31.0543 17.3699 30.9581 17.4061 31.0143C17.4222 31.0383 17.4424 31.0423 17.4585 31.0143C17.4705 30.9942 17.547 30.9461 17.6235 30.906C17.7 30.8659 17.8208 30.7978 17.8852 30.7497C17.9537 30.7056 18.0141 30.6655 18.0262 30.6615C18.0382 30.6615 18.1107 30.6294 18.1872 30.5933C18.2637 30.5533 18.2959 30.5332 18.2597 30.5452C18.2154 30.5533 18.1872 30.5412 18.1872 30.5051C18.1872 30.4651 18.2154 30.457 18.308 30.4851C18.3805 30.5051 18.4288 30.5051 18.4288 30.4811C18.4288 30.4611 18.457 30.445 18.4932 30.445C18.5254 30.445 18.5415 30.425 18.5294 30.4049C18.5053 30.3689 18.5697 30.3488 18.6985 30.3528C18.7267 30.3568 18.7388 30.3408 18.7267 30.3207C18.7147 30.3007 18.7589 30.2646 18.8274 30.2406C18.8958 30.2165 18.9522 30.1804 18.9522 30.1604C18.9522 30.1404 18.9884 30.1243 19.0327 30.1243C19.081 30.1243 19.1133 30.0963 19.1133 30.0602C19.1133 30.0161 19.1374 30 19.1938 30.0161C19.2381 30.0281 19.2743 30.0201 19.2743 30C19.2743 29.98 19.2985 29.964 19.3266 29.964C19.3589 29.964 19.4233 29.9279 19.4756 29.8838C19.528 29.8397 19.5964 29.8036 19.6326 29.8036C19.6689 29.8036 19.7655 29.7395 19.8501 29.6633C19.995 29.531 20.1158 29.4749 20.0594 29.5631C20.0474 29.5871 20.0635 29.5912 20.0957 29.5791C20.1319 29.5671 20.1601 29.539 20.1601 29.523C20.1601 29.4909 20.3131 29.4308 20.3735 29.4388C20.3896 29.4428 20.4137 29.4148 20.4258 29.3827C20.4379 29.3506 20.5184 29.3065 20.5989 29.2825C20.6996 29.2584 20.7681 29.2063 20.7962 29.1422C20.8284 29.07 20.8727 29.042 20.9573 29.042C21.0177 29.042 21.1103 29.0059 21.1546 28.9658C21.2029 28.9217 21.2472 28.8976 21.2593 28.9097C21.2754 28.9217 21.3116 28.9017 21.3478 28.8656C21.3841 28.8295 21.4404 28.8014 21.4727 28.8014C21.5049 28.8014 21.529 28.7814 21.529 28.7614C21.529 28.7373 21.5411 28.7253 21.5612 28.7293C21.5773 28.7373 21.6337 28.7092 21.6901 28.6691C21.7424 28.6331 21.7625 28.601 21.7344 28.601C21.7021 28.601 21.6901 28.589 21.7021 28.5769C21.7183 28.5609 21.7545 28.5729 21.7867 28.597C21.827 28.6291 21.8511 28.6331 21.8713 28.601C21.8833 28.5769 21.9115 28.5689 21.9316 28.581C21.9478 28.593 21.9759 28.5729 21.988 28.5369C22.0001 28.5048 22.0283 28.4847 22.0444 28.4968C22.0645 28.5088 22.1289 28.4727 22.1893 28.4206C22.2537 28.3645 22.4792 28.2362 22.6926 28.132C22.906 28.0237 23.0872 27.9275 23.0912 27.9075C23.0993 27.8915 23.1234 27.8874 23.1436 27.9035C23.1637 27.9155 23.1798 27.9035 23.1798 27.8834C23.1798 27.8594 23.208 27.8393 23.2402 27.8393C23.2724 27.8393 23.2885 27.8153 23.2764 27.7872C23.2684 27.7592 23.2845 27.703 23.3167 27.6589C23.361 27.5988 23.3851 27.5908 23.4254 27.6269C23.4898 27.679 23.6911 27.6108 23.7797 27.5066C23.8079 27.4665 23.8643 27.4385 23.9045 27.4385C23.9408 27.4385 24.0213 27.4024 24.0817 27.3543C24.138 27.3102 24.2025 27.2821 24.2186 27.2942C24.2387 27.3062 24.3112 27.2501 24.3796 27.1739C24.4722 27.0737 24.5286 27.0376 24.585 27.0576C24.6333 27.0697 24.6695 27.0576 24.6856 27.0176C24.6977 26.9815 24.7299 26.9574 24.7581 26.9614C24.8507 26.9815 25.1245 26.8372 25.2332 26.7169C25.2936 26.6487 25.3661 26.5966 25.3983 26.5966C25.4305 26.5966 25.5633 26.5445 25.6962 26.4764C25.8291 26.4122 25.9619 26.3561 25.9901 26.3561C26.0143 26.3561 26.0384 26.3401 26.0384 26.32C26.0384 26.3 26.0787 26.2759 26.131 26.2679C26.1794 26.2599 26.2156 26.2318 26.2075 26.2038C26.2035 26.1717 26.2116 26.1597 26.2317 26.1717C26.28 26.1998 26.6061 26.0354 26.7028 25.9312C26.7471 25.8831 26.8638 25.8069 26.9645 25.7668C27.0651 25.7227 27.2262 25.6546 27.3269 25.6105C27.4275 25.5704 27.5322 25.5143 27.5604 25.4862C27.5886 25.4582 27.657 25.4221 27.7134 25.41C27.7657 25.398 27.81 25.37 27.81 25.3499C27.81 25.3299 27.8342 25.3138 27.8664 25.3138C27.8986 25.3138 27.9308 25.2898 27.9429 25.2577C27.9711 25.1896 28.2086 25.0653 28.2569 25.0974C28.2771 25.1094 28.2932 25.0974 28.2932 25.0733C28.2932 25.0493 28.3093 25.0372 28.3294 25.0533C28.3495 25.0653 28.3777 25.0573 28.3938 25.0332C28.4059 25.0132 28.4542 24.9931 28.4985 24.9931C28.5428 24.9931 28.5669 24.9731 28.5549 24.9531C28.5428 24.929 28.5669 24.913 28.6072 24.913C28.6515 24.913 28.6958 24.8889 28.7079 24.8568C28.7199 24.8248 28.7844 24.7887 28.8528 24.7727C28.9213 24.7566 28.9696 24.7286 28.9535 24.7085C28.9414 24.6885 28.9816 24.6724 29.042 24.6724C29.1024 24.6724 29.1427 24.6604 29.1266 24.6484C29.1145 24.6364 29.2876 24.5321 29.5131 24.4199C29.7386 24.3076 29.9318 24.1994 29.9359 24.1834C29.9439 24.1673 29.9721 24.1513 30.0003 24.1513C30.0687 24.1513 30.2499 23.991 30.2338 23.9429C30.2298 23.9228 30.2419 23.9188 30.266 23.9308C30.3305 23.9709 30.7089 23.7825 30.7089 23.7184C30.7089 23.6823 30.7331 23.6703 30.7693 23.6863C30.8015 23.6983 30.8297 23.6983 30.8297 23.6823C30.8297 23.6703 30.3305 23.1652 29.7225 22.5598C29.034 21.8743 28.5992 21.4695 28.571 21.4895C28.5428 21.5055 28.5347 21.5015 28.5508 21.4735C28.5871 21.4174 27.9912 20.808 27.9348 20.8441C27.9066 20.8601 27.8946 20.8481 27.8986 20.816C27.9066 20.788 27.8865 20.7679 27.8583 20.776C27.8261 20.78 27.814 20.7679 27.8261 20.7479C27.8462 20.7198 26.2438 19.0602 26.1955 19.0602C26.1874 19.0602 26.123 19.1244 26.0545 19.2005ZM26.3122 19.2125C26.3364 19.2847 26.2518 19.2687 26.2237 19.1965C26.2075 19.1564 26.2196 19.1404 26.2478 19.1484C26.272 19.1564 26.3042 19.1885 26.3122 19.2125ZM22.294 28.2803C22.294 28.3324 22.133 28.3324 22.0524 28.2803C22.0081 28.2522 22.0323 28.2402 22.145 28.2402C22.2256 28.2402 22.294 28.2563 22.294 28.2803ZM16.2143 29.4629C16.2143 29.4949 16.1862 29.523 16.1539 29.523C16.0895 29.523 16.0734 29.4749 16.1217 29.4308C16.166 29.3827 16.2143 29.3987 16.2143 29.4629ZM15.1675 32.1287C15.1675 32.1808 15.0467 32.1808 14.9662 32.1287C14.9219 32.1006 14.938 32.0886 15.0387 32.0886C15.1071 32.0886 15.1675 32.1046 15.1675 32.1287ZM13.2067 32.3131C13.1624 32.3812 13.1302 32.4013 13.1222 32.3692C13.1101 32.3411 13.1342 32.293 13.1785 32.261C13.2832 32.1848 13.2872 32.1928 13.2067 32.3131ZM12.5625 32.9545C12.5182 33.0226 12.486 33.0427 12.478 33.0106C12.4659 32.9825 12.49 32.9344 12.5343 32.9024C12.639 32.8262 12.643 32.8342 12.5625 32.9545ZM12.329 33.1669C12.3411 33.191 12.3129 33.2271 12.2686 33.2511C12.1881 33.2952 12.184 33.2912 12.2283 33.2151C12.2766 33.1229 12.2928 33.1148 12.329 33.1669Z" fill="white" fill-opacity="0.26"/>
<path d="M11.7217 33.6059C11.7096 33.6542 11.6732 33.6904 11.6449 33.6904C11.6125 33.6904 11.5681 33.7347 11.5397 33.7911C11.5155 33.8434 11.4791 33.8796 11.4629 33.8676C11.4467 33.8595 11.4103 33.8837 11.3861 33.928C11.3173 34.0649 11.4184 34.0689 11.4993 33.936C11.5397 33.8635 11.6125 33.8031 11.6732 33.7911C11.746 33.775 11.7864 33.7347 11.8026 33.6663C11.8228 33.5455 11.7541 33.4891 11.7217 33.6059Z" fill="white"/>
<path d="M11.2195 34.1001C11.2155 34.1283 11.2155 34.1645 11.2195 34.1806C11.2195 34.2008 11.1914 34.2128 11.1551 34.2169C11.1028 34.2169 11.1108 34.2289 11.1793 34.2571C11.292 34.3014 11.3484 34.2491 11.3162 34.1283C11.292 34.0437 11.2276 34.0236 11.2195 34.1001Z" fill="white"/>
<path d="M10.918 3.62179C10.918 3.64986 14.3524 7.09336 18.5478 11.2705C23.8544 16.558 26.1775 18.843 26.1775 18.7868C26.1775 18.7427 26.1936 18.6946 26.2138 18.6826C26.2339 18.6706 26.242 18.6185 26.2299 18.5664C26.2138 18.4862 26.2178 18.4822 26.2701 18.5463C26.3426 18.6385 26.3627 18.6385 26.3909 18.5383C26.403 18.4942 26.4392 18.4581 26.4755 18.4581C26.56 18.4581 26.556 18.394 26.4715 18.3579C26.403 18.3338 26.403 18.3298 26.4715 18.2938C26.5077 18.2697 26.5399 18.2256 26.5399 18.1975C26.5399 18.1053 26.6124 18.1294 26.6285 18.2256C26.6406 18.3018 26.6728 18.2777 26.9143 18.0412C27.1559 17.8007 27.1841 17.7566 27.1841 17.6163C27.1841 17.5281 27.2042 17.4559 27.2244 17.4559C27.2485 17.4559 27.2646 17.504 27.2646 17.5602V17.6604L27.3814 17.5481L27.4941 17.4359L27.4015 17.4239C27.2324 17.3998 27.2968 17.3277 27.4659 17.3437C27.6069 17.3557 27.631 17.3477 27.6512 17.2715C27.6632 17.2234 27.7075 17.1753 27.7518 17.1633C27.8082 17.1473 27.8283 17.1072 27.8323 16.9869C27.8323 16.8546 27.8404 16.8466 27.8686 16.9228C27.8887 16.9749 27.9129 17.015 27.9209 17.015C27.929 17.015 27.9853 16.9629 28.0498 16.8947L28.1625 16.7785L28.0659 16.7384C27.9692 16.6983 27.9692 16.6983 28.0618 16.6983C28.1102 16.6943 28.1504 16.6782 28.1504 16.6582C28.1504 16.6382 28.1867 16.6301 28.2269 16.6422C28.2833 16.6542 28.3034 16.6422 28.2994 16.586C28.2954 16.5419 28.3155 16.5139 28.3598 16.5179C28.4443 16.5259 28.9355 16.0328 28.9355 15.9406C28.9355 15.9005 28.9637 15.8765 29.004 15.8765C29.0885 15.8845 29.5797 15.3914 29.5797 15.2992C29.5797 15.2632 29.612 15.2311 29.6482 15.2311C29.6884 15.2311 29.7488 15.199 29.7891 15.1589C29.8253 15.1229 29.8374 15.0908 29.8133 15.0908C29.7891 15.0908 29.7609 15.0467 29.7529 14.9906C29.7287 14.8743 29.7972 14.8543 29.8294 14.9665C29.8495 15.0427 29.8576 15.0427 30.0025 14.9465C30.1917 14.8182 30.2763 14.6779 30.2078 14.5937C30.1797 14.5576 30.1636 14.5095 30.1756 14.4815C30.1877 14.4454 30.2078 14.4574 30.228 14.5095C30.2481 14.5536 30.2843 14.5937 30.3085 14.5977C30.3327 14.6017 30.4615 14.4815 30.5944 14.3331L30.84 14.0645L30.6266 13.9363C30.5098 13.8641 30.4051 13.808 30.3971 13.808C30.385 13.808 30.236 13.7278 30.0629 13.6276C29.8898 13.5314 29.7327 13.4592 29.7126 13.4713C29.6965 13.4833 29.6804 13.4753 29.6804 13.4512C29.6804 13.4312 29.4952 13.3149 29.2697 13.1947C28.549 12.8138 28.3034 12.6815 27.8807 12.441C27.6512 12.3087 27.4579 12.2045 27.4498 12.2045C27.4418 12.2045 27.2928 12.1243 27.1197 12.0321C26.9425 11.9359 26.6567 11.7796 26.4795 11.6834C26.3024 11.5912 26.101 11.4789 26.0326 11.4388C25.9641 11.3987 25.8957 11.3747 25.8836 11.3907C25.8675 11.4027 25.8554 11.3947 25.8554 11.3747C25.8554 11.3506 25.7709 11.2905 25.6662 11.2384C25.5575 11.1863 25.3683 11.0861 25.2394 11.0139C25.1146 10.9377 24.9898 10.8896 24.9616 10.9057C24.9374 10.9217 24.9294 10.9177 24.9415 10.8936C24.9536 10.8736 24.8891 10.8175 24.7965 10.7694C24.7039 10.7213 24.555 10.6371 24.4664 10.589C24.3778 10.5369 24.1523 10.4126 23.9631 10.3124C23.7739 10.2122 23.339 9.97564 22.9968 9.79123C21.7607 9.11777 21.5634 9.00953 21.1648 8.79707C20.9434 8.68082 20.6897 8.54051 20.6012 8.4884C20.5126 8.43628 20.3314 8.34007 20.1985 8.27192C20.0657 8.20378 19.8402 8.07951 19.6952 7.99532C19.043 7.62652 18.8014 7.51027 18.7169 7.53432C18.6524 7.55436 18.6444 7.55035 18.6846 7.52229C18.7289 7.49022 18.7209 7.47018 18.6444 7.42608C18.3666 7.25371 18.2337 7.19358 18.1975 7.21763C18.1733 7.23366 18.1653 7.22965 18.1773 7.2056C18.1894 7.18556 18.133 7.13344 18.0525 7.08935C17.6539 6.88089 16.7641 6.40386 15.8783 5.92281C15.4958 5.71836 15.1617 5.55801 15.1375 5.57405C15.1133 5.59008 15.1053 5.58607 15.1214 5.55801C15.1456 5.52193 15.0409 5.45779 14.2396 5.02886C13.5713 4.66807 13.4022 4.57587 12.9915 4.35138C12.7499 4.21509 12.3312 3.99862 12.0655 3.86633C11.6266 3.64585 11.5501 3.62179 11.2521 3.59774C11.0025 3.58171 10.918 3.58572 10.918 3.62179ZM11.1032 3.6699C11.1153 3.69395 11.1636 3.70598 11.2038 3.69395C11.2924 3.6699 11.3085 3.73805 11.224 3.77012C11.1918 3.78214 11.1233 3.75408 11.075 3.70999C11.0227 3.66188 11.0025 3.6258 11.0307 3.6258C11.0549 3.6258 11.0871 3.64585 11.1032 3.6699ZM13.4747 4.90058C13.4384 4.93666 13.3337 4.86851 13.3337 4.80437C13.3337 4.74023 13.3418 4.74023 13.4143 4.80838C13.4585 4.84847 13.4867 4.88855 13.4747 4.90058ZM15.8703 6.05109C15.8703 6.08717 15.834 6.11122 15.7696 6.11122C15.6649 6.11122 15.6327 6.05109 15.7213 6.01902C15.8139 5.97893 15.8703 5.99096 15.8703 6.05109ZM20.0898 8.32805C20.0979 8.37615 20.0777 8.3962 20.0214 8.3962C19.9731 8.3962 19.9368 8.37214 19.9368 8.34408C19.9368 8.21981 20.0657 8.20779 20.0898 8.32805ZM20.5247 8.54452C20.5971 8.64474 20.5931 8.67681 20.5045 8.67681C20.4321 8.67681 20.3636 8.54452 20.4119 8.50042C20.4482 8.46434 20.4683 8.47236 20.5247 8.54452ZM29.2093 15.4796C29.165 15.6039 29.1489 15.6159 29.0926 15.5678C29.0161 15.5077 29.0201 15.4596 29.1087 15.4395C29.2295 15.4075 29.2375 15.4115 29.2093 15.4796ZM28.7544 16.093C28.7544 16.113 28.7262 16.1331 28.694 16.1331C28.6618 16.1331 28.6336 16.113 28.6336 16.093C28.6336 16.0689 28.6618 16.0529 28.694 16.0529C28.7262 16.0529 28.7544 16.0689 28.7544 16.093ZM28.553 16.2693C28.553 16.3014 28.5369 16.3415 28.5128 16.3535C28.4926 16.3656 28.4725 16.3415 28.4725 16.2974C28.4725 16.2493 28.4926 16.2132 28.5128 16.2132C28.5369 16.2132 28.553 16.2373 28.553 16.2693ZM26.8419 18.0172C26.8298 18.0372 26.7895 18.0572 26.7573 18.0572C26.7251 18.0572 26.701 18.0372 26.701 18.0172C26.701 17.9931 26.7372 17.9771 26.7855 17.9771C26.8298 17.9771 26.854 17.9931 26.8419 18.0172Z" fill="#D3EFFF"/>
<path d="M10.6871 3.6546C10.6347 3.66261 10.5945 3.68667 10.5945 3.70671C10.5945 3.72675 10.5542 3.7468 10.5059 3.75481C10.4536 3.76283 10.4173 3.79089 10.4254 3.81895C10.4294 3.85102 10.4173 3.86305 10.3932 3.84702C10.3529 3.82296 10.067 4.03943 10.0711 4.08754C10.0711 4.09957 10.0268 4.17172 9.9704 4.24388C9.90196 4.33207 9.8778 4.40423 9.89793 4.44833C9.91404 4.49643 9.91001 4.51247 9.8778 4.49242C9.82143 4.46035 9.78922 4.5726 9.77714 4.83717C9.77312 4.93739 9.75298 5.01757 9.72883 5.01757C9.67649 5.00955 9.67246 32.9945 9.7248 33.1108C9.74493 33.1549 9.75701 33.219 9.75298 33.2591C9.74896 33.2952 9.76506 33.3353 9.78922 33.3513C9.80935 33.3633 9.82948 33.4114 9.82948 33.4515C9.82948 33.4956 9.86975 33.5678 9.92209 33.6159C9.9704 33.664 9.98651 33.688 9.9543 33.672C9.92209 33.652 9.9543 33.7241 10.0308 33.8243C10.1033 33.9286 10.1878 34.0127 10.216 34.0127C10.2402 34.0127 10.2724 34.0368 10.2845 34.0649C10.2925 34.0929 10.3851 34.1571 10.4858 34.2092C10.6227 34.2773 10.6831 34.2893 10.7394 34.2613C10.8119 34.2212 12.2211 32.8342 12.7324 32.305C12.8572 32.1727 13.1109 31.9202 13.2961 31.7398C14.1497 30.914 14.9428 30.0962 14.9428 30.0441C14.9428 30.016 14.9509 30 14.963 30.012C14.9952 30.0401 15.265 29.7875 15.265 29.7314C15.265 29.7034 15.277 29.6833 15.2972 29.6833C15.3294 29.6833 15.889 29.1381 15.9897 29.0098C16.0219 28.9698 16.0903 28.9136 16.1427 28.8856C16.191 28.8615 16.2313 28.8134 16.2313 28.7854C16.2313 28.7573 16.2917 28.6891 16.3641 28.637C16.4366 28.5849 16.6138 28.4125 16.7547 28.2602C16.8956 28.1039 17.0526 27.9515 17.105 27.9195C17.1573 27.8874 17.1976 27.8473 17.1976 27.8353C17.1976 27.8112 19.1704 25.8229 21.0064 23.9909C21.2842 23.7143 21.5339 23.4658 21.558 23.4417C21.5862 23.4136 21.7311 23.2693 21.8801 23.121C22.0331 22.9687 22.2223 22.7763 22.3029 22.6921C22.3874 22.6079 23.2732 21.718 24.2757 20.7158C26.0916 18.8998 26.0996 18.8918 26.0272 18.8076C25.9869 18.7595 22.5606 15.3441 18.4135 11.2151C14.2664 7.08607 10.8844 3.70671 10.9045 3.70671C10.9206 3.70671 10.9085 3.68667 10.8763 3.66662C10.8441 3.64658 10.8079 3.63054 10.7958 3.63455C10.7837 3.63455 10.7354 3.64658 10.6871 3.6546Z" fill="white" fill-opacity="0.29"/>
<defs>
<linearGradient id="paint0_linear_3097_1806" x1="26.3907" y1="18.8805" x2="38.548" y2="18.8805" gradientUnits="userSpaceOnUse">
<stop stop-color="#3793AE"/>
<stop offset="1" stop-color="#074287"/>
</linearGradient>
<linearGradient id="paint1_linear_3097_1806" x1="11.5194" y1="26.6118" x2="30.8297" y2="26.6118" gradientUnits="userSpaceOnUse">
<stop stop-color="#3793AE"/>
<stop offset="1" stop-color="#074287"/>
</linearGradient>
</defs>
</svg>
