<svg width="103" height="107" viewBox="0 0 103 107" fill="none" xmlns="http://www.w3.org/2000/svg">
<g clip-path="url(#clip0_3025_3086)">
<path d="M84.8942 48.8242H79.7854H74.6766H69.5781V54.1207H74.6766V64.7244H79.7854V54.1207H84.8942V48.8242Z" fill="black"/>
<path d="M84.8942 48.8242H79.7854H74.6766H69.5781V54.1207H74.6766V64.7244H79.7854V54.1207H84.8942V48.8242Z" fill="white"/>
<path d="M84.8942 48.8242H79.7854H74.6766H69.5781V54.1207H74.6766V64.7244H79.7854V54.1207H84.8942V48.8242Z" fill="url(#paint0_linear_3025_3086)"/>
<path d="M52.6211 49.3803C52.9507 49.1663 53.2906 48.9523 53.6305 48.749L52.6211 49.3803Z" fill="black"/>
<path d="M52.6211 49.3803C52.9507 49.1663 53.2906 48.9523 53.6305 48.749L52.6211 49.3803Z" fill="url(#paint1_linear_3025_3086)"/>
<path d="M53.6305 64.7778C53.2906 64.5745 52.961 64.3712 52.6211 64.1465L53.6305 64.7778Z" fill="black"/>
<path d="M53.6305 64.7778C53.2906 64.5745 52.961 64.3712 52.6211 64.1465L53.6305 64.7778Z" fill="url(#paint2_linear_3025_3086)"/>
<path d="M53.6305 64.7771C60.9435 69.132 69.8221 69.6135 77.5368 66.0825V73.3371C61.0877 82.6782 41.116 82.3144 24.9862 72.3848C24.8317 72.2992 24.6875 72.2029 24.533 72.1066C16.3754 66.8743 13.8519 55.7677 18.8783 47.304C20.2997 44.9179 22.2361 42.9063 24.533 41.4297L24.9862 41.1515C41.116 31.2219 61.0877 30.8581 77.5368 40.1992V47.4538C69.8221 43.9228 60.9538 44.4043 53.6305 48.7592C53.2803 48.9411 52.9507 49.1551 52.6211 49.3905C48.6968 52.2367 47.7286 57.8542 50.4787 61.9416C51.0658 62.8083 51.7868 63.568 52.6211 64.1672C52.9507 64.3812 53.2803 64.5952 53.6305 64.7771Z" fill="black"/>
<path d="M53.6305 64.7771C60.9435 69.132 69.8221 69.6135 77.5368 66.0825V73.3371C61.0877 82.6782 41.116 82.3144 24.9862 72.3848C24.8317 72.2992 24.6875 72.2029 24.533 72.1066C16.3754 66.8743 13.8519 55.7677 18.8783 47.304C20.2997 44.9179 22.2361 42.9063 24.533 41.4297L24.9862 41.1515C41.116 31.2219 61.0877 30.8581 77.5368 40.1992V47.4538C69.8221 43.9228 60.9538 44.4043 53.6305 48.7592C53.2803 48.9411 52.9507 49.1551 52.6211 49.3905C48.6968 52.2367 47.7286 57.8542 50.4787 61.9416C51.0658 62.8083 51.7868 63.568 52.6211 64.1672C52.9507 64.3812 53.2803 64.5952 53.6305 64.7771Z" fill="white"/>
<path d="M53.6305 64.7771C60.9435 69.132 69.8221 69.6135 77.5368 66.0825V73.3371C61.0877 82.6782 41.116 82.3144 24.9862 72.3848C24.8317 72.2992 24.6875 72.2029 24.533 72.1066C16.3754 66.8743 13.8519 55.7677 18.8783 47.304C20.2997 44.9179 22.2361 42.9063 24.533 41.4297L24.9862 41.1515C41.116 31.2219 61.0877 30.8581 77.5368 40.1992V47.4538C69.8221 43.9228 60.9538 44.4043 53.6305 48.7592C53.2803 48.9411 52.9507 49.1551 52.6211 49.3905C48.6968 52.2367 47.7286 57.8542 50.4787 61.9416C51.0658 62.8083 51.7868 63.568 52.6211 64.1672C52.9507 64.3812 53.2803 64.5952 53.6305 64.7771Z" fill="url(#paint3_linear_3025_3086)"/>
<path d="M51.4897 4.5475C60.6567 8.346 69.3293 13.3215 77.3015 19.3456C85.284 25.3697 92.5146 32.4103 98.8285 40.2962C98.1796 50.5147 96.3153 60.6155 93.2665 70.3525C90.2177 80.1002 86.0153 89.4199 80.752 98.0869C71.1936 100.601 61.3571 101.875 51.4897 101.875C41.6223 101.875 31.7961 100.601 22.2274 98.0869C11.6802 80.6887 5.4693 60.8188 4.1715 40.2855C16.8405 24.4709 33.1042 12.1873 51.4897 4.5475ZM51.4897 0C31.3429 8.0464 13.5857 21.4535 0 38.8731C1.133 61.2682 7.9207 82.9678 19.673 101.778C30.0451 104.667 40.7468 106.133 51.4897 106.123C62.2429 106.133 72.9446 104.667 83.3167 101.768C89.1774 92.4052 93.8227 82.283 97.1393 71.6579C100.466 61.0435 102.434 50.0118 102.99 38.8624C96.2226 30.1847 88.3946 22.47 79.6911 15.9109C71.0185 9.3518 61.5322 4.0018 51.4897 0Z" fill="black"/>
<path d="M51.4897 4.5475C60.6567 8.346 69.3293 13.3215 77.3015 19.3456C85.284 25.3697 92.5146 32.4103 98.8285 40.2962C98.1796 50.5147 96.3153 60.6155 93.2665 70.3525C90.2177 80.1002 86.0153 89.4199 80.752 98.0869C71.1936 100.601 61.3571 101.875 51.4897 101.875C41.6223 101.875 31.7961 100.601 22.2274 98.0869C11.6802 80.6887 5.4693 60.8188 4.1715 40.2855C16.8405 24.4709 33.1042 12.1873 51.4897 4.5475ZM51.4897 0C31.3429 8.0464 13.5857 21.4535 0 38.8731C1.133 61.2682 7.9207 82.9678 19.673 101.778C30.0451 104.667 40.7468 106.133 51.4897 106.123C62.2429 106.133 72.9446 104.667 83.3167 101.768C89.1774 92.4052 93.8227 82.283 97.1393 71.6579C100.466 61.0435 102.434 50.0118 102.99 38.8624C96.2226 30.1847 88.3946 22.47 79.6911 15.9109C71.0185 9.3518 61.5322 4.0018 51.4897 0Z" fill="white"/>
<path d="M51.4897 4.5475C60.6567 8.346 69.3293 13.3215 77.3015 19.3456C85.284 25.3697 92.5146 32.4103 98.8285 40.2962C98.1796 50.5147 96.3153 60.6155 93.2665 70.3525C90.2177 80.1002 86.0153 89.4199 80.752 98.0869C71.1936 100.601 61.3571 101.875 51.4897 101.875C41.6223 101.875 31.7961 100.601 22.2274 98.0869C11.6802 80.6887 5.4693 60.8188 4.1715 40.2855C16.8405 24.4709 33.1042 12.1873 51.4897 4.5475ZM51.4897 0C31.3429 8.0464 13.5857 21.4535 0 38.8731C1.133 61.2682 7.9207 82.9678 19.673 101.778C30.0451 104.667 40.7468 106.133 51.4897 106.123C62.2429 106.133 72.9446 104.667 83.3167 101.768C89.1774 92.4052 93.8227 82.283 97.1393 71.6579C100.466 61.0435 102.434 50.0118 102.99 38.8624C96.2226 30.1847 88.3946 22.47 79.6911 15.9109C71.0185 9.3518 61.5322 4.0018 51.4897 0Z" fill="url(#paint4_linear_3025_3086)"/>
</g>
<defs>
<linearGradient id="paint0_linear_3025_3086" x1="69.6857" y1="56.7743" x2="84.8942" y2="56.7743" gradientUnits="userSpaceOnUse">
<stop stop-color="#3793AE"/>
<stop offset="1" stop-color="#074287"/>
</linearGradient>
<linearGradient id="paint1_linear_3025_3086" x1="53.1258" y1="48.749" x2="53.1258" y2="49.3803" gradientUnits="userSpaceOnUse">
<stop stop-color="white"/>
<stop offset="1" stop-color="#999999"/>
</linearGradient>
<linearGradient id="paint2_linear_3025_3086" x1="53.1258" y1="64.1465" x2="53.1258" y2="64.7778" gradientUnits="userSpaceOnUse">
<stop stop-color="white"/>
<stop offset="1" stop-color="#999999"/>
</linearGradient>
<linearGradient id="paint3_linear_3025_3086" x1="16.7233" y1="56.7682" x2="77.5368" y2="56.7682" gradientUnits="userSpaceOnUse">
<stop stop-color="#3793AE"/>
<stop offset="1" stop-color="#074287"/>
</linearGradient>
<linearGradient id="paint4_linear_3025_3086" x1="0.723581" y1="53.0613" x2="102.99" y2="53.0613" gradientUnits="userSpaceOnUse">
<stop stop-color="#3793AE"/>
<stop offset="1" stop-color="#074287"/>
</linearGradient>
<clipPath id="clip0_3025_3086">
<rect width="103" height="107" fill="white"/>
</clipPath>
</defs>
</svg>
