<svg width="26" height="26" viewBox="0 0 26 26" fill="none" xmlns="http://www.w3.org/2000/svg">
<path d="M16.5918 3.28891C16.5128 3.32052 16.3982 3.37981 16.335 3.42723C16.2717 3.47071 15.3232 4.40737 14.2245 5.50607C13.1258 6.60478 12.2128 7.50588 12.197 7.50588C12.1812 7.50588 12.1022 7.44264 12.0231 7.36755C11.9085 7.25689 11.8492 7.22922 11.7188 7.22922C11.5607 7.22922 11.5449 7.24503 9.48189 9.30411L7.40699 11.379L6.56518 13.8965C6.10673 15.2838 5.72732 16.4773 5.72732 16.5524C5.72732 16.667 5.7787 16.7382 6.11068 17.0741C6.45452 17.4258 6.48614 17.4693 6.43476 17.5325C6.40314 17.5681 6.20158 17.7776 5.98816 17.9989C5.77079 18.2163 5.56528 18.4653 5.52576 18.5522C5.43486 18.7459 5.43091 19.0027 5.50995 19.1925C5.56923 19.3308 5.56528 19.3387 5.48229 19.4335C5.43091 19.4849 4.83808 20.0856 4.15831 20.7615C3.37973 21.54 2.91733 22.0341 2.90152 22.1013C2.88571 22.1605 2.88176 22.2475 2.89361 22.2989C2.90942 22.3463 3.16631 22.6308 3.46668 22.9312C3.98046 23.441 4.02393 23.4727 4.16621 23.4727C4.3164 23.4727 4.35987 23.4331 5.66804 22.1289L7.01573 20.7812L7.13429 20.8445C7.30424 20.9314 7.65203 20.9196 7.84173 20.8207C7.92868 20.7773 8.20138 20.5401 8.44246 20.2991L8.88906 19.8604L9.27637 20.2437C9.63602 20.5955 9.67949 20.6271 9.82177 20.6271C9.91663 20.6271 10.9363 20.307 12.4816 19.7892L14.9873 18.9553L17.0384 16.9002C18.1688 15.7659 19.1094 14.8016 19.1291 14.7502C19.1805 14.6158 19.141 14.5012 18.9829 14.3273C18.9078 14.2483 18.8485 14.1732 18.8485 14.1653C18.8485 14.1534 19.7536 13.2405 20.8641 12.1299C21.9708 11.0194 22.9272 10.0392 22.9865 9.94832C23.0853 9.80209 23.0971 9.75071 23.0971 9.44639C23.0971 9.13022 23.0892 9.0907 22.9707 8.9089C22.7849 8.61644 17.5641 3.42723 17.3704 3.33633C17.1649 3.24543 16.7736 3.22172 16.5918 3.28891ZM17.3507 4.21371L17.6234 4.47851L16.7934 5.30847C16.335 5.76692 15.9437 6.17004 15.9239 6.20166C15.9042 6.23327 15.8844 6.32417 15.8844 6.39927C15.8844 6.52574 16.0069 6.66011 17.8526 8.50182L19.8168 10.47H19.9907H20.1686L21.0301 9.61238L21.8917 8.75476L22.1486 9.0077C22.4253 9.28435 22.4806 9.41477 22.3897 9.58867C22.3581 9.64795 21.4372 10.5925 20.3425 11.6873L18.3545 13.6713L17.4139 12.7306L16.4772 11.794L17.0898 11.1814C17.7419 10.5293 17.817 10.4107 17.6906 10.221C17.6589 10.1736 17.3032 9.80209 16.9001 9.39897C16.1255 8.62039 16.0504 8.57296 15.8251 8.67177C15.7619 8.69943 15.4497 8.98399 15.1335 9.30016L14.5604 9.87718L13.6317 8.94842L12.699 8.01571L14.7343 5.98429C16.7262 3.99239 16.7736 3.94892 16.9238 3.94892C17.0582 3.94892 17.1096 3.98054 17.3507 4.21371ZM18.3348 5.19385L18.5482 5.41518L17.8486 6.11471L17.1491 6.81425L16.9238 6.58897L16.7025 6.3637L17.3902 5.67602C17.7696 5.29266 18.0858 4.98044 18.0976 4.98044C18.1095 4.97648 18.2162 5.07529 18.3348 5.19385ZM19.2793 6.14633L19.4927 6.36765L18.7932 7.06323L18.0976 7.76277L17.8763 7.54144L17.655 7.32012L18.3427 6.62849C18.7181 6.24513 19.0343 5.93291 19.0461 5.92896C19.058 5.925 19.1647 6.02381 19.2793 6.14633ZM20.2278 7.09485L20.4413 7.31617L19.7417 8.01175L19.0461 8.71129L18.8209 8.48601L18.5916 8.25679L19.2833 7.56516C19.6627 7.18575 19.9828 6.87353 19.9947 6.87353C20.0065 6.87353 20.1132 6.97233 20.2278 7.09485ZM21.1764 8.04337L21.3898 8.26469L20.6902 8.96027L19.9947 9.65981L19.7694 9.43058L19.5402 9.20531L20.2318 8.51368C20.6112 8.13427 20.9313 7.82205 20.9432 7.82205C20.955 7.82205 21.0618 7.92085 21.1764 8.04337ZM12.8847 9.20136C13.5131 9.82975 14.0269 10.3554 14.0269 10.3712C14.0269 10.391 13.6751 10.7625 13.2444 11.1972C12.5211 11.9323 12.4539 12.0114 12.367 12.2485C12.0271 13.1575 12.6515 14.0744 13.6119 14.0783C13.8095 14.0823 13.9557 14.0546 14.1257 13.9874C14.3352 13.9084 14.4537 13.8056 15.1572 13.1101C15.5919 12.6793 15.9635 12.3275 15.9793 12.3275C16.0148 12.3275 18.2952 14.6158 18.2952 14.6514C18.2952 14.6949 14.841 18.1372 14.7976 18.1372C14.7738 18.1372 14.5881 17.9673 14.3826 17.7618C14.0387 17.4179 13.9953 17.3863 13.8569 17.3863C13.6712 17.3863 13.5131 17.5286 13.5131 17.6946C13.5131 17.829 13.6119 17.9673 13.9162 18.2676C14.0427 18.3902 14.1296 18.4969 14.1099 18.5087C14.0901 18.5206 13.1456 18.8407 12.0073 19.2241L9.93639 19.9157L8.20929 18.1846C7.25681 17.2361 6.47823 16.4417 6.47428 16.418C6.47033 16.3469 7.84173 12.2485 7.8694 12.2485C7.88521 12.2485 8.9602 13.3116 10.2565 14.6079C11.5528 15.9082 12.6634 17.0029 12.7187 17.0385C12.8649 17.1373 12.9993 17.1255 13.1258 17.0029C13.2048 16.9279 13.2365 16.8607 13.2365 16.7579C13.2365 16.6235 13.1021 16.4813 10.7189 14.0981C9.33566 12.7148 8.21324 11.5648 8.22905 11.5489C8.35156 11.4106 11.7149 8.05918 11.7267 8.05918C11.7386 8.05918 12.2603 8.57296 12.8847 9.20136ZM15.4694 11.8177C14.6869 12.6002 13.9795 13.276 13.9004 13.3195C13.7068 13.4183 13.4894 13.4144 13.3076 13.3037C13.0151 13.1259 12.9005 12.8453 12.9993 12.5488C13.0349 12.4421 13.4143 12.039 14.5091 10.9403L15.9753 9.47406L16.4338 9.93251L16.8922 10.391L15.4694 11.8177ZM7.70341 18.6708L8.39504 19.3624L7.95635 19.7971C7.71526 20.0382 7.49394 20.2319 7.46628 20.2319C7.43466 20.2319 7.12244 19.9394 6.76674 19.5877C6.25296 19.0739 6.12649 18.9237 6.14625 18.8644C6.16996 18.7933 6.94854 17.9791 6.99202 17.9791C7.00387 17.9791 7.324 18.2914 7.70341 18.6708ZM6.28063 20.0935L6.49799 20.3109L5.3321 21.4768L4.16621 22.6427L3.94094 22.4174L3.71171 22.1882L4.86575 21.0342C5.50205 20.3979 6.03164 19.8762 6.04349 19.8762C6.05535 19.8762 6.16206 19.975 6.28063 20.0935Z" fill="black"/>
<path d="M16.5918 3.28891C16.5128 3.32052 16.3982 3.37981 16.335 3.42723C16.2717 3.47071 15.3232 4.40737 14.2245 5.50607C13.1258 6.60478 12.2128 7.50588 12.197 7.50588C12.1812 7.50588 12.1022 7.44264 12.0231 7.36755C11.9085 7.25689 11.8492 7.22922 11.7188 7.22922C11.5607 7.22922 11.5449 7.24503 9.48189 9.30411L7.40699 11.379L6.56518 13.8965C6.10673 15.2838 5.72732 16.4773 5.72732 16.5524C5.72732 16.667 5.7787 16.7382 6.11068 17.0741C6.45452 17.4258 6.48614 17.4693 6.43476 17.5325C6.40314 17.5681 6.20158 17.7776 5.98816 17.9989C5.77079 18.2163 5.56528 18.4653 5.52576 18.5522C5.43486 18.7459 5.43091 19.0027 5.50995 19.1925C5.56923 19.3308 5.56528 19.3387 5.48229 19.4335C5.43091 19.4849 4.83808 20.0856 4.15831 20.7615C3.37973 21.54 2.91733 22.0341 2.90152 22.1013C2.88571 22.1605 2.88176 22.2475 2.89361 22.2989C2.90942 22.3463 3.16631 22.6308 3.46668 22.9312C3.98046 23.441 4.02393 23.4727 4.16621 23.4727C4.3164 23.4727 4.35987 23.4331 5.66804 22.1289L7.01573 20.7812L7.13429 20.8445C7.30424 20.9314 7.65203 20.9196 7.84173 20.8207C7.92868 20.7773 8.20138 20.5401 8.44246 20.2991L8.88906 19.8604L9.27637 20.2437C9.63602 20.5955 9.67949 20.6271 9.82177 20.6271C9.91663 20.6271 10.9363 20.307 12.4816 19.7892L14.9873 18.9553L17.0384 16.9002C18.1688 15.7659 19.1094 14.8016 19.1291 14.7502C19.1805 14.6158 19.141 14.5012 18.9829 14.3273C18.9078 14.2483 18.8485 14.1732 18.8485 14.1653C18.8485 14.1534 19.7536 13.2405 20.8641 12.1299C21.9708 11.0194 22.9272 10.0392 22.9865 9.94832C23.0853 9.80209 23.0971 9.75071 23.0971 9.44639C23.0971 9.13022 23.0892 9.0907 22.9707 8.9089C22.7849 8.61644 17.5641 3.42723 17.3704 3.33633C17.1649 3.24543 16.7736 3.22172 16.5918 3.28891ZM17.3507 4.21371L17.6234 4.47851L16.7934 5.30847C16.335 5.76692 15.9437 6.17004 15.9239 6.20166C15.9042 6.23327 15.8844 6.32417 15.8844 6.39927C15.8844 6.52574 16.0069 6.66011 17.8526 8.50182L19.8168 10.47H19.9907H20.1686L21.0301 9.61238L21.8917 8.75476L22.1486 9.0077C22.4253 9.28435 22.4806 9.41477 22.3897 9.58867C22.3581 9.64795 21.4372 10.5925 20.3425 11.6873L18.3545 13.6713L17.4139 12.7306L16.4772 11.794L17.0898 11.1814C17.7419 10.5293 17.817 10.4107 17.6906 10.221C17.6589 10.1736 17.3032 9.80209 16.9001 9.39897C16.1255 8.62039 16.0504 8.57296 15.8251 8.67177C15.7619 8.69943 15.4497 8.98399 15.1335 9.30016L14.5604 9.87718L13.6317 8.94842L12.699 8.01571L14.7343 5.98429C16.7262 3.99239 16.7736 3.94892 16.9238 3.94892C17.0582 3.94892 17.1096 3.98054 17.3507 4.21371ZM18.3348 5.19385L18.5482 5.41518L17.8486 6.11471L17.1491 6.81425L16.9238 6.58897L16.7025 6.3637L17.3902 5.67602C17.7696 5.29266 18.0858 4.98044 18.0976 4.98044C18.1095 4.97648 18.2162 5.07529 18.3348 5.19385ZM19.2793 6.14633L19.4927 6.36765L18.7932 7.06323L18.0976 7.76277L17.8763 7.54144L17.655 7.32012L18.3427 6.62849C18.7181 6.24513 19.0343 5.93291 19.0461 5.92896C19.058 5.925 19.1647 6.02381 19.2793 6.14633ZM20.2278 7.09485L20.4413 7.31617L19.7417 8.01175L19.0461 8.71129L18.8209 8.48601L18.5916 8.25679L19.2833 7.56516C19.6627 7.18575 19.9828 6.87353 19.9947 6.87353C20.0065 6.87353 20.1132 6.97233 20.2278 7.09485ZM21.1764 8.04337L21.3898 8.26469L20.6902 8.96027L19.9947 9.65981L19.7694 9.43058L19.5402 9.20531L20.2318 8.51368C20.6112 8.13427 20.9313 7.82205 20.9432 7.82205C20.955 7.82205 21.0618 7.92085 21.1764 8.04337ZM12.8847 9.20136C13.5131 9.82975 14.0269 10.3554 14.0269 10.3712C14.0269 10.391 13.6751 10.7625 13.2444 11.1972C12.5211 11.9323 12.4539 12.0114 12.367 12.2485C12.0271 13.1575 12.6515 14.0744 13.6119 14.0783C13.8095 14.0823 13.9557 14.0546 14.1257 13.9874C14.3352 13.9084 14.4537 13.8056 15.1572 13.1101C15.5919 12.6793 15.9635 12.3275 15.9793 12.3275C16.0148 12.3275 18.2952 14.6158 18.2952 14.6514C18.2952 14.6949 14.841 18.1372 14.7976 18.1372C14.7738 18.1372 14.5881 17.9673 14.3826 17.7618C14.0387 17.4179 13.9953 17.3863 13.8569 17.3863C13.6712 17.3863 13.5131 17.5286 13.5131 17.6946C13.5131 17.829 13.6119 17.9673 13.9162 18.2676C14.0427 18.3902 14.1296 18.4969 14.1099 18.5087C14.0901 18.5206 13.1456 18.8407 12.0073 19.2241L9.93639 19.9157L8.20929 18.1846C7.25681 17.2361 6.47823 16.4417 6.47428 16.418C6.47033 16.3469 7.84173 12.2485 7.8694 12.2485C7.88521 12.2485 8.9602 13.3116 10.2565 14.6079C11.5528 15.9082 12.6634 17.0029 12.7187 17.0385C12.8649 17.1373 12.9993 17.1255 13.1258 17.0029C13.2048 16.9279 13.2365 16.8607 13.2365 16.7579C13.2365 16.6235 13.1021 16.4813 10.7189 14.0981C9.33566 12.7148 8.21324 11.5648 8.22905 11.5489C8.35156 11.4106 11.7149 8.05918 11.7267 8.05918C11.7386 8.05918 12.2603 8.57296 12.8847 9.20136ZM15.4694 11.8177C14.6869 12.6002 13.9795 13.276 13.9004 13.3195C13.7068 13.4183 13.4894 13.4144 13.3076 13.3037C13.0151 13.1259 12.9005 12.8453 12.9993 12.5488C13.0349 12.4421 13.4143 12.039 14.5091 10.9403L15.9753 9.47406L16.4338 9.93251L16.8922 10.391L15.4694 11.8177ZM7.70341 18.6708L8.39504 19.3624L7.95635 19.7971C7.71526 20.0382 7.49394 20.2319 7.46628 20.2319C7.43466 20.2319 7.12244 19.9394 6.76674 19.5877C6.25296 19.0739 6.12649 18.9237 6.14625 18.8644C6.16996 18.7933 6.94854 17.9791 6.99202 17.9791C7.00387 17.9791 7.324 18.2914 7.70341 18.6708ZM6.28063 20.0935L6.49799 20.3109L5.3321 21.4768L4.16621 22.6427L3.94094 22.4174L3.71171 22.1882L4.86575 21.0342C5.50205 20.3979 6.03164 19.8762 6.04349 19.8762C6.05535 19.8762 6.16206 19.975 6.28063 20.0935Z" fill="url(#paint0_linear_3025_2868)"/>
<path d="M7.96655 14.1459C7.85588 14.2368 7.80846 14.379 7.85193 14.4976C7.86774 14.545 8.66213 15.3631 9.61855 16.3235C11.9108 18.6197 11.8199 18.5328 11.9582 18.5328C12.1282 18.5328 12.2863 18.351 12.2863 18.1652C12.2863 18.0229 12.2151 17.9439 10.3813 16.1101C9.334 15.0628 8.4329 14.1735 8.37757 14.138C8.2432 14.0471 8.09301 14.0471 7.96655 14.1459Z" fill="black"/>
<path d="M7.96655 14.1459C7.85588 14.2368 7.80846 14.379 7.85193 14.4976C7.86774 14.545 8.66213 15.3631 9.61855 16.3235C11.9108 18.6197 11.8199 18.5328 11.9582 18.5328C12.1282 18.5328 12.2863 18.351 12.2863 18.1652C12.2863 18.0229 12.2151 17.9439 10.3813 16.1101C9.334 15.0628 8.4329 14.1735 8.37757 14.138C8.2432 14.0471 8.09301 14.0471 7.96655 14.1459Z" fill="url(#paint1_linear_3025_2868)"/>
<defs>
<linearGradient id="paint0_linear_3025_2868" x1="16.1661" y1="20.1365" x2="24.1442" y2="19.7064" gradientUnits="userSpaceOnUse">
<stop stop-color="#3793AE"/>
<stop offset="1" stop-color="#074287"/>
</linearGradient>
<linearGradient id="paint1_linear_3025_2868" x1="10.7601" y1="17.797" x2="12.5169" y2="17.7025" gradientUnits="userSpaceOnUse">
<stop stop-color="#3793AE"/>
<stop offset="1" stop-color="#074287"/>
</linearGradient>
</defs>
</svg>
