<svg width="37" height="37" viewBox="0 0 37 37" fill="none" xmlns="http://www.w3.org/2000/svg">
<path d="M31.4973 25.393L30.6144 24.8931C30.4641 24.7925 30.3104 24.7047 30.1539 24.6267C30.1811 24.3913 30.2 24.1504 30.2 23.8999C30.2 19.8028 26.1976 16.4575 21.1934 16.2681V13.2182C21.1934 12.469 21.4583 11.7605 21.9399 11.1959C22.2469 11.2587 22.5582 11.3 22.8722 11.3C24.1088 11.3 25.2707 10.8192 26.1434 9.94622C27.3062 8.78364 27.765 7.07067 27.3409 5.47588C27.2992 5.31989 27.1774 5.19812 27.0215 5.15662C26.6308 5.05273 26.2274 5 25.8222 5C24.5855 5 23.4236 5.48078 22.5509 6.35374C21.4521 7.45252 20.9921 9.04251 21.3022 10.5606C21.0823 10.8095 20.8936 11.0794 20.7435 11.3685C20.5963 11.0849 20.412 10.8198 20.1976 10.5749C20.5136 9.05248 20.054 7.456 18.9517 6.35374C18.079 5.48078 16.9171 5 15.6805 5C15.2753 5 14.8719 5.05273 14.4812 5.15667C14.3252 5.19823 14.2035 5.31994 14.1618 5.47593C13.7377 7.07072 14.1965 8.78369 15.3592 9.94627C16.232 10.8192 17.3939 11.3 18.6305 11.3C18.9399 11.3 19.2466 11.2596 19.5493 11.1987C20.0294 11.7623 20.2934 12.4701 20.2934 13.2182V16.2656C16.188 16.4227 12.7112 18.6757 11.639 21.8876C11.2221 21.9903 10.8099 22.0736 10.4005 22.1379V21.6496C10.4005 21.1532 9.99663 20.7496 9.50046 20.7496H5.90002C5.40389 20.7495 5 21.1532 5 21.6496V31.1C5 31.5964 5.40389 32 5.90002 32H9.50046C9.99658 32 10.4005 31.5964 10.4005 31.1V30.7294L21.0273 31.5366C21.1394 31.5454 21.2519 31.5495 21.3639 31.5495C22.0262 31.5495 22.6845 31.3984 23.2857 31.1062L31.442 27.1456C31.7759 26.9795 31.9895 26.6475 31.9996 26.279C32.0097 25.9145 31.8172 25.575 31.4973 25.393ZM23.1872 6.99004C23.8903 6.28714 24.826 5.89996 25.8222 5.89996C26.0599 5.89996 26.2973 5.92238 26.5302 5.96699C26.7609 7.17614 26.3808 8.43628 25.5071 9.30993C24.6361 10.1805 23.3744 10.565 22.1647 10.333C21.9339 9.12362 22.3136 7.86369 23.1872 6.99004ZM19.3381 10.333C19.1051 10.3776 18.8683 10.4 18.6305 10.4C17.6343 10.4 16.6987 10.0128 15.9955 9.30993C15.1219 8.43628 14.7418 7.17614 14.9725 5.96699C15.2054 5.92238 15.4427 5.89996 15.6805 5.89996C16.6767 5.89996 17.6123 6.28714 18.3154 6.99004C19.1891 7.86369 19.5688 9.12362 19.3381 10.333ZM5.90002 31.1V21.6496H9.50046L9.50088 31.1H5.90002ZM20.7296 17.1507C20.7345 17.1509 20.7385 17.1535 20.7434 17.1535C20.749 17.1535 20.7536 17.1506 20.759 17.1504C25.4693 17.1543 29.3 20.1805 29.3 23.9C29.3 24.0449 29.2929 24.1859 29.2823 24.3245C28.3435 24.1157 27.2987 24.2512 26.114 24.7479L21.3947 26.8766C21.0088 27.0494 20.5668 27.0166 20.2112 26.7887L16.8209 24.6119C18.424 23.8082 20.0275 23.0021 21.6215 22.1969C21.9286 22.0464 22.1352 21.7555 22.1743 21.4191C22.2129 21.0864 22.0802 20.7601 21.817 20.5443C20.1339 19.1849 18.3686 19.0442 16.2623 20.1002C14.9756 20.746 13.8228 21.2285 12.7306 21.5786C13.9478 18.9753 17.1504 17.1577 20.7296 17.1507ZM31.0451 26.3379L22.8923 30.2967C22.3325 30.5689 21.7115 30.686 21.0963 30.6392L10.4005 29.8269V23.0473C12.3406 22.7616 14.293 22.0958 16.6657 20.9047C18.4675 20.0016 19.8386 20.1035 21.2493 21.2424C21.2581 21.2496 21.2853 21.2721 21.2805 21.3153C21.2778 21.3377 21.266 21.3687 21.2202 21.3912C19.3882 22.3167 17.5508 23.2421 15.7108 24.163C15.0455 24.5005 14.3736 24.8378 13.7025 25.1749C13.4806 25.2865 13.391 25.557 13.5022 25.7791C13.5813 25.9364 13.7399 26.0272 13.9047 26.0272C13.9728 26.0272 14.0418 26.0118 14.1064 25.9793C14.7024 25.6799 15.2969 25.3806 15.8873 25.0818L19.7248 27.546C20.3369 27.9391 21.0994 27.996 21.7638 27.6976L26.473 25.5733C27.9584 24.9502 29.1159 24.9724 30.1416 25.6583L31.0526 26.1758C31.0649 26.1826 31.1014 26.2035 31.1 26.2542C31.0996 26.2801 31.0886 26.3161 31.0451 26.3379Z" fill="black"/>
<path d="M31.4973 25.393L30.6144 24.8931C30.4641 24.7925 30.3104 24.7047 30.1539 24.6267C30.1811 24.3913 30.2 24.1504 30.2 23.8999C30.2 19.8028 26.1976 16.4575 21.1934 16.2681V13.2182C21.1934 12.469 21.4583 11.7605 21.9399 11.1959C22.2469 11.2587 22.5582 11.3 22.8722 11.3C24.1088 11.3 25.2707 10.8192 26.1434 9.94622C27.3062 8.78364 27.765 7.07067 27.3409 5.47588C27.2992 5.31989 27.1774 5.19812 27.0215 5.15662C26.6308 5.05273 26.2274 5 25.8222 5C24.5855 5 23.4236 5.48078 22.5509 6.35374C21.4521 7.45252 20.9921 9.04251 21.3022 10.5606C21.0823 10.8095 20.8936 11.0794 20.7435 11.3685C20.5963 11.0849 20.412 10.8198 20.1976 10.5749C20.5136 9.05248 20.054 7.456 18.9517 6.35374C18.079 5.48078 16.9171 5 15.6805 5C15.2753 5 14.8719 5.05273 14.4812 5.15667C14.3252 5.19823 14.2035 5.31994 14.1618 5.47593C13.7377 7.07072 14.1965 8.78369 15.3592 9.94627C16.232 10.8192 17.3939 11.3 18.6305 11.3C18.9399 11.3 19.2466 11.2596 19.5493 11.1987C20.0294 11.7623 20.2934 12.4701 20.2934 13.2182V16.2656C16.188 16.4227 12.7112 18.6757 11.639 21.8876C11.2221 21.9903 10.8099 22.0736 10.4005 22.1379V21.6496C10.4005 21.1532 9.99663 20.7496 9.50046 20.7496H5.90002C5.40389 20.7495 5 21.1532 5 21.6496V31.1C5 31.5964 5.40389 32 5.90002 32H9.50046C9.99658 32 10.4005 31.5964 10.4005 31.1V30.7294L21.0273 31.5366C21.1394 31.5454 21.2519 31.5495 21.3639 31.5495C22.0262 31.5495 22.6845 31.3984 23.2857 31.1062L31.442 27.1456C31.7759 26.9795 31.9895 26.6475 31.9996 26.279C32.0097 25.9145 31.8172 25.575 31.4973 25.393ZM23.1872 6.99004C23.8903 6.28714 24.826 5.89996 25.8222 5.89996C26.0599 5.89996 26.2973 5.92238 26.5302 5.96699C26.7609 7.17614 26.3808 8.43628 25.5071 9.30993C24.6361 10.1805 23.3744 10.565 22.1647 10.333C21.9339 9.12362 22.3136 7.86369 23.1872 6.99004ZM19.3381 10.333C19.1051 10.3776 18.8683 10.4 18.6305 10.4C17.6343 10.4 16.6987 10.0128 15.9955 9.30993C15.1219 8.43628 14.7418 7.17614 14.9725 5.96699C15.2054 5.92238 15.4427 5.89996 15.6805 5.89996C16.6767 5.89996 17.6123 6.28714 18.3154 6.99004C19.1891 7.86369 19.5688 9.12362 19.3381 10.333ZM5.90002 31.1V21.6496H9.50046L9.50088 31.1H5.90002ZM20.7296 17.1507C20.7345 17.1509 20.7385 17.1535 20.7434 17.1535C20.749 17.1535 20.7536 17.1506 20.759 17.1504C25.4693 17.1543 29.3 20.1805 29.3 23.9C29.3 24.0449 29.2929 24.1859 29.2823 24.3245C28.3435 24.1157 27.2987 24.2512 26.114 24.7479L21.3947 26.8766C21.0088 27.0494 20.5668 27.0166 20.2112 26.7887L16.8209 24.6119C18.424 23.8082 20.0275 23.0021 21.6215 22.1969C21.9286 22.0464 22.1352 21.7555 22.1743 21.4191C22.2129 21.0864 22.0802 20.7601 21.817 20.5443C20.1339 19.1849 18.3686 19.0442 16.2623 20.1002C14.9756 20.746 13.8228 21.2285 12.7306 21.5786C13.9478 18.9753 17.1504 17.1577 20.7296 17.1507ZM31.0451 26.3379L22.8923 30.2967C22.3325 30.5689 21.7115 30.686 21.0963 30.6392L10.4005 29.8269V23.0473C12.3406 22.7616 14.293 22.0958 16.6657 20.9047C18.4675 20.0016 19.8386 20.1035 21.2493 21.2424C21.2581 21.2496 21.2853 21.2721 21.2805 21.3153C21.2778 21.3377 21.266 21.3687 21.2202 21.3912C19.3882 22.3167 17.5508 23.2421 15.7108 24.163C15.0455 24.5005 14.3736 24.8378 13.7025 25.1749C13.4806 25.2865 13.391 25.557 13.5022 25.7791C13.5813 25.9364 13.7399 26.0272 13.9047 26.0272C13.9728 26.0272 14.0418 26.0118 14.1064 25.9793C14.7024 25.6799 15.2969 25.3806 15.8873 25.0818L19.7248 27.546C20.3369 27.9391 21.0994 27.996 21.7638 27.6976L26.473 25.5733C27.9584 24.9502 29.1159 24.9724 30.1416 25.6583L31.0526 26.1758C31.0649 26.1826 31.1014 26.2035 31.1 26.2542C31.0996 26.2801 31.0886 26.3161 31.0451 26.3379Z" fill="url(#paint0_linear_3079_1900)"/>
<defs>
<linearGradient id="paint0_linear_3079_1900" x1="5.1897" y1="18.5" x2="32" y2="18.5" gradientUnits="userSpaceOnUse">
<stop stop-color="#3793AE"/>
<stop offset="1" stop-color="#074287"/>
</linearGradient>
</defs>
</svg>
