<svg width="36" height="36" viewBox="0 0 36 36" fill="none" xmlns="http://www.w3.org/2000/svg">
<g clip-path="url(#clip0_3079_1822)">
<path d="M15.9865 19.0062C15.7136 19.0062 15.4916 18.7527 15.4916 18.4414V18.0409C16.1789 17.8944 16.6961 17.2836 16.6961 16.5537V15.5957C16.6961 14.7569 16.0134 14.0742 15.1743 14.0742H6.23756C5.39847 14.0742 4.71574 14.7569 4.71574 15.5957V16.5537C4.71574 17.2836 5.23308 17.8944 5.92031 18.0409V18.4414C5.92031 18.7527 5.69823 19.0062 5.42538 19.0062C4.64367 19.0062 4.00781 19.682 4.00781 20.5127V30.4943C4.00815 31.3246 4.64401 32.0004 5.42572 32.0004H15.9865C16.7682 32.0004 17.4041 31.3246 17.4041 30.4939V20.5127C17.4041 19.682 16.7683 19.0062 15.9865 19.0062ZM5.41527 16.5537V15.5957C5.41527 15.1424 5.7843 14.7737 6.23756 14.7737H15.1751C15.6283 14.7737 15.9974 15.1424 15.9974 15.5957V16.5537C15.9974 17.007 15.6283 17.3757 15.1751 17.3757H6.23756C5.78423 17.376 5.41527 17.007 5.41527 16.5537ZM16.7049 30.4939C16.7049 30.9389 16.3828 31.3009 15.9869 31.3009H5.42572C5.02978 31.3009 4.70768 30.9389 4.70768 30.4939V29.5782H16.7049V30.4939ZM16.7049 28.8791H4.70768V21.7351H16.7049V28.8791ZM16.7049 21.036H4.70768V20.5128C4.70768 20.0678 5.02985 19.7058 5.42572 19.7058C6.08433 19.7058 6.62018 19.1385 6.62018 18.4414V18.0752H14.7924V18.4414C14.7924 19.1385 15.3283 19.7058 15.9869 19.7058C16.3828 19.7058 16.7049 20.0678 16.7049 20.5128V21.036Z" fill="url(#paint0_linear_3079_1822)"/>
<path d="M30.5728 8.93202C30.2999 8.93202 30.0778 8.67844 30.0778 8.36714V7.96668C30.7651 7.82015 31.2824 7.20943 31.2824 6.4795V5.52147C31.2825 4.68272 30.5998 4 29.7607 4H20.8235C19.9844 4 19.3017 4.68272 19.3017 5.52147V6.4795C19.3017 7.20943 19.819 7.82015 20.5063 7.96668V8.36714C20.5063 8.67844 20.2842 8.93202 20.0113 8.93202C19.2296 8.93202 18.5938 9.60777 18.5938 10.4385V30.4936C18.5941 31.3243 19.2303 32.0001 20.0117 32.0001H30.5725C31.3545 32.0001 31.9904 31.3243 31.9904 30.4936V10.4385C31.9904 9.60777 31.3545 8.93202 30.5728 8.93202ZM20.0016 6.47984V5.52182C20.0016 5.06856 20.3706 4.69987 20.8238 4.69987H29.7613C30.2146 4.69987 30.5836 5.06849 30.5836 5.52182V6.47984C30.5836 6.9331 30.2146 7.30179 29.7613 7.30179H20.8235C20.3702 7.30179 20.0016 6.9331 20.0016 6.47984ZM31.2909 30.494C31.2909 30.9385 30.9687 31.3005 30.5728 31.3005H20.0117C19.6157 31.3005 19.2936 30.9385 19.2936 30.4936V26.3745H31.2909V30.494ZM31.2909 25.6749H19.2936V13.4097H31.2909V25.6749ZM31.2909 12.7105H19.2936V10.4388C19.2936 9.99388 19.6157 9.63189 20.0117 9.63189C20.6703 9.63189 21.2061 9.06455 21.2061 8.36748V8.00125H29.3784V8.36748C29.3784 9.06455 29.9142 9.63189 30.5728 9.63189C30.9688 9.63189 31.2909 9.99388 31.2909 10.4388V12.7105Z" fill="url(#paint1_linear_3079_1822)"/>
<path d="M24.7849 18.531L23.0613 16.8066C22.4446 16.19 21.4408 16.1893 20.8235 16.8056C20.5244 17.1043 20.3594 17.5013 20.3594 17.9238C20.359 18.346 20.5234 18.7433 20.8221 19.0421L22.5461 20.7664C22.8546 21.0749 23.26 21.2295 23.6657 21.2295C24.0707 21.2295 24.4754 21.0756 24.7839 20.7679C25.083 20.4692 25.248 20.0721 25.248 19.6496C25.2484 19.227 25.0839 18.8297 24.7849 18.531ZM21.317 18.5474C21.1505 18.3806 21.0588 18.1592 21.0588 17.9238C21.0588 17.6884 21.1509 17.4669 21.3177 17.3005C21.4898 17.1284 21.7157 17.0427 21.942 17.0427C22.1683 17.0427 22.3946 17.1288 22.567 17.3009L23.1812 17.9154L21.9318 19.1623L21.317 18.5474ZM24.2896 20.2721C23.9451 20.6159 23.3852 20.6156 23.0406 20.2714L22.4261 19.6569L23.6754 18.4099L24.2903 19.0248C24.4568 19.192 24.5488 19.4134 24.5485 19.6488C24.5485 19.8842 24.4565 20.106 24.2896 20.2721Z" fill="url(#paint2_linear_3079_1822)"/>
<path d="M12.6998 25.0514L10.967 23.3183C10.348 22.6992 9.33995 22.6985 8.72014 23.3169C8.42004 23.6167 8.25425 24.0154 8.25391 24.4393C8.25391 24.8632 8.41902 25.2623 8.71912 25.5624L10.4519 27.2955C10.7618 27.6053 11.1686 27.7603 11.5757 27.7603C11.9825 27.7603 12.3889 27.6057 12.6984 27.2968C12.9985 26.9971 13.1643 26.5983 13.1647 26.1744C13.165 25.7501 12.9999 25.3511 12.6998 25.0514ZM9.21371 25.0674C9.0462 24.8995 8.9535 24.6764 8.95384 24.4393C8.95419 24.2022 9.04655 23.9793 9.21439 23.8118C9.38791 23.6387 9.61519 23.5523 9.84294 23.5523C10.071 23.5523 10.2991 23.6391 10.4725 23.8125L11.0912 24.4312L9.83276 25.6869L9.21371 25.0674ZM12.2042 26.8012C11.8576 27.1475 11.2934 27.1475 10.9461 26.8005L10.3274 26.1818L11.5858 24.9261L12.2049 25.5456C12.3728 25.7131 12.4651 25.9363 12.4651 26.1734C12.4651 26.4105 12.3724 26.6336 12.2042 26.8012Z" fill="url(#paint3_linear_3079_1822)"/>
<path d="M30.1492 21.8051C29.8754 20.7114 28.7631 20.0434 27.6684 20.3173C27.1381 20.4495 26.6915 20.78 26.4099 21.2483C26.1286 21.7167 26.0465 22.2661 26.1791 22.796C26.411 23.7239 27.2476 24.3452 28.1643 24.3452C28.3276 24.3452 28.4941 24.3252 28.6599 24.284C29.1902 24.1518 29.6368 23.8209 29.918 23.3529C30.1996 22.8849 30.2814 22.335 30.1492 21.8051ZM27.0093 21.6086C27.1947 21.3004 27.4885 21.0829 27.8376 20.9958C27.9467 20.9686 28.0562 20.9556 28.1639 20.9556C28.6508 20.9556 29.0988 21.2242 29.3356 21.6477L26.8229 22.2745C26.8271 22.042 26.8862 21.8132 27.0093 21.6086ZM29.3178 22.9926C29.1331 23.3004 28.839 23.5183 28.4902 23.6054C27.8879 23.7547 27.2821 23.4701 26.9929 22.9531L29.5045 22.3263C29.5004 22.5589 29.4409 22.788 29.3178 22.9926Z" fill="url(#paint4_linear_3079_1822)"/>
<path d="M29.4212 15.436C28.7528 14.5279 27.4702 14.3324 26.5612 14.9998C26.1208 15.3233 25.8329 15.7986 25.7504 16.3387C25.6679 16.8783 25.8011 17.418 26.1246 17.858C26.5251 18.4023 27.1463 18.6905 27.7755 18.6905C28.1962 18.6905 28.6205 18.5614 28.9846 18.2942C29.425 17.9707 29.7129 17.4953 29.7954 16.9553C29.878 16.4153 29.7447 15.876 29.4212 15.436ZM26.6881 17.4429C26.4754 17.154 26.388 16.7993 26.4419 16.4439C26.4779 16.2078 26.5786 15.9934 26.7242 15.8116L28.2575 17.8951C27.7045 18.1085 27.056 17.9424 26.6881 17.4429ZM29.1039 16.8497C29.0679 17.0858 28.9672 17.3002 28.8216 17.4817L27.2873 15.3965C27.444 15.336 27.6073 15.3028 27.771 15.3028C28.1851 15.3028 28.594 15.4923 28.8577 15.8505C29.0703 16.1397 29.1578 16.4947 29.1039 16.8497Z" fill="url(#paint5_linear_3079_1822)"/>
</g>
<defs>
<linearGradient id="paint0_linear_3079_1822" x1="10.7059" y1="14.0742" x2="10.7059" y2="32.0004" gradientUnits="userSpaceOnUse">
<stop stop-color="#3793AE"/>
<stop offset="1" stop-color="#074287"/>
</linearGradient>
<linearGradient id="paint1_linear_3079_1822" x1="25.2921" y1="4" x2="25.2921" y2="32.0001" gradientUnits="userSpaceOnUse">
<stop stop-color="#3793AE"/>
<stop offset="1" stop-color="#074287"/>
</linearGradient>
<linearGradient id="paint2_linear_3079_1822" x1="22.8037" y1="16.3438" x2="22.8037" y2="21.2295" gradientUnits="userSpaceOnUse">
<stop stop-color="#3793AE"/>
<stop offset="1" stop-color="#074287"/>
</linearGradient>
<linearGradient id="paint3_linear_3079_1822" x1="10.7093" y1="22.8535" x2="10.7093" y2="27.7603" gradientUnits="userSpaceOnUse">
<stop stop-color="#3793AE"/>
<stop offset="1" stop-color="#074287"/>
</linearGradient>
<linearGradient id="paint4_linear_3079_1822" x1="28.164" y1="20.2559" x2="28.164" y2="24.3452" gradientUnits="userSpaceOnUse">
<stop stop-color="#3793AE"/>
<stop offset="1" stop-color="#074287"/>
</linearGradient>
<linearGradient id="paint5_linear_3079_1822" x1="27.7729" y1="14.6035" x2="27.7729" y2="18.6905" gradientUnits="userSpaceOnUse">
<stop stop-color="#3793AE"/>
<stop offset="1" stop-color="#074287"/>
</linearGradient>
<clipPath id="clip0_3079_1822">
<rect width="28" height="28" fill="white" transform="translate(4 4)"/>
</clipPath>
</defs>
</svg>
