<svg width="36" height="36" viewBox="0 0 36 36" fill="none" xmlns="http://www.w3.org/2000/svg">
<g clip-path="url(#clip0_3079_1830)">
<path d="M8.7525 29.9995H17.6468C18.5058 30.015 19.3254 29.6404 19.8757 28.9808C20.1988 28.5914 20.3832 28.1054 20.3998 27.5996H27.1998C28.3037 27.5982 29.1984 26.7037 29.1998 25.5996V13.3262L29.9726 11.345C30.0205 11.222 30.0046 11.0831 29.93 10.9741C29.8554 10.8651 29.7318 10.7999 29.5998 10.7999H17.5998C17.3789 10.7999 17.1998 10.979 17.1998 11.1999V18.8177L16.3998 16.7258V8.39995H17.1998C17.4207 8.39995 17.5998 8.22086 17.5998 7.99996V6.39999C17.5998 6.1791 17.4207 6 17.1998 6H9.19977C8.97887 6 8.79977 6.1791 8.79977 6.39999V7.99996C8.79977 8.22086 8.97887 8.39995 9.19977 8.39995H9.99977V16.7258L6.06695 27.008C6.05973 27.0273 6.05387 27.0473 6.04977 27.0676C5.90504 27.7443 6.07984 28.45 6.52379 28.9808C7.07398 29.6404 7.89371 30.015 8.7525 29.9995ZM17.6468 29.1996H8.7525C8.13648 29.2111 7.54723 28.947 7.14566 28.4797C7.00602 28.3093 6.90406 28.1115 6.84684 27.8988C6.8398 27.8724 6.84059 27.8451 6.83492 27.8187C6.81656 27.7414 6.80465 27.6627 6.79977 27.5832C6.80074 27.532 6.80484 27.481 6.81168 27.4305C6.81285 27.3748 6.81715 27.3191 6.82496 27.264L10.7429 17.1998H15.6566L19.5697 27.2553C19.5697 27.2629 19.573 27.2703 19.5746 27.2779C19.5814 27.3285 19.5853 27.3795 19.5865 27.4305C19.5935 27.481 19.5974 27.532 19.5986 27.5832C19.5937 27.6617 19.5824 27.7398 19.5646 27.8164C19.5589 27.8431 19.5597 27.8703 19.5525 27.8965C19.4953 28.109 19.3935 28.307 19.2537 28.4771C18.8527 28.9455 18.2634 29.2105 17.6468 29.1996ZM29.0146 11.5999L28.4269 13.1059C28.4089 13.1522 28.3998 13.2014 28.3998 13.251V15.5998H17.9998V11.5999H29.0146ZM17.9998 16.3998H28.3998V17.9998H24.7998C24.5789 17.9998 24.3998 18.1789 24.3998 18.3998C24.3998 18.6207 24.5789 18.7998 24.7998 18.7998H28.3998V20.3997H26.3998C26.1789 20.3997 25.9998 20.5788 25.9998 20.7997C25.9998 21.0206 26.1789 21.1997 26.3998 21.1997H28.3998V22.7997H24.7998C24.5789 22.7997 24.3998 22.9788 24.3998 23.1997C24.3998 23.4206 24.5789 23.5997 24.7998 23.5997H28.3998V25.5596C28.4095 26.2328 27.873 26.7873 27.1998 26.7996H20.2525L17.9998 20.9093V16.3998ZM9.59977 6.79998H16.7998V7.59997H9.59977V6.79998ZM15.5998 8.39995V16.3998H10.7998V8.39995H15.5998Z" fill="black"/>
<path d="M8.7525 29.9995H17.6468C18.5058 30.015 19.3254 29.6404 19.8757 28.9808C20.1988 28.5914 20.3832 28.1054 20.3998 27.5996H27.1998C28.3037 27.5982 29.1984 26.7037 29.1998 25.5996V13.3262L29.9726 11.345C30.0205 11.222 30.0046 11.0831 29.93 10.9741C29.8554 10.8651 29.7318 10.7999 29.5998 10.7999H17.5998C17.3789 10.7999 17.1998 10.979 17.1998 11.1999V18.8177L16.3998 16.7258V8.39995H17.1998C17.4207 8.39995 17.5998 8.22086 17.5998 7.99996V6.39999C17.5998 6.1791 17.4207 6 17.1998 6H9.19977C8.97887 6 8.79977 6.1791 8.79977 6.39999V7.99996C8.79977 8.22086 8.97887 8.39995 9.19977 8.39995H9.99977V16.7258L6.06695 27.008C6.05973 27.0273 6.05387 27.0473 6.04977 27.0676C5.90504 27.7443 6.07984 28.45 6.52379 28.9808C7.07398 29.6404 7.89371 30.015 8.7525 29.9995ZM17.6468 29.1996H8.7525C8.13648 29.2111 7.54723 28.947 7.14566 28.4797C7.00602 28.3093 6.90406 28.1115 6.84684 27.8988C6.8398 27.8724 6.84059 27.8451 6.83492 27.8187C6.81656 27.7414 6.80465 27.6627 6.79977 27.5832C6.80074 27.532 6.80484 27.481 6.81168 27.4305C6.81285 27.3748 6.81715 27.3191 6.82496 27.264L10.7429 17.1998H15.6566L19.5697 27.2553C19.5697 27.2629 19.573 27.2703 19.5746 27.2779C19.5814 27.3285 19.5853 27.3795 19.5865 27.4305C19.5935 27.481 19.5974 27.532 19.5986 27.5832C19.5937 27.6617 19.5824 27.7398 19.5646 27.8164C19.5589 27.8431 19.5597 27.8703 19.5525 27.8965C19.4953 28.109 19.3935 28.307 19.2537 28.4771C18.8527 28.9455 18.2634 29.2105 17.6468 29.1996ZM29.0146 11.5999L28.4269 13.1059C28.4089 13.1522 28.3998 13.2014 28.3998 13.251V15.5998H17.9998V11.5999H29.0146ZM17.9998 16.3998H28.3998V17.9998H24.7998C24.5789 17.9998 24.3998 18.1789 24.3998 18.3998C24.3998 18.6207 24.5789 18.7998 24.7998 18.7998H28.3998V20.3997H26.3998C26.1789 20.3997 25.9998 20.5788 25.9998 20.7997C25.9998 21.0206 26.1789 21.1997 26.3998 21.1997H28.3998V22.7997H24.7998C24.5789 22.7997 24.3998 22.9788 24.3998 23.1997C24.3998 23.4206 24.5789 23.5997 24.7998 23.5997H28.3998V25.5596C28.4095 26.2328 27.873 26.7873 27.1998 26.7996H20.2525L17.9998 20.9093V16.3998ZM9.59977 6.79998H16.7998V7.59997H9.59977V6.79998ZM15.5998 8.39995V16.3998H10.7998V8.39995H15.5998Z" fill="url(#paint0_linear_3079_1830)"/>
</g>
<defs>
<linearGradient id="paint0_linear_3079_1830" x1="6.16862" y1="18" x2="29.9999" y2="18" gradientUnits="userSpaceOnUse">
<stop stop-color="#3793AE"/>
<stop offset="1" stop-color="#074287"/>
</linearGradient>
<clipPath id="clip0_3079_1830">
<rect width="24" height="24" fill="white" transform="translate(6 6)"/>
</clipPath>
</defs>
</svg>
