<svg width="6" height="140" viewBox="0 0 6 140" fill="none" xmlns="http://www.w3.org/2000/svg">
<path d="M3 139.667C4.47276 139.667 5.66667 138.473 5.66667 137C5.66667 135.527 4.47276 134.333 3 134.333C1.52724 134.333 0.333333 135.527 0.333333 137C0.333333 138.473 1.52724 139.667 3 139.667ZM3.5 137L3.5 132.107L2.5 132.107L2.5 137L3.5 137ZM3.5 122.321L3.5 112.536L2.5 112.536L2.5 122.321L3.5 122.321ZM3.5 102.75L3.5 92.9643L2.5 92.9643L2.5 102.75L3.5 102.75ZM3.5 83.1786L3.5 73.3929L2.5 73.3929L2.5 83.1786L3.5 83.1786ZM3.5 63.6071L3.5 53.8214L2.5 53.8214L2.5 63.6071L3.5 63.6071ZM3.5 44.0357L3.5 34.25L2.5 34.25L2.5 44.0357L3.5 44.0357ZM3.5 24.4643L3.50001 14.6786L2.50001 14.6786L2.5 24.4643L3.5 24.4643ZM3.50001 4.89287L3.50001 -9.31819e-07L2.50001 -9.7553e-07L2.50001 4.89287L3.50001 4.89287Z" fill="url(#paint0_linear_3080_3176)"/>
<path d="M3 139.667C4.47276 139.667 5.66667 138.473 5.66667 137C5.66667 135.527 4.47276 134.333 3 134.333C1.52724 134.333 0.333333 135.527 0.333333 137C0.333333 138.473 1.52724 139.667 3 139.667ZM3.5 137L3.5 132.107L2.5 132.107L2.5 137L3.5 137ZM3.5 122.321L3.5 112.536L2.5 112.536L2.5 122.321L3.5 122.321ZM3.5 102.75L3.5 92.9643L2.5 92.9643L2.5 102.75L3.5 102.75ZM3.5 83.1786L3.5 73.3929L2.5 73.3929L2.5 83.1786L3.5 83.1786ZM3.5 63.6071L3.5 53.8214L2.5 53.8214L2.5 63.6071L3.5 63.6071ZM3.5 44.0357L3.5 34.25L2.5 34.25L2.5 44.0357L3.5 44.0357ZM3.5 24.4643L3.50001 14.6786L2.50001 14.6786L2.5 24.4643L3.5 24.4643ZM3.50001 4.89287L3.50001 -9.31819e-07L2.50001 -9.7553e-07L2.50001 4.89287L3.50001 4.89287Z" fill="white" fill-opacity="0.15"/>
<defs>
<linearGradient id="paint0_linear_3080_3176" x1="3.5" y1="136.037" x2="3.50014" y2="-5.63837e-06" gradientUnits="userSpaceOnUse">
<stop stop-color="#3793AE"/>
<stop offset="1" stop-color="#074287"/>
</linearGradient>
</defs>
</svg>
