<svg width="272" height="12" viewBox="0 0 272 12" fill="none" xmlns="http://www.w3.org/2000/svg">
<path d="M260.667 6.00002C260.667 8.94554 263.054 11.3334 266 11.3334C268.946 11.3334 271.333 8.94554 271.333 6.00002C271.333 3.05451 268.946 0.66669 266 0.66669C263.054 0.66669 260.667 3.0545 260.667 6.00002ZM-8.74228e-08 7L5.11538 7L5.11538 5L8.74228e-08 5L-8.74228e-08 7ZM15.3462 7L25.5769 7L25.5769 5L15.3462 5L15.3462 7ZM35.8077 7L46.0385 7L46.0385 5L35.8077 5L35.8077 7ZM56.2692 7L66.5 7.00001L66.5 5.00001L56.2692 5L56.2692 7ZM76.7308 7.00001L86.9615 7.00001L86.9615 5.00001L76.7308 5.00001L76.7308 7.00001ZM97.1923 7.00001L107.423 7.00001L107.423 5.00001L97.1923 5.00001L97.1923 7.00001ZM117.654 7.00001L127.885 7.00001L127.885 5.00001L117.654 5.00001L117.654 7.00001ZM138.115 7.00001L148.346 7.00001L148.346 5.00001L138.115 5.00001L138.115 7.00001ZM158.577 7.00001L168.808 7.00001L168.808 5.00001L158.577 5.00001L158.577 7.00001ZM179.038 7.00002L189.269 7.00002L189.269 5.00002L179.038 5.00002L179.038 7.00002ZM199.5 7.00002L209.731 7.00002L209.731 5.00002L199.5 5.00002L199.5 7.00002ZM219.962 7.00002L230.192 7.00002L230.192 5.00002L219.962 5.00002L219.962 7.00002ZM240.423 7.00002L250.654 7.00002L250.654 5.00002L240.423 5.00002L240.423 7.00002ZM260.885 7.00002L266 7.00002L266 5.00002L260.885 5.00002L260.885 7.00002Z" fill="url(#paint0_linear_3080_3177)"/>
<path d="M260.667 6.00002C260.667 8.94554 263.054 11.3334 266 11.3334C268.946 11.3334 271.333 8.94554 271.333 6.00002C271.333 3.05451 268.946 0.66669 266 0.66669C263.054 0.66669 260.667 3.0545 260.667 6.00002ZM-8.74228e-08 7L5.11538 7L5.11538 5L8.74228e-08 5L-8.74228e-08 7ZM15.3462 7L25.5769 7L25.5769 5L15.3462 5L15.3462 7ZM35.8077 7L46.0385 7L46.0385 5L35.8077 5L35.8077 7ZM56.2692 7L66.5 7.00001L66.5 5.00001L56.2692 5L56.2692 7ZM76.7308 7.00001L86.9615 7.00001L86.9615 5.00001L76.7308 5.00001L76.7308 7.00001ZM97.1923 7.00001L107.423 7.00001L107.423 5.00001L97.1923 5.00001L97.1923 7.00001ZM117.654 7.00001L127.885 7.00001L127.885 5.00001L117.654 5.00001L117.654 7.00001ZM138.115 7.00001L148.346 7.00001L148.346 5.00001L138.115 5.00001L138.115 7.00001ZM158.577 7.00001L168.808 7.00001L168.808 5.00001L158.577 5.00001L158.577 7.00001ZM179.038 7.00002L189.269 7.00002L189.269 5.00002L179.038 5.00002L179.038 7.00002ZM199.5 7.00002L209.731 7.00002L209.731 5.00002L199.5 5.00002L199.5 7.00002ZM219.962 7.00002L230.192 7.00002L230.192 5.00002L219.962 5.00002L219.962 7.00002ZM240.423 7.00002L250.654 7.00002L250.654 5.00002L240.423 5.00002L240.423 7.00002ZM260.885 7.00002L266 7.00002L266 5.00002L260.885 5.00002L260.885 7.00002Z" fill="white" fill-opacity="0.15"/>
<defs>
<linearGradient id="paint0_linear_3080_3177" x1="1.86885" y1="6.5" x2="266" y2="6.50052" gradientUnits="userSpaceOnUse">
<stop stop-color="#3793AE"/>
<stop offset="1" stop-color="#074287"/>
</linearGradient>
</defs>
</svg>
