<svg width="28" height="20" viewBox="0 0 28 20" fill="none" xmlns="http://www.w3.org/2000/svg">
<path d="M0 12.7709V4.72412H2.10813V11.0802H5.40489V12.7709H0Z" fill="black"/>
<path d="M0 12.7709V4.72412H2.10813V11.0802H5.40489V12.7709H0Z" fill="white"/>
<path d="M0 12.7709V4.72412H2.10813V11.0802H5.40489V12.7709H0Z" fill="url(#paint0_linear_3074_3105)" fill-opacity="0.3"/>
<path d="M16.1238 6.21149V8.38369H18.0525C18.8038 8.38369 19.185 8.01987 19.185 7.30294C19.185 6.57531 18.815 6.22219 18.0525 6.22219H16.1238V6.21149ZM14.0156 12.7709V4.72412H18.2319C20.2727 4.72412 21.2932 5.60156 21.2932 7.36714C21.2932 7.89147 21.1362 8.34089 20.8222 8.7261C20.5082 9.11132 20.0821 9.38953 19.5551 9.53934L21.4838 12.7709H19.129L17.4694 9.87106H16.1238V12.7709H14.0156Z" fill="black"/>
<path d="M16.1238 6.21149V8.38369H18.0525C18.8038 8.38369 19.185 8.01987 19.185 7.30294C19.185 6.57531 18.815 6.22219 18.0525 6.22219H16.1238V6.21149ZM14.0156 12.7709V4.72412H18.2319C20.2727 4.72412 21.2932 5.60156 21.2932 7.36714C21.2932 7.89147 21.1362 8.34089 20.8222 8.7261C20.5082 9.11132 20.0821 9.38953 19.5551 9.53934L21.4838 12.7709H19.129L17.4694 9.87106H16.1238V12.7709H14.0156Z" fill="white"/>
<path d="M16.1238 6.21149V8.38369H18.0525C18.8038 8.38369 19.185 8.01987 19.185 7.30294C19.185 6.57531 18.815 6.22219 18.0525 6.22219H16.1238V6.21149ZM14.0156 12.7709V4.72412H18.2319C20.2727 4.72412 21.2932 5.60156 21.2932 7.36714C21.2932 7.89147 21.1362 8.34089 20.8222 8.7261C20.5082 9.11132 20.0821 9.38953 19.5551 9.53934L21.4838 12.7709H19.129L17.4694 9.87106H16.1238V12.7709H14.0156Z" fill="url(#paint1_linear_3074_3105)" fill-opacity="0.3"/>
<path d="M26.0585 10.267V9.84967L24.8138 10.1921C24.2195 10.3526 23.928 10.6094 23.928 10.9732C23.928 11.4226 24.2195 11.6474 24.7914 11.6474C25.1727 11.6474 25.4754 11.5296 25.7109 11.2942C25.9352 11.0481 26.0585 10.7057 26.0585 10.267ZM27.8303 8.3409V11.5189C27.8303 12.0861 27.8863 12.5034 27.9985 12.7709H26.294C26.2267 12.5783 26.1931 12.375 26.1819 12.1503H26.1595C26.0137 12.375 25.7333 12.5676 25.3409 12.7174C24.982 12.8565 24.6232 12.9314 24.2644 12.9314C23.6364 12.9314 23.143 12.7816 22.7618 12.4713C22.3581 12.1503 22.1562 11.7009 22.1562 11.1444C22.1562 10.4596 22.4478 9.93527 23.0197 9.58216C23.5131 9.28254 24.298 9.05783 25.3857 8.91873L26.0585 8.83312V8.3302C26.0585 7.90218 25.767 7.68817 25.1839 7.68817C24.8811 7.68817 24.6569 7.75237 24.5111 7.87008C24.3653 7.98778 24.2644 8.2018 24.2195 8.49071H22.4254C22.459 7.22805 23.3337 6.60742 25.0269 6.60742C25.9464 6.60742 26.6304 6.72513 27.079 6.97124C27.5836 7.23875 27.8303 7.69887 27.8303 8.3409Z" fill="black"/>
<path d="M26.0585 10.267V9.84967L24.8138 10.1921C24.2195 10.3526 23.928 10.6094 23.928 10.9732C23.928 11.4226 24.2195 11.6474 24.7914 11.6474C25.1727 11.6474 25.4754 11.5296 25.7109 11.2942C25.9352 11.0481 26.0585 10.7057 26.0585 10.267ZM27.8303 8.3409V11.5189C27.8303 12.0861 27.8863 12.5034 27.9985 12.7709H26.294C26.2267 12.5783 26.1931 12.375 26.1819 12.1503H26.1595C26.0137 12.375 25.7333 12.5676 25.3409 12.7174C24.982 12.8565 24.6232 12.9314 24.2644 12.9314C23.6364 12.9314 23.143 12.7816 22.7618 12.4713C22.3581 12.1503 22.1562 11.7009 22.1562 11.1444C22.1562 10.4596 22.4478 9.93527 23.0197 9.58216C23.5131 9.28254 24.298 9.05783 25.3857 8.91873L26.0585 8.83312V8.3302C26.0585 7.90218 25.767 7.68817 25.1839 7.68817C24.8811 7.68817 24.6569 7.75237 24.5111 7.87008C24.3653 7.98778 24.2644 8.2018 24.2195 8.49071H22.4254C22.459 7.22805 23.3337 6.60742 25.0269 6.60742C25.9464 6.60742 26.6304 6.72513 27.079 6.97124C27.5836 7.23875 27.8303 7.69887 27.8303 8.3409Z" fill="white"/>
<path d="M26.0585 10.267V9.84967L24.8138 10.1921C24.2195 10.3526 23.928 10.6094 23.928 10.9732C23.928 11.4226 24.2195 11.6474 24.7914 11.6474C25.1727 11.6474 25.4754 11.5296 25.7109 11.2942C25.9352 11.0481 26.0585 10.7057 26.0585 10.267ZM27.8303 8.3409V11.5189C27.8303 12.0861 27.8863 12.5034 27.9985 12.7709H26.294C26.2267 12.5783 26.1931 12.375 26.1819 12.1503H26.1595C26.0137 12.375 25.7333 12.5676 25.3409 12.7174C24.982 12.8565 24.6232 12.9314 24.2644 12.9314C23.6364 12.9314 23.143 12.7816 22.7618 12.4713C22.3581 12.1503 22.1562 11.7009 22.1562 11.1444C22.1562 10.4596 22.4478 9.93527 23.0197 9.58216C23.5131 9.28254 24.298 9.05783 25.3857 8.91873L26.0585 8.83312V8.3302C26.0585 7.90218 25.767 7.68817 25.1839 7.68817C24.8811 7.68817 24.6569 7.75237 24.5111 7.87008C24.3653 7.98778 24.2644 8.2018 24.2195 8.49071H22.4254C22.459 7.22805 23.3337 6.60742 25.0269 6.60742C25.9464 6.60742 26.6304 6.72513 27.079 6.97124C27.5836 7.23875 27.8303 7.69887 27.8303 8.3409Z" fill="url(#paint2_linear_3074_3105)" fill-opacity="0.3"/>
<path d="M9.41923 7.94494C8.91462 7.94494 8.53337 8.11615 8.27546 8.46926C8.03998 8.79028 7.91663 9.2183 7.91663 9.76402C7.91663 10.3097 8.03998 10.7378 8.27546 11.0588C8.53337 11.4119 8.91462 11.5831 9.41923 11.5831C10.4284 11.5831 10.9218 10.9518 10.9218 9.68912C10.9218 9.1755 10.7985 8.75818 10.563 8.44786C10.3051 8.11615 9.92384 7.94494 9.41923 7.94494ZM9.41923 6.59668C10.4284 6.59668 11.2358 6.87489 11.8525 7.43132C12.4693 7.98774 12.7721 8.76888 12.7721 9.76402C12.7721 10.7592 12.4693 11.5403 11.8525 12.0967C11.2358 12.6532 10.4284 12.9314 9.41923 12.9314C8.41002 12.9314 7.60265 12.6532 6.98591 12.0967C6.36917 11.5403 6.06641 10.7592 6.06641 9.76402C6.06641 8.76888 6.36917 7.98774 6.98591 7.43132C7.61386 6.87489 8.42123 6.59668 9.41923 6.59668Z" fill="black"/>
<path d="M9.41923 7.94494C8.91462 7.94494 8.53337 8.11615 8.27546 8.46926C8.03998 8.79028 7.91663 9.2183 7.91663 9.76402C7.91663 10.3097 8.03998 10.7378 8.27546 11.0588C8.53337 11.4119 8.91462 11.5831 9.41923 11.5831C10.4284 11.5831 10.9218 10.9518 10.9218 9.68912C10.9218 9.1755 10.7985 8.75818 10.563 8.44786C10.3051 8.11615 9.92384 7.94494 9.41923 7.94494ZM9.41923 6.59668C10.4284 6.59668 11.2358 6.87489 11.8525 7.43132C12.4693 7.98774 12.7721 8.76888 12.7721 9.76402C12.7721 10.7592 12.4693 11.5403 11.8525 12.0967C11.2358 12.6532 10.4284 12.9314 9.41923 12.9314C8.41002 12.9314 7.60265 12.6532 6.98591 12.0967C6.36917 11.5403 6.06641 10.7592 6.06641 9.76402C6.06641 8.76888 6.36917 7.98774 6.98591 7.43132C7.61386 6.87489 8.42123 6.59668 9.41923 6.59668Z" fill="white"/>
<path d="M9.41923 7.94494C8.91462 7.94494 8.53337 8.11615 8.27546 8.46926C8.03998 8.79028 7.91663 9.2183 7.91663 9.76402C7.91663 10.3097 8.03998 10.7378 8.27546 11.0588C8.53337 11.4119 8.91462 11.5831 9.41923 11.5831C10.4284 11.5831 10.9218 10.9518 10.9218 9.68912C10.9218 9.1755 10.7985 8.75818 10.563 8.44786C10.3051 8.11615 9.92384 7.94494 9.41923 7.94494ZM9.41923 6.59668C10.4284 6.59668 11.2358 6.87489 11.8525 7.43132C12.4693 7.98774 12.7721 8.76888 12.7721 9.76402C12.7721 10.7592 12.4693 11.5403 11.8525 12.0967C11.2358 12.6532 10.4284 12.9314 9.41923 12.9314C8.41002 12.9314 7.60265 12.6532 6.98591 12.0967C6.36917 11.5403 6.06641 10.7592 6.06641 9.76402C6.06641 8.76888 6.36917 7.98774 6.98591 7.43132C7.61386 6.87489 8.42123 6.59668 9.41923 6.59668Z" fill="url(#paint3_linear_3074_3105)" fill-opacity="0.3"/>
<path d="M9.36398 5.39806C10.2835 5.39806 11.1469 5.65487 11.8646 6.10429L12.2234 5.61207C11.3936 5.09844 10.418 4.79883 9.36398 4.79883C8.35477 4.79883 7.41284 5.07704 6.60547 5.54786L6.9643 6.04008C7.67075 5.62277 8.48933 5.39806 9.36398 5.39806Z" fill="#3793AE" fill-opacity="0.28"/>
<path d="M5.48438 4.00698L5.96655 4.65971C6.95334 4.06048 8.11954 3.71806 9.36423 3.71806C10.665 3.71806 11.8648 4.09258 12.874 4.72391L13.3562 4.07118C12.2124 3.34355 10.8332 2.91553 9.36423 2.91553C7.94012 2.91553 6.60572 3.32215 5.48438 4.00698Z" fill="#3793AE" fill-opacity="0.28"/>
<path d="M9.36297 2.00585C11.045 2.00585 12.6037 2.48737 13.9156 3.32201L14.5212 2.49807C13.0522 1.54573 11.2693 1 9.36297 1C7.51275 1 5.77466 1.52432 4.32812 2.42317L4.93365 3.2471C6.21199 2.46597 7.7258 2.00585 9.36297 2.00585Z" fill="#3793AE" fill-opacity="0.28"/>
<path d="M9.48834 14.1511C8.56883 14.1511 7.7054 13.8942 6.98774 13.4448L6.62891 13.937C7.4587 14.4507 8.43427 14.7503 9.49955 14.7503C10.5088 14.7503 11.4507 14.4721 12.2581 14.0013L11.8992 13.509C11.1816 13.9263 10.363 14.1511 9.48834 14.1511Z" fill="#3793AE" fill-opacity="0.28"/>
<path d="M13.3679 15.5421L12.8858 14.8894C11.899 15.4886 10.7328 15.831 9.48808 15.831C8.18732 15.831 6.98748 15.4565 5.97827 14.8252L5.49609 15.4779C6.63987 16.2056 8.00791 16.6336 9.48808 16.6336C10.9122 16.6336 12.2466 16.227 13.3679 15.5421Z" fill="#3793AE" fill-opacity="0.28"/>
<path d="M9.48631 17.5432C7.8043 17.5432 6.24563 17.0617 4.93365 16.2271L4.32812 17.051C5.79709 17.9926 7.58003 18.5491 9.48631 18.5491C11.3365 18.5491 13.0746 18.0247 14.5212 17.1259L13.9156 16.302C12.6373 17.0831 11.1123 17.5432 9.48631 17.5432Z" fill="#3793AE" fill-opacity="0.28"/>
<defs>
<linearGradient id="paint0_linear_3074_3105" x1="0.0379734" y1="8.7475" x2="5.40489" y2="8.7475" gradientUnits="userSpaceOnUse">
<stop stop-color="#F5FDFF"/>
<stop offset="1" stop-color="#074287"/>
</linearGradient>
<linearGradient id="paint1_linear_3074_3105" x1="14.0681" y1="8.7475" x2="21.4838" y2="8.7475" gradientUnits="userSpaceOnUse">
<stop stop-color="#F5FDFF"/>
<stop offset="1" stop-color="#074287"/>
</linearGradient>
<linearGradient id="paint2_linear_3074_3105" x1="22.1973" y1="9.76942" x2="27.9985" y2="9.76942" gradientUnits="userSpaceOnUse">
<stop stop-color="#F5FDFF"/>
<stop offset="1" stop-color="#074287"/>
</linearGradient>
<linearGradient id="paint3_linear_3074_3105" x1="6.11352" y1="9.76402" x2="12.7721" y2="9.76402" gradientUnits="userSpaceOnUse">
<stop stop-color="#F5FDFF"/>
<stop offset="1" stop-color="#074287"/>
</linearGradient>
</defs>
</svg>
