<svg width="16" height="16" viewBox="0 0 16 16" fill="none" xmlns="http://www.w3.org/2000/svg">
<path d="M2.73 13.37L4.844 12.665L5.214 12.85C6.064 13.274 7.009 13.5 8 13.5C11.31 13.5 14 10.894 14 8C14 5.106 11.31 2.5 8 2.5C4.69 2.5 2 5.106 2 8C2 9.08 2.39 10.176 3.107 11.113L3.452 11.563L2.729 13.369L2.73 13.37ZM2.023 14.66C1.93251 14.6903 1.83523 14.6941 1.74265 14.6709C1.65007 14.6477 1.56607 14.5985 1.50056 14.5291C1.43505 14.4597 1.39077 14.373 1.37295 14.2793C1.35513 14.1855 1.36452 14.0886 1.4 14L2.312 11.72C1.48 10.63 1 9.326 1 8C1 4.686 4 1.5 8 1.5C12 1.5 15 4.686 15 8C15 11.314 12 14.5 8 14.5C6.87817 14.5032 5.7711 14.2443 4.767 13.744L2.023 14.659V14.66Z" fill="#0E344A"/>
<path d="M2.73 13.37L4.844 12.665L5.214 12.85C6.064 13.274 7.009 13.5 8 13.5C11.31 13.5 14 10.894 14 8C14 5.106 11.31 2.5 8 2.5C4.69 2.5 2 5.106 2 8C2 9.08 2.39 10.176 3.107 11.113L3.452 11.563L2.729 13.369L2.73 13.37ZM2.023 14.66C1.93251 14.6903 1.83523 14.6941 1.74265 14.6709C1.65007 14.6477 1.56607 14.5985 1.50056 14.5291C1.43505 14.4597 1.39077 14.373 1.37295 14.2793C1.35513 14.1855 1.36452 14.0886 1.4 14L2.312 11.72C1.48 10.63 1 9.326 1 8C1 4.686 4 1.5 8 1.5C12 1.5 15 4.686 15 8C15 11.314 12 14.5 8 14.5C6.87817 14.5032 5.7711 14.2443 4.767 13.744L2.023 14.659V14.66Z" fill="url(#paint0_linear_912_3397)"/>
<path d="M8.0002 8.79995C7.89514 8.79995 7.79111 8.77926 7.69405 8.73905C7.59699 8.69885 7.5088 8.63992 7.43451 8.56564C7.36022 8.49135 7.3013 8.40316 7.26109 8.3061C7.22089 8.20904 7.2002 8.10501 7.2002 7.99995C7.2002 7.89489 7.22089 7.79087 7.26109 7.6938C7.3013 7.59674 7.36022 7.50855 7.43451 7.43427C7.5088 7.35998 7.59699 7.30105 7.69405 7.26085C7.79111 7.22064 7.89514 7.19995 8.0002 7.19995C8.21237 7.19995 8.41585 7.28424 8.56588 7.43427C8.71591 7.5843 8.8002 7.78778 8.8002 7.99995C8.8002 8.21212 8.71591 8.41561 8.56588 8.56564C8.41585 8.71567 8.21237 8.79995 8.0002 8.79995ZM11.0002 8.79995C10.8951 8.79995 10.7911 8.77926 10.694 8.73905C10.597 8.69885 10.5088 8.63992 10.4345 8.56564C10.3602 8.49135 10.3013 8.40316 10.2611 8.3061C10.2209 8.20904 10.2002 8.10501 10.2002 7.99995C10.2002 7.89489 10.2209 7.79087 10.2611 7.6938C10.3013 7.59674 10.3602 7.50855 10.4345 7.43427C10.5088 7.35998 10.597 7.30105 10.694 7.26085C10.7911 7.22064 10.8951 7.19995 11.0002 7.19995C11.2124 7.19995 11.4159 7.28424 11.5659 7.43427C11.7159 7.5843 11.8002 7.78778 11.8002 7.99995C11.8002 8.21212 11.7159 8.41561 11.5659 8.56564C11.4159 8.71567 11.2124 8.79995 11.0002 8.79995ZM5.0002 8.79995C4.89514 8.79995 4.79111 8.77926 4.69405 8.73905C4.59699 8.69885 4.5088 8.63992 4.43451 8.56564C4.36022 8.49135 4.3013 8.40316 4.26109 8.3061C4.22089 8.20904 4.2002 8.10501 4.2002 7.99995C4.2002 7.89489 4.22089 7.79087 4.26109 7.6938C4.3013 7.59674 4.36022 7.50855 4.43451 7.43427C4.5088 7.35998 4.59699 7.30105 4.69405 7.26085C4.79111 7.22064 4.89514 7.19995 5.0002 7.19995C5.21237 7.19995 5.41585 7.28424 5.56588 7.43427C5.71591 7.5843 5.8002 7.78778 5.8002 7.99995C5.8002 8.21212 5.71591 8.41561 5.56588 8.56564C5.41585 8.71567 5.21237 8.79995 5.0002 8.79995Z" fill="#0E344A"/>
<path d="M8.0002 8.79995C7.89514 8.79995 7.79111 8.77926 7.69405 8.73905C7.59699 8.69885 7.5088 8.63992 7.43451 8.56564C7.36022 8.49135 7.3013 8.40316 7.26109 8.3061C7.22089 8.20904 7.2002 8.10501 7.2002 7.99995C7.2002 7.89489 7.22089 7.79087 7.26109 7.6938C7.3013 7.59674 7.36022 7.50855 7.43451 7.43427C7.5088 7.35998 7.59699 7.30105 7.69405 7.26085C7.79111 7.22064 7.89514 7.19995 8.0002 7.19995C8.21237 7.19995 8.41585 7.28424 8.56588 7.43427C8.71591 7.5843 8.8002 7.78778 8.8002 7.99995C8.8002 8.21212 8.71591 8.41561 8.56588 8.56564C8.41585 8.71567 8.21237 8.79995 8.0002 8.79995ZM11.0002 8.79995C10.8951 8.79995 10.7911 8.77926 10.694 8.73905C10.597 8.69885 10.5088 8.63992 10.4345 8.56564C10.3602 8.49135 10.3013 8.40316 10.2611 8.3061C10.2209 8.20904 10.2002 8.10501 10.2002 7.99995C10.2002 7.89489 10.2209 7.79087 10.2611 7.6938C10.3013 7.59674 10.3602 7.50855 10.4345 7.43427C10.5088 7.35998 10.597 7.30105 10.694 7.26085C10.7911 7.22064 10.8951 7.19995 11.0002 7.19995C11.2124 7.19995 11.4159 7.28424 11.5659 7.43427C11.7159 7.5843 11.8002 7.78778 11.8002 7.99995C11.8002 8.21212 11.7159 8.41561 11.5659 8.56564C11.4159 8.71567 11.2124 8.79995 11.0002 8.79995ZM5.0002 8.79995C4.89514 8.79995 4.79111 8.77926 4.69405 8.73905C4.59699 8.69885 4.5088 8.63992 4.43451 8.56564C4.36022 8.49135 4.3013 8.40316 4.26109 8.3061C4.22089 8.20904 4.2002 8.10501 4.2002 7.99995C4.2002 7.89489 4.22089 7.79087 4.26109 7.6938C4.3013 7.59674 4.36022 7.50855 4.43451 7.43427C4.5088 7.35998 4.59699 7.30105 4.69405 7.26085C4.79111 7.22064 4.89514 7.19995 5.0002 7.19995C5.21237 7.19995 5.41585 7.28424 5.56588 7.43427C5.71591 7.5843 5.8002 7.78778 5.8002 7.99995C5.8002 8.21212 5.71591 8.41561 5.56588 8.56564C5.41585 8.71567 5.21237 8.79995 5.0002 8.79995Z" fill="url(#paint1_linear_912_3397)"/>
<defs>
<linearGradient id="paint0_linear_912_3397" x1="1.09836" y1="8.09295" x2="15" y2="8.09295" gradientUnits="userSpaceOnUse">
<stop stop-color="#3793AE"/>
<stop offset="1" stop-color="#074287"/>
</linearGradient>
<linearGradient id="paint1_linear_912_3397" x1="4.25359" y1="7.99995" x2="11.8002" y2="7.99995" gradientUnits="userSpaceOnUse">
<stop stop-color="#3793AE"/>
<stop offset="1" stop-color="#074287"/>
</linearGradient>
</defs>
</svg>
