<svg width="16" height="15" viewBox="0 0 16 15" fill="none" xmlns="http://www.w3.org/2000/svg">
<path d="M8.13889 5.76862L7.22665 6.61966C7.34724 7.04882 7.51568 7.46185 7.72855 7.85033C7.95058 8.23597 8.21813 8.59122 8.52497 8.90781L9.70637 8.52932C10.3682 8.31714 11.0907 8.53506 11.5309 9.07986L12.2037 9.91254C12.4762 10.2468 12.6127 10.6782 12.5845 11.1154C12.5563 11.5526 12.3655 11.9612 12.0526 12.2546C10.955 13.296 9.26514 13.6481 7.99991 12.6147C6.88742 11.7049 5.94646 10.5889 5.22456 9.32301C4.50083 8.06337 4.01627 6.67104 3.79718 5.22153C3.5545 3.59057 4.70281 2.28534 6.1346 1.84033C6.98838 1.57424 7.89952 2.03072 8.2128 2.88176L8.58233 3.88533C8.82501 4.54598 8.65072 5.29149 8.13889 5.76862Z" fill="url(#paint0_linear_3015_2107)"/>
<defs>
<linearGradient id="paint0_linear_3015_2107" x1="3.82664" y1="7.49994" x2="12.5882" y2="7.49994" gradientUnits="userSpaceOnUse">
<stop stop-color="#3793AE"/>
<stop offset="1" stop-color="#074287"/>
</linearGradient>
</defs>
</svg>
