<svg width="158" height="37" viewBox="0 0 158 37" fill="none" xmlns="http://www.w3.org/2000/svg">
<path d="M26.6746 6.25022C25.72 6.64772 25.2591 7.57522 25.2591 9.19835C25.2591 9.96022 25.2262 10.5565 25.1933 10.5565C25.1275 10.5565 23.9754 10.2583 22.6258 9.89397C19.5316 9.06585 19.1696 9.06585 18.3466 9.89397C17.8529 10.3909 17.6883 10.9871 17.6883 12.1796V13.8027L15.3183 13.1733C9.98581 11.7821 10.1175 11.6165 10.1175 21.4546C10.1175 27.5165 10.2162 29.4377 10.5454 29.9346C10.8746 30.3321 12.5862 30.9283 15.8779 31.7896C20.8154 33.0815 21.6383 33.0815 22.3625 31.9552C22.4941 31.7565 22.6258 28.1458 22.6258 23.9721C22.6258 17.579 22.5271 16.2208 22.0991 15.5915C21.4079 14.5977 22.1321 14.664 23.0866 15.6908C23.7121 16.3865 23.8766 17.0158 24.0412 19.7321C24.1729 21.5208 24.2716 24.204 24.2716 25.6615C24.2716 27.4171 24.4033 28.4771 24.6996 28.709C24.8971 28.8746 25.9504 29.239 27.0037 29.4708C28.7812 29.8683 28.9458 29.8352 29.5712 29.2058C30.2296 28.5765 30.2625 28.1127 30.2954 20.7258C30.3612 14.8627 30.2625 12.809 29.9662 12.5108C29.3079 11.8483 29.4725 11.484 30.2296 11.8815C31.4475 12.544 31.8425 14.2002 31.8754 18.7383C31.8754 24.7008 32.0729 25.4627 33.4883 25.9927C34.1137 26.2246 35.2 26.4233 35.8583 26.4233C37.9979 26.4896 38.0966 26.059 38.0966 17.4465C38.0966 8.10522 38.4258 8.70148 32.5008 7.24397C30.2296 6.68085 28.1558 6.15085 27.8925 6.0846C27.6291 6.01835 27.0696 6.0846 26.6746 6.25022Z" fill="white"/>
<path d="M86.3454 9.6524C84.6337 10.613 83.7779 12.2362 83.9754 14.1574C84.1729 16.1118 85.3579 17.2049 88.7812 18.6624C92.04 20.0205 92.7641 20.5837 92.7641 21.8424C92.7641 23.2005 91.4145 24.128 89.3737 24.128C87.8925 24.128 87.5962 23.9955 86.5429 22.8693C85.5883 21.8755 85.1604 21.6768 84.3045 21.743C83.0208 21.8755 82.955 22.3062 83.9754 23.8299C85.1275 25.5524 86.9379 26.4468 89.4066 26.4468C93.192 26.4468 95.2329 24.7574 95.2329 21.5774C95.2329 19.2918 94.2125 18.2318 90.4929 16.6749C87.1683 15.2837 86.51 14.7537 86.51 13.4949C86.51 10.9443 91.0525 10.3812 92.5995 12.733C92.9945 13.3624 93.2908 13.4618 94.1795 13.2962C94.7391 13.1968 95.2987 13.0643 95.3645 12.998C95.4304 12.9318 95.1012 12.3024 94.6404 11.5737C92.9616 9.02303 89.0445 8.12865 86.3454 9.6524Z" fill="white"/>
<path d="M55.5664 17.8343V26.4468H56.7185H57.8706V23.1343V19.8218H59.1872C60.4381 19.8218 60.5368 19.888 62.8081 23.1343C65.0793 26.3805 65.1781 26.4468 66.4289 26.4468C67.1531 26.4468 67.7456 26.3474 67.7456 26.1818C67.7456 26.0493 66.7252 24.5255 65.4743 22.8362L63.236 19.7224L64.5856 19.0268C66.4618 18.0662 67.4164 16.5093 67.4164 14.3893C67.4164 12.3687 66.6593 11.0768 64.8818 9.98365C63.7627 9.28803 63.236 9.22178 59.6152 9.22178H55.5664V17.8343ZM63.5322 11.9049C64.4539 12.4018 65.1781 14.2899 64.816 15.2837C64.1906 16.8737 62.9397 17.503 60.3064 17.503H57.8706V14.5218V11.5405H60.3722C61.7218 11.5405 63.1372 11.7062 63.5322 11.9049Z" fill="white"/>
<path d="M99.3456 11.673C99.0165 13.3624 98.9177 13.4949 97.9302 13.5943C97.0086 13.6937 96.8769 13.8262 96.7781 14.7537C96.6794 15.8137 96.7123 15.8468 97.8315 15.8468H99.0165V19.9212C99.0165 23.1343 99.1152 24.128 99.5431 24.7574C100.267 25.7843 101.946 26.4468 103.789 26.4468C105.271 26.4468 105.271 26.4468 105.271 25.2874V24.128H103.691C102.835 24.128 101.946 23.9624 101.716 23.7305C101.452 23.4655 101.321 22.0743 101.321 19.5899V15.8468H103.329H105.304L105.205 14.7537C105.106 13.6937 105.073 13.6937 103.23 13.5943L101.321 13.4949V11.7062C101.321 9.98365 101.255 9.88428 100.531 9.88428C99.8065 9.88428 99.6748 10.1162 99.3456 11.673Z" fill="white"/>
<path d="M70.0508 18.1655C70.0508 23.4324 70.5116 24.9893 72.3549 25.9499C73.8691 26.7449 76.0745 26.6124 77.2266 25.6186C78.4445 24.5918 78.4774 24.5918 78.7408 25.6186C78.9054 26.2149 79.1687 26.4468 79.7612 26.4468H80.5841V19.9543V13.4949L79.5308 13.5943L78.4445 13.6936L78.2799 18.2318C78.0824 23.3661 77.8191 23.9624 75.5479 24.3599C74.5274 24.5255 74.2312 24.393 73.3424 23.5318L72.3549 22.538V18.033V13.528H71.2029H70.0508V18.1655Z" fill="white"/>
<path d="M110.34 14.1574C106.489 15.913 105.535 21.6768 108.629 24.6912C110.011 26.0493 111.13 26.4468 113.369 26.4468C115.64 26.4468 117.023 25.8837 118.339 24.3599C120.512 21.8755 120.578 18.298 118.537 15.8468C116.66 13.5943 113.171 12.8655 110.34 14.1574ZM114.982 15.9793C116.693 16.708 117.516 18.2649 117.352 20.4512C117.253 21.9749 117.055 22.4055 116.2 23.1674C113.237 25.8505 108.991 23.6974 109.32 19.7224C109.485 17.8012 110.373 16.4762 111.888 15.9462C113.369 15.4162 113.632 15.4162 114.982 15.9793Z" fill="white"/>
<path d="M122.619 13.7598C122.52 13.9254 122.487 16.7741 122.52 20.1529L122.553 26.281H123.705H124.857L125.022 21.7429C125.219 16.5754 125.351 16.2441 127.622 15.946C129.005 15.7473 129.103 15.5816 128.774 14.2566C128.577 13.5941 128.412 13.5279 127.523 13.6935C126.964 13.826 126.108 14.1904 125.647 14.5216C124.791 15.151 124.791 15.1179 124.429 14.3229C124.067 13.561 122.948 13.2298 122.619 13.7598Z" fill="white"/>
<path d="M133.054 14.1906C128.643 16.4099 128.544 23.5318 132.922 25.7843C134.469 26.5793 137.366 26.6787 139.012 25.9831C140.361 25.3868 141.809 24.0287 141.809 23.2999C141.809 22.5712 139.999 22.6706 138.913 23.4656C137.596 24.4593 135.884 24.6581 134.436 23.9624C133.35 23.4324 132.264 22.0412 132.264 21.1468C132.264 20.9481 134.008 20.8156 137.366 20.8156H142.468V19.5568C142.468 18.1324 141.546 15.9462 140.624 15.1181C138.781 13.4618 135.358 13.0643 133.054 14.1906ZM137.859 16.0124C138.386 16.2774 139.044 16.8406 139.308 17.2381C140.328 18.6956 140.098 18.8281 136.049 18.8281C133.975 18.8281 132.264 18.7618 132.264 18.6624C132.264 17.9337 133.482 16.3768 134.337 16.0124C135.72 15.4162 136.674 15.4162 137.859 16.0124Z" fill="white"/>
</svg>
