<svg width="83" height="17" viewBox="0 0 83 17" fill="none" xmlns="http://www.w3.org/2000/svg">
<path d="M11.2105 0.750003C10.6124 0.982503 10.3236 1.525 10.3236 2.47438C10.3236 2.92 10.303 3.26875 10.2824 3.26875C10.2411 3.26875 9.51924 3.09438 8.67362 2.88125C6.73487 2.39688 6.508 2.39688 5.99237 2.88125C5.683 3.17188 5.57987 3.52063 5.57987 4.21813V5.1675L4.09487 4.79938C0.75362 3.98563 0.83612 3.88875 0.83612 9.64313C0.83612 13.1888 0.897995 14.3125 1.10425 14.6031C1.3105 14.8356 2.383 15.1844 4.4455 15.6881C7.53925 16.4438 8.05487 16.4438 8.50862 15.785C8.59112 15.6688 8.67362 13.5569 8.67362 11.1156C8.67362 7.37625 8.61174 6.58188 8.34362 6.21375C7.91049 5.6325 8.36424 5.67125 8.96237 6.27188C9.35424 6.67875 9.45737 7.04688 9.56049 8.63563C9.64299 9.68188 9.70487 11.2513 9.70487 12.1038C9.70487 13.1306 9.78737 13.7506 9.97299 13.8863C10.0967 13.9831 10.7567 14.1963 11.4167 14.3319C12.5305 14.5644 12.6336 14.545 13.0255 14.1769C13.438 13.8088 13.4586 13.5375 13.4792 9.21688C13.5205 5.7875 13.4586 4.58625 13.273 4.41188C12.8605 4.02438 12.9636 3.81125 13.438 4.04375C14.2011 4.43125 14.4486 5.4 14.4692 8.05438C14.4692 11.5419 14.593 11.9875 15.4799 12.2975C15.8717 12.4331 16.5524 12.5494 16.9649 12.5494C18.3055 12.5881 18.3674 12.3363 18.3674 7.29875C18.3674 1.835 18.5736 2.18375 14.8611 1.33125C13.438 1.00188 12.1386 0.691878 11.9736 0.653128C11.8086 0.614378 11.458 0.653128 11.2105 0.750003Z" fill="white"/>
<path d="M47.3452 3.15515C46.2727 3.71702 45.7365 4.6664 45.8602 5.79015C45.984 6.93327 46.7265 7.57265 48.8715 8.42515C50.9134 9.21952 51.3671 9.5489 51.3671 10.2851C51.3671 11.0795 50.5215 11.622 49.2427 11.622C48.3146 11.622 48.129 11.5445 47.469 10.8858C46.8709 10.3045 46.6027 10.1883 46.0665 10.227C45.2621 10.3045 45.2209 10.5564 45.8602 11.4476C46.5821 12.4551 47.7165 12.9783 49.2634 12.9783C51.6352 12.9783 52.914 11.9901 52.914 10.1301C52.914 8.79327 52.2746 8.17327 49.944 7.26265C47.8609 6.4489 47.4484 6.1389 47.4484 5.40265C47.4484 3.91077 50.2946 3.5814 51.264 4.95702C51.5115 5.32515 51.6971 5.38327 52.254 5.2864C52.6046 5.22827 52.9552 5.15077 52.9965 5.11202C53.0377 5.07327 52.8315 4.70515 52.5427 4.2789C51.4909 2.78702 49.0365 2.2639 47.3452 3.15515Z" fill="white"/>
<path d="M28.0625 7.94077V12.9783H28.7844H29.5063V11.0408V9.10327H30.3313C31.115 9.10327 31.1769 9.14202 32.6 11.0408C34.0231 12.9395 34.085 12.9783 34.8688 12.9783C35.3225 12.9783 35.6938 12.9201 35.6938 12.8233C35.6938 12.7458 35.0544 11.8545 34.2706 10.8664L32.8681 9.04515L33.7138 8.63827C34.8894 8.0764 35.4875 7.16577 35.4875 5.92577C35.4875 4.7439 35.0131 3.98827 33.8994 3.3489C33.1981 2.94202 32.8681 2.90327 30.5994 2.90327H28.0625V7.94077ZM33.0538 4.47265C33.6313 4.76327 34.085 5.86765 33.8581 6.4489C33.4663 7.3789 32.6825 7.74702 31.0325 7.74702H29.5063V6.00327V4.25952H31.0738C31.9194 4.25952 32.8063 4.3564 33.0538 4.47265Z" fill="white"/>
<path d="M55.4907 4.33702C55.2844 5.32515 55.2225 5.40265 54.6038 5.46077C54.0263 5.5189 53.9438 5.5964 53.8819 6.1389C53.82 6.7589 53.8407 6.77827 54.5419 6.77827H55.2844V9.1614C55.2844 11.0408 55.3463 11.622 55.6144 11.9901C56.0682 12.5908 57.12 12.9783 58.275 12.9783C59.2032 12.9783 59.2032 12.9783 59.2032 12.3001V11.622H58.2132C57.6769 11.622 57.12 11.5251 56.9757 11.3895C56.8107 11.2345 56.7282 10.4208 56.7282 8.96765V6.77827H57.9863H59.2238L59.1619 6.1389C59.1 5.5189 59.0794 5.5189 57.9244 5.46077L56.7282 5.40265V4.3564C56.7282 3.3489 56.6869 3.29077 56.2332 3.29077C55.7794 3.29077 55.6969 3.4264 55.4907 4.33702Z" fill="white"/>
<path d="M37.1367 8.13433C37.1367 11.215 37.4255 12.1256 38.5805 12.6875C39.5292 13.1525 40.9111 13.075 41.633 12.4937C42.3961 11.8931 42.4167 11.8931 42.5817 12.4937C42.6848 12.8425 42.8498 12.9781 43.2211 12.9781H43.7367V9.18058V5.40245L43.0767 5.46058L42.3961 5.5187L42.293 8.17308C42.1692 11.1762 42.0042 11.525 40.5811 11.7575C39.9417 11.8543 39.7561 11.7768 39.1992 11.2731L38.5805 10.6918V8.05683V5.42183H37.8586H37.1367V8.13433Z" fill="white"/>
<path d="M62.38 5.79015C59.9669 6.81702 59.3688 10.1883 61.3075 11.9514C62.1738 12.7458 62.875 12.9783 64.2775 12.9783C65.7007 12.9783 66.5669 12.6489 67.3919 11.7576C68.7532 10.3045 68.7944 8.21202 67.5157 6.77827C66.34 5.46077 64.1538 5.03452 62.38 5.79015ZM65.2882 6.85577C66.3607 7.28202 66.8763 8.19265 66.7732 9.4714C66.7113 10.3626 66.5875 10.6145 66.0513 11.0601C64.195 12.6295 61.5344 11.3701 61.7407 9.04515C61.8438 7.9214 62.4007 7.1464 63.3494 6.8364C64.2775 6.5264 64.4425 6.5264 65.2882 6.85577Z" fill="white"/>
<path d="M70.0735 5.5576C70.0116 5.65447 69.991 7.32072 70.0116 9.29697L70.0323 12.8813H70.7541H71.476L71.5791 10.227C71.7029 7.20447 71.7854 7.01072 73.2085 6.83635C74.0748 6.7201 74.1366 6.62322 73.9304 5.84822C73.8066 5.46072 73.7035 5.42197 73.1466 5.51885C72.796 5.59635 72.2598 5.80947 71.971 6.00322C71.4348 6.37135 71.4348 6.35197 71.2079 5.88697C70.981 5.44135 70.2798 5.2476 70.0735 5.5576Z" fill="white"/>
<path d="M76.6145 5.80941C73.8507 7.10754 73.7889 11.2732 76.532 12.5907C77.5014 13.0557 79.3164 13.1138 80.3476 12.7069C81.1932 12.3582 82.1007 11.5638 82.1007 11.1375C82.1007 10.7113 80.9664 10.7694 80.2857 11.2344C79.4607 11.8157 78.3882 11.9319 77.4807 11.525C76.8001 11.215 76.1195 10.4013 76.1195 9.87816C76.1195 9.76191 77.2126 9.68441 79.3164 9.68441H82.5132V8.94816C82.5132 8.11504 81.9357 6.83629 81.3582 6.35191C80.2032 5.38316 78.0582 5.15066 76.6145 5.80941ZM79.6257 6.87504C79.9557 7.03004 80.3682 7.35941 80.5332 7.59191C81.1726 8.44441 81.0282 8.52191 78.4914 8.52191C77.192 8.52191 76.1195 8.48316 76.1195 8.42504C76.1195 7.99879 76.8826 7.08816 77.4189 6.87504C78.2851 6.52629 78.8832 6.52629 79.6257 6.87504Z" fill="white"/>
</svg>
