<svg width="32" height="39" viewBox="0 0 32 39" fill="none" xmlns="http://www.w3.org/2000/svg">
<path d="M11.0631 5.7452C7.79309 7.80249 5.09147 9.51216 5.0588 9.54409C5.00327 9.59729 5 10.0549 5 21.0933V32.5857L5.07187 32.7134C5.32668 33.1745 5.82323 33.8165 6.36551 34.3911C7.88783 35.9944 10.2987 37.4806 12.2522 38.0198C12.9481 38.2113 12.9709 38.2148 13.7942 38.2148H14.5782L19.1582 35.3346C21.6736 33.7527 24.3164 32.0926 25.0253 31.6457C25.7342 31.1988 26.3582 30.7909 26.4072 30.7341C26.4594 30.6809 26.5117 30.5745 26.528 30.4965C26.5705 30.312 26.5705 8.16428 26.528 7.97984C26.5117 7.9018 26.4725 7.80249 26.4398 7.75283C26.4072 7.70672 24.3524 6.39431 21.8729 4.83361L17.368 1.99952L17.1851 2.00307C17.0054 2.00307 16.9597 2.03145 11.0631 5.7452ZM21.2359 5.69554C23.4475 7.08598 25.254 8.23168 25.254 8.24232C25.254 8.25296 22.7582 9.8314 19.7103 11.7503L14.1633 15.2371L13.853 15.2158C11.3539 15.0385 7.73102 12.857 6.0617 10.5231L5.87876 10.2677L6.01923 10.179C8.37784 8.68925 17.1753 3.17005 17.1949 3.17005C17.2079 3.17005 19.0275 4.3051 21.2359 5.69554ZM25.5251 30.0602C25.4925 30.0921 14.6043 36.9379 14.5488 36.9627C14.5161 36.9769 14.5063 34.8345 14.5063 26.3287L14.5096 15.6734L20.0206 12.2079L25.5317 8.746L25.5415 19.3907C25.5447 25.2469 25.5382 30.046 25.5251 30.0602ZM7.04173 12.4314C8.50198 13.758 10.3281 14.8505 11.9909 15.3896C12.654 15.6024 12.9742 15.6698 13.8464 15.7833L13.9836 15.8011V26.5273V37.2571L13.8301 37.2359C13.1441 37.1507 12.6181 37.023 11.9419 36.7783C9.57348 35.9235 7.14627 34.0896 6.0323 32.3161L5.88203 32.0749V23.5017V14.9285L6.43085 15.5138C7.06787 16.1983 7.65589 16.7233 8.36478 17.2305C9.65515 18.1634 11.0011 18.8161 12.4842 19.2382C13.0755 19.4049 13.1441 19.4084 13.2486 19.2914C13.4021 19.1282 13.327 18.8799 13.1114 18.8267C11.2167 18.3691 9.28927 17.376 7.80942 16.099C7.40108 15.7443 6.77059 15.1129 6.48638 14.7689C6.22504 14.4532 6.11724 14.3823 5.97677 14.439L5.88203 14.478V12.8464V11.2147L6.31651 11.69C6.55172 11.9525 6.88166 12.286 7.04173 12.4314Z" fill="black"/>
<path d="M11.0631 5.7452C7.79309 7.80249 5.09147 9.51216 5.0588 9.54409C5.00327 9.59729 5 10.0549 5 21.0933V32.5857L5.07187 32.7134C5.32668 33.1745 5.82323 33.8165 6.36551 34.3911C7.88783 35.9944 10.2987 37.4806 12.2522 38.0198C12.9481 38.2113 12.9709 38.2148 13.7942 38.2148H14.5782L19.1582 35.3346C21.6736 33.7527 24.3164 32.0926 25.0253 31.6457C25.7342 31.1988 26.3582 30.7909 26.4072 30.7341C26.4594 30.6809 26.5117 30.5745 26.528 30.4965C26.5705 30.312 26.5705 8.16428 26.528 7.97984C26.5117 7.9018 26.4725 7.80249 26.4398 7.75283C26.4072 7.70672 24.3524 6.39431 21.8729 4.83361L17.368 1.99952L17.1851 2.00307C17.0054 2.00307 16.9597 2.03145 11.0631 5.7452ZM21.2359 5.69554C23.4475 7.08598 25.254 8.23168 25.254 8.24232C25.254 8.25296 22.7582 9.8314 19.7103 11.7503L14.1633 15.2371L13.853 15.2158C11.3539 15.0385 7.73102 12.857 6.0617 10.5231L5.87876 10.2677L6.01923 10.179C8.37784 8.68925 17.1753 3.17005 17.1949 3.17005C17.2079 3.17005 19.0275 4.3051 21.2359 5.69554ZM25.5251 30.0602C25.4925 30.0921 14.6043 36.9379 14.5488 36.9627C14.5161 36.9769 14.5063 34.8345 14.5063 26.3287L14.5096 15.6734L20.0206 12.2079L25.5317 8.746L25.5415 19.3907C25.5447 25.2469 25.5382 30.046 25.5251 30.0602ZM7.04173 12.4314C8.50198 13.758 10.3281 14.8505 11.9909 15.3896C12.654 15.6024 12.9742 15.6698 13.8464 15.7833L13.9836 15.8011V26.5273V37.2571L13.8301 37.2359C13.1441 37.1507 12.6181 37.023 11.9419 36.7783C9.57348 35.9235 7.14627 34.0896 6.0323 32.3161L5.88203 32.0749V23.5017V14.9285L6.43085 15.5138C7.06787 16.1983 7.65589 16.7233 8.36478 17.2305C9.65515 18.1634 11.0011 18.8161 12.4842 19.2382C13.0755 19.4049 13.1441 19.4084 13.2486 19.2914C13.4021 19.1282 13.327 18.8799 13.1114 18.8267C11.2167 18.3691 9.28927 17.376 7.80942 16.099C7.40108 15.7443 6.77059 15.1129 6.48638 14.7689C6.22504 14.4532 6.11724 14.3823 5.97677 14.439L5.88203 14.478V12.8464V11.2147L6.31651 11.69C6.55172 11.9525 6.88166 12.286 7.04173 12.4314Z" fill="white"/>
<path d="M11.0631 5.7452C7.79309 7.80249 5.09147 9.51216 5.0588 9.54409C5.00327 9.59729 5 10.0549 5 21.0933V32.5857L5.07187 32.7134C5.32668 33.1745 5.82323 33.8165 6.36551 34.3911C7.88783 35.9944 10.2987 37.4806 12.2522 38.0198C12.9481 38.2113 12.9709 38.2148 13.7942 38.2148H14.5782L19.1582 35.3346C21.6736 33.7527 24.3164 32.0926 25.0253 31.6457C25.7342 31.1988 26.3582 30.7909 26.4072 30.7341C26.4594 30.6809 26.5117 30.5745 26.528 30.4965C26.5705 30.312 26.5705 8.16428 26.528 7.97984C26.5117 7.9018 26.4725 7.80249 26.4398 7.75283C26.4072 7.70672 24.3524 6.39431 21.8729 4.83361L17.368 1.99952L17.1851 2.00307C17.0054 2.00307 16.9597 2.03145 11.0631 5.7452ZM21.2359 5.69554C23.4475 7.08598 25.254 8.23168 25.254 8.24232C25.254 8.25296 22.7582 9.8314 19.7103 11.7503L14.1633 15.2371L13.853 15.2158C11.3539 15.0385 7.73102 12.857 6.0617 10.5231L5.87876 10.2677L6.01923 10.179C8.37784 8.68925 17.1753 3.17005 17.1949 3.17005C17.2079 3.17005 19.0275 4.3051 21.2359 5.69554ZM25.5251 30.0602C25.4925 30.0921 14.6043 36.9379 14.5488 36.9627C14.5161 36.9769 14.5063 34.8345 14.5063 26.3287L14.5096 15.6734L20.0206 12.2079L25.5317 8.746L25.5415 19.3907C25.5447 25.2469 25.5382 30.046 25.5251 30.0602ZM7.04173 12.4314C8.50198 13.758 10.3281 14.8505 11.9909 15.3896C12.654 15.6024 12.9742 15.6698 13.8464 15.7833L13.9836 15.8011V26.5273V37.2571L13.8301 37.2359C13.1441 37.1507 12.6181 37.023 11.9419 36.7783C9.57348 35.9235 7.14627 34.0896 6.0323 32.3161L5.88203 32.0749V23.5017V14.9285L6.43085 15.5138C7.06787 16.1983 7.65589 16.7233 8.36478 17.2305C9.65515 18.1634 11.0011 18.8161 12.4842 19.2382C13.0755 19.4049 13.1441 19.4084 13.2486 19.2914C13.4021 19.1282 13.327 18.8799 13.1114 18.8267C11.2167 18.3691 9.28927 17.376 7.80942 16.099C7.40108 15.7443 6.77059 15.1129 6.48638 14.7689C6.22504 14.4532 6.11724 14.3823 5.97677 14.439L5.88203 14.478V12.8464V11.2147L6.31651 11.69C6.55172 11.9525 6.88166 12.286 7.04173 12.4314Z" fill="url(#paint0_linear_3080_3172)"/>
<path d="M6.02109 17.1558C5.97535 17.209 5.94922 17.2835 5.94922 17.365C5.94922 17.475 5.98842 17.5353 6.30203 17.89C7.99095 19.8196 10.2614 21.249 12.7082 21.9159C12.9564 21.9833 13.1917 22.04 13.2309 22.04C13.3354 22.04 13.4628 21.884 13.4628 21.7634C13.4628 21.5683 13.3877 21.5186 12.8421 21.3696C10.9016 20.8376 9.02652 19.7841 7.54994 18.3972C7.36046 18.2199 7.00439 17.851 6.75284 17.5743C6.35757 17.138 6.28896 17.0742 6.19749 17.0742C6.12889 17.0742 6.06682 17.1026 6.02109 17.1558Z" fill="black"/>
<path d="M6.02109 17.1558C5.97535 17.209 5.94922 17.2835 5.94922 17.365C5.94922 17.475 5.98842 17.5353 6.30203 17.89C7.99095 19.8196 10.2614 21.249 12.7082 21.9159C12.9564 21.9833 13.1917 22.04 13.2309 22.04C13.3354 22.04 13.4628 21.884 13.4628 21.7634C13.4628 21.5683 13.3877 21.5186 12.8421 21.3696C10.9016 20.8376 9.02652 19.7841 7.54994 18.3972C7.36046 18.2199 7.00439 17.851 6.75284 17.5743C6.35757 17.138 6.28896 17.0742 6.19749 17.0742C6.12889 17.0742 6.06682 17.1026 6.02109 17.1558Z" fill="white"/>
<path d="M6.02109 17.1558C5.97535 17.209 5.94922 17.2835 5.94922 17.365C5.94922 17.475 5.98842 17.5353 6.30203 17.89C7.99095 19.8196 10.2614 21.249 12.7082 21.9159C12.9564 21.9833 13.1917 22.04 13.2309 22.04C13.3354 22.04 13.4628 21.884 13.4628 21.7634C13.4628 21.5683 13.3877 21.5186 12.8421 21.3696C10.9016 20.8376 9.02652 19.7841 7.54994 18.3972C7.36046 18.2199 7.00439 17.851 6.75284 17.5743C6.35757 17.138 6.28896 17.0742 6.19749 17.0742C6.12889 17.0742 6.06682 17.1026 6.02109 17.1558Z" fill="url(#paint1_linear_3080_3172)"/>
<path d="M7.18259 24.8457C6.57824 24.9485 6.15029 25.6863 6.26463 26.4241C6.34303 26.9101 6.58477 27.2754 6.95065 27.4563C7.10745 27.5343 7.16299 27.545 7.3982 27.5308C7.70854 27.5131 7.87515 27.435 8.08422 27.2045C8.67877 26.5625 8.52197 25.3245 7.80001 24.9521C7.5746 24.835 7.41126 24.8067 7.18259 24.8457ZM7.55827 25.36C8.05155 25.6296 8.15936 26.4028 7.76408 26.8462C7.5158 27.1264 7.22833 27.1406 6.96372 26.8781C6.77424 26.6972 6.68931 26.4489 6.70564 26.1404C6.71871 25.8566 6.78404 25.6899 6.93758 25.5161C7.12379 25.3068 7.35573 25.25 7.55827 25.36Z" fill="black"/>
<path d="M7.18259 24.8457C6.57824 24.9485 6.15029 25.6863 6.26463 26.4241C6.34303 26.9101 6.58477 27.2754 6.95065 27.4563C7.10745 27.5343 7.16299 27.545 7.3982 27.5308C7.70854 27.5131 7.87515 27.435 8.08422 27.2045C8.67877 26.5625 8.52197 25.3245 7.80001 24.9521C7.5746 24.835 7.41126 24.8067 7.18259 24.8457ZM7.55827 25.36C8.05155 25.6296 8.15936 26.4028 7.76408 26.8462C7.5158 27.1264 7.22833 27.1406 6.96372 26.8781C6.77424 26.6972 6.68931 26.4489 6.70564 26.1404C6.71871 25.8566 6.78404 25.6899 6.93758 25.5161C7.12379 25.3068 7.35573 25.25 7.55827 25.36Z" fill="white"/>
<path d="M7.18259 24.8457C6.57824 24.9485 6.15029 25.6863 6.26463 26.4241C6.34303 26.9101 6.58477 27.2754 6.95065 27.4563C7.10745 27.5343 7.16299 27.545 7.3982 27.5308C7.70854 27.5131 7.87515 27.435 8.08422 27.2045C8.67877 26.5625 8.52197 25.3245 7.80001 24.9521C7.5746 24.835 7.41126 24.8067 7.18259 24.8457ZM7.55827 25.36C8.05155 25.6296 8.15936 26.4028 7.76408 26.8462C7.5158 27.1264 7.22833 27.1406 6.96372 26.8781C6.77424 26.6972 6.68931 26.4489 6.70564 26.1404C6.71871 25.8566 6.78404 25.6899 6.93758 25.5161C7.12379 25.3068 7.35573 25.25 7.55827 25.36Z" fill="url(#paint2_linear_3080_3172)"/>
<path d="M7.0161 28.3548C6.74822 28.4435 6.45095 28.7698 6.33334 29.1068C6.27127 29.2877 6.25494 29.3941 6.25821 29.6495C6.26147 30.0467 6.34314 30.2986 6.55548 30.554C6.78416 30.8306 6.9475 30.9193 7.27091 30.937C7.50611 30.9512 7.56165 30.9406 7.71845 30.8626C7.95693 30.7455 8.14967 30.5291 8.27381 30.2418C8.37181 30.0219 8.37834 29.9758 8.37834 29.6317C8.37834 29.2877 8.37181 29.2416 8.27381 29.0216C8.07453 28.5641 7.74459 28.3193 7.33298 28.3229C7.20884 28.3229 7.0651 28.3371 7.0161 28.3548ZM7.50611 28.8336C7.67272 28.9117 7.77072 29.0181 7.85893 29.2238C8.06473 29.6956 7.86546 30.3021 7.46038 30.4476C7.1141 30.5717 6.74169 30.217 6.70575 29.7275C6.67635 29.3302 6.82009 29.0039 7.09123 28.8585C7.26111 28.7663 7.34278 28.7627 7.50611 28.8336Z" fill="black"/>
<path d="M7.0161 28.3548C6.74822 28.4435 6.45095 28.7698 6.33334 29.1068C6.27127 29.2877 6.25494 29.3941 6.25821 29.6495C6.26147 30.0467 6.34314 30.2986 6.55548 30.554C6.78416 30.8306 6.9475 30.9193 7.27091 30.937C7.50611 30.9512 7.56165 30.9406 7.71845 30.8626C7.95693 30.7455 8.14967 30.5291 8.27381 30.2418C8.37181 30.0219 8.37834 29.9758 8.37834 29.6317C8.37834 29.2877 8.37181 29.2416 8.27381 29.0216C8.07453 28.5641 7.74459 28.3193 7.33298 28.3229C7.20884 28.3229 7.0651 28.3371 7.0161 28.3548ZM7.50611 28.8336C7.67272 28.9117 7.77072 29.0181 7.85893 29.2238C8.06473 29.6956 7.86546 30.3021 7.46038 30.4476C7.1141 30.5717 6.74169 30.217 6.70575 29.7275C6.67635 29.3302 6.82009 29.0039 7.09123 28.8585C7.26111 28.7663 7.34278 28.7627 7.50611 28.8336Z" fill="white"/>
<path d="M7.0161 28.3548C6.74822 28.4435 6.45095 28.7698 6.33334 29.1068C6.27127 29.2877 6.25494 29.3941 6.25821 29.6495C6.26147 30.0467 6.34314 30.2986 6.55548 30.554C6.78416 30.8306 6.9475 30.9193 7.27091 30.937C7.50611 30.9512 7.56165 30.9406 7.71845 30.8626C7.95693 30.7455 8.14967 30.5291 8.27381 30.2418C8.37181 30.0219 8.37834 29.9758 8.37834 29.6317C8.37834 29.2877 8.37181 29.2416 8.27381 29.0216C8.07453 28.5641 7.74459 28.3193 7.33298 28.3229C7.20884 28.3229 7.0651 28.3371 7.0161 28.3548ZM7.50611 28.8336C7.67272 28.9117 7.77072 29.0181 7.85893 29.2238C8.06473 29.6956 7.86546 30.3021 7.46038 30.4476C7.1141 30.5717 6.74169 30.217 6.70575 29.7275C6.67635 29.3302 6.82009 29.0039 7.09123 28.8585C7.26111 28.7663 7.34278 28.7627 7.50611 28.8336Z" fill="url(#paint3_linear_3080_3172)"/>
<defs>
<linearGradient id="paint0_linear_3080_3172" x1="5.15147" y1="20.1072" x2="26.5599" y2="20.1072" gradientUnits="userSpaceOnUse">
<stop stop-color="#3793AE"/>
<stop offset="1" stop-color="#074287"/>
</linearGradient>
<linearGradient id="paint1_linear_3080_3172" x1="6.00201" y1="19.5571" x2="13.4628" y2="19.5571" gradientUnits="userSpaceOnUse">
<stop stop-color="#3793AE"/>
<stop offset="1" stop-color="#074287"/>
</linearGradient>
<linearGradient id="paint2_linear_3080_3172" x1="6.26157" y1="26.1827" x2="8.44955" y2="26.1827" gradientUnits="userSpaceOnUse">
<stop stop-color="#3793AE"/>
<stop offset="1" stop-color="#074287"/>
</linearGradient>
<linearGradient id="paint3_linear_3080_3172" x1="6.27271" y1="29.6326" x2="8.37834" y2="29.6326" gradientUnits="userSpaceOnUse">
<stop stop-color="#3793AE"/>
<stop offset="1" stop-color="#074287"/>
</linearGradient>
</defs>
</svg>
