<svg width="32" height="38" viewBox="0 0 32 38" fill="none" xmlns="http://www.w3.org/2000/svg">
<path d="M3.16781 4.05486C3.02861 4.11372 1.97072 5.46742 1.63664 6.00693C0.597311 7.72358 0.0962034 9.45984 0.0219653 11.6375C-0.0244335 12.8539 -0.00587402 13.207 0.161162 14.0703C0.550912 16.0714 1.31185 17.7193 2.49038 19.1809C2.99149 19.7891 3.15853 19.9363 3.40908 19.9559C3.57612 19.9755 3.77099 19.9363 3.84523 19.8676C4.03082 19.7107 4.01226 19.1319 3.80811 18.9259C3.52044 18.6218 2.81517 17.6899 2.56462 17.2681C1.7944 15.9929 1.33041 14.5607 1.19122 13.0305C0.940662 10.1759 1.77584 7.4391 3.51116 5.42818C3.84523 5.0358 3.97515 4.81019 3.97515 4.60419C3.97515 4.14315 3.57612 3.8783 3.16781 4.05486Z" fill="white"/>
<path d="M3.16781 4.05486C3.02861 4.11372 1.97072 5.46742 1.63664 6.00693C0.597311 7.72358 0.0962034 9.45984 0.0219653 11.6375C-0.0244335 12.8539 -0.00587402 13.207 0.161162 14.0703C0.550912 16.0714 1.31185 17.7193 2.49038 19.1809C2.99149 19.7891 3.15853 19.9363 3.40908 19.9559C3.57612 19.9755 3.77099 19.9363 3.84523 19.8676C4.03082 19.7107 4.01226 19.1319 3.80811 18.9259C3.52044 18.6218 2.81517 17.6899 2.56462 17.2681C1.7944 15.9929 1.33041 14.5607 1.19122 13.0305C0.940662 10.1759 1.77584 7.4391 3.51116 5.42818C3.84523 5.0358 3.97515 4.81019 3.97515 4.60419C3.97515 4.14315 3.57612 3.8783 3.16781 4.05486Z" fill="url(#paint0_linear_3080_3171)"/>
<path d="M16.9761 4.24328C16.8648 4.39042 16.7812 4.55718 16.7812 4.62584C16.7812 4.69451 17.0318 5.05746 17.3288 5.44002C18.099 6.41115 18.4145 6.92124 18.8414 7.87275C19.426 9.18721 19.6673 10.3643 19.6673 11.8946C19.6765 13.2777 19.6394 13.5622 19.361 14.6805C19.0084 16.0636 18.2939 17.4271 17.2916 18.614C17.0132 18.9476 16.7812 19.2909 16.7812 19.3792C16.7812 19.7029 17.0596 19.9775 17.3844 19.9775C17.6443 19.9775 17.7649 19.8893 18.1732 19.4086C20.3354 16.8483 21.2819 13.3268 20.6788 10.0406C20.2612 7.77466 19.4631 6.08744 18.0897 4.54737C17.5236 3.91957 17.2731 3.8509 16.9761 4.24328Z" fill="white"/>
<path d="M16.9761 4.24328C16.8648 4.39042 16.7812 4.55718 16.7812 4.62584C16.7812 4.69451 17.0318 5.05746 17.3288 5.44002C18.099 6.41115 18.4145 6.92124 18.8414 7.87275C19.426 9.18721 19.6673 10.3643 19.6673 11.8946C19.6765 13.2777 19.6394 13.5622 19.361 14.6805C19.0084 16.0636 18.2939 17.4271 17.2916 18.614C17.0132 18.9476 16.7812 19.2909 16.7812 19.3792C16.7812 19.7029 17.0596 19.9775 17.3844 19.9775C17.6443 19.9775 17.7649 19.8893 18.1732 19.4086C20.3354 16.8483 21.2819 13.3268 20.6788 10.0406C20.2612 7.77466 19.4631 6.08744 18.0897 4.54737C17.5236 3.91957 17.2731 3.8509 16.9761 4.24328Z" fill="url(#paint1_linear_3080_3171)"/>
<path d="M5.11694 6.04762C4.77359 6.19477 3.89201 7.43075 3.46514 8.35283C2.02678 11.4526 2.52788 15.1213 4.72719 17.5933C5.23757 18.172 5.73868 18.1328 5.87788 17.5148C5.92428 17.3088 5.85004 17.1519 5.46029 16.6614C4.80142 15.8178 4.38384 15.0526 4.09616 14.1404C3.87345 13.4439 3.84561 13.1987 3.84561 11.9823C3.84561 10.7169 3.86417 10.5501 4.11472 9.82424C4.43023 8.90216 4.89422 8.02912 5.36749 7.46999C5.7294 7.05799 5.92428 6.72447 5.92428 6.53809C5.92428 6.41057 5.50669 5.94953 5.39533 5.95934C5.35821 5.95934 5.22829 5.99858 5.11694 6.04762Z" fill="white"/>
<path d="M5.11694 6.04762C4.77359 6.19477 3.89201 7.43075 3.46514 8.35283C2.02678 11.4526 2.52788 15.1213 4.72719 17.5933C5.23757 18.172 5.73868 18.1328 5.87788 17.5148C5.92428 17.3088 5.85004 17.1519 5.46029 16.6614C4.80142 15.8178 4.38384 15.0526 4.09616 14.1404C3.87345 13.4439 3.84561 13.1987 3.84561 11.9823C3.84561 10.7169 3.86417 10.5501 4.11472 9.82424C4.43023 8.90216 4.89422 8.02912 5.36749 7.46999C5.7294 7.05799 5.92428 6.72447 5.92428 6.53809C5.92428 6.41057 5.50669 5.94953 5.39533 5.95934C5.35821 5.95934 5.22829 5.99858 5.11694 6.04762Z" fill="url(#paint2_linear_3080_3171)"/>
<path d="M15.1763 6.15527C15.0371 6.26317 14.9258 6.44955 14.9258 6.57707C14.9258 6.69479 15.1485 7.07735 15.4269 7.43049C16.0579 8.23486 16.5219 9.1177 16.8003 10.0692C17.088 11.0403 17.0972 12.8257 16.8281 13.7968C16.5126 14.9445 16.095 15.7685 15.3712 16.6611C14.8887 17.2693 14.8237 17.5145 15.1114 17.8186C15.4362 18.162 15.696 18.0737 16.2435 17.4361C18.1366 15.2191 18.7026 11.8545 17.654 8.97056C17.2457 7.82287 16.0858 6.14546 15.6125 6.00813C15.4918 5.96889 15.3248 6.01794 15.1763 6.15527Z" fill="white"/>
<path d="M15.1763 6.15527C15.0371 6.26317 14.9258 6.44955 14.9258 6.57707C14.9258 6.69479 15.1485 7.07735 15.4269 7.43049C16.0579 8.23486 16.5219 9.1177 16.8003 10.0692C17.088 11.0403 17.0972 12.8257 16.8281 13.7968C16.5126 14.9445 16.095 15.7685 15.3712 16.6611C14.8887 17.2693 14.8237 17.5145 15.1114 17.8186C15.4362 18.162 15.696 18.0737 16.2435 17.4361C18.1366 15.2191 18.7026 11.8545 17.654 8.97056C17.2457 7.82287 16.0858 6.14546 15.6125 6.00813C15.4918 5.96889 15.3248 6.01794 15.1763 6.15527Z" fill="url(#paint3_linear_3080_3171)"/>
<path d="M6.53911 8.51059C5.93593 9.21687 5.56474 10.0703 5.38842 11.1689C5.24923 12.0224 5.24923 12.1597 5.3977 12.9248C5.57402 13.8763 6.03801 14.9259 6.55767 15.5537C6.84534 15.9069 6.97526 15.9854 7.22582 15.9854C7.80116 15.9854 7.95892 15.3968 7.52277 14.8573C6.72471 13.8665 6.44632 13.0523 6.50199 11.7771C6.52983 11.012 6.57623 10.7864 6.83607 10.237C7.0031 9.88391 7.28149 9.40325 7.45781 9.18744C7.81972 8.73621 7.84756 8.54983 7.63413 8.22612C7.38357 7.84356 7.02166 7.94165 6.53911 8.51059Z" fill="white"/>
<path d="M6.53911 8.51059C5.93593 9.21687 5.56474 10.0703 5.38842 11.1689C5.24923 12.0224 5.24923 12.1597 5.3977 12.9248C5.57402 13.8763 6.03801 14.9259 6.55767 15.5537C6.84534 15.9069 6.97526 15.9854 7.22582 15.9854C7.80116 15.9854 7.95892 15.3968 7.52277 14.8573C6.72471 13.8665 6.44632 13.0523 6.50199 11.7771C6.52983 11.012 6.57623 10.7864 6.83607 10.237C7.0031 9.88391 7.28149 9.40325 7.45781 9.18744C7.81972 8.73621 7.84756 8.54983 7.63413 8.22612C7.38357 7.84356 7.02166 7.94165 6.53911 8.51059Z" fill="url(#paint4_linear_3080_3171)"/>
<path d="M13.2281 8.18688C12.9868 8.46155 13.0425 8.78526 13.3765 9.22668C14.0911 10.1782 14.3695 10.9433 14.3695 11.9831C14.3695 13.0327 13.9148 14.2785 13.3116 14.8671C12.8662 15.3085 13.061 15.9854 13.6271 15.9854C14.0169 15.9854 14.4994 15.4262 14.9634 14.4355C15.3995 13.5134 15.5109 12.8856 15.4645 11.6986C15.3995 10.3057 15.0098 9.30515 14.1932 8.37326C13.8313 7.96127 13.4786 7.8926 13.2281 8.18688Z" fill="white"/>
<path d="M13.2281 8.18688C12.9868 8.46155 13.0425 8.78526 13.3765 9.22668C14.0911 10.1782 14.3695 10.9433 14.3695 11.9831C14.3695 13.0327 13.9148 14.2785 13.3116 14.8671C12.8662 15.3085 13.061 15.9854 13.6271 15.9854C14.0169 15.9854 14.4994 15.4262 14.9634 14.4355C15.3995 13.5134 15.5109 12.8856 15.4645 11.6986C15.3995 10.3057 15.0098 9.30515 14.1932 8.37326C13.8313 7.96127 13.4786 7.8926 13.2281 8.18688Z" fill="url(#paint5_linear_3080_3171)"/>
<path d="M10.0458 11.4233C9.73958 11.6292 9.7303 11.9137 9.7303 18.2506V24.5776L7.69803 24.6071C5.46161 24.6365 5.42449 24.6463 4.9605 25.3134C4.7749 25.5684 4.76562 25.7057 4.76562 28.9526C4.76562 32.1995 4.7749 32.3369 4.9605 32.5919C5.06258 32.7391 5.26673 32.9549 5.40593 33.0628C5.65648 33.2688 5.70288 33.2688 18.2306 33.2982C32.3358 33.3276 31.1944 33.3767 31.7326 32.6017L32.0017 32.2094V28.9526V25.6959L31.7233 25.2937C31.5749 25.0681 31.3522 24.8327 31.2408 24.764C31.0738 24.6659 29.0044 24.6267 21.0516 24.5875L11.0759 24.5384L11.048 18.1231C11.0295 12.3159 11.0109 11.6881 10.8717 11.5213C10.7232 11.3448 10.2407 11.2859 10.0458 11.4233ZM30.7397 25.9215C30.8696 26.0491 30.8882 26.4611 30.8882 28.9232C30.8882 31.4442 30.8696 31.8072 30.7304 31.9641C30.5912 32.1309 30.0808 32.1407 18.379 32.1407C7.15052 32.1407 6.15759 32.1309 5.99983 31.9739C5.84208 31.8268 5.8328 31.6012 5.8328 28.9428C5.8328 26.4611 5.85136 26.0491 5.98127 25.9215C6.11119 25.7842 7.36396 25.7646 18.3605 25.7646C29.357 25.7646 30.6098 25.7842 30.7397 25.9215Z" fill="white"/>
<path d="M10.0458 11.4233C9.73958 11.6292 9.7303 11.9137 9.7303 18.2506V24.5776L7.69803 24.6071C5.46161 24.6365 5.42449 24.6463 4.9605 25.3134C4.7749 25.5684 4.76562 25.7057 4.76562 28.9526C4.76562 32.1995 4.7749 32.3369 4.9605 32.5919C5.06258 32.7391 5.26673 32.9549 5.40593 33.0628C5.65648 33.2688 5.70288 33.2688 18.2306 33.2982C32.3358 33.3276 31.1944 33.3767 31.7326 32.6017L32.0017 32.2094V28.9526V25.6959L31.7233 25.2937C31.5749 25.0681 31.3522 24.8327 31.2408 24.764C31.0738 24.6659 29.0044 24.6267 21.0516 24.5875L11.0759 24.5384L11.048 18.1231C11.0295 12.3159 11.0109 11.6881 10.8717 11.5213C10.7232 11.3448 10.2407 11.2859 10.0458 11.4233ZM30.7397 25.9215C30.8696 26.0491 30.8882 26.4611 30.8882 28.9232C30.8882 31.4442 30.8696 31.8072 30.7304 31.9641C30.5912 32.1309 30.0808 32.1407 18.379 32.1407C7.15052 32.1407 6.15759 32.1309 5.99983 31.9739C5.84208 31.8268 5.8328 31.6012 5.8328 28.9428C5.8328 26.4611 5.85136 26.0491 5.98127 25.9215C6.11119 25.7842 7.36396 25.7646 18.3605 25.7646C29.357 25.7646 30.6098 25.7842 30.7397 25.9215Z" fill="url(#paint6_linear_3080_3171)"/>
<defs>
<linearGradient id="paint0_linear_3080_3171" x1="0.0279284" y1="11.9803" x2="3.97515" y2="11.9803" gradientUnits="userSpaceOnUse">
<stop stop-color="#3793AE"/>
<stop offset="1" stop-color="#074287"/>
</linearGradient>
<linearGradient id="paint1_linear_3080_3171" x1="16.8099" y1="11.9887" x2="20.8574" y2="11.9887" gradientUnits="userSpaceOnUse">
<stop stop-color="#3793AE"/>
<stop offset="1" stop-color="#074287"/>
</linearGradient>
<linearGradient id="paint2_linear_3080_3171" x1="2.67533" y1="11.9815" x2="5.92428" y2="11.9815" gradientUnits="userSpaceOnUse">
<stop stop-color="#3793AE"/>
<stop offset="1" stop-color="#074287"/>
</linearGradient>
<linearGradient id="paint3_linear_3080_3171" x1="14.9486" y1="12.0058" x2="18.1751" y2="12.0058" gradientUnits="userSpaceOnUse">
<stop stop-color="#3793AE"/>
<stop offset="1" stop-color="#074287"/>
</linearGradient>
<linearGradient id="paint4_linear_3080_3171" x1="5.30263" y1="11.9912" x2="7.77252" y2="11.9912" gradientUnits="userSpaceOnUse">
<stop stop-color="#3793AE"/>
<stop offset="1" stop-color="#074287"/>
</linearGradient>
<linearGradient id="paint5_linear_3080_3171" x1="13.0833" y1="11.996" x2="15.4743" y2="11.996" gradientUnits="userSpaceOnUse">
<stop stop-color="#3793AE"/>
<stop offset="1" stop-color="#074287"/>
</linearGradient>
<linearGradient id="paint6_linear_3080_3171" x1="4.95698" y1="22.3295" x2="32.0017" y2="22.3295" gradientUnits="userSpaceOnUse">
<stop stop-color="#3793AE"/>
<stop offset="1" stop-color="#074287"/>
</linearGradient>
</defs>
</svg>
