<svg width="348" height="161" viewBox="0 0 348 161" fill="none" xmlns="http://www.w3.org/2000/svg">
<path d="M0 76L219 76" stroke="url(#paint0_linear_2485_10396)" stroke-width="2" stroke-dasharray="10 10"/>
<path d="M0 76L219 76" stroke="white" stroke-opacity="0.15" stroke-width="2" stroke-dasharray="10 10"/>
<path d="M320.736 110.923C315.06 114.095 310.37 116.731 310.313 116.78C310.217 116.862 310.211 117.568 310.211 134.588V152.309L310.336 152.505C310.778 153.216 311.64 154.206 312.581 155.092C315.224 157.565 319.409 159.856 322.8 160.687C324.008 160.983 324.048 160.988 325.477 160.988H326.838L334.789 156.547C339.155 154.108 343.743 151.548 344.974 150.859C346.204 150.17 347.287 149.541 347.372 149.454C347.463 149.372 347.554 149.207 347.582 149.087C347.656 148.803 347.656 114.653 347.582 114.368C347.554 114.248 347.486 114.095 347.429 114.018C347.372 113.947 343.805 111.924 339.501 109.517L331.681 105.147L331.363 105.153C331.052 105.153 330.972 105.196 320.736 110.923ZM338.395 110.846C342.235 112.99 345.371 114.757 345.371 114.773C345.371 114.789 341.038 117.223 335.747 120.182L326.118 125.558L325.579 125.526C321.241 125.252 314.952 121.889 312.054 118.29L311.736 117.896L311.98 117.759C316.075 115.462 331.346 106.952 331.38 106.952C331.403 106.952 334.562 108.702 338.395 110.846ZM345.841 148.414C345.785 148.464 326.883 159.019 326.787 159.058C326.73 159.08 326.713 155.776 326.713 142.661L326.719 126.231L336.286 120.888L345.853 115.55L345.87 131.963C345.875 140.993 345.864 148.393 345.841 148.414ZM313.755 121.232C316.29 123.278 319.46 124.962 322.347 125.794C323.498 126.122 324.054 126.226 325.568 126.401L325.806 126.428V142.967V159.512L325.539 159.479C324.349 159.348 323.436 159.151 322.262 158.773C318.15 157.455 313.937 154.628 312.003 151.893L311.742 151.521V138.302V125.083L312.695 125.985C313.801 127.041 314.821 127.85 316.052 128.632C318.292 130.071 320.628 131.077 323.203 131.728C324.229 131.985 324.349 131.99 324.53 131.81C324.797 131.558 324.666 131.175 324.292 131.093C321.003 130.388 317.657 128.856 315.088 126.887C314.379 126.34 313.285 125.367 312.791 124.836C312.338 124.35 312.15 124.24 311.907 124.328L311.742 124.388V121.872V119.356L312.496 120.089C312.905 120.494 313.477 121.008 313.755 121.232Z" fill="black"/>
<path d="M320.736 110.923C315.06 114.095 310.37 116.731 310.313 116.78C310.217 116.862 310.211 117.568 310.211 134.588V152.309L310.336 152.505C310.778 153.216 311.64 154.206 312.581 155.092C315.224 157.565 319.409 159.856 322.8 160.687C324.008 160.983 324.048 160.988 325.477 160.988H326.838L334.789 156.547C339.155 154.108 343.743 151.548 344.974 150.859C346.204 150.17 347.287 149.541 347.372 149.454C347.463 149.372 347.554 149.207 347.582 149.087C347.656 148.803 347.656 114.653 347.582 114.368C347.554 114.248 347.486 114.095 347.429 114.018C347.372 113.947 343.805 111.924 339.501 109.517L331.681 105.147L331.363 105.153C331.052 105.153 330.972 105.196 320.736 110.923ZM338.395 110.846C342.235 112.99 345.371 114.757 345.371 114.773C345.371 114.789 341.038 117.223 335.747 120.182L326.118 125.558L325.579 125.526C321.241 125.252 314.952 121.889 312.054 118.29L311.736 117.896L311.98 117.759C316.075 115.462 331.346 106.952 331.38 106.952C331.403 106.952 334.562 108.702 338.395 110.846ZM345.841 148.414C345.785 148.464 326.883 159.019 326.787 159.058C326.73 159.08 326.713 155.776 326.713 142.661L326.719 126.231L336.286 120.888L345.853 115.55L345.87 131.963C345.875 140.993 345.864 148.393 345.841 148.414ZM313.755 121.232C316.29 123.278 319.46 124.962 322.347 125.794C323.498 126.122 324.054 126.226 325.568 126.401L325.806 126.428V142.967V159.512L325.539 159.479C324.349 159.348 323.436 159.151 322.262 158.773C318.15 157.455 313.937 154.628 312.003 151.893L311.742 151.521V138.302V125.083L312.695 125.985C313.801 127.041 314.821 127.85 316.052 128.632C318.292 130.071 320.628 131.077 323.203 131.728C324.229 131.985 324.349 131.99 324.53 131.81C324.797 131.558 324.666 131.175 324.292 131.093C321.003 130.388 317.657 128.856 315.088 126.887C314.379 126.34 313.285 125.367 312.791 124.836C312.338 124.35 312.15 124.24 311.907 124.328L311.742 124.388V121.872V119.356L312.496 120.089C312.905 120.494 313.477 121.008 313.755 121.232Z" fill="white"/>
<path d="M320.736 110.923C315.06 114.095 310.37 116.731 310.313 116.78C310.217 116.862 310.211 117.568 310.211 134.588V152.309L310.336 152.505C310.778 153.216 311.64 154.206 312.581 155.092C315.224 157.565 319.409 159.856 322.8 160.687C324.008 160.983 324.048 160.988 325.477 160.988H326.838L334.789 156.547C339.155 154.108 343.743 151.548 344.974 150.859C346.204 150.17 347.287 149.541 347.372 149.454C347.463 149.372 347.554 149.207 347.582 149.087C347.656 148.803 347.656 114.653 347.582 114.368C347.554 114.248 347.486 114.095 347.429 114.018C347.372 113.947 343.805 111.924 339.501 109.517L331.681 105.147L331.363 105.153C331.052 105.153 330.972 105.196 320.736 110.923ZM338.395 110.846C342.235 112.99 345.371 114.757 345.371 114.773C345.371 114.789 341.038 117.223 335.747 120.182L326.118 125.558L325.579 125.526C321.241 125.252 314.952 121.889 312.054 118.29L311.736 117.896L311.98 117.759C316.075 115.462 331.346 106.952 331.38 106.952C331.403 106.952 334.562 108.702 338.395 110.846ZM345.841 148.414C345.785 148.464 326.883 159.019 326.787 159.058C326.73 159.08 326.713 155.776 326.713 142.661L326.719 126.231L336.286 120.888L345.853 115.55L345.87 131.963C345.875 140.993 345.864 148.393 345.841 148.414ZM313.755 121.232C316.29 123.278 319.46 124.962 322.347 125.794C323.498 126.122 324.054 126.226 325.568 126.401L325.806 126.428V142.967V159.512L325.539 159.479C324.349 159.348 323.436 159.151 322.262 158.773C318.15 157.455 313.937 154.628 312.003 151.893L311.742 151.521V138.302V125.083L312.695 125.985C313.801 127.041 314.821 127.85 316.052 128.632C318.292 130.071 320.628 131.077 323.203 131.728C324.229 131.985 324.349 131.99 324.53 131.81C324.797 131.558 324.666 131.175 324.292 131.093C321.003 130.388 317.657 128.856 315.088 126.887C314.379 126.34 313.285 125.367 312.791 124.836C312.338 124.35 312.15 124.24 311.907 124.328L311.742 124.388V121.872V119.356L312.496 120.089C312.905 120.494 313.477 121.008 313.755 121.232Z" fill="url(#paint1_linear_2485_10396)"/>
<path d="M311.98 128.516C311.901 128.598 311.855 128.713 311.855 128.838C311.855 129.008 311.924 129.101 312.468 129.648C315.4 132.623 319.341 134.827 323.589 135.855C324.02 135.959 324.428 136.047 324.496 136.047C324.677 136.047 324.899 135.806 324.899 135.62C324.899 135.319 324.768 135.243 323.821 135.013C320.453 134.193 317.197 132.568 314.634 130.43C314.305 130.156 313.687 129.588 313.251 129.161C312.564 128.488 312.445 128.39 312.286 128.39C312.167 128.39 312.06 128.434 311.98 128.516Z" fill="black"/>
<path d="M311.98 128.516C311.901 128.598 311.855 128.713 311.855 128.838C311.855 129.008 311.924 129.101 312.468 129.648C315.4 132.623 319.341 134.827 323.589 135.855C324.02 135.959 324.428 136.047 324.496 136.047C324.677 136.047 324.899 135.806 324.899 135.62C324.899 135.319 324.768 135.243 323.821 135.013C320.453 134.193 317.197 132.568 314.634 130.43C314.305 130.156 313.687 129.588 313.251 129.161C312.564 128.488 312.445 128.39 312.286 128.39C312.167 128.39 312.06 128.434 311.98 128.516Z" fill="white"/>
<path d="M311.98 128.516C311.901 128.598 311.855 128.713 311.855 128.838C311.855 129.008 311.924 129.101 312.468 129.648C315.4 132.623 319.341 134.827 323.589 135.855C324.02 135.959 324.428 136.047 324.496 136.047C324.677 136.047 324.899 135.806 324.899 135.62C324.899 135.319 324.768 135.243 323.821 135.013C320.453 134.193 317.197 132.568 314.634 130.43C314.305 130.156 313.687 129.588 313.251 129.161C312.564 128.488 312.445 128.39 312.286 128.39C312.167 128.39 312.06 128.434 311.98 128.516Z" fill="url(#paint2_linear_2485_10396)"/>
<path d="M313.997 140.375C312.948 140.534 312.205 141.671 312.403 142.809C312.539 143.558 312.959 144.121 313.594 144.4C313.866 144.521 313.963 144.537 314.371 144.515C314.91 144.488 315.199 144.368 315.562 144.012C316.594 143.022 316.322 141.113 315.069 140.539C314.677 140.359 314.394 140.315 313.997 140.375ZM314.649 141.168C315.505 141.584 315.692 142.776 315.006 143.46C314.575 143.892 314.076 143.914 313.617 143.509C313.288 143.23 313.14 142.847 313.169 142.371C313.192 141.934 313.305 141.677 313.571 141.409C313.895 141.086 314.297 140.998 314.649 141.168Z" fill="black"/>
<path d="M313.997 140.375C312.948 140.534 312.205 141.671 312.403 142.809C312.539 143.558 312.959 144.121 313.594 144.4C313.866 144.521 313.963 144.537 314.371 144.515C314.91 144.488 315.199 144.368 315.562 144.012C316.594 143.022 316.322 141.113 315.069 140.539C314.677 140.359 314.394 140.315 313.997 140.375ZM314.649 141.168C315.505 141.584 315.692 142.776 315.006 143.46C314.575 143.892 314.076 143.914 313.617 143.509C313.288 143.23 313.14 142.847 313.169 142.371C313.192 141.934 313.305 141.677 313.571 141.409C313.895 141.086 314.297 140.998 314.649 141.168Z" fill="white"/>
<path d="M313.997 140.375C312.948 140.534 312.205 141.671 312.403 142.809C312.539 143.558 312.959 144.121 313.594 144.4C313.866 144.521 313.963 144.537 314.371 144.515C314.91 144.488 315.199 144.368 315.562 144.012C316.594 143.022 316.322 141.113 315.069 140.539C314.677 140.359 314.394 140.315 313.997 140.375ZM314.649 141.168C315.505 141.584 315.692 142.776 315.006 143.46C314.575 143.892 314.076 143.914 313.617 143.509C313.288 143.23 313.14 142.847 313.169 142.371C313.192 141.934 313.305 141.677 313.571 141.409C313.895 141.086 314.297 140.998 314.649 141.168Z" fill="url(#paint3_linear_2485_10396)"/>
<path d="M313.715 145.785C313.25 145.921 312.734 146.424 312.53 146.944C312.422 147.223 312.393 147.387 312.399 147.781C312.405 148.393 312.547 148.782 312.915 149.176C313.312 149.602 313.596 149.739 314.157 149.766C314.565 149.788 314.662 149.772 314.934 149.651C315.348 149.471 315.683 149.137 315.898 148.694C316.068 148.355 316.08 148.284 316.08 147.753C316.08 147.223 316.068 147.152 315.898 146.813C315.552 146.107 314.979 145.73 314.265 145.735C314.049 145.735 313.8 145.757 313.715 145.785ZM314.565 146.523C314.855 146.643 315.025 146.807 315.178 147.125C315.535 147.852 315.189 148.787 314.486 149.011C313.885 149.203 313.238 148.656 313.176 147.901C313.125 147.289 313.375 146.785 313.845 146.561C314.14 146.419 314.282 146.414 314.565 146.523Z" fill="black"/>
<path d="M313.715 145.785C313.25 145.921 312.734 146.424 312.53 146.944C312.422 147.223 312.393 147.387 312.399 147.781C312.405 148.393 312.547 148.782 312.915 149.176C313.312 149.602 313.596 149.739 314.157 149.766C314.565 149.788 314.662 149.772 314.934 149.651C315.348 149.471 315.683 149.137 315.898 148.694C316.068 148.355 316.08 148.284 316.08 147.753C316.08 147.223 316.068 147.152 315.898 146.813C315.552 146.107 314.979 145.73 314.265 145.735C314.049 145.735 313.8 145.757 313.715 145.785ZM314.565 146.523C314.855 146.643 315.025 146.807 315.178 147.125C315.535 147.852 315.189 148.787 314.486 149.011C313.885 149.203 313.238 148.656 313.176 147.901C313.125 147.289 313.375 146.785 313.845 146.561C314.14 146.419 314.282 146.414 314.565 146.523Z" fill="white"/>
<path d="M313.715 145.785C313.25 145.921 312.734 146.424 312.53 146.944C312.422 147.223 312.393 147.387 312.399 147.781C312.405 148.393 312.547 148.782 312.915 149.176C313.312 149.602 313.596 149.739 314.157 149.766C314.565 149.788 314.662 149.772 314.934 149.651C315.348 149.471 315.683 149.137 315.898 148.694C316.068 148.355 316.08 148.284 316.08 147.753C316.08 147.223 316.068 147.152 315.898 146.813C315.552 146.107 314.979 145.73 314.265 145.735C314.049 145.735 313.8 145.757 313.715 145.785ZM314.565 146.523C314.855 146.643 315.025 146.807 315.178 147.125C315.535 147.852 315.189 148.787 314.486 149.011C313.885 149.203 313.238 148.656 313.176 147.901C313.125 147.289 313.375 146.785 313.845 146.561C314.14 146.419 314.282 146.414 314.565 146.523Z" fill="url(#paint4_linear_2485_10396)"/>
<path d="M321.305 5.7869C315.815 8.95908 311.279 11.5953 311.224 11.6445C311.13 11.7265 311.125 12.4321 311.125 29.4524V47.1728L311.246 47.3697C311.673 48.0807 312.507 49.0707 313.418 49.9567C315.974 52.4288 320.021 54.7204 323.301 55.5517C324.47 55.8471 324.508 55.8525 325.89 55.8525H327.207L334.896 51.4115C339.12 48.9722 343.557 46.4126 344.747 45.7235C345.937 45.0343 346.985 44.4054 347.067 44.3179C347.155 44.2358 347.243 44.0717 347.27 43.9514C347.341 43.667 347.341 9.51694 347.27 9.23254C347.243 9.11222 347.177 8.95908 347.122 8.88251C347.067 8.81141 343.617 6.78778 339.454 4.38131L331.891 0.011364L331.583 0.0168343C331.282 0.0168343 331.205 0.060585 321.305 5.7869ZM338.385 5.71033C342.098 7.85429 345.131 9.62086 345.131 9.63726C345.131 9.65368 340.941 12.0875 335.823 15.0464L326.51 20.4227L325.989 20.3898C321.793 20.1164 315.71 16.7528 312.908 13.154L312.6 12.7602L312.836 12.6235C316.796 10.3264 331.567 1.81622 331.6 1.81622C331.622 1.81622 334.677 3.56638 338.385 5.71033ZM345.586 43.2787C345.531 43.3279 327.25 53.8836 327.157 53.9219C327.102 53.9438 327.086 50.6403 327.086 37.525L327.091 21.0954L336.344 15.7519L345.597 10.4139L345.614 26.8272C345.619 35.8569 345.608 43.2568 345.586 43.2787ZM314.553 16.0965C317.005 18.142 320.071 19.8265 322.863 20.6578C323.976 20.986 324.514 21.0899 325.978 21.2649L326.208 21.2923V37.8313V54.3758L325.951 54.343C324.799 54.2118 323.916 54.0149 322.78 53.6375C318.804 52.3194 314.729 49.4918 312.858 46.7572L312.606 46.3852V33.166V19.9468L313.527 20.8493C314.597 21.9048 315.584 22.7143 316.774 23.4964C318.941 24.9348 321.201 25.9411 323.691 26.592C324.684 26.849 324.799 26.8545 324.974 26.674C325.232 26.4224 325.106 26.0396 324.744 25.9575C321.563 25.252 318.327 23.7206 315.842 21.7517C315.156 21.2048 314.098 20.2312 313.621 19.7007C313.182 19.2139 313.001 19.1046 312.765 19.1921L312.606 19.2522V16.7364V14.2205L313.335 14.9534C313.73 15.3581 314.284 15.8722 314.553 16.0965Z" fill="black"/>
<path d="M321.305 5.7869C315.815 8.95908 311.279 11.5953 311.224 11.6445C311.13 11.7265 311.125 12.4321 311.125 29.4524V47.1728L311.246 47.3697C311.673 48.0807 312.507 49.0707 313.418 49.9567C315.974 52.4288 320.021 54.7204 323.301 55.5517C324.47 55.8471 324.508 55.8525 325.89 55.8525H327.207L334.896 51.4115C339.12 48.9722 343.557 46.4126 344.747 45.7235C345.937 45.0343 346.985 44.4054 347.067 44.3179C347.155 44.2358 347.243 44.0717 347.27 43.9514C347.341 43.667 347.341 9.51694 347.27 9.23254C347.243 9.11222 347.177 8.95908 347.122 8.88251C347.067 8.81141 343.617 6.78778 339.454 4.38131L331.891 0.011364L331.583 0.0168343C331.282 0.0168343 331.205 0.060585 321.305 5.7869ZM338.385 5.71033C342.098 7.85429 345.131 9.62086 345.131 9.63726C345.131 9.65368 340.941 12.0875 335.823 15.0464L326.51 20.4227L325.989 20.3898C321.793 20.1164 315.71 16.7528 312.908 13.154L312.6 12.7602L312.836 12.6235C316.796 10.3264 331.567 1.81622 331.6 1.81622C331.622 1.81622 334.677 3.56638 338.385 5.71033ZM345.586 43.2787C345.531 43.3279 327.25 53.8836 327.157 53.9219C327.102 53.9438 327.086 50.6403 327.086 37.525L327.091 21.0954L336.344 15.7519L345.597 10.4139L345.614 26.8272C345.619 35.8569 345.608 43.2568 345.586 43.2787ZM314.553 16.0965C317.005 18.142 320.071 19.8265 322.863 20.6578C323.976 20.986 324.514 21.0899 325.978 21.2649L326.208 21.2923V37.8313V54.3758L325.951 54.343C324.799 54.2118 323.916 54.0149 322.78 53.6375C318.804 52.3194 314.729 49.4918 312.858 46.7572L312.606 46.3852V33.166V19.9468L313.527 20.8493C314.597 21.9048 315.584 22.7143 316.774 23.4964C318.941 24.9348 321.201 25.9411 323.691 26.592C324.684 26.849 324.799 26.8545 324.974 26.674C325.232 26.4224 325.106 26.0396 324.744 25.9575C321.563 25.252 318.327 23.7206 315.842 21.7517C315.156 21.2048 314.098 20.2312 313.621 19.7007C313.182 19.2139 313.001 19.1046 312.765 19.1921L312.606 19.2522V16.7364V14.2205L313.335 14.9534C313.73 15.3581 314.284 15.8722 314.553 16.0965Z" fill="white"/>
<path d="M321.305 5.7869C315.815 8.95908 311.279 11.5953 311.224 11.6445C311.13 11.7265 311.125 12.4321 311.125 29.4524V47.1728L311.246 47.3697C311.673 48.0807 312.507 49.0707 313.418 49.9567C315.974 52.4288 320.021 54.7204 323.301 55.5517C324.47 55.8471 324.508 55.8525 325.89 55.8525H327.207L334.896 51.4115C339.12 48.9722 343.557 46.4126 344.747 45.7235C345.937 45.0343 346.985 44.4054 347.067 44.3179C347.155 44.2358 347.243 44.0717 347.27 43.9514C347.341 43.667 347.341 9.51694 347.27 9.23254C347.243 9.11222 347.177 8.95908 347.122 8.88251C347.067 8.81141 343.617 6.78778 339.454 4.38131L331.891 0.011364L331.583 0.0168343C331.282 0.0168343 331.205 0.060585 321.305 5.7869ZM338.385 5.71033C342.098 7.85429 345.131 9.62086 345.131 9.63726C345.131 9.65368 340.941 12.0875 335.823 15.0464L326.51 20.4227L325.989 20.3898C321.793 20.1164 315.71 16.7528 312.908 13.154L312.6 12.7602L312.836 12.6235C316.796 10.3264 331.567 1.81622 331.6 1.81622C331.622 1.81622 334.677 3.56638 338.385 5.71033ZM345.586 43.2787C345.531 43.3279 327.25 53.8836 327.157 53.9219C327.102 53.9438 327.086 50.6403 327.086 37.525L327.091 21.0954L336.344 15.7519L345.597 10.4139L345.614 26.8272C345.619 35.8569 345.608 43.2568 345.586 43.2787ZM314.553 16.0965C317.005 18.142 320.071 19.8265 322.863 20.6578C323.976 20.986 324.514 21.0899 325.978 21.2649L326.208 21.2923V37.8313V54.3758L325.951 54.343C324.799 54.2118 323.916 54.0149 322.78 53.6375C318.804 52.3194 314.729 49.4918 312.858 46.7572L312.606 46.3852V33.166V19.9468L313.527 20.8493C314.597 21.9048 315.584 22.7143 316.774 23.4964C318.941 24.9348 321.201 25.9411 323.691 26.592C324.684 26.849 324.799 26.8545 324.974 26.674C325.232 26.4224 325.106 26.0396 324.744 25.9575C321.563 25.252 318.327 23.7206 315.842 21.7517C315.156 21.2048 314.098 20.2312 313.621 19.7007C313.182 19.2139 313.001 19.1046 312.765 19.1921L312.606 19.2522V16.7364V14.2205L313.335 14.9534C313.73 15.3581 314.284 15.8722 314.553 16.0965Z" fill="url(#paint5_linear_2485_10396)"/>
<path d="M312.836 23.38C312.759 23.462 312.715 23.5769 312.715 23.7026C312.715 23.8722 312.781 23.9652 313.307 24.5121C316.143 27.4874 319.955 29.6915 324.063 30.7197C324.48 30.8236 324.875 30.9111 324.941 30.9111C325.116 30.9111 325.33 30.6705 325.33 30.4845C325.33 30.1837 325.204 30.1072 324.288 29.8774C321.03 29.0571 317.882 27.4327 315.402 25.2942C315.084 25.0207 314.486 24.4519 314.064 24.0253C313.4 23.3526 313.285 23.2542 313.132 23.2542C313.017 23.2542 312.912 23.2979 312.836 23.38Z" fill="black"/>
<path d="M312.836 23.38C312.759 23.462 312.715 23.5769 312.715 23.7026C312.715 23.8722 312.781 23.9652 313.307 24.5121C316.143 27.4874 319.955 29.6915 324.063 30.7197C324.48 30.8236 324.875 30.9111 324.941 30.9111C325.116 30.9111 325.33 30.6705 325.33 30.4845C325.33 30.1837 325.204 30.1072 324.288 29.8774C321.03 29.0571 317.882 27.4327 315.402 25.2942C315.084 25.0207 314.486 24.4519 314.064 24.0253C313.4 23.3526 313.285 23.2542 313.132 23.2542C313.017 23.2542 312.912 23.2979 312.836 23.38Z" fill="white"/>
<path d="M312.836 23.38C312.759 23.462 312.715 23.5769 312.715 23.7026C312.715 23.8722 312.781 23.9652 313.307 24.5121C316.143 27.4874 319.955 29.6915 324.063 30.7197C324.48 30.8236 324.875 30.9111 324.941 30.9111C325.116 30.9111 325.33 30.6705 325.33 30.4845C325.33 30.1837 325.204 30.1072 324.288 29.8774C321.03 29.0571 317.882 27.4327 315.402 25.2942C315.084 25.0207 314.486 24.4519 314.064 24.0253C313.4 23.3526 313.285 23.2542 313.132 23.2542C313.017 23.2542 312.912 23.2979 312.836 23.38Z" fill="url(#paint6_linear_2485_10396)"/>
<path d="M314.787 35.2392C313.773 35.3978 313.054 36.5354 313.246 37.6731C313.378 38.4223 313.783 38.9857 314.398 39.2646C314.661 39.3849 314.754 39.4013 315.149 39.3795C315.67 39.3521 315.95 39.2318 316.301 38.8763C317.299 37.8864 317.036 35.9776 315.824 35.4033C315.445 35.2228 315.171 35.1791 314.787 35.2392ZM315.418 36.0323C316.246 36.4479 316.427 37.6402 315.764 38.3239C315.347 38.756 314.864 38.7778 314.42 38.3731C314.102 38.0942 313.959 37.7113 313.986 37.2355C314.008 36.798 314.118 36.5409 314.376 36.2729C314.688 35.9502 315.078 35.8627 315.418 36.0323Z" fill="black"/>
<path d="M314.787 35.2392C313.773 35.3978 313.054 36.5354 313.246 37.6731C313.378 38.4223 313.783 38.9857 314.398 39.2646C314.661 39.3849 314.754 39.4013 315.149 39.3795C315.67 39.3521 315.95 39.2318 316.301 38.8763C317.299 37.8864 317.036 35.9776 315.824 35.4033C315.445 35.2228 315.171 35.1791 314.787 35.2392ZM315.418 36.0323C316.246 36.4479 316.427 37.6402 315.764 38.3239C315.347 38.756 314.864 38.7778 314.42 38.3731C314.102 38.0942 313.959 37.7113 313.986 37.2355C314.008 36.798 314.118 36.5409 314.376 36.2729C314.688 35.9502 315.078 35.8627 315.418 36.0323Z" fill="white"/>
<path d="M314.787 35.2392C313.773 35.3978 313.054 36.5354 313.246 37.6731C313.378 38.4223 313.783 38.9857 314.398 39.2646C314.661 39.3849 314.754 39.4013 315.149 39.3795C315.67 39.3521 315.95 39.2318 316.301 38.8763C317.299 37.8864 317.036 35.9776 315.824 35.4033C315.445 35.2228 315.171 35.1791 314.787 35.2392ZM315.418 36.0323C316.246 36.4479 316.427 37.6402 315.764 38.3239C315.347 38.756 314.864 38.7778 314.42 38.3731C314.102 38.0942 313.959 37.7113 313.986 37.2355C314.008 36.798 314.118 36.5409 314.376 36.2729C314.688 35.9502 315.078 35.8627 315.418 36.0323Z" fill="url(#paint7_linear_2485_10396)"/>
<path d="M314.515 40.6488C314.066 40.7856 313.566 41.2887 313.369 41.8083C313.265 42.0872 313.237 42.2513 313.243 42.6451C313.248 43.2577 313.385 43.646 313.742 44.0398C314.126 44.4664 314.4 44.6031 314.943 44.6304C315.338 44.6523 315.431 44.6359 315.695 44.5156C316.095 44.3351 316.419 44.0015 316.627 43.5585C316.792 43.2194 316.803 43.1483 316.803 42.6178C316.803 42.0872 316.792 42.0161 316.627 41.677C316.292 40.9715 315.738 40.5941 315.047 40.5996C314.839 40.5996 314.598 40.6215 314.515 40.6488ZM315.338 41.3872C315.618 41.5075 315.782 41.6716 315.93 41.9888C316.276 42.7162 315.941 43.6514 315.261 43.8757C314.68 44.0671 314.055 43.5202 313.994 42.7654C313.945 42.1529 314.186 41.6497 314.641 41.4255C314.927 41.2833 315.064 41.2778 315.338 41.3872Z" fill="black"/>
<path d="M314.515 40.6488C314.066 40.7856 313.566 41.2887 313.369 41.8083C313.265 42.0872 313.237 42.2513 313.243 42.6451C313.248 43.2577 313.385 43.646 313.742 44.0398C314.126 44.4664 314.4 44.6031 314.943 44.6304C315.338 44.6523 315.431 44.6359 315.695 44.5156C316.095 44.3351 316.419 44.0015 316.627 43.5585C316.792 43.2194 316.803 43.1483 316.803 42.6178C316.803 42.0872 316.792 42.0161 316.627 41.677C316.292 40.9715 315.738 40.5941 315.047 40.5996C314.839 40.5996 314.598 40.6215 314.515 40.6488ZM315.338 41.3872C315.618 41.5075 315.782 41.6716 315.93 41.9888C316.276 42.7162 315.941 43.6514 315.261 43.8757C314.68 44.0671 314.055 43.5202 313.994 42.7654C313.945 42.1529 314.186 41.6497 314.641 41.4255C314.927 41.2833 315.064 41.2778 315.338 41.3872Z" fill="white"/>
<path d="M314.515 40.6488C314.066 40.7856 313.566 41.2887 313.369 41.8083C313.265 42.0872 313.237 42.2513 313.243 42.6451C313.248 43.2577 313.385 43.646 313.742 44.0398C314.126 44.4664 314.4 44.6031 314.943 44.6304C315.338 44.6523 315.431 44.6359 315.695 44.5156C316.095 44.3351 316.419 44.0015 316.627 43.5585C316.792 43.2194 316.803 43.1483 316.803 42.6178C316.803 42.0872 316.792 42.0161 316.627 41.677C316.292 40.9715 315.738 40.5941 315.047 40.5996C314.839 40.5996 314.598 40.6215 314.515 40.6488ZM315.338 41.3872C315.618 41.5075 315.782 41.6716 315.93 41.9888C316.276 42.7162 315.941 43.6514 315.261 43.8757C314.68 44.0671 314.055 43.5202 313.994 42.7654C313.945 42.1529 314.186 41.6497 314.641 41.4255C314.927 41.2833 315.064 41.2778 315.338 41.3872Z" fill="url(#paint8_linear_2485_10396)"/>
<path d="M289.176 36.2742C290.432 38.9385 293.61 40.0802 296.274 38.8241C298.939 37.5681 300.08 34.3901 298.824 31.7258C297.568 29.0615 294.39 27.9198 291.726 29.1759C289.061 30.4319 287.92 33.6099 289.176 36.2742ZM224.426 67.9045L228.801 65.842L227.949 64.033L223.574 66.0955L224.426 67.9045ZM237.551 61.717L246.301 57.592L245.449 55.783L236.699 59.908L237.551 61.717ZM255.051 53.467L263.801 49.342L262.949 47.533L254.199 51.658L255.051 53.467ZM272.551 45.217L281.301 41.092L280.449 39.283L271.699 43.408L272.551 45.217ZM290.051 36.967L294.426 34.9045L293.574 33.0955L289.199 35.158L290.051 36.967ZM289.176 36.2742C290.432 38.9385 293.61 40.0802 296.274 38.8241C298.939 37.5681 300.08 34.3901 298.824 31.7258C297.568 29.0615 294.39 27.9198 291.726 29.1759C289.061 30.4319 287.92 33.6099 289.176 36.2742ZM224.426 67.9045L228.801 65.842L227.949 64.033L223.574 66.0955L224.426 67.9045ZM237.551 61.717L246.301 57.592L245.449 55.783L236.699 59.908L237.551 61.717ZM255.051 53.467L263.801 49.342L262.949 47.533L254.199 51.658L255.051 53.467ZM272.551 45.217L281.301 41.092L280.449 39.283L271.699 43.408L272.551 45.217ZM290.051 36.967L294.426 34.9045L293.574 33.0955L289.199 35.158L290.051 36.967Z" fill="url(#paint9_linear_2485_10396)"/>
<path d="M289.176 36.2742C290.432 38.9385 293.61 40.0802 296.274 38.8241C298.939 37.5681 300.08 34.3901 298.824 31.7258C297.568 29.0615 294.39 27.9198 291.726 29.1759C289.061 30.4319 287.92 33.6099 289.176 36.2742ZM224.426 67.9045L228.801 65.842L227.949 64.033L223.574 66.0955L224.426 67.9045ZM237.551 61.717L246.301 57.592L245.449 55.783L236.699 59.908L237.551 61.717ZM255.051 53.467L263.801 49.342L262.949 47.533L254.199 51.658L255.051 53.467ZM272.551 45.217L281.301 41.092L280.449 39.283L271.699 43.408L272.551 45.217ZM290.051 36.967L294.426 34.9045L293.574 33.0955L289.199 35.158L290.051 36.967ZM289.176 36.2742C290.432 38.9385 293.61 40.0802 296.274 38.8241C298.939 37.5681 300.08 34.3901 298.824 31.7258C297.568 29.0615 294.39 27.9198 291.726 29.1759C289.061 30.4319 287.92 33.6099 289.176 36.2742ZM224.426 67.9045L228.801 65.842L227.949 64.033L223.574 66.0955L224.426 67.9045ZM237.551 61.717L246.301 57.592L245.449 55.783L236.699 59.908L237.551 61.717ZM255.051 53.467L263.801 49.342L262.949 47.533L254.199 51.658L255.051 53.467ZM272.551 45.217L281.301 41.092L280.449 39.283L271.699 43.408L272.551 45.217ZM290.051 36.967L294.426 34.9045L293.574 33.0955L289.199 35.158L290.051 36.967Z" fill="white" fill-opacity="0.15"/>
<path d="M283.783 128.735C281.98 131.064 282.406 134.414 284.735 136.217C287.064 138.02 290.414 137.594 292.217 135.265C294.02 132.936 293.594 129.586 291.265 127.783C288.936 125.98 285.586 126.406 283.783 128.735ZM225.388 84.7907L229.263 87.7907L230.487 86.2093L226.612 83.2093L225.388 84.7907ZM237.013 93.7907L244.763 99.7907L245.987 98.2093L238.237 92.2093L237.013 93.7907ZM252.513 105.791L260.263 111.791L261.487 110.209L253.737 104.209L252.513 105.791ZM268.013 117.791L275.763 123.791L276.987 122.209L269.237 116.209L268.013 117.791ZM283.513 129.791L287.388 132.791L288.612 131.209L284.737 128.209L283.513 129.791ZM283.783 128.735C281.98 131.064 282.406 134.414 284.735 136.217C287.064 138.02 290.414 137.594 292.217 135.265C294.02 132.936 293.594 129.586 291.265 127.783C288.936 125.98 285.586 126.406 283.783 128.735ZM225.388 84.7907L229.263 87.7907L230.487 86.2093L226.612 83.2093L225.388 84.7907ZM237.013 93.7907L244.763 99.7907L245.987 98.2093L238.237 92.2093L237.013 93.7907ZM252.513 105.791L260.263 111.791L261.487 110.209L253.737 104.209L252.513 105.791ZM268.013 117.791L275.763 123.791L276.987 122.209L269.237 116.209L268.013 117.791ZM283.513 129.791L287.388 132.791L288.612 131.209L284.737 128.209L283.513 129.791Z" fill="url(#paint10_linear_2485_10396)"/>
<path d="M283.783 128.735C281.98 131.064 282.406 134.414 284.735 136.217C287.064 138.02 290.414 137.594 292.217 135.265C294.02 132.936 293.594 129.586 291.265 127.783C288.936 125.98 285.586 126.406 283.783 128.735ZM225.388 84.7907L229.263 87.7907L230.487 86.2093L226.612 83.2093L225.388 84.7907ZM237.013 93.7907L244.763 99.7907L245.987 98.2093L238.237 92.2093L237.013 93.7907ZM252.513 105.791L260.263 111.791L261.487 110.209L253.737 104.209L252.513 105.791ZM268.013 117.791L275.763 123.791L276.987 122.209L269.237 116.209L268.013 117.791ZM283.513 129.791L287.388 132.791L288.612 131.209L284.737 128.209L283.513 129.791ZM283.783 128.735C281.98 131.064 282.406 134.414 284.735 136.217C287.064 138.02 290.414 137.594 292.217 135.265C294.02 132.936 293.594 129.586 291.265 127.783C288.936 125.98 285.586 126.406 283.783 128.735ZM225.388 84.7907L229.263 87.7907L230.487 86.2093L226.612 83.2093L225.388 84.7907ZM237.013 93.7907L244.763 99.7907L245.987 98.2093L238.237 92.2093L237.013 93.7907ZM252.513 105.791L260.263 111.791L261.487 110.209L253.737 104.209L252.513 105.791ZM268.013 117.791L275.763 123.791L276.987 122.209L269.237 116.209L268.013 117.791ZM283.513 129.791L287.388 132.791L288.612 131.209L284.737 128.209L283.513 129.791Z" fill="white" fill-opacity="0.15"/>
<defs>
<linearGradient id="paint0_linear_2485_10396" x1="1.53864" y1="76.5" x2="219" y2="76.5004" gradientUnits="userSpaceOnUse">
<stop stop-color="#3793AE"/>
<stop offset="1" stop-color="#074287"/>
</linearGradient>
<linearGradient id="paint1_linear_2485_10396" x1="310.474" y1="133.068" x2="347.638" y2="133.068" gradientUnits="userSpaceOnUse">
<stop stop-color="#3793AE"/>
<stop offset="1" stop-color="#074287"/>
</linearGradient>
<linearGradient id="paint2_linear_2485_10396" x1="311.947" y1="132.218" x2="324.899" y2="132.218" gradientUnits="userSpaceOnUse">
<stop stop-color="#3793AE"/>
<stop offset="1" stop-color="#074287"/>
</linearGradient>
<linearGradient id="paint3_linear_2485_10396" x1="312.398" y1="142.437" x2="316.196" y2="142.437" gradientUnits="userSpaceOnUse">
<stop stop-color="#3793AE"/>
<stop offset="1" stop-color="#074287"/>
</linearGradient>
<linearGradient id="paint4_linear_2485_10396" x1="312.424" y1="147.755" x2="316.08" y2="147.755" gradientUnits="userSpaceOnUse">
<stop stop-color="#3793AE"/>
<stop offset="1" stop-color="#074287"/>
</linearGradient>
<linearGradient id="paint5_linear_2485_10396" x1="311.379" y1="27.932" x2="347.324" y2="27.932" gradientUnits="userSpaceOnUse">
<stop stop-color="#3793AE"/>
<stop offset="1" stop-color="#074287"/>
</linearGradient>
<linearGradient id="paint6_linear_2485_10396" x1="312.803" y1="27.0826" x2="325.33" y2="27.0826" gradientUnits="userSpaceOnUse">
<stop stop-color="#3793AE"/>
<stop offset="1" stop-color="#074287"/>
</linearGradient>
<linearGradient id="paint7_linear_2485_10396" x1="313.241" y1="37.3008" x2="316.914" y2="37.3008" gradientUnits="userSpaceOnUse">
<stop stop-color="#3793AE"/>
<stop offset="1" stop-color="#074287"/>
</linearGradient>
<linearGradient id="paint8_linear_2485_10396" x1="313.267" y1="42.6191" x2="316.803" y2="42.6191" gradientUnits="userSpaceOnUse">
<stop stop-color="#3793AE"/>
<stop offset="1" stop-color="#074287"/>
</linearGradient>
<linearGradient id="paint9_linear_2485_10396" x1="224.705" y1="67.2204" x2="294.213" y2="34.4523" gradientUnits="userSpaceOnUse">
<stop stop-color="#3793AE"/>
<stop offset="1" stop-color="#074287"/>
</linearGradient>
<linearGradient id="paint10_linear_2485_10396" x1="226.13" y1="84.7326" x2="287.694" y2="132.395" gradientUnits="userSpaceOnUse">
<stop stop-color="#3793AE"/>
<stop offset="1" stop-color="#074287"/>
</linearGradient>
</defs>
</svg>
