<svg width="128" height="161" viewBox="0 0 128 161" fill="none" xmlns="http://www.w3.org/2000/svg">
<g clip-path="url(#clip0_3081_3179)">
<path d="M96.7362 110.923C91.0596 114.095 86.3697 116.731 86.313 116.78C86.2166 116.862 86.2109 117.568 86.2109 134.588V152.309L86.3357 152.505C86.778 153.216 87.64 154.206 88.5814 155.092C91.224 157.565 95.4092 159.856 98.8004 160.687C100.008 160.983 100.048 160.988 101.477 160.988H102.838L110.789 156.547C115.155 154.108 119.743 151.548 120.974 150.859C122.204 150.17 123.287 149.541 123.372 149.454C123.463 149.372 123.554 149.207 123.582 149.087C123.656 148.803 123.656 114.653 123.582 114.368C123.554 114.248 123.486 114.095 123.429 114.018C123.372 113.947 119.805 111.924 115.501 109.517L107.681 105.147L107.363 105.153C107.052 105.153 106.972 105.196 96.7362 110.923ZM114.395 110.846C118.235 112.99 121.371 114.757 121.371 114.773C121.371 114.789 117.038 117.223 111.747 120.182L102.118 125.558L101.579 125.526C97.2409 125.252 90.9518 121.889 88.054 118.29L87.7364 117.896L87.9803 117.759C92.0747 115.462 107.346 106.952 107.38 106.952C107.403 106.952 110.562 108.702 114.395 110.846ZM121.841 148.414C121.785 148.464 102.883 159.019 102.787 159.058C102.73 159.08 102.713 155.776 102.713 142.661L102.719 126.231L112.286 120.888L121.853 115.55L121.87 131.963C121.875 140.993 121.864 148.393 121.841 148.414ZM89.7553 121.232C92.2902 123.278 95.4602 124.962 98.3467 125.794C99.4979 126.122 100.054 126.226 101.568 126.401L101.806 126.428V142.967V159.512L101.539 159.479C100.349 159.348 99.4355 159.151 98.2616 158.773C94.1502 157.455 89.9367 154.628 88.0029 151.893L87.7421 151.521V138.302V125.083L88.6948 125.985C89.8006 127.041 90.8214 127.85 92.052 128.632C94.292 130.071 96.6284 131.077 99.203 131.728C100.229 131.985 100.349 131.99 100.53 131.81C100.797 131.558 100.666 131.175 100.292 131.093C97.0027 130.388 93.6568 128.856 91.0879 126.887C90.3791 126.34 89.2846 125.367 88.7912 124.836C88.3375 124.35 88.1504 124.24 87.9065 124.328L87.7421 124.388V121.872V119.356L88.4963 120.089C88.9046 120.494 89.4774 121.008 89.7553 121.232Z" fill="black"/>
<path d="M96.7362 110.923C91.0596 114.095 86.3697 116.731 86.313 116.78C86.2166 116.862 86.2109 117.568 86.2109 134.588V152.309L86.3357 152.505C86.778 153.216 87.64 154.206 88.5814 155.092C91.224 157.565 95.4092 159.856 98.8004 160.687C100.008 160.983 100.048 160.988 101.477 160.988H102.838L110.789 156.547C115.155 154.108 119.743 151.548 120.974 150.859C122.204 150.17 123.287 149.541 123.372 149.454C123.463 149.372 123.554 149.207 123.582 149.087C123.656 148.803 123.656 114.653 123.582 114.368C123.554 114.248 123.486 114.095 123.429 114.018C123.372 113.947 119.805 111.924 115.501 109.517L107.681 105.147L107.363 105.153C107.052 105.153 106.972 105.196 96.7362 110.923ZM114.395 110.846C118.235 112.99 121.371 114.757 121.371 114.773C121.371 114.789 117.038 117.223 111.747 120.182L102.118 125.558L101.579 125.526C97.2409 125.252 90.9518 121.889 88.054 118.29L87.7364 117.896L87.9803 117.759C92.0747 115.462 107.346 106.952 107.38 106.952C107.403 106.952 110.562 108.702 114.395 110.846ZM121.841 148.414C121.785 148.464 102.883 159.019 102.787 159.058C102.73 159.08 102.713 155.776 102.713 142.661L102.719 126.231L112.286 120.888L121.853 115.55L121.87 131.963C121.875 140.993 121.864 148.393 121.841 148.414ZM89.7553 121.232C92.2902 123.278 95.4602 124.962 98.3467 125.794C99.4979 126.122 100.054 126.226 101.568 126.401L101.806 126.428V142.967V159.512L101.539 159.479C100.349 159.348 99.4355 159.151 98.2616 158.773C94.1502 157.455 89.9367 154.628 88.0029 151.893L87.7421 151.521V138.302V125.083L88.6948 125.985C89.8006 127.041 90.8214 127.85 92.052 128.632C94.292 130.071 96.6284 131.077 99.203 131.728C100.229 131.985 100.349 131.99 100.53 131.81C100.797 131.558 100.666 131.175 100.292 131.093C97.0027 130.388 93.6568 128.856 91.0879 126.887C90.3791 126.34 89.2846 125.367 88.7912 124.836C88.3375 124.35 88.1504 124.24 87.9065 124.328L87.7421 124.388V121.872V119.356L88.4963 120.089C88.9046 120.494 89.4774 121.008 89.7553 121.232Z" fill="white"/>
<path d="M96.7362 110.923C91.0596 114.095 86.3697 116.731 86.313 116.78C86.2166 116.862 86.2109 117.568 86.2109 134.588V152.309L86.3357 152.505C86.778 153.216 87.64 154.206 88.5814 155.092C91.224 157.565 95.4092 159.856 98.8004 160.687C100.008 160.983 100.048 160.988 101.477 160.988H102.838L110.789 156.547C115.155 154.108 119.743 151.548 120.974 150.859C122.204 150.17 123.287 149.541 123.372 149.454C123.463 149.372 123.554 149.207 123.582 149.087C123.656 148.803 123.656 114.653 123.582 114.368C123.554 114.248 123.486 114.095 123.429 114.018C123.372 113.947 119.805 111.924 115.501 109.517L107.681 105.147L107.363 105.153C107.052 105.153 106.972 105.196 96.7362 110.923ZM114.395 110.846C118.235 112.99 121.371 114.757 121.371 114.773C121.371 114.789 117.038 117.223 111.747 120.182L102.118 125.558L101.579 125.526C97.2409 125.252 90.9518 121.889 88.054 118.29L87.7364 117.896L87.9803 117.759C92.0747 115.462 107.346 106.952 107.38 106.952C107.403 106.952 110.562 108.702 114.395 110.846ZM121.841 148.414C121.785 148.464 102.883 159.019 102.787 159.058C102.73 159.08 102.713 155.776 102.713 142.661L102.719 126.231L112.286 120.888L121.853 115.55L121.87 131.963C121.875 140.993 121.864 148.393 121.841 148.414ZM89.7553 121.232C92.2902 123.278 95.4602 124.962 98.3467 125.794C99.4979 126.122 100.054 126.226 101.568 126.401L101.806 126.428V142.967V159.512L101.539 159.479C100.349 159.348 99.4355 159.151 98.2616 158.773C94.1502 157.455 89.9367 154.628 88.0029 151.893L87.7421 151.521V138.302V125.083L88.6948 125.985C89.8006 127.041 90.8214 127.85 92.052 128.632C94.292 130.071 96.6284 131.077 99.203 131.728C100.229 131.985 100.349 131.99 100.53 131.81C100.797 131.558 100.666 131.175 100.292 131.093C97.0027 130.388 93.6568 128.856 91.0879 126.887C90.3791 126.34 89.2846 125.367 88.7912 124.836C88.3375 124.35 88.1504 124.24 87.9065 124.328L87.7421 124.388V121.872V119.356L88.4963 120.089C88.9046 120.494 89.4774 121.008 89.7553 121.232Z" fill="url(#paint0_linear_3081_3179)"/>
<path d="M87.9802 128.516C87.9008 128.598 87.8555 128.713 87.8555 128.838C87.8555 129.008 87.9235 129.101 88.4679 129.648C91.3998 132.623 95.3411 134.827 99.5886 135.855C100.02 135.959 100.428 136.047 100.496 136.047C100.677 136.047 100.899 135.806 100.899 135.62C100.899 135.319 100.768 135.243 99.8211 135.013C96.4526 134.193 93.1975 132.568 90.6342 130.43C90.3053 130.156 89.6872 129.588 89.2505 129.161C88.5643 128.488 88.4452 128.39 88.2865 128.39C88.1674 128.39 88.0596 128.434 87.9802 128.516Z" fill="black"/>
<path d="M87.9802 128.516C87.9008 128.598 87.8555 128.713 87.8555 128.838C87.8555 129.008 87.9235 129.101 88.4679 129.648C91.3998 132.623 95.3411 134.827 99.5886 135.855C100.02 135.959 100.428 136.047 100.496 136.047C100.677 136.047 100.899 135.806 100.899 135.62C100.899 135.319 100.768 135.243 99.8211 135.013C96.4526 134.193 93.1975 132.568 90.6342 130.43C90.3053 130.156 89.6872 129.588 89.2505 129.161C88.5643 128.488 88.4452 128.39 88.2865 128.39C88.1674 128.39 88.0596 128.434 87.9802 128.516Z" fill="white"/>
<path d="M87.9802 128.516C87.9008 128.598 87.8555 128.713 87.8555 128.838C87.8555 129.008 87.9235 129.101 88.4679 129.648C91.3998 132.623 95.3411 134.827 99.5886 135.855C100.02 135.959 100.428 136.047 100.496 136.047C100.677 136.047 100.899 135.806 100.899 135.62C100.899 135.319 100.768 135.243 99.8211 135.013C96.4526 134.193 93.1975 132.568 90.6342 130.43C90.3053 130.156 89.6872 129.588 89.2505 129.161C88.5643 128.488 88.4452 128.39 88.2865 128.39C88.1674 128.39 88.0596 128.434 87.9802 128.516Z" fill="url(#paint1_linear_3081_3179)"/>
<path d="M89.9968 140.375C88.9477 140.534 88.2048 141.671 88.4033 142.809C88.5394 143.558 88.959 144.121 89.5942 144.4C89.8664 144.521 89.9628 144.537 90.3711 144.515C90.9098 144.488 91.199 144.368 91.562 144.012C92.5941 143.022 92.3219 141.113 91.0686 140.539C90.6773 140.359 90.3938 140.315 89.9968 140.375ZM90.6489 141.168C91.5053 141.584 91.6924 142.776 91.0062 143.46C90.5752 143.892 90.0762 143.914 89.6168 143.509C89.2879 143.23 89.1405 142.847 89.1688 142.371C89.1915 141.934 89.3049 141.677 89.5715 141.409C89.8947 141.086 90.2974 140.998 90.6489 141.168Z" fill="black"/>
<path d="M89.9968 140.375C88.9477 140.534 88.2048 141.671 88.4033 142.809C88.5394 143.558 88.959 144.121 89.5942 144.4C89.8664 144.521 89.9628 144.537 90.3711 144.515C90.9098 144.488 91.199 144.368 91.562 144.012C92.5941 143.022 92.3219 141.113 91.0686 140.539C90.6773 140.359 90.3938 140.315 89.9968 140.375ZM90.6489 141.168C91.5053 141.584 91.6924 142.776 91.0062 143.46C90.5752 143.892 90.0762 143.914 89.6168 143.509C89.2879 143.23 89.1405 142.847 89.1688 142.371C89.1915 141.934 89.3049 141.677 89.5715 141.409C89.8947 141.086 90.2974 140.998 90.6489 141.168Z" fill="white"/>
<path d="M89.9968 140.375C88.9477 140.534 88.2048 141.671 88.4033 142.809C88.5394 143.558 88.959 144.121 89.5942 144.4C89.8664 144.521 89.9628 144.537 90.3711 144.515C90.9098 144.488 91.199 144.368 91.562 144.012C92.5941 143.022 92.3219 141.113 91.0686 140.539C90.6773 140.359 90.3938 140.315 89.9968 140.375ZM90.6489 141.168C91.5053 141.584 91.6924 142.776 91.0062 143.46C90.5752 143.892 90.0762 143.914 89.6168 143.509C89.2879 143.23 89.1405 142.847 89.1688 142.371C89.1915 141.934 89.3049 141.677 89.5715 141.409C89.8947 141.086 90.2974 140.998 90.6489 141.168Z" fill="url(#paint2_linear_3081_3179)"/>
<path d="M89.7148 145.785C89.2498 145.921 88.7337 146.424 88.5296 146.944C88.4218 147.223 88.3935 147.387 88.3991 147.781C88.4048 148.393 88.5466 148.782 88.9152 149.176C89.3121 149.602 89.5957 149.739 90.1571 149.766C90.5654 149.788 90.6618 149.772 90.934 149.651C91.348 149.471 91.6826 149.137 91.8981 148.694C92.0682 148.355 92.0795 148.284 92.0795 147.753C92.0795 147.223 92.0682 147.152 91.8981 146.813C91.5521 146.107 90.9794 145.73 90.2649 145.735C90.0494 145.735 89.7998 145.757 89.7148 145.785ZM90.5654 146.523C90.8546 146.643 91.0248 146.807 91.1779 147.125C91.5351 147.852 91.1892 148.787 90.486 149.011C89.8849 149.203 89.2384 148.656 89.176 147.901C89.125 147.289 89.3745 146.785 89.8452 146.561C90.1401 146.419 90.2819 146.414 90.5654 146.523Z" fill="black"/>
<path d="M89.7148 145.785C89.2498 145.921 88.7337 146.424 88.5296 146.944C88.4218 147.223 88.3935 147.387 88.3991 147.781C88.4048 148.393 88.5466 148.782 88.9152 149.176C89.3121 149.602 89.5957 149.739 90.1571 149.766C90.5654 149.788 90.6618 149.772 90.934 149.651C91.348 149.471 91.6826 149.137 91.8981 148.694C92.0682 148.355 92.0795 148.284 92.0795 147.753C92.0795 147.223 92.0682 147.152 91.8981 146.813C91.5521 146.107 90.9794 145.73 90.2649 145.735C90.0494 145.735 89.7998 145.757 89.7148 145.785ZM90.5654 146.523C90.8546 146.643 91.0248 146.807 91.1779 147.125C91.5351 147.852 91.1892 148.787 90.486 149.011C89.8849 149.203 89.2384 148.656 89.176 147.901C89.125 147.289 89.3745 146.785 89.8452 146.561C90.1401 146.419 90.2819 146.414 90.5654 146.523Z" fill="white"/>
<path d="M89.7148 145.785C89.2498 145.921 88.7337 146.424 88.5296 146.944C88.4218 147.223 88.3935 147.387 88.3991 147.781C88.4048 148.393 88.5466 148.782 88.9152 149.176C89.3121 149.602 89.5957 149.739 90.1571 149.766C90.5654 149.788 90.6618 149.772 90.934 149.651C91.348 149.471 91.6826 149.137 91.8981 148.694C92.0682 148.355 92.0795 148.284 92.0795 147.753C92.0795 147.223 92.0682 147.152 91.8981 146.813C91.5521 146.107 90.9794 145.73 90.2649 145.735C90.0494 145.735 89.7998 145.757 89.7148 145.785ZM90.5654 146.523C90.8546 146.643 91.0248 146.807 91.1779 147.125C91.5351 147.852 91.1892 148.787 90.486 149.011C89.8849 149.203 89.2384 148.656 89.176 147.901C89.125 147.289 89.3745 146.785 89.8452 146.561C90.1401 146.419 90.2819 146.414 90.5654 146.523Z" fill="url(#paint3_linear_3081_3179)"/>
<g opacity="0.42">
<g opacity="0.25" filter="url(#filter0_d_3081_3179)">
<ellipse cx="105.381" cy="28.0115" rx="48.3807" ry="47.0115" fill="white"/>
</g>
<g opacity="0.73" filter="url(#filter1_d_3081_3179)">
<ellipse cx="105.88" cy="27.9221" rx="33.3412" ry="31.6975" fill="white"/>
</g>
<g opacity="0.41" filter="url(#filter2_d_3081_3179)">
<ellipse cx="105.606" cy="28.0551" rx="22.0903" ry="21.307" fill="white"/>
</g>
</g>
<path d="M97.3049 5.7869C91.8145 8.95908 87.2786 11.5953 87.2237 11.6445C87.1305 11.7265 87.125 12.4321 87.125 29.4524V47.1728L87.2457 47.3697C87.6735 48.0807 88.5072 49.0707 89.4177 49.9567C91.9736 52.4288 96.0214 54.7204 99.3014 55.5517C100.47 55.8471 100.508 55.8525 101.89 55.8525H103.207L110.896 51.4115C115.12 48.9722 119.557 46.4126 120.747 45.7235C121.937 45.0343 122.985 44.4054 123.067 44.3179C123.155 44.2358 123.243 44.0717 123.27 43.9514C123.341 43.667 123.341 9.51694 123.27 9.23254C123.243 9.11222 123.177 8.95908 123.122 8.88251C123.067 8.81141 119.617 6.78778 115.454 4.38131L107.891 0.011364L107.583 0.0168343C107.282 0.0168343 107.205 0.060585 97.3049 5.7869ZM114.385 5.71033C118.098 7.85429 121.131 9.62086 121.131 9.63726C121.131 9.65368 116.941 12.0875 111.823 15.0464L102.51 20.4227L101.989 20.3898C97.793 20.1164 91.7103 16.7528 88.9076 13.154L88.6004 12.7602L88.8363 12.6235C92.7963 10.3264 107.567 1.81622 107.6 1.81622C107.622 1.81622 110.677 3.56638 114.385 5.71033ZM121.586 43.2787C121.531 43.3279 103.25 53.8836 103.157 53.9219C103.102 53.9438 103.086 50.6403 103.086 37.525L103.091 21.0954L112.344 15.7519L121.597 10.4139L121.614 26.8272C121.619 35.8569 121.608 43.2568 121.586 43.2787ZM90.553 16.0965C93.0048 18.142 96.0708 19.8265 98.8626 20.6578C99.976 20.986 100.514 21.0899 101.978 21.2649L102.208 21.2923V37.8313V54.3758L101.951 54.343C100.799 54.2118 99.9157 54.0149 98.7803 53.6375C94.8038 52.3194 90.7285 49.4918 88.8582 46.7572L88.6059 46.3852V33.166V19.9468L89.5274 20.8493C90.5969 21.9048 91.5842 22.7143 92.7744 23.4964C94.9409 24.9348 97.2007 25.9411 99.6908 26.592C100.684 26.849 100.799 26.8545 100.974 26.674C101.232 26.4224 101.106 26.0396 100.744 25.9575C97.5627 25.252 94.3266 23.7206 91.842 21.7517C91.1564 21.2048 90.0978 20.2312 89.6206 19.7007C89.1818 19.2139 89.0008 19.1046 88.765 19.1921L88.6059 19.2522V16.7364V14.2205L89.3354 14.9534C89.7303 15.3581 90.2843 15.8722 90.553 16.0965Z" fill="black"/>
<path d="M97.3049 5.7869C91.8145 8.95908 87.2786 11.5953 87.2237 11.6445C87.1305 11.7265 87.125 12.4321 87.125 29.4524V47.1728L87.2457 47.3697C87.6735 48.0807 88.5072 49.0707 89.4177 49.9567C91.9736 52.4288 96.0214 54.7204 99.3014 55.5517C100.47 55.8471 100.508 55.8525 101.89 55.8525H103.207L110.896 51.4115C115.12 48.9722 119.557 46.4126 120.747 45.7235C121.937 45.0343 122.985 44.4054 123.067 44.3179C123.155 44.2358 123.243 44.0717 123.27 43.9514C123.341 43.667 123.341 9.51694 123.27 9.23254C123.243 9.11222 123.177 8.95908 123.122 8.88251C123.067 8.81141 119.617 6.78778 115.454 4.38131L107.891 0.011364L107.583 0.0168343C107.282 0.0168343 107.205 0.060585 97.3049 5.7869ZM114.385 5.71033C118.098 7.85429 121.131 9.62086 121.131 9.63726C121.131 9.65368 116.941 12.0875 111.823 15.0464L102.51 20.4227L101.989 20.3898C97.793 20.1164 91.7103 16.7528 88.9076 13.154L88.6004 12.7602L88.8363 12.6235C92.7963 10.3264 107.567 1.81622 107.6 1.81622C107.622 1.81622 110.677 3.56638 114.385 5.71033ZM121.586 43.2787C121.531 43.3279 103.25 53.8836 103.157 53.9219C103.102 53.9438 103.086 50.6403 103.086 37.525L103.091 21.0954L112.344 15.7519L121.597 10.4139L121.614 26.8272C121.619 35.8569 121.608 43.2568 121.586 43.2787ZM90.553 16.0965C93.0048 18.142 96.0708 19.8265 98.8626 20.6578C99.976 20.986 100.514 21.0899 101.978 21.2649L102.208 21.2923V37.8313V54.3758L101.951 54.343C100.799 54.2118 99.9157 54.0149 98.7803 53.6375C94.8038 52.3194 90.7285 49.4918 88.8582 46.7572L88.6059 46.3852V33.166V19.9468L89.5274 20.8493C90.5969 21.9048 91.5842 22.7143 92.7744 23.4964C94.9409 24.9348 97.2007 25.9411 99.6908 26.592C100.684 26.849 100.799 26.8545 100.974 26.674C101.232 26.4224 101.106 26.0396 100.744 25.9575C97.5627 25.252 94.3266 23.7206 91.842 21.7517C91.1564 21.2048 90.0978 20.2312 89.6206 19.7007C89.1818 19.2139 89.0008 19.1046 88.765 19.1921L88.6059 19.2522V16.7364V14.2205L89.3354 14.9534C89.7303 15.3581 90.2843 15.8722 90.553 16.0965Z" fill="white"/>
<path d="M97.3049 5.7869C91.8145 8.95908 87.2786 11.5953 87.2237 11.6445C87.1305 11.7265 87.125 12.4321 87.125 29.4524V47.1728L87.2457 47.3697C87.6735 48.0807 88.5072 49.0707 89.4177 49.9567C91.9736 52.4288 96.0214 54.7204 99.3014 55.5517C100.47 55.8471 100.508 55.8525 101.89 55.8525H103.207L110.896 51.4115C115.12 48.9722 119.557 46.4126 120.747 45.7235C121.937 45.0343 122.985 44.4054 123.067 44.3179C123.155 44.2358 123.243 44.0717 123.27 43.9514C123.341 43.667 123.341 9.51694 123.27 9.23254C123.243 9.11222 123.177 8.95908 123.122 8.88251C123.067 8.81141 119.617 6.78778 115.454 4.38131L107.891 0.011364L107.583 0.0168343C107.282 0.0168343 107.205 0.060585 97.3049 5.7869ZM114.385 5.71033C118.098 7.85429 121.131 9.62086 121.131 9.63726C121.131 9.65368 116.941 12.0875 111.823 15.0464L102.51 20.4227L101.989 20.3898C97.793 20.1164 91.7103 16.7528 88.9076 13.154L88.6004 12.7602L88.8363 12.6235C92.7963 10.3264 107.567 1.81622 107.6 1.81622C107.622 1.81622 110.677 3.56638 114.385 5.71033ZM121.586 43.2787C121.531 43.3279 103.25 53.8836 103.157 53.9219C103.102 53.9438 103.086 50.6403 103.086 37.525L103.091 21.0954L112.344 15.7519L121.597 10.4139L121.614 26.8272C121.619 35.8569 121.608 43.2568 121.586 43.2787ZM90.553 16.0965C93.0048 18.142 96.0708 19.8265 98.8626 20.6578C99.976 20.986 100.514 21.0899 101.978 21.2649L102.208 21.2923V37.8313V54.3758L101.951 54.343C100.799 54.2118 99.9157 54.0149 98.7803 53.6375C94.8038 52.3194 90.7285 49.4918 88.8582 46.7572L88.6059 46.3852V33.166V19.9468L89.5274 20.8493C90.5969 21.9048 91.5842 22.7143 92.7744 23.4964C94.9409 24.9348 97.2007 25.9411 99.6908 26.592C100.684 26.849 100.799 26.8545 100.974 26.674C101.232 26.4224 101.106 26.0396 100.744 25.9575C97.5627 25.252 94.3266 23.7206 91.842 21.7517C91.1564 21.2048 90.0978 20.2312 89.6206 19.7007C89.1818 19.2139 89.0008 19.1046 88.765 19.1921L88.6059 19.2522V16.7364V14.2205L89.3354 14.9534C89.7303 15.3581 90.2843 15.8722 90.553 16.0965Z" fill="url(#paint4_linear_3081_3179)"/>
<path d="M88.8355 23.38C88.7587 23.462 88.7148 23.5769 88.7148 23.7026C88.7148 23.8722 88.7807 23.9652 89.3072 24.5121C92.1429 27.4874 95.9548 29.6915 100.063 30.7197C100.48 30.8236 100.875 30.9111 100.941 30.9111C101.116 30.9111 101.33 30.6705 101.33 30.4845C101.33 30.1837 101.204 30.1072 100.288 29.8774C97.0299 29.0571 93.8816 27.4327 91.4024 25.2942C91.0843 25.0207 90.4865 24.4519 90.0641 24.0253C89.4004 23.3526 89.2853 23.2542 89.1317 23.2542C89.0165 23.2542 88.9123 23.2979 88.8355 23.38Z" fill="black"/>
<path d="M88.8355 23.38C88.7587 23.462 88.7148 23.5769 88.7148 23.7026C88.7148 23.8722 88.7807 23.9652 89.3072 24.5121C92.1429 27.4874 95.9548 29.6915 100.063 30.7197C100.48 30.8236 100.875 30.9111 100.941 30.9111C101.116 30.9111 101.33 30.6705 101.33 30.4845C101.33 30.1837 101.204 30.1072 100.288 29.8774C97.0299 29.0571 93.8816 27.4327 91.4024 25.2942C91.0843 25.0207 90.4865 24.4519 90.0641 24.0253C89.4004 23.3526 89.2853 23.2542 89.1317 23.2542C89.0165 23.2542 88.9123 23.2979 88.8355 23.38Z" fill="white"/>
<path d="M88.8355 23.38C88.7587 23.462 88.7148 23.5769 88.7148 23.7026C88.7148 23.8722 88.7807 23.9652 89.3072 24.5121C92.1429 27.4874 95.9548 29.6915 100.063 30.7197C100.48 30.8236 100.875 30.9111 100.941 30.9111C101.116 30.9111 101.33 30.6705 101.33 30.4845C101.33 30.1837 101.204 30.1072 100.288 29.8774C97.0299 29.0571 93.8816 27.4327 91.4024 25.2942C91.0843 25.0207 90.4865 24.4519 90.0641 24.0253C89.4004 23.3526 89.2853 23.2542 89.1317 23.2542C89.0165 23.2542 88.9123 23.2979 88.8355 23.38Z" fill="url(#paint5_linear_3081_3179)"/>
<path d="M90.7872 35.2392C89.7725 35.3978 89.054 36.5354 89.246 37.6731C89.3776 38.4223 89.7835 38.9857 90.3978 39.2646C90.6611 39.3849 90.7543 39.4013 91.1492 39.3795C91.6703 39.3521 91.95 39.2318 92.301 38.8763C93.2993 37.8864 93.036 35.9776 91.8238 35.4033C91.4454 35.2228 91.1711 35.1791 90.7872 35.2392ZM91.418 36.0323C92.2462 36.4479 92.4272 37.6402 91.7635 38.3239C91.3467 38.756 90.864 38.7778 90.4197 38.3731C90.1016 38.0942 89.959 37.7113 89.9864 37.2355C90.0084 36.798 90.1181 36.5409 90.3758 36.2729C90.6885 35.9502 91.0779 35.8627 91.418 36.0323Z" fill="black"/>
<path d="M90.7872 35.2392C89.7725 35.3978 89.054 36.5354 89.246 37.6731C89.3776 38.4223 89.7835 38.9857 90.3978 39.2646C90.6611 39.3849 90.7543 39.4013 91.1492 39.3795C91.6703 39.3521 91.95 39.2318 92.301 38.8763C93.2993 37.8864 93.036 35.9776 91.8238 35.4033C91.4454 35.2228 91.1711 35.1791 90.7872 35.2392ZM91.418 36.0323C92.2462 36.4479 92.4272 37.6402 91.7635 38.3239C91.3467 38.756 90.864 38.7778 90.4197 38.3731C90.1016 38.0942 89.959 37.7113 89.9864 37.2355C90.0084 36.798 90.1181 36.5409 90.3758 36.2729C90.6885 35.9502 91.0779 35.8627 91.418 36.0323Z" fill="white"/>
<path d="M90.7872 35.2392C89.7725 35.3978 89.054 36.5354 89.246 37.6731C89.3776 38.4223 89.7835 38.9857 90.3978 39.2646C90.6611 39.3849 90.7543 39.4013 91.1492 39.3795C91.6703 39.3521 91.95 39.2318 92.301 38.8763C93.2993 37.8864 93.036 35.9776 91.8238 35.4033C91.4454 35.2228 91.1711 35.1791 90.7872 35.2392ZM91.418 36.0323C92.2462 36.4479 92.4272 37.6402 91.7635 38.3239C91.3467 38.756 90.864 38.7778 90.4197 38.3731C90.1016 38.0942 89.959 37.7113 89.9864 37.2355C90.0084 36.798 90.1181 36.5409 90.3758 36.2729C90.6885 35.9502 91.0779 35.8627 91.418 36.0323Z" fill="url(#paint6_linear_3081_3179)"/>
<path d="M90.5153 40.6488C90.0656 40.7856 89.5665 41.2887 89.369 41.8083C89.2648 42.0872 89.2374 42.2513 89.2428 42.6451C89.2483 43.2577 89.3855 43.646 89.742 44.0398C90.1259 44.4664 90.4002 44.6031 90.9432 44.6304C91.3381 44.6523 91.4313 44.6359 91.6946 44.5156C92.095 44.3351 92.4186 44.0015 92.627 43.5585C92.7915 43.2194 92.8025 43.1483 92.8025 42.6178C92.8025 42.0872 92.7915 42.0161 92.627 41.677C92.2924 40.9715 91.7385 40.5941 91.0474 40.5996C90.8389 40.5996 90.5976 40.6215 90.5153 40.6488ZM91.3381 41.3872C91.6178 41.5075 91.7823 41.6716 91.9304 41.9888C92.276 42.7162 91.9414 43.6514 91.2613 43.8757C90.6799 44.0671 90.0546 43.5202 89.9943 42.7654C89.9449 42.1529 90.1862 41.6497 90.6415 41.4255C90.9267 41.2833 91.0638 41.2778 91.3381 41.3872Z" fill="black"/>
<path d="M90.5153 40.6488C90.0656 40.7856 89.5665 41.2887 89.369 41.8083C89.2648 42.0872 89.2374 42.2513 89.2428 42.6451C89.2483 43.2577 89.3855 43.646 89.742 44.0398C90.1259 44.4664 90.4002 44.6031 90.9432 44.6304C91.3381 44.6523 91.4313 44.6359 91.6946 44.5156C92.095 44.3351 92.4186 44.0015 92.627 43.5585C92.7915 43.2194 92.8025 43.1483 92.8025 42.6178C92.8025 42.0872 92.7915 42.0161 92.627 41.677C92.2924 40.9715 91.7385 40.5941 91.0474 40.5996C90.8389 40.5996 90.5976 40.6215 90.5153 40.6488ZM91.3381 41.3872C91.6178 41.5075 91.7823 41.6716 91.9304 41.9888C92.276 42.7162 91.9414 43.6514 91.2613 43.8757C90.6799 44.0671 90.0546 43.5202 89.9943 42.7654C89.9449 42.1529 90.1862 41.6497 90.6415 41.4255C90.9267 41.2833 91.0638 41.2778 91.3381 41.3872Z" fill="white"/>
<path d="M90.5153 40.6488C90.0656 40.7856 89.5665 41.2887 89.369 41.8083C89.2648 42.0872 89.2374 42.2513 89.2428 42.6451C89.2483 43.2577 89.3855 43.646 89.742 44.0398C90.1259 44.4664 90.4002 44.6031 90.9432 44.6304C91.3381 44.6523 91.4313 44.6359 91.6946 44.5156C92.095 44.3351 92.4186 44.0015 92.627 43.5585C92.7915 43.2194 92.8025 43.1483 92.8025 42.6178C92.8025 42.0872 92.7915 42.0161 92.627 41.677C92.2924 40.9715 91.7385 40.5941 91.0474 40.5996C90.8389 40.5996 90.5976 40.6215 90.5153 40.6488ZM91.3381 41.3872C91.6178 41.5075 91.7823 41.6716 91.9304 41.9888C92.276 42.7162 91.9414 43.6514 91.2613 43.8757C90.6799 44.0671 90.0546 43.5202 89.9943 42.7654C89.9449 42.1529 90.1862 41.6497 90.6415 41.4255C90.9267 41.2833 91.0638 41.2778 91.3381 41.3872Z" fill="url(#paint7_linear_3081_3179)"/>
<path d="M65.1759 36.2742C66.4319 38.9385 69.6099 40.0802 72.2742 38.8241C74.9385 37.5681 76.0802 34.3901 74.8241 31.7258C73.5681 29.0615 70.3901 27.9198 67.7258 29.1759C65.0615 30.4319 63.9198 33.6099 65.1759 36.2742ZM0.426419 67.9045L4.80142 65.842L3.94858 64.033L-0.426419 66.0955L0.426419 67.9045ZM13.5514 61.717L22.3014 57.592L21.4486 55.783L12.6986 59.908L13.5514 61.717ZM31.0514 53.467L39.8014 49.342L38.9486 47.533L30.1986 51.658L31.0514 53.467ZM48.5514 45.217L57.3014 41.092L56.4486 39.283L47.6986 43.408L48.5514 45.217ZM66.0514 36.967L70.4264 34.9045L69.5736 33.0955L65.1986 35.158L66.0514 36.967ZM65.1759 36.2742C66.4319 38.9385 69.6099 40.0802 72.2742 38.8241C74.9385 37.5681 76.0802 34.3901 74.8241 31.7258C73.5681 29.0615 70.3901 27.9198 67.7258 29.1759C65.0615 30.4319 63.9198 33.6099 65.1759 36.2742ZM0.426419 67.9045L4.80142 65.842L3.94858 64.033L-0.426419 66.0955L0.426419 67.9045ZM13.5514 61.717L22.3014 57.592L21.4486 55.783L12.6986 59.908L13.5514 61.717ZM31.0514 53.467L39.8014 49.342L38.9486 47.533L30.1986 51.658L31.0514 53.467ZM48.5514 45.217L57.3014 41.092L56.4486 39.283L47.6986 43.408L48.5514 45.217ZM66.0514 36.967L70.4264 34.9045L69.5736 33.0955L65.1986 35.158L66.0514 36.967Z" fill="url(#paint8_linear_3081_3179)"/>
<path d="M65.1759 36.2742C66.4319 38.9385 69.6099 40.0802 72.2742 38.8241C74.9385 37.5681 76.0802 34.3901 74.8241 31.7258C73.5681 29.0615 70.3901 27.9198 67.7258 29.1759C65.0615 30.4319 63.9198 33.6099 65.1759 36.2742ZM0.426419 67.9045L4.80142 65.842L3.94858 64.033L-0.426419 66.0955L0.426419 67.9045ZM13.5514 61.717L22.3014 57.592L21.4486 55.783L12.6986 59.908L13.5514 61.717ZM31.0514 53.467L39.8014 49.342L38.9486 47.533L30.1986 51.658L31.0514 53.467ZM48.5514 45.217L57.3014 41.092L56.4486 39.283L47.6986 43.408L48.5514 45.217ZM66.0514 36.967L70.4264 34.9045L69.5736 33.0955L65.1986 35.158L66.0514 36.967ZM65.1759 36.2742C66.4319 38.9385 69.6099 40.0802 72.2742 38.8241C74.9385 37.5681 76.0802 34.3901 74.8241 31.7258C73.5681 29.0615 70.3901 27.9198 67.7258 29.1759C65.0615 30.4319 63.9198 33.6099 65.1759 36.2742ZM0.426419 67.9045L4.80142 65.842L3.94858 64.033L-0.426419 66.0955L0.426419 67.9045ZM13.5514 61.717L22.3014 57.592L21.4486 55.783L12.6986 59.908L13.5514 61.717ZM31.0514 53.467L39.8014 49.342L38.9486 47.533L30.1986 51.658L31.0514 53.467ZM48.5514 45.217L57.3014 41.092L56.4486 39.283L47.6986 43.408L48.5514 45.217ZM66.0514 36.967L70.4264 34.9045L69.5736 33.0955L65.1986 35.158L66.0514 36.967Z" fill="white" fill-opacity="0.15"/>
<path d="M59.7828 128.735C57.9796 131.064 58.406 134.414 60.7351 136.217C63.0642 138.02 66.414 137.594 68.2172 135.265C70.0204 132.936 69.594 129.586 67.2649 127.783C64.9358 125.98 61.586 126.406 59.7828 128.735ZM1.38783 84.7907L5.26283 87.7907L6.48717 86.2093L2.61217 83.2093L1.38783 84.7907ZM13.0128 93.7907L20.7628 99.7907L21.9872 98.2093L14.2372 92.2093L13.0128 93.7907ZM28.5128 105.791L36.2628 111.791L37.4872 110.209L29.7372 104.209L28.5128 105.791ZM44.0128 117.791L51.7628 123.791L52.9872 122.209L45.2372 116.209L44.0128 117.791ZM59.5128 129.791L63.3878 132.791L64.6122 131.209L60.7372 128.209L59.5128 129.791ZM59.7828 128.735C57.9796 131.064 58.406 134.414 60.7351 136.217C63.0642 138.02 66.414 137.594 68.2172 135.265C70.0204 132.936 69.594 129.586 67.2649 127.783C64.9358 125.98 61.586 126.406 59.7828 128.735ZM1.38783 84.7907L5.26283 87.7907L6.48717 86.2093L2.61217 83.2093L1.38783 84.7907ZM13.0128 93.7907L20.7628 99.7907L21.9872 98.2093L14.2372 92.2093L13.0128 93.7907ZM28.5128 105.791L36.2628 111.791L37.4872 110.209L29.7372 104.209L28.5128 105.791ZM44.0128 117.791L51.7628 123.791L52.9872 122.209L45.2372 116.209L44.0128 117.791ZM59.5128 129.791L63.3878 132.791L64.6122 131.209L60.7372 128.209L59.5128 129.791Z" fill="url(#paint9_linear_3081_3179)"/>
<path d="M59.7828 128.735C57.9796 131.064 58.406 134.414 60.7351 136.217C63.0642 138.02 66.414 137.594 68.2172 135.265C70.0204 132.936 69.594 129.586 67.2649 127.783C64.9358 125.98 61.586 126.406 59.7828 128.735ZM1.38783 84.7907L5.26283 87.7907L6.48717 86.2093L2.61217 83.2093L1.38783 84.7907ZM13.0128 93.7907L20.7628 99.7907L21.9872 98.2093L14.2372 92.2093L13.0128 93.7907ZM28.5128 105.791L36.2628 111.791L37.4872 110.209L29.7372 104.209L28.5128 105.791ZM44.0128 117.791L51.7628 123.791L52.9872 122.209L45.2372 116.209L44.0128 117.791ZM59.5128 129.791L63.3878 132.791L64.6122 131.209L60.7372 128.209L59.5128 129.791ZM59.7828 128.735C57.9796 131.064 58.406 134.414 60.7351 136.217C63.0642 138.02 66.414 137.594 68.2172 135.265C70.0204 132.936 69.594 129.586 67.2649 127.783C64.9358 125.98 61.586 126.406 59.7828 128.735ZM1.38783 84.7907L5.26283 87.7907L6.48717 86.2093L2.61217 83.2093L1.38783 84.7907ZM13.0128 93.7907L20.7628 99.7907L21.9872 98.2093L14.2372 92.2093L13.0128 93.7907ZM28.5128 105.791L36.2628 111.791L37.4872 110.209L29.7372 104.209L28.5128 105.791ZM44.0128 117.791L51.7628 123.791L52.9872 122.209L45.2372 116.209L44.0128 117.791ZM59.5128 129.791L63.3878 132.791L64.6122 131.209L60.7372 128.209L59.5128 129.791Z" fill="white" fill-opacity="0.15"/>
</g>
<defs>
<filter id="filter0_d_3081_3179" x="-44.9" y="-114.9" width="288.562" height="285.822" filterUnits="userSpaceOnUse" color-interpolation-filters="sRGB">
<feFlood flood-opacity="0" result="BackgroundImageFix"/>
<feColorMatrix in="SourceAlpha" type="matrix" values="0 0 0 0 0 0 0 0 0 0 0 0 0 0 0 0 0 0 127 0" result="hardAlpha"/>
<feOffset dx="-6"/>
<feGaussianBlur stdDeviation="47.95"/>
<feComposite in2="hardAlpha" operator="out"/>
<feColorMatrix type="matrix" values="0 0 0 0 0.192157 0 0 0 0 0.466667 0 0 0 0 0.882353 0 0 0 0.39 0"/>
<feBlend mode="normal" in2="BackgroundImageFix" result="effect1_dropShadow_3081_3179"/>
<feBlend mode="normal" in="SourceGraphic" in2="effect1_dropShadow_3081_3179" result="shape"/>
</filter>
<filter id="filter1_d_3081_3179" x="-29.3609" y="-99.6754" width="258.484" height="255.195" filterUnits="userSpaceOnUse" color-interpolation-filters="sRGB">
<feFlood flood-opacity="0" result="BackgroundImageFix"/>
<feColorMatrix in="SourceAlpha" type="matrix" values="0 0 0 0 0 0 0 0 0 0 0 0 0 0 0 0 0 0 127 0" result="hardAlpha"/>
<feOffset dx="-6"/>
<feGaussianBlur stdDeviation="47.95"/>
<feComposite in2="hardAlpha" operator="out"/>
<feColorMatrix type="matrix" values="0 0 0 0 0.192157 0 0 0 0 0.466667 0 0 0 0 0.882353 0 0 0 0.2 0"/>
<feBlend mode="normal" in2="BackgroundImageFix" result="effect1_dropShadow_3081_3179"/>
<feBlend mode="normal" in="SourceGraphic" in2="effect1_dropShadow_3081_3179" result="shape"/>
</filter>
<filter id="filter2_d_3081_3179" x="23.8156" y="-52.952" width="163.58" height="162.014" filterUnits="userSpaceOnUse" color-interpolation-filters="sRGB">
<feFlood flood-opacity="0" result="BackgroundImageFix"/>
<feColorMatrix in="SourceAlpha" type="matrix" values="0 0 0 0 0 0 0 0 0 0 0 0 0 0 0 0 0 0 127 0" result="hardAlpha"/>
<feOffset/>
<feGaussianBlur stdDeviation="29.85"/>
<feComposite in2="hardAlpha" operator="out"/>
<feColorMatrix type="matrix" values="0 0 0 0 0.192157 0 0 0 0 0.466667 0 0 0 0 0.882353 0 0 0 0.47 0"/>
<feBlend mode="normal" in2="BackgroundImageFix" result="effect1_dropShadow_3081_3179"/>
<feBlend mode="normal" in="SourceGraphic" in2="effect1_dropShadow_3081_3179" result="shape"/>
</filter>
<linearGradient id="paint0_linear_3081_3179" x1="86.4739" y1="133.068" x2="123.638" y2="133.068" gradientUnits="userSpaceOnUse">
<stop stop-color="#3793AE"/>
<stop offset="1" stop-color="#074287"/>
</linearGradient>
<linearGradient id="paint1_linear_3081_3179" x1="87.9471" y1="132.218" x2="100.899" y2="132.218" gradientUnits="userSpaceOnUse">
<stop stop-color="#3793AE"/>
<stop offset="1" stop-color="#074287"/>
</linearGradient>
<linearGradient id="paint2_linear_3081_3179" x1="88.398" y1="142.437" x2="92.1962" y2="142.437" gradientUnits="userSpaceOnUse">
<stop stop-color="#3793AE"/>
<stop offset="1" stop-color="#074287"/>
</linearGradient>
<linearGradient id="paint3_linear_3081_3179" x1="88.4243" y1="147.755" x2="92.0795" y2="147.755" gradientUnits="userSpaceOnUse">
<stop stop-color="#3793AE"/>
<stop offset="1" stop-color="#074287"/>
</linearGradient>
<linearGradient id="paint4_linear_3081_3179" x1="87.3793" y1="27.932" x2="123.324" y2="27.932" gradientUnits="userSpaceOnUse">
<stop stop-color="#3793AE"/>
<stop offset="1" stop-color="#074287"/>
</linearGradient>
<linearGradient id="paint5_linear_3081_3179" x1="88.8035" y1="27.0826" x2="101.33" y2="27.0826" gradientUnits="userSpaceOnUse">
<stop stop-color="#3793AE"/>
<stop offset="1" stop-color="#074287"/>
</linearGradient>
<linearGradient id="paint6_linear_3081_3179" x1="89.2408" y1="37.3008" x2="92.9144" y2="37.3008" gradientUnits="userSpaceOnUse">
<stop stop-color="#3793AE"/>
<stop offset="1" stop-color="#074287"/>
</linearGradient>
<linearGradient id="paint7_linear_3081_3179" x1="89.2672" y1="42.6191" x2="92.8025" y2="42.6191" gradientUnits="userSpaceOnUse">
<stop stop-color="#3793AE"/>
<stop offset="1" stop-color="#074287"/>
</linearGradient>
<linearGradient id="paint8_linear_3081_3179" x1="0.705013" y1="67.2204" x2="70.2132" y2="34.4523" gradientUnits="userSpaceOnUse">
<stop stop-color="#3793AE"/>
<stop offset="1" stop-color="#074287"/>
</linearGradient>
<linearGradient id="paint9_linear_3081_3179" x1="2.12951" y1="84.7326" x2="63.6939" y2="132.395" gradientUnits="userSpaceOnUse">
<stop stop-color="#3793AE"/>
<stop offset="1" stop-color="#074287"/>
</linearGradient>
<clipPath id="clip0_3081_3179">
<rect width="128" height="161" fill="white"/>
</clipPath>
</defs>
</svg>
