<svg width="210" height="209" viewBox="0 0 210 209" fill="none" xmlns="http://www.w3.org/2000/svg">
<g clip-path="url(#clip0_3034_3134)">
<circle cx="105.983" cy="104.896" r="56.1941" stroke="url(#paint0_linear_3034_3134)"/>
<path d="M93.1819 100.664C93.0399 100.204 92.8438 99.7921 92.5938 99.4284C92.3495 99.0591 92.0541 98.7438 91.7075 98.4824C91.3666 98.2211 90.9745 98.025 90.5313 97.8944C90.0882 97.758 89.6052 97.6898 89.0825 97.6898C88.145 97.6898 87.3097 97.9256 86.5768 98.3972C85.8438 98.8688 85.2671 99.562 84.8467 100.477C84.4319 101.386 84.2245 102.494 84.2245 103.801C84.2245 105.119 84.4319 106.235 84.8467 107.15C85.2615 108.065 85.8382 108.761 86.5768 109.238C87.3154 109.71 88.1734 109.945 89.1507 109.945C90.037 109.945 90.8041 109.775 91.4518 109.434C92.1052 109.093 92.608 108.61 92.9603 107.985C93.3126 107.355 93.4887 106.616 93.4887 105.769L94.2046 105.88H89.466V103.409H96.5484V105.505C96.5484 106.999 96.2302 108.292 95.5938 109.383C94.9575 110.474 94.0825 111.315 92.9688 111.906C91.8552 112.491 90.5768 112.784 89.1336 112.784C87.5257 112.784 86.1137 112.423 84.8978 111.701C83.6876 110.974 82.7416 109.943 82.0597 108.607C81.3836 107.267 81.0455 105.676 81.0455 103.835C81.0455 102.426 81.2444 101.167 81.6421 100.059C82.0455 98.9512 82.608 98.0108 83.3296 97.2381C84.0512 96.4597 84.8978 95.8688 85.8694 95.4654C86.841 95.0563 87.8978 94.8517 89.0399 94.8517C90.0058 94.8517 90.9063 94.9938 91.7416 95.2779C92.5768 95.5563 93.3183 95.954 93.966 96.4711C94.6194 96.9881 95.1563 97.6017 95.5768 98.312C95.9972 99.0222 96.2728 99.8063 96.4035 100.664H93.1819ZM98.1659 95.0904H102.035L107.217 107.738H107.422L112.603 95.0904H116.473V112.545H113.439V100.553H113.277L108.453 112.494H106.186L101.362 100.528H101.2V112.545H98.1659V95.0904ZM118.476 112.545V95.0904H125.021C126.362 95.0904 127.487 95.3404 128.396 95.8404C129.311 96.3404 130.001 97.0279 130.467 97.9029C130.939 98.7722 131.175 99.7608 131.175 100.869C131.175 101.988 130.939 102.982 130.467 103.852C129.996 104.721 129.3 105.406 128.379 105.906C127.459 106.4 126.325 106.647 124.979 106.647H120.641V104.048H124.553C125.337 104.048 125.979 103.911 126.479 103.639C126.979 103.366 127.348 102.991 127.587 102.514C127.831 102.036 127.953 101.488 127.953 100.869C127.953 100.249 127.831 99.704 127.587 99.2324C127.348 98.7608 126.976 98.3944 126.47 98.133C125.97 97.8659 125.325 97.7324 124.536 97.7324H121.638V112.545H118.476Z" fill="#3793AE"/>
<path d="M93.1819 100.664C93.0399 100.204 92.8438 99.7921 92.5938 99.4284C92.3495 99.0591 92.0541 98.7438 91.7075 98.4824C91.3666 98.2211 90.9745 98.025 90.5313 97.8944C90.0882 97.758 89.6052 97.6898 89.0825 97.6898C88.145 97.6898 87.3097 97.9256 86.5768 98.3972C85.8438 98.8688 85.2671 99.562 84.8467 100.477C84.4319 101.386 84.2245 102.494 84.2245 103.801C84.2245 105.119 84.4319 106.235 84.8467 107.15C85.2615 108.065 85.8382 108.761 86.5768 109.238C87.3154 109.71 88.1734 109.945 89.1507 109.945C90.037 109.945 90.8041 109.775 91.4518 109.434C92.1052 109.093 92.608 108.61 92.9603 107.985C93.3126 107.355 93.4887 106.616 93.4887 105.769L94.2046 105.88H89.466V103.409H96.5484V105.505C96.5484 106.999 96.2302 108.292 95.5938 109.383C94.9575 110.474 94.0825 111.315 92.9688 111.906C91.8552 112.491 90.5768 112.784 89.1336 112.784C87.5257 112.784 86.1137 112.423 84.8978 111.701C83.6876 110.974 82.7416 109.943 82.0597 108.607C81.3836 107.267 81.0455 105.676 81.0455 103.835C81.0455 102.426 81.2444 101.167 81.6421 100.059C82.0455 98.9512 82.608 98.0108 83.3296 97.2381C84.0512 96.4597 84.8978 95.8688 85.8694 95.4654C86.841 95.0563 87.8978 94.8517 89.0399 94.8517C90.0058 94.8517 90.9063 94.9938 91.7416 95.2779C92.5768 95.5563 93.3183 95.954 93.966 96.4711C94.6194 96.9881 95.1563 97.6017 95.5768 98.312C95.9972 99.0222 96.2728 99.8063 96.4035 100.664H93.1819ZM98.1659 95.0904H102.035L107.217 107.738H107.422L112.603 95.0904H116.473V112.545H113.439V100.553H113.277L108.453 112.494H106.186L101.362 100.528H101.2V112.545H98.1659V95.0904ZM118.476 112.545V95.0904H125.021C126.362 95.0904 127.487 95.3404 128.396 95.8404C129.311 96.3404 130.001 97.0279 130.467 97.9029C130.939 98.7722 131.175 99.7608 131.175 100.869C131.175 101.988 130.939 102.982 130.467 103.852C129.996 104.721 129.3 105.406 128.379 105.906C127.459 106.4 126.325 106.647 124.979 106.647H120.641V104.048H124.553C125.337 104.048 125.979 103.911 126.479 103.639C126.979 103.366 127.348 102.991 127.587 102.514C127.831 102.036 127.953 101.488 127.953 100.869C127.953 100.249 127.831 99.704 127.587 99.2324C127.348 98.7608 126.976 98.3944 126.47 98.133C125.97 97.8659 125.325 97.7324 124.536 97.7324H121.638V112.545H118.476Z" fill="white"/>
<path d="M93.1819 100.664C93.0399 100.204 92.8438 99.7921 92.5938 99.4284C92.3495 99.0591 92.0541 98.7438 91.7075 98.4824C91.3666 98.2211 90.9745 98.025 90.5313 97.8944C90.0882 97.758 89.6052 97.6898 89.0825 97.6898C88.145 97.6898 87.3097 97.9256 86.5768 98.3972C85.8438 98.8688 85.2671 99.562 84.8467 100.477C84.4319 101.386 84.2245 102.494 84.2245 103.801C84.2245 105.119 84.4319 106.235 84.8467 107.15C85.2615 108.065 85.8382 108.761 86.5768 109.238C87.3154 109.71 88.1734 109.945 89.1507 109.945C90.037 109.945 90.8041 109.775 91.4518 109.434C92.1052 109.093 92.608 108.61 92.9603 107.985C93.3126 107.355 93.4887 106.616 93.4887 105.769L94.2046 105.88H89.466V103.409H96.5484V105.505C96.5484 106.999 96.2302 108.292 95.5938 109.383C94.9575 110.474 94.0825 111.315 92.9688 111.906C91.8552 112.491 90.5768 112.784 89.1336 112.784C87.5257 112.784 86.1137 112.423 84.8978 111.701C83.6876 110.974 82.7416 109.943 82.0597 108.607C81.3836 107.267 81.0455 105.676 81.0455 103.835C81.0455 102.426 81.2444 101.167 81.6421 100.059C82.0455 98.9512 82.608 98.0108 83.3296 97.2381C84.0512 96.4597 84.8978 95.8688 85.8694 95.4654C86.841 95.0563 87.8978 94.8517 89.0399 94.8517C90.0058 94.8517 90.9063 94.9938 91.7416 95.2779C92.5768 95.5563 93.3183 95.954 93.966 96.4711C94.6194 96.9881 95.1563 97.6017 95.5768 98.312C95.9972 99.0222 96.2728 99.8063 96.4035 100.664H93.1819ZM98.1659 95.0904H102.035L107.217 107.738H107.422L112.603 95.0904H116.473V112.545H113.439V100.553H113.277L108.453 112.494H106.186L101.362 100.528H101.2V112.545H98.1659V95.0904ZM118.476 112.545V95.0904H125.021C126.362 95.0904 127.487 95.3404 128.396 95.8404C129.311 96.3404 130.001 97.0279 130.467 97.9029C130.939 98.7722 131.175 99.7608 131.175 100.869C131.175 101.988 130.939 102.982 130.467 103.852C129.996 104.721 129.3 105.406 128.379 105.906C127.459 106.4 126.325 106.647 124.979 106.647H120.641V104.048H124.553C125.337 104.048 125.979 103.911 126.479 103.639C126.979 103.366 127.348 102.991 127.587 102.514C127.831 102.036 127.953 101.488 127.953 100.869C127.953 100.249 127.831 99.704 127.587 99.2324C127.348 98.7608 126.976 98.3944 126.47 98.133C125.97 97.8659 125.325 97.7324 124.536 97.7324H121.638V112.545H118.476Z" fill="url(#paint1_linear_3034_3134)"/>
<path opacity="0.4" d="M44.1827 143.849L31.6773 151.278L30.5565 149.391L35.9909 146.163L32.2875 139.928L26.853 143.157L25.7285 141.264L38.2339 133.835L39.3584 135.728L33.9056 138.967L37.6091 145.201L43.0619 141.962L44.1827 143.849Z" fill="url(#paint2_linear_3034_3134)"/>
<path opacity="0.4" d="M37.9343 132.577L38.7853 134.746L23.3329 135.187L22.4067 132.827L34.0347 122.64L34.8857 124.809L25.3072 132.985L25.3487 133.091L37.9343 132.577ZM32.4892 134.294L29.7286 127.26L31.4476 126.585L34.2082 133.62L32.4892 134.294Z" fill="url(#paint3_linear_3034_3134)"/>
<path opacity="0.4" d="M37.9272 123.181L32.669 124.302L32.469 123.365C32.1323 123.102 31.6866 122.885 31.1318 122.713C30.5771 122.541 29.8576 122.447 28.9733 122.432C28.0891 122.418 26.9791 122.514 25.6436 122.721L19.5641 123.669L17.6934 114.896L30.0992 112.251L29.7555 110.639L34.9929 109.523L35.4313 111.579L32.0138 112.307L34.0504 121.858L37.4887 121.125L37.9272 123.181ZM31.9299 120.836L30.5376 114.307L19.9795 116.558L20.997 121.33L25.2052 120.665C26.2229 120.511 27.1471 120.418 27.9778 120.386C28.8076 120.35 29.5531 120.372 30.2144 120.454C30.8701 120.532 31.4419 120.659 31.9299 120.836Z" fill="url(#paint4_linear_3034_3134)"/>
<path opacity="0.4" d="M31.8952 111.63L29.9938 111.718L29.9599 111.293C29.9189 110.716 29.7016 110.271 29.3078 109.958C28.9139 109.64 28.2925 109.424 27.4435 109.312C26.5944 109.195 25.4663 109.143 24.0591 109.156L17.2225 109.224L16.7966 100.037L31.3264 99.363L31.4267 101.527L18.7557 102.114L18.9856 107.074L24.5442 107.043C26.1031 107.033 27.4181 107.128 28.4892 107.33C29.5556 107.531 30.3723 107.92 30.9393 108.496C31.5061 109.067 31.8151 109.903 31.8662 111.005L31.8952 111.63Z" fill="url(#paint5_linear_3034_3134)"/>
<path opacity="0.4" d="M31.5265 98.8202L17.0546 97.3595L17.9704 88.2863L19.85 88.476L19.1546 95.3657L23.564 95.8108L24.2117 89.3945L26.0842 89.5835L25.4366 95.9998L29.8672 96.447L30.5712 89.4725L32.4509 89.6622L31.5265 98.8202Z" fill="url(#paint6_linear_3034_3134)"/>
<path opacity="0.4" d="M20.9679 76.1611L34.9622 80.1273L34.3696 82.2182L20.3753 78.2521L20.9679 76.1611ZM32.1057 90.2062L26.051 83.6476L18.2005 85.9257L18.9325 83.3428L25.9705 81.5873L27.4946 76.2097L22.4164 71.0499L23.1465 68.4738L28.6519 74.5224L37.226 72.1393L36.5269 74.6061L29.5574 76.4326L27.8358 82.5072L32.7971 87.7667L32.1057 90.2062Z" fill="url(#paint7_linear_3034_3134)"/>
<path opacity="0.4" d="M37.7334 72.7178L36.6852 74.7981L26.0508 63.5785L27.1917 61.3142L42.5368 63.1848L41.4885 65.2652L29.0079 63.5813L28.9568 63.6828L37.7334 72.7178ZM32.8224 69.8059L36.2228 63.0573L37.8719 63.8882L34.4715 70.6368L32.8224 69.8059Z" fill="url(#paint8_linear_3034_3134)"/>
<path opacity="0.4" d="M51.7768 48.2589L55.8141 51.6407L54.539 53.2853L51.828 51.1834L51.0142 52.233L49.5661 51.1102L51.7768 48.2589ZM30.9635 54.3556L32.2951 52.638L42.2861 60.3841L45.2278 56.5898L35.2369 48.8437L36.5685 47.1261L46.5595 54.8723L49.4925 51.0892L39.5016 43.3431L40.8289 41.6311L52.3241 50.5435L42.4587 63.2679L30.9635 54.3556Z" fill="url(#paint9_linear_3034_3134)"/>
<path opacity="0.4" d="M54.0389 49.4577L52.2817 50.987L46.6812 36.5785L48.5938 34.914L62.0912 42.4499L60.334 43.9792L49.4175 37.6996L49.3318 37.7742L54.0389 49.4577ZM50.5942 44.9045L56.2946 39.9436L57.5069 41.3365L51.8065 46.2975L50.5942 44.9045Z" fill="url(#paint10_linear_3034_3134)"/>
<path opacity="0.4" d="M70.7413 37.271L68.8783 38.4444L62.1296 27.7292L59.7978 29.1978C59.1888 29.5813 58.7521 29.9851 58.4876 30.4091C58.2205 30.8292 58.1061 31.2649 58.1443 31.7165C58.1825 32.1681 58.3479 32.6263 58.6406 33.091C58.9308 33.5517 59.2675 33.8909 59.6507 34.1084C60.0339 34.3259 60.4681 34.4021 60.9532 34.3372C61.4383 34.2723 61.9833 34.0493 62.5883 33.6683L65.7434 31.6812L66.7502 33.2797L63.4208 35.3766C62.4713 35.9747 61.5804 36.3148 60.748 36.397C59.9196 36.4766 59.1681 36.3317 58.4932 35.9621C57.8199 35.586 57.246 35.0213 56.7716 34.2681C56.2947 33.5109 56.0308 32.7454 55.98 31.9717C55.9266 31.1939 56.1109 30.4427 56.533 29.718C56.9591 28.9908 57.647 28.3282 58.5965 27.7301L62.9895 24.9633L70.7413 37.271ZM61.1681 35.5448L63.2234 34.2503L63.734 41.6844L61.6246 43.0129L61.1681 35.5448Z" fill="url(#paint11_linear_3034_3134)"/>
<path opacity="0.4" d="M83.3196 17.0354L87.8842 30.8461L85.8072 31.5326L81.831 19.5022L75.3303 21.6508L79.3065 33.6811L77.2295 34.3676L72.6649 20.5569L83.3196 17.0354Z" fill="url(#paint12_linear_3034_3134)"/>
<path opacity="0.4" d="M88.5677 30.8671L86.1051 16.5316L91.2149 15.6538C92.3302 15.4622 93.2891 15.5065 94.0914 15.7867C94.8938 16.0668 95.5375 16.5279 96.0226 17.17C96.5068 17.8075 96.8242 18.5649 96.9749 19.4422C97.1265 20.3241 97.0784 21.1491 96.8308 21.9171C96.587 22.6796 96.1318 23.3295 95.465 23.8668C94.8021 24.3986 93.9154 24.7599 92.8047 24.9507L89.2909 25.5543L88.9758 23.7204L92.2937 23.1504C92.9983 23.0294 93.5492 22.8099 93.9461 22.4919C94.3423 22.1692 94.6066 21.7779 94.7389 21.318C94.8713 20.858 94.891 20.3574 94.798 19.8161C94.705 19.2748 94.5198 18.8118 94.2423 18.4271C93.9649 18.0423 93.584 17.7691 93.0998 17.6072C92.6203 17.4446 92.0212 17.425 91.3026 17.5484L88.5867 18.015L90.7306 30.4955L88.5677 30.8671Z" fill="url(#paint13_linear_3034_3134)"/>
<path opacity="0.4" d="M110.879 21.753C110.906 23.3058 110.644 24.6456 110.095 25.7726C109.546 26.8949 108.782 27.7651 107.803 28.3832C106.829 28.9965 105.714 29.3139 104.459 29.3354C103.2 29.3569 102.071 29.0779 101.071 28.4983C100.076 27.9139 99.285 27.0679 98.6978 25.9603C98.1106 24.8528 97.8037 23.525 97.7773 21.9769C97.7507 20.4241 98.012 19.0866 98.5611 17.9644C99.1101 16.8374 99.8718 15.9672 100.846 15.3539C101.826 14.7357 102.945 14.4159 104.204 14.3944C105.459 14.3729 106.583 14.6544 107.578 15.2388C108.578 15.8184 109.371 16.662 109.959 17.7695C110.546 18.8723 110.853 20.2002 110.879 21.753ZM108.706 21.7901C108.686 20.6066 108.477 19.6133 108.08 18.8103C107.687 18.0025 107.156 17.396 106.486 16.9907C105.821 16.5806 105.071 16.3827 104.238 16.3969C103.4 16.4112 102.656 16.6347 102.005 17.0673C101.354 17.4951 100.844 18.1195 100.474 18.9403C100.109 19.7563 99.9371 20.7561 99.9574 21.9396C99.9776 23.1232 100.184 24.1189 100.577 24.9267C100.974 25.7296 101.505 26.3362 102.171 26.7463C102.836 27.1516 103.587 27.3472 104.425 27.3328C105.258 27.3186 106 27.0975 106.651 26.6697C107.307 26.237 107.817 25.6127 108.182 24.7967C108.552 23.9758 108.726 22.9736 108.706 21.7901Z" fill="url(#paint14_linear_3034_3134)"/>
<path opacity="0.4" d="M112.605 14.788L114.756 15.1022L113.211 25.6718L113.345 25.6913L122.212 16.1916L124.222 16.4853L122.119 30.8779L119.947 30.5606L121.49 20.0051L121.356 19.9856L112.505 29.4732L110.502 29.1806L112.605 14.788Z" fill="url(#paint15_linear_3034_3134)"/>
<path opacity="0.4" d="M126.849 32.7176C125.915 32.434 125.131 32.0198 124.495 31.4751C123.863 30.9318 123.421 30.31 123.169 29.6098C122.922 28.9064 122.898 28.1716 123.096 27.4054L125.23 28.0539C125.132 28.4744 125.161 28.8743 125.318 29.2536C125.481 29.6297 125.742 29.9612 126.1 30.2482C126.458 30.5352 126.886 30.7545 127.384 30.9059C127.933 31.0725 128.446 31.1247 128.925 31.0625C129.409 31.0017 129.823 30.8378 130.166 30.571C130.511 30.2997 130.751 29.9398 130.888 29.4913C131.029 29.0247 131.034 28.5782 130.901 28.1519C130.774 27.7224 130.513 27.3362 130.118 26.9933C129.727 26.6517 129.209 26.3832 128.566 26.1877L127.39 25.8304L127.911 24.118L129.087 24.4753C129.603 24.6322 130.084 24.677 130.53 24.6097C130.981 24.5438 131.367 24.3792 131.69 24.1159C132.014 23.8482 132.244 23.49 132.38 23.0415C132.511 22.6112 132.527 22.2078 132.429 21.8315C132.336 21.452 132.141 21.118 131.843 20.8294C131.549 20.5421 131.164 20.3262 130.688 20.1817C130.235 20.044 129.786 19.999 129.341 20.0469C128.902 20.0916 128.513 20.2307 128.175 20.4645C127.838 20.6936 127.596 21.0184 127.448 21.4387L125.417 20.8212C125.668 20.0761 126.091 19.4821 126.686 19.0393C127.285 18.598 127.982 18.3225 128.778 18.2129C129.573 18.1033 130.397 18.1779 131.248 18.4367C132.141 18.708 132.858 19.1165 133.4 19.6622C133.948 20.2047 134.311 20.8174 134.489 21.5001C134.672 22.1842 134.657 22.8676 134.445 23.5503C134.213 24.3309 133.794 24.9262 133.19 25.3363C132.589 25.7478 131.899 25.9362 131.117 25.9016L131.084 26.0104C131.966 26.4317 132.57 27.0162 132.897 27.7638C133.229 28.5129 133.259 29.3262 132.987 30.2037C132.759 30.9706 132.337 31.5923 131.722 32.0685C131.112 32.5461 130.385 32.8471 129.54 32.9715C128.697 33.0914 127.8 33.0068 126.849 32.7176Z" fill="url(#paint16_linear_3034_3134)"/>
<path opacity="0.4" d="M132.016 34.2219L138.209 21.061L143.029 23.3292C143.963 23.7688 144.664 24.2869 145.131 24.8837C145.601 25.4762 145.864 26.1053 145.923 26.7711C145.983 27.4326 145.86 28.089 145.553 28.7402C145.295 29.2886 144.977 29.7039 144.598 29.9861C144.221 30.2641 143.81 30.4369 143.365 30.5047C142.926 30.5702 142.481 30.5597 142.03 30.473L141.969 30.6015C142.396 30.8285 142.756 31.1705 143.048 31.6274C143.347 32.0821 143.522 32.6117 143.572 33.2162C143.623 33.8208 143.488 34.4637 143.167 35.1449C142.851 35.8175 142.408 36.3469 141.839 36.7333C141.276 37.1173 140.593 37.3115 139.791 37.3158C138.99 37.3157 138.08 37.0758 137.06 36.596L132.016 34.2219ZM134.803 33.4535L137.669 34.8023C138.62 35.2499 139.388 35.3862 139.972 35.2113C140.557 35.0365 140.98 34.6727 141.24 34.12C141.435 33.7045 141.51 33.2738 141.463 32.828C141.416 32.3822 141.247 31.9647 140.953 31.5756C140.665 31.1885 140.255 30.87 139.723 30.62L136.787 29.2379L134.803 33.4535ZM137.516 27.6892L140.176 28.9412C140.622 29.1509 141.062 29.2537 141.499 29.2497C141.939 29.2477 142.337 29.1418 142.692 28.9322C143.053 28.7202 143.334 28.4022 143.534 27.9781C143.79 27.434 143.814 26.888 143.606 26.3401C143.398 25.7923 142.9 25.3328 142.111 24.9619L139.4 23.6856L137.516 27.6892Z" fill="url(#paint17_linear_3034_3134)"/>
<path opacity="0.4" d="M156.04 39.8463C155.166 41.13 154.179 42.0738 153.081 42.6776C151.985 43.2776 150.859 43.5476 149.702 43.4877C148.552 43.4265 147.459 43.0428 146.422 42.3366C145.381 41.6278 144.619 40.7483 144.137 39.6982C143.661 38.6469 143.503 37.4995 143.662 36.2561C143.822 35.0127 144.337 33.7511 145.208 32.4713C146.082 31.1876 147.067 30.2457 148.163 29.6458C149.262 29.0419 150.386 28.7706 151.536 28.8318C152.692 28.8917 153.791 29.276 154.832 29.9849C155.869 30.6911 156.626 31.5699 157.101 32.6212C157.583 33.6713 157.745 34.818 157.586 36.0615C157.429 37.301 156.914 38.5626 156.04 39.8463ZM154.243 38.6231C154.909 37.6447 155.312 36.7129 155.451 35.8278C155.596 34.9414 155.512 34.1395 155.198 33.422C154.892 32.7033 154.394 32.1094 153.705 31.6404C153.012 31.1687 152.275 30.9218 151.494 30.8998C150.716 30.8737 149.939 31.0894 149.163 31.5467C148.394 32.0028 147.677 32.72 147.011 33.6984C146.344 34.6769 145.939 35.6093 145.793 36.4956C145.655 37.3807 145.739 38.1826 146.046 38.9014C146.355 39.6162 146.856 40.2095 147.549 40.6811C148.238 41.1502 148.972 41.3977 149.75 41.4237C150.535 41.4484 151.312 41.2328 152.081 40.7767C152.856 40.3194 153.577 39.6015 154.243 38.6231Z" fill="url(#paint18_linear_3034_3134)"/>
<path opacity="0.4" d="M148.948 48.0054L152.694 44.1488L153.381 44.8169C153.807 44.8475 154.298 44.7801 154.855 44.6146C155.412 44.4492 156.062 44.1266 156.805 43.6471C157.548 43.1675 158.417 42.4701 159.411 41.5549L163.936 37.3857L170.371 43.6357L161.533 52.7345L162.715 53.8826L158.983 57.7239L157.475 56.2591L159.91 53.7526L152.905 46.9483L150.456 49.4701L148.948 48.0054ZM155.236 46.6181L160.025 51.2697L167.546 43.5261L164.046 40.1264L160.919 43.0197C160.159 43.7138 159.443 44.3052 158.77 44.7938C158.101 45.2857 157.469 45.6816 156.874 45.9816C156.286 46.2814 155.74 46.4936 155.236 46.6181Z" fill="url(#paint19_linear_3034_3134)"/>
<path opacity="0.4" d="M175.844 58.6673L174.526 56.8859C174.856 56.5358 175.097 56.1605 175.248 55.7599C175.399 55.3594 175.476 54.9494 175.478 54.5299C175.48 54.1104 175.408 53.6951 175.263 53.2841C175.121 52.8769 174.912 52.4868 174.636 52.1138C174.137 51.44 173.522 50.9619 172.789 50.6796C172.058 50.4011 171.252 50.3498 170.369 50.5258C169.489 50.7056 168.577 51.1447 167.633 51.843C166.681 52.5469 165.991 53.2933 165.561 54.0822C165.135 54.8748 164.951 55.6615 165.01 56.4422C165.069 57.2229 165.345 57.9463 165.838 58.6125C166.111 58.9817 166.42 59.2953 166.764 59.5533C167.114 59.8123 167.489 60.0037 167.886 60.1275C168.284 60.2514 168.695 60.3009 169.118 60.2763C169.549 60.2526 169.977 60.139 170.403 59.9354L171.716 61.7211C171.07 62.0511 170.405 62.2579 169.718 62.3414C169.039 62.4259 168.366 62.3845 167.701 62.2172C167.042 62.0509 166.416 61.766 165.823 61.3625C165.23 60.9589 164.695 60.4355 164.22 59.7922C163.471 58.7796 163.043 57.7 162.937 56.5535C162.835 55.4041 163.064 54.2688 163.624 53.1474C164.188 52.0299 165.092 51.0108 166.336 50.09C167.585 49.1665 168.825 48.6022 170.058 48.3973C171.294 48.1896 172.445 48.3042 173.51 48.7412C174.579 49.1753 175.487 49.8968 176.233 50.9055C176.692 51.526 177.031 52.1708 177.249 52.8399C177.474 53.5099 177.574 54.1867 177.549 54.8703C177.529 55.5511 177.377 56.2139 177.094 56.8588C176.816 57.5009 176.399 58.1038 175.844 58.6673Z" fill="url(#paint20_linear_3034_3134)"/>
<path opacity="0.4" d="M178.645 58.0995L180.32 57.2263L185.523 67.2088L183.848 68.082L181.75 64.0575L170.527 69.9074L169.516 67.9676L180.739 62.1177L178.645 58.0995Z" fill="url(#paint21_linear_3034_3134)"/>
<path opacity="0.4" d="M172.587 74.161L186.33 69.3955L188.075 74.4282C188.413 75.4035 188.532 76.2668 188.432 77.0182C188.336 77.768 188.071 78.3964 187.635 78.9033C187.204 79.4086 186.648 79.7792 185.968 80.0149C185.396 80.2135 184.876 80.2759 184.409 80.2022C183.947 80.1269 183.536 79.9536 183.177 79.6825C182.823 79.4142 182.52 79.0884 182.267 78.7051L182.132 78.7517C182.268 79.2157 182.275 79.712 182.153 80.2406C182.036 80.7721 181.779 81.2671 181.382 81.7256C180.985 82.1841 180.431 82.5366 179.719 82.7833C179.017 83.0268 178.329 83.08 177.655 82.9429C176.987 82.8087 176.371 82.456 175.807 81.8848C175.248 81.312 174.783 80.4933 174.414 79.4286L172.587 74.161ZM175.085 75.6179L176.122 78.6107C176.467 79.6038 176.906 80.2484 177.439 80.5444C177.973 80.8405 178.528 80.8884 179.106 80.6883C179.539 80.5378 179.9 80.2902 180.186 79.9453C180.472 79.6005 180.652 79.1873 180.726 78.7057C180.801 78.2286 180.742 77.7127 180.55 77.158L179.487 74.0914L175.085 75.6179ZM181.104 73.5306L182.067 76.3087C182.228 76.7739 182.463 77.1612 182.771 77.4704C183.08 77.7842 183.434 77.9948 183.832 78.1023C184.236 78.2127 184.659 78.1912 185.102 78.0376C185.67 77.8406 186.078 77.4763 186.324 76.9447C186.571 76.4132 186.552 75.7358 186.266 74.9127L185.284 72.081L181.104 73.5306Z" fill="url(#paint22_linear_3034_3134)"/>
<path opacity="0.4" d="M176.01 84.5821L190.289 81.8077L192.028 90.7596L190.174 91.1199L188.853 84.3223L184.502 85.1677L185.732 91.4982L183.885 91.8572L182.655 85.5267L178.283 86.3761L179.621 93.2573L177.766 93.6177L176.01 84.5821Z" fill="url(#paint23_linear_3034_3134)"/>
<path opacity="0.4" d="M177.804 94.1937L192.334 93.52L192.436 95.7122L186.122 96.005L186.457 103.249L192.772 102.956L192.874 105.155L178.344 105.829L178.242 103.63L184.577 103.336L184.241 96.0922L177.906 96.3859L177.804 94.1937Z" fill="url(#paint24_linear_3034_3134)"/>
<path opacity="0.4" d="M178.207 105.771L192.662 107.392L192.418 109.573L186.136 108.869L185.328 116.075L191.609 116.78L191.364 118.968L176.909 117.346L177.155 115.158L183.457 115.865L184.266 108.659L177.963 107.952L178.207 105.771Z" fill="url(#paint25_linear_3034_3134)"/>
<path opacity="0.4" d="M176.407 118.63L177.034 116.386L189.635 125.341L188.953 127.783L173.535 128.911L174.162 126.667L186.733 125.909L186.763 125.8L176.407 118.63ZM181.788 120.538L179.755 127.817L177.976 127.32L180.009 120.042L181.788 120.538Z" fill="url(#paint26_linear_3034_3134)"/>
<path opacity="0.4" d="M169.062 138.2L169.976 136.198L181.496 141.458L182.64 138.951C182.939 138.296 183.083 137.719 183.072 137.219C183.065 136.722 182.921 136.295 182.642 135.938C182.362 135.581 181.973 135.289 181.473 135.061C180.978 134.835 180.51 134.736 180.071 134.764C179.631 134.792 179.226 134.966 178.856 135.287C178.486 135.607 178.152 136.092 177.855 136.743L176.306 140.134L174.588 139.35L176.222 135.77C176.688 134.75 177.247 133.977 177.898 133.452C178.547 132.931 179.255 132.64 180.022 132.579C180.791 132.524 181.581 132.682 182.391 133.051C183.205 133.423 183.845 133.919 184.312 134.538C184.783 135.159 185.041 135.888 185.085 136.726C185.128 137.567 184.916 138.499 184.45 139.52L182.293 144.242L169.062 138.2ZM178.014 134.395L177.005 136.604L172.502 130.667L173.537 128.4L178.014 134.395Z" fill="url(#paint27_linear_3034_3134)"/>
<path opacity="0.4" d="M97.7306 176.177L94.569 190.374L92.4338 189.899L95.1879 177.531L88.505 176.043L85.7509 188.411L83.6157 187.935L86.7773 173.738L97.7306 176.177Z" fill="url(#paint28_linear_3034_3134)"/>
<path opacity="0.4" d="M95.9075 190.26L96.9494 175.752L102.121 176.123C103.249 176.205 104.17 176.477 104.882 176.941C105.594 177.405 106.108 178.007 106.425 178.747C106.743 179.482 106.87 180.293 106.806 181.181C106.742 182.073 106.498 182.863 106.073 183.549C105.654 184.231 105.057 184.753 104.281 185.115C103.51 185.473 102.562 185.611 101.438 185.531L97.8819 185.275L98.0152 183.419L101.373 183.66C102.086 183.712 102.673 183.63 103.135 183.417C103.597 183.198 103.947 182.882 104.186 182.467C104.425 182.052 104.564 181.571 104.603 181.023C104.642 180.475 104.573 179.981 104.396 179.541C104.219 179.101 103.914 178.744 103.483 178.471C103.056 178.199 102.479 178.036 101.752 177.984L99.0035 177.787L98.0965 190.417L95.9075 190.26Z" fill="url(#paint29_linear_3034_3134)"/>
<path opacity="0.4" d="M108.182 190.68L105.859 190.861L109.948 175.953L112.476 175.756L118.824 189.851L116.502 190.032L111.477 178.484L111.364 178.493L108.182 190.68ZM108.129 184.971L115.663 184.384L115.806 186.225L108.272 186.812L108.129 184.971Z" fill="url(#paint30_linear_3034_3134)"/>
<path opacity="0.4" d="M128 187.455L121.754 182.223L120.246 182.577L121.736 188.924L119.599 189.426L116.277 175.265L118.413 174.764L119.817 180.745L120.515 180.581L124.463 173.344L127.07 172.732L122.895 180.402L130.607 186.843L128 187.455Z" fill="url(#paint31_linear_3034_3134)"/>
<path opacity="0.4" d="M125.695 174.924L125 173.167L135.467 169.024L136.162 170.781L131.942 172.451L136.6 184.219L134.566 185.024L129.908 173.256L125.695 174.924Z" fill="url(#paint32_linear_3034_3134)"/>
<path opacity="0.4" d="M134.525 169.257L136.401 168.16L141.793 177.381L141.91 177.313L142.906 164.356L144.659 163.331L152.002 175.887L150.107 176.995L144.722 167.786L144.606 167.854L143.615 180.792L141.867 181.814L134.525 169.257Z" fill="url(#paint33_linear_3034_3134)"/>
<path opacity="0.4" d="M159.342 169.617L151.434 167.653L150.234 168.631L154.355 173.684L152.654 175.071L143.462 163.799L145.162 162.412L149.045 167.173L149.601 166.719L149.978 158.484L152.053 156.792L151.662 165.515L161.417 167.925L159.342 169.617Z" fill="url(#paint34_linear_3034_3134)"/>
<path opacity="0.4" d="M162.472 166.431L160.913 168.162L153.609 154.538L155.306 152.654L169.617 158.5L168.057 160.231L156.461 155.319L156.385 155.404L162.472 166.431ZM158.501 162.329L163.559 156.714L164.931 157.95L159.873 163.564L158.501 162.329Z" fill="url(#paint35_linear_3034_3134)"/>
<circle cx="105.521" cy="104.434" r="101.826" stroke="url(#paint36_linear_3034_3134)"/>
</g>
<defs>
<linearGradient id="paint0_linear_3034_3134" x1="50.0857" y1="104.896" x2="162.677" y2="104.896" gradientUnits="userSpaceOnUse">
<stop stop-color="#3793AE"/>
<stop offset="1" stop-color="#074287"/>
</linearGradient>
<linearGradient id="paint1_linear_3034_3134" x1="61.9017" y1="104.896" x2="150.693" y2="104.896" gradientUnits="userSpaceOnUse">
<stop stop-color="#3793AE"/>
<stop offset="1" stop-color="#074287"/>
</linearGradient>
<linearGradient id="paint2_linear_3034_3134" x1="38.8913" y1="148.739" x2="31.9478" y2="137.051" gradientUnits="userSpaceOnUse">
<stop stop-color="#3793AE"/>
<stop offset="1" stop-color="#074287"/>
</linearGradient>
<linearGradient id="paint3_linear_3034_3134" x1="32.372" y1="137.693" x2="27.4055" y2="125.038" gradientUnits="userSpaceOnUse">
<stop stop-color="#3793AE"/>
<stop offset="1" stop-color="#074287"/>
</linearGradient>
<linearGradient id="paint4_linear_3034_3134" x1="27.6793" y1="125.77" x2="24.655" y2="111.587" gradientUnits="userSpaceOnUse">
<stop stop-color="#3793AE"/>
<stop offset="1" stop-color="#074287"/>
</linearGradient>
<linearGradient id="paint5_linear_3034_3134" x1="24.8745" y1="112.357" x2="24.2448" y2="98.7758" gradientUnits="userSpaceOnUse">
<stop stop-color="#3793AE"/>
<stop offset="1" stop-color="#074287"/>
</linearGradient>
<linearGradient id="paint6_linear_3034_3134" x1="24.3633" y1="99.6195" x2="25.5465" y2="87.8965" gradientUnits="userSpaceOnUse">
<stop stop-color="#3793AE"/>
<stop offset="1" stop-color="#074287"/>
</linearGradient>
<linearGradient id="paint7_linear_3034_3134" x1="25.2099" y1="88.6943" x2="30.1526" y2="71.2541" gradientUnits="userSpaceOnUse">
<stop stop-color="#3793AE"/>
<stop offset="1" stop-color="#074287"/>
</linearGradient>
<linearGradient id="paint8_linear_3034_3134" x1="30.2117" y1="71.9853" x2="36.3292" y2="59.8442" gradientUnits="userSpaceOnUse">
<stop stop-color="#3793AE"/>
<stop offset="1" stop-color="#074287"/>
</linearGradient>
<linearGradient id="paint9_linear_3034_3134" x1="35.8755" y1="60.2582" x2="47.5378" y2="45.2161" gradientUnits="userSpaceOnUse">
<stop stop-color="#3793AE"/>
<stop offset="1" stop-color="#074287"/>
</linearGradient>
<linearGradient id="paint10_linear_3034_3134" x1="47.3531" y1="45.9346" x2="57.6085" y2="37.0094" gradientUnits="userSpaceOnUse">
<stop stop-color="#3793AE"/>
<stop offset="1" stop-color="#074287"/>
</linearGradient>
<linearGradient id="paint11_linear_3034_3134" x1="56.9836" y1="37.608" x2="67.7205" y2="30.8456" gradientUnits="userSpaceOnUse">
<stop stop-color="#3793AE"/>
<stop offset="1" stop-color="#074287"/>
</linearGradient>
<linearGradient id="paint12_linear_3034_3134" x1="73.4505" y1="28.1949" x2="86.359" y2="23.9285" gradientUnits="userSpaceOnUse">
<stop stop-color="#3793AE"/>
<stop offset="1" stop-color="#074287"/>
</linearGradient>
<linearGradient id="paint13_linear_3034_3134" x1="85.8819" y1="24.1784" x2="97.4944" y2="22.1837" gradientUnits="userSpaceOnUse">
<stop stop-color="#3793AE"/>
<stop offset="1" stop-color="#074287"/>
</linearGradient>
<linearGradient id="paint14_linear_3034_3134" x1="96.7546" y1="22.2204" x2="111.254" y2="21.9725" gradientUnits="userSpaceOnUse">
<stop stop-color="#3793AE"/>
<stop offset="1" stop-color="#074287"/>
</linearGradient>
<linearGradient id="paint15_linear_3034_3134" x1="110.035" y1="21.9907" x2="123.488" y2="23.9563" gradientUnits="userSpaceOnUse">
<stop stop-color="#3793AE"/>
<stop offset="1" stop-color="#074287"/>
</linearGradient>
<linearGradient id="paint16_linear_3034_3134" x1="122.852" y1="23.9299" x2="134.125" y2="27.3562" gradientUnits="userSpaceOnUse">
<stop stop-color="#3793AE"/>
<stop offset="1" stop-color="#074287"/>
</linearGradient>
<linearGradient id="paint17_linear_3034_3134" x1="133.652" y1="27.2037" x2="145.133" y2="32.6068" gradientUnits="userSpaceOnUse">
<stop stop-color="#3793AE"/>
<stop offset="1" stop-color="#074287"/>
</linearGradient>
<linearGradient id="paint18_linear_3034_3134" x1="144.233" y1="32.0802" x2="156.219" y2="40.242" gradientUnits="userSpaceOnUse">
<stop stop-color="#3793AE"/>
<stop offset="1" stop-color="#074287"/>
</linearGradient>
<linearGradient id="paint19_linear_3034_3134" x1="156.024" y1="40.1539" x2="166.426" y2="50.258" gradientUnits="userSpaceOnUse">
<stop stop-color="#3793AE"/>
<stop offset="1" stop-color="#074287"/>
</linearGradient>
<linearGradient id="paint20_linear_3034_3134" x1="165.54" y1="49.3939" x2="173.625" y2="60.3239" gradientUnits="userSpaceOnUse">
<stop stop-color="#3793AE"/>
<stop offset="1" stop-color="#074287"/>
</linearGradient>
<linearGradient id="paint21_linear_3034_3134" x1="173.305" y1="59.991" x2="179.17" y2="71.2432" gradientUnits="userSpaceOnUse">
<stop stop-color="#3793AE"/>
<stop offset="1" stop-color="#074287"/>
</linearGradient>
<linearGradient id="paint22_linear_3034_3134" x1="178.751" y1="70.4273" x2="182.908" y2="82.4159" gradientUnits="userSpaceOnUse">
<stop stop-color="#3793AE"/>
<stop offset="1" stop-color="#074287"/>
</linearGradient>
<linearGradient id="paint23_linear_3034_3134" x1="182.639" y1="81.7512" x2="184.886" y2="93.3175" gradientUnits="userSpaceOnUse">
<stop stop-color="#3793AE"/>
<stop offset="1" stop-color="#074287"/>
</linearGradient>
<linearGradient id="paint24_linear_3034_3134" x1="184.774" y1="92.3671" x2="185.404" y2="105.948" gradientUnits="userSpaceOnUse">
<stop stop-color="#3793AE"/>
<stop offset="1" stop-color="#074287"/>
</linearGradient>
<linearGradient id="paint25_linear_3034_3134" x1="185.378" y1="105.064" x2="183.862" y2="118.575" gradientUnits="userSpaceOnUse">
<stop stop-color="#3793AE"/>
<stop offset="1" stop-color="#074287"/>
</linearGradient>
<linearGradient id="paint26_linear_3034_3134" x1="183.929" y1="117.896" x2="180.271" y2="130.99" gradientUnits="userSpaceOnUse">
<stop stop-color="#3793AE"/>
<stop offset="1" stop-color="#074287"/>
</linearGradient>
<linearGradient id="paint27_linear_3034_3134" x1="180.382" y1="130.375" x2="175.111" y2="141.917" gradientUnits="userSpaceOnUse">
<stop stop-color="#3793AE"/>
<stop offset="1" stop-color="#074287"/>
</linearGradient>
<linearGradient id="paint28_linear_3034_3134" x1="83.5209" y1="180.726" x2="95.6168" y2="183.42" gradientUnits="userSpaceOnUse">
<stop stop-color="#3793AE"/>
<stop offset="1" stop-color="#074287"/>
</linearGradient>
<linearGradient id="paint29_linear_3034_3134" x1="94.892" y1="183.153" x2="105.604" y2="183.922" gradientUnits="userSpaceOnUse">
<stop stop-color="#3793AE"/>
<stop offset="1" stop-color="#074287"/>
</linearGradient>
<linearGradient id="paint30_linear_3034_3134" x1="104.906" y1="183.898" x2="117.261" y2="182.935" gradientUnits="userSpaceOnUse">
<stop stop-color="#3793AE"/>
<stop offset="1" stop-color="#074287"/>
</linearGradient>
<linearGradient id="paint31_linear_3034_3134" x1="116.52" y1="182.941" x2="127.781" y2="180.299" gradientUnits="userSpaceOnUse">
<stop stop-color="#3793AE"/>
<stop offset="1" stop-color="#074287"/>
</linearGradient>
<linearGradient id="paint32_linear_3034_3134" x1="127.028" y1="180.462" x2="137.782" y2="176.205" gradientUnits="userSpaceOnUse">
<stop stop-color="#3793AE"/>
<stop offset="1" stop-color="#074287"/>
</linearGradient>
<linearGradient id="paint33_linear_3034_3134" x1="137.022" y1="176.519" x2="147.719" y2="170.264" gradientUnits="userSpaceOnUse">
<stop stop-color="#3793AE"/>
<stop offset="1" stop-color="#074287"/>
</linearGradient>
<linearGradient id="paint34_linear_3034_3134" x1="147.045" y1="170.592" x2="156.008" y2="163.282" gradientUnits="userSpaceOnUse">
<stop stop-color="#3793AE"/>
<stop offset="1" stop-color="#074287"/>
</linearGradient>
<linearGradient id="paint35_linear_3034_3134" x1="155.426" y1="163.77" x2="163.72" y2="154.563" gradientUnits="userSpaceOnUse">
<stop stop-color="#3793AE"/>
<stop offset="1" stop-color="#074287"/>
</linearGradient>
<linearGradient id="paint36_linear_3034_3134" x1="4.63315" y1="104.434" x2="207.847" y2="104.434" gradientUnits="userSpaceOnUse">
<stop stop-color="#3793AE"/>
<stop offset="1" stop-color="#074287"/>
</linearGradient>
<clipPath id="clip0_3034_3134">
<rect width="210" height="209" fill="white"/>
</clipPath>
</defs>
</svg>
