<svg width="199" height="199" viewBox="0 0 199 199" fill="none" xmlns="http://www.w3.org/2000/svg">
<g clip-path="url(#clip0_3034_3044)">
<circle cx="99.8348" cy="99.5379" r="98.8504" stroke="url(#paint0_linear_3034_3044)"/>
<circle cx="99.3854" cy="101.774" r="54.5455" stroke="black"/>
<circle cx="99.3854" cy="101.774" r="54.5455" stroke="url(#paint1_linear_3034_3044)"/>
<path d="M88.7607 98.2805C88.6187 97.8202 88.4227 97.4083 88.1727 97.0447C87.9284 96.6753 87.6329 96.36 87.2863 96.0986C86.9454 95.8373 86.5534 95.6412 86.1102 95.5106C85.667 95.3742 85.184 95.306 84.6613 95.306C83.7238 95.306 82.8886 95.5418 82.1556 96.0134C81.4227 96.485 80.846 97.1782 80.4255 98.093C80.0107 99.002 79.8034 100.11 79.8034 101.417C79.8034 102.735 80.0107 103.851 80.4255 104.766C80.8403 105.681 81.417 106.377 82.1556 106.854C82.8943 107.326 83.7522 107.562 84.7295 107.562C85.6159 107.562 86.3829 107.391 87.0306 107.05C87.684 106.709 88.1869 106.226 88.5392 105.601C88.8914 104.971 89.0676 104.232 89.0676 103.386L89.7835 103.496H85.0448V101.025H92.1272V103.121C92.1272 104.616 91.809 105.908 91.1727 106.999C90.5363 108.09 89.6613 108.931 88.5477 109.522C87.434 110.107 86.1556 110.4 84.7124 110.4C83.1045 110.4 81.6926 110.039 80.4767 109.317C79.2664 108.59 78.3204 107.559 77.6386 106.224C76.9624 104.883 76.6244 103.292 76.6244 101.451C76.6244 100.042 76.8232 98.7833 77.221 97.6753C77.6244 96.5674 78.1869 95.627 78.9085 94.8543C79.6301 94.0759 80.4767 93.485 81.4482 93.0816C82.4198 92.6725 83.4767 92.468 84.6187 92.468C85.5846 92.468 86.4852 92.61 87.3204 92.8941C88.1556 93.1725 88.8971 93.5702 89.5448 94.0873C90.1982 94.6043 90.7352 95.218 91.1556 95.9282C91.5761 96.6384 91.8517 97.4225 91.9823 98.2805H88.7607ZM99.6595 110.161H93.7447V92.7066H99.7788C101.512 92.7066 103 93.056 104.245 93.7549C105.495 94.4481 106.455 95.4452 107.125 96.7464C107.796 98.0475 108.131 99.6043 108.131 101.417C108.131 103.235 107.793 104.797 107.117 106.104C106.446 107.411 105.478 108.414 104.211 109.113C102.949 109.812 101.432 110.161 99.6595 110.161ZM96.9067 107.425H99.5061C100.722 107.425 101.736 107.204 102.549 106.761C103.361 106.312 103.972 105.644 104.381 104.758C104.79 103.866 104.995 102.752 104.995 101.417C104.995 100.082 104.79 98.9736 104.381 98.093C103.972 97.2066 103.367 96.5447 102.566 96.1072C101.77 95.664 100.782 95.4424 99.5999 95.4424H96.9067V107.425ZM109.695 110.161V92.7066H116.241C117.582 92.7066 118.707 92.9566 119.616 93.4566C120.531 93.9566 121.221 94.6441 121.687 95.5191C122.158 96.3884 122.394 97.377 122.394 98.485C122.394 99.6043 122.158 100.599 121.687 101.468C121.215 102.337 120.519 103.022 119.599 103.522C118.678 104.016 117.545 104.263 116.198 104.263H111.86V101.664H115.772C116.556 101.664 117.198 101.528 117.698 101.255C118.198 100.982 118.568 100.607 118.806 100.13C119.05 99.6526 119.173 99.1043 119.173 98.485C119.173 97.8657 119.05 97.3202 118.806 96.8486C118.568 96.377 118.195 96.0106 117.69 95.7492C117.19 95.4822 116.545 95.3486 115.755 95.3486H112.857V110.161H109.695Z" fill="url(#paint2_linear_3034_3044)"/>
<g opacity="0.4">
<path d="M41.7662 143.216L29.4361 150.932L28.2719 149.072L33.6302 145.719L29.7835 139.572L24.4252 142.925L23.2572 141.058L35.5873 133.342L36.7553 135.209L31.3789 138.573L35.2257 144.72L40.602 141.356L41.7662 143.216Z" fill="#0E344A"/>
<path d="M41.7662 143.216L29.4361 150.932L28.2719 149.072L33.6302 145.719L29.7835 139.572L24.4252 142.925L23.2572 141.058L35.5873 133.342L36.7553 135.209L31.3789 138.573L35.2257 144.72L40.602 141.356L41.7662 143.216Z" fill="url(#paint3_linear_3034_3044)"/>
</g>
<g opacity="0.4">
<path d="M35.5318 132.58L36.453 134.719L21.0232 135.663L20.0206 133.335L31.3107 122.775L32.2319 124.915L22.9247 133.399L22.9697 133.503L35.5318 132.58ZM30.1456 134.473L27.1574 127.532L28.8535 126.802L31.8417 133.743L30.1456 134.473Z" fill="#0E344A"/>
<path d="M35.5318 132.58L36.453 134.719L21.0232 135.663L20.0206 133.335L31.3107 122.775L32.2319 124.915L22.9247 133.399L22.9697 133.503L35.5318 132.58ZM30.1456 134.473L27.1574 127.532L28.8535 126.802L31.8417 133.743L30.1456 134.473Z" fill="url(#paint4_linear_3034_3044)"/>
</g>
<g opacity="0.4">
<path d="M35.451 123.642L30.2359 124.949L30.0028 124.019C29.657 123.769 29.2038 123.568 28.6433 123.415C28.0828 123.263 27.3604 123.195 26.4762 123.212C25.592 123.228 24.4862 123.364 23.1588 123.619L17.1168 124.782L14.9358 116.081L27.2398 112.996L26.8392 111.398L32.0336 110.096L32.5448 112.135L29.1553 112.985L31.5297 122.458L34.9398 121.603L35.451 123.642ZM29.3742 121.511L27.751 115.036L17.2795 117.66L18.4658 122.393L22.6477 121.579C23.6593 121.389 24.5796 121.264 25.4087 121.202C26.2366 121.136 26.9825 121.132 27.6463 121.19C28.3043 121.245 28.8803 121.352 29.3742 121.511Z" fill="#0E344A"/>
<path d="M35.451 123.642L30.2359 124.949L30.0028 124.019C29.657 123.769 29.2038 123.568 28.6433 123.415C28.0828 123.263 27.3604 123.195 26.4762 123.212C25.592 123.228 24.4862 123.364 23.1588 123.619L17.1168 124.782L14.9358 116.081L27.2398 112.996L26.8392 111.398L32.0336 110.096L32.5448 112.135L29.1553 112.985L31.5297 122.458L34.9398 121.603L35.451 123.642ZM29.3742 121.511L27.751 115.036L17.2795 117.66L18.4658 122.393L22.6477 121.579C23.6593 121.389 24.5796 121.264 25.4087 121.202C26.2366 121.136 26.9825 121.132 27.6463 121.19C28.3043 121.245 28.8803 121.352 29.3742 121.511Z" fill="url(#paint5_linear_3034_3044)"/>
</g>
<g opacity="0.4">
<path d="M29.1949 112.904L27.2979 113.06L27.2488 112.637C27.1873 112.062 26.9542 111.625 26.5495 111.326C26.1444 111.022 25.5157 110.829 24.6633 110.747C23.8105 110.661 22.6812 110.649 21.2754 110.713L14.4457 111.025L13.6913 101.859L28.1878 100.666L28.3654 102.825L15.7235 103.865L16.1307 108.813L21.6846 108.584C23.2422 108.517 24.5597 108.566 25.6374 108.729C26.7103 108.892 27.5403 109.252 28.1276 109.807C28.7145 110.357 29.0532 111.182 29.1437 112.281L29.1949 112.904Z" fill="#0E344A"/>
<path d="M29.1949 112.904L27.2979 113.06L27.2488 112.637C27.1873 112.062 26.9542 111.625 26.5495 111.326C26.1444 111.022 25.5157 110.829 24.6633 110.747C23.8105 110.661 22.6812 110.649 21.2754 110.713L14.4457 111.025L13.6913 101.859L28.1878 100.666L28.3654 102.825L15.7235 103.865L16.1307 108.813L21.6846 108.584C23.2422 108.517 24.5597 108.566 25.6374 108.729C26.7103 108.892 27.5403 109.252 28.1276 109.807C28.7145 110.357 29.0532 111.182 29.1437 112.281L29.1949 112.904Z" fill="url(#paint6_linear_3034_3044)"/>
</g>
<g opacity="0.4">
<path d="M28.4432 100.626L13.929 99.6728L14.5268 90.5731L16.412 90.6969L15.958 97.6067L20.3803 97.8973L20.8031 91.4623L22.6811 91.5857L22.2584 98.0206L26.7019 98.3126L27.1614 91.3177L29.0466 91.4415L28.4432 100.626Z" fill="#0E344A"/>
<path d="M28.4432 100.626L13.929 99.6728L14.5268 90.5731L16.412 90.6969L15.958 97.6067L20.3803 97.8973L20.8031 91.4623L22.6811 91.5857L22.2584 98.0206L26.7019 98.3126L27.1614 91.3177L29.0466 91.4415L28.4432 100.626Z" fill="url(#paint7_linear_3034_3044)"/>
</g>
<g opacity="0.4">
<path d="M17.1601 78.6019L31.2786 82.1L30.756 84.2095L16.6374 80.7115L17.1601 78.6019ZM28.7593 92.2684L22.4896 85.915L14.7193 88.4532L15.3649 85.8474L22.3405 83.8586L23.6848 78.4332L18.4377 73.4454L19.0816 70.8464L24.7853 76.7083L33.2753 74.0411L32.6587 76.5298L25.7539 78.5873L24.2354 84.7159L29.3691 89.8073L28.7593 92.2684Z" fill="#0E344A"/>
<path d="M17.1601 78.6019L31.2786 82.1L30.756 84.2095L16.6374 80.7115L17.1601 78.6019ZM28.7593 92.2684L22.4896 85.915L14.7193 88.4532L15.3649 85.8474L22.3405 83.8586L23.6848 78.4332L18.4377 73.4454L19.0816 70.8464L24.7853 76.7083L33.2753 74.0411L32.6587 76.5298L25.7539 78.5873L24.2354 84.7159L29.3691 89.8073L28.7593 92.2684Z" fill="url(#paint8_linear_3034_3044)"/>
</g>
<g opacity="0.4">
<path d="M33.5873 75.3809L32.6178 77.4991L21.5704 66.686L22.6256 64.3805L38.03 65.6746L37.0605 67.7928L24.5255 66.5779L24.4782 66.6813L33.5873 75.3809ZM28.5706 72.6551L31.7157 65.7839L33.3947 66.5524L30.2497 73.4236L28.5706 72.6551Z" fill="#0E344A"/>
<path d="M33.5873 75.3809L32.6178 77.4991L21.5704 66.686L22.6256 64.3805L38.03 65.6746L37.0605 67.7928L24.5255 66.5779L24.4782 66.6813L33.5873 75.3809ZM28.5706 72.6551L31.7157 65.7839L33.3947 66.5524L30.2497 73.4236L28.5706 72.6551Z" fill="url(#paint9_linear_3034_3044)"/>
</g>
<g opacity="0.4">
<path d="M46.3808 50.9963L50.5567 54.2053L49.3519 55.9021L46.5549 53.916L45.786 54.9989L44.2919 53.9381L46.3808 50.9963ZM25.8422 57.9627L27.1005 56.1907L37.4083 63.5099L40.1879 59.5952L29.8801 52.2761L31.1383 50.504L41.4462 57.8232L44.2176 53.9201L33.9097 46.601L35.1639 44.8347L47.0237 53.2559L37.702 66.3839L25.8422 57.9627Z" fill="#0E344A"/>
<path d="M46.3808 50.9963L50.5567 54.2053L49.3519 55.9021L46.5549 53.916L45.786 54.9989L44.2919 53.9381L46.3808 50.9963ZM25.8422 57.9627L27.1005 56.1907L37.4083 63.5099L40.1879 59.5952L29.8801 52.2761L31.1383 50.504L41.4462 57.8232L44.2176 53.9201L33.9097 46.601L35.1639 44.8347L47.0237 53.2559L37.702 66.3839L25.8422 57.9627Z" fill="url(#paint10_linear_3034_3044)"/>
</g>
<g opacity="0.4">
<path d="M47.9659 53.0845L46.2801 54.6923L40.0292 40.5539L41.864 38.804L55.6907 45.7171L54.0049 47.3249L42.8137 41.5492L42.7315 41.6276L47.9659 53.0845ZM44.3174 48.693L49.7858 43.4775L51.0603 44.8138L45.5918 50.0293L44.3174 48.693Z" fill="#0E344A"/>
<path d="M47.9659 53.0845L46.2801 54.6923L40.0292 40.5539L41.864 38.804L55.6907 45.7171L54.0049 47.3249L42.8137 41.5492L42.7315 41.6276L47.9659 53.0845ZM44.3174 48.693L49.7858 43.4775L51.0603 44.8138L45.5918 50.0293L44.3174 48.693Z" fill="url(#paint11_linear_3034_3044)"/>
</g>
<g opacity="0.4">
<path d="M63.7327 40.4684L61.9289 41.731L54.6673 31.3565L52.4097 32.9367C51.8201 33.3494 51.4035 33.774 51.1599 34.2103C50.9135 34.6428 50.8204 35.0837 50.8805 35.5329C50.9406 35.982 51.1282 36.4316 51.4431 36.8816C51.7554 37.3277 52.1082 37.65 52.5015 37.8486C52.8948 38.0472 53.3321 38.1023 53.8135 38.0139C54.2949 37.9255 54.8285 37.6763 55.4142 37.2663L58.4689 35.1281L59.5523 36.6759L56.3288 38.9321C55.4095 39.5756 54.5361 39.9586 53.7087 40.0812C52.8852 40.201 52.1275 40.0928 51.4355 39.7565C50.7446 39.4135 50.144 38.8774 49.6336 38.1482C49.1204 37.415 48.8196 36.6633 48.7312 35.8929C48.6401 35.1187 48.7877 34.3594 49.1741 33.615C49.5643 32.868 50.2191 32.1727 51.1384 31.5292L55.3918 28.5521L63.7327 40.4684ZM54.0869 39.2096L56.0769 37.8167L56.9482 45.2172L54.9059 46.6467L54.0869 39.2096Z" fill="#0E344A"/>
<path d="M63.7327 40.4684L61.9289 41.731L54.6673 31.3565L52.4097 32.9367C51.8201 33.3494 51.4035 33.774 51.1599 34.2103C50.9135 34.6428 50.8204 35.0837 50.8805 35.5329C50.9406 35.982 51.1282 36.4316 51.4431 36.8816C51.7554 37.3277 52.1082 37.65 52.5015 37.8486C52.8948 38.0472 53.3321 38.1023 53.8135 38.0139C54.2949 37.9255 54.8285 37.6763 55.4142 37.2663L58.4689 35.1281L59.5523 36.6759L56.3288 38.9321C55.4095 39.5756 54.5361 39.9586 53.7087 40.0812C52.8852 40.201 52.1275 40.0928 51.4355 39.7565C50.7446 39.4135 50.144 38.8774 49.6336 38.1482C49.1204 37.415 48.8196 36.6633 48.7312 35.8929C48.6401 35.1187 48.7877 34.3594 49.1741 33.615C49.5643 32.868 50.2191 32.1727 51.1384 31.5292L55.3918 28.5521L63.7327 40.4684ZM54.0869 39.2096L56.0769 37.8167L56.9482 45.2172L54.9059 46.6467L54.0869 39.2096Z" fill="url(#paint12_linear_3034_3044)"/>
</g>
<g opacity="0.4">
<path d="M76.0619 19.5975L81.131 33.231L79.0806 33.9934L74.665 22.1173L68.2476 24.5033L72.6633 36.3794L70.6129 37.1418L65.5438 23.5082L76.0619 19.5975Z" fill="#0E344A"/>
<path d="M76.0619 19.5975L81.131 33.231L79.0806 33.9934L74.665 22.1173L68.2476 24.5033L72.6633 36.3794L70.6129 37.1418L65.5438 23.5082L76.0619 19.5975Z" fill="url(#paint13_linear_3034_3044)"/>
</g>
<g opacity="0.4">
<path d="M81.0749 33.4879L78.0433 19.2619L83.1141 18.1813C84.2208 17.9454 85.1807 17.9515 85.9936 18.1994C86.8065 18.4474 87.468 18.8825 87.9783 19.5048C88.4875 20.1224 88.8349 20.8665 89.0204 21.7371C89.2069 22.6124 89.1918 23.4386 88.975 24.2158C88.7618 24.9874 88.3328 25.655 87.6879 26.2184C87.0468 26.7762 86.1751 27.1726 85.0729 27.4074L81.5859 28.1506L81.1981 26.3306L84.4906 25.629C85.1899 25.4799 85.7315 25.2387 86.1155 24.9051C86.4985 24.5669 86.7469 24.1654 86.8609 23.7005C86.9749 23.2357 86.9746 22.7347 86.8601 22.1975C86.7456 21.6603 86.5421 21.2051 86.2495 20.8317C85.957 20.4584 85.5655 20.2005 85.0753 20.0581C84.5896 19.9146 83.9903 19.9189 83.2771 20.0709L80.5819 20.6453L83.2213 33.0305L81.0749 33.4879Z" fill="#0E344A"/>
<path d="M81.0749 33.4879L78.0433 19.2619L83.1141 18.1813C84.2208 17.9454 85.1807 17.9515 85.9936 18.1994C86.8065 18.4474 87.468 18.8825 87.9783 19.5048C88.4875 20.1224 88.8349 20.8665 89.0204 21.7371C89.2069 22.6124 89.1918 23.4386 88.975 24.2158C88.7618 24.9874 88.3328 25.655 87.6879 26.2184C87.0468 26.7762 86.1751 27.1726 85.0729 27.4074L81.5859 28.1506L81.1981 26.3306L84.4906 25.629C85.1899 25.4799 85.7315 25.2387 86.1155 24.9051C86.4985 24.5669 86.7469 24.1654 86.8609 23.7005C86.9749 23.2357 86.9746 22.7347 86.8601 22.1975C86.7456 21.6603 86.5421 21.2051 86.2495 20.8317C85.957 20.4584 85.5655 20.2005 85.0753 20.0581C84.5896 19.9146 83.9903 19.9189 83.2771 20.0709L80.5819 20.6453L83.2213 33.0305L81.0749 33.4879Z" fill="url(#paint14_linear_3034_3044)"/>
</g>
<g opacity="0.4">
<path d="M91.6319 31.5181L89.3074 31.6715L93.5722 16.8128L96.1022 16.6458L102.283 30.8148L99.9589 30.9683L95.0715 19.3617L94.9581 19.3691L91.6319 31.5181ZM91.6464 25.8087L99.1868 25.3108L99.3085 27.1534L91.7681 27.6513L91.6464 25.8087Z" fill="#0E344A"/>
<path d="M91.6319 31.5181L89.3074 31.6715L93.5722 16.8128L96.1022 16.6458L102.283 30.8148L99.9589 30.9683L95.0715 19.3617L94.9581 19.3691L91.6319 31.5181ZM91.6464 25.8087L99.1868 25.3108L99.3085 27.1534L91.7681 27.6513L91.6464 25.8087Z" fill="url(#paint15_linear_3034_3044)"/>
</g>
<g opacity="0.4">
<path d="M110.091 31.7845L105.77 24.8771L104.227 24.747L103.679 31.2439L101.492 31.0595L102.714 16.5655L104.901 16.7498L104.385 22.8716L105.1 22.9319L111.094 17.2719L113.762 17.4969L107.418 23.498L112.759 32.0094L110.091 31.7845Z" fill="#0E344A"/>
<path d="M110.091 31.7845L105.77 24.8771L104.227 24.747L103.679 31.2439L101.492 31.0595L102.714 16.5655L104.901 16.7498L104.385 22.8716L105.1 22.9319L111.094 17.2719L113.762 17.4969L107.418 23.498L112.759 32.0094L110.091 31.7845Z" fill="url(#paint16_linear_3034_3044)"/>
</g>
<g opacity="0.4">
<path d="M113.963 19.5973L114.391 17.7573L125.355 20.3088L124.927 22.1489L120.507 21.1202L117.638 33.447L115.508 32.9512L118.376 20.6244L113.963 19.5973Z" fill="#0E344A"/>
<path d="M113.963 19.5973L114.391 17.7573L125.355 20.3088L124.927 22.1489L120.507 21.1202L117.638 33.447L115.508 32.9512L118.376 20.6244L113.963 19.5973Z" fill="url(#paint17_linear_3034_3044)"/>
</g>
<g opacity="0.4">
<path d="M127.666 21.1906L129.683 22.0005L125.702 31.9129L125.827 31.9632L136.675 24.8086L138.56 25.5655L133.14 39.0633L131.104 38.2455L135.079 28.3462L134.954 28.2959L124.124 35.4427L122.246 34.6884L127.666 21.1906Z" fill="#0E344A"/>
<path d="M127.666 21.1906L129.683 22.0005L125.702 31.9129L125.827 31.9632L136.675 24.8086L138.56 25.5655L133.14 39.0633L131.104 38.2455L135.079 28.3462L134.954 28.2959L124.124 35.4427L122.246 34.6884L127.666 21.1906Z" fill="url(#paint18_linear_3034_3044)"/>
</g>
<g opacity="0.4">
<path d="M139.908 43.3508L138.992 35.2547L137.656 34.4713L134.357 40.095L132.464 38.9846L139.824 26.4384L141.717 27.5488L138.608 32.8479L139.227 33.2108L147.077 30.6932L149.387 32.0479L141.074 34.7224L142.217 44.7055L139.908 43.3508Z" fill="#0E344A"/>
<path d="M139.908 43.3508L138.992 35.2547L137.656 34.4713L134.357 40.095L132.464 38.9846L139.824 26.4384L141.717 27.5488L138.608 32.8479L139.227 33.2108L147.077 30.6932L149.387 32.0479L141.074 34.7224L142.217 44.7055L139.908 43.3508Z" fill="url(#paint19_linear_3034_3044)"/>
</g>
<g opacity="0.4">
<path d="M142.232 45.0613L140.422 43.5947L153.646 35.5886L155.616 37.1848L150.526 51.7814L148.716 50.3148L153.015 38.4775L152.927 38.4059L142.232 45.0613ZM146.122 40.8815L151.993 45.6388L150.831 47.0736L144.959 42.3163L146.122 40.8815Z" fill="#0E344A"/>
<path d="M142.232 45.0613L140.422 43.5947L153.646 35.5886L155.616 37.1848L150.526 51.7814L148.716 50.3148L153.015 38.4775L152.927 38.4059L142.232 45.0613ZM146.122 40.8815L151.993 45.6388L150.831 47.0736L144.959 42.3163L146.122 40.8815Z" fill="url(#paint20_linear_3034_3044)"/>
</g>
<g opacity="0.4">
<path d="M166.055 59.4012C164.844 60.3726 163.624 60.9862 162.397 61.2418C161.174 61.4945 160.018 61.4229 158.93 61.0269C157.848 60.6317 156.915 59.9446 156.13 58.9656C155.342 57.9829 154.872 56.9189 154.718 55.7737C154.571 54.6292 154.756 53.4858 155.272 52.3435C155.789 51.2012 156.651 50.1459 157.859 49.1774C159.071 48.206 160.288 47.5939 161.512 47.3413C162.739 47.0856 163.894 47.1554 164.975 47.5506C166.063 47.9466 167.001 48.6359 167.789 49.6186C168.574 50.5976 169.04 51.6593 169.187 52.8038C169.34 53.9491 169.159 55.0929 168.642 56.2351C168.129 57.3744 167.267 58.4298 166.055 59.4012ZM164.696 57.7056C165.62 56.9651 166.277 56.1921 166.669 55.3864C167.068 54.5815 167.222 53.7901 167.133 53.0123C167.05 52.2352 166.748 51.5216 166.226 50.8714C165.702 50.2175 165.07 49.7656 164.329 49.5157C163.593 49.2628 162.787 49.2415 161.911 49.4516C161.043 49.6625 160.147 50.1382 159.223 50.8786C158.299 51.619 157.638 52.3917 157.24 53.1966C156.848 54.0023 156.694 54.7937 156.776 55.5708C156.863 56.3449 157.168 57.0589 157.693 57.7128C158.214 58.363 158.843 58.8145 159.58 59.0674C160.323 59.321 161.129 59.3423 161.998 59.1314C162.873 58.9213 163.773 58.446 164.696 57.7056Z" fill="#0E344A"/>
<path d="M166.055 59.4012C164.844 60.3726 163.624 60.9862 162.397 61.2418C161.174 61.4945 160.018 61.4229 158.93 61.0269C157.848 60.6317 156.915 59.9446 156.13 58.9656C155.342 57.9829 154.872 56.9189 154.718 55.7737C154.571 54.6292 154.756 53.4858 155.272 52.3435C155.789 51.2012 156.651 50.1459 157.859 49.1774C159.071 48.206 160.288 47.5939 161.512 47.3413C162.739 47.0856 163.894 47.1554 164.975 47.5506C166.063 47.9466 167.001 48.6359 167.789 49.6186C168.574 50.5976 169.04 51.6593 169.187 52.8038C169.34 53.9491 169.159 55.0929 168.642 56.2351C168.129 57.3744 167.267 58.4298 166.055 59.4012ZM164.696 57.7056C165.62 56.9651 166.277 56.1921 166.669 55.3864C167.068 54.5815 167.222 53.7901 167.133 53.0123C167.05 52.2352 166.748 51.5216 166.226 50.8714C165.702 50.2175 165.07 49.7656 164.329 49.5157C163.593 49.2628 162.787 49.2415 161.911 49.4516C161.043 49.6625 160.147 50.1382 159.223 50.8786C158.299 51.619 157.638 52.3917 157.24 53.1966C156.848 54.0023 156.694 54.7937 156.776 55.5708C156.863 56.3449 157.168 57.0589 157.693 57.7128C158.214 58.363 158.843 58.8145 159.58 59.0674C160.323 59.321 161.129 59.3423 161.998 59.1314C162.873 58.9213 163.773 58.446 164.696 57.7056Z" fill="url(#paint21_linear_3034_3044)"/>
</g>
<g opacity="0.4">
<path d="M178.024 66.1875L165.369 73.3588L164.291 71.4556L175.314 65.2088L171.939 59.2521L160.915 65.499L159.837 63.5959L172.492 56.4245L178.024 66.1875Z" fill="#0E344A"/>
<path d="M178.024 66.1875L165.369 73.3588L164.291 71.4556L175.314 65.2088L171.939 59.2521L160.915 65.499L159.837 63.5959L172.492 56.4245L178.024 66.1875Z" fill="url(#paint22_linear_3034_3044)"/>
</g>
<g opacity="0.4">
<path d="M176.612 67.906L178.376 67.2291L182.409 77.7387L180.645 78.4156L179.019 74.1786L167.203 78.7136L166.42 76.6713L178.235 72.1364L176.612 67.906Z" fill="#0E344A"/>
<path d="M176.612 67.906L178.376 67.2291L182.409 77.7387L180.645 78.4156L179.019 74.1786L167.203 78.7136L166.42 76.6713L178.235 72.1364L176.612 67.906Z" fill="url(#paint23_linear_3034_3044)"/>
</g>
<g opacity="0.4">
<path d="M178.452 93.7618C176.933 94.0836 175.568 94.0823 174.357 93.758C173.151 93.4327 172.151 92.8483 171.358 92.0048C170.57 91.1649 170.046 90.1313 169.786 88.9037C169.525 87.6716 169.584 86.5097 169.963 85.418C170.347 84.3299 171.027 83.3922 172.002 82.6048C172.978 81.8174 174.223 81.2633 175.737 80.9425C177.257 80.6207 178.619 80.6225 179.826 80.9478C181.037 81.2721 182.036 81.8542 182.824 82.6941C183.617 83.5376 184.144 84.5754 184.405 85.8075C184.665 87.035 184.603 88.1928 184.219 89.2809C183.84 90.3726 183.163 91.3122 182.188 92.0996C181.217 92.886 179.972 93.44 178.452 93.7618ZM178.002 91.6357C179.16 91.3904 180.095 90.9963 180.808 90.4534C181.526 89.9141 182.021 89.277 182.291 88.5422C182.567 87.811 182.618 87.0378 182.446 86.2225C182.272 85.4026 181.911 84.7144 181.362 84.1579C180.818 83.6003 180.108 83.2184 179.232 83.0119C178.361 82.8091 177.347 82.8303 176.189 83.0756C175.031 83.3208 174.093 83.7131 173.375 84.2524C172.662 84.7954 172.168 85.4325 171.892 86.1636C171.621 86.8938 171.572 87.6689 171.746 88.4888C171.918 89.304 172.277 89.9904 172.821 90.5479C173.37 91.1091 174.08 91.4911 174.951 91.6939C175.827 91.9004 176.844 91.881 178.002 91.6357Z" fill="#0E344A"/>
<path d="M178.452 93.7618C176.933 94.0836 175.568 94.0823 174.357 93.758C173.151 93.4327 172.151 92.8483 171.358 92.0048C170.57 91.1649 170.046 90.1313 169.786 88.9037C169.525 87.6716 169.584 86.5097 169.963 85.418C170.347 84.3299 171.027 83.3922 172.002 82.6048C172.978 81.8174 174.223 81.2633 175.737 80.9425C177.257 80.6207 178.619 80.6225 179.826 80.9478C181.037 81.2721 182.036 81.8542 182.824 82.6941C183.617 83.5376 184.144 84.5754 184.405 85.8075C184.665 87.035 184.603 88.1928 184.219 89.2809C183.84 90.3726 183.163 91.3122 182.188 92.0996C181.217 92.886 179.972 93.44 178.452 93.7618ZM178.002 91.6357C179.16 91.3904 180.095 90.9963 180.808 90.4534C181.526 89.9141 182.021 89.277 182.291 88.5422C182.567 87.811 182.618 87.0378 182.446 86.2225C182.272 85.4026 181.911 84.7144 181.362 84.1579C180.818 83.6003 180.108 83.2184 179.232 83.0119C178.361 82.8091 177.347 82.8303 176.189 83.0756C175.031 83.3208 174.093 83.7131 173.375 84.2524C172.662 84.7954 172.168 85.4325 171.892 86.1636C171.621 86.8938 171.572 87.6689 171.746 88.4888C171.918 89.304 172.277 89.9904 172.821 90.5479C173.37 91.1091 174.08 91.4911 174.951 91.6939C175.827 91.9004 176.844 91.881 178.002 91.6357Z" fill="url(#paint24_linear_3034_3044)"/>
</g>
<g opacity="0.4">
<path d="M170.973 94.4223L185.499 93.6659L185.776 98.9854C185.83 100.016 185.704 100.879 185.399 101.572C185.098 102.266 184.668 102.796 184.109 103.162C183.554 103.527 182.918 103.729 182.199 103.766C181.594 103.797 181.077 103.713 180.649 103.512C180.227 103.312 179.88 103.031 179.61 102.67C179.345 102.314 179.144 101.917 179.007 101.479L178.866 101.486C178.867 101.969 178.735 102.448 178.471 102.922C178.211 103.4 177.827 103.804 177.318 104.134C176.809 104.464 176.178 104.648 175.427 104.688C174.684 104.726 174.008 104.586 173.399 104.267C172.795 103.952 172.301 103.442 171.918 102.737C171.54 102.031 171.322 101.115 171.263 99.9901L170.973 94.4223ZM172.967 96.5161L173.132 99.6794C173.186 100.729 173.429 101.47 173.859 101.903C174.289 102.336 174.81 102.536 175.42 102.505C175.878 102.481 176.293 102.343 176.664 102.091C177.035 101.84 177.323 101.493 177.527 101.051C177.732 100.613 177.819 100.101 177.789 99.5151L177.62 96.2738L172.967 96.5161ZM179.329 96.1848L179.482 99.1211C179.508 99.6129 179.625 100.05 179.835 100.433C180.045 100.82 180.326 101.121 180.678 101.335C181.036 101.553 181.449 101.65 181.917 101.626C182.517 101.594 183.01 101.358 183.395 100.916C183.779 100.474 183.949 99.8178 183.904 98.9478L183.748 95.9547L179.329 96.1848Z" fill="#0E344A"/>
<path d="M170.973 94.4223L185.499 93.6659L185.776 98.9854C185.83 100.016 185.704 100.879 185.399 101.572C185.098 102.266 184.668 102.796 184.109 103.162C183.554 103.527 182.918 103.729 182.199 103.766C181.594 103.797 181.077 103.713 180.649 103.512C180.227 103.312 179.88 103.031 179.61 102.67C179.345 102.314 179.144 101.917 179.007 101.479L178.866 101.486C178.867 101.969 178.735 102.448 178.471 102.922C178.211 103.4 177.827 103.804 177.318 104.134C176.809 104.464 176.178 104.648 175.427 104.688C174.684 104.726 174.008 104.586 173.399 104.267C172.795 103.952 172.301 103.442 171.918 102.737C171.54 102.031 171.322 101.115 171.263 99.9901L170.973 94.4223ZM172.967 96.5161L173.132 99.6794C173.186 100.729 173.429 101.47 173.859 101.903C174.289 102.336 174.81 102.536 175.42 102.505C175.878 102.481 176.293 102.343 176.664 102.091C177.035 101.84 177.323 101.493 177.527 101.051C177.732 100.613 177.819 100.101 177.789 99.5151L177.62 96.2738L172.967 96.5161ZM179.329 96.1848L179.482 99.1211C179.508 99.6129 179.625 100.05 179.835 100.433C180.045 100.82 180.326 101.121 180.678 101.335C181.036 101.553 181.449 101.65 181.917 101.626C182.517 101.594 183.01 101.358 183.395 100.916C183.779 100.474 183.949 99.8178 183.904 98.9478L183.748 95.9547L179.329 96.1848Z" fill="url(#paint25_linear_3034_3044)"/>
</g>
<g opacity="0.4">
<path d="M177.314 118.174C175.77 118.007 174.473 117.581 173.424 116.896C172.378 116.211 171.61 115.345 171.119 114.296C170.631 113.253 170.455 112.108 170.59 110.86C170.726 109.608 171.143 108.522 171.843 107.602C172.546 106.688 173.484 106.008 174.656 105.564C175.828 105.119 177.184 104.98 178.723 105.146C180.267 105.313 181.562 105.739 182.607 106.423C183.657 107.108 184.425 107.973 184.913 109.016C185.404 110.064 185.582 111.215 185.447 112.467C185.312 113.714 184.892 114.795 184.189 115.71C183.489 116.63 182.553 117.312 181.381 117.756C180.214 118.202 178.858 118.341 177.314 118.174ZM177.548 116.013C178.725 116.14 179.736 116.057 180.583 115.763C181.433 115.474 182.101 115.022 182.587 114.408C183.076 113.799 183.366 113.08 183.456 112.252C183.546 111.418 183.417 110.652 183.068 109.952C182.725 109.253 182.169 108.669 181.401 108.2C180.636 107.737 179.666 107.441 178.489 107.314C177.312 107.187 176.298 107.267 175.448 107.557C174.602 107.851 173.934 108.302 173.444 108.911C172.959 109.521 172.672 110.242 172.581 111.076C172.492 111.904 172.619 112.668 172.962 113.367C173.31 114.071 173.866 114.655 174.63 115.119C175.399 115.588 176.371 115.886 177.548 116.013Z" fill="#0E344A"/>
<path d="M177.314 118.174C175.77 118.007 174.473 117.581 173.424 116.896C172.378 116.211 171.61 115.345 171.119 114.296C170.631 113.253 170.455 112.108 170.59 110.86C170.726 109.608 171.143 108.522 171.843 107.602C172.546 106.688 173.484 106.008 174.656 105.564C175.828 105.119 177.184 104.98 178.723 105.146C180.267 105.313 181.562 105.739 182.607 106.423C183.657 107.108 184.425 107.973 184.913 109.016C185.404 110.064 185.582 111.215 185.447 112.467C185.312 113.714 184.892 114.795 184.189 115.71C183.489 116.63 182.553 117.312 181.381 117.756C180.214 118.202 178.858 118.341 177.314 118.174ZM177.548 116.013C178.725 116.14 179.736 116.057 180.583 115.763C181.433 115.474 182.101 115.022 182.587 114.408C183.076 113.799 183.366 113.08 183.456 112.252C183.546 111.418 183.417 110.652 183.068 109.952C182.725 109.253 182.169 108.669 181.401 108.2C180.636 107.737 179.666 107.441 178.489 107.314C177.312 107.187 176.298 107.267 175.448 107.557C174.602 107.851 173.934 108.302 173.444 108.911C172.959 109.521 172.672 110.242 172.581 111.076C172.492 111.904 172.619 112.668 172.962 113.367C173.31 114.071 173.866 114.655 174.63 115.119C175.399 115.588 176.371 115.886 177.548 116.013Z" fill="url(#paint26_linear_3034_3044)"/>
</g>
<g opacity="0.4">
<path d="M184.036 120.419L183.456 122.514L173.162 119.664L173.126 119.794L181.446 129.776L180.904 131.734L166.886 127.854L167.471 125.739L177.752 128.585L177.788 128.454L169.478 118.49L170.018 116.539L184.036 120.419ZM185.657 128.407L185.191 130.091C184.42 129.877 183.868 129.43 183.536 128.748C183.207 128.073 183.171 127.272 183.428 126.345C183.683 125.424 184.125 124.758 184.755 124.347C185.389 123.938 186.091 123.84 186.862 124.054L186.398 125.731C186.056 125.636 185.725 125.652 185.404 125.78C185.089 125.909 184.863 126.217 184.728 126.705C184.596 127.185 184.631 127.563 184.834 127.84C185.036 128.122 185.311 128.311 185.657 128.407Z" fill="#0E344A"/>
<path d="M184.036 120.419L183.456 122.514L173.162 119.664L173.126 119.794L181.446 129.776L180.904 131.734L166.886 127.854L167.471 125.739L177.752 128.585L177.788 128.454L169.478 118.49L170.018 116.539L184.036 120.419ZM185.657 128.407L185.191 130.091C184.42 129.877 183.868 129.43 183.536 128.748C183.207 128.073 183.171 127.272 183.428 126.345C183.683 125.424 184.125 124.758 184.755 124.347C185.389 123.938 186.091 123.84 186.862 124.054L186.398 125.731C186.056 125.636 185.725 125.652 185.404 125.78C185.089 125.909 184.863 126.217 184.728 126.705C184.596 127.185 184.631 127.563 184.834 127.84C185.036 128.122 185.311 128.311 185.657 128.407Z" fill="url(#paint27_linear_3034_3044)"/>
</g>
<g opacity="0.4">
<path d="M172.967 147.873L160.088 141.112L161.105 139.176L172.324 145.064L175.506 139.002L164.287 133.113L165.304 131.176L178.183 137.937L172.967 147.873Z" fill="#0E344A"/>
<path d="M172.967 147.873L160.088 141.112L161.105 139.176L172.324 145.064L175.506 139.002L164.287 133.113L165.304 131.176L178.183 137.937L172.967 147.873Z" fill="url(#paint28_linear_3034_3044)"/>
</g>
<g opacity="0.4">
<path d="M159.915 140.988L171.646 149.588L168.58 153.77C167.911 154.682 167.191 155.317 166.419 155.673C165.647 156.028 164.864 156.144 164.069 156.019C163.278 155.897 162.523 155.573 161.805 155.046C161.084 154.517 160.545 153.891 160.19 153.166C159.835 152.448 159.711 151.665 159.818 150.815C159.925 149.972 160.312 149.096 160.978 148.187L163.086 145.312L164.587 146.412L162.596 149.127C162.174 149.704 161.93 150.244 161.865 150.749C161.805 151.256 161.886 151.721 162.111 152.144C162.335 152.567 162.669 152.94 163.111 153.265C163.554 153.59 164.009 153.794 164.476 153.878C164.943 153.962 165.407 153.894 165.868 153.674C166.325 153.458 166.77 153.056 167.201 152.468L168.83 150.245L158.618 142.758L159.915 140.988Z" fill="#0E344A"/>
<path d="M159.915 140.988L171.646 149.588L168.58 153.77C167.911 154.682 167.191 155.317 166.419 155.673C165.647 156.028 164.864 156.144 164.069 156.019C163.278 155.897 162.523 155.573 161.805 155.046C161.084 154.517 160.545 153.891 160.19 153.166C159.835 152.448 159.711 151.665 159.818 150.815C159.925 149.972 160.312 149.096 160.978 148.187L163.086 145.312L164.587 146.412L162.596 149.127C162.174 149.704 161.93 150.244 161.865 150.749C161.805 151.256 161.886 151.721 162.111 152.144C162.335 152.567 162.669 152.94 163.111 153.265C163.554 153.59 164.009 153.794 164.476 153.878C164.943 153.962 165.407 153.894 165.868 153.674C166.325 153.458 166.77 153.056 167.201 152.468L168.83 150.245L158.618 142.758L159.915 140.988Z" fill="url(#paint29_linear_3034_3044)"/>
</g>
<g opacity="0.4">
<path d="M150.342 162.807C149.246 161.708 148.504 160.562 148.117 159.369C147.734 158.18 147.68 157.023 147.956 155.899C148.232 154.781 148.815 153.779 149.703 152.893C150.595 152.004 151.602 151.421 152.724 151.144C153.846 150.875 155.002 150.935 156.194 151.325C157.385 151.715 158.527 152.458 159.621 153.554C160.717 154.654 161.457 155.798 161.841 156.987C162.227 158.18 162.283 159.335 162.007 160.453C161.731 161.577 161.147 162.584 160.255 163.474C159.367 164.36 158.361 164.938 157.239 165.207C156.117 165.484 154.961 165.427 153.769 165.037C152.581 164.65 151.439 163.907 150.342 162.807ZM151.881 161.273C152.717 162.111 153.557 162.681 154.4 162.984C155.243 163.293 156.047 163.361 156.81 163.188C157.574 163.021 158.251 162.644 158.841 162.056C159.434 161.464 159.815 160.786 159.983 160.023C160.155 159.263 160.089 158.46 159.786 157.612C159.482 156.772 158.913 155.932 158.077 155.094C157.241 154.256 156.401 153.682 155.558 153.373C154.715 153.071 153.911 153.002 153.148 153.169C152.387 153.339 151.711 153.719 151.117 154.311C150.527 154.9 150.146 155.574 149.974 156.333C149.803 157.1 149.869 157.904 150.172 158.744C150.476 159.592 151.045 160.435 151.881 161.273Z" fill="#0E344A"/>
<path d="M150.342 162.807C149.246 161.708 148.504 160.562 148.117 159.369C147.734 158.18 147.68 157.023 147.956 155.899C148.232 154.781 148.815 153.779 149.703 152.893C150.595 152.004 151.602 151.421 152.724 151.144C153.846 150.875 155.002 150.935 156.194 151.325C157.385 151.715 158.527 152.458 159.621 153.554C160.717 154.654 161.457 155.798 161.841 156.987C162.227 158.18 162.283 159.335 162.007 160.453C161.731 161.577 161.147 162.584 160.255 163.474C159.367 164.36 158.361 164.938 157.239 165.207C156.117 165.484 154.961 165.427 153.769 165.037C152.581 164.65 151.439 163.907 150.342 162.807ZM151.881 161.273C152.717 162.111 153.557 162.681 154.4 162.984C155.243 163.293 156.047 163.361 156.81 163.188C157.574 163.021 158.251 162.644 158.841 162.056C159.434 161.464 159.815 160.786 159.983 160.023C160.155 159.263 160.089 158.46 159.786 157.612C159.482 156.772 158.913 155.932 158.077 155.094C157.241 154.256 156.401 153.682 155.558 153.373C154.715 153.071 153.911 153.002 153.148 153.169C152.387 153.339 151.711 153.719 151.117 154.311C150.527 154.9 150.146 155.574 149.974 156.333C149.803 157.1 149.869 157.904 150.172 158.744C150.476 159.592 151.045 160.435 151.881 161.273Z" fill="url(#paint30_linear_3034_3044)"/>
</g>
<g opacity="0.4">
<path d="M144.657 153.374L147.772 157.756L146.991 158.311C146.884 158.724 146.861 159.22 146.923 159.797C146.985 160.375 147.185 161.072 147.522 161.89C147.859 162.708 148.388 163.688 149.108 164.832L152.39 170.037L145.079 175.234L137.729 164.896L136.386 165.85L133.283 161.486L134.997 160.268L137.021 163.116L144.981 157.457L142.944 154.592L144.657 153.374ZM144.884 159.809L139.442 163.677L145.697 172.476L149.674 169.649L147.394 166.05C146.849 165.177 146.397 164.365 146.038 163.615C145.676 162.868 145.401 162.175 145.213 161.536C145.025 160.903 144.915 160.327 144.884 159.809Z" fill="#0E344A"/>
<path d="M144.657 153.374L147.772 157.756L146.991 158.311C146.884 158.724 146.861 159.22 146.923 159.797C146.985 160.375 147.185 161.072 147.522 161.89C147.859 162.708 148.388 163.688 149.108 164.832L152.39 170.037L145.079 175.234L137.729 164.896L136.386 165.85L133.283 161.486L134.997 160.268L137.021 163.116L144.981 157.457L142.944 154.592L144.657 153.374ZM144.884 159.809L139.442 163.677L145.697 172.476L149.674 169.649L147.394 166.05C146.849 165.177 146.397 164.365 146.038 163.615C145.676 162.868 145.401 162.175 145.213 161.536C145.025 160.903 144.915 160.327 144.884 159.809Z" fill="url(#paint31_linear_3034_3044)"/>
</g>
<g opacity="0.4">
<path d="M134.936 164.15L137.026 163.121L138.758 178.482L136.484 179.603L125.361 168.867L127.45 167.838L136.399 176.699L136.501 176.649L134.936 164.15ZM137.103 169.433L130.324 172.772L129.508 171.115L136.287 167.776L137.103 169.433Z" fill="#0E344A"/>
<path d="M134.936 164.15L137.026 163.121L138.758 178.482L136.484 179.603L125.361 168.867L127.45 167.838L136.399 176.699L136.501 176.649L134.936 164.15ZM137.103 169.433L130.324 172.772L129.508 171.115L136.287 167.776L137.103 169.433Z" fill="url(#paint32_linear_3034_3044)"/>
</g>
<g opacity="0.4">
<path d="M120.98 185.095L117.019 171.1L119.11 170.508L123.071 184.503L120.98 185.095ZM127.099 168.247L124.689 176.841L130.746 182.331L128.163 183.062L122.977 177.99L117.599 179.512L115.869 186.542L113.292 187.271L115.556 179.412L109.03 173.361L111.497 172.663L116.707 177.639L122.782 175.92L124.659 168.937L127.099 168.247Z" fill="#0E344A"/>
<path d="M120.98 185.095L117.019 171.1L119.11 170.508L123.071 184.503L120.98 185.095ZM127.099 168.247L124.689 176.841L130.746 182.331L128.163 183.062L122.977 177.99L117.599 179.512L115.869 186.542L113.292 187.271L115.556 179.412L109.03 173.361L111.497 172.663L116.707 177.639L122.782 175.92L124.659 168.937L127.099 168.247Z" fill="url(#paint33_linear_3034_3044)"/>
</g>
<g opacity="0.4">
<path d="M112.629 186.815L110.465 187.014L109.484 176.378L109.35 176.39L102.961 187.706L100.938 187.893L99.6029 173.409L101.788 173.207L102.768 183.83L102.902 183.817L109.278 172.517L111.293 172.331L112.629 186.815Z" fill="#0E344A"/>
<path d="M112.629 186.815L110.465 187.014L109.484 176.378L109.35 176.39L102.961 187.706L100.938 187.893L99.6029 173.409L101.788 173.207L102.768 183.83L102.902 183.817L109.278 172.517L111.293 172.331L112.629 186.815Z" fill="url(#paint34_linear_3034_3044)"/>
</g>
</g>
<defs>
<linearGradient id="paint0_linear_3034_3044" x1="1.8804" y1="99.5379" x2="199.185" y2="99.5379" gradientUnits="userSpaceOnUse">
<stop stop-color="#3793AE"/>
<stop offset="1" stop-color="#074287"/>
</linearGradient>
<linearGradient id="paint1_linear_3034_3044" x1="45.1133" y1="101.774" x2="154.431" y2="101.774" gradientUnits="userSpaceOnUse">
<stop stop-color="#3793AE"/>
<stop offset="1" stop-color="#074287"/>
</linearGradient>
<linearGradient id="paint2_linear_3034_3044" x1="56.5826" y1="101.775" x2="142.792" y2="101.775" gradientUnits="userSpaceOnUse">
<stop stop-color="#3793AE"/>
<stop offset="1" stop-color="#074287"/>
</linearGradient>
<linearGradient id="paint3_linear_3034_3044" x1="36.4657" y1="148.317" x2="30.0123" y2="138.004" gradientUnits="userSpaceOnUse">
<stop stop-color="#3793AE"/>
<stop offset="1" stop-color="#074287"/>
</linearGradient>
<linearGradient id="paint4_linear_3034_3044" x1="30.0032" y1="137.944" x2="25.1928" y2="126.77" gradientUnits="userSpaceOnUse">
<stop stop-color="#3793AE"/>
<stop offset="1" stop-color="#074287"/>
</linearGradient>
<linearGradient id="paint5_linear_3034_3044" x1="25.1564" y1="126.64" x2="22.0014" y2="114.054" gradientUnits="userSpaceOnUse">
<stop stop-color="#3793AE"/>
<stop offset="1" stop-color="#074287"/>
</linearGradient>
<linearGradient id="paint6_linear_3034_3044" x1="22.0538" y1="113.904" x2="21.0561" y2="101.78" gradientUnits="userSpaceOnUse">
<stop stop-color="#3793AE"/>
<stop offset="1" stop-color="#074287"/>
</linearGradient>
<linearGradient id="paint7_linear_3034_3044" x1="21.1597" y1="101.675" x2="21.8509" y2="91.1541" gradientUnits="userSpaceOnUse">
<stop stop-color="#3793AE"/>
<stop offset="1" stop-color="#074287"/>
</linearGradient>
<linearGradient id="paint8_linear_3034_3044" x1="21.6659" y1="90.9634" x2="25.5667" y2="75.2193" gradientUnits="userSpaceOnUse">
<stop stop-color="#3793AE"/>
<stop offset="1" stop-color="#074287"/>
</linearGradient>
<linearGradient id="paint9_linear_3034_3044" x1="25.9007" y1="74.8767" x2="30.9637" y2="63.8153" gradientUnits="userSpaceOnUse">
<stop stop-color="#3793AE"/>
<stop offset="1" stop-color="#074287"/>
</linearGradient>
<linearGradient id="paint10_linear_3034_3044" x1="30.8657" y1="63.577" x2="40.726" y2="49.6905" gradientUnits="userSpaceOnUse">
<stop stop-color="#3793AE"/>
<stop offset="1" stop-color="#074287"/>
</linearGradient>
<linearGradient id="paint11_linear_3034_3044" x1="41.0141" y1="49.7664" x2="49.8173" y2="41.3704" gradientUnits="userSpaceOnUse">
<stop stop-color="#3793AE"/>
<stop offset="1" stop-color="#074287"/>
</linearGradient>
<linearGradient id="paint12_linear_3034_3044" x1="49.9126" y1="41.3544" x2="59.2144" y2="34.8436" gradientUnits="userSpaceOnUse">
<stop stop-color="#3793AE"/>
<stop offset="1" stop-color="#074287"/>
</linearGradient>
<linearGradient id="paint13_linear_3034_3044" x1="66.5471" y1="30.9729" x2="77.9495" y2="26.7334" gradientUnits="userSpaceOnUse">
<stop stop-color="#3793AE"/>
<stop offset="1" stop-color="#074287"/>
</linearGradient>
<linearGradient id="paint14_linear_3034_3044" x1="78.0845" y1="26.7645" x2="88.396" y2="24.567" gradientUnits="userSpaceOnUse">
<stop stop-color="#3793AE"/>
<stop offset="1" stop-color="#074287"/>
</linearGradient>
<linearGradient id="paint15_linear_3034_3044" x1="88.423" y1="24.5152" x2="100.562" y2="23.7138" gradientUnits="userSpaceOnUse">
<stop stop-color="#3793AE"/>
<stop offset="1" stop-color="#074287"/>
</linearGradient>
<linearGradient id="paint16_linear_3034_3044" x1="100.585" y1="23.7584" x2="111.899" y2="24.7122" gradientUnits="userSpaceOnUse">
<stop stop-color="#3793AE"/>
<stop offset="1" stop-color="#074287"/>
</linearGradient>
<linearGradient id="paint17_linear_3034_3044" x1="111.947" y1="24.731" x2="123.005" y2="27.3046" gradientUnits="userSpaceOnUse">
<stop stop-color="#3793AE"/>
<stop offset="1" stop-color="#074287"/>
</linearGradient>
<linearGradient id="paint18_linear_3034_3044" x1="123.525" y1="27.4445" x2="134.814" y2="31.9777" gradientUnits="userSpaceOnUse">
<stop stop-color="#3793AE"/>
<stop offset="1" stop-color="#074287"/>
</linearGradient>
<linearGradient id="paint19_linear_3034_3044" x1="134.798" y1="32.0071" x2="144.591" y2="37.752" gradientUnits="userSpaceOnUse">
<stop stop-color="#3793AE"/>
<stop offset="1" stop-color="#074287"/>
</linearGradient>
<linearGradient id="paint20_linear_3034_3044" x1="144.635" y1="37.7425" x2="154.087" y2="45.4008" gradientUnits="userSpaceOnUse">
<stop stop-color="#3793AE"/>
<stop offset="1" stop-color="#074287"/>
</linearGradient>
<linearGradient id="paint21_linear_3034_3044" x1="157.153" y1="48.414" x2="165.269" y2="58.5383" gradientUnits="userSpaceOnUse">
<stop stop-color="#3793AE"/>
<stop offset="1" stop-color="#074287"/>
</linearGradient>
<linearGradient id="paint22_linear_3034_3044" x1="165.281" y1="58.6014" x2="171.279" y2="69.1852" gradientUnits="userSpaceOnUse">
<stop stop-color="#3793AE"/>
<stop offset="1" stop-color="#074287"/>
</linearGradient>
<linearGradient id="paint23_linear_3034_3044" x1="171.23" y1="69.1142" x2="175.299" y2="79.7144" gradientUnits="userSpaceOnUse">
<stop stop-color="#3793AE"/>
<stop offset="1" stop-color="#074287"/>
</linearGradient>
<linearGradient id="paint24_linear_3034_3044" x1="175.45" y1="79.9428" x2="178.139" y2="92.6373" gradientUnits="userSpaceOnUse">
<stop stop-color="#3793AE"/>
<stop offset="1" stop-color="#074287"/>
</linearGradient>
<linearGradient id="paint25_linear_3034_3044" x1="178.084" y1="92.5323" x2="178.674" y2="103.871" gradientUnits="userSpaceOnUse">
<stop stop-color="#3793AE"/>
<stop offset="1" stop-color="#074287"/>
</linearGradient>
<linearGradient id="paint26_linear_3034_3044" x1="178.762" y1="104.107" x2="177.366" y2="117.008" gradientUnits="userSpaceOnUse">
<stop stop-color="#3793AE"/>
<stop offset="1" stop-color="#074287"/>
</linearGradient>
<linearGradient id="paint27_linear_3034_3044" x1="177.359" y1="117.003" x2="174.114" y2="128.727" gradientUnits="userSpaceOnUse">
<stop stop-color="#3793AE"/>
<stop offset="1" stop-color="#074287"/>
</linearGradient>
<linearGradient id="paint28_linear_3034_3044" x1="172.45" y1="133.051" x2="166.796" y2="143.823" gradientUnits="userSpaceOnUse">
<stop stop-color="#3793AE"/>
<stop offset="1" stop-color="#074287"/>
</linearGradient>
<linearGradient id="paint29_linear_3034_3044" x1="166.622" y1="144.016" x2="160.388" y2="152.519" gradientUnits="userSpaceOnUse">
<stop stop-color="#3793AE"/>
<stop offset="1" stop-color="#074287"/>
</linearGradient>
<linearGradient id="paint30_linear_3034_3044" x1="160.303" y1="152.77" x2="151.115" y2="161.933" gradientUnits="userSpaceOnUse">
<stop stop-color="#3793AE"/>
<stop offset="1" stop-color="#074287"/>
</linearGradient>
<linearGradient id="paint31_linear_3034_3044" x1="151.196" y1="161.872" x2="140.62" y2="169.39" gradientUnits="userSpaceOnUse">
<stop stop-color="#3793AE"/>
<stop offset="1" stop-color="#074287"/>
</linearGradient>
<linearGradient id="paint32_linear_3034_3044" x1="140.576" y1="169.397" x2="129.663" y2="174.773" gradientUnits="userSpaceOnUse">
<stop stop-color="#3793AE"/>
<stop offset="1" stop-color="#074287"/>
</linearGradient>
<linearGradient id="paint33_linear_3034_3044" x1="129.482" y1="175.054" x2="113.875" y2="179.471" gradientUnits="userSpaceOnUse">
<stop stop-color="#3793AE"/>
<stop offset="1" stop-color="#074287"/>
</linearGradient>
<linearGradient id="paint34_linear_3034_3044" x1="113.46" y1="179.361" x2="101.346" y2="180.477" gradientUnits="userSpaceOnUse">
<stop stop-color="#3793AE"/>
<stop offset="1" stop-color="#074287"/>
</linearGradient>
<clipPath id="clip0_3034_3044">
<rect width="199" height="199" fill="white"/>
</clipPath>
</defs>
</svg>
