<svg width="208" height="208" viewBox="0 0 208 208" fill="none" xmlns="http://www.w3.org/2000/svg">
<g clip-path="url(#clip0_3034_3185)">
<circle cx="100.136" cy="104.514" r="54.9405" stroke="url(#paint0_linear_3034_3185)"/>
<path d="M91.4589 100.842C91.3169 100.382 91.1209 99.9698 90.8709 99.6062C90.6265 99.2369 90.3311 98.9215 89.9845 98.6602C89.6436 98.3988 89.2515 98.2028 88.8084 98.0721C88.3652 97.9357 87.8822 97.8675 87.3595 97.8675C86.422 97.8675 85.5868 98.1033 84.8538 98.5749C84.1209 99.0465 83.5441 99.7397 83.1237 100.654C82.7089 101.564 82.5015 102.672 82.5015 103.978C82.5015 105.297 82.7089 106.413 83.1237 107.328C83.5385 108.243 84.1152 108.939 84.8538 109.416C85.5924 109.887 86.4504 110.123 87.4277 110.123C88.314 110.123 89.0811 109.953 89.7288 109.612C90.3822 109.271 90.8851 108.788 91.2373 108.163C91.5896 107.532 91.7657 106.794 91.7657 105.947L92.4816 106.058H87.743V103.586H94.8254V105.683C94.8254 107.177 94.5072 108.47 93.8709 109.561C93.2345 110.652 92.3595 111.493 91.2459 112.083C90.1322 112.669 88.8538 112.961 87.4106 112.961C85.8027 112.961 84.3907 112.6 83.1748 111.879C81.9646 111.152 81.0186 110.12 80.3368 108.785C79.6606 107.444 79.3226 105.853 79.3226 104.012C79.3226 102.603 79.5214 101.345 79.9191 100.237C80.3226 99.1289 80.8851 98.1886 81.6066 97.4158C82.3282 96.6374 83.1748 96.0465 84.1464 95.6431C85.118 95.234 86.1748 95.0295 87.3169 95.0295C88.2828 95.0295 89.1834 95.1715 90.0186 95.4556C90.8538 95.734 91.5953 96.1317 92.243 96.6488C92.8964 97.1658 93.4334 97.7795 93.8538 98.4897C94.2743 99.1999 94.5498 99.984 94.6805 100.842H91.4589ZM98.8293 99.6317L101.471 104.464L104.156 99.6317H107.42L103.474 106.177L107.488 112.723H104.241L101.471 108.01L98.727 112.723H95.4543L99.4429 106.177L95.5566 99.6317H98.8293ZM108.503 112.723V95.2681H115.048C116.389 95.2681 117.514 95.5181 118.423 96.0181C119.338 96.5181 120.028 97.2056 120.494 98.0806C120.966 98.9499 121.202 99.9386 121.202 101.047C121.202 102.166 120.966 103.16 120.494 104.029C120.023 104.899 119.327 105.583 118.406 106.083C117.486 106.578 116.352 106.825 115.006 106.825H110.668V104.225H114.58C115.364 104.225 116.006 104.089 116.506 103.816C117.006 103.544 117.375 103.169 117.614 102.691C117.858 102.214 117.98 101.666 117.98 101.047C117.98 100.427 117.858 99.8817 117.614 99.4102C117.375 98.9386 117.003 98.5721 116.497 98.3107C115.997 98.0437 115.352 97.9102 114.563 97.9102H111.665V112.723H108.503Z" fill="#3793AE"/>
<path d="M91.4589 100.842C91.3169 100.382 91.1209 99.9698 90.8709 99.6062C90.6265 99.2369 90.3311 98.9215 89.9845 98.6602C89.6436 98.3988 89.2515 98.2028 88.8084 98.0721C88.3652 97.9357 87.8822 97.8675 87.3595 97.8675C86.422 97.8675 85.5868 98.1033 84.8538 98.5749C84.1209 99.0465 83.5441 99.7397 83.1237 100.654C82.7089 101.564 82.5015 102.672 82.5015 103.978C82.5015 105.297 82.7089 106.413 83.1237 107.328C83.5385 108.243 84.1152 108.939 84.8538 109.416C85.5924 109.887 86.4504 110.123 87.4277 110.123C88.314 110.123 89.0811 109.953 89.7288 109.612C90.3822 109.271 90.8851 108.788 91.2373 108.163C91.5896 107.532 91.7657 106.794 91.7657 105.947L92.4816 106.058H87.743V103.586H94.8254V105.683C94.8254 107.177 94.5072 108.47 93.8709 109.561C93.2345 110.652 92.3595 111.493 91.2459 112.083C90.1322 112.669 88.8538 112.961 87.4106 112.961C85.8027 112.961 84.3907 112.6 83.1748 111.879C81.9646 111.152 81.0186 110.12 80.3368 108.785C79.6606 107.444 79.3226 105.853 79.3226 104.012C79.3226 102.603 79.5214 101.345 79.9191 100.237C80.3226 99.1289 80.8851 98.1886 81.6066 97.4158C82.3282 96.6374 83.1748 96.0465 84.1464 95.6431C85.118 95.234 86.1748 95.0295 87.3169 95.0295C88.2828 95.0295 89.1834 95.1715 90.0186 95.4556C90.8538 95.734 91.5953 96.1317 92.243 96.6488C92.8964 97.1658 93.4334 97.7795 93.8538 98.4897C94.2743 99.1999 94.5498 99.984 94.6805 100.842H91.4589ZM98.8293 99.6317L101.471 104.464L104.156 99.6317H107.42L103.474 106.177L107.488 112.723H104.241L101.471 108.01L98.727 112.723H95.4543L99.4429 106.177L95.5566 99.6317H98.8293ZM108.503 112.723V95.2681H115.048C116.389 95.2681 117.514 95.5181 118.423 96.0181C119.338 96.5181 120.028 97.2056 120.494 98.0806C120.966 98.9499 121.202 99.9386 121.202 101.047C121.202 102.166 120.966 103.16 120.494 104.029C120.023 104.899 119.327 105.583 118.406 106.083C117.486 106.578 116.352 106.825 115.006 106.825H110.668V104.225H114.58C115.364 104.225 116.006 104.089 116.506 103.816C117.006 103.544 117.375 103.169 117.614 102.691C117.858 102.214 117.98 101.666 117.98 101.047C117.98 100.427 117.858 99.8817 117.614 99.4102C117.375 98.9386 117.003 98.5721 116.497 98.3107C115.997 98.0437 115.352 97.9102 114.563 97.9102H111.665V112.723H108.503Z" fill="white"/>
<path d="M91.4589 100.842C91.3169 100.382 91.1209 99.9698 90.8709 99.6062C90.6265 99.2369 90.3311 98.9215 89.9845 98.6602C89.6436 98.3988 89.2515 98.2028 88.8084 98.0721C88.3652 97.9357 87.8822 97.8675 87.3595 97.8675C86.422 97.8675 85.5868 98.1033 84.8538 98.5749C84.1209 99.0465 83.5441 99.7397 83.1237 100.654C82.7089 101.564 82.5015 102.672 82.5015 103.978C82.5015 105.297 82.7089 106.413 83.1237 107.328C83.5385 108.243 84.1152 108.939 84.8538 109.416C85.5924 109.887 86.4504 110.123 87.4277 110.123C88.314 110.123 89.0811 109.953 89.7288 109.612C90.3822 109.271 90.8851 108.788 91.2373 108.163C91.5896 107.532 91.7657 106.794 91.7657 105.947L92.4816 106.058H87.743V103.586H94.8254V105.683C94.8254 107.177 94.5072 108.47 93.8709 109.561C93.2345 110.652 92.3595 111.493 91.2459 112.083C90.1322 112.669 88.8538 112.961 87.4106 112.961C85.8027 112.961 84.3907 112.6 83.1748 111.879C81.9646 111.152 81.0186 110.12 80.3368 108.785C79.6606 107.444 79.3226 105.853 79.3226 104.012C79.3226 102.603 79.5214 101.345 79.9191 100.237C80.3226 99.1289 80.8851 98.1886 81.6066 97.4158C82.3282 96.6374 83.1748 96.0465 84.1464 95.6431C85.118 95.234 86.1748 95.0295 87.3169 95.0295C88.2828 95.0295 89.1834 95.1715 90.0186 95.4556C90.8538 95.734 91.5953 96.1317 92.243 96.6488C92.8964 97.1658 93.4334 97.7795 93.8538 98.4897C94.2743 99.1999 94.5498 99.984 94.6805 100.842H91.4589ZM98.8293 99.6317L101.471 104.464L104.156 99.6317H107.42L103.474 106.177L107.488 112.723H104.241L101.471 108.01L98.727 112.723H95.4543L99.4429 106.177L95.5566 99.6317H98.8293ZM108.503 112.723V95.2681H115.048C116.389 95.2681 117.514 95.5181 118.423 96.0181C119.338 96.5181 120.028 97.2056 120.494 98.0806C120.966 98.9499 121.202 99.9386 121.202 101.047C121.202 102.166 120.966 103.16 120.494 104.029C120.023 104.899 119.327 105.583 118.406 106.083C117.486 106.578 116.352 106.825 115.006 106.825H110.668V104.225H114.58C115.364 104.225 116.006 104.089 116.506 103.816C117.006 103.544 117.375 103.169 117.614 102.691C117.858 102.214 117.98 101.666 117.98 101.047C117.98 100.427 117.858 99.8817 117.614 99.4102C117.375 98.9386 117.003 98.5721 116.497 98.3107C115.997 98.0437 115.352 97.9102 114.563 97.9102H111.665V112.723H108.503Z" fill="url(#paint1_linear_3034_3185)"/>
<circle cx="104.407" cy="104.09" r="99.5633" stroke="url(#paint2_linear_3034_3185)"/>
<g opacity="0.4">
<path d="M33.1159 58.8225L44.985 67.2305L43.7205 69.0155L33.3814 61.6913L29.4237 67.2782L39.7628 74.6023L38.4984 76.3873L26.6292 67.9793L33.1159 58.8225Z" fill="#0E344A"/>
<path d="M33.1159 58.8225L44.985 67.2305L43.7205 69.0155L33.3814 61.6913L29.4237 67.2782L39.7628 74.6023L38.4984 76.3873L26.6292 67.9793L33.1159 58.8225Z" fill="url(#paint3_linear_3034_3185)"/>
</g>
<g opacity="0.4">
<path d="M46.3114 65.755L35.6755 55.833L39.2121 52.0419C39.984 51.2144 40.7741 50.6694 41.5824 50.4068C42.3907 50.1442 43.1823 50.1218 43.957 50.3394C44.7282 50.5538 45.4393 50.9646 46.0902 51.5718C46.7446 52.1823 47.2056 52.8681 47.4732 53.6293C47.7406 54.3839 47.7715 55.1767 47.5659 56.008C47.36 56.8326 46.8727 57.6569 46.104 58.4809L43.672 61.0879L42.3113 59.8186L44.6077 57.357C45.0954 56.8342 45.4011 56.3261 45.5246 55.8327C45.6447 55.336 45.6183 54.8646 45.4454 54.4183C45.2724 53.9721 44.9851 53.5616 44.5835 53.187C44.1819 52.8123 43.7542 52.5558 43.3005 52.4175C42.8468 52.2791 42.3782 52.292 41.8948 52.4562C41.4146 52.617 40.9259 52.9639 40.4285 53.4971L38.5487 55.5121L47.8084 64.1503L46.3114 65.755Z" fill="#0E344A"/>
<path d="M46.3114 65.755L35.6755 55.833L39.2121 52.0419C39.984 51.2144 40.7741 50.6694 41.5824 50.4068C42.3907 50.1442 43.1823 50.1218 43.957 50.3394C44.7282 50.5538 45.4393 50.9646 46.0902 51.5718C46.7446 52.1823 47.2056 52.8681 47.4732 53.6293C47.7406 54.3839 47.7715 55.1767 47.5659 56.008C47.36 56.8326 46.8727 57.6569 46.104 58.4809L43.672 61.0879L42.3113 59.8186L44.6077 57.357C45.0954 56.8342 45.4011 56.3261 45.5246 55.8327C45.6447 55.336 45.6183 54.8646 45.4454 54.4183C45.2724 53.9721 44.9851 53.5616 44.5835 53.187C44.1819 52.8123 43.7542 52.5558 43.3005 52.4175C42.8468 52.2791 42.3782 52.292 41.8948 52.4562C41.4146 52.617 40.9259 52.9639 40.4285 53.4971L38.5487 55.5121L47.8084 64.1503L46.3114 65.755Z" fill="url(#paint4_linear_3034_3185)"/>
</g>
<g opacity="0.4">
<path d="M59.1487 44.0301C60.1296 45.2341 60.7527 46.4488 61.018 47.6739C61.2803 48.8955 61.2177 50.0518 60.8303 51.1431C60.4436 52.2276 59.7638 53.1662 58.791 53.9587C57.8146 54.7542 56.7543 55.2332 55.6103 55.3957C54.467 55.5515 53.3222 55.3757 52.1759 54.8682C51.0296 54.3608 49.9675 53.5069 48.9896 52.3065C48.0087 51.1024 47.3871 49.8897 47.1248 48.6681C46.8595 47.4429 46.9203 46.2881 47.307 45.2035C47.6944 44.1123 48.3763 43.1689 49.3528 42.3734C50.3256 41.5809 51.3836 41.1067 52.527 40.9509C53.671 40.7884 54.8161 40.9609 55.9624 41.4683C57.1057 41.9721 58.1678 42.826 59.1487 44.0301ZM57.4638 45.4028C56.7161 44.485 55.938 43.8334 55.1292 43.448C54.3212 43.0558 53.5286 42.9076 52.7515 43.0032C51.9751 43.0922 51.2639 43.3999 50.6178 43.9262C49.968 44.4555 49.5211 45.0914 49.277 45.8338C49.03 46.5725 49.0149 47.3787 49.232 48.2523C49.4497 49.1193 49.9324 50.0116 50.68 50.9293C51.4277 51.8471 52.2055 52.502 53.0135 52.8941C53.8223 53.2796 54.6148 53.4279 55.3913 53.3389C56.1647 53.2462 56.8763 52.9352 57.526 52.4059C58.1721 51.8796 58.6187 51.247 58.8657 50.5083C59.1135 49.7629 59.1285 48.9567 58.9108 48.0898C58.6938 47.2161 58.2114 46.3205 57.4638 45.4028Z" fill="#0E344A"/>
<path d="M59.1487 44.0301C60.1296 45.2341 60.7527 46.4488 61.018 47.6739C61.2803 48.8955 61.2177 50.0518 60.8303 51.1431C60.4436 52.2276 59.7638 53.1662 58.791 53.9587C57.8146 54.7542 56.7543 55.2332 55.6103 55.3957C54.467 55.5515 53.3222 55.3757 52.1759 54.8682C51.0296 54.3608 49.9675 53.5069 48.9896 52.3065C48.0087 51.1024 47.3871 49.8897 47.1248 48.6681C46.8595 47.4429 46.9203 46.2881 47.307 45.2035C47.6944 44.1123 48.3763 43.1689 49.3528 42.3734C50.3256 41.5809 51.3836 41.1067 52.527 40.9509C53.671 40.7884 54.8161 40.9609 55.9624 41.4683C57.1057 41.9721 58.1678 42.826 59.1487 44.0301ZM57.4638 45.4028C56.7161 44.485 55.938 43.8334 55.1292 43.448C54.3212 43.0558 53.5286 42.9076 52.7515 43.0032C51.9751 43.0922 51.2639 43.3999 50.6178 43.9262C49.968 44.4555 49.5211 45.0914 49.277 45.8338C49.03 46.5725 49.0149 47.3787 49.232 48.2523C49.4497 49.1193 49.9324 50.0116 50.68 50.9293C51.4277 51.8471 52.2055 52.502 53.0135 52.8941C53.8223 53.2796 54.6148 53.4279 55.3913 53.3389C56.1647 53.2462 56.8763 52.9352 57.526 52.4059C58.1721 51.8796 58.6187 51.247 58.8657 50.5083C59.1135 49.7629 59.1285 48.9567 58.9108 48.0898C58.6938 47.2161 58.2114 46.3205 57.4638 45.4028Z" fill="url(#paint5_linear_3034_3185)"/>
</g>
<g opacity="0.4">
<path d="M57.6201 36.3958L59.4802 35.2855L61.9409 39.4081C62.2831 39.9814 62.6533 40.3753 63.0515 40.5897C63.4473 40.8001 63.8755 40.8616 64.3361 40.7742C64.8008 40.6843 65.3055 40.4767 65.8503 40.1516C66.139 39.9793 66.4256 39.7944 66.7103 39.5969C66.9966 39.3929 67.276 39.182 67.5485 38.9642C67.8186 38.7423 68.0749 38.5204 68.3174 38.2985C68.5615 38.0701 68.7817 37.8477 68.9779 37.6313L69.9352 39.2352C69.7455 39.4532 69.5368 39.6716 69.3089 39.8903C69.0827 40.1025 68.8406 40.316 68.5827 40.5305C68.3224 40.7411 68.045 40.9508 67.7506 41.1596C67.4561 41.3684 67.1442 41.5711 66.8149 41.7677C65.9042 42.3113 65.0399 42.6507 64.2218 42.7861C63.4055 42.915 62.6485 42.8016 61.951 42.4459C61.2575 42.0879 60.6341 41.4453 60.0809 40.5184L57.6201 36.3958ZM65.1701 31.8893L67.0362 30.7754L74.4912 43.2652L72.625 44.3791L65.1701 31.8893Z" fill="#0E344A"/>
<path d="M57.6201 36.3958L59.4802 35.2855L61.9409 39.4081C62.2831 39.9814 62.6533 40.3753 63.0515 40.5897C63.4473 40.8001 63.8755 40.8616 64.3361 40.7742C64.8008 40.6843 65.3055 40.4767 65.8503 40.1516C66.139 39.9793 66.4256 39.7944 66.7103 39.5969C66.9966 39.3929 67.276 39.182 67.5485 38.9642C67.8186 38.7423 68.0749 38.5204 68.3174 38.2985C68.5615 38.0701 68.7817 37.8477 68.9779 37.6313L69.9352 39.2352C69.7455 39.4532 69.5368 39.6716 69.3089 39.8903C69.0827 40.1025 68.8406 40.316 68.5827 40.5305C68.3224 40.7411 68.045 40.9508 67.7506 41.1596C67.4561 41.3684 67.1442 41.5711 66.8149 41.7677C65.9042 42.3113 65.0399 42.6507 64.2218 42.7861C63.4055 42.915 62.6485 42.8016 61.951 42.4459C61.2575 42.0879 60.6341 41.4453 60.0809 40.5184L57.6201 36.3958ZM65.1701 31.8893L67.0362 30.7754L74.4912 43.2652L72.625 44.3791L65.1701 31.8893Z" fill="url(#paint6_linear_3034_3185)"/>
</g>
<g opacity="0.4">
<path d="M70.4199 29.1144L72.423 28.2712L76.5675 38.1162L76.6919 38.0638L79.3681 25.3474L81.2403 24.5593L86.8839 37.9652L84.8612 38.8168L80.7222 28.9849L80.5978 29.0372L77.9292 41.735L76.0636 42.5204L70.4199 29.1144Z" fill="#0E344A"/>
<path d="M70.4199 29.1144L72.423 28.2712L76.5675 38.1162L76.6919 38.0638L79.3681 25.3474L81.2403 24.5593L86.8839 37.9652L84.8612 38.8168L80.7222 28.9849L80.5978 29.0372L77.9292 41.735L76.0636 42.5204L70.4199 29.1144Z" fill="url(#paint7_linear_3034_3185)"/>
</g>
<g opacity="0.4">
<path d="M88.2325 37.648L84.3899 23.6193L93.1853 21.2101L93.6843 23.0322L87.0056 24.8616L88.1764 29.136L94.3962 27.4323L94.8934 29.2475L88.6736 30.9512L89.85 35.2461L96.6109 33.3942L97.11 35.2163L88.2325 37.648Z" fill="#0E344A"/>
<path d="M88.2325 37.648L84.3899 23.6193L93.1853 21.2101L93.6843 23.0322L87.0056 24.8616L88.1764 29.136L94.3962 27.4323L94.8934 29.2475L88.6736 30.9512L89.85 35.2461L96.6109 33.3942L97.11 35.2163L88.2325 37.648Z" fill="url(#paint8_linear_3034_3185)"/>
</g>
<g opacity="0.4">
<path d="M96.2676 175.899L94.0713 175.604C94.0497 175.124 93.9478 174.69 93.7657 174.302C93.5835 173.915 93.3425 173.574 93.0426 173.281C92.7428 172.988 92.3949 172.75 91.9989 172.568C91.6076 172.386 91.182 172.265 90.722 172.203C89.8914 172.092 89.1196 172.201 88.4066 172.531C87.6983 172.861 87.1 173.404 86.6118 174.16C86.1282 174.917 85.8084 175.878 85.6524 177.041C85.4952 178.215 85.5502 179.23 85.8175 180.088C86.0894 180.946 86.5262 181.625 87.1279 182.126C87.7296 182.627 88.441 182.933 89.2623 183.043C89.7175 183.104 90.1574 183.101 90.5821 183.033C91.012 182.962 91.4099 182.827 91.7758 182.627C92.1417 182.428 92.4632 182.168 92.7404 181.846C93.0228 181.521 93.2394 181.135 93.3902 180.687L95.5855 180.988C95.3733 181.681 95.0582 182.303 94.6405 182.854C94.2281 183.4 93.7301 183.854 93.1466 184.215C92.5685 184.573 91.9282 184.824 91.2256 184.968C90.5231 185.113 89.7753 185.132 88.9822 185.026C87.7339 184.859 86.6613 184.414 85.7644 183.692C84.8682 182.965 84.2127 182.01 83.7979 180.827C83.3879 179.645 83.2857 178.286 83.4913 176.752C83.6976 175.213 84.1562 173.929 84.8671 172.902C85.5787 171.87 86.4622 171.124 87.5175 170.663C88.5735 170.198 89.7233 170.049 90.9669 170.215C91.7319 170.318 92.4304 170.524 93.0626 170.833C93.7 171.138 94.2556 171.537 94.7293 172.031C95.2036 172.52 95.5739 173.09 95.84 173.742C96.1068 174.389 96.2493 175.108 96.2676 175.899Z" fill="#0E344A"/>
<path d="M96.2676 175.899L94.0713 175.604C94.0497 175.124 93.9478 174.69 93.7657 174.302C93.5835 173.915 93.3425 173.574 93.0426 173.281C92.7428 172.988 92.3949 172.75 91.9989 172.568C91.6076 172.386 91.182 172.265 90.722 172.203C89.8914 172.092 89.1196 172.201 88.4066 172.531C87.6983 172.861 87.1 173.404 86.6118 174.16C86.1282 174.917 85.8084 175.878 85.6524 177.041C85.4952 178.215 85.5502 179.23 85.8175 180.088C86.0894 180.946 86.5262 181.625 87.1279 182.126C87.7296 182.627 88.441 182.933 89.2623 183.043C89.7175 183.104 90.1574 183.101 90.5821 183.033C91.012 182.962 91.4099 182.827 91.7758 182.627C92.1417 182.428 92.4632 182.168 92.7404 181.846C93.0228 181.521 93.2394 181.135 93.3902 180.687L95.5855 180.988C95.3733 181.681 95.0582 182.303 94.6405 182.854C94.2281 183.4 93.7301 183.854 93.1466 184.215C92.5685 184.573 91.9282 184.824 91.2256 184.968C90.5231 185.113 89.7753 185.132 88.9822 185.026C87.7339 184.859 86.6613 184.414 85.7644 183.692C84.8682 182.965 84.2127 182.01 83.7979 180.827C83.3879 179.645 83.2857 178.286 83.4913 176.752C83.6976 175.213 84.1562 173.929 84.8671 172.902C85.5787 171.87 86.4622 171.124 87.5175 170.663C88.5735 170.198 89.7233 170.049 90.9669 170.215C91.7319 170.318 92.4304 170.524 93.0626 170.833C93.7 171.138 94.2556 171.537 94.7293 172.031C95.2036 172.52 95.5739 173.09 95.84 173.742C96.1068 174.389 96.2493 175.108 96.2676 175.899Z" fill="url(#paint9_linear_3034_3185)"/>
</g>
<g opacity="0.4">
<path d="M97.4075 173.046L97.3552 171.158L108.608 170.846L108.66 172.735L104.124 172.86L104.474 185.512L102.287 185.572L101.937 172.921L97.4075 173.046Z" fill="#0E344A"/>
<path d="M97.4075 173.046L97.3552 171.158L108.608 170.846L108.66 172.735L104.124 172.86L104.474 185.512L102.287 185.572L101.937 172.921L97.4075 173.046Z" fill="url(#paint10_linear_3034_3185)"/>
</g>
<g opacity="0.4">
<path d="M114.019 184.739L111.73 185.17L114.183 169.907L116.675 169.438L124.51 182.764L122.22 183.195L115.977 172.258L115.865 172.279L114.019 184.739ZM113.349 179.069L120.776 177.671L121.117 179.486L113.691 180.884L113.349 179.069Z" fill="#0E344A"/>
<path d="M114.019 184.739L111.73 185.17L114.183 169.907L116.675 169.438L124.51 182.764L122.22 183.195L115.977 172.258L115.865 172.279L114.019 184.739ZM113.349 179.069L120.776 177.671L121.117 179.486L113.691 180.884L113.349 179.069Z" fill="url(#paint11_linear_3034_3185)"/>
</g>
<g opacity="0.4">
<path d="M127.807 181.767L122.833 168.099L124.896 167.348L127.057 173.288L133.871 170.809L131.71 164.869L133.779 164.116L138.752 177.785L136.683 178.538L134.515 172.578L127.701 175.057L129.869 181.017L127.807 181.767Z" fill="#0E344A"/>
<path d="M127.807 181.767L122.833 168.099L124.896 167.348L127.057 173.288L133.871 170.809L131.71 164.869L133.779 164.116L138.752 177.785L136.683 178.538L134.515 172.578L127.701 175.057L129.869 181.017L127.807 181.767Z" fill="url(#paint12_linear_3034_3185)"/>
</g>
<g opacity="0.4">
<path d="M142.938 179.769L140.281 175.095L141.115 174.621C141.263 174.221 141.335 173.73 141.332 173.149C141.329 172.569 141.2 171.855 140.947 171.007C140.694 170.16 140.267 169.131 139.666 167.92L136.927 162.411L144.725 157.978L150.994 169.005L152.426 168.191L155.072 172.847L153.245 173.885L151.518 170.848L143.028 175.674L144.766 178.73L142.938 179.769ZM143.362 173.343L149.166 170.044L143.831 160.659L139.589 163.07L141.494 166.881C141.948 167.805 142.316 168.658 142.597 169.44C142.883 170.22 143.086 170.938 143.208 171.593C143.332 172.241 143.383 172.825 143.362 173.343Z" fill="#0E344A"/>
<path d="M142.938 179.769L140.281 175.095L141.115 174.621C141.263 174.221 141.335 173.73 141.332 173.149C141.329 172.569 141.2 171.855 140.947 171.007C140.694 170.16 140.267 169.131 139.666 167.92L136.927 162.411L144.725 157.978L150.994 169.005L152.426 168.191L155.072 172.847L153.245 173.885L151.518 170.848L143.028 175.674L144.766 178.73L142.938 179.769ZM143.362 173.343L149.166 170.044L143.831 160.659L139.589 163.07L141.494 166.881C141.948 167.805 142.316 168.658 142.597 169.44C142.883 170.22 143.086 170.938 143.208 171.593C143.332 172.241 143.383 172.825 143.362 173.343Z" fill="url(#paint13_linear_3034_3185)"/>
</g>
<g opacity="0.4">
<path d="M157.085 166.955L155.28 168.427L150.144 153.846L152.109 152.244L165.358 160.208L163.553 161.68L152.843 155.055L152.755 155.126L157.085 166.955ZM153.788 162.293L159.644 157.518L160.811 158.949L154.955 163.724L153.788 162.293Z" fill="#0E344A"/>
<path d="M157.085 166.955L155.28 168.427L150.144 153.846L152.109 152.244L165.358 160.208L163.553 161.68L152.843 155.055L152.755 155.126L157.085 166.955ZM153.788 162.293L159.644 157.518L160.811 158.949L154.955 163.724L153.788 162.293Z" fill="url(#paint14_linear_3034_3185)"/>
</g>
<g opacity="0.4">
<path d="M167.664 157.782L156.889 148.011L160.372 144.17C161.132 143.332 161.914 142.776 162.719 142.502C163.523 142.228 164.314 142.194 165.092 142.401C165.866 142.604 166.583 143.005 167.243 143.603C167.905 144.204 168.376 144.884 168.654 145.641C168.932 146.392 168.974 147.184 168.781 148.018C168.586 148.845 168.111 149.677 167.354 150.511L164.959 153.152L163.58 151.902L165.842 149.409C166.322 148.879 166.62 148.367 166.737 147.872C166.85 147.373 166.817 146.902 166.638 146.458C166.459 146.015 166.166 145.608 165.759 145.239C165.352 144.87 164.921 144.62 164.465 144.488C164.009 144.356 163.541 144.376 163.06 144.547C162.582 144.714 162.098 145.068 161.608 145.608L159.757 147.649L169.138 156.156L167.664 157.782Z" fill="#0E344A"/>
<path d="M167.664 157.782L156.889 148.011L160.372 144.17C161.132 143.332 161.914 142.776 162.719 142.502C163.523 142.228 164.314 142.194 165.092 142.401C165.866 142.604 166.583 143.005 167.243 143.603C167.905 144.204 168.376 144.884 168.654 145.641C168.932 146.392 168.974 147.184 168.781 148.018C168.586 148.845 168.111 149.677 167.354 150.511L164.959 153.152L163.58 151.902L165.842 149.409C166.322 148.879 166.62 148.367 166.737 147.872C166.85 147.373 166.817 146.902 166.638 146.458C166.459 146.015 166.166 145.608 165.759 145.239C165.352 144.87 164.921 144.62 164.465 144.488C164.009 144.356 163.541 144.376 163.06 144.547C162.582 144.714 162.098 145.068 161.608 145.608L159.757 147.649L169.138 156.156L167.664 157.782Z" fill="url(#paint15_linear_3034_3185)"/>
</g>
<g opacity="0.4">
<path d="M165.485 141.233L163.914 140.185L170.158 130.819L171.73 131.867L169.213 135.643L179.743 142.664L178.529 144.484L167.999 137.463L165.485 141.233Z" fill="#0E344A"/>
<path d="M165.485 141.233L163.914 140.185L170.158 130.819L171.73 131.867L169.213 135.643L179.743 142.664L178.529 144.484L167.999 137.463L165.485 141.233Z" fill="url(#paint16_linear_3034_3185)"/>
</g>
<g opacity="0.4">
<path d="M176.907 130.531L178.485 126.942C178.919 125.954 179.449 125.183 180.075 124.631C180.7 124.078 181.386 123.748 182.131 123.641C182.878 123.53 183.647 123.651 184.438 124.004C185.234 124.348 185.854 124.838 186.299 125.473C186.745 126.104 186.988 126.842 187.025 127.686C187.063 128.53 186.864 129.446 186.43 130.434L184.238 135.421L170.922 129.568L171.808 127.553L183.433 132.663L184.739 129.691C184.993 129.115 185.094 128.58 185.042 128.086C184.991 127.588 184.831 127.158 184.561 126.797C184.293 126.43 183.953 126.157 183.541 125.976C182.943 125.713 182.328 125.717 181.697 125.988C181.061 126.257 180.554 126.822 180.175 127.685L178.598 131.274L176.907 130.531ZM176.586 116.682L189.902 122.534L189.016 124.55L175.7 118.697L176.586 116.682Z" fill="#0E344A"/>
<path d="M176.907 130.531L178.485 126.942C178.919 125.954 179.449 125.183 180.075 124.631C180.7 124.078 181.386 123.748 182.131 123.641C182.878 123.53 183.647 123.651 184.438 124.004C185.234 124.348 185.854 124.838 186.299 125.473C186.745 126.104 186.988 126.842 187.025 127.686C187.063 128.53 186.864 129.446 186.43 130.434L184.238 135.421L170.922 129.568L171.808 127.553L183.433 132.663L184.739 129.691C184.993 129.115 185.094 128.58 185.042 128.086C184.991 127.588 184.831 127.158 184.561 126.797C184.293 126.43 183.953 126.157 183.541 125.976C182.943 125.713 182.328 125.717 181.697 125.988C181.061 126.257 180.554 126.822 180.175 127.685L178.598 131.274L176.907 130.531ZM176.586 116.682L189.902 122.534L189.016 124.55L175.7 118.697L176.586 116.682Z" fill="url(#paint17_linear_3034_3185)"/>
</g>
</g>
<defs>
<linearGradient id="paint0_linear_3034_3185" x1="45.4743" y1="104.514" x2="155.576" y2="104.514" gradientUnits="userSpaceOnUse">
<stop stop-color="#3793AE"/>
<stop offset="1" stop-color="#074287"/>
</linearGradient>
<linearGradient id="paint1_linear_3034_3185" x1="57.0284" y1="104.513" x2="143.857" y2="104.513" gradientUnits="userSpaceOnUse">
<stop stop-color="#3793AE"/>
<stop offset="1" stop-color="#074287"/>
</linearGradient>
<linearGradient id="paint2_linear_3034_3185" x1="5.74979" y1="104.09" x2="204.47" y2="104.09" gradientUnits="userSpaceOnUse">
<stop stop-color="#3793AE"/>
<stop offset="1" stop-color="#074287"/>
</linearGradient>
<linearGradient id="paint3_linear_3034_3185" x1="31.2314" y1="73.2594" x2="39.3118" y2="61.8528" gradientUnits="userSpaceOnUse">
<stop stop-color="#3793AE"/>
<stop offset="1" stop-color="#074287"/>
</linearGradient>
<linearGradient id="paint4_linear_3034_3185" x1="39.6217" y1="61.5825" x2="47.8857" y2="52.7238" gradientUnits="userSpaceOnUse">
<stop stop-color="#3793AE"/>
<stop offset="1" stop-color="#074287"/>
</linearGradient>
<linearGradient id="paint5_linear_3034_3185" x1="47.902" y1="52.5924" x2="59.462" y2="43.1748" gradientUnits="userSpaceOnUse">
<stop stop-color="#3793AE"/>
<stop offset="1" stop-color="#074287"/>
</linearGradient>
<linearGradient id="paint6_linear_3034_3185" x1="59.5719" y1="43.1588" x2="71.575" y2="35.9943" gradientUnits="userSpaceOnUse">
<stop stop-color="#3793AE"/>
<stop offset="1" stop-color="#074287"/>
</linearGradient>
<linearGradient id="paint7_linear_3034_3185" x1="71.6796" y1="35.9703" x2="84.5632" y2="30.5466" gradientUnits="userSpaceOnUse">
<stop stop-color="#3793AE"/>
<stop offset="1" stop-color="#074287"/>
</linearGradient>
<linearGradient id="paint8_linear_3034_3185" x1="84.7297" y1="30.5844" x2="96.4142" y2="27.384" gradientUnits="userSpaceOnUse">
<stop stop-color="#3793AE"/>
<stop offset="1" stop-color="#074287"/>
</linearGradient>
<linearGradient id="paint9_linear_3034_3185" x1="82.5319" y1="176.154" x2="96.3867" y2="178.011" gradientUnits="userSpaceOnUse">
<stop stop-color="#3793AE"/>
<stop offset="1" stop-color="#074287"/>
</linearGradient>
<linearGradient id="paint10_linear_3034_3185" x1="96.7556" y1="177.985" x2="109.797" y2="177.623" gradientUnits="userSpaceOnUse">
<stop stop-color="#3793AE"/>
<stop offset="1" stop-color="#074287"/>
</linearGradient>
<linearGradient id="paint11_linear_3034_3185" x1="109.907" y1="177.639" x2="123.644" y2="175.054" gradientUnits="userSpaceOnUse">
<stop stop-color="#3793AE"/>
<stop offset="1" stop-color="#074287"/>
</linearGradient>
<linearGradient id="paint12_linear_3034_3185" x1="123.752" y1="175.008" x2="136.888" y2="170.229" gradientUnits="userSpaceOnUse">
<stop stop-color="#3793AE"/>
<stop offset="1" stop-color="#074287"/>
</linearGradient>
<linearGradient id="paint13_linear_3034_3185" x1="137.036" y1="170.179" x2="149.999" y2="162.811" gradientUnits="userSpaceOnUse">
<stop stop-color="#3793AE"/>
<stop offset="1" stop-color="#074287"/>
</linearGradient>
<linearGradient id="paint14_linear_3034_3185" x1="150.081" y1="162.682" x2="160.914" y2="153.847" gradientUnits="userSpaceOnUse">
<stop stop-color="#3793AE"/>
<stop offset="1" stop-color="#074287"/>
</linearGradient>
<linearGradient id="paint15_linear_3034_3185" x1="160.916" y1="153.704" x2="169.054" y2="144.73" gradientUnits="userSpaceOnUse">
<stop stop-color="#3793AE"/>
<stop offset="1" stop-color="#074287"/>
</linearGradient>
<linearGradient id="paint16_linear_3034_3185" x1="169.14" y1="144.617" x2="176.378" y2="133.762" gradientUnits="userSpaceOnUse">
<stop stop-color="#3793AE"/>
<stop offset="1" stop-color="#074287"/>
</linearGradient>
<linearGradient id="paint17_linear_3034_3185" x1="176.553" y1="133.675" x2="183.303" y2="118.318" gradientUnits="userSpaceOnUse">
<stop stop-color="#3793AE"/>
<stop offset="1" stop-color="#074287"/>
</linearGradient>
<clipPath id="clip0_3034_3185">
<rect width="208" height="208" fill="white"/>
</clipPath>
</defs>
</svg>
