<svg width="215" height="206" viewBox="0 0 215 206" fill="none" xmlns="http://www.w3.org/2000/svg">
<g clip-path="url(#clip0_3034_3090)">
<circle cx="107.002" cy="100.474" r="54.8068" stroke="url(#paint0_linear_3034_3090)"/>
<path d="M98.2793 96.8635C98.1373 96.4032 97.9413 95.9913 97.6913 95.6277C97.4469 95.2583 97.1515 94.943 96.8049 94.6816C96.464 94.4203 96.0719 94.2243 95.6288 94.0936C95.1856 93.9572 94.7026 93.889 94.1799 93.889C93.2424 93.889 92.4072 94.1248 91.6742 94.5964C90.9413 95.068 90.3646 95.7612 89.9441 96.676C89.5293 97.585 89.3219 98.693 89.3219 99.9998C89.3219 101.318 89.5293 102.434 89.9441 103.349C90.3589 104.264 90.9356 104.96 91.6742 105.437C92.4128 105.909 93.2708 106.145 94.2481 106.145C95.1344 106.145 95.9015 105.974 96.5492 105.633C97.2026 105.292 97.7055 104.809 98.0577 104.184C98.41 103.554 98.5861 102.815 98.5861 101.969L99.3021 102.079H94.5634V99.6078H101.646V101.704C101.646 103.199 101.328 104.491 100.691 105.582C100.055 106.673 99.1799 107.514 98.0663 108.105C96.9526 108.69 95.6742 108.983 94.231 108.983C92.6231 108.983 91.2111 108.622 89.9952 107.9C88.785 107.173 87.839 106.142 87.1572 104.807C86.481 103.466 86.143 101.875 86.143 100.034C86.143 98.6248 86.3418 97.3663 86.7396 96.2583C87.143 95.1504 87.7055 94.21 88.4271 93.4373C89.1486 92.6589 89.9952 92.068 90.9668 91.6646C91.9384 91.2555 92.9952 91.051 94.1373 91.051C95.1032 91.051 96.0038 91.193 96.839 91.4771C97.6742 91.7555 98.4157 92.1532 99.0634 92.6703C99.7168 93.1873 100.254 93.801 100.674 94.5112C101.095 95.2214 101.37 96.0055 101.501 96.8635H98.2793ZM103.263 108.744V91.2896H106.425V106.094H114.113V108.744H103.263ZM115.417 108.744V91.2896H121.963C123.303 91.2896 124.428 91.5396 125.338 92.0396C126.252 92.5396 126.943 93.2271 127.409 94.1021C127.88 94.9714 128.116 95.96 128.116 97.068C128.116 98.1873 127.88 99.1816 127.409 100.051C126.937 100.92 126.241 101.605 125.32 102.105C124.4 102.599 123.267 102.846 121.92 102.846H117.582V100.247H121.494C122.278 100.247 122.92 100.111 123.42 99.8379C123.92 99.5652 124.289 99.1902 124.528 98.7129C124.772 98.2356 124.894 97.6873 124.894 97.068C124.894 96.4487 124.772 95.9032 124.528 95.4316C124.289 94.96 123.917 94.5936 123.411 94.3322C122.911 94.0652 122.267 93.9316 121.477 93.9316H118.579V108.744H115.417Z" fill="#3793AE"/>
<path d="M98.2793 96.8635C98.1373 96.4032 97.9413 95.9913 97.6913 95.6277C97.4469 95.2583 97.1515 94.943 96.8049 94.6816C96.464 94.4203 96.0719 94.2243 95.6288 94.0936C95.1856 93.9572 94.7026 93.889 94.1799 93.889C93.2424 93.889 92.4072 94.1248 91.6742 94.5964C90.9413 95.068 90.3646 95.7612 89.9441 96.676C89.5293 97.585 89.3219 98.693 89.3219 99.9998C89.3219 101.318 89.5293 102.434 89.9441 103.349C90.3589 104.264 90.9356 104.96 91.6742 105.437C92.4128 105.909 93.2708 106.145 94.2481 106.145C95.1344 106.145 95.9015 105.974 96.5492 105.633C97.2026 105.292 97.7055 104.809 98.0577 104.184C98.41 103.554 98.5861 102.815 98.5861 101.969L99.3021 102.079H94.5634V99.6078H101.646V101.704C101.646 103.199 101.328 104.491 100.691 105.582C100.055 106.673 99.1799 107.514 98.0663 108.105C96.9526 108.69 95.6742 108.983 94.231 108.983C92.6231 108.983 91.2111 108.622 89.9952 107.9C88.785 107.173 87.839 106.142 87.1572 104.807C86.481 103.466 86.143 101.875 86.143 100.034C86.143 98.6248 86.3418 97.3663 86.7396 96.2583C87.143 95.1504 87.7055 94.21 88.4271 93.4373C89.1486 92.6589 89.9952 92.068 90.9668 91.6646C91.9384 91.2555 92.9952 91.051 94.1373 91.051C95.1032 91.051 96.0038 91.193 96.839 91.4771C97.6742 91.7555 98.4157 92.1532 99.0634 92.6703C99.7168 93.1873 100.254 93.801 100.674 94.5112C101.095 95.2214 101.37 96.0055 101.501 96.8635H98.2793ZM103.263 108.744V91.2896H106.425V106.094H114.113V108.744H103.263ZM115.417 108.744V91.2896H121.963C123.303 91.2896 124.428 91.5396 125.338 92.0396C126.252 92.5396 126.943 93.2271 127.409 94.1021C127.88 94.9714 128.116 95.96 128.116 97.068C128.116 98.1873 127.88 99.1816 127.409 100.051C126.937 100.92 126.241 101.605 125.32 102.105C124.4 102.599 123.267 102.846 121.92 102.846H117.582V100.247H121.494C122.278 100.247 122.92 100.111 123.42 99.8379C123.92 99.5652 124.289 99.1902 124.528 98.7129C124.772 98.2356 124.894 97.6873 124.894 97.068C124.894 96.4487 124.772 95.9032 124.528 95.4316C124.289 94.96 123.917 94.5936 123.411 94.3322C122.911 94.0652 122.267 93.9316 121.477 93.9316H118.579V108.744H115.417Z" fill="white"/>
<path d="M98.2793 96.8635C98.1373 96.4032 97.9413 95.9913 97.6913 95.6277C97.4469 95.2583 97.1515 94.943 96.8049 94.6816C96.464 94.4203 96.0719 94.2243 95.6288 94.0936C95.1856 93.9572 94.7026 93.889 94.1799 93.889C93.2424 93.889 92.4072 94.1248 91.6742 94.5964C90.9413 95.068 90.3646 95.7612 89.9441 96.676C89.5293 97.585 89.3219 98.693 89.3219 99.9998C89.3219 101.318 89.5293 102.434 89.9441 103.349C90.3589 104.264 90.9356 104.96 91.6742 105.437C92.4128 105.909 93.2708 106.145 94.2481 106.145C95.1344 106.145 95.9015 105.974 96.5492 105.633C97.2026 105.292 97.7055 104.809 98.0577 104.184C98.41 103.554 98.5861 102.815 98.5861 101.969L99.3021 102.079H94.5634V99.6078H101.646V101.704C101.646 103.199 101.328 104.491 100.691 105.582C100.055 106.673 99.1799 107.514 98.0663 108.105C96.9526 108.69 95.6742 108.983 94.231 108.983C92.6231 108.983 91.2111 108.622 89.9952 107.9C88.785 107.173 87.839 106.142 87.1572 104.807C86.481 103.466 86.143 101.875 86.143 100.034C86.143 98.6248 86.3418 97.3663 86.7396 96.2583C87.143 95.1504 87.7055 94.21 88.4271 93.4373C89.1486 92.6589 89.9952 92.068 90.9668 91.6646C91.9384 91.2555 92.9952 91.051 94.1373 91.051C95.1032 91.051 96.0038 91.193 96.839 91.4771C97.6742 91.7555 98.4157 92.1532 99.0634 92.6703C99.7168 93.1873 100.254 93.801 100.674 94.5112C101.095 95.2214 101.37 96.0055 101.501 96.8635H98.2793ZM103.263 108.744V91.2896H106.425V106.094H114.113V108.744H103.263ZM115.417 108.744V91.2896H121.963C123.303 91.2896 124.428 91.5396 125.338 92.0396C126.252 92.5396 126.943 93.2271 127.409 94.1021C127.88 94.9714 128.116 95.96 128.116 97.068C128.116 98.1873 127.88 99.1816 127.409 100.051C126.937 100.92 126.241 101.605 125.32 102.105C124.4 102.599 123.267 102.846 121.92 102.846H117.582V100.247H121.494C122.278 100.247 122.92 100.111 123.42 99.8379C123.92 99.5652 124.289 99.1902 124.528 98.7129C124.772 98.2356 124.894 97.6873 124.894 97.068C124.894 96.4487 124.772 95.9032 124.528 95.4316C124.289 94.96 123.917 94.5936 123.411 94.3322C122.911 94.0652 122.267 93.9316 121.477 93.9316H118.579V108.744H115.417Z" fill="url(#paint1_linear_3034_3090)"/>
<path opacity="0.4" d="M40.6647 146.51L27.4508 152.59L26.5335 150.596L32.2759 147.954L29.2449 141.366L23.5025 144.008L22.5823 142.008L35.7961 135.928L36.7164 137.929L30.9547 140.58L33.9857 147.167L39.7474 144.516L40.6647 146.51Z" fill="url(#paint2_linear_3034_3090)"/>
<path opacity="0.4" d="M35.3229 134.916L35.9711 137.154L20.5436 136.173L19.8381 133.738L32.3527 124.663L33.0009 126.9L22.7118 134.162L22.7434 134.272L35.3229 134.916ZM29.7432 136.126L27.6405 128.867L29.4142 128.354L31.5168 135.612L29.7432 136.126Z" fill="url(#paint3_linear_3034_3090)"/>
<path opacity="0.4" d="M35.8438 125.726L30.5135 126.43L30.3881 125.479C30.0731 125.191 29.6459 124.939 29.1064 124.724C28.567 124.509 27.8571 124.359 26.9767 124.274C26.0964 124.19 24.9823 124.199 23.6346 124.3L17.4993 124.766L16.3257 115.873L28.9013 114.213L28.6857 112.58L33.9948 111.879L34.2699 113.963L30.8056 114.42L32.0833 124.102L35.5687 123.642L35.8438 125.726ZM30.0499 122.916L29.1764 116.297L18.4737 117.71L19.1121 122.547L23.3595 122.216C24.3862 122.142 25.3149 122.123 26.1456 122.156C26.9756 122.185 27.7171 122.266 28.3699 122.4C29.0174 122.529 29.5774 122.701 30.0499 122.916Z" fill="url(#paint4_linear_3034_3090)"/>
<path opacity="0.4" d="M30.4121 113.889L28.509 113.857L28.502 113.43C28.4976 112.852 28.3089 112.395 27.9358 112.057C27.5628 111.714 26.9562 111.46 26.1161 111.294C25.2761 111.124 24.1535 111 22.7483 110.924L15.9211 110.56L16.0775 101.364L30.6208 101.611L30.584 103.777L17.9012 103.561L17.8168 108.525L23.3661 108.847C24.9226 108.935 26.2289 109.113 27.2851 109.382C28.3366 109.651 29.127 110.09 29.6565 110.701C30.1861 111.307 30.4415 112.161 30.4227 113.264L30.4121 113.889Z" fill="url(#paint5_linear_3034_3090)"/>
<path opacity="0.4" d="M30.5538 101.121L16.1688 98.9665L17.5197 89.9478L19.388 90.2277L18.3622 97.076L22.7452 97.7325L23.7005 91.3548L25.5618 91.6336L24.6065 98.0113L29.0105 98.671L30.0489 91.7384L31.9173 92.0182L30.5538 101.121Z" fill="url(#paint6_linear_3034_3090)"/>
<path opacity="0.4" d="M20.6186 77.9685L34.4109 82.588L33.7207 84.6488L19.9283 80.0292L20.6186 77.9685ZM31.0839 92.5215L25.3441 85.6856L17.3952 87.5921L18.2479 85.0465L25.3606 83.6238L27.1358 78.3237L22.3058 72.931L23.1562 70.3921L28.3711 76.6927L37.0478 74.7153L36.2335 77.1465L29.1858 78.6434L27.1806 84.6304L31.8891 90.1173L31.0839 92.5215Z" fill="url(#paint7_linear_3034_3090)"/>
<path opacity="0.4" d="M36.9479 75.259L35.8643 77.3211L25.4235 65.9211L26.603 63.6767L41.9138 65.8096L40.8301 67.8717L28.3801 65.9745L28.3272 66.0751L36.9479 75.259ZM32.0875 72.2634L35.6029 65.5741L37.2375 66.4331L33.7221 73.1224L32.0875 72.2634Z" fill="url(#paint8_linear_3034_3090)"/>
<path opacity="0.4" d="M50.7026 50.9961L54.694 54.4319L53.397 56.0591L50.7144 53.921L49.8866 54.9596L48.4537 53.8174L50.7026 50.9961ZM29.8091 56.8122L31.1638 55.1128L41.0496 62.9926L44.0422 59.2381L34.1563 51.3584L35.5109 49.6589L45.3968 57.5387L48.3805 53.7954L38.4946 45.9156L39.8448 44.2217L51.2191 53.2878L41.1834 65.8784L29.8091 56.8122Z" fill="url(#paint9_linear_3034_3090)"/>
<path opacity="0.4" d="M52.2791 52.0865L50.5512 53.649L44.6775 39.3498L46.5581 37.6491L60.1965 44.9267L58.4687 46.4892L47.4347 40.4186L47.3504 40.4948L52.2791 52.0865ZM48.7483 47.5998L54.3532 42.5312L55.5918 43.9008L49.9869 48.9694L48.7483 47.5998Z" fill="url(#paint10_linear_3034_3090)"/>
<path opacity="0.4" d="M68.4073 39.2198L66.5865 40.4576L59.4669 29.9852L57.188 31.5345C56.5928 31.9391 56.1705 32.3579 55.9209 32.7909C55.6687 33.22 55.5696 33.6595 55.6236 34.1095C55.6776 34.5595 55.859 35.0116 56.1678 35.4658C56.4739 35.9161 56.8223 36.2432 57.2128 36.4472C57.6034 36.6511 58.04 36.7122 58.5225 36.6303C59.005 36.5485 59.5419 36.3066 60.1332 35.9046L63.2168 33.8083L64.2789 35.3706L61.025 37.5827C60.097 38.2136 59.2185 38.5847 58.3895 38.696C57.5645 38.8046 56.8083 38.686 56.1209 38.3403C55.4348 37.988 54.8416 37.4437 54.3411 36.7076C53.838 35.9675 53.5475 35.2118 53.4696 34.4403C53.389 33.6649 53.547 32.9076 53.9434 32.1686C54.3438 31.4269 55.008 30.7407 55.936 30.1098L60.2296 27.1909L68.4073 39.2198ZM58.7796 37.8296L60.7884 36.464L61.5588 43.8757L59.4972 45.2772L58.7796 37.8296Z" fill="url(#paint11_linear_3034_3090)"/>
<path opacity="0.4" d="M73.6797 35.8537L72.9918 34.079L73.384 33.9117C73.9175 33.6897 74.2703 33.3422 74.4424 32.8692C74.619 32.3946 74.6256 31.7369 74.4623 30.8963C74.3034 30.054 73.9941 28.9679 73.5345 27.6378L71.297 21.1774L79.8728 17.8534L85.1296 31.4158L83.1098 32.1986L78.5255 20.3713L73.8966 22.1655L75.6919 27.4262C76.1975 28.9009 76.5249 30.1781 76.6742 31.2577C76.8219 32.3329 76.7129 33.2308 76.3472 33.9514C75.986 34.6703 75.2911 35.2291 74.2625 35.6278L73.6797 35.8537Z" fill="url(#paint12_linear_3034_3090)"/>
<path opacity="0.4" d="M86.4572 30.8464L84.1864 31.3664L86.0417 16.0195L88.5132 15.4535L96.8625 28.4634L94.5918 28.9835L87.9261 18.2984L87.8153 18.3238L86.4572 30.8464ZM85.5664 25.2069L92.9325 23.52L93.3448 25.3199L85.9786 27.0069L85.5664 25.2069Z" fill="url(#paint13_linear_3034_3090)"/>
<path opacity="0.4" d="M96.4986 28.3738L95.242 13.8827L104.278 13.0992L104.441 14.9813L97.5916 15.5752L97.9352 19.5376L101.176 19.2566C102.251 19.1634 103.179 19.2588 103.96 19.5428C104.745 19.8264 105.363 20.2694 105.814 20.8719C106.271 21.474 106.536 22.2066 106.611 23.0698C106.686 23.9331 106.551 24.7123 106.208 25.4074C105.869 26.1022 105.338 26.6686 104.616 27.1067C103.898 27.5444 103.001 27.8099 101.926 27.9032L96.4986 28.3738ZM98.5255 26.3445L101.766 26.0635C102.389 26.0095 102.904 25.8412 103.312 25.5587C103.725 25.2758 104.025 24.929 104.213 24.5182C104.405 24.107 104.482 23.6774 104.443 23.2293C104.387 22.5783 104.088 22.041 103.548 21.6174C103.007 21.189 102.269 21.0153 101.335 21.0963L98.0948 21.3773L98.5255 26.3445Z" fill="url(#paint14_linear_3034_3090)"/>
<path opacity="0.4" d="M120.353 20.709C120.253 22.2588 119.883 23.5729 119.244 24.6512C118.605 25.7248 117.772 26.5297 116.746 27.0658C115.725 27.5975 114.588 27.8227 113.336 27.7416C112.079 27.6602 110.976 27.2898 110.027 26.6305C109.083 25.9667 108.364 25.059 107.869 23.9071C107.374 22.7553 107.177 21.4069 107.277 19.8618C107.378 18.312 107.747 17.0003 108.386 15.9267C109.025 14.8484 109.856 14.0433 110.877 13.5117C111.903 12.9756 113.045 12.7483 114.302 12.8297C115.554 12.9108 116.652 13.2832 117.596 13.947C118.545 14.6063 119.267 15.5119 119.761 16.6637C120.256 17.8108 120.454 19.1592 120.353 20.709ZM118.185 20.5685C118.261 19.3873 118.134 18.3803 117.804 17.5475C117.479 16.7103 116.999 16.0624 116.364 15.6038C115.734 15.1407 115.004 14.8822 114.172 14.8283C113.336 14.7742 112.576 14.9361 111.892 15.314C111.208 15.6873 110.649 16.2678 110.213 17.0557C109.783 17.8392 109.529 18.8216 109.453 20.0028C109.376 21.184 109.501 22.1932 109.826 23.0304C110.157 23.8632 110.636 24.5111 111.266 24.9742C111.896 25.4325 112.629 25.6888 113.465 25.743C114.297 25.7968 115.054 25.6372 115.738 25.2639C116.427 24.8862 116.986 24.3057 117.417 23.5222C117.852 22.7343 118.108 21.7497 118.185 20.5685Z" fill="url(#paint15_linear_3034_3090)"/>
<path opacity="0.4" d="M120.036 27.9018L122.92 13.6452L128.002 14.6734C129.111 14.8978 129.989 15.2856 130.636 15.8367C131.283 16.3879 131.717 17.0505 131.937 17.8245C132.158 18.5938 132.18 19.4147 132.004 20.2872C131.826 21.1643 131.483 21.9162 130.975 22.5428C130.472 23.1657 129.813 23.6071 128.997 23.8672C128.187 24.1235 127.229 24.1399 126.125 23.9165L122.63 23.2094L122.999 21.3856L126.299 22.0532C126.999 22.195 127.592 22.1893 128.077 22.0363C128.563 21.8786 128.951 21.6092 129.241 21.2282C129.531 20.8472 129.73 20.3875 129.839 19.8492C129.948 19.3109 129.942 18.8122 129.823 18.3532C129.703 17.8942 129.447 17.5018 129.054 17.1759C128.665 16.851 128.114 16.6162 127.399 16.4716L124.698 15.9251L122.187 28.337L120.036 27.9018Z" fill="url(#paint16_linear_3034_3090)"/>
<path opacity="0.4" d="M130.377 29.8799L128.176 29.1159L137.891 17.0913L140.286 17.9227L140.462 33.3804L138.261 32.6164L138.279 20.0227L138.172 19.9855L130.377 29.8799ZM132.614 24.6269L139.753 27.105L139.147 28.8494L132.008 26.3714L132.614 24.6269Z" fill="url(#paint17_linear_3034_3090)"/>
<path opacity="0.4" d="M145.561 21.6028L146.422 19.9209L156.444 25.0476L155.583 26.7295L151.543 24.6627L145.779 35.9303L143.832 34.934L149.595 23.6665L145.561 21.6028Z" fill="url(#paint18_linear_3034_3090)"/>
<path opacity="0.4" d="M164.816 39.4203C163.908 40.6803 162.897 41.5975 161.782 42.172C160.671 42.7426 159.538 42.9826 158.384 42.8919C157.236 42.8002 156.153 42.3876 155.135 41.6541C154.113 40.9178 153.375 40.0184 152.921 38.9559C152.474 37.8923 152.346 36.7411 152.538 35.5024C152.73 34.2636 153.279 33.0162 154.184 31.76C155.092 30.5 156.102 29.5847 157.213 29.014C158.327 28.4396 159.458 28.1982 160.606 28.2899C161.761 28.3806 162.849 28.794 163.871 29.5303C164.889 30.2638 165.621 31.1624 166.069 32.226C166.523 33.2885 166.654 34.4391 166.462 35.6779C166.272 36.9128 165.723 38.1603 164.816 39.4203ZM163.052 38.1498C163.744 37.1894 164.171 36.2687 164.334 35.3876C164.502 34.5054 164.44 33.7015 164.145 32.976C163.858 32.2493 163.376 31.6424 162.7 31.1553C162.02 30.6653 161.29 30.3989 160.509 30.3561C159.732 30.3094 158.949 30.5043 158.162 30.9409C157.382 31.3763 156.645 32.0742 155.953 33.0346C155.261 33.995 154.831 34.9163 154.662 35.7985C154.5 36.6796 154.563 37.4834 154.85 38.2101C155.141 38.9329 155.626 39.5392 156.306 40.0292C156.982 40.5163 157.709 40.7832 158.486 40.8299C159.27 40.8756 160.053 40.6806 160.833 40.2452C161.621 39.8086 162.36 39.1102 163.052 38.1498Z" fill="url(#paint19_linear_3034_3090)"/>
<path opacity="0.4" d="M160.149 44.8522L170.126 34.2672L173.899 37.8232C174.722 38.5994 175.263 39.3923 175.521 40.2019C175.78 41.0115 175.798 41.8031 175.577 42.5767C175.358 43.3469 174.944 44.0559 174.333 44.7036C173.72 45.3549 173.031 45.8124 172.269 46.0761C171.513 46.3396 170.72 46.3665 169.89 46.1566C169.066 45.9465 168.244 45.455 167.424 44.6821L164.83 42.2367L166.106 40.8826L168.556 43.1915C169.076 43.6819 169.583 43.9902 170.075 44.1162C170.571 44.2389 171.043 44.2149 171.49 44.0442C171.937 43.8736 172.349 43.5884 172.726 43.1887C173.103 42.789 173.361 42.3626 173.502 41.9096C173.643 41.4566 173.632 40.988 173.47 40.5038C173.312 40.0228 172.968 39.5322 172.437 39.0321L170.432 37.1421L161.746 46.3575L160.149 44.8522Z" fill="url(#paint20_linear_3034_3090)"/>
<path opacity="0.4" d="M167.628 51.5526L178.993 42.4749L180.363 44.1896L175.424 48.1346L179.95 53.8004L184.889 49.8555L186.263 51.5758L174.898 60.6536L173.524 58.9333L178.479 54.975L173.954 49.3092L168.998 53.2674L167.628 51.5526Z" fill="url(#paint21_linear_3034_3090)"/>
<path opacity="0.4" d="M175.711 61.5841L174.538 59.5713L189.741 56.7705L191.017 58.9612L181.085 70.8071L179.913 68.7943L188.127 59.2482L188.07 59.15L175.711 61.5841ZM180.829 59.0537L184.634 65.5829L183.038 66.5126L179.234 59.9834L180.829 59.0537Z" fill="url(#paint22_linear_3034_3090)"/>
<path opacity="0.4" d="M185.174 80.3428L184.339 78.3056L196.056 73.5035L195.011 70.9536C194.738 70.2877 194.416 69.7879 194.044 69.4543C193.676 69.1189 193.266 68.9311 192.815 68.8909C192.364 68.8508 191.884 68.9348 191.375 69.1431C190.872 69.3496 190.48 69.6228 190.199 69.9628C189.919 70.3028 189.769 70.7174 189.75 71.2064C189.73 71.6955 189.856 72.2708 190.127 72.9323L191.541 76.3825L189.793 77.0989L188.301 73.4581C187.875 72.4198 187.694 71.4836 187.756 70.6495C187.82 69.8198 188.092 69.1044 188.573 68.5034C189.059 67.9049 189.714 67.4368 190.538 67.0993C191.366 66.7599 192.165 66.6318 192.936 66.715C193.712 66.7964 194.42 67.1074 195.061 67.648C195.704 68.193 196.238 68.9847 196.664 70.023L198.633 74.827L185.174 80.3428ZM188.523 71.2102L189.444 73.4577L182.033 72.6801L181.088 70.3734L188.523 71.2102Z" fill="url(#paint23_linear_3034_3090)"/>
<g opacity="0.4">
<path d="M100.767 171.24L99.0376 185.683L96.8656 185.423L98.372 172.842L91.5739 172.028L90.0676 184.609L87.8956 184.349L89.6248 169.906L100.767 171.24Z" fill="#0E344A"/>
<path d="M100.767 171.24L99.0376 185.683L96.8656 185.423L98.372 172.842L91.5739 172.028L90.0676 184.609L87.8956 184.349L89.6248 169.906L100.767 171.24Z" fill="url(#paint24_linear_3034_3090)"/>
</g>
<g opacity="0.4">
<path d="M102.164 186.037L101.829 171.495L107.013 171.376C108.144 171.35 109.086 171.534 109.839 171.929C110.591 172.324 111.16 172.874 111.546 173.58C111.932 174.282 112.135 175.078 112.155 175.968C112.176 176.862 112.007 177.671 111.65 178.395C111.297 179.113 110.751 179.689 110.013 180.123C109.279 180.552 108.349 180.779 107.222 180.805L103.658 180.887L103.615 179.027L106.981 178.95C107.696 178.933 108.273 178.797 108.712 178.54C109.151 178.279 109.47 177.931 109.668 177.495C109.867 177.06 109.96 176.567 109.947 176.018C109.934 175.469 109.819 174.984 109.601 174.563C109.383 174.142 109.046 173.815 108.591 173.584C108.14 173.353 107.551 173.246 106.822 173.263L104.067 173.326L104.358 185.986L102.164 186.037Z" fill="#0E344A"/>
<path d="M102.164 186.037L101.829 171.495L107.013 171.376C108.144 171.35 109.086 171.534 109.839 171.929C110.591 172.324 111.16 172.874 111.546 173.58C111.932 174.282 112.135 175.078 112.155 175.968C112.176 176.862 112.007 177.671 111.65 178.395C111.297 179.113 110.751 179.689 110.013 180.123C109.279 180.552 108.349 180.779 107.222 180.805L103.658 180.887L103.615 179.027L106.981 178.95C107.696 178.933 108.273 178.797 108.712 178.54C109.151 178.279 109.47 177.931 109.668 177.495C109.867 177.06 109.96 176.567 109.947 176.018C109.934 175.469 109.819 174.984 109.601 174.563C109.383 174.142 109.046 173.815 108.591 173.584C108.14 173.353 107.551 173.246 106.822 173.263L104.067 173.326L104.358 185.986L102.164 186.037Z" fill="url(#paint25_linear_3034_3090)"/>
</g>
<g opacity="0.4">
<path d="M116.299 185.633L114.005 186.038L116.625 170.803L119.121 170.362L126.81 183.773L124.516 184.179L118.393 173.174L118.281 173.193L116.299 185.633ZM115.691 179.956L123.132 178.639L123.454 180.457L116.013 181.774L115.691 179.956Z" fill="#0E344A"/>
<path d="M116.299 185.633L114.005 186.038L116.625 170.803L119.121 170.362L126.81 183.773L124.516 184.179L118.393 173.174L118.281 173.193L116.299 185.633ZM115.691 179.956L123.132 178.639L123.454 180.457L116.013 181.774L115.691 179.956Z" fill="url(#paint26_linear_3034_3090)"/>
</g>
<g opacity="0.4">
<path d="M137.53 180.637L130.834 175.994L129.365 176.483L131.425 182.67L129.342 183.363L124.748 169.562L126.83 168.869L128.771 174.698L129.451 174.471L132.727 166.906L135.267 166.06L131.805 174.077L140.07 179.791L137.53 180.637Z" fill="#0E344A"/>
<path d="M137.53 180.637L130.834 175.994L129.365 176.483L131.425 182.67L129.342 183.363L124.748 169.562L126.83 168.869L128.771 174.698L129.451 174.471L132.727 166.906L135.267 166.06L131.805 174.077L140.07 179.791L137.53 180.637Z" fill="url(#paint27_linear_3034_3090)"/>
</g>
<g opacity="0.4">
<path d="M136.192 168.045L135.34 166.359L145.388 161.283L146.239 162.969L142.189 165.016L147.896 176.312L145.943 177.298L140.236 166.002L136.192 168.045Z" fill="#0E344A"/>
<path d="M136.192 168.045L135.34 166.359L145.388 161.283L146.239 162.969L142.189 165.016L147.896 176.312L145.943 177.298L140.236 166.002L136.192 168.045Z" fill="url(#paint28_linear_3034_3090)"/>
</g>
<g opacity="0.4">
<path d="M146.301 161.143L148.069 159.88L154.279 168.571L154.389 168.493L154.2 155.499L155.853 154.318L164.309 166.153L162.523 167.429L156.322 158.749L156.212 158.828L156.404 171.802L154.757 172.978L146.301 161.143Z" fill="#0E344A"/>
<path d="M146.301 161.143L148.069 159.88L154.279 168.571L154.389 168.493L154.2 155.499L155.853 154.318L164.309 166.153L162.523 167.429L156.322 158.749L156.212 158.828L156.404 171.802L154.757 172.978L146.301 161.143Z" fill="url(#paint29_linear_3034_3090)"/>
</g>
<g opacity="0.4">
<path d="M172.907 158.479L164.86 157.204L163.749 158.283L168.29 162.961L166.715 164.49L156.584 154.052L158.159 152.524L162.438 156.932L162.952 156.433L162.618 148.195L164.539 146.331L164.902 155.055L174.828 156.614L172.907 158.479Z" fill="#0E344A"/>
<path d="M172.907 158.479L164.86 157.204L163.749 158.283L168.29 162.961L166.715 164.49L156.584 154.052L158.159 152.524L162.438 156.932L162.952 156.433L162.618 148.195L164.539 146.331L164.902 155.055L174.828 156.614L172.907 158.479Z" fill="url(#paint30_linear_3034_3090)"/>
</g>
<g opacity="0.4">
<path d="M177.58 153.796L176.179 155.657L167.707 142.726L169.232 140.701L184.001 145.267L182.6 147.129L170.617 143.254L170.548 143.345L177.58 153.796ZM173.265 150.058L177.81 144.02L179.285 145.131L174.74 151.168L173.265 150.058Z" fill="#0E344A"/>
<path d="M177.58 153.796L176.179 155.657L167.707 142.726L169.232 140.701L184.001 145.267L182.6 147.129L170.617 143.254L170.548 143.345L177.58 153.796ZM173.265 150.058L177.81 144.02L179.285 145.131L174.74 151.168L173.265 150.058Z" fill="url(#paint31_linear_3034_3090)"/>
</g>
<path d="M212.139 102.97C212.139 158.697 165.262 203.904 107.396 203.904C49.53 203.904 2.65234 158.697 2.65234 102.97C2.65234 47.2429 49.53 2.03613 107.396 2.03613C165.262 2.03613 212.139 47.2429 212.139 102.97Z" stroke="url(#paint32_linear_3034_3090)"/>
</g>
<defs>
<linearGradient id="paint0_linear_3034_3090" x1="52.4725" y1="100.474" x2="162.309" y2="100.474" gradientUnits="userSpaceOnUse">
<stop stop-color="#3793AE"/>
<stop offset="1" stop-color="#074287"/>
</linearGradient>
<linearGradient id="paint1_linear_3034_3090" x1="63.9996" y1="100.475" x2="150.619" y2="100.475" gradientUnits="userSpaceOnUse">
<stop stop-color="#3793AE"/>
<stop offset="1" stop-color="#074287"/>
</linearGradient>
<linearGradient id="paint2_linear_3034_3090" x1="34.7445" y1="150.889" x2="29.1457" y2="138.72" gradientUnits="userSpaceOnUse">
<stop stop-color="#3793AE"/>
<stop offset="1" stop-color="#074287"/>
</linearGradient>
<linearGradient id="paint3_linear_3034_3090" x1="29.1593" y1="139.546" x2="25.4323" y2="126.68" gradientUnits="userSpaceOnUse">
<stop stop-color="#3793AE"/>
<stop offset="1" stop-color="#074287"/>
</linearGradient>
<linearGradient id="paint4_linear_3034_3090" x1="25.2637" y1="127.522" x2="23.3943" y2="113.357" gradientUnits="userSpaceOnUse">
<stop stop-color="#3793AE"/>
<stop offset="1" stop-color="#074287"/>
</linearGradient>
<linearGradient id="paint5_linear_3034_3090" x1="23.1979" y1="114.169" x2="23.4255" y2="100.776" gradientUnits="userSpaceOnUse">
<stop stop-color="#3793AE"/>
<stop offset="1" stop-color="#074287"/>
</linearGradient>
<linearGradient id="paint6_linear_3034_3090" x1="23.2003" y1="101.553" x2="24.92" y2="90.0719" gradientUnits="userSpaceOnUse">
<stop stop-color="#3793AE"/>
<stop offset="1" stop-color="#074287"/>
</linearGradient>
<linearGradient id="paint7_linear_3034_3090" x1="24.1128" y1="90.6376" x2="29.785" y2="73.7027" gradientUnits="userSpaceOnUse">
<stop stop-color="#3793AE"/>
<stop offset="1" stop-color="#074287"/>
</linearGradient>
<linearGradient id="paint8_linear_3034_3090" x1="29.2961" y1="74.324" x2="35.5272" y2="62.4669" gradientUnits="userSpaceOnUse">
<stop stop-color="#3793AE"/>
<stop offset="1" stop-color="#074287"/>
</linearGradient>
<linearGradient id="paint9_linear_3034_3090" x1="34.5137" y1="62.6812" x2="46.2022" y2="48.017" gradientUnits="userSpaceOnUse">
<stop stop-color="#3793AE"/>
<stop offset="1" stop-color="#074287"/>
</linearGradient>
<linearGradient id="paint10_linear_3034_3090" x1="45.4179" y1="48.5724" x2="55.3528" y2="39.5882" gradientUnits="userSpaceOnUse">
<stop stop-color="#3793AE"/>
<stop offset="1" stop-color="#074287"/>
</linearGradient>
<linearGradient id="paint11_linear_3034_3090" x1="54.5779" y1="39.9051" x2="64.9167" y2="32.8764" gradientUnits="userSpaceOnUse">
<stop stop-color="#3793AE"/>
<stop offset="1" stop-color="#074287"/>
</linearGradient>
<linearGradient id="paint12_linear_3034_3090" x1="70.6994" y1="29.2779" x2="83.1888" y2="24.4371" gradientUnits="userSpaceOnUse">
<stop stop-color="#3793AE"/>
<stop offset="1" stop-color="#074287"/>
</linearGradient>
<linearGradient id="paint13_linear_3034_3090" x1="82.185" y1="24.4297" x2="95.2417" y2="21.4396" gradientUnits="userSpaceOnUse">
<stop stop-color="#3793AE"/>
<stop offset="1" stop-color="#074287"/>
</linearGradient>
<linearGradient id="paint14_linear_3034_3090" x1="94.372" y1="21.3227" x2="106.827" y2="20.2427" gradientUnits="userSpaceOnUse">
<stop stop-color="#3793AE"/>
<stop offset="1" stop-color="#074287"/>
</linearGradient>
<linearGradient id="paint15_linear_3034_3090" x1="106.247" y1="19.8595" x2="120.505" y2="20.7833" gradientUnits="userSpaceOnUse">
<stop stop-color="#3793AE"/>
<stop offset="1" stop-color="#074287"/>
</linearGradient>
<linearGradient id="paint16_linear_3034_3090" x1="119.98" y1="20.5359" x2="131.358" y2="22.838" gradientUnits="userSpaceOnUse">
<stop stop-color="#3793AE"/>
<stop offset="1" stop-color="#074287"/>
</linearGradient>
<linearGradient id="paint17_linear_3034_3090" x1="130.16" y1="22.1742" x2="142.814" y2="26.5666" gradientUnits="userSpaceOnUse">
<stop stop-color="#3793AE"/>
<stop offset="1" stop-color="#074287"/>
</linearGradient>
<linearGradient id="paint18_linear_3034_3090" x1="142.375" y1="26.0921" x2="153.505" y2="31.7856" gradientUnits="userSpaceOnUse">
<stop stop-color="#3793AE"/>
<stop offset="1" stop-color="#074287"/>
</linearGradient>
<linearGradient id="paint19_linear_3034_3090" x1="153.312" y1="31.2111" x2="164.904" y2="39.5635" gradientUnits="userSpaceOnUse">
<stop stop-color="#3793AE"/>
<stop offset="1" stop-color="#074287"/>
</linearGradient>
<linearGradient id="paint20_linear_3034_3090" x1="163.99" y1="38.5668" x2="172.438" y2="46.5289" gradientUnits="userSpaceOnUse">
<stop stop-color="#3793AE"/>
<stop offset="1" stop-color="#074287"/>
</linearGradient>
<linearGradient id="paint21_linear_3034_3090" x1="172.322" y1="45.8793" x2="180.682" y2="56.3453" gradientUnits="userSpaceOnUse">
<stop stop-color="#3793AE"/>
<stop offset="1" stop-color="#074287"/>
</linearGradient>
<linearGradient id="paint22_linear_3034_3090" x1="180.564" y1="55.5943" x2="187.308" y2="67.1674" gradientUnits="userSpaceOnUse">
<stop stop-color="#3793AE"/>
<stop offset="1" stop-color="#074287"/>
</linearGradient>
<linearGradient id="paint23_linear_3034_3090" x1="187.36" y1="66.6703" x2="192.101" y2="78.2382" gradientUnits="userSpaceOnUse">
<stop stop-color="#3793AE"/>
<stop offset="1" stop-color="#074287"/>
</linearGradient>
<linearGradient id="paint24_linear_3034_3090" x1="87.1119" y1="176.995" x2="100.412" y2="178.587" gradientUnits="userSpaceOnUse">
<stop stop-color="#3793AE"/>
<stop offset="1" stop-color="#074287"/>
</linearGradient>
<linearGradient id="paint25_linear_3034_3090" x1="100.483" y1="178.865" x2="112.088" y2="178.598" gradientUnits="userSpaceOnUse">
<stop stop-color="#3793AE"/>
<stop offset="1" stop-color="#074287"/>
</linearGradient>
<linearGradient id="paint26_linear_3034_3090" x1="112.352" y1="179.01" x2="125.542" y2="176.677" gradientUnits="userSpaceOnUse">
<stop stop-color="#3793AE"/>
<stop offset="1" stop-color="#074287"/>
</linearGradient>
<linearGradient id="paint27_linear_3034_3090" x1="125.633" y1="177" x2="137.495" y2="173.051" gradientUnits="userSpaceOnUse">
<stop stop-color="#3793AE"/>
<stop offset="1" stop-color="#074287"/>
</linearGradient>
<linearGradient id="paint28_linear_3034_3090" x1="137.941" y1="173.265" x2="149.1" y2="167.628" gradientUnits="userSpaceOnUse">
<stop stop-color="#3793AE"/>
<stop offset="1" stop-color="#074287"/>
</linearGradient>
<linearGradient id="paint29_linear_3034_3090" x1="149.343" y1="167.987" x2="160.242" y2="160.2" gradientUnits="userSpaceOnUse">
<stop stop-color="#3793AE"/>
<stop offset="1" stop-color="#074287"/>
</linearGradient>
<linearGradient id="paint30_linear_3034_3090" x1="160.611" y1="160.369" x2="169.582" y2="151.661" gradientUnits="userSpaceOnUse">
<stop stop-color="#3793AE"/>
<stop offset="1" stop-color="#074287"/>
</linearGradient>
<linearGradient id="paint31_linear_3034_3090" x1="170.178" y1="151.642" x2="178.235" y2="140.941" gradientUnits="userSpaceOnUse">
<stop stop-color="#3793AE"/>
<stop offset="1" stop-color="#074287"/>
</linearGradient>
<linearGradient id="paint32_linear_3034_3090" x1="3.63117" y1="102.97" x2="212.639" y2="102.97" gradientUnits="userSpaceOnUse">
<stop stop-color="#3793AE"/>
<stop offset="1" stop-color="#074287"/>
</linearGradient>
<clipPath id="clip0_3034_3090">
<rect width="215" height="206" fill="white"/>
</clipPath>
</defs>
</svg>
