<svg width="20" height="20" viewBox="0 0 20 20" fill="none" xmlns="http://www.w3.org/2000/svg">
<path d="M9.9751 0C4.46884 0 0 4.48 0 10C0 15.52 4.46884 20 9.9751 20C15.4814 20 19.9502 15.52 19.9502 10C19.9502 4.48 15.4814 0 9.9751 0ZM14.6035 6.8C14.4539 8.38 13.8055 12.22 13.4764 13.99C13.3367 14.74 13.0574 14.99 12.7981 15.02C12.2195 15.07 11.7806 14.64 11.222 14.27C10.3442 13.69 9.84542 13.33 8.99754 12.77C8.01 12.12 8.64841 11.76 9.21699 11.18C9.36662 11.03 11.9202 8.7 11.9701 8.49C11.977 8.45819 11.9761 8.42517 11.9674 8.3938C11.9587 8.36244 11.9425 8.33367 11.9202 8.31C11.8604 8.26 11.7806 8.28 11.7108 8.29C11.621 8.31 10.2245 9.24 7.50127 11.08C7.10227 11.35 6.74317 11.49 6.42396 11.48C6.06486 11.47 5.38655 11.28 4.87782 11.11C4.24939 10.91 3.76061 10.8 3.80051 10.45C3.82046 10.27 4.06984 10.09 4.53867 9.9C7.4514 8.63 9.38657 7.79 10.3542 7.39C13.1272 6.23 13.6958 6.03 14.0749 6.03C14.1547 6.03 14.3442 6.05 14.4639 6.15C14.5636 6.23 14.5936 6.34 14.6035 6.42C14.5936 6.48 14.6135 6.66 14.6035 6.8Z" fill="#606060"/>
<path d="M9.9751 0C4.46884 0 0 4.48 0 10C0 15.52 4.46884 20 9.9751 20C15.4814 20 19.9502 15.52 19.9502 10C19.9502 4.48 15.4814 0 9.9751 0ZM14.6035 6.8C14.4539 8.38 13.8055 12.22 13.4764 13.99C13.3367 14.74 13.0574 14.99 12.7981 15.02C12.2195 15.07 11.7806 14.64 11.222 14.27C10.3442 13.69 9.84542 13.33 8.99754 12.77C8.01 12.12 8.64841 11.76 9.21699 11.18C9.36662 11.03 11.9202 8.7 11.9701 8.49C11.977 8.45819 11.9761 8.42517 11.9674 8.3938C11.9587 8.36244 11.9425 8.33367 11.9202 8.31C11.8604 8.26 11.7806 8.28 11.7108 8.29C11.621 8.31 10.2245 9.24 7.50127 11.08C7.10227 11.35 6.74317 11.49 6.42396 11.48C6.06486 11.47 5.38655 11.28 4.87782 11.11C4.24939 10.91 3.76061 10.8 3.80051 10.45C3.82046 10.27 4.06984 10.09 4.53867 9.9C7.4514 8.63 9.38657 7.79 10.3542 7.39C13.1272 6.23 13.6958 6.03 14.0749 6.03C14.1547 6.03 14.3442 6.05 14.4639 6.15C14.5636 6.23 14.5936 6.34 14.6035 6.42C14.5936 6.48 14.6135 6.66 14.6035 6.8Z" fill="url(#paint0_linear_1401_2280)"/>
<defs>
<linearGradient id="paint0_linear_1401_2280" x1="13.1084" y1="3.29949" x2="20.9839" y2="3.72326" gradientUnits="userSpaceOnUse">
<stop stop-color="#3793AE"/>
<stop offset="1" stop-color="#074287"/>
</linearGradient>
</defs>
</svg>
