<svg width="18" height="20" viewBox="0 0 18 20" fill="none" xmlns="http://www.w3.org/2000/svg">
<path d="M0 7.09806L1.63636 8.89841C5.70273 4.42453 12.2973 4.42453 16.3636 8.89841L18 7.09806C13.0336 1.63398 4.97455 1.63398 0 7.09806ZM6.54545 14.2995L9 17L11.4545 14.2995C11.1325 13.9442 10.75 13.6624 10.3288 13.4701C9.90756 13.2778 9.45602 13.1788 9 13.1788C8.54398 13.1788 8.09244 13.2778 7.67124 13.4701C7.25005 13.6624 6.86748 13.9442 6.54545 14.2995ZM3.27273 10.6988L4.90909 12.4991C5.99438 11.3061 7.46581 10.6359 9 10.6359C10.5342 10.6359 12.0056 11.3061 13.0909 12.4991L14.7273 10.6988C11.5691 7.22408 6.43909 7.22408 3.27273 10.6988Z" fill="black"/>
<path d="M0 7.09806L1.63636 8.89841C5.70273 4.42453 12.2973 4.42453 16.3636 8.89841L18 7.09806C13.0336 1.63398 4.97455 1.63398 0 7.09806ZM6.54545 14.2995L9 17L11.4545 14.2995C11.1325 13.9442 10.75 13.6624 10.3288 13.4701C9.90756 13.2778 9.45602 13.1788 9 13.1788C8.54398 13.1788 8.09244 13.2778 7.67124 13.4701C7.25005 13.6624 6.86748 13.9442 6.54545 14.2995ZM3.27273 10.6988L4.90909 12.4991C5.99438 11.3061 7.46581 10.6359 9 10.6359C10.5342 10.6359 12.0056 11.3061 13.0909 12.4991L14.7273 10.6988C11.5691 7.22408 6.43909 7.22408 3.27273 10.6988Z" fill="white"/>
<path d="M0 7.09806L1.63636 8.89841C5.70273 4.42453 12.2973 4.42453 16.3636 8.89841L18 7.09806C13.0336 1.63398 4.97455 1.63398 0 7.09806ZM6.54545 14.2995L9 17L11.4545 14.2995C11.1325 13.9442 10.75 13.6624 10.3288 13.4701C9.90756 13.2778 9.45602 13.1788 9 13.1788C8.54398 13.1788 8.09244 13.2778 7.67124 13.4701C7.25005 13.6624 6.86748 13.9442 6.54545 14.2995ZM3.27273 10.6988L4.90909 12.4991C5.99438 11.3061 7.46581 10.6359 9 10.6359C10.5342 10.6359 12.0056 11.3061 13.0909 12.4991L14.7273 10.6988C11.5691 7.22408 6.43909 7.22408 3.27273 10.6988Z" fill="url(#paint0_linear_3074_3107)" fill-opacity="0.3"/>
<defs>
<linearGradient id="paint0_linear_3074_3107" x1="0.126464" y1="10" x2="18" y2="10" gradientUnits="userSpaceOnUse">
<stop stop-color="#F5FDFF"/>
<stop offset="1" stop-color="#074287"/>
</linearGradient>
</defs>
</svg>
