<svg width="18" height="20" viewBox="0 0 18 20" fill="none" xmlns="http://www.w3.org/2000/svg">
<path d="M3.04503 5.12484C2.97753 5.1415 2.91003 5.18317 2.85003 5.23317C1.96735 6.62878 1.49571 8.29409 1.50003 9.99984C1.50003 12.21 2.29021 14.3296 3.69673 15.8924C4.39317 16.6662 5.21996 17.28 6.1299 17.6988C7.03985 18.1176 8.01512 18.3332 9.00003 18.3332C11.25 18.3332 13.26 17.2332 14.625 15.4998L12.75 15.7082C10.6875 15.9582 8.58753 15.9915 6.49503 15.7998C5.96253 15.7832 5.43003 15.6332 4.94253 15.3748C4.62606 15.2139 4.35376 14.9624 4.15346 14.6461C3.95316 14.3299 3.83205 13.9602 3.80253 13.5748C3.79503 13.4415 3.84003 13.3332 3.92253 13.2248L5.56503 11.3332L11.2725 4.74984V4.6665H8.13003C6.42753 4.69984 4.73253 4.84984 3.04503 5.12484ZM15.1275 14.5832C15.195 14.5582 15.2625 14.5332 15.3225 14.4915C16.093 13.1499 16.5016 11.5913 16.5 9.99984C16.5 8.90549 16.306 7.82186 15.9291 6.81081C15.5522 5.79976 14.9998 4.8811 14.3033 4.10728C13.6069 3.33346 12.7801 2.71963 11.8702 2.30084C10.9602 1.88205 9.98494 1.6665 9.00003 1.6665C6.91503 1.6665 5.02503 2.60817 3.66753 4.1415H3.87753C6.21003 3.80817 8.57253 3.72484 10.92 3.87484C11.625 3.8665 12.3375 4.0165 12.9975 4.30817C13.3369 4.45785 13.633 4.70777 13.8537 5.0309C14.0745 5.35404 14.2115 5.73808 14.25 6.1415C14.25 6.27484 14.1975 6.4165 14.115 6.5165L7.28253 14.3248L6.75003 14.9582V15.0498H9.85503C11.625 14.9998 13.38 14.8415 15.1275 14.5832Z" fill="black"/>
<path d="M3.04503 5.12484C2.97753 5.1415 2.91003 5.18317 2.85003 5.23317C1.96735 6.62878 1.49571 8.29409 1.50003 9.99984C1.50003 12.21 2.29021 14.3296 3.69673 15.8924C4.39317 16.6662 5.21996 17.28 6.1299 17.6988C7.03985 18.1176 8.01512 18.3332 9.00003 18.3332C11.25 18.3332 13.26 17.2332 14.625 15.4998L12.75 15.7082C10.6875 15.9582 8.58753 15.9915 6.49503 15.7998C5.96253 15.7832 5.43003 15.6332 4.94253 15.3748C4.62606 15.2139 4.35376 14.9624 4.15346 14.6461C3.95316 14.3299 3.83205 13.9602 3.80253 13.5748C3.79503 13.4415 3.84003 13.3332 3.92253 13.2248L5.56503 11.3332L11.2725 4.74984V4.6665H8.13003C6.42753 4.69984 4.73253 4.84984 3.04503 5.12484ZM15.1275 14.5832C15.195 14.5582 15.2625 14.5332 15.3225 14.4915C16.093 13.1499 16.5016 11.5913 16.5 9.99984C16.5 8.90549 16.306 7.82186 15.9291 6.81081C15.5522 5.79976 14.9998 4.8811 14.3033 4.10728C13.6069 3.33346 12.7801 2.71963 11.8702 2.30084C10.9602 1.88205 9.98494 1.6665 9.00003 1.6665C6.91503 1.6665 5.02503 2.60817 3.66753 4.1415H3.87753C6.21003 3.80817 8.57253 3.72484 10.92 3.87484C11.625 3.8665 12.3375 4.0165 12.9975 4.30817C13.3369 4.45785 13.633 4.70777 13.8537 5.0309C14.0745 5.35404 14.2115 5.73808 14.25 6.1415C14.25 6.27484 14.1975 6.4165 14.115 6.5165L7.28253 14.3248L6.75003 14.9582V15.0498H9.85503C11.625 14.9998 13.38 14.8415 15.1275 14.5832Z" fill="white"/>
<path d="M3.04503 5.12484C2.97753 5.1415 2.91003 5.18317 2.85003 5.23317C1.96735 6.62878 1.49571 8.29409 1.50003 9.99984C1.50003 12.21 2.29021 14.3296 3.69673 15.8924C4.39317 16.6662 5.21996 17.28 6.1299 17.6988C7.03985 18.1176 8.01512 18.3332 9.00003 18.3332C11.25 18.3332 13.26 17.2332 14.625 15.4998L12.75 15.7082C10.6875 15.9582 8.58753 15.9915 6.49503 15.7998C5.96253 15.7832 5.43003 15.6332 4.94253 15.3748C4.62606 15.2139 4.35376 14.9624 4.15346 14.6461C3.95316 14.3299 3.83205 13.9602 3.80253 13.5748C3.79503 13.4415 3.84003 13.3332 3.92253 13.2248L5.56503 11.3332L11.2725 4.74984V4.6665H8.13003C6.42753 4.69984 4.73253 4.84984 3.04503 5.12484ZM15.1275 14.5832C15.195 14.5582 15.2625 14.5332 15.3225 14.4915C16.093 13.1499 16.5016 11.5913 16.5 9.99984C16.5 8.90549 16.306 7.82186 15.9291 6.81081C15.5522 5.79976 14.9998 4.8811 14.3033 4.10728C13.6069 3.33346 12.7801 2.71963 11.8702 2.30084C10.9602 1.88205 9.98494 1.6665 9.00003 1.6665C6.91503 1.6665 5.02503 2.60817 3.66753 4.1415H3.87753C6.21003 3.80817 8.57253 3.72484 10.92 3.87484C11.625 3.8665 12.3375 4.0165 12.9975 4.30817C13.3369 4.45785 13.633 4.70777 13.8537 5.0309C14.0745 5.35404 14.2115 5.73808 14.25 6.1415C14.25 6.27484 14.1975 6.4165 14.115 6.5165L7.28253 14.3248L6.75003 14.9582V15.0498H9.85503C11.625 14.9998 13.38 14.8415 15.1275 14.5832Z" fill="url(#paint0_linear_3074_3100)" fill-opacity="0.3"/>
<defs>
<linearGradient id="paint0_linear_3074_3100" x1="1.60539" y1="9.99984" x2="16.5" y2="9.99984" gradientUnits="userSpaceOnUse">
<stop stop-color="#F5FDFF"/>
<stop offset="1" stop-color="#074287"/>
</linearGradient>
</defs>
</svg>
